<svg xmlns="http://www.w3.org/2000/svg" xmlns:xlink="http://www.w3.org/1999/xlink" xmlns:lucid="lucid" width="400.5" height="205.5"><g transform="translate(-1100 -555)" lucid:page-tab-id="0_0"><path d="M1100 600h80v40h-80zM1180 600h80v40h-80zM1260 600h80v40h-80zM1340 600h80v40h-80zM1420 600h80v40h-80zM1100 640h80v40h-80zM1180 640h80v40h-80zM1260 640h80v40h-80zM1340 640h80v40h-80zM1420 640h80v40h-80zM1100 680h80v40h-80zM1180 680h80v40h-80zM1260 680h80v40h-80z" fill="#fff"/><path d="M1340 680h80v40h-80z" fill="#ffd9d9"/><path d="M1420 680h80v40h-80zM1100 720h80v40h-80zM1180 720h80v40h-80zM1260 720h80v40h-80zM1340 720h80v40h-80zM1420 720h80v40h-80z" fill="#fff"/><path d="M1100 600v40M1180 600v40M1260 600v40M1340 600v40M1420 600v40M1500 600v40M1100 640v40" fill="none"/><path d="M1180 640v40M1260 640v40M1340 640v40M1420 640v40M1500 640v40" stroke="#000" fill="none"/><path d="M1100 680v40" fill="none"/><path d="M1180 680v40M1260 680v40M1340 680v40M1420 680v40M1500 680v40" stroke="#000" fill="none"/><path d="M1100 720v40" fill="none"/><path d="M1180 720v40M1260 720v40M1340 720v40M1420 720v40M1500 720v40" stroke="#000" fill="none"/><path d="M1100 600h80M1180 600h80M1260 600h80M1340 600h80M1420 600h80M1100 640h80" fill="none"/><path d="M1180 640h80M1260 640h80M1340 640h80M1420 640h80" stroke="#000" fill="none"/><path d="M1100 680h80" fill="none"/><path d="M1180 680h80M1260 680h80M1340 680h80M1420 680h80" stroke="#000" fill="none"/><path d="M1100 720h80M1100 760h80" fill="none"/><path d="M1180 720h80M1180 760h80M1260 720h80M1260 760h80M1340 720h80M1340 760h80M1420 720h80M1420 760h80" stroke="#000" fill="none"/><use xlink:href="#a" transform="matrix(1,0,0,1,1185,605) translate(28.82716049382716 19.444444444444443)"/><use xlink:href="#b" transform="matrix(1,0,0,1,1265,605) translate(29.074074074074073 19.266666666666666)"/><use xlink:href="#c" transform="matrix(1,0,0,1,1345,605) translate(29.074074074074073 19.266666666666666)"/><use xlink:href="#d" transform="matrix(1,0,0,1,1425,605) translate(29.074074074074073 19.266666666666666)"/><use xlink:href="#a" transform="matrix(1,0,0,1,1105,645) translate(28.82716049382716 19.444444444444443)"/><use xlink:href="#e" transform="matrix(1,0,0,1,1185,645) translate(22.654320987654323 19.444444444444443)"/><use xlink:href="#f" transform="matrix(1,0,0,1,1265,645) translate(23.948148148148146 19.266666666666666)"/><use xlink:href="#g" transform="matrix(1,0,0,1,1345,645) translate(23.148148148148145 19.266666666666666)"/><use xlink:href="#h" transform="matrix(1,0,0,1,1425,645) translate(23.148148148148145 19.266666666666666)"/><use xlink:href="#i" transform="matrix(1,0,0,1,1105,685) translate(29.074074074074073 19.266666666666666)"/><use xlink:href="#j" transform="matrix(1,0,0,1,1185,685) translate(23.148148148148145 19.266666666666666)"/><use xlink:href="#k" transform="matrix(1,0,0,1,1265,685) translate(23.148148148148145 19.266666666666666)"/><use xlink:href="#l" transform="matrix(1,0,0,1,1345,685) translate(23.148148148148145 19.266666666666666)"/><use xlink:href="#m" transform="matrix(1,0,0,1,1425,685) translate(23.148148148148145 19.266666666666666)"/><use xlink:href="#n" transform="matrix(1,0,0,1,1105,725) translate(29.074074074074073 19.266666666666666)"/><use xlink:href="#o" transform="matrix(1,0,0,1,1185,725) translate(23.148148148148145 19.266666666666666)"/><use xlink:href="#p" transform="matrix(1,0,0,1,1265,725) translate(23.148148148148145 19.266666666666666)"/><use xlink:href="#q" transform="matrix(1,0,0,1,1345,725) translate(23.148148148148145 19.266666666666666)"/><use xlink:href="#r" transform="matrix(1,0,0,1,1425,725) translate(23.148148148148145 19.266666666666666)"/><path d="M1280 561a6 6 0 0 1 6-6h121.5a6 6 0 0 1 6 6v33a6 6 0 0 1-6 6H1286a6 6 0 0 1-6-6z" stroke="#000" stroke-opacity="0" stroke-width="3" fill="#fff" fill-opacity="0"/><use xlink:href="#s" transform="matrix(1,0,0,1,1285,560) translate(1.990234375000007 23.212890624999996)"/><defs><path d="M101-251c68 0 85 55 85 127S166 4 100 4C33 4 14-52 14-124c0-73 17-127 87-127zm-1 229c47 0 54-49 54-102s-4-102-53-102c-51 0-55 48-55 102 0 53 5 102 54 102" id="t"/><use transform="matrix(0.06172839506172839,0,0,0.06172839506172839,0,0)" xlink:href="#t" id="a"/><path d="M27 0v-27h64v-190l-56 39v-29l58-41h29v221h61V0H27" id="u"/><use transform="matrix(0.05925925925925927,0,0,0.05925925925925927,0,0)" xlink:href="#u" id="b"/><path fill="#e81313" d="M101-251c82-7 93 87 43 132L82-64C71-53 59-42 53-27h129V0H18c2-99 128-94 128-182 0-28-16-43-45-43s-46 15-49 41l-32-3c6-41 34-60 81-64" id="v"/><use transform="matrix(0.05925925925925927,0,0,0.05925925925925927,0,0)" xlink:href="#v" id="c"/><path d="M126-127c33 6 58 20 58 59 0 88-139 92-164 29-3-8-5-16-6-25l32-3c6 27 21 44 54 44 32 0 52-15 52-46 0-38-36-46-79-43v-28c39 1 72-4 72-42 0-27-17-43-46-43-28 0-47 15-49 41l-32-3c6-42 35-63 81-64 48-1 79 21 79 65 0 36-21 52-52 59" id="w"/><use transform="matrix(0.05925925925925927,0,0,0.05925925925925927,0,0)" xlink:href="#w" id="d"/><g id="e"><use transform="matrix(0.06172839506172839,0,0,0.06172839506172839,0,0)" xlink:href="#u"/><use transform="matrix(0.06172839506172839,0,0,0.06172839506172839,12.345679012345679,0)" xlink:href="#t"/></g><g id="f"><use transform="matrix(0.05925925925925927,0,0,0.05925925925925927,0,0)" xlink:href="#u"/><use transform="matrix(0.05925925925925927,0,0,0.05925925925925927,10.251851851851853,0)" xlink:href="#u"/></g><path d="M101-251c82-7 93 87 43 132L82-64C71-53 59-42 53-27h129V0H18c2-99 128-94 128-182 0-28-16-43-45-43s-46 15-49 41l-32-3c6-41 34-60 81-64" id="x"/><g id="g"><use transform="matrix(0.05925925925925927,0,0,0.05925925925925927,0,0)" xlink:href="#u"/><use transform="matrix(0.05925925925925927,0,0,0.05925925925925927,11.851851851851853,0)" xlink:href="#x"/></g><g id="h"><use transform="matrix(0.05925925925925927,0,0,0.05925925925925927,0,0)" xlink:href="#u"/><use transform="matrix(0.05925925925925927,0,0,0.05925925925925927,11.851851851851853,0)" xlink:href="#w"/></g><path fill="#e81313" d="M27 0v-27h64v-190l-56 39v-29l58-41h29v221h61V0H27" id="y"/><use transform="matrix(0.05925925925925927,0,0,0.05925925925925927,0,0)" xlink:href="#y" id="i"/><g id="j"><use transform="matrix(0.05925925925925927,0,0,0.05925925925925927,0,0)" xlink:href="#x"/><use transform="matrix(0.05925925925925927,0,0,0.05925925925925927,11.851851851851853,0)" xlink:href="#t"/></g><g id="k"><use transform="matrix(0.05925925925925927,0,0,0.05925925925925927,0,0)" xlink:href="#x"/><use transform="matrix(0.05925925925925927,0,0,0.05925925925925927,11.851851851851853,0)" xlink:href="#u"/></g><g id="l"><use transform="matrix(0.05925925925925927,0,0,0.05925925925925927,0,0)" xlink:href="#x"/><use transform="matrix(0.05925925925925927,0,0,0.05925925925925927,11.851851851851853,0)" xlink:href="#x"/></g><g id="m"><use transform="matrix(0.05925925925925927,0,0,0.05925925925925927,0,0)" xlink:href="#x"/><use transform="matrix(0.05925925925925927,0,0,0.05925925925925927,11.851851851851853,0)" xlink:href="#w"/></g><use transform="matrix(0.05925925925925927,0,0,0.05925925925925927,0,0)" xlink:href="#x" id="n"/><g id="o"><use transform="matrix(0.05925925925925927,0,0,0.05925925925925927,0,0)" xlink:href="#w"/><use transform="matrix(0.05925925925925927,0,0,0.05925925925925927,11.851851851851853,0)" xlink:href="#t"/></g><g id="p"><use transform="matrix(0.05925925925925927,0,0,0.05925925925925927,0,0)" xlink:href="#w"/><use transform="matrix(0.05925925925925927,0,0,0.05925925925925927,11.851851851851853,0)" xlink:href="#u"/></g><g id="q"><use transform="matrix(0.05925925925925927,0,0,0.05925925925925927,0,0)" xlink:href="#w"/><use transform="matrix(0.05925925925925927,0,0,0.05925925925925927,11.851851851851853,0)" xlink:href="#x"/></g><g id="r"><use transform="matrix(0.05925925925925927,0,0,0.05925925925925927,0,0)" xlink:href="#w"/><use transform="matrix(0.05925925925925927,0,0,0.05925925925925927,11.851851851851853,0)" xlink:href="#w"/></g><path fill="#333" d="M706-1102c241 0 344 136 343 381V0H868v-695c1-168-57-273-220-268-190 6-283 138-283 336V0H185c-3-360 6-732-6-1082h170c4 54 7 126 8 185h3c63-121 164-204 346-205" id="z"/><path fill="#333" d="M615-1102c343 0 484 203 482 560-1 347-147 562-488 562-336 0-475-219-479-562-4-349 156-560 485-560zm-8 989c240 0 301-180 301-429 0-245-55-427-290-427-236 0-299 181-299 427 0 243 61 429 288 429" id="A"/><path fill="#333" d="M682 16c-209 0-323-80-324-285v-671H190v-142h170l58-282h120v282h432v142H538v652c2 114 60 155 182 155 106 0 209-16 297-34v137C921-4 806 16 682 16" id="B"/><path fill="#333" d="M617-1102c355 0 481 238 477 599H322c5 222 84 388 301 388 144 0 244-59 284-166l158 45C1002-72 854 20 623 20c-342 0-490-220-490-568 0-346 151-554 484-554zm291 461c-18-192-90-328-289-328-194 0-287 128-295 328h584" id="C"/><path fill="#333" d="M873-819c-18-114-119-146-250-146-163 0-245 50-245 151 0 151 170 148 294 185 182 54 388 94 388 320 0 240-189 325-439 329-245 4-410-69-454-268l159-31c24 133 136 168 295 165 144-2 270-31 270-171 0-164-195-160-331-202-167-52-350-87-350-299 0-218 173-315 413-313 220 2 373 77 412 260" id="D"/><path fill="#333" d="M385-1193v494h676v158H385V0H194v-1349h891v156H385" id="E"/><path fill="#333" d="M745-142h380V0H143v-142h422v-798H246v-142h499v940zM545-1292v-192h200v192H545" id="F"/><path fill="#333" d="M736-142h380V0H134v-142h422v-1200H267v-142h469v1342" id="G"/><path fill="#333" d="M904-1102c199 0 220 177 220 381V0H956v-686c-3-114 0-215-60-264-70-33-125-4-158 71-26 56-39 140-39 252V0H531v-686c-3-114-1-215-61-264-78-41-136 24-157 84-24 69-39 159-39 259V0H105c-3-360 6-732-6-1082h149c6 50 3 123 8 175 36-100 83-195 216-195 135 0 166 79 196 196 42-105 93-196 236-196" id="H"/><g id="s"><use transform="matrix(0.009765624999999998,0,0,0.009765624999999998,0,0)" xlink:href="#z"/><use transform="matrix(0.009765624999999998,0,0,0.009765624999999998,12.001953124999998,0)" xlink:href="#A"/><use transform="matrix(0.009765624999999998,0,0,0.009765624999999998,24.003906249999996,0)" xlink:href="#B"/><use transform="matrix(0.009765624999999998,0,0,0.009765624999999998,36.00585937499999,0)" xlink:href="#C"/><use transform="matrix(0.009765624999999998,0,0,0.009765624999999998,48.00781249999999,0)" xlink:href="#D"/><use transform="matrix(0.009765624999999998,0,0,0.009765624999999998,60.009765624999986,0)" xlink:href="#E"/><use transform="matrix(0.009765624999999998,0,0,0.009765624999999998,72.01171874999999,0)" xlink:href="#F"/><use transform="matrix(0.009765624999999998,0,0,0.009765624999999998,84.01367187499999,0)" xlink:href="#G"/><use transform="matrix(0.009765624999999998,0,0,0.009765624999999998,96.01562499999999,0)" xlink:href="#H"/><use transform="matrix(0.009765624999999998,0,0,0.009765624999999998,108.01757812499999,0)" xlink:href="#D"/></g></defs></g></svg>