<svg xmlns="http://www.w3.org/2000/svg" xmlns:xlink="http://www.w3.org/1999/xlink" xmlns:lucid="lucid" width="420" height="455.7"><g transform="translate(-900 -50)" lucid:page-tab-id="0_0"><path d="M1053 110h107v49.4h-107z" fill="#dfe3e8"/><path d="M1053 159.4h107v49.4h-107zM1053 208.8h107v49.4h-107zM1053 258.2h107v49.4h-107zM1053 307.6h107V357h-107zM1053 357h107v49.4h-107zM1053 406.4h107v49.4h-107z" fill="#e3fae3"/><path d="M1053 455.8h107v49.4h-107z" fill="#dfe3e8"/><path d="M1053 110v49.4M1160 110v49.4M1053 159.4v49.4M1160 159.4v49.4M1053 208.8v49.4M1160 208.8v49.4M1053 258.2v49.4M1160 258.2v49.4M1053 307.6V357M1160 307.6V357M1053 357v49.4M1160 357v49.4M1053 406.4v49.4M1160 406.4v49.4M1053 455.8v49.4M1160 455.8v49.4M1053 110h107M1053 159.4h107M1053 208.8h107M1053 258.2h107M1053 307.6h107M1053 357h107M1053 406.4h107M1053 455.8h107M1053 505.2h107" stroke="#000" fill="none"/><use xlink:href="#a" transform="matrix(1,0,0,1,1058,115) translate(29.98148148148148 24.444444444444443)"/><use xlink:href="#b" transform="matrix(1,0,0,1,1058,164.4) translate(38.12962962962963 24.444444444444443)"/><use xlink:href="#c" transform="matrix(1,0,0,1,1058,213.8) translate(38.12962962962963 24.444444444444443)"/><use xlink:href="#d" transform="matrix(1,0,0,1,1058,263.20000000000005) translate(41.21604938271605 24.444444444444443)"/><use xlink:href="#c" transform="matrix(1,0,0,1,1058,312.6) translate(38.12962962962963 24.444444444444443)"/><use xlink:href="#d" transform="matrix(1,0,0,1,1058,362) translate(41.21604938271605 24.444444444444443)"/><use xlink:href="#e" transform="matrix(1,0,0,1,1058,411.4) translate(38.12962962962963 24.444444444444443)"/><use xlink:href="#f" transform="matrix(1,0,0,1,1058,460.79999999999995) translate(29.98148148148148 24.444444444444443)"/><path d="M1043 56a6 6 0 0 1 6-6h121.5a6 6 0 0 1 6 6v33a6 6 0 0 1-6 6H1049a6 6 0 0 1-6-6z" stroke="#000" stroke-opacity="0" stroke-width="3" fill="#fff" fill-opacity="0"/><use xlink:href="#g" transform="matrix(1,0,0,1,1048,55) translate(0.2747395833333428 29.140624999999993)"/><use xlink:href="#h" transform="matrix(1,0,0,1,1048,55) translate(55.626302083333336 29.140624999999993)"/><path d="M1163 110h90v49.4h-90zM1163 159.4h90v49.4h-90zM1163 208.8h90v49.4h-90zM1163 258.2h90v49.4h-90zM1163 307.6h90V357h-90zM1163 357h90v49.4h-90zM1163 406.4h90v49.4h-90zM1163 455.8h90v49.4h-90z" fill="#fff"/><path d="M1163 110v49.4M1253 110v49.4" stroke="#000" stroke-opacity="0" fill="none"/><path d="M1163 159.4v49.4M1253 159.4v49.4" stroke="#e81313" fill="none"/><path d="M1163 208.8v49.4M1253 208.8v49.4M1163 258.2v49.4M1253 258.2v49.4M1163 307.6V357M1253 307.6V357M1163 357v49.4M1253 357v49.4M1163 406.4v49.4M1253 406.4v49.4M1163 455.8v49.4M1253 455.8v49.4M1163 110h90" stroke="#000" stroke-opacity="0" fill="none"/><path d="M1163 159.4h90M1163 208.8h90" stroke="#e81313" fill="none"/><path d="M1163 258.2h90M1163 307.6h90M1163 357h90M1163 406.4h90M1163 455.8h90M1163 505.2h90" stroke="#000" stroke-opacity="0" fill="none"/><use xlink:href="#i" transform="matrix(1,0,0,1,1168,115) translate(0.4934895833333286 25.91362847222222)"/><use xlink:href="#j" transform="matrix(1,0,0,1,1168,164.4) translate(0.4934895833333286 25.91362847222222)"/><use xlink:href="#k" transform="matrix(1,0,0,1,1168,213.8) translate(0.4934895833333286 25.91362847222222)"/><use xlink:href="#l" transform="matrix(1,0,0,1,1168,263.20000000000005) translate(0.4934895833333286 25.91362847222222)"/><use xlink:href="#m" transform="matrix(1,0,0,1,1168,312.6) translate(0.4934895833333286 25.91362847222222)"/><use xlink:href="#n" transform="matrix(1,0,0,1,1168,362) translate(0.4934895833333286 25.91362847222222)"/><use xlink:href="#o" transform="matrix(1,0,0,1,1168,411.4) translate(0.4934895833333286 25.91362847222222)"/><use xlink:href="#p" transform="matrix(1,0,0,1,1168,460.79999999999995) translate(0.4934895833333286 25.91362847222222)"/><path d="M980 160h63v49.4h-63zM980 209.4h63v49.4h-63zM980 258.8h63v49.4h-63zM980 308.2h63v49.4h-63zM980 357.6h63V407h-63zM980 407h63v49.4h-63z" fill="#fff"/><path d="M980 160v49.4M1043 160v49.4M980 209.4v49.4M1043 209.4v49.4M980 258.8v49.4M1043 258.8v49.4M980 308.2v49.4M1043 308.2v49.4M980 357.6V407M1043 357.6V407M980 407v49.4M1043 407v49.4M980 160h63M980 456.4h63" stroke="#000" stroke-opacity="0" fill="none"/><use xlink:href="#q" transform="matrix(1,0,0,1,985,165) translate(6.496744791666668 25.91362847222222)"/><use xlink:href="#r" transform="matrix(1,0,0,1,985,214.4) translate(6.496744791666668 25.91362847222222)"/><use xlink:href="#s" transform="matrix(1,0,0,1,985,263.8) translate(6.496744791666668 25.91362847222222)"/><use xlink:href="#t" transform="matrix(1,0,0,1,985,313.2) translate(6.496744791666668 25.91362847222222)"/><use xlink:href="#u" transform="matrix(1,0,0,1,985,362.6) translate(6.496744791666668 25.91362847222222)"/><use xlink:href="#v" transform="matrix(1,0,0,1,985,412) translate(6.496744791666668 25.91362847222222)"/><path d="M900 160h90v49.4h-90zM900 209.4h90v49.4h-90zM900 258.8h90v49.4h-90zM900 308.2h90v49.4h-90zM900 357.6h90V407h-90zM900 407h90v49.4h-90z" fill="#fff"/><path d="M900 160v49.4M990 160v49.4M900 209.4v49.4M990 209.4v49.4M900 258.8v49.4M990 258.8v49.4M900 308.2v49.4M990 308.2v49.4M900 357.6V407M990 357.6V407M900 407v49.4M990 407v49.4M900 160h90M900 456.4h90" stroke="#000" stroke-opacity="0" fill="none"/><use xlink:href="#w" transform="matrix(1,0,0,1,905,165) translate(0.4934895833333286 25.91362847222222)"/><use xlink:href="#w" transform="matrix(1,0,0,1,905,214.4) translate(0.4934895833333286 25.91362847222222)"/><use xlink:href="#w" transform="matrix(1,0,0,1,905,263.8) translate(0.4934895833333286 25.91362847222222)"/><use xlink:href="#w" transform="matrix(1,0,0,1,905,313.20000000000005) translate(0.4934895833333286 25.91362847222222)"/><use xlink:href="#w" transform="matrix(1,0,0,1,905,362.6) translate(0.4934895833333286 25.91362847222222)"/><use xlink:href="#w" transform="matrix(1,0,0,1,905,412) translate(0.4934895833333286 25.91362847222222)"/><path d="M1319 161h-27a5.5 5.5 0 0 1-5.5-5.5 5.5 5.5 0 0 0-5.5-5.5h-9.48M1318.97 161h1.03" stroke="#000" stroke-opacity="0" stroke-width="2" fill="none"/><path d="M1256.25 150l14.27-4.63v9.26z" stroke="#000" stroke-opacity="0" stroke-width="2" fill-opacity="0"/><path d="M900 121a6 6 0 0 1 6-6h121.5a6 6 0 0 1 6 6v33a6 6 0 0 1-6 6H906a6 6 0 0 1-6-6z" stroke="#000" stroke-opacity="0" stroke-width="3" fill="#ced4db"/><use xlink:href="#x" transform="matrix(1,0,0,1,905,120) translate(4.098765432098766 22.15277777777778)"/><path d="M900 466.2a6 6 0 0 1 6-6h121.5a6 6 0 0 1 6 6v33a6 6 0 0 1-6 6H906a6 6 0 0 1-6-6z" stroke="#000" stroke-opacity="0" stroke-width="3" fill="#ced4db"/><use xlink:href="#x" transform="matrix(1,0,0,1,905,465.2) translate(4.098765432098766 22.15277777777778)"/><defs><path d="M101-251c82-7 93 87 43 132L82-64C71-53 59-42 53-27h129V0H18c2-99 128-94 128-182 0-28-16-43-45-43s-46 15-49 41l-32-3c6-41 34-60 81-64" id="y"/><path d="M155-56V0h-30v-56H8v-25l114-167h33v167h35v25h-35zm-30-156c-27 46-58 90-88 131h88v-131" id="z"/><g id="a"><use transform="matrix(0.06172839506172839,0,0,0.06172839506172839,0,0)" xlink:href="#y"/><use transform="matrix(0.06172839506172839,0,0,0.06172839506172839,12.345679012345679,0)" xlink:href="#z"/><use transform="matrix(0.06172839506172839,0,0,0.06172839506172839,24.691358024691358,0)" xlink:href="#y"/></g><path d="M47-170H22l-4-78h33" id="A"/><path d="M115-194c55 1 70 41 70 98S169 2 115 4C84 4 66-9 55-30l1 105H24l-1-265h31l2 30c10-21 28-34 59-34zm-8 174c40 0 45-34 45-75s-6-73-45-74c-42 0-51 32-51 76 0 43 10 73 51 73" id="B"/><g id="b"><use transform="matrix(0.06172839506172839,0,0,0.06172839506172839,0,0)" xlink:href="#A"/><use transform="matrix(0.06172839506172839,0,0,0.06172839506172839,4.197530864197531,0)" xlink:href="#B"/><use transform="matrix(0.06172839506172839,0,0,0.06172839506172839,16.54320987654321,0)" xlink:href="#A"/></g><path d="M141-36C126-15 110 5 73 4 37 3 15-17 15-53c-1-64 63-63 125-63 3-35-9-54-41-54-24 1-41 7-42 31l-33-3c5-37 33-52 76-52 45 0 72 20 72 64v82c-1 20 7 32 28 27v20c-31 9-61-2-59-35zM48-53c0 20 12 33 32 33 41-3 63-29 60-74-43 2-92-5-92 41" id="C"/><g id="c"><use transform="matrix(0.06172839506172839,0,0,0.06172839506172839,0,0)" xlink:href="#A"/><use transform="matrix(0.06172839506172839,0,0,0.06172839506172839,4.197530864197531,0)" xlink:href="#C"/><use transform="matrix(0.06172839506172839,0,0,0.06172839506172839,16.54320987654321,0)" xlink:href="#A"/></g><path d="M59-47c-2 24 18 29 38 22v24C64 9 27 4 27-40v-127H5v-23h24l9-43h21v43h35v23H59v120" id="D"/><g id="d"><use transform="matrix(0.06172839506172839,0,0,0.06172839506172839,0,0)" xlink:href="#A"/><use transform="matrix(0.06172839506172839,0,0,0.06172839506172839,4.197530864197531,0)" xlink:href="#D"/><use transform="matrix(0.06172839506172839,0,0,0.06172839506172839,10.37037037037037,0)" xlink:href="#A"/></g><path d="M100-194c63 0 86 42 84 106H49c0 40 14 67 53 68 26 1 43-12 49-29l28 8c-11 28-37 45-77 45C44 4 14-33 15-96c1-61 26-98 85-98zm52 81c6-60-76-77-97-28-3 7-6 17-6 28h103" id="E"/><g id="e"><use transform="matrix(0.06172839506172839,0,0,0.06172839506172839,0,0)" xlink:href="#A"/><use transform="matrix(0.06172839506172839,0,0,0.06172839506172839,4.197530864197531,0)" xlink:href="#E"/><use transform="matrix(0.06172839506172839,0,0,0.06172839506172839,16.54320987654321,0)" xlink:href="#A"/></g><path d="M27 0v-27h64v-190l-56 39v-29l58-41h29v221h61V0H27" id="F"/><path d="M126-127c33 6 58 20 58 59 0 88-139 92-164 29-3-8-5-16-6-25l32-3c6 27 21 44 54 44 32 0 52-15 52-46 0-38-36-46-79-43v-28c39 1 72-4 72-42 0-27-17-43-46-43-28 0-47 15-49 41l-32-3c6-42 35-63 81-64 48-1 79 21 79 65 0 36-21 52-52 59" id="G"/><path d="M54-142c48-35 137-8 131 61C196 18 31 33 14-55l32-4c7 23 22 37 52 37 35-1 51-22 54-58 4-55-73-65-99-34H22l8-134h141v27H59" id="H"/><g id="f"><use transform="matrix(0.06172839506172839,0,0,0.06172839506172839,0,0)" xlink:href="#F"/><use transform="matrix(0.06172839506172839,0,0,0.06172839506172839,12.345679012345679,0)" xlink:href="#G"/><use transform="matrix(0.06172839506172839,0,0,0.06172839506172839,24.691358024691358,0)" xlink:href="#H"/></g><path fill="#333" d="M430-1365c342 0 623 231 623 568 0 219-131 374-394 466 145 90 217 167 217 230 0 52-53 98-105 96-17 0-39-10-66-29-90-66-201-166-304-203v78C401-53 366 0 297 0c-53 0-99-44-99-97v-374c17-145 26-361 26-650-3 5-11 7-24 7-53 2-99-46-99-99 0-112 193-152 329-152zm258 786c221-128 209-317 20-469-89-71-178-111-268-119-1 97-1 329-1 698 89-27 172-65 249-110" id="I"/><path fill="#333" d="M920-744c0 218 15 427 27 645 5 89-139 139-182 58-3-3-13-32-31-85-53-161-192-263-415-306-18 75-30 243-58 360-12 50-50 72-97 72-56 0-99-53-99-108 1-367 194-896 360-1117 69-92 141-140 222-140 182 0 273 207 273 621zM720-476v-400c-19-103-12-145-34-225-11-40-25-60-41-60-32 0-83 65-153 195-56 103-99 215-130 336 137 27 256 79 358 154" id="J"/><path fill="#333" d="M186 0C125 1 80-61 94-128c102-498 136-682 239-1056 16-58 29-97 39-118 39-81 152-87 186 3 8 21 18 60 27 118 29 181 80 412 149 693 44-195 134-593 229-824 15-37 48-53 85-53 50 0 90 31 101 97 20 117 17 225 52 381 45 201 159 605 163 785 2 54-42 102-96 102-45 0-83-20-96-65-37-130-44-258-87-432-40-161-61-264-70-309-35 138-85 345-146 622-13 58-24 96-31 117-30 83-132 87-176 19-11-18-25-49-39-97-63-219-121-453-172-703-35 145-84 365-140 660-11 60-19 102-29 123-19 43-51 65-96 65" id="K"/><g id="g"><use transform="matrix(0.01302083333333333,0,0,0.01302083333333333,0,0)" xlink:href="#I"/><use transform="matrix(0.01302083333333333,0,0,0.01302083333333333,14.73958333333333,0)" xlink:href="#J"/><use transform="matrix(0.01302083333333333,0,0,0.01302083333333333,28.48958333333333,0)" xlink:href="#K"/></g><path fill="#333" d="M196-1063c0-251 371-378 608-255 71 37 119 87 150 151 35 73-14 152-87 150-26 0-63-25-111-73s-102-72-162-72c-72 0-200 37-200 99 0 43 47 111 142 203 145 142 234 232 266 271 95 116 142 225 142 328C944-95 791 0 613 0 494 0 170-60 118-111c-29-29-48-55-48-87-1-69 67-120 140-92h-2c162 59 305 89 429 89 69 0 104-25 104-75 0-69-47-151-142-245-86-86-177-167-261-254-98-100-142-199-142-288" id="L"/><path fill="#333" d="M46-1227c0-128 188-119 328-120 79-1 391-35 488-35 99 0 148 35 148 105 0 65-48 98-145 98-76 0-153 3-232 8 1 179-14 796-13 976C622-79 604-4 510 0c-53 2-99-44-99-97v-270c21-312 24-505 22-785-143 13-240 20-291 20-64 0-96-32-96-95" id="M"/><path fill="#333" d="M922-654c-9 182 20 369 29 555 5 90-140 139-183 58-2-3-13-31-31-85-54-160-191-263-414-306-19 75-30 243-58 360-12 50-51 72-98 72-55 0-99-53-99-108 1-366 195-896 360-1117 69-92 141-140 222-140 182 0 273 207 273 621 0 19 1 49-1 90zM724-476v-400c-20-103-13-145-35-225-11-40-25-60-40-60-32 0-83 65-154 195-56 103-99 215-130 336 137 27 256 79 359 154" id="N"/><path fill="#333" d="M773-362c52-3 103 50 103 101 0 27-17 56-48 89C762-102 548 0 418 0 210 0 81-204 84-422c3-221 73-486 152-640 103-201 220-303 358-303 167 0 251 128 251 385 0 123-35 185-106 185-48 0-101-46-99-94 2-77 27-278-39-278-46 0-94 47-150 138-89 144-168 415-168 602 0 146 56 219 169 219 46 0 106-26 180-77s122-77 141-77" id="O"/><path fill="#333" d="M819-1377c51-2 99 48 99 100 0 45-37 111-112 198-69 79-142 155-210 234-77 90-113 163-113 215 0 67 40 139 121 214 9 8 85 66 227 174 81 61 121 110 121 146 0 52-54 107-105 105-17 0-40-10-67-29-196-143-322-233-435-405-11 59-17 288-43 364-14 42-49 61-95 61-56 0-96-49-96-104 0-132 56-634 60-717 3-65 6-162 6-293 7-35 10-86 21-152 11-67 48-99 99-99 53 0 101 46 101 99 0 47-7 172-21 377 82-84 176-223 268-326 95-107 151-162 174-162" id="P"/><g id="h"><use transform="matrix(0.01302083333333333,0,0,0.01302083333333333,0,0)" xlink:href="#L"/><use transform="matrix(0.01302083333333333,0,0,0.01302083333333333,13.906249999999996,0)" xlink:href="#M"/><use transform="matrix(0.01302083333333333,0,0,0.01302083333333333,27.68229166666666,0)" xlink:href="#N"/><use transform="matrix(0.01302083333333333,0,0,0.01302083333333333,41.58854166666666,0)" xlink:href="#O"/><use transform="matrix(0.01302083333333333,0,0,0.01302083333333333,54.19270833333332,0)" xlink:href="#P"/></g><path d="M1065-1013c47 164 49 500-1 665C999-130 875 20 611 20c-377 0-484-300-487-695-2-245 41-425 141-551 77-98 191-144 352-144 261 0 386 140 448 357zM741-155c199-92 203-504 159-785-26-168-96-284-283-284-281 0-308 256-311 549-2 181 18 324 80 428 46 77 115 118 227 120 47 0 90-10 128-28" id="Q"/><path d="M932 0L611-444 288 0H94l415-556-397-526h199l300 421 298-421h201L713-558 1133 0H932" id="R"/><path d="M839-1335c-182-6-269 67-259 253h491v142H580V0H400v-940H138v-142h262c-15-293 132-408 418-402 94 2 200 7 281 21v145c-75-10-177-14-260-17" id="S"/><g id="i"><use transform="matrix(0.010850694444444444,0,0,0.010850694444444444,0,0)" xlink:href="#Q"/><use transform="matrix(0.010850694444444444,0,0,0.010850694444444444,13.335503472222221,0)" xlink:href="#R"/><use transform="matrix(0.010850694444444444,0,0,0.010850694444444444,26.671006944444443,0)" xlink:href="#Q"/><use transform="matrix(0.010850694444444444,0,0,0.010850694444444444,40.006510416666664,0)" xlink:href="#S"/><use transform="matrix(0.010850694444444444,0,0,0.010850694444444444,53.342013888888886,0)" xlink:href="#S"/><use transform="matrix(0.010850694444444444,0,0,0.010850694444444444,66.67751736111111,0)" xlink:href="#S"/></g><path fill="#e81313" d="M1065-1013c47 164 49 500-1 665C999-130 875 20 611 20c-377 0-484-300-487-695-2-245 41-425 141-551 77-98 191-144 352-144 261 0 386 140 448 357zM741-155c199-92 203-504 159-785-26-168-96-284-283-284-281 0-308 256-311 549-2 181 18 324 80 428 46 77 115 118 227 120 47 0 90-10 128-28" id="T"/><path fill="#e81313" d="M932 0L611-444 288 0H94l415-556-397-526h199l300 421 298-421h201L713-558 1133 0H932" id="U"/><path fill="#e81313" d="M148-1120c216-7 379-89 463-229h166v1204h353V0H157v-145h439v-1021c-79 124-254 184-448 194v-148" id="V"/><g id="j"><use transform="matrix(0.010850694444444444,0,0,0.010850694444444444,0,0)" xlink:href="#T"/><use transform="matrix(0.010850694444444444,0,0,0.010850694444444444,13.335503472222221,0)" xlink:href="#U"/><use transform="matrix(0.010850694444444444,0,0,0.010850694444444444,26.671006944444443,0)" xlink:href="#V"/><use transform="matrix(0.010850694444444444,0,0,0.010850694444444444,40.006510416666664,0)" xlink:href="#T"/><use transform="matrix(0.010850694444444444,0,0,0.010850694444444444,53.342013888888886,0)" xlink:href="#T"/><use transform="matrix(0.010850694444444444,0,0,0.010850694444444444,66.67751736111111,0)" xlink:href="#T"/></g><path d="M148-1120c216-7 379-89 463-229h166v1204h353V0H157v-145h439v-1021c-79 124-254 184-448 194v-148" id="W"/><g id="k"><use transform="matrix(0.010850694444444444,0,0,0.010850694444444444,0,0)" xlink:href="#Q"/><use transform="matrix(0.010850694444444444,0,0,0.010850694444444444,13.335503472222221,0)" xlink:href="#R"/><use transform="matrix(0.010850694444444444,0,0,0.010850694444444444,26.671006944444443,0)" xlink:href="#W"/><use transform="matrix(0.010850694444444444,0,0,0.010850694444444444,40.006510416666664,0)" xlink:href="#Q"/><use transform="matrix(0.010850694444444444,0,0,0.010850694444444444,53.342013888888886,0)" xlink:href="#Q"/><use transform="matrix(0.010850694444444444,0,0,0.010850694444444444,66.67751736111111,0)" xlink:href="#W"/></g><path d="M611-1370c266 0 451 106 451 368 0 147-77 243-154 327-132 144-316 255-451 395-42 44-75 87-96 134h723V0H144v-117c124-264 387-411 582-603 73-72 151-147 151-271 0-161-104-231-266-231-163 0-249 90-268 238l-184-17c35-233 185-369 452-369" id="X"/><g id="l"><use transform="matrix(0.010850694444444444,0,0,0.010850694444444444,0,0)" xlink:href="#Q"/><use transform="matrix(0.010850694444444444,0,0,0.010850694444444444,13.335503472222221,0)" xlink:href="#R"/><use transform="matrix(0.010850694444444444,0,0,0.010850694444444444,26.671006944444443,0)" xlink:href="#W"/><use transform="matrix(0.010850694444444444,0,0,0.010850694444444444,40.006510416666664,0)" xlink:href="#Q"/><use transform="matrix(0.010850694444444444,0,0,0.010850694444444444,53.342013888888886,0)" xlink:href="#Q"/><use transform="matrix(0.010850694444444444,0,0,0.010850694444444444,66.67751736111111,0)" xlink:href="#X"/></g><path d="M1060-1016c0 191-128 285-295 323v4c154 18 262 91 313 209 14 35 21 72 21 110 0 277-194 390-478 390-292 0-457-129-493-382l186-17c24 161 121 250 307 250 172 1 298-80 291-247-8-208-220-239-446-233v-156c217 9 409-34 409-232 0-152-102-225-264-225-159 0-264 88-278 233l-181-14c33-239 196-367 461-367 264 0 447 102 447 354" id="Y"/><g id="m"><use transform="matrix(0.010850694444444444,0,0,0.010850694444444444,0,0)" xlink:href="#Q"/><use transform="matrix(0.010850694444444444,0,0,0.010850694444444444,13.335503472222221,0)" xlink:href="#R"/><use transform="matrix(0.010850694444444444,0,0,0.010850694444444444,26.671006944444443,0)" xlink:href="#W"/><use transform="matrix(0.010850694444444444,0,0,0.010850694444444444,40.006510416666664,0)" xlink:href="#Q"/><use transform="matrix(0.010850694444444444,0,0,0.010850694444444444,53.342013888888886,0)" xlink:href="#Q"/><use transform="matrix(0.010850694444444444,0,0,0.010850694444444444,66.67751736111111,0)" xlink:href="#Y"/></g><path d="M937-319V0H757v-319H103v-140l635-890h199v888h188v142H937zm-180-835L257-461h500v-693" id="Z"/><g id="n"><use transform="matrix(0.010850694444444444,0,0,0.010850694444444444,0,0)" xlink:href="#Q"/><use transform="matrix(0.010850694444444444,0,0,0.010850694444444444,13.335503472222221,0)" xlink:href="#R"/><use transform="matrix(0.010850694444444444,0,0,0.010850694444444444,26.671006944444443,0)" xlink:href="#W"/><use transform="matrix(0.010850694444444444,0,0,0.010850694444444444,40.006510416666664,0)" xlink:href="#Q"/><use transform="matrix(0.010850694444444444,0,0,0.010850694444444444,53.342013888888886,0)" xlink:href="#Q"/><use transform="matrix(0.010850694444444444,0,0,0.010850694444444444,66.67751736111111,0)" xlink:href="#Z"/></g><path d="M353-779c69-51 166-92 291-90 218 3 357 100 423 255 21 52 32 109 32 170 0 305-189 464-500 464-268 0-424-116-471-335l182-21c35 130 124 212 293 209 198-4 309-114 309-313 0-182-118-282-305-282-120 0-198 45-262 101H169l47-728h801v145H382" id="aa"/><g id="o"><use transform="matrix(0.010850694444444444,0,0,0.010850694444444444,0,0)" xlink:href="#Q"/><use transform="matrix(0.010850694444444444,0,0,0.010850694444444444,13.335503472222221,0)" xlink:href="#R"/><use transform="matrix(0.010850694444444444,0,0,0.010850694444444444,26.671006944444443,0)" xlink:href="#W"/><use transform="matrix(0.010850694444444444,0,0,0.010850694444444444,40.006510416666664,0)" xlink:href="#Q"/><use transform="matrix(0.010850694444444444,0,0,0.010850694444444444,53.342013888888886,0)" xlink:href="#Q"/><use transform="matrix(0.010850694444444444,0,0,0.010850694444444444,66.67751736111111,0)" xlink:href="#aa"/></g><path d="M672-881c271 0 424 163 424 435 0 291-160 466-455 466-367 0-490-287-490-662 0-324 85-568 293-680 129-70 351-59 460 16 73 50 125 123 153 223l-172 31c-31-108-107-172-232-172-259 0-316 252-323 529 59-113 178-186 342-186zm-37 756c186 0 278-124 278-313s-96-304-284-304c-163 0-281 93-281 261 0 157 65 270 168 327 35 19 75 29 119 29" id="ab"/><g id="p"><use transform="matrix(0.010850694444444444,0,0,0.010850694444444444,0,0)" xlink:href="#Q"/><use transform="matrix(0.010850694444444444,0,0,0.010850694444444444,13.335503472222221,0)" xlink:href="#R"/><use transform="matrix(0.010850694444444444,0,0,0.010850694444444444,26.671006944444443,0)" xlink:href="#W"/><use transform="matrix(0.010850694444444444,0,0,0.010850694444444444,40.006510416666664,0)" xlink:href="#Q"/><use transform="matrix(0.010850694444444444,0,0,0.010850694444444444,53.342013888888886,0)" xlink:href="#Q"/><use transform="matrix(0.010850694444444444,0,0,0.010850694444444444,66.67751736111111,0)" xlink:href="#ab"/></g><path d="M410 425v-1909h547v139H590V286h367v139H410" id="ac"/><path d="M270 425V286h367v-1631H270v-139h547V425H270" id="ad"/><g id="q"><use transform="matrix(0.010850694444444444,0,0,0.010850694444444444,0,0)" xlink:href="#ac"/><use transform="matrix(0.010850694444444444,0,0,0.010850694444444444,13.335503472222221,0)" xlink:href="#Q"/><use transform="matrix(0.010850694444444444,0,0,0.010850694444444444,26.671006944444443,0)" xlink:href="#ad"/></g><g id="r"><use transform="matrix(0.010850694444444444,0,0,0.010850694444444444,0,0)" xlink:href="#ac"/><use transform="matrix(0.010850694444444444,0,0,0.010850694444444444,13.335503472222221,0)" xlink:href="#W"/><use transform="matrix(0.010850694444444444,0,0,0.010850694444444444,26.671006944444443,0)" xlink:href="#ad"/></g><g id="s"><use transform="matrix(0.010850694444444444,0,0,0.010850694444444444,0,0)" xlink:href="#ac"/><use transform="matrix(0.010850694444444444,0,0,0.010850694444444444,13.335503472222221,0)" xlink:href="#X"/><use transform="matrix(0.010850694444444444,0,0,0.010850694444444444,26.671006944444443,0)" xlink:href="#ad"/></g><g id="t"><use transform="matrix(0.010850694444444444,0,0,0.010850694444444444,0,0)" xlink:href="#ac"/><use transform="matrix(0.010850694444444444,0,0,0.010850694444444444,13.335503472222221,0)" xlink:href="#Y"/><use transform="matrix(0.010850694444444444,0,0,0.010850694444444444,26.671006944444443,0)" xlink:href="#ad"/></g><g id="u"><use transform="matrix(0.010850694444444444,0,0,0.010850694444444444,0,0)" xlink:href="#ac"/><use transform="matrix(0.010850694444444444,0,0,0.010850694444444444,13.335503472222221,0)" xlink:href="#Z"/><use transform="matrix(0.010850694444444444,0,0,0.010850694444444444,26.671006944444443,0)" xlink:href="#ad"/></g><g id="v"><use transform="matrix(0.010850694444444444,0,0,0.010850694444444444,0,0)" xlink:href="#ac"/><use transform="matrix(0.010850694444444444,0,0,0.010850694444444444,13.335503472222221,0)" xlink:href="#aa"/><use transform="matrix(0.010850694444444444,0,0,0.010850694444444444,26.671006944444443,0)" xlink:href="#ad"/></g><path d="M736-142h380V0H134v-142h422v-1200H267v-142h469v1342" id="ae"/><path d="M617-1102c355 0 481 238 477 599H322c5 222 84 388 301 388 144 0 244-59 284-166l158 45C1002-72 854 20 623 20c-342 0-490-220-490-568 0-346 151-554 484-554zm291 461c-18-192-90-328-289-328-194 0-287 128-295 328h584" id="af"/><path d="M1048-32c-2 300-135 456-433 456-222-1-358-88-400-267l184-25c22 99 100 157 222 156 184-2 248-125 248-315 0-64 3-133-2-194C807-100 706-13 524-12c-306 0-381-228-381-537 0-318 85-550 400-550 164 0 271 83 325 202h3c1-60 3-134 12-185h171c-13 339-4 702-6 1050zM585-145c210-8 284-178 284-406 0-192-52-331-177-392-33-16-69-22-104-22-223 2-259 184-259 414 0 229 31 415 256 406" id="ag"/><path d="M528 20c-247 0-343-132-343-381v-721h180v686c-4 177 45 284 224 277 194-8 279-136 279-336v-627h181c3 360-6 732 6 1082H885c-4-54-7-126-8-185h-3C809-64 714 20 528 20" id="ah"/><path d="M904-1102c199 0 220 177 220 381V0H956v-686c-3-114 0-215-60-264-70-33-125-4-158 71-26 56-39 140-39 252V0H531v-686c-3-114-1-215-61-264-78-41-136 24-157 84-24 69-39 159-39 259V0H105c-3-360 6-732-6-1082h149c6 50 3 123 8 175 36-100 83-195 216-195 135 0 166 79 196 196 42-105 93-196 236-196" id="ai"/><g id="w"><use transform="matrix(0.010850694444444444,0,0,0.010850694444444444,0,0)" xlink:href="#ae"/><use transform="matrix(0.010850694444444444,0,0,0.010850694444444444,13.335503472222221,0)" xlink:href="#af"/><use transform="matrix(0.010850694444444444,0,0,0.010850694444444444,26.671006944444443,0)" xlink:href="#ag"/><use transform="matrix(0.010850694444444444,0,0,0.010850694444444444,40.006510416666664,0)" xlink:href="#ah"/><use transform="matrix(0.010850694444444444,0,0,0.010850694444444444,53.342013888888886,0)" xlink:href="#ai"/><use transform="matrix(0.010850694444444444,0,0,0.010850694444444444,66.67751736111111,0)" xlink:href="#af"/></g><path fill="#333" d="M24-231v-30h32v30H24zM24 0v-190h32V0H24" id="aj"/><path fill="#333" d="M117-194c89-4 53 116 60 194h-32v-121c0-31-8-49-39-48C34-167 62-67 57 0H25l-1-190h30c1 10-1 24 2 32 11-22 29-35 61-36" id="ak"/><path fill="#333" d="M85-194c31 0 48 13 60 33l-1-100h32l1 261h-30c-2-10 0-23-3-31C134-8 116 4 85 4 32 4 16-35 15-94c0-66 23-100 70-100zm9 24c-40 0-46 34-46 75 0 40 6 74 45 74 42 0 51-32 51-76 0-42-9-74-50-73" id="al"/><path fill="#333" d="M100-194c63 0 86 42 84 106H49c0 40 14 67 53 68 26 1 43-12 49-29l28 8c-11 28-37 45-77 45C44 4 14-33 15-96c1-61 26-98 85-98zm52 81c6-60-76-77-97-28-3 7-6 17-6 28h103zm-74-98c8-23 27-35 38-54h36v5l-58 49H78" id="am"/><path fill="#333" d="M59-47c-2 24 18 29 38 22v24C64 9 27 4 27-40v-127H5v-23h24l9-43h21v43h35v23H59v120" id="an"/><path fill="#333" d="M100-194c63 0 86 42 84 106H49c0 40 14 67 53 68 26 1 43-12 49-29l28 8c-11 28-37 45-77 45C44 4 14-33 15-96c1-61 26-98 85-98zm52 81c6-60-76-77-97-28-3 7-6 17-6 28h103" id="ao"/><path fill="#333" d="M114-163C36-179 61-72 57 0H25l-1-190h30c1 12-1 29 2 39 6-27 23-49 58-41v29" id="ap"/><path fill="#333" d="M210-169c-67 3-38 105-44 169h-31v-121c0-29-5-50-35-48C34-165 62-65 56 0H25l-1-190h30c1 10-1 24 2 32 10-44 99-50 107 0 11-21 27-35 58-36 85-2 47 119 55 194h-31v-121c0-29-5-49-35-48" id="aq"/><g id="x"><use transform="matrix(0.06172839506172839,0,0,0.06172839506172839,0,0)" xlink:href="#aj"/><use transform="matrix(0.06172839506172839,0,0,0.06172839506172839,4.876543209876543,0)" xlink:href="#ak"/><use transform="matrix(0.06172839506172839,0,0,0.06172839506172839,17.22222222222222,0)" xlink:href="#al"/><use transform="matrix(0.06172839506172839,0,0,0.06172839506172839,29.5679012345679,0)" xlink:href="#am"/><use transform="matrix(0.06172839506172839,0,0,0.06172839506172839,41.913580246913575,0)" xlink:href="#an"/><use transform="matrix(0.06172839506172839,0,0,0.06172839506172839,48.08641975308642,0)" xlink:href="#ao"/><use transform="matrix(0.06172839506172839,0,0,0.06172839506172839,60.432098765432094,0)" xlink:href="#ap"/><use transform="matrix(0.06172839506172839,0,0,0.06172839506172839,67.77777777777777,0)" xlink:href="#aq"/><use transform="matrix(0.06172839506172839,0,0,0.06172839506172839,86.23456790123456,0)" xlink:href="#aj"/><use transform="matrix(0.06172839506172839,0,0,0.06172839506172839,91.1111111111111,0)" xlink:href="#ak"/><use transform="matrix(0.06172839506172839,0,0,0.06172839506172839,103.45679012345678,0)" xlink:href="#am"/></g></defs></g></svg>