<svg xmlns="http://www.w3.org/2000/svg" xmlns:xlink="http://www.w3.org/1999/xlink" xmlns:lucid="lucid" width="321" height="160.5"><g transform="translate(-379.5 -600)" lucid:page-tab-id="0_0"><path d="M380 640h80v40h-80zM460 640h80v40h-80zM540 640h80v40h-80zM620 640h80v40h-80zM380 680h80v40h-80zM460 680h80v40h-80zM540 680h80v40h-80zM620 680h80v40h-80zM380 720h80v40h-80zM460 720h80v40h-80zM540 720h80v40h-80zM620 720h80v40h-80z" fill="#fff"/><path d="M380 640v40M460 640v40M540 640v40M620 640v40M700 640v40M380 680v40M460 680v40M540 680v40M620 680v40M700 680v40M380 720v40M460 720v40M540 720v40M620 720v40M700 720v40M380 640h80M460 640h80M540 640h80M620 640h80M380 680h80M460 680h80M540 680h80M620 680h80M380 720h80M380 760h80M460 720h80M460 760h80M540 720h80M540 760h80M620 720h80M620 760h80" stroke="#000" fill="none"/><use xlink:href="#a" transform="matrix(1,0,0,1,385,645) translate(28.82716049382716 19.444444444444443)"/><use xlink:href="#b" transform="matrix(1,0,0,1,465,645) translate(29.074074074074073 19.266666666666666)"/><use xlink:href="#b" transform="matrix(1,0,0,1,545,645) translate(29.074074074074073 19.266666666666666)"/><use xlink:href="#b" transform="matrix(1,0,0,1,625,645) translate(29.074074074074073 19.266666666666666)"/><use xlink:href="#b" transform="matrix(1,0,0,1,385,685) translate(29.074074074074073 19.266666666666666)"/><use xlink:href="#b" transform="matrix(1,0,0,1,465,685) translate(29.074074074074073 19.266666666666666)"/><use xlink:href="#b" transform="matrix(1,0,0,1,545,685) translate(29.074074074074073 19.266666666666666)"/><use xlink:href="#b" transform="matrix(1,0,0,1,625,685) translate(29.074074074074073 19.266666666666666)"/><use xlink:href="#b" transform="matrix(1,0,0,1,385,725) translate(29.074074074074073 19.266666666666666)"/><use xlink:href="#b" transform="matrix(1,0,0,1,465,725) translate(29.074074074074073 19.266666666666666)"/><use xlink:href="#b" transform="matrix(1,0,0,1,545,725) translate(29.074074074074073 19.266666666666666)"/><use xlink:href="#b" transform="matrix(1,0,0,1,625,725) translate(29.074074074074073 19.266666666666666)"/><path d="M473.25 606a6 6 0 0 1 6-6h121.5a6 6 0 0 1 6 6v33a6 6 0 0 1-6 6h-121.5a6 6 0 0 1-6-6z" stroke="#000" stroke-opacity="0" stroke-width="3" fill="#fff" fill-opacity="0"/><use xlink:href="#c" transform="matrix(1,0,0,1,478.25,605) translate(1.990234375000007 23.212890624999996)"/><defs><path d="M158-156l-14 65h45v19h-49L124 0h-19l15-72H56L41 0H22l15-72H2v-19h39l14-65H11v-19h48l15-71h20l-16 71h64l16-71h19l-16 71h37v19h-40zm-83 0L61-91h63l14-65H75" id="d"/><use transform="matrix(0.06172839506172839,0,0,0.06172839506172839,0,0)" xlink:href="#d" id="a"/><use transform="matrix(0.05925925925925927,0,0,0.05925925925925927,0,0)" xlink:href="#d" id="b"/><path fill="#333" d="M706-1102c241 0 344 136 343 381V0H868v-695c1-168-57-273-220-268-190 6-283 138-283 336V0H185c-3-360 6-732-6-1082h170c4 54 7 126 8 185h3c63-121 164-204 346-205" id="e"/><path fill="#333" d="M615-1102c343 0 484 203 482 560-1 347-147 562-488 562-336 0-475-219-479-562-4-349 156-560 485-560zm-8 989c240 0 301-180 301-429 0-245-55-427-290-427-236 0-299 181-299 427 0 243 61 429 288 429" id="f"/><path fill="#333" d="M682 16c-209 0-323-80-324-285v-671H190v-142h170l58-282h120v282h432v142H538v652c2 114 60 155 182 155 106 0 209-16 297-34v137C921-4 806 16 682 16" id="g"/><path fill="#333" d="M617-1102c355 0 481 238 477 599H322c5 222 84 388 301 388 144 0 244-59 284-166l158 45C1002-72 854 20 623 20c-342 0-490-220-490-568 0-346 151-554 484-554zm291 461c-18-192-90-328-289-328-194 0-287 128-295 328h584" id="h"/><path fill="#333" d="M873-819c-18-114-119-146-250-146-163 0-245 50-245 151 0 151 170 148 294 185 182 54 388 94 388 320 0 240-189 325-439 329-245 4-410-69-454-268l159-31c24 133 136 168 295 165 144-2 270-31 270-171 0-164-195-160-331-202-167-52-350-87-350-299 0-218 173-315 413-313 220 2 373 77 412 260" id="i"/><path fill="#333" d="M385-1193v494h676v158H385V0H194v-1349h891v156H385" id="j"/><path fill="#333" d="M745-142h380V0H143v-142h422v-798H246v-142h499v940zM545-1292v-192h200v192H545" id="k"/><path fill="#333" d="M736-142h380V0H134v-142h422v-1200H267v-142h469v1342" id="l"/><path fill="#333" d="M904-1102c199 0 220 177 220 381V0H956v-686c-3-114 0-215-60-264-70-33-125-4-158 71-26 56-39 140-39 252V0H531v-686c-3-114-1-215-61-264-78-41-136 24-157 84-24 69-39 159-39 259V0H105c-3-360 6-732-6-1082h149c6 50 3 123 8 175 36-100 83-195 216-195 135 0 166 79 196 196 42-105 93-196 236-196" id="m"/><g id="c"><use transform="matrix(0.009765624999999998,0,0,0.009765624999999998,0,0)" xlink:href="#e"/><use transform="matrix(0.009765624999999998,0,0,0.009765624999999998,12.001953124999998,0)" xlink:href="#f"/><use transform="matrix(0.009765624999999998,0,0,0.009765624999999998,24.003906249999996,0)" xlink:href="#g"/><use transform="matrix(0.009765624999999998,0,0,0.009765624999999998,36.00585937499999,0)" xlink:href="#h"/><use transform="matrix(0.009765624999999998,0,0,0.009765624999999998,48.00781249999999,0)" xlink:href="#i"/><use transform="matrix(0.009765624999999998,0,0,0.009765624999999998,60.009765624999986,0)" xlink:href="#j"/><use transform="matrix(0.009765624999999998,0,0,0.009765624999999998,72.01171874999999,0)" xlink:href="#k"/><use transform="matrix(0.009765624999999998,0,0,0.009765624999999998,84.01367187499999,0)" xlink:href="#l"/><use transform="matrix(0.009765624999999998,0,0,0.009765624999999998,96.01562499999999,0)" xlink:href="#m"/><use transform="matrix(0.009765624999999998,0,0,0.009765624999999998,108.01757812499999,0)" xlink:href="#i"/></g></defs></g></svg>