<?xml version="1.0" encoding="UTF-8"?>
<!DOCTYPE svg PUBLIC "-//W3C//DTD SVG 1.1//EN" "http://www.w3.org/Graphics/SVG/1.1/DTD/svg11.dtd">
<svg version="1.1" xmlns="http://www.w3.org/2000/svg" xmlns:xlink="http://www.w3.org/1999/xlink" x="0" y="0" width="429.61" height="63.5" viewBox="0, 0, 429.61, 63.5">
  <g id="Calque_1" transform="translate(-0, 0)">
    <path d="M131.533,0 L273.975,0 C282.966,0 290.254,3.234 290.254,7.223 L290.254,56.278 C290.254,60.267 282.966,63.5 273.975,63.5 L131.533,63.5 C122.543,63.5 115.254,60.267 115.254,56.278 L115.254,7.223 C115.254,3.234 122.543,0 131.533,0 z" fill="#FFF4B8" fill-opacity="0.5"/>
    <path d="M135.214,45.498 Q135.553,44.77 136.076,44.421 Q136.598,44.073 137.357,44.073 Q138.844,44.073 139.413,45.098 Q139.982,46.124 139.982,49.364 L139.982,55.834 L137.521,55.834 L137.521,48.461 Q137.521,47.18 137.326,46.749 Q137.132,46.318 136.619,46.318 Q136.106,46.318 135.901,46.759 Q135.696,47.2 135.696,48.461 L135.696,55.834 L133.266,55.834 L133.266,48.461 Q133.266,47.2 133.061,46.759 Q132.856,46.318 132.343,46.318 Q131.83,46.318 131.636,46.749 Q131.441,47.18 131.441,48.461 L131.441,55.834 L128.98,55.834 L128.98,44.35 L131.164,44.35 L131.164,45.539 Q131.42,44.862 131.984,44.468 Q132.548,44.073 133.245,44.073 Q133.943,44.073 134.517,44.488 Q135.091,44.903 135.214,45.498 z" fill="#000000"/>
    <path d="M147.96,50.44 Q146.278,50.44 145.612,50.871 Q144.945,51.302 144.945,52.348 Q144.945,53.127 145.407,53.588 Q145.868,54.05 146.658,54.05 Q147.847,54.05 148.503,53.153 Q149.16,52.255 149.16,50.646 L149.16,50.44 z M152.143,49.282 L152.143,55.834 L149.16,55.834 L149.16,54.552 Q148.616,55.311 147.765,55.721 Q146.914,56.131 145.889,56.131 Q143.93,56.131 142.838,55.096 Q141.746,54.06 141.746,52.204 Q141.746,50.194 143.048,49.236 Q144.35,48.277 147.078,48.277 L149.16,48.277 L149.16,47.774 Q149.16,47.046 148.631,46.672 Q148.103,46.298 147.078,46.298 Q146.001,46.298 144.991,46.57 Q143.981,46.841 142.884,47.436 L142.884,44.873 Q143.879,44.462 144.904,44.268 Q145.93,44.073 147.078,44.073 Q149.877,44.073 151.01,45.211 Q152.143,46.349 152.143,49.282 z" fill="#000000"/>
    <path d="M166.068,57.782 L166.068,59.833 L153.425,59.833 L153.425,57.782 z" fill="#000000"/>
    <path d="M176.948,55.25 Q176.189,55.69 175.317,55.911 Q174.446,56.131 173.441,56.131 Q170.785,56.131 169.288,54.532 Q167.791,52.932 167.791,50.102 Q167.791,47.262 169.298,45.657 Q170.805,44.052 173.461,44.052 Q174.384,44.052 175.24,44.268 Q176.097,44.483 176.948,44.934 L176.948,47.682 Q176.291,47.118 175.507,46.816 Q174.722,46.513 173.882,46.513 Q172.415,46.513 171.626,47.446 Q170.836,48.379 170.836,50.102 Q170.836,51.825 171.626,52.748 Q172.415,53.67 173.882,53.67 Q174.753,53.67 175.512,53.378 Q176.271,53.086 176.948,52.491 z" fill="#000000"/>
    <path d="M185.028,46.513 Q183.951,46.513 183.336,47.462 Q182.721,48.41 182.721,50.102 Q182.721,51.794 183.336,52.742 Q183.951,53.691 185.028,53.691 Q186.115,53.691 186.73,52.742 Q187.345,51.794 187.345,50.102 Q187.345,48.41 186.73,47.462 Q186.115,46.513 185.028,46.513 z M179.716,50.102 Q179.716,47.323 181.157,45.698 Q182.597,44.073 185.028,44.073 Q187.468,44.073 188.909,45.698 Q190.349,47.323 190.349,50.102 Q190.349,52.881 188.909,54.506 Q187.468,56.131 185.028,56.131 Q182.597,56.131 181.157,54.506 Q179.716,52.881 179.716,50.102 z" fill="#000000"/>
    <path d="M202.336,48.379 L202.336,55.834 L199.352,55.834 L199.352,48.841 Q199.352,47.59 198.999,47.052 Q198.645,46.513 197.845,46.513 Q197.035,46.513 196.568,47.241 Q196.102,47.969 196.102,49.261 L196.102,55.834 L193.118,55.834 L193.118,44.35 L196.102,44.35 L196.102,46.072 Q196.42,45.119 197.189,44.596 Q197.958,44.073 199.045,44.073 Q200.675,44.073 201.506,45.155 Q202.336,46.236 202.336,48.379 z" fill="#000000"/>
    <path d="M214.159,44.709 L214.159,47.334 Q213.328,46.8 212.431,46.529 Q211.534,46.257 210.632,46.257 Q209.627,46.257 209.114,46.549 Q208.601,46.841 208.601,47.416 Q208.601,48.236 210.796,48.749 L210.909,48.779 L211.77,48.984 Q213.41,49.374 214.174,50.24 Q214.938,51.107 214.938,52.584 Q214.938,54.357 213.774,55.244 Q212.611,56.131 210.273,56.131 Q209.237,56.131 208.15,55.952 Q207.063,55.772 205.946,55.414 L205.946,52.789 Q206.94,53.353 207.971,53.65 Q209.001,53.947 209.965,53.947 Q211.021,53.947 211.565,53.64 Q212.108,53.332 212.108,52.748 Q212.108,52.173 211.724,51.866 Q211.339,51.558 209.893,51.209 L209.063,51.025 Q207.34,50.635 206.551,49.805 Q205.761,48.974 205.761,47.58 Q205.761,45.918 206.961,44.996 Q208.16,44.073 210.334,44.073 Q211.308,44.073 212.277,44.232 Q213.246,44.391 214.159,44.709 z" fill="#000000"/>
    <path d="M223.716,41.089 L223.716,44.35 L227.643,44.35 L227.643,46.657 L223.716,46.657 L223.716,52.091 Q223.716,52.86 224.09,53.194 Q224.464,53.527 225.336,53.527 L227.643,53.527 L227.643,55.834 L225.12,55.834 Q222.536,55.834 221.624,55.009 Q220.711,54.183 220.711,51.948 L220.711,46.657 L217.779,46.657 L217.779,44.35 L220.711,44.35 L220.711,41.089 z" fill="#000000"/>
    <path d="M236.461,50.44 Q234.78,50.44 234.113,50.871 Q233.447,51.302 233.447,52.348 Q233.447,53.127 233.908,53.588 Q234.369,54.05 235.159,54.05 Q236.348,54.05 237.005,53.153 Q237.661,52.255 237.661,50.646 L237.661,50.44 z M240.645,49.282 L240.645,55.834 L237.661,55.834 L237.661,54.552 Q237.117,55.311 236.266,55.721 Q235.415,56.131 234.39,56.131 Q232.431,56.131 231.339,55.096 Q230.247,54.06 230.247,52.204 Q230.247,50.194 231.55,49.236 Q232.852,48.277 235.579,48.277 L237.661,48.277 L237.661,47.774 Q237.661,47.046 237.133,46.672 Q236.605,46.298 235.579,46.298 Q234.503,46.298 233.493,46.57 Q232.483,46.841 231.386,47.436 L231.386,44.873 Q232.38,44.462 233.406,44.268 Q234.431,44.073 235.579,44.073 Q238.379,44.073 239.512,45.211 Q240.645,46.349 240.645,49.282 z" fill="#000000"/>
    <path d="M252.909,48.379 L252.909,55.834 L249.925,55.834 L249.925,48.841 Q249.925,47.59 249.571,47.052 Q249.217,46.513 248.417,46.513 Q247.607,46.513 247.141,47.241 Q246.674,47.969 246.674,49.261 L246.674,55.834 L243.69,55.834 L243.69,44.35 L246.674,44.35 L246.674,46.072 Q246.992,45.119 247.761,44.596 Q248.53,44.073 249.617,44.073 Q251.247,44.073 252.078,45.155 Q252.909,46.236 252.909,48.379 z" fill="#000000"/>
    <path d="M261.645,41.089 L261.645,44.35 L265.572,44.35 L265.572,46.657 L261.645,46.657 L261.645,52.091 Q261.645,52.86 262.019,53.194 Q262.393,53.527 263.265,53.527 L265.572,53.527 L265.572,55.834 L263.05,55.834 Q260.466,55.834 259.553,55.009 Q258.64,54.183 258.64,51.948 L258.64,46.657 L255.708,46.657 L255.708,44.35 L258.64,44.35 L258.64,41.089 z" fill="#000000"/>
    <path d="M278.513,55.27 Q277.467,55.701 276.38,55.916 Q275.293,56.131 274.083,56.131 Q271.201,56.131 269.679,54.588 Q268.156,53.045 268.156,50.143 Q268.156,47.334 269.622,45.703 Q271.089,44.073 273.621,44.073 Q276.175,44.073 277.585,45.585 Q278.994,47.098 278.994,49.846 L278.994,51.066 L271.212,51.066 Q271.222,52.419 272.012,53.086 Q272.801,53.752 274.37,53.752 Q275.406,53.752 276.41,53.455 Q277.415,53.158 278.513,52.512 z M275.97,48.81 Q275.949,47.621 275.359,47.011 Q274.77,46.4 273.621,46.4 Q272.586,46.4 271.971,47.031 Q271.355,47.662 271.242,48.82 z" fill="#000000"/>
    <path d="M123.494,6.794 L125.661,6.794 L128.505,14.211 L128.505,6.794 L130.283,6.794 L130.283,17 L128.129,17 L125.272,9.583 L125.272,17 L123.494,17 z" fill="#F42300"/>
    <path d="M135.321,10.786 Q134.603,10.786 134.193,11.418 Q133.783,12.051 133.783,13.179 Q133.783,14.307 134.193,14.939 Q134.603,15.571 135.321,15.571 Q136.045,15.571 136.455,14.939 Q136.866,14.307 136.866,13.179 Q136.866,12.051 136.455,11.418 Q136.045,10.786 135.321,10.786 z M131.78,13.179 Q131.78,11.326 132.74,10.243 Q133.701,9.159 135.321,9.159 Q136.948,9.159 137.908,10.243 Q138.868,11.326 138.868,13.179 Q138.868,15.031 137.908,16.115 Q136.948,17.198 135.321,17.198 Q133.701,17.198 132.74,16.115 Q131.78,15.031 131.78,13.179 z" fill="#F42300"/>
    <path d="M144.255,10.109 Q144.481,9.624 144.829,9.392 Q145.178,9.159 145.684,9.159 Q146.675,9.159 147.055,9.843 Q147.434,10.526 147.434,12.687 L147.434,17 L145.793,17 L145.793,12.085 Q145.793,11.23 145.663,10.943 Q145.534,10.656 145.192,10.656 Q144.85,10.656 144.713,10.95 Q144.577,11.244 144.577,12.085 L144.577,17 L142.956,17 L142.956,12.085 Q142.956,11.244 142.82,10.95 Q142.683,10.656 142.341,10.656 Q141.999,10.656 141.869,10.943 Q141.74,11.23 141.74,12.085 L141.74,17 L140.099,17 L140.099,9.344 L141.555,9.344 L141.555,10.137 Q141.726,9.686 142.102,9.422 Q142.478,9.159 142.943,9.159 Q143.408,9.159 143.79,9.436 Q144.173,9.713 144.255,10.109 z" fill="#F42300"/>
    <path d="M161.803,10.431 L161.803,6.363 L163.799,6.363 L163.799,17 L161.803,17 L161.803,15.865 Q161.482,16.528 160.973,16.863 Q160.463,17.198 159.773,17.198 Q158.46,17.198 157.736,16.146 Q157.011,15.093 157.011,13.179 Q157.011,11.237 157.746,10.198 Q158.481,9.159 159.841,9.159 Q160.456,9.159 160.945,9.477 Q161.434,9.795 161.803,10.431 z M159.014,13.192 Q159.014,14.3 159.383,14.929 Q159.752,15.558 160.402,15.558 Q161.051,15.558 161.427,14.929 Q161.803,14.3 161.803,13.192 Q161.803,12.085 161.427,11.456 Q161.051,10.827 160.402,10.827 Q159.752,10.827 159.383,11.456 Q159.014,12.085 159.014,13.192 z" fill="#F42300"/>
    <path d="M172.358,16.624 Q171.66,16.911 170.936,17.055 Q170.211,17.198 169.405,17.198 Q167.484,17.198 166.469,16.169 Q165.453,15.141 165.453,13.206 Q165.453,11.333 166.431,10.246 Q167.409,9.159 169.097,9.159 Q170.799,9.159 171.739,10.167 Q172.679,11.176 172.679,13.008 L172.679,13.821 L167.491,13.821 Q167.497,14.724 168.024,15.168 Q168.55,15.612 169.596,15.612 Q170.286,15.612 170.956,15.414 Q171.626,15.216 172.358,14.785 z M170.662,12.317 Q170.649,11.524 170.256,11.118 Q169.863,10.711 169.097,10.711 Q168.407,10.711 167.996,11.131 Q167.586,11.552 167.511,12.324 z" fill="#F42300"/>
    <path d="M184.327,13.808 L184.327,7.901 L182.297,7.901 L182.297,6.363 L186.33,6.363 L186.33,13.808 Q186.33,14.71 186.611,15.086 Q186.891,15.462 187.561,15.462 L189.16,15.462 L189.16,17 L187,17 Q185.572,17 184.95,16.262 Q184.327,15.523 184.327,13.808 z" fill="#F42300"/>
    <path d="M194.896,13.404 Q193.775,13.404 193.33,13.691 Q192.886,13.979 192.886,14.676 Q192.886,15.195 193.194,15.503 Q193.501,15.811 194.028,15.811 Q194.821,15.811 195.258,15.212 Q195.696,14.614 195.696,13.541 L195.696,13.404 z M197.685,12.632 L197.685,17 L195.696,17 L195.696,16.146 Q195.333,16.651 194.766,16.925 Q194.199,17.198 193.515,17.198 Q192.209,17.198 191.481,16.508 Q190.753,15.817 190.753,14.58 Q190.753,13.24 191.621,12.601 Q192.49,11.962 194.308,11.962 L195.696,11.962 L195.696,11.627 Q195.696,11.142 195.344,10.892 Q194.992,10.643 194.308,10.643 Q193.59,10.643 192.917,10.824 Q192.243,11.005 191.512,11.401 L191.512,9.692 Q192.175,9.419 192.859,9.289 Q193.542,9.159 194.308,9.159 Q196.174,9.159 196.93,9.918 Q197.685,10.677 197.685,12.632 z" fill="#F42300"/>
    <path d="M214.221,16.61 Q213.715,16.904 213.134,17.051 Q212.553,17.198 211.883,17.198 Q210.113,17.198 209.115,16.132 Q208.117,15.065 208.117,13.179 Q208.117,11.285 209.121,10.215 Q210.126,9.146 211.897,9.146 Q212.512,9.146 213.083,9.289 Q213.654,9.433 214.221,9.733 L214.221,11.565 Q213.784,11.189 213.261,10.988 Q212.738,10.786 212.177,10.786 Q211.2,10.786 210.673,11.408 Q210.147,12.03 210.147,13.179 Q210.147,14.327 210.673,14.942 Q211.2,15.558 212.177,15.558 Q212.758,15.558 213.264,15.363 Q213.77,15.168 214.221,14.771 z" fill="#F42300"/>
    <path d="M219.608,10.786 Q218.89,10.786 218.48,11.418 Q218.07,12.051 218.07,13.179 Q218.07,14.307 218.48,14.939 Q218.89,15.571 219.608,15.571 Q220.332,15.571 220.743,14.939 Q221.153,14.307 221.153,13.179 Q221.153,12.051 220.743,11.418 Q220.332,10.786 219.608,10.786 z M216.067,13.179 Q216.067,11.326 217.027,10.243 Q217.988,9.159 219.608,9.159 Q221.235,9.159 222.195,10.243 Q223.156,11.326 223.156,13.179 Q223.156,15.031 222.195,16.115 Q221.235,17.198 219.608,17.198 Q217.988,17.198 217.027,16.115 Q216.067,15.031 216.067,13.179 z" fill="#F42300"/>
    <path d="M231.147,12.03 L231.147,17 L229.158,17 L229.158,12.338 Q229.158,11.504 228.922,11.145 Q228.686,10.786 228.153,10.786 Q227.613,10.786 227.302,11.271 Q226.991,11.757 226.991,12.618 L226.991,17 L225.001,17 L225.001,9.344 L226.991,9.344 L226.991,10.492 Q227.202,9.856 227.715,9.508 Q228.228,9.159 228.952,9.159 Q230.039,9.159 230.593,9.88 Q231.147,10.602 231.147,12.03 z" fill="#F42300"/>
    <path d="M239.029,9.583 L239.029,11.333 Q238.475,10.978 237.877,10.796 Q237.279,10.615 236.677,10.615 Q236.007,10.615 235.665,10.81 Q235.324,11.005 235.324,11.388 Q235.324,11.935 236.786,12.276 L236.862,12.297 L237.436,12.434 Q238.53,12.693 239.039,13.271 Q239.548,13.849 239.548,14.833 Q239.548,16.016 238.772,16.607 Q237.996,17.198 236.438,17.198 Q235.747,17.198 235.023,17.079 Q234.298,16.959 233.553,16.72 L233.553,14.97 Q234.216,15.346 234.903,15.544 Q235.59,15.742 236.233,15.742 Q236.937,15.742 237.299,15.537 Q237.661,15.332 237.661,14.942 Q237.661,14.56 237.405,14.354 Q237.149,14.149 236.185,13.917 L235.631,13.794 Q234.483,13.534 233.956,12.98 Q233.43,12.427 233.43,11.497 Q233.43,10.39 234.23,9.774 Q235.03,9.159 236.479,9.159 Q237.128,9.159 237.774,9.265 Q238.42,9.371 239.029,9.583 z" fill="#F42300"/>
    <path d="M245.4,7.17 L245.4,9.344 L248.018,9.344 L248.018,10.882 L245.4,10.882 L245.4,14.505 Q245.4,15.018 245.649,15.24 Q245.899,15.462 246.48,15.462 L248.018,15.462 L248.018,17 L246.336,17 Q244.614,17 244.005,16.45 Q243.397,15.899 243.397,14.409 L243.397,10.882 L241.442,10.882 L241.442,9.344 L243.397,9.344 L243.397,7.17 z" fill="#F42300"/>
    <path d="M253.897,13.404 Q252.776,13.404 252.331,13.691 Q251.887,13.979 251.887,14.676 Q251.887,15.195 252.195,15.503 Q252.502,15.811 253.029,15.811 Q253.822,15.811 254.259,15.212 Q254.697,14.614 254.697,13.541 L254.697,13.404 z M256.686,12.632 L256.686,17 L254.697,17 L254.697,16.146 Q254.334,16.651 253.767,16.925 Q253.2,17.198 252.516,17.198 Q251.21,17.198 250.482,16.508 Q249.754,15.817 249.754,14.58 Q249.754,13.24 250.622,12.601 Q251.491,11.962 253.309,11.962 L254.697,11.962 L254.697,11.627 Q254.697,11.142 254.345,10.892 Q253.993,10.643 253.309,10.643 Q252.591,10.643 251.918,10.824 Q251.244,11.005 250.513,11.401 L250.513,9.692 Q251.176,9.419 251.86,9.289 Q252.543,9.159 253.309,9.159 Q255.175,9.159 255.93,9.918 Q256.686,10.677 256.686,12.632 z" fill="#F42300"/>
    <path d="M264.862,12.03 L264.862,17 L262.872,17 L262.872,12.338 Q262.872,11.504 262.637,11.145 Q262.401,10.786 261.868,10.786 Q261.327,10.786 261.016,11.271 Q260.705,11.757 260.705,12.618 L260.705,17 L258.716,17 L258.716,9.344 L260.705,9.344 L260.705,10.492 Q260.917,9.856 261.43,9.508 Q261.943,9.159 262.667,9.159 Q263.754,9.159 264.308,9.88 Q264.862,10.602 264.862,12.03 z" fill="#F42300"/>
    <path d="M270.686,7.17 L270.686,9.344 L273.304,9.344 L273.304,10.882 L270.686,10.882 L270.686,14.505 Q270.686,15.018 270.935,15.24 Q271.185,15.462 271.766,15.462 L273.304,15.462 L273.304,17 L271.622,17 Q269.9,17 269.291,16.45 Q268.683,15.899 268.683,14.409 L268.683,10.882 L266.728,10.882 L266.728,9.344 L268.683,9.344 L268.683,7.17 z" fill="#F42300"/>
    <path d="M281.931,16.624 Q281.234,16.911 280.509,17.055 Q279.785,17.198 278.978,17.198 Q277.057,17.198 276.042,16.169 Q275.027,15.141 275.027,13.206 Q275.027,11.333 276.004,10.246 Q276.982,9.159 278.67,9.159 Q280.372,9.159 281.312,10.167 Q282.252,11.176 282.252,13.008 L282.252,13.821 L277.064,13.821 Q277.071,14.724 277.597,15.168 Q278.123,15.612 279.169,15.612 Q279.86,15.612 280.53,15.414 Q281.2,15.216 281.931,14.785 z M280.236,12.317 Q280.222,11.524 279.829,11.118 Q279.436,10.711 278.67,10.711 Q277.98,10.711 277.57,11.131 Q277.16,11.552 277.084,12.324 z" fill="#F42300"/>
    <path d="M312.61,0 L417.61,0 C424.237,0 429.61,3.234 429.61,7.223 L429.61,56.278 C429.61,60.267 424.237,63.5 417.61,63.5 L312.61,63.5 C305.983,63.5 300.61,60.267 300.61,56.278 L300.61,7.223 C300.61,3.234 305.983,0 312.61,0 z" fill="#FFF4B8" fill-opacity="0.5"/>
    <path d="M350.595,54.834 L357.045,54.834 L357.045,57.5 L347.324,57.5 L347.324,54.916 L348.965,53.173 Q351.887,50.066 352.513,49.348 Q353.282,48.466 353.62,47.784 Q353.958,47.103 353.958,46.436 Q353.958,45.411 353.338,44.852 Q352.718,44.293 351.58,44.293 Q350.769,44.293 349.759,44.616 Q348.749,44.939 347.652,45.554 L347.652,42.734 Q348.749,42.334 349.8,42.124 Q350.852,41.914 351.815,41.914 Q354.246,41.914 355.635,43.047 Q357.024,44.18 357.024,46.139 Q357.024,47.041 356.722,47.831 Q356.419,48.62 355.681,49.584 Q355.138,50.281 352.697,52.722 Q351.374,54.044 350.595,54.834 z" fill="#000000"/>
    <path d="M364.417,50.65 L362.797,50.65 L362.797,47.984 L364.417,47.984 Q365.545,47.984 366.166,47.538 Q366.786,47.092 366.786,46.282 Q366.786,45.431 366.166,44.954 Q365.545,44.478 364.417,44.478 Q363.556,44.478 362.572,44.693 Q361.587,44.908 360.531,45.318 L360.531,42.57 Q361.587,42.252 362.613,42.083 Q363.638,41.914 364.581,41.914 Q367.001,41.914 368.355,42.97 Q369.708,44.026 369.708,45.882 Q369.708,47.246 368.929,48.113 Q368.15,48.979 366.704,49.246 Q368.345,49.533 369.206,50.553 Q370.067,51.573 370.067,53.234 Q370.067,55.459 368.642,56.628 Q367.217,57.797 364.499,57.797 Q363.341,57.797 362.218,57.603 Q361.095,57.408 360.07,57.039 L360.07,54.229 Q361.034,54.711 362.151,54.962 Q363.269,55.213 364.499,55.213 Q365.73,55.213 366.448,54.644 Q367.165,54.075 367.165,53.111 Q367.165,51.932 366.448,51.291 Q365.73,50.65 364.417,50.65 z" fill="#000000"/>
    <path d="M378.547,45.554 L374.682,51.604 L378.547,51.604 z M378.281,42.191 L381.449,42.191 L381.449,51.604 L383.131,51.604 L383.131,54.198 L381.449,54.198 L381.449,57.5 L378.547,57.5 L378.547,54.198 L372.477,54.198 L372.477,51.266 z" fill="#000000"/>
    <path d="M309.427,9.905 L309.427,8.128 L315.504,8.128 L315.504,9.905 L313.474,9.905 L313.474,16.557 L315.504,16.557 L315.504,18.334 L309.427,18.334 L309.427,16.557 L311.457,16.557 L311.457,9.905 z" fill="#F42300"/>
    <path d="M324.001,13.364 L324.001,18.334 L322.012,18.334 L322.012,13.672 Q322.012,12.838 321.776,12.479 Q321.54,12.12 321.007,12.12 Q320.467,12.12 320.156,12.605 Q319.845,13.091 319.845,13.952 L319.845,18.334 L317.855,18.334 L317.855,10.678 L319.845,10.678 L319.845,11.826 Q320.057,11.19 320.569,10.842 Q321.082,10.493 321.807,10.493 Q322.894,10.493 323.447,11.214 Q324.001,11.936 324.001,13.364 z" fill="#F42300"/>
    <path d="M326.619,10.678 L330.584,10.678 L330.584,16.796 L333.072,16.796 L333.072,18.334 L326.086,18.334 L326.086,16.796 L328.581,16.796 L328.581,12.216 L326.619,12.216 z M328.581,6.952 L330.584,6.952 L330.584,9.29 L328.581,9.29 z" fill="#F42300"/>
    <path d="M338.254,8.504 L338.254,10.678 L340.872,10.678 L340.872,12.216 L338.254,12.216 L338.254,15.839 Q338.254,16.352 338.503,16.574 Q338.753,16.796 339.334,16.796 L340.872,16.796 L340.872,18.334 L339.19,18.334 Q337.468,18.334 336.859,17.784 Q336.251,17.233 336.251,15.743 L336.251,12.216 L334.296,12.216 L334.296,10.678 L336.251,10.678 L336.251,8.504 z" fill="#F42300"/>
    <path d="M343.477,10.678 L347.441,10.678 L347.441,16.796 L349.93,16.796 L349.93,18.334 L342.943,18.334 L342.943,16.796 L345.438,16.796 L345.438,12.216 L343.477,12.216 z M345.438,6.952 L347.441,6.952 L347.441,9.29 L345.438,9.29 z" fill="#F42300"/>
    <path d="M355.18,14.738 Q354.059,14.738 353.614,15.025 Q353.17,15.313 353.17,16.01 Q353.17,16.529 353.478,16.837 Q353.785,17.145 354.312,17.145 Q355.104,17.145 355.542,16.546 Q355.979,15.948 355.979,14.875 L355.979,14.738 z M357.969,13.966 L357.969,18.334 L355.979,18.334 L355.979,17.48 Q355.617,17.985 355.05,18.259 Q354.482,18.532 353.799,18.532 Q352.493,18.532 351.765,17.842 Q351.037,17.151 351.037,15.914 Q351.037,14.574 351.905,13.935 Q352.773,13.296 354.592,13.296 L355.979,13.296 L355.979,12.961 Q355.979,12.476 355.627,12.226 Q355.275,11.977 354.592,11.977 Q353.874,11.977 353.201,12.158 Q352.527,12.339 351.796,12.735 L351.796,11.026 Q352.459,10.753 353.143,10.623 Q353.826,10.493 354.592,10.493 Q356.458,10.493 357.213,11.252 Q357.969,12.011 357.969,13.966 z" fill="#F42300"/>
    <path d="M361.469,15.142 L361.469,9.235 L359.438,9.235 L359.438,7.697 L363.472,7.697 L363.472,15.142 Q363.472,16.044 363.752,16.42 Q364.032,16.796 364.702,16.796 L366.302,16.796 L366.302,18.334 L364.142,18.334 Q362.713,18.334 362.091,17.596 Q361.469,16.857 361.469,15.142 z" fill="#F42300"/>
    <path d="M368.763,10.678 L372.728,10.678 L372.728,16.796 L375.216,16.796 L375.216,18.334 L368.229,18.334 L368.229,16.796 L370.725,16.796 L370.725,12.216 L368.763,12.216 z M370.725,6.952 L372.728,6.952 L372.728,9.29 L370.725,9.29 z" fill="#F42300"/>
    <path d="M382.455,10.917 L382.455,12.667 Q381.901,12.312 381.303,12.13 Q380.705,11.949 380.104,11.949 Q379.434,11.949 379.092,12.144 Q378.75,12.339 378.75,12.722 Q378.75,13.269 380.213,13.61 L380.288,13.631 L380.862,13.768 Q381.956,14.027 382.465,14.605 Q382.975,15.183 382.975,16.167 Q382.975,17.35 382.199,17.941 Q381.423,18.532 379.864,18.532 Q379.174,18.532 378.449,18.413 Q377.725,18.293 376.979,18.054 L376.979,16.304 Q377.643,16.68 378.33,16.878 Q379.017,17.076 379.659,17.076 Q380.363,17.076 380.726,16.871 Q381.088,16.666 381.088,16.276 Q381.088,15.894 380.832,15.688 Q380.575,15.483 379.611,15.251 L379.058,15.128 Q377.909,14.868 377.383,14.314 Q376.856,13.761 376.856,12.831 Q376.856,11.724 377.656,11.108 Q378.456,10.493 379.905,10.493 Q380.555,10.493 381.201,10.599 Q381.847,10.705 382.455,10.917 z" fill="#F42300"/>
    <path d="M388.895,14.738 Q387.773,14.738 387.329,15.025 Q386.885,15.313 386.885,16.01 Q386.885,16.529 387.192,16.837 Q387.5,17.145 388.026,17.145 Q388.819,17.145 389.257,16.546 Q389.694,15.948 389.694,14.875 L389.694,14.738 z M391.684,13.966 L391.684,18.334 L389.694,18.334 L389.694,17.48 Q389.332,17.985 388.765,18.259 Q388.197,18.532 387.514,18.532 Q386.208,18.532 385.48,17.842 Q384.752,17.151 384.752,15.914 Q384.752,14.574 385.62,13.935 Q386.488,13.296 388.307,13.296 L389.694,13.296 L389.694,12.961 Q389.694,12.476 389.342,12.226 Q388.99,11.977 388.307,11.977 Q387.589,11.977 386.916,12.158 Q386.242,12.339 385.511,12.735 L385.511,11.026 Q386.174,10.753 386.857,10.623 Q387.541,10.493 388.307,10.493 Q390.173,10.493 390.928,11.252 Q391.684,12.011 391.684,13.966 z" fill="#F42300"/>
    <path d="M397.255,8.504 L397.255,10.678 L399.873,10.678 L399.873,12.216 L397.255,12.216 L397.255,15.839 Q397.255,16.352 397.504,16.574 Q397.754,16.796 398.335,16.796 L399.873,16.796 L399.873,18.334 L398.191,18.334 Q396.469,18.334 395.86,17.784 Q395.252,17.233 395.252,15.743 L395.252,12.216 L393.297,12.216 L393.297,10.678 L395.252,10.678 L395.252,8.504 z" fill="#F42300"/>
    <path d="M402.478,10.678 L406.442,10.678 L406.442,16.796 L408.931,16.796 L408.931,18.334 L401.944,18.334 L401.944,16.796 L404.439,16.796 L404.439,12.216 L402.478,12.216 z M404.439,6.952 L406.442,6.952 L406.442,9.29 L404.439,9.29 z" fill="#F42300"/>
    <path d="M413.606,12.12 Q412.889,12.12 412.479,12.752 Q412.068,13.385 412.068,14.513 Q412.068,15.641 412.479,16.273 Q412.889,16.905 413.606,16.905 Q414.331,16.905 414.741,16.273 Q415.151,15.641 415.151,14.513 Q415.151,13.385 414.741,12.752 Q414.331,12.12 413.606,12.12 z M410.065,14.513 Q410.065,12.66 411.026,11.577 Q411.986,10.493 413.606,10.493 Q415.233,10.493 416.194,11.577 Q417.154,12.66 417.154,14.513 Q417.154,16.365 416.194,17.449 Q415.233,18.532 413.606,18.532 Q411.986,18.532 411.026,17.449 Q410.065,16.365 410.065,14.513 z" fill="#F42300"/>
    <path d="M425.146,13.364 L425.146,18.334 L423.156,18.334 L423.156,13.672 Q423.156,12.838 422.92,12.479 Q422.685,12.12 422.151,12.12 Q421.611,12.12 421.3,12.605 Q420.989,13.091 420.989,13.952 L420.989,18.334 L419,18.334 L419,10.678 L420.989,10.678 L420.989,11.826 Q421.201,11.19 421.714,10.842 Q422.227,10.493 422.951,10.493 Q424.038,10.493 424.592,11.214 Q425.146,11.936 425.146,13.364 z" fill="#F42300"/>
    <path d="M9.395,0 L91.605,0 C96.794,0 101,3.234 101,7.223 L101,56.278 C101,60.267 96.794,63.5 91.605,63.5 L9.395,63.5 C4.206,63.5 0,60.267 0,56.278 L0,7.223 C0,3.234 4.206,0 9.395,0 z" fill="#FFF4B8" fill-opacity="0.5"/>
    <path d="M13.499,42.427 L12.524,46.262 L14.606,46.262 L15.57,42.427 L17.867,42.427 L16.872,46.262 L18.851,46.262 L18.851,48.466 L16.329,48.466 L15.57,51.471 L17.672,51.471 L17.672,53.675 L15.026,53.675 L14.062,57.5 L11.796,57.5 L12.76,53.675 L10.658,53.675 L9.694,57.5 L7.428,57.5 L8.392,53.675 L6.27,53.675 L6.27,51.471 L8.936,51.471 L9.694,48.466 L7.449,48.466 L7.449,46.262 L10.258,46.262 L11.222,42.427 z M14.062,48.466 L11.96,48.466 L11.202,51.471 L13.304,51.471 z" fill="#000000"/>
    <path d="M27.003,47.646 L27.003,41.545 L29.997,41.545 L29.997,57.5 L27.003,57.5 L27.003,55.798 Q26.521,56.792 25.757,57.295 Q24.993,57.797 23.957,57.797 Q21.989,57.797 20.902,56.218 Q19.815,54.639 19.815,51.768 Q19.815,48.856 20.917,47.297 Q22.02,45.739 24.06,45.739 Q24.983,45.739 25.716,46.216 Q26.449,46.692 27.003,47.646 z M22.819,51.789 Q22.819,53.45 23.373,54.393 Q23.927,55.336 24.901,55.336 Q25.875,55.336 26.439,54.393 Q27.003,53.45 27.003,51.789 Q27.003,50.127 26.439,49.184 Q25.875,48.241 24.901,48.241 Q23.927,48.241 23.373,49.184 Q22.819,50.127 22.819,51.789 z" fill="#000000"/>
    <path d="M42.835,56.936 Q41.789,57.367 40.702,57.582 Q39.615,57.797 38.405,57.797 Q35.524,57.797 34.001,56.254 Q32.478,54.711 32.478,51.809 Q32.478,49 33.945,47.369 Q35.411,45.739 37.944,45.739 Q40.497,45.739 41.907,47.251 Q43.317,48.764 43.317,51.512 L43.317,52.732 L35.534,52.732 Q35.544,54.085 36.334,54.752 Q37.124,55.418 38.692,55.418 Q39.728,55.418 40.733,55.121 Q41.738,54.824 42.835,54.178 z M40.292,50.476 Q40.271,49.287 39.682,48.677 Q39.092,48.066 37.944,48.066 Q36.908,48.066 36.293,48.697 Q35.678,49.328 35.565,50.486 z" fill="#000000"/>
    <path d="M51.756,45.011 L51.756,46.016 L55.283,46.016 L55.283,48.323 L51.756,48.323 L51.756,57.5 L48.751,57.5 L48.751,48.323 L45.962,48.323 L45.962,46.016 L48.751,46.016 L48.751,45.216 Q48.751,43.145 49.613,42.345 Q50.474,41.545 52.812,41.545 L55.283,41.545 L55.283,43.852 L52.935,43.852 Q52.258,43.852 52.017,44.098 Q51.776,44.344 51.756,45.011 z" fill="#000000"/>
    <path d="M59.087,46.016 L65.035,46.016 L65.035,55.193 L68.767,55.193 L68.767,57.5 L58.288,57.5 L58.288,55.193 L62.03,55.193 L62.03,48.323 L59.087,48.323 z M62.03,40.427 L65.035,40.427 L65.035,43.934 L62.03,43.934 z" fill="#000000"/>
    <path d="M80.446,50.045 L80.446,57.5 L77.462,57.5 L77.462,50.507 Q77.462,49.256 77.109,48.718 Q76.755,48.179 75.955,48.179 Q75.145,48.179 74.678,48.907 Q74.212,49.635 74.212,50.927 L74.212,57.5 L71.228,57.5 L71.228,46.016 L74.212,46.016 L74.212,47.738 Q74.53,46.785 75.299,46.262 Q76.068,45.739 77.155,45.739 Q78.785,45.739 79.616,46.821 Q80.446,47.902 80.446,50.045 z" fill="#000000"/>
    <path d="M93.407,56.936 Q92.361,57.367 91.274,57.582 Q90.187,57.797 88.978,57.797 Q86.096,57.797 84.573,56.254 Q83.051,54.711 83.051,51.809 Q83.051,49 84.517,47.369 Q85.983,45.739 88.516,45.739 Q91.069,45.739 92.479,47.251 Q93.889,48.764 93.889,51.512 L93.889,52.732 L86.106,52.732 Q86.117,54.085 86.906,54.752 Q87.696,55.418 89.265,55.418 Q90.3,55.418 91.305,55.121 Q92.31,54.824 93.407,54.178 z M90.864,50.476 Q90.844,49.287 90.254,48.677 Q89.665,48.066 88.516,48.066 Q87.48,48.066 86.865,48.697 Q86.25,49.328 86.137,50.486 z" fill="#000000"/>
    <path d="M19.966,17.944 Q19.46,18.238 18.879,18.385 Q18.298,18.532 17.628,18.532 Q15.858,18.532 14.859,17.466 Q13.861,16.399 13.861,14.513 Q13.861,12.619 14.866,11.549 Q15.871,10.48 17.642,10.48 Q18.257,10.48 18.828,10.623 Q19.399,10.767 19.966,11.067 L19.966,12.899 Q19.528,12.523 19.005,12.322 Q18.483,12.12 17.922,12.12 Q16.944,12.12 16.418,12.742 Q15.892,13.364 15.892,14.513 Q15.892,15.661 16.418,16.276 Q16.944,16.892 17.922,16.892 Q18.503,16.892 19.009,16.697 Q19.515,16.502 19.966,16.105 z" fill="#F42300"/>
    <path d="M25.353,12.12 Q24.635,12.12 24.225,12.752 Q23.815,13.385 23.815,14.513 Q23.815,15.641 24.225,16.273 Q24.635,16.905 25.353,16.905 Q26.077,16.905 26.487,16.273 Q26.898,15.641 26.898,14.513 Q26.898,13.385 26.487,12.752 Q26.077,12.12 25.353,12.12 z M21.812,14.513 Q21.812,12.66 22.772,11.577 Q23.733,10.493 25.353,10.493 Q26.98,10.493 27.94,11.577 Q28.9,12.66 28.9,14.513 Q28.9,16.365 27.94,17.449 Q26.98,18.532 25.353,18.532 Q23.733,18.532 22.772,17.449 Q21.812,16.365 21.812,14.513 z" fill="#F42300"/>
    <path d="M36.892,13.364 L36.892,18.334 L34.902,18.334 L34.902,13.672 Q34.902,12.838 34.667,12.479 Q34.431,12.12 33.898,12.12 Q33.358,12.12 33.046,12.605 Q32.735,13.091 32.735,13.952 L32.735,18.334 L30.746,18.334 L30.746,10.678 L32.735,10.678 L32.735,11.826 Q32.947,11.19 33.46,10.842 Q33.973,10.493 34.697,10.493 Q35.784,10.493 36.338,11.214 Q36.892,11.936 36.892,13.364 z" fill="#F42300"/>
    <path d="M44.774,10.917 L44.774,12.667 Q44.22,12.312 43.622,12.13 Q43.024,11.949 42.422,11.949 Q41.752,11.949 41.41,12.144 Q41.068,12.339 41.068,12.722 Q41.068,13.269 42.531,13.61 L42.607,13.631 L43.181,13.768 Q44.275,14.027 44.784,14.605 Q45.293,15.183 45.293,16.167 Q45.293,17.35 44.517,17.941 Q43.741,18.532 42.183,18.532 Q41.492,18.532 40.768,18.413 Q40.043,18.293 39.298,18.054 L39.298,16.304 Q39.961,16.68 40.648,16.878 Q41.335,17.076 41.978,17.076 Q42.682,17.076 43.044,16.871 Q43.406,16.666 43.406,16.276 Q43.406,15.894 43.15,15.688 Q42.894,15.483 41.93,15.251 L41.376,15.128 Q40.228,14.868 39.701,14.314 Q39.175,13.761 39.175,12.831 Q39.175,11.724 39.975,11.108 Q40.775,10.493 42.224,10.493 Q42.873,10.493 43.519,10.599 Q44.165,10.705 44.774,10.917 z" fill="#F42300"/>
    <path d="M51.145,8.504 L51.145,10.678 L53.763,10.678 L53.763,12.216 L51.145,12.216 L51.145,15.839 Q51.145,16.352 51.394,16.574 Q51.644,16.796 52.225,16.796 L53.763,16.796 L53.763,18.334 L52.081,18.334 Q50.359,18.334 49.75,17.784 Q49.142,17.233 49.142,15.743 L49.142,12.216 L47.187,12.216 L47.187,10.678 L49.142,10.678 L49.142,8.504 z" fill="#F42300"/>
    <path d="M59.642,14.738 Q58.521,14.738 58.076,15.025 Q57.632,15.313 57.632,16.01 Q57.632,16.529 57.94,16.837 Q58.247,17.145 58.774,17.145 Q59.567,17.145 60.004,16.546 Q60.442,15.948 60.442,14.875 L60.442,14.738 z M62.431,13.966 L62.431,18.334 L60.442,18.334 L60.442,17.48 Q60.079,17.985 59.512,18.259 Q58.944,18.532 58.261,18.532 Q56.955,18.532 56.227,17.842 Q55.499,17.151 55.499,15.914 Q55.499,14.574 56.367,13.935 Q57.235,13.296 59.054,13.296 L60.442,13.296 L60.442,12.961 Q60.442,12.476 60.089,12.226 Q59.737,11.977 59.054,11.977 Q58.336,11.977 57.663,12.158 Q56.989,12.339 56.258,12.735 L56.258,11.026 Q56.921,10.753 57.605,10.623 Q58.288,10.493 59.054,10.493 Q60.92,10.493 61.675,11.252 Q62.431,12.011 62.431,13.966 z" fill="#F42300"/>
    <path d="M70.607,13.364 L70.607,18.334 L68.617,18.334 L68.617,13.672 Q68.617,12.838 68.381,12.479 Q68.146,12.12 67.612,12.12 Q67.072,12.12 66.761,12.605 Q66.45,13.091 66.45,13.952 L66.45,18.334 L64.461,18.334 L64.461,10.678 L66.45,10.678 L66.45,11.826 Q66.662,11.19 67.175,10.842 Q67.688,10.493 68.412,10.493 Q69.499,10.493 70.053,11.214 Q70.607,11.936 70.607,13.364 z" fill="#F42300"/>
    <path d="M76.431,8.504 L76.431,10.678 L79.049,10.678 L79.049,12.216 L76.431,12.216 L76.431,15.839 Q76.431,16.352 76.68,16.574 Q76.93,16.796 77.511,16.796 L79.049,16.796 L79.049,18.334 L77.367,18.334 Q75.645,18.334 75.036,17.784 Q74.428,17.233 74.428,15.743 L74.428,12.216 L72.473,12.216 L72.473,10.678 L74.428,10.678 L74.428,8.504 z" fill="#F42300"/>
    <path d="M87.676,17.958 Q86.979,18.245 86.254,18.389 Q85.529,18.532 84.723,18.532 Q82.802,18.532 81.787,17.503 Q80.772,16.475 80.772,14.54 Q80.772,12.667 81.749,11.58 Q82.727,10.493 84.415,10.493 Q86.117,10.493 87.057,11.501 Q87.997,12.51 87.997,14.342 L87.997,15.155 L82.809,15.155 Q82.816,16.058 83.342,16.502 Q83.868,16.946 84.914,16.946 Q85.605,16.946 86.275,16.748 Q86.944,16.55 87.676,16.119 z M85.981,13.651 Q85.967,12.858 85.574,12.452 Q85.181,12.045 84.415,12.045 Q83.725,12.045 83.315,12.465 Q82.904,12.886 82.829,13.658 z" fill="#F42300"/>
  </g>
</svg>
