<?xml version="1.0" encoding="UTF-8"?>
<!DOCTYPE svg PUBLIC "-//W3C//DTD SVG 1.1//EN" "http://www.w3.org/Graphics/SVG/1.1/DTD/svg11.dtd">
<svg version="1.1" xmlns="http://www.w3.org/2000/svg" xmlns:xlink="http://www.w3.org/1999/xlink" x="0" y="0" width="1241.982" height="200.316" viewBox="0, 0, 1241.982, 200.316">
  <g id="Calque_1" transform="translate(0, -0)">
    <path d="M55.632,0 L542.411,0 C573.136,0 598.044,10.201 598.044,22.785 L598.044,177.531 C598.044,190.115 573.136,200.316 542.411,200.316 L55.632,200.316 C24.907,200.316 -0,190.115 -0,177.531 L-0,22.785 C-0,10.201 24.907,0 55.632,0 z" fill="#FFF4B8" fill-opacity="0.5"/>
    <path d="M155.77,32.781 L237.979,32.781 C243.168,32.781 247.374,36.014 247.374,40.003 L247.374,89.058 C247.374,93.047 243.168,96.281 237.979,96.281 L155.77,96.281 C150.581,96.281 146.374,93.047 146.374,89.058 L146.374,40.003 C146.374,36.014 150.581,32.781 155.77,32.781 z" fill="#CEEEFC" fill-opacity="0.727"/>
    <path d="M170.245,89.717 Q169.199,90.148 168.112,90.363 Q167.025,90.578 165.815,90.578 Q162.934,90.578 161.411,89.035 Q159.888,87.492 159.888,84.59 Q159.888,81.781 161.354,80.15 Q162.821,78.52 165.353,78.52 Q167.907,78.52 169.317,80.032 Q170.727,81.545 170.727,84.293 L170.727,85.513 L162.944,85.513 Q162.954,86.866 163.744,87.533 Q164.533,88.199 166.102,88.199 Q167.138,88.199 168.143,87.902 Q169.147,87.605 170.245,86.959 z M167.702,83.257 Q167.681,82.068 167.092,81.458 Q166.502,80.847 165.353,80.847 Q164.318,80.847 163.703,81.478 Q163.087,82.109 162.975,83.267 z" fill="#000000"/>
    <path d="M182.57,82.826 L182.57,90.281 L179.586,90.281 L179.586,83.288 Q179.586,82.037 179.232,81.499 Q178.878,80.96 178.079,80.96 Q177.269,80.96 176.802,81.688 Q176.335,82.416 176.335,83.708 L176.335,90.281 L173.352,90.281 L173.352,78.797 L176.335,78.797 L176.335,80.519 Q176.653,79.566 177.422,79.043 Q178.191,78.52 179.278,78.52 Q180.909,78.52 181.739,79.602 Q182.57,80.683 182.57,82.826 z" fill="#000000"/>
    <path d="M191.306,75.536 L191.306,78.797 L195.233,78.797 L195.233,81.104 L191.306,81.104 L191.306,86.538 Q191.306,87.307 191.68,87.641 Q192.055,87.974 192.926,87.974 L195.233,87.974 L195.233,90.281 L192.711,90.281 Q190.127,90.281 189.214,89.456 Q188.302,88.63 188.302,86.395 L188.302,81.104 L185.369,81.104 L185.369,78.797 L188.302,78.797 L188.302,75.536 z" fill="#000000"/>
    <path d="M199.14,78.797 L205.087,78.797 L205.087,87.974 L208.82,87.974 L208.82,90.281 L198.34,90.281 L198.34,87.974 L202.083,87.974 L202.083,81.104 L199.14,81.104 z M202.083,73.208 L205.087,73.208 L205.087,76.715 L202.083,76.715 z" fill="#000000"/>
    <path d="M220.817,89.717 Q219.771,90.148 218.684,90.363 Q217.597,90.578 216.387,90.578 Q213.506,90.578 211.983,89.035 Q210.46,87.492 210.46,84.59 Q210.46,81.781 211.927,80.15 Q213.393,78.52 215.926,78.52 Q218.479,78.52 219.889,80.032 Q221.299,81.545 221.299,84.293 L221.299,85.513 L213.516,85.513 Q213.526,86.866 214.316,87.533 Q215.105,88.199 216.674,88.199 Q217.71,88.199 218.715,87.902 Q219.72,87.605 220.817,86.959 z M218.274,83.257 Q218.253,82.068 217.664,81.458 Q217.074,80.847 215.926,80.847 Q214.89,80.847 214.275,81.478 Q213.66,82.109 213.547,83.267 z" fill="#000000"/>
    <path d="M233.962,81.965 Q233.47,81.514 232.809,81.288 Q232.147,81.063 231.358,81.063 Q230.404,81.063 229.692,81.396 Q228.979,81.729 228.589,82.365 Q228.343,82.755 228.246,83.308 Q228.148,83.862 228.148,84.99 L228.148,90.281 L225.144,90.281 L225.144,78.797 L228.148,78.797 L228.148,80.581 Q228.589,79.596 229.502,79.058 Q230.415,78.52 231.635,78.52 Q232.25,78.52 232.84,78.668 Q233.429,78.817 233.962,79.104 z" fill="#000000"/>
    <path d="M185.381,51.114 L183.365,51.114 L183.365,42.672 L180.774,42.672 L180.774,40.908 L187.972,40.908 L187.972,42.672 L185.381,42.672 z" fill="#F42300"/>
    <path d="M193.448,51.941 Q193.045,53.021 192.481,53.517 Q191.917,54.012 191.11,54.012 L189.456,54.012 L189.456,52.488 L190.269,52.488 Q190.884,52.488 191.171,52.28 Q191.459,52.071 191.753,51.312 L191.903,50.902 L188.991,43.458 L191.096,43.458 L192.846,48.427 L194.521,43.458 L196.627,43.458 z" fill="#F42300"/>
    <path d="M200.038,50.034 L200.038,54.026 L198.042,54.026 L198.042,43.458 L200.038,43.458 L200.038,44.606 Q200.352,43.943 200.865,43.608 Q201.378,43.273 202.068,43.273 Q203.38,43.273 204.105,44.326 Q204.83,45.379 204.83,47.293 Q204.83,49.234 204.095,50.273 Q203.36,51.312 202,51.312 Q201.384,51.312 200.896,50.994 Q200.407,50.676 200.038,50.034 z M202.827,47.279 Q202.827,46.172 202.458,45.543 Q202.088,44.914 201.439,44.914 Q200.79,44.914 200.414,45.543 Q200.038,46.172 200.038,47.279 Q200.038,48.386 200.414,49.015 Q200.79,49.644 201.439,49.644 Q202.088,49.644 202.458,49.015 Q202.827,48.386 202.827,47.279 z" fill="#F42300"/>
    <path d="M212.978,50.738 Q212.281,51.025 211.556,51.169 Q210.832,51.312 210.025,51.312 Q208.104,51.312 207.089,50.283 Q206.074,49.255 206.074,47.32 Q206.074,45.447 207.051,44.36 Q208.029,43.273 209.717,43.273 Q211.42,43.273 212.359,44.281 Q213.299,45.29 213.299,47.122 L213.299,47.935 L208.111,47.935 Q208.118,48.838 208.644,49.282 Q209.171,49.726 210.216,49.726 Q210.907,49.726 211.577,49.528 Q212.247,49.33 212.978,48.899 z M211.283,46.431 Q211.269,45.638 210.876,45.232 Q210.483,44.825 209.717,44.825 Q209.027,44.825 208.617,45.245 Q208.207,45.666 208.131,46.438 z" fill="#F42300"/>
    <path d="M475.361,32.298 L580.361,32.298 C586.988,32.298 592.361,35.532 592.361,39.521 L592.361,88.576 C592.361,92.565 586.988,95.798 580.361,95.798 L475.361,95.798 C468.734,95.798 463.361,92.565 463.361,88.576 L463.361,39.521 C463.361,35.532 468.734,32.298 475.361,32.298 z" fill="#CEEEFC" fill-opacity="0.727"/>
    <path d="M510.824,87.132 L514.207,87.132 L514.207,77.196 L511.059,77.975 L511.059,75.248 L514.228,74.489 L517.15,74.489 L517.15,87.132 L520.534,87.132 L520.534,89.798 L510.824,89.798 z" fill="#000000"/>
    <path d="M525.989,87.132 L532.439,87.132 L532.439,89.798 L522.718,89.798 L522.718,87.214 L524.359,85.471 Q527.281,82.364 527.907,81.646 Q528.676,80.764 529.014,80.082 Q529.352,79.401 529.352,78.734 Q529.352,77.709 528.732,77.15 Q528.112,76.591 526.973,76.591 Q526.163,76.591 525.153,76.914 Q524.143,77.237 523.046,77.852 L523.046,75.032 Q524.143,74.632 525.194,74.422 Q526.245,74.212 527.209,74.212 Q529.639,74.212 531.029,75.345 Q532.418,76.478 532.418,78.437 Q532.418,79.339 532.116,80.129 Q531.813,80.918 531.075,81.882 Q530.532,82.579 528.091,85.02 Q526.768,86.342 525.989,87.132 z" fill="#000000"/>
    <path d="M541.298,77.852 L537.432,83.902 L541.298,83.902 z M541.032,74.489 L544.2,74.489 L544.2,83.902 L545.882,83.902 L545.882,86.496 L544.2,86.496 L544.2,89.798 L541.298,89.798 L541.298,86.496 L535.228,86.496 L535.228,83.564 z" fill="#000000"/>
    <path d="M472.178,42.203 L472.178,40.426 L478.255,40.426 L478.255,42.203 L476.224,42.203 L476.224,48.855 L478.255,48.855 L478.255,50.632 L472.178,50.632 L472.178,48.855 L474.208,48.855 L474.208,42.203 z" fill="#F42300"/>
    <path d="M486.752,45.662 L486.752,50.632 L484.763,50.632 L484.763,45.97 Q484.763,45.136 484.527,44.777 Q484.291,44.418 483.758,44.418 Q483.218,44.418 482.907,44.903 Q482.596,45.389 482.596,46.25 L482.596,50.632 L480.606,50.632 L480.606,42.976 L482.596,42.976 L482.596,44.124 Q482.807,43.488 483.32,43.14 Q483.833,42.791 484.557,42.791 Q485.644,42.791 486.198,43.512 Q486.752,44.234 486.752,45.662 z" fill="#F42300"/>
    <path d="M489.37,42.976 L493.335,42.976 L493.335,49.094 L495.823,49.094 L495.823,50.632 L488.837,50.632 L488.837,49.094 L491.332,49.094 L491.332,44.514 L489.37,44.514 z M491.332,39.25 L493.335,39.25 L493.335,41.588 L491.332,41.588 z" fill="#F42300"/>
    <path d="M501.005,40.802 L501.005,42.976 L503.623,42.976 L503.623,44.514 L501.005,44.514 L501.005,48.137 Q501.005,48.65 501.254,48.872 Q501.504,49.094 502.085,49.094 L503.623,49.094 L503.623,50.632 L501.941,50.632 Q500.219,50.632 499.61,50.082 Q499.002,49.531 499.002,48.041 L499.002,44.514 L497.047,44.514 L497.047,42.976 L499.002,42.976 L499.002,40.802 z" fill="#F42300"/>
    <path d="M506.227,42.976 L510.192,42.976 L510.192,49.094 L512.681,49.094 L512.681,50.632 L505.694,50.632 L505.694,49.094 L508.189,49.094 L508.189,44.514 L506.227,44.514 z M508.189,39.25 L510.192,39.25 L510.192,41.588 L508.189,41.588 z" fill="#F42300"/>
    <path d="M517.931,47.036 Q516.809,47.036 516.365,47.323 Q515.921,47.611 515.921,48.308 Q515.921,48.827 516.228,49.135 Q516.536,49.443 517.062,49.443 Q517.855,49.443 518.293,48.844 Q518.73,48.246 518.73,47.173 L518.73,47.036 z M520.72,46.264 L520.72,50.632 L518.73,50.632 L518.73,49.778 Q518.368,50.283 517.801,50.557 Q517.233,50.83 516.55,50.83 Q515.244,50.83 514.516,50.14 Q513.788,49.449 513.788,48.212 Q513.788,46.872 514.656,46.233 Q515.524,45.594 517.343,45.594 L518.73,45.594 L518.73,45.259 Q518.73,44.774 518.378,44.524 Q518.026,44.275 517.343,44.275 Q516.625,44.275 515.952,44.456 Q515.278,44.637 514.547,45.033 L514.547,43.324 Q515.21,43.051 515.893,42.921 Q516.577,42.791 517.343,42.791 Q519.209,42.791 519.964,43.55 Q520.72,44.309 520.72,46.264 z" fill="#F42300"/>
    <path d="M524.22,47.44 L524.22,41.533 L522.189,41.533 L522.189,39.995 L526.223,39.995 L526.223,47.44 Q526.223,48.342 526.503,48.718 Q526.783,49.094 527.453,49.094 L529.053,49.094 L529.053,50.632 L526.892,50.632 Q525.464,50.632 524.842,49.894 Q524.22,49.155 524.22,47.44 z" fill="#F42300"/>
    <path d="M531.514,42.976 L535.478,42.976 L535.478,49.094 L537.967,49.094 L537.967,50.632 L530.98,50.632 L530.98,49.094 L533.475,49.094 L533.475,44.514 L531.514,44.514 z M533.475,39.25 L535.478,39.25 L535.478,41.588 L533.475,41.588 z" fill="#F42300"/>
    <path d="M545.206,43.215 L545.206,44.965 Q544.652,44.61 544.054,44.428 Q543.456,44.247 542.854,44.247 Q542.184,44.247 541.843,44.442 Q541.501,44.637 541.501,45.02 Q541.501,45.567 542.964,45.908 L543.039,45.929 L543.613,46.066 Q544.707,46.325 545.216,46.903 Q545.725,47.481 545.725,48.465 Q545.725,49.648 544.95,50.239 Q544.174,50.83 542.615,50.83 Q541.925,50.83 541.2,50.711 Q540.475,50.591 539.73,50.352 L539.73,48.602 Q540.393,48.978 541.08,49.176 Q541.767,49.374 542.41,49.374 Q543.114,49.374 543.476,49.169 Q543.839,48.964 543.839,48.574 Q543.839,48.192 543.582,47.986 Q543.326,47.781 542.362,47.549 L541.808,47.426 Q540.66,47.166 540.134,46.612 Q539.607,46.059 539.607,45.129 Q539.607,44.022 540.407,43.406 Q541.207,42.791 542.656,42.791 Q543.306,42.791 543.952,42.897 Q544.598,43.003 545.206,43.215 z" fill="#F42300"/>
    <path d="M551.645,47.036 Q550.524,47.036 550.08,47.323 Q549.636,47.611 549.636,48.308 Q549.636,48.827 549.943,49.135 Q550.251,49.443 550.777,49.443 Q551.57,49.443 552.008,48.844 Q552.445,48.246 552.445,47.173 L552.445,47.036 z M554.434,46.264 L554.434,50.632 L552.445,50.632 L552.445,49.778 Q552.083,50.283 551.515,50.557 Q550.948,50.83 550.264,50.83 Q548.959,50.83 548.231,50.14 Q547.503,49.449 547.503,48.212 Q547.503,46.872 548.371,46.233 Q549.239,45.594 551.057,45.594 L552.445,45.594 L552.445,45.259 Q552.445,44.774 552.093,44.524 Q551.741,44.275 551.057,44.275 Q550.34,44.275 549.666,44.456 Q548.993,44.637 548.262,45.033 L548.262,43.324 Q548.925,43.051 549.608,42.921 Q550.292,42.791 551.057,42.791 Q552.924,42.791 553.679,43.55 Q554.434,44.309 554.434,46.264 z" fill="#F42300"/>
    <path d="M560.006,40.802 L560.006,42.976 L562.624,42.976 L562.624,44.514 L560.006,44.514 L560.006,48.137 Q560.006,48.65 560.255,48.872 Q560.505,49.094 561.086,49.094 L562.624,49.094 L562.624,50.632 L560.942,50.632 Q559.22,50.632 558.611,50.082 Q558.003,49.531 558.003,48.041 L558.003,44.514 L556.048,44.514 L556.048,42.976 L558.003,42.976 L558.003,40.802 z" fill="#F42300"/>
    <path d="M565.228,42.976 L569.193,42.976 L569.193,49.094 L571.681,49.094 L571.681,50.632 L564.695,50.632 L564.695,49.094 L567.19,49.094 L567.19,44.514 L565.228,44.514 z M567.19,39.25 L569.193,39.25 L569.193,41.588 L567.19,41.588 z" fill="#F42300"/>
    <path d="M576.357,44.418 Q575.639,44.418 575.229,45.05 Q574.819,45.683 574.819,46.811 Q574.819,47.939 575.229,48.571 Q575.639,49.203 576.357,49.203 Q577.082,49.203 577.492,48.571 Q577.902,47.939 577.902,46.811 Q577.902,45.683 577.492,45.05 Q577.082,44.418 576.357,44.418 z M572.816,46.811 Q572.816,44.958 573.777,43.875 Q574.737,42.791 576.357,42.791 Q577.984,42.791 578.945,43.875 Q579.905,44.958 579.905,46.811 Q579.905,48.663 578.945,49.747 Q577.984,50.83 576.357,50.83 Q574.737,50.83 573.777,49.747 Q572.816,48.663 572.816,46.811 z" fill="#F42300"/>
    <path d="M587.896,45.662 L587.896,50.632 L585.907,50.632 L585.907,45.97 Q585.907,45.136 585.671,44.777 Q585.435,44.418 584.902,44.418 Q584.362,44.418 584.051,44.903 Q583.74,45.389 583.74,46.25 L583.74,50.632 L581.751,50.632 L581.751,42.976 L583.74,42.976 L583.74,44.124 Q583.952,43.488 584.465,43.14 Q584.977,42.791 585.702,42.791 Q586.789,42.791 587.343,43.512 Q587.896,44.234 587.896,45.662 z" fill="#F42300"/>
    <path d="M439.69,84.343 L450.529,84.343 L450.529,86.773 L439.69,86.773 z M439.69,79.677 L450.529,79.677 L450.529,82.087 L439.69,82.087 z" fill="#000000"/>
    <path d="M255.247,177.023 Q255.1,177.296 254.596,177.359 Q254.554,177.359 253.693,177.401 Q253.84,178.346 254.785,179.753 Q255.331,180.152 255.331,180.803 Q255.331,181.832 254.071,181.832 Q252.874,181.832 252.433,181.223 Q252.286,181.013 252.244,180.656 Q252.244,180.425 252.223,180.173 Q252.034,179.984 251.089,177.737 Q249.367,177.989 246.847,178.451 Q246.595,179.06 246.301,180.215 Q246.343,180.425 246.343,180.614 Q246.343,181.181 245.965,181.485 Q245.587,181.79 245.062,181.79 Q244.474,181.79 243.97,181.349 Q243.466,180.908 243.466,180.32 Q243.466,179.795 243.949,179.375 Q245.524,171.374 247.771,166.145 Q247.729,165.893 247.729,165.641 Q247.729,164.591 248.443,164.255 Q248.737,164.129 249.199,164.129 Q250.081,164.129 250.669,164.402 Q251.425,164.78 251.425,165.536 Q251.425,166.229 251.047,166.775 Q251.446,170.345 252.769,175.007 Q252.895,174.986 253.63,174.797 Q254.071,174.671 254.302,174.671 Q254.575,174.671 254.743,174.797 Q255.478,175.364 255.478,176.183 Q255.478,176.624 255.247,177.023 z M250.207,175.427 Q249.85,174.104 249.073,170.345 Q247.582,173.6 247.309,175.931 z" fill="#000000"/>
    <path d="M260.056,181.412 Q259.636,182.21 258.502,182.21 Q257.452,182.21 257.032,181.496 Q256.906,181.286 256.906,181.034 Q256.906,180.824 257.053,180.341 Q257.2,179.858 257.2,179.543 L257.116,165.977 Q257.116,164.864 257.116,164.843 Q257.179,164.57 257.704,164.391 Q258.229,164.213 258.817,164.213 Q259.678,164.213 259.909,164.528 Q260.14,164.843 260.14,165.179 Q260.14,165.41 259.972,165.945 Q259.804,166.481 259.804,166.817 L259.804,179.417 Q259.804,179.732 259.983,180.246 Q260.161,180.761 260.161,180.992 Q260.161,181.223 260.056,181.412 z" fill="#000000"/>
    <path d="M269.212,170.156 Q269.254,171.962 269.401,176.099 Q269.485,179.018 269.485,180.278 Q269.485,183.05 269.044,184.058 Q268.603,185.066 267.259,185.171 Q265.579,185.318 264.298,184.289 Q263.668,184.1 263.5,183.995 Q263.143,183.785 263.038,183.281 Q262.849,182.294 264.592,182.294 Q265.033,182.294 265.432,182.399 Q265.726,182.462 266.083,182.892 Q266.44,183.323 266.755,183.344 Q267.364,183.386 267.364,181.622 Q267.364,180.866 267.259,179.165 Q266.503,180.446 266.167,180.824 Q265.474,181.538 264.55,181.538 Q263.248,181.538 262.45,179.732 Q261.715,178.073 261.715,175.7 Q261.715,173.264 262.492,171.584 Q263.374,169.694 264.928,169.652 Q265.768,169.631 266.167,169.988 Q266.566,170.345 266.944,170.723 Q266.671,169.967 267.07,169.589 Q267.301,169.358 267.763,169.358 Q268.204,169.358 268.645,169.589 Q269.086,169.82 269.212,170.156 z M266.692,175.511 Q266.776,174.293 266.398,173.201 Q265.978,171.983 265.306,171.983 Q264.76,171.983 264.34,173.201 Q263.962,174.293 263.92,175.511 Q263.878,176.792 264.109,177.821 Q264.403,179.039 264.928,179.039 Q265.39,179.039 265.999,177.852 Q266.608,176.666 266.692,175.511 z" fill="#000000"/>
    <path d="M277.906,170.471 Q279.313,171.899 279.313,175.28 Q279.313,177.905 278.326,179.753 Q277.213,181.832 275.26,181.832 Q273.328,181.832 272.278,179.963 Q271.354,178.325 271.354,175.805 Q271.354,173.579 272.068,171.815 Q272.824,169.925 274,169.589 Q274.609,169.421 275.26,169.421 Q276.877,169.421 277.906,170.471 z M275.512,171.479 Q274.819,171.416 274.315,172.781 Q273.874,174.02 273.874,175.385 Q273.874,177.359 274.042,178.178 Q274.336,179.648 275.26,179.795 Q275.848,179.879 276.352,178.178 Q276.835,176.54 276.835,174.671 Q276.835,171.605 275.512,171.479 z" fill="#000000"/>
    <path d="M288.973,170.597 Q288.889,171.038 288.175,171.206 Q287.335,171.416 287.104,171.689 L283.681,175.637 L283.681,178.829 Q283.681,179.291 283.944,179.763 Q284.206,180.236 284.206,180.488 Q284.206,180.74 284.059,181.055 Q283.702,181.853 282.61,181.853 Q281.854,181.853 281.413,181.37 Q281.119,181.055 281.119,180.572 Q281.119,180.404 281.161,180.026 Q281.203,179.648 281.203,179.417 L281.203,171.563 Q281.203,171.374 281.035,171.101 Q280.867,170.828 280.867,170.66 Q280.867,170.534 280.951,170.366 Q281.224,169.862 282.652,169.862 Q283.765,169.862 283.912,170.387 Q283.975,170.597 283.975,170.744 Q283.975,170.975 283.807,171.101 Q283.639,171.227 283.639,171.353 L283.681,172.109 L285.487,170.198 Q285.802,169.841 286.149,169.484 Q286.495,169.127 286.957,169.085 Q287.671,169.022 288.333,169.4 Q288.994,169.778 288.994,170.387 Q288.994,170.492 288.973,170.597 z" fill="#000000"/>
    <path d="M293.32,165.557 Q293.383,165.62 293.383,165.767 Q293.383,165.956 293.257,166.418 Q293.11,166.985 293.068,167.195 Q293.026,167.405 293.11,168.119 Q293.11,168.56 292.848,168.696 Q292.585,168.833 292.186,168.833 Q291.619,168.833 291.031,168.602 Q290.317,168.308 290.317,167.825 Q290.317,167.678 290.443,167.415 Q290.569,167.153 290.59,166.985 Q290.632,166.817 290.59,166.145 Q290.548,165.62 290.8,165.431 Q291.136,165.179 291.997,165.179 Q292.942,165.179 293.32,165.557 z M293.593,170.681 Q293.593,170.975 293.268,171.594 Q292.942,172.214 292.942,172.613 L292.942,178.787 Q292.942,179.207 293.173,179.973 Q293.404,180.74 293.404,181.034 Q293.404,181.454 293.068,181.664 Q292.543,182 291.934,182 Q291.136,182 290.8,181.454 Q290.359,180.782 290.359,177.443 Q290.359,176.645 290.391,174.954 Q290.422,173.264 290.422,172.487 Q290.422,172.193 290.359,171.72 Q290.296,171.248 290.296,171.038 Q290.296,170.345 290.8,169.841 Q291.01,169.631 291.577,169.631 Q292.144,169.631 292.711,169.809 Q293.278,169.988 293.436,170.219 Q293.593,170.45 293.593,170.681 z" fill="#000000"/>
    <path d="M302.476,171.773 Q302.308,171.773 301.951,171.636 Q301.594,171.5 301.405,171.5 Q301.258,171.5 301.111,171.563 L300.334,171.962 L300.334,179.144 Q300.334,179.543 300.765,180.173 Q301.195,180.803 301.111,181.181 Q301.006,181.643 300.492,181.916 Q299.977,182.189 299.389,182.189 Q298.276,182.189 297.856,181.202 Q297.73,180.908 297.709,179.333 Q297.688,178.283 297.73,176.057 Q297.772,173.537 297.772,172.865 Q297.646,172.907 297.352,173.148 Q297.058,173.39 296.764,173.39 Q296.533,173.39 296.176,173.264 Q294.706,172.76 294.706,172.235 Q294.706,172.109 294.769,171.962 Q294.916,171.626 295.315,171.584 Q295.924,171.5 296.05,171.437 Q296.533,171.248 297.814,170.534 L297.814,168.707 Q297.814,168.497 297.699,168.15 Q297.583,167.804 297.583,167.636 Q297.583,167.447 297.688,167.279 Q298.234,166.439 299.158,166.439 Q300.229,166.439 300.67,167.279 Q300.838,167.615 300.838,167.825 Q300.838,168.077 300.586,168.35 Q300.334,168.623 300.334,168.854 L300.334,169.883 Q300.712,169.715 301.174,169.316 Q301.531,169.022 301.783,169.022 Q301.888,169.022 302.014,169.064 Q303.337,169.421 303.337,170.66 Q303.337,171.059 303.096,171.416 Q302.854,171.773 302.476,171.773 z" fill="#000000"/>
    <path d="M313.165,179.543 Q313.291,180.068 313.291,180.215 Q313.291,180.656 312.776,180.939 Q312.262,181.223 311.674,181.223 Q310.771,181.223 310.519,180.551 Q310.414,180.278 310.414,180.089 Q310.414,179.816 310.656,179.501 Q310.897,179.186 310.897,178.913 Q311.149,177.821 311.149,175.763 Q311.149,172.193 310.645,172.109 Q310.267,172.046 309.427,173.306 Q308.545,174.629 307.957,176.267 Q307.264,178.199 307.369,179.669 Q307.306,179.795 307.306,179.921 Q307.306,180.11 307.474,180.456 Q307.642,180.803 307.642,181.013 Q307.642,181.223 307.495,181.412 Q306.928,182.231 306.361,182.231 Q305.773,182.231 305.227,181.307 Q304.912,180.761 304.912,175.028 Q304.912,172.928 305.017,165.473 Q305.017,165.347 304.996,165.084 Q304.975,164.822 304.975,164.675 Q304.996,164.465 305.101,164.297 Q305.332,163.856 306.088,163.856 Q306.76,163.856 307.317,164.213 Q307.873,164.57 307.747,165.053 Q307.726,165.179 307.548,165.347 Q307.369,165.515 307.369,165.683 L307.369,172.445 Q308.566,169.757 310.897,169.589 Q312.157,169.505 312.913,171.479 Q313.606,173.285 313.606,175.91 Q313.606,177.926 313.165,179.543 z" fill="#000000"/>
    <path d="M329.146,181.307 Q328.873,182.084 327.907,182.084 Q326.689,182.084 326.101,181.244 Q325.786,180.782 325.786,178.073 Q325.786,177.674 325.786,176.96 Q325.807,176.225 325.807,175.931 Q325.807,174.461 325.66,174.419 Q325.345,174.293 323.518,180.299 Q323.518,180.32 323.434,181.307 Q323.392,181.916 323.014,182.126 Q322.741,182.273 322.405,182.273 Q321.796,182.273 321.229,181.874 Q320.662,181.475 320.515,180.929 Q320.305,180.152 320.326,177.863 Q320.368,174.524 320.368,174.65 Q320.347,173.768 320.242,173.747 Q319.759,174.545 319.402,175.28 Q318.541,177.044 318.415,178.22 Q318.31,178.472 318.394,179.207 Q318.478,179.837 318.205,180.068 Q317.932,180.299 317.47,180.299 Q316.966,180.299 316.452,180.015 Q315.937,179.732 315.706,179.375 Q315.37,178.85 315.328,176.309 Q315.328,173.831 315.328,171.353 Q315.307,171.143 315.16,170.765 Q315.013,170.387 315.013,170.198 Q315.013,170.009 315.118,169.841 Q315.391,169.421 316.504,169.421 Q317.869,169.421 318.142,170.093 Q318.205,170.24 318.205,170.387 Q318.205,170.576 318.006,170.933 Q317.806,171.29 317.806,171.521 L317.806,173.915 Q318.436,172.592 319.465,170.555 Q319.591,170.282 319.707,170.009 Q319.822,169.736 320.053,169.526 Q320.284,169.316 320.83,169.316 Q321.67,169.316 322.521,169.694 Q323.371,170.072 323.392,170.597 Q323.413,171.143 323.235,171.426 Q323.056,171.71 323.056,171.899 L323.014,176.435 Q323.35,175.679 324.232,172.865 Q324.925,170.723 325.282,170.471 Q325.744,170.135 326.647,170.135 Q328.327,170.135 328.39,171.101 Q328.369,173.663 328.39,179.669 Q328.39,179.9 328.81,180.225 Q329.23,180.551 329.23,180.908 Q329.23,181.076 329.146,181.307 z" fill="#000000"/>
    <path d="M333.892,165.557 Q333.955,165.62 333.955,165.767 Q333.955,165.956 333.829,166.418 Q333.682,166.985 333.64,167.195 Q333.598,167.405 333.682,168.119 Q333.682,168.56 333.42,168.696 Q333.157,168.833 332.758,168.833 Q332.191,168.833 331.603,168.602 Q330.889,168.308 330.889,167.825 Q330.889,167.678 331.015,167.415 Q331.141,167.153 331.162,166.985 Q331.204,166.817 331.162,166.145 Q331.12,165.62 331.372,165.431 Q331.708,165.179 332.569,165.179 Q333.514,165.179 333.892,165.557 z M334.165,170.681 Q334.165,170.975 333.84,171.594 Q333.514,172.214 333.514,172.613 L333.514,178.787 Q333.514,179.207 333.745,179.973 Q333.976,180.74 333.976,181.034 Q333.976,181.454 333.64,181.664 Q333.115,182 332.506,182 Q331.708,182 331.372,181.454 Q330.931,180.782 330.931,177.443 Q330.931,176.645 330.963,174.954 Q330.994,173.264 330.994,172.487 Q330.994,172.193 330.931,171.72 Q330.868,171.248 330.868,171.038 Q330.868,170.345 331.372,169.841 Q331.582,169.631 332.149,169.631 Q332.716,169.631 333.283,169.809 Q333.85,169.988 334.008,170.219 Q334.165,170.45 334.165,170.681 z" fill="#000000"/>
    <path d="M343.363,169.967 Q343.447,170.156 343.447,170.324 Q343.447,170.534 343.279,170.859 Q343.111,171.185 343.111,171.416 L343.111,183.365 Q343.111,183.638 343.248,184.026 Q343.384,184.415 343.384,184.646 Q343.384,184.877 343.3,185.129 Q343.048,185.885 341.998,185.885 Q340.717,185.885 340.276,184.94 Q340.171,184.73 340.171,184.52 Q340.171,184.247 340.444,183.722 Q340.717,183.197 340.717,182.861 L340.717,180.173 Q339.814,181.538 338.953,181.538 Q337.42,181.538 336.37,179.564 Q335.425,177.737 335.425,175.511 Q335.425,173.096 336.034,171.563 Q336.832,169.589 338.575,169.589 Q339.877,169.589 340.843,170.975 Q340.822,170.807 340.717,170.492 Q340.612,170.177 340.612,170.03 Q340.612,169.841 340.717,169.715 Q340.99,169.379 341.809,169.379 Q343.111,169.379 343.363,169.967 z M340.465,175.511 Q340.465,174.23 340.077,172.917 Q339.688,171.605 339.205,171.605 Q338.176,171.605 338.176,173.978 Q338.176,174.251 338.176,174.755 Q338.197,175.28 338.197,175.511 Q338.197,176.834 338.428,177.884 Q338.722,179.165 339.205,179.165 Q339.625,179.165 340.066,177.779 Q340.465,176.477 340.465,175.511 z" fill="#000000"/>
    <path d="M353.002,171.059 Q353.044,171.374 352.876,171.731 Q352.666,172.214 352.624,172.445 Q352.624,176.813 352.267,178.514 Q351.49,182.084 348.97,182.084 Q345.295,182.084 345.295,175.385 Q345.295,173.579 345.568,171.563 Q345.421,171.08 345.421,170.702 Q345.421,170.093 345.82,169.673 Q346.156,169.316 346.807,169.316 Q347.332,169.316 347.794,169.536 Q348.256,169.757 348.34,170.051 Q348.382,170.198 348.382,170.345 Q348.382,170.618 348.151,171.216 Q347.92,171.815 347.962,172.193 Q347.752,173.369 347.752,175.154 Q347.752,176.96 347.983,178.157 Q348.277,179.543 348.802,179.543 Q349.684,179.543 349.957,176.561 Q350.104,175.07 350.104,171.815 Q350.104,171.605 350.041,171.206 Q349.978,170.807 349.978,170.618 Q349.978,170.114 350.356,169.925 Q350.566,169.82 350.944,169.82 Q351.637,169.82 352.225,170.114 Q352.918,170.471 353.002,171.059 z" fill="#000000"/>
    <path d="M362.032,179.102 Q361.864,179.9 360.898,180.803 Q360.751,181.034 359.743,181.412 Q358.588,181.853 357.748,181.79 Q356.173,181.685 355.27,179.984 Q354.451,178.409 354.451,176.12 Q354.451,173.642 355.375,171.773 Q356.404,169.715 358.126,169.463 Q358.462,169.421 358.777,169.421 Q361.276,169.421 361.528,172.487 Q361.654,173.894 360.415,175.553 Q359.071,177.38 356.971,178.115 Q357.202,178.955 357.328,179.207 Q357.622,179.732 358.126,179.732 Q358.609,179.732 359.155,179.354 Q359.617,179.039 359.785,178.745 Q359.869,178.703 359.953,178.272 Q360.037,177.842 360.394,177.653 Q360.52,177.59 360.688,177.59 Q361.192,177.59 361.665,178.083 Q362.137,178.577 362.032,179.102 z M358.735,171.71 Q357.895,171.71 357.37,172.907 Q356.677,174.503 356.803,176.057 Q357.79,175.742 358.63,174.587 Q359.47,173.432 359.47,172.529 Q359.47,171.71 358.735,171.71 z" fill="#000000"/>
    <path d="M17.096,32.781 L124.537,32.781 C131.319,32.781 136.816,36.014 136.816,40.003 L136.816,89.058 C136.816,93.047 131.319,96.281 124.537,96.281 L17.096,96.281 C10.314,96.281 4.816,93.047 4.816,89.058 L4.816,40.003 C4.816,36.014 10.314,32.781 17.096,32.781 z" fill="#CEEEFC" fill-opacity="0.727"/>
    <path d="M25.006,89.357 Q24.289,89.726 23.499,89.911 Q22.71,90.095 21.838,90.095 Q18.741,90.095 17.111,88.055 Q15.481,86.014 15.481,82.159 Q15.481,78.293 17.111,76.253 Q18.741,74.212 21.838,74.212 Q22.71,74.212 23.509,74.397 Q24.309,74.581 25.006,74.95 L25.006,78.314 Q24.227,77.596 23.494,77.263 Q22.761,76.929 21.982,76.929 Q20.32,76.929 19.474,78.247 Q18.629,79.565 18.629,82.159 Q18.629,84.743 19.474,86.06 Q20.32,87.378 21.982,87.378 Q22.761,87.378 23.494,87.045 Q24.227,86.712 25.006,85.994 z" fill="#000000"/>
    <path d="M32.881,80.477 Q31.805,80.477 31.19,81.426 Q30.574,82.374 30.574,84.066 Q30.574,85.758 31.19,86.706 Q31.805,87.655 32.881,87.655 Q33.968,87.655 34.584,86.706 Q35.199,85.758 35.199,84.066 Q35.199,82.374 34.584,81.426 Q33.968,80.477 32.881,80.477 z M27.57,84.066 Q27.57,81.287 29.011,79.662 Q30.451,78.037 32.881,78.037 Q35.322,78.037 36.763,79.662 Q38.203,81.287 38.203,84.066 Q38.203,86.845 36.763,88.47 Q35.322,90.095 32.881,90.095 Q30.451,90.095 29.011,88.47 Q27.57,86.845 27.57,84.066 z" fill="#000000"/>
    <path d="M50.19,82.343 L50.19,89.798 L47.206,89.798 L47.206,82.805 Q47.206,81.554 46.852,81.016 Q46.499,80.477 45.699,80.477 Q44.889,80.477 44.422,81.205 Q43.956,81.933 43.956,83.225 L43.956,89.798 L40.972,89.798 L40.972,78.314 L43.956,78.314 L43.956,80.036 Q44.274,79.083 45.043,78.56 Q45.812,78.037 46.899,78.037 Q48.529,78.037 49.36,79.119 Q50.19,80.2 50.19,82.343 z" fill="#000000"/>
    <path d="M62.013,78.673 L62.013,81.298 Q61.182,80.764 60.285,80.493 Q59.388,80.221 58.485,80.221 Q57.481,80.221 56.968,80.513 Q56.455,80.805 56.455,81.38 Q56.455,82.2 58.65,82.713 L58.762,82.743 L59.624,82.948 Q61.264,83.338 62.028,84.204 Q62.792,85.071 62.792,86.548 Q62.792,88.321 61.628,89.208 Q60.464,90.095 58.127,90.095 Q57.091,90.095 56.004,89.916 Q54.917,89.736 53.799,89.378 L53.799,86.753 Q54.794,87.317 55.825,87.614 Q56.855,87.911 57.819,87.911 Q58.875,87.911 59.419,87.604 Q59.962,87.296 59.962,86.712 Q59.962,86.137 59.578,85.83 Q59.193,85.522 57.747,85.173 L56.917,84.989 Q55.194,84.599 54.404,83.769 Q53.615,82.938 53.615,81.544 Q53.615,79.882 54.815,78.96 Q56.014,78.037 58.188,78.037 Q59.162,78.037 60.131,78.196 Q61.1,78.355 62.013,78.673 z" fill="#000000"/>
    <path d="M71.569,75.053 L71.569,78.314 L75.497,78.314 L75.497,80.621 L71.569,80.621 L71.569,86.055 Q71.569,86.824 71.944,87.158 Q72.318,87.491 73.19,87.491 L75.497,87.491 L75.497,89.798 L72.974,89.798 Q70.39,89.798 69.478,88.973 Q68.565,88.147 68.565,85.912 L68.565,80.621 L65.632,80.621 L65.632,78.314 L68.565,78.314 L68.565,75.053 z" fill="#000000"/>
    <path d="M84.315,84.404 Q82.633,84.404 81.967,84.835 Q81.3,85.266 81.3,86.312 Q81.3,87.091 81.762,87.552 Q82.223,88.014 83.013,88.014 Q84.202,88.014 84.859,87.117 Q85.515,86.219 85.515,84.61 L85.515,84.404 z M88.499,83.246 L88.499,89.798 L85.515,89.798 L85.515,88.516 Q84.971,89.275 84.12,89.685 Q83.269,90.095 82.244,90.095 Q80.285,90.095 79.193,89.06 Q78.101,88.024 78.101,86.168 Q78.101,84.158 79.403,83.2 Q80.706,82.241 83.433,82.241 L85.515,82.241 L85.515,81.738 Q85.515,81.01 84.987,80.636 Q84.459,80.262 83.433,80.262 Q82.357,80.262 81.347,80.534 Q80.337,80.805 79.239,81.4 L79.239,78.837 Q80.234,78.426 81.259,78.232 Q82.285,78.037 83.433,78.037 Q86.233,78.037 87.366,79.175 Q88.499,80.313 88.499,83.246 z" fill="#000000"/>
    <path d="M100.762,82.343 L100.762,89.798 L97.778,89.798 L97.778,82.805 Q97.778,81.554 97.425,81.016 Q97.071,80.477 96.271,80.477 Q95.461,80.477 94.995,81.205 Q94.528,81.933 94.528,83.225 L94.528,89.798 L91.544,89.798 L91.544,78.314 L94.528,78.314 L94.528,80.036 Q94.846,79.083 95.615,78.56 Q96.384,78.037 97.471,78.037 Q99.101,78.037 99.932,79.119 Q100.762,80.2 100.762,82.343 z" fill="#000000"/>
    <path d="M109.499,75.053 L109.499,78.314 L113.426,78.314 L113.426,80.621 L109.499,80.621 L109.499,86.055 Q109.499,86.824 109.873,87.158 Q110.247,87.491 111.119,87.491 L113.426,87.491 L113.426,89.798 L110.903,89.798 Q108.319,89.798 107.407,88.973 Q106.494,88.147 106.494,85.912 L106.494,80.621 L103.562,80.621 L103.562,78.314 L106.494,78.314 L106.494,75.053 z" fill="#000000"/>
    <path d="M126.366,89.234 Q125.32,89.665 124.234,89.88 Q123.147,90.095 121.937,90.095 Q119.055,90.095 117.533,88.552 Q116.01,87.009 116.01,84.107 Q116.01,81.298 117.476,79.667 Q118.943,78.037 121.475,78.037 Q124.028,78.037 125.438,79.549 Q126.848,81.062 126.848,83.81 L126.848,85.03 L119.066,85.03 Q119.076,86.383 119.865,87.05 Q120.655,87.716 122.224,87.716 Q123.259,87.716 124.264,87.419 Q125.269,87.122 126.366,86.476 z M123.823,82.774 Q123.803,81.585 123.213,80.975 Q122.624,80.364 121.475,80.364 Q120.44,80.364 119.824,80.995 Q119.209,81.626 119.096,82.784 z" fill="#000000"/>
    <path d="M40.277,49.44 Q39.798,49.686 39.272,49.809 Q38.745,49.932 38.164,49.932 Q36.1,49.932 35.013,48.572 Q33.926,47.212 33.926,44.641 Q33.926,42.064 35.013,40.704 Q36.1,39.343 38.164,39.343 Q38.745,39.343 39.279,39.466 Q39.812,39.589 40.277,39.836 L40.277,42.078 Q39.757,41.599 39.268,41.377 Q38.78,41.155 38.26,41.155 Q37.153,41.155 36.589,42.033 Q36.025,42.912 36.025,44.641 Q36.025,46.364 36.589,47.242 Q37.153,48.121 38.26,48.121 Q38.78,48.121 39.268,47.899 Q39.757,47.676 40.277,47.198 z" fill="#F42300"/>
    <path d="M45.527,43.52 Q44.809,43.52 44.399,44.152 Q43.989,44.785 43.989,45.913 Q43.989,47.041 44.399,47.673 Q44.809,48.305 45.527,48.305 Q46.251,48.305 46.661,47.673 Q47.072,47.041 47.072,45.913 Q47.072,44.785 46.661,44.152 Q46.251,43.52 45.527,43.52 z M41.986,45.913 Q41.986,44.06 42.946,42.977 Q43.907,41.893 45.527,41.893 Q47.154,41.893 48.114,42.977 Q49.074,44.06 49.074,45.913 Q49.074,47.765 48.114,48.849 Q47.154,49.932 45.527,49.932 Q43.907,49.932 42.946,48.849 Q41.986,47.765 41.986,45.913 z" fill="#F42300"/>
    <path d="M57.066,44.764 L57.066,49.734 L55.076,49.734 L55.076,45.072 Q55.076,44.238 54.841,43.879 Q54.605,43.52 54.072,43.52 Q53.532,43.52 53.22,44.005 Q52.909,44.491 52.909,45.352 L52.909,49.734 L50.92,49.734 L50.92,42.078 L52.909,42.078 L52.909,43.226 Q53.121,42.59 53.634,42.242 Q54.147,41.893 54.871,41.893 Q55.958,41.893 56.512,42.614 Q57.066,43.336 57.066,44.764 z" fill="#F42300"/>
    <path d="M64.948,42.317 L64.948,44.067 Q64.394,43.712 63.796,43.53 Q63.198,43.349 62.596,43.349 Q61.926,43.349 61.584,43.544 Q61.242,43.739 61.242,44.122 Q61.242,44.669 62.705,45.01 L62.781,45.031 L63.355,45.168 Q64.449,45.427 64.958,46.005 Q65.467,46.583 65.467,47.567 Q65.467,48.75 64.691,49.341 Q63.915,49.932 62.357,49.932 Q61.666,49.932 60.942,49.813 Q60.217,49.693 59.472,49.454 L59.472,47.704 Q60.135,48.08 60.822,48.278 Q61.509,48.476 62.152,48.476 Q62.856,48.476 63.218,48.271 Q63.58,48.066 63.58,47.676 Q63.58,47.294 63.324,47.088 Q63.068,46.883 62.104,46.651 L61.55,46.528 Q60.402,46.268 59.875,45.714 Q59.349,45.161 59.349,44.231 Q59.349,43.124 60.149,42.508 Q60.949,41.893 62.398,41.893 Q63.047,41.893 63.693,41.999 Q64.339,42.105 64.948,42.317 z" fill="#F42300"/>
    <path d="M71.319,39.904 L71.319,42.078 L73.937,42.078 L73.937,43.616 L71.319,43.616 L71.319,47.239 Q71.319,47.752 71.568,47.974 Q71.818,48.196 72.399,48.196 L73.937,48.196 L73.937,49.734 L72.255,49.734 Q70.533,49.734 69.924,49.184 Q69.316,48.633 69.316,47.143 L69.316,43.616 L67.361,43.616 L67.361,42.078 L69.316,42.078 L69.316,39.904 z" fill="#F42300"/>
    <path d="M79.816,46.138 Q78.695,46.138 78.25,46.425 Q77.806,46.713 77.806,47.41 Q77.806,47.929 78.114,48.237 Q78.421,48.545 78.948,48.545 Q79.741,48.545 80.178,47.946 Q80.616,47.348 80.616,46.275 L80.616,46.138 z M82.605,45.366 L82.605,49.734 L80.616,49.734 L80.616,48.88 Q80.253,49.385 79.686,49.659 Q79.118,49.932 78.435,49.932 Q77.129,49.932 76.401,49.242 Q75.673,48.551 75.673,47.314 Q75.673,45.974 76.541,45.335 Q77.409,44.696 79.228,44.696 L80.616,44.696 L80.616,44.361 Q80.616,43.876 80.263,43.626 Q79.911,43.377 79.228,43.377 Q78.51,43.377 77.837,43.558 Q77.163,43.739 76.432,44.135 L76.432,42.426 Q77.095,42.153 77.779,42.023 Q78.462,41.893 79.228,41.893 Q81.094,41.893 81.849,42.652 Q82.605,43.411 82.605,45.366 z" fill="#F42300"/>
    <path d="M90.781,44.764 L90.781,49.734 L88.791,49.734 L88.791,45.072 Q88.791,44.238 88.555,43.879 Q88.32,43.52 87.786,43.52 Q87.246,43.52 86.935,44.005 Q86.624,44.491 86.624,45.352 L86.624,49.734 L84.635,49.734 L84.635,42.078 L86.624,42.078 L86.624,43.226 Q86.836,42.59 87.349,42.242 Q87.862,41.893 88.586,41.893 Q89.673,41.893 90.227,42.614 Q90.781,43.336 90.781,44.764 z" fill="#F42300"/>
    <path d="M96.605,39.904 L96.605,42.078 L99.223,42.078 L99.223,43.616 L96.605,43.616 L96.605,47.239 Q96.605,47.752 96.854,47.974 Q97.104,48.196 97.685,48.196 L99.223,48.196 L99.223,49.734 L97.541,49.734 Q95.819,49.734 95.21,49.184 Q94.602,48.633 94.602,47.143 L94.602,43.616 L92.647,43.616 L92.647,42.078 L94.602,42.078 L94.602,39.904 z" fill="#F42300"/>
    <path d="M107.85,49.358 Q107.153,49.645 106.428,49.789 Q105.703,49.932 104.897,49.932 Q102.976,49.932 101.961,48.903 Q100.946,47.875 100.946,45.94 Q100.946,44.067 101.923,42.98 Q102.901,41.893 104.589,41.893 Q106.291,41.893 107.231,42.901 Q108.171,43.91 108.171,45.742 L108.171,46.555 L102.983,46.555 Q102.99,47.458 103.516,47.902 Q104.042,48.346 105.088,48.346 Q105.779,48.346 106.449,48.148 Q107.118,47.95 107.85,47.519 z M106.155,45.051 Q106.141,44.258 105.748,43.852 Q105.355,43.445 104.589,43.445 Q103.899,43.445 103.489,43.865 Q103.078,44.286 103.003,45.058 z" fill="#F42300"/>
    <path d="M681.075,0 L1184.453,0 C1216.226,0 1241.982,10.201 1241.982,22.785 L1241.982,177.531 C1241.982,190.115 1216.226,200.316 1184.453,200.316 L681.075,200.316 C649.303,200.316 623.546,190.115 623.546,177.531 L623.546,22.785 C623.546,10.201 649.303,0 681.075,0 z" fill="#FFF4B8" fill-opacity="0.5"/>
    <path d="M893.418,32.085 L1035.859,32.085 C1044.85,32.085 1052.138,35.318 1052.138,39.307 L1052.138,88.362 C1052.138,92.351 1044.85,95.585 1035.859,95.585 L893.418,95.585 C884.427,95.585 877.138,92.351 877.138,88.362 L877.138,39.307 C877.138,35.318 884.427,32.085 893.418,32.085 z" fill="#CEEEFC" fill-opacity="0.727"/>
    <path d="M779.5,32.781 L861.709,32.781 C866.898,32.781 871.104,36.014 871.104,40.003 L871.104,89.058 C871.104,93.047 866.898,96.281 861.709,96.281 L779.5,96.281 C774.311,96.281 770.104,93.047 770.104,89.058 L770.104,40.003 C770.104,36.014 774.311,32.781 779.5,32.781 z" fill="#CEEEFC" fill-opacity="0.727"/>
    <path d="M809.112,51.114 L807.095,51.114 L807.095,42.672 L804.504,42.672 L804.504,40.908 L811.702,40.908 L811.702,42.672 L809.112,42.672 z" fill="#F42300"/>
    <path d="M817.178,51.941 Q816.775,53.021 816.211,53.517 Q815.647,54.012 814.84,54.012 L813.186,54.012 L813.186,52.488 L813.999,52.488 Q814.615,52.488 814.902,52.28 Q815.189,52.071 815.483,51.312 L815.633,50.902 L812.721,43.458 L814.826,43.458 L816.576,48.427 L818.251,43.458 L820.357,43.458 z" fill="#F42300"/>
    <path d="M823.768,50.034 L823.768,54.026 L821.772,54.026 L821.772,43.458 L823.768,43.458 L823.768,44.606 Q824.082,43.943 824.595,43.608 Q825.108,43.273 825.798,43.273 Q827.111,43.273 827.835,44.326 Q828.56,45.379 828.56,47.293 Q828.56,49.234 827.825,50.273 Q827.09,51.312 825.73,51.312 Q825.115,51.312 824.626,50.994 Q824.137,50.676 823.768,50.034 z M826.557,47.279 Q826.557,46.172 826.188,45.543 Q825.819,44.914 825.169,44.914 Q824.52,44.914 824.144,45.543 Q823.768,46.172 823.768,47.279 Q823.768,48.386 824.144,49.015 Q824.52,49.644 825.169,49.644 Q825.819,49.644 826.188,49.015 Q826.557,48.386 826.557,47.279 z" fill="#F42300"/>
    <path d="M836.708,50.738 Q836.011,51.025 835.286,51.169 Q834.562,51.312 833.755,51.312 Q831.834,51.312 830.819,50.283 Q829.804,49.255 829.804,47.32 Q829.804,45.447 830.782,44.36 Q831.759,43.273 833.448,43.273 Q835.15,43.273 836.09,44.281 Q837.03,45.29 837.03,47.122 L837.03,47.935 L831.841,47.935 Q831.848,48.838 832.374,49.282 Q832.901,49.726 833.947,49.726 Q834.637,49.726 835.307,49.528 Q835.977,49.33 836.708,48.899 z M835.013,46.431 Q834.999,45.638 834.606,45.232 Q834.213,44.825 833.448,44.825 Q832.757,44.825 832.347,45.245 Q831.937,45.666 831.862,46.438 z" fill="#F42300"/>
    <path d="M1098.376,31.602 L1203.376,31.602 C1210.003,31.602 1215.376,34.836 1215.376,38.825 L1215.376,87.88 C1215.376,91.869 1210.003,95.102 1203.376,95.102 L1098.376,95.102 C1091.749,95.102 1086.376,91.869 1086.376,87.88 L1086.376,38.825 C1086.376,34.836 1091.749,31.602 1098.376,31.602 z" fill="#CEEEFC" fill-opacity="0.727"/>
    <path d="M1134.554,87.132 L1137.938,87.132 L1137.938,77.196 L1134.79,77.975 L1134.79,75.248 L1137.958,74.489 L1140.88,74.489 L1140.88,87.132 L1144.264,87.132 L1144.264,89.798 L1134.554,89.798 z" fill="#000000"/>
    <path d="M1149.719,87.132 L1156.169,87.132 L1156.169,89.798 L1146.448,89.798 L1146.448,87.214 L1148.089,85.471 Q1151.011,82.364 1151.637,81.646 Q1152.406,80.764 1152.744,80.082 Q1153.083,79.401 1153.083,78.734 Q1153.083,77.709 1152.462,77.15 Q1151.842,76.591 1150.704,76.591 Q1149.894,76.591 1148.884,76.914 Q1147.874,77.237 1146.776,77.852 L1146.776,75.032 Q1147.874,74.632 1148.925,74.422 Q1149.976,74.212 1150.939,74.212 Q1153.37,74.212 1154.759,75.345 Q1156.148,76.478 1156.148,78.437 Q1156.148,79.339 1155.846,80.129 Q1155.543,80.918 1154.805,81.882 Q1154.262,82.579 1151.821,85.02 Q1150.499,86.342 1149.719,87.132 z" fill="#000000"/>
    <path d="M1165.028,77.852 L1161.163,83.902 L1165.028,83.902 z M1164.762,74.489 L1167.93,74.489 L1167.93,83.902 L1169.612,83.902 L1169.612,86.496 L1167.93,86.496 L1167.93,89.798 L1165.028,89.798 L1165.028,86.496 L1158.958,86.496 L1158.958,83.564 z" fill="#000000"/>
    <path d="M1095.908,42.203 L1095.908,40.426 L1101.985,40.426 L1101.985,42.203 L1099.955,42.203 L1099.955,48.855 L1101.985,48.855 L1101.985,50.632 L1095.908,50.632 L1095.908,48.855 L1097.938,48.855 L1097.938,42.203 z" fill="#F42300"/>
    <path d="M1110.482,45.662 L1110.482,50.632 L1108.493,50.632 L1108.493,45.97 Q1108.493,45.136 1108.257,44.777 Q1108.021,44.418 1107.488,44.418 Q1106.948,44.418 1106.637,44.903 Q1106.326,45.389 1106.326,46.25 L1106.326,50.632 L1104.336,50.632 L1104.336,42.976 L1106.326,42.976 L1106.326,44.124 Q1106.538,43.488 1107.05,43.14 Q1107.563,42.791 1108.288,42.791 Q1109.375,42.791 1109.928,43.512 Q1110.482,44.234 1110.482,45.662 z" fill="#F42300"/>
    <path d="M1113.1,42.976 L1117.065,42.976 L1117.065,49.094 L1119.553,49.094 L1119.553,50.632 L1112.567,50.632 L1112.567,49.094 L1115.062,49.094 L1115.062,44.514 L1113.1,44.514 z M1115.062,39.25 L1117.065,39.25 L1117.065,41.588 L1115.062,41.588 z" fill="#F42300"/>
    <path d="M1124.735,40.802 L1124.735,42.976 L1127.353,42.976 L1127.353,44.514 L1124.735,44.514 L1124.735,48.137 Q1124.735,48.65 1124.984,48.872 Q1125.234,49.094 1125.815,49.094 L1127.353,49.094 L1127.353,50.632 L1125.671,50.632 Q1123.949,50.632 1123.34,50.082 Q1122.732,49.531 1122.732,48.041 L1122.732,44.514 L1120.777,44.514 L1120.777,42.976 L1122.732,42.976 L1122.732,40.802 z" fill="#F42300"/>
    <path d="M1129.958,42.976 L1133.922,42.976 L1133.922,49.094 L1136.411,49.094 L1136.411,50.632 L1129.424,50.632 L1129.424,49.094 L1131.919,49.094 L1131.919,44.514 L1129.958,44.514 z M1131.919,39.25 L1133.922,39.25 L1133.922,41.588 L1131.919,41.588 z" fill="#F42300"/>
    <path d="M1141.661,47.036 Q1140.54,47.036 1140.095,47.323 Q1139.651,47.611 1139.651,48.308 Q1139.651,48.827 1139.959,49.135 Q1140.266,49.443 1140.793,49.443 Q1141.585,49.443 1142.023,48.844 Q1142.46,48.246 1142.46,47.173 L1142.46,47.036 z M1144.45,46.264 L1144.45,50.632 L1142.46,50.632 L1142.46,49.778 Q1142.098,50.283 1141.531,50.557 Q1140.963,50.83 1140.28,50.83 Q1138.974,50.83 1138.246,50.14 Q1137.518,49.449 1137.518,48.212 Q1137.518,46.872 1138.386,46.233 Q1139.254,45.594 1141.073,45.594 L1142.46,45.594 L1142.46,45.259 Q1142.46,44.774 1142.108,44.524 Q1141.756,44.275 1141.073,44.275 Q1140.355,44.275 1139.682,44.456 Q1139.008,44.637 1138.277,45.033 L1138.277,43.324 Q1138.94,43.051 1139.624,42.921 Q1140.307,42.791 1141.073,42.791 Q1142.939,42.791 1143.694,43.55 Q1144.45,44.309 1144.45,46.264 z" fill="#F42300"/>
    <path d="M1147.95,47.44 L1147.95,41.533 L1145.919,41.533 L1145.919,39.995 L1149.953,39.995 L1149.953,47.44 Q1149.953,48.342 1150.233,48.718 Q1150.513,49.094 1151.183,49.094 L1152.783,49.094 L1152.783,50.632 L1150.623,50.632 Q1149.194,50.632 1148.572,49.894 Q1147.95,49.155 1147.95,47.44 z" fill="#F42300"/>
    <path d="M1155.244,42.976 L1159.209,42.976 L1159.209,49.094 L1161.697,49.094 L1161.697,50.632 L1154.71,50.632 L1154.71,49.094 L1157.206,49.094 L1157.206,44.514 L1155.244,44.514 z M1157.206,39.25 L1159.209,39.25 L1159.209,41.588 L1157.206,41.588 z" fill="#F42300"/>
    <path d="M1168.936,43.215 L1168.936,44.965 Q1168.382,44.61 1167.784,44.428 Q1167.186,44.247 1166.585,44.247 Q1165.915,44.247 1165.573,44.442 Q1165.231,44.637 1165.231,45.02 Q1165.231,45.567 1166.694,45.908 L1166.769,45.929 L1167.343,46.066 Q1168.437,46.325 1168.946,46.903 Q1169.456,47.481 1169.456,48.465 Q1169.456,49.648 1168.68,50.239 Q1167.904,50.83 1166.345,50.83 Q1165.655,50.83 1164.93,50.711 Q1164.206,50.591 1163.46,50.352 L1163.46,48.602 Q1164.124,48.978 1164.811,49.176 Q1165.498,49.374 1166.14,49.374 Q1166.844,49.374 1167.207,49.169 Q1167.569,48.964 1167.569,48.574 Q1167.569,48.192 1167.313,47.986 Q1167.056,47.781 1166.092,47.549 L1165.539,47.426 Q1164.39,47.166 1163.864,46.612 Q1163.337,46.059 1163.337,45.129 Q1163.337,44.022 1164.137,43.406 Q1164.937,42.791 1166.386,42.791 Q1167.036,42.791 1167.682,42.897 Q1168.328,43.003 1168.936,43.215 z" fill="#F42300"/>
    <path d="M1175.376,47.036 Q1174.254,47.036 1173.81,47.323 Q1173.366,47.611 1173.366,48.308 Q1173.366,48.827 1173.673,49.135 Q1173.981,49.443 1174.507,49.443 Q1175.3,49.443 1175.738,48.844 Q1176.175,48.246 1176.175,47.173 L1176.175,47.036 z M1178.165,46.264 L1178.165,50.632 L1176.175,50.632 L1176.175,49.778 Q1175.813,50.283 1175.246,50.557 Q1174.678,50.83 1173.995,50.83 Q1172.689,50.83 1171.961,50.14 Q1171.233,49.449 1171.233,48.212 Q1171.233,46.872 1172.101,46.233 Q1172.969,45.594 1174.788,45.594 L1176.175,45.594 L1176.175,45.259 Q1176.175,44.774 1175.823,44.524 Q1175.471,44.275 1174.788,44.275 Q1174.07,44.275 1173.397,44.456 Q1172.723,44.637 1171.992,45.033 L1171.992,43.324 Q1172.655,43.051 1173.338,42.921 Q1174.022,42.791 1174.788,42.791 Q1176.654,42.791 1177.409,43.55 Q1178.165,44.309 1178.165,46.264 z" fill="#F42300"/>
    <path d="M1183.736,40.802 L1183.736,42.976 L1186.354,42.976 L1186.354,44.514 L1183.736,44.514 L1183.736,48.137 Q1183.736,48.65 1183.985,48.872 Q1184.235,49.094 1184.816,49.094 L1186.354,49.094 L1186.354,50.632 L1184.672,50.632 Q1182.95,50.632 1182.341,50.082 Q1181.733,49.531 1181.733,48.041 L1181.733,44.514 L1179.778,44.514 L1179.778,42.976 L1181.733,42.976 L1181.733,40.802 z" fill="#F42300"/>
    <path d="M1188.959,42.976 L1192.923,42.976 L1192.923,49.094 L1195.412,49.094 L1195.412,50.632 L1188.425,50.632 L1188.425,49.094 L1190.92,49.094 L1190.92,44.514 L1188.959,44.514 z M1190.92,39.25 L1192.923,39.25 L1192.923,41.588 L1190.92,41.588 z" fill="#F42300"/>
    <path d="M1200.087,44.418 Q1199.37,44.418 1198.96,45.05 Q1198.549,45.683 1198.549,46.811 Q1198.549,47.939 1198.96,48.571 Q1199.37,49.203 1200.087,49.203 Q1200.812,49.203 1201.222,48.571 Q1201.632,47.939 1201.632,46.811 Q1201.632,45.683 1201.222,45.05 Q1200.812,44.418 1200.087,44.418 z M1196.546,46.811 Q1196.546,44.958 1197.507,43.875 Q1198.467,42.791 1200.087,42.791 Q1201.714,42.791 1202.675,43.875 Q1203.635,44.958 1203.635,46.811 Q1203.635,48.663 1202.675,49.747 Q1201.714,50.83 1200.087,50.83 Q1198.467,50.83 1197.507,49.747 Q1196.546,48.663 1196.546,46.811 z" fill="#F42300"/>
    <path d="M1211.626,45.662 L1211.626,50.632 L1209.637,50.632 L1209.637,45.97 Q1209.637,45.136 1209.401,44.777 Q1209.166,44.418 1208.632,44.418 Q1208.092,44.418 1207.781,44.903 Q1207.47,45.389 1207.47,46.25 L1207.47,50.632 L1205.481,50.632 L1205.481,42.976 L1207.47,42.976 L1207.47,44.124 Q1207.682,43.488 1208.195,43.14 Q1208.708,42.791 1209.432,42.791 Q1210.519,42.791 1211.073,43.512 Q1211.626,44.234 1211.626,45.662 z" fill="#F42300"/>
    <path d="M1063.42,84.343 L1074.259,84.343 L1074.259,86.773 L1063.42,86.773 z M1063.42,79.677 L1074.259,79.677 L1074.259,82.087 L1063.42,82.087 z" fill="#000000"/>
    <path d="M640.826,32.781 L748.267,32.781 C755.049,32.781 760.546,36.014 760.546,40.003 L760.546,89.058 C760.546,93.047 755.049,96.281 748.267,96.281 L640.826,96.281 C634.044,96.281 628.546,93.047 628.546,89.058 L628.546,40.003 C628.546,36.014 634.044,32.781 640.826,32.781 z" fill="#CEEEFC" fill-opacity="0.727"/>
    <path d="M673.817,89.214 Q673.059,89.654 672.187,89.875 Q671.315,90.095 670.311,90.095 Q667.655,90.095 666.158,88.496 Q664.661,86.896 664.661,84.066 Q664.661,81.226 666.168,79.621 Q667.675,78.016 670.331,78.016 Q671.254,78.016 672.11,78.232 Q672.966,78.447 673.817,78.898 L673.817,81.646 Q673.161,81.082 672.377,80.78 Q671.592,80.477 670.751,80.477 Q669.285,80.477 668.496,81.41 Q667.706,82.343 667.706,84.066 Q667.706,85.789 668.496,86.712 Q669.285,87.634 670.751,87.634 Q671.623,87.634 672.382,87.342 Q673.141,87.05 673.817,86.455 z" fill="#000000"/>
    <path d="M681.897,80.477 Q680.821,80.477 680.206,81.426 Q679.59,82.374 679.59,84.066 Q679.59,85.758 680.206,86.706 Q680.821,87.655 681.897,87.655 Q682.984,87.655 683.6,86.706 Q684.215,85.758 684.215,84.066 Q684.215,82.374 683.6,81.426 Q682.984,80.477 681.897,80.477 z M676.586,84.066 Q676.586,81.287 678.027,79.662 Q679.467,78.037 681.897,78.037 Q684.338,78.037 685.779,79.662 Q687.219,81.287 687.219,84.066 Q687.219,86.845 685.779,88.47 Q684.338,90.095 681.897,90.095 Q679.467,90.095 678.027,88.47 Q676.586,86.845 676.586,84.066 z" fill="#000000"/>
    <path d="M699.206,82.343 L699.206,89.798 L696.222,89.798 L696.222,82.805 Q696.222,81.554 695.868,81.016 Q695.515,80.477 694.715,80.477 Q693.905,80.477 693.438,81.205 Q692.972,81.933 692.972,83.225 L692.972,89.798 L689.988,89.798 L689.988,78.314 L692.972,78.314 L692.972,80.036 Q693.29,79.083 694.059,78.56 Q694.828,78.037 695.915,78.037 Q697.545,78.037 698.375,79.119 Q699.206,80.2 699.206,82.343 z" fill="#000000"/>
    <path d="M711.029,78.673 L711.029,81.298 Q710.198,80.764 709.301,80.493 Q708.404,80.221 707.501,80.221 Q706.497,80.221 705.984,80.513 Q705.471,80.805 705.471,81.38 Q705.471,82.2 707.666,82.713 L707.778,82.743 L708.64,82.948 Q710.28,83.338 711.044,84.204 Q711.808,85.071 711.808,86.548 Q711.808,88.321 710.644,89.208 Q709.48,90.095 707.143,90.095 Q706.107,90.095 705.02,89.916 Q703.933,89.736 702.815,89.378 L702.815,86.753 Q703.81,87.317 704.841,87.614 Q705.871,87.911 706.835,87.911 Q707.891,87.911 708.435,87.604 Q708.978,87.296 708.978,86.712 Q708.978,86.137 708.594,85.83 Q708.209,85.522 706.763,85.173 L705.933,84.989 Q704.21,84.599 703.42,83.769 Q702.631,82.938 702.631,81.544 Q702.631,79.882 703.831,78.96 Q705.03,78.037 707.204,78.037 Q708.178,78.037 709.147,78.196 Q710.116,78.355 711.029,78.673 z" fill="#000000"/>
    <path d="M720.585,75.053 L720.585,78.314 L724.513,78.314 L724.513,80.621 L720.585,80.621 L720.585,86.055 Q720.585,86.824 720.96,87.158 Q721.334,87.491 722.206,87.491 L724.513,87.491 L724.513,89.798 L721.99,89.798 Q719.406,89.798 718.494,88.973 Q717.581,88.147 717.581,85.912 L717.581,80.621 L714.648,80.621 L714.648,78.314 L717.581,78.314 L717.581,75.053 z" fill="#000000"/>
    <path d="M664.007,49.44 Q663.528,49.686 663.002,49.809 Q662.475,49.932 661.894,49.932 Q659.83,49.932 658.743,48.572 Q657.656,47.212 657.656,44.641 Q657.656,42.064 658.743,40.704 Q659.83,39.343 661.894,39.343 Q662.475,39.343 663.009,39.466 Q663.542,39.589 664.007,39.836 L664.007,42.078 Q663.487,41.599 662.998,41.377 Q662.51,41.155 661.99,41.155 Q660.883,41.155 660.319,42.033 Q659.755,42.912 659.755,44.641 Q659.755,46.364 660.319,47.242 Q660.883,48.121 661.99,48.121 Q662.51,48.121 662.998,47.899 Q663.487,47.676 664.007,47.198 z" fill="#F42300"/>
    <path d="M669.257,43.52 Q668.539,43.52 668.129,44.152 Q667.719,44.785 667.719,45.913 Q667.719,47.041 668.129,47.673 Q668.539,48.305 669.257,48.305 Q669.981,48.305 670.391,47.673 Q670.802,47.041 670.802,45.913 Q670.802,44.785 670.391,44.152 Q669.981,43.52 669.257,43.52 z M665.716,45.913 Q665.716,44.06 666.676,42.977 Q667.637,41.893 669.257,41.893 Q670.884,41.893 671.844,42.977 Q672.805,44.06 672.805,45.913 Q672.805,47.765 671.844,48.849 Q670.884,49.932 669.257,49.932 Q667.637,49.932 666.676,48.849 Q665.716,47.765 665.716,45.913 z" fill="#F42300"/>
    <path d="M680.796,44.764 L680.796,49.734 L678.806,49.734 L678.806,45.072 Q678.806,44.238 678.571,43.879 Q678.335,43.52 677.802,43.52 Q677.262,43.52 676.951,44.005 Q676.639,44.491 676.639,45.352 L676.639,49.734 L674.65,49.734 L674.65,42.078 L676.639,42.078 L676.639,43.226 Q676.851,42.59 677.364,42.242 Q677.877,41.893 678.601,41.893 Q679.688,41.893 680.242,42.614 Q680.796,43.336 680.796,44.764 z" fill="#F42300"/>
    <path d="M688.678,42.317 L688.678,44.067 Q688.124,43.712 687.526,43.53 Q686.928,43.349 686.326,43.349 Q685.656,43.349 685.314,43.544 Q684.972,43.739 684.972,44.122 Q684.972,44.669 686.435,45.01 L686.511,45.031 L687.085,45.168 Q688.179,45.427 688.688,46.005 Q689.197,46.583 689.197,47.567 Q689.197,48.75 688.421,49.341 Q687.645,49.932 686.087,49.932 Q685.396,49.932 684.672,49.813 Q683.947,49.693 683.202,49.454 L683.202,47.704 Q683.865,48.08 684.552,48.278 Q685.239,48.476 685.882,48.476 Q686.586,48.476 686.948,48.271 Q687.31,48.066 687.31,47.676 Q687.31,47.294 687.054,47.088 Q686.798,46.883 685.834,46.651 L685.28,46.528 Q684.132,46.268 683.605,45.714 Q683.079,45.161 683.079,44.231 Q683.079,43.124 683.879,42.508 Q684.679,41.893 686.128,41.893 Q686.777,41.893 687.423,41.999 Q688.069,42.105 688.678,42.317 z" fill="#F42300"/>
    <path d="M695.049,39.904 L695.049,42.078 L697.667,42.078 L697.667,43.616 L695.049,43.616 L695.049,47.239 Q695.049,47.752 695.298,47.974 Q695.548,48.196 696.129,48.196 L697.667,48.196 L697.667,49.734 L695.985,49.734 Q694.263,49.734 693.654,49.184 Q693.046,48.633 693.046,47.143 L693.046,43.616 L691.091,43.616 L691.091,42.078 L693.046,42.078 L693.046,39.904 z" fill="#F42300"/>
    <path d="M703.546,46.138 Q702.425,46.138 701.98,46.425 Q701.536,46.713 701.536,47.41 Q701.536,47.929 701.844,48.237 Q702.151,48.545 702.678,48.545 Q703.471,48.545 703.908,47.946 Q704.346,47.348 704.346,46.275 L704.346,46.138 z M706.335,45.366 L706.335,49.734 L704.346,49.734 L704.346,48.88 Q703.983,49.385 703.416,49.659 Q702.848,49.932 702.165,49.932 Q700.859,49.932 700.131,49.242 Q699.403,48.551 699.403,47.314 Q699.403,45.974 700.271,45.335 Q701.139,44.696 702.958,44.696 L704.346,44.696 L704.346,44.361 Q704.346,43.876 703.993,43.626 Q703.641,43.377 702.958,43.377 Q702.24,43.377 701.567,43.558 Q700.893,43.739 700.162,44.135 L700.162,42.426 Q700.825,42.153 701.509,42.023 Q702.192,41.893 702.958,41.893 Q704.824,41.893 705.579,42.652 Q706.335,43.411 706.335,45.366 z" fill="#F42300"/>
    <path d="M714.511,44.764 L714.511,49.734 L712.521,49.734 L712.521,45.072 Q712.521,44.238 712.285,43.879 Q712.05,43.52 711.516,43.52 Q710.976,43.52 710.665,44.005 Q710.354,44.491 710.354,45.352 L710.354,49.734 L708.365,49.734 L708.365,42.078 L710.354,42.078 L710.354,43.226 Q710.566,42.59 711.079,42.242 Q711.592,41.893 712.316,41.893 Q713.403,41.893 713.957,42.614 Q714.511,43.336 714.511,44.764 z" fill="#F42300"/>
    <path d="M720.335,39.904 L720.335,42.078 L722.953,42.078 L722.953,43.616 L720.335,43.616 L720.335,47.239 Q720.335,47.752 720.584,47.974 Q720.834,48.196 721.415,48.196 L722.953,48.196 L722.953,49.734 L721.271,49.734 Q719.549,49.734 718.94,49.184 Q718.332,48.633 718.332,47.143 L718.332,43.616 L716.377,43.616 L716.377,42.078 L718.332,42.078 L718.332,39.904 z" fill="#F42300"/>
    <path d="M731.58,49.358 Q730.883,49.645 730.158,49.789 Q729.433,49.932 728.627,49.932 Q726.706,49.932 725.691,48.903 Q724.676,47.875 724.676,45.94 Q724.676,44.067 725.653,42.98 Q726.631,41.893 728.319,41.893 Q730.021,41.893 730.961,42.901 Q731.901,43.91 731.901,45.742 L731.901,46.555 L726.713,46.555 Q726.72,47.458 727.246,47.902 Q727.772,48.346 728.818,48.346 Q729.509,48.346 730.179,48.148 Q730.848,47.95 731.58,47.519 z M729.885,45.051 Q729.871,44.258 729.478,43.852 Q729.085,43.445 728.319,43.445 Q727.629,43.445 727.219,43.865 Q726.808,44.286 726.733,45.058 z" fill="#F42300"/>
    <path d="M887.664,40.011 L889.831,40.011 L892.675,47.428 L892.675,40.011 L894.453,40.011 L894.453,50.217 L892.299,50.217 L889.442,42.8 L889.442,50.217 L887.664,50.217 z" fill="#F42300"/>
    <path d="M899.491,44.003 Q898.773,44.003 898.363,44.635 Q897.953,45.268 897.953,46.396 Q897.953,47.524 898.363,48.156 Q898.773,48.788 899.491,48.788 Q900.215,48.788 900.625,48.156 Q901.036,47.524 901.036,46.396 Q901.036,45.268 900.625,44.635 Q900.215,44.003 899.491,44.003 z M895.95,46.396 Q895.95,44.543 896.91,43.46 Q897.871,42.376 899.491,42.376 Q901.118,42.376 902.078,43.46 Q903.039,44.543 903.039,46.396 Q903.039,48.248 902.078,49.332 Q901.118,50.415 899.491,50.415 Q897.871,50.415 896.91,49.332 Q895.95,48.248 895.95,46.396 z" fill="#F42300"/>
    <path d="M908.425,43.326 Q908.651,42.841 908.999,42.609 Q909.348,42.376 909.854,42.376 Q910.845,42.376 911.225,43.06 Q911.604,43.743 911.604,45.904 L911.604,50.217 L909.963,50.217 L909.963,45.302 Q909.963,44.447 909.833,44.16 Q909.704,43.873 909.362,43.873 Q909.02,43.873 908.883,44.167 Q908.747,44.461 908.747,45.302 L908.747,50.217 L907.126,50.217 L907.126,45.302 Q907.126,44.461 906.99,44.167 Q906.853,43.873 906.511,43.873 Q906.169,43.873 906.039,44.16 Q905.91,44.447 905.91,45.302 L905.91,50.217 L904.269,50.217 L904.269,42.561 L905.725,42.561 L905.725,43.354 Q905.896,42.903 906.272,42.639 Q906.648,42.376 907.113,42.376 Q907.578,42.376 907.96,42.653 Q908.343,42.93 908.425,43.326 z" fill="#F42300"/>
    <path d="M925.973,43.648 L925.973,39.58 L927.969,39.58 L927.969,50.217 L925.973,50.217 L925.973,49.082 Q925.652,49.745 925.143,50.08 Q924.633,50.415 923.943,50.415 Q922.63,50.415 921.906,49.363 Q921.181,48.31 921.181,46.396 Q921.181,44.454 921.916,43.415 Q922.651,42.376 924.011,42.376 Q924.626,42.376 925.115,42.694 Q925.604,43.012 925.973,43.648 z M923.184,46.409 Q923.184,47.517 923.553,48.146 Q923.922,48.775 924.572,48.775 Q925.221,48.775 925.597,48.146 Q925.973,47.517 925.973,46.409 Q925.973,45.302 925.597,44.673 Q925.221,44.044 924.572,44.044 Q923.922,44.044 923.553,44.673 Q923.184,45.302 923.184,46.409 z" fill="#F42300"/>
    <path d="M936.528,49.841 Q935.831,50.128 935.106,50.272 Q934.381,50.415 933.575,50.415 Q931.654,50.415 930.639,49.386 Q929.623,48.358 929.623,46.423 Q929.623,44.55 930.601,43.463 Q931.579,42.376 933.267,42.376 Q934.969,42.376 935.909,43.384 Q936.849,44.393 936.849,46.225 L936.849,47.038 L931.661,47.038 Q931.667,47.941 932.194,48.385 Q932.72,48.829 933.766,48.829 Q934.456,48.829 935.126,48.631 Q935.796,48.433 936.528,48.002 z M934.832,45.534 Q934.819,44.741 934.426,44.335 Q934.033,43.928 933.267,43.928 Q932.577,43.928 932.166,44.348 Q931.756,44.769 931.681,45.541 z" fill="#F42300"/>
    <path d="M948.497,47.025 L948.497,41.118 L946.467,41.118 L946.467,39.58 L950.5,39.58 L950.5,47.025 Q950.5,47.927 950.781,48.303 Q951.061,48.679 951.731,48.679 L953.331,48.679 L953.331,50.217 L951.17,50.217 Q949.742,50.217 949.12,49.479 Q948.497,48.74 948.497,47.025 z" fill="#F42300"/>
    <path d="M959.066,46.621 Q957.945,46.621 957.5,46.908 Q957.056,47.196 957.056,47.893 Q957.056,48.412 957.364,48.72 Q957.671,49.028 958.198,49.028 Q958.991,49.028 959.428,48.429 Q959.866,47.831 959.866,46.758 L959.866,46.621 z M961.855,45.849 L961.855,50.217 L959.866,50.217 L959.866,49.363 Q959.503,49.868 958.936,50.142 Q958.369,50.415 957.685,50.415 Q956.379,50.415 955.651,49.725 Q954.923,49.034 954.923,47.797 Q954.923,46.457 955.791,45.818 Q956.66,45.179 958.478,45.179 L959.866,45.179 L959.866,44.844 Q959.866,44.359 959.514,44.109 Q959.162,43.86 958.478,43.86 Q957.76,43.86 957.087,44.041 Q956.414,44.222 955.682,44.618 L955.682,42.909 Q956.345,42.636 957.029,42.506 Q957.712,42.376 958.478,42.376 Q960.344,42.376 961.1,43.135 Q961.855,43.894 961.855,45.849 z" fill="#F42300"/>
    <path d="M978.391,49.827 Q977.885,50.121 977.304,50.268 Q976.723,50.415 976.053,50.415 Q974.283,50.415 973.285,49.349 Q972.287,48.282 972.287,46.396 Q972.287,44.502 973.291,43.432 Q974.296,42.363 976.067,42.363 Q976.682,42.363 977.253,42.506 Q977.824,42.65 978.391,42.95 L978.391,44.782 Q977.954,44.406 977.431,44.205 Q976.908,44.003 976.347,44.003 Q975.37,44.003 974.843,44.625 Q974.317,45.247 974.317,46.396 Q974.317,47.544 974.843,48.159 Q975.37,48.775 976.347,48.775 Q976.928,48.775 977.434,48.58 Q977.94,48.385 978.391,47.988 z" fill="#F42300"/>
    <path d="M983.778,44.003 Q983.06,44.003 982.65,44.635 Q982.24,45.268 982.24,46.396 Q982.24,47.524 982.65,48.156 Q983.06,48.788 983.778,48.788 Q984.502,48.788 984.913,48.156 Q985.323,47.524 985.323,46.396 Q985.323,45.268 984.913,44.635 Q984.502,44.003 983.778,44.003 z M980.237,46.396 Q980.237,44.543 981.197,43.46 Q982.158,42.376 983.778,42.376 Q985.405,42.376 986.365,43.46 Q987.326,44.543 987.326,46.396 Q987.326,48.248 986.365,49.332 Q985.405,50.415 983.778,50.415 Q982.158,50.415 981.197,49.332 Q980.237,48.248 980.237,46.396 z" fill="#F42300"/>
    <path d="M995.317,45.247 L995.317,50.217 L993.328,50.217 L993.328,45.555 Q993.328,44.721 993.092,44.362 Q992.856,44.003 992.323,44.003 Q991.783,44.003 991.472,44.488 Q991.161,44.974 991.161,45.835 L991.161,50.217 L989.171,50.217 L989.171,42.561 L991.161,42.561 L991.161,43.709 Q991.372,43.073 991.885,42.725 Q992.398,42.376 993.122,42.376 Q994.209,42.376 994.763,43.097 Q995.317,43.819 995.317,45.247 z" fill="#F42300"/>
    <path d="M1003.199,42.8 L1003.199,44.55 Q1002.645,44.195 1002.047,44.013 Q1001.449,43.832 1000.847,43.832 Q1000.177,43.832 999.835,44.027 Q999.494,44.222 999.494,44.605 Q999.494,45.152 1000.956,45.493 L1001.032,45.514 L1001.606,45.651 Q1002.7,45.91 1003.209,46.488 Q1003.718,47.066 1003.718,48.05 Q1003.718,49.233 1002.942,49.824 Q1002.166,50.415 1000.608,50.415 Q999.917,50.415 999.193,50.296 Q998.468,50.176 997.723,49.937 L997.723,48.187 Q998.386,48.563 999.073,48.761 Q999.76,48.959 1000.403,48.959 Q1001.107,48.959 1001.469,48.754 Q1001.831,48.549 1001.831,48.159 Q1001.831,47.777 1001.575,47.571 Q1001.319,47.366 1000.355,47.134 L999.801,47.011 Q998.653,46.751 998.126,46.197 Q997.6,45.644 997.6,44.714 Q997.6,43.607 998.4,42.991 Q999.2,42.376 1000.649,42.376 Q1001.298,42.376 1001.944,42.482 Q1002.59,42.588 1003.199,42.8 z" fill="#F42300"/>
    <path d="M1009.57,40.387 L1009.57,42.561 L1012.188,42.561 L1012.188,44.099 L1009.57,44.099 L1009.57,47.722 Q1009.57,48.235 1009.819,48.457 Q1010.069,48.679 1010.65,48.679 L1012.188,48.679 L1012.188,50.217 L1010.506,50.217 Q1008.784,50.217 1008.175,49.667 Q1007.567,49.116 1007.567,47.626 L1007.567,44.099 L1005.612,44.099 L1005.612,42.561 L1007.567,42.561 L1007.567,40.387 z" fill="#F42300"/>
    <path d="M1018.067,46.621 Q1016.946,46.621 1016.501,46.908 Q1016.057,47.196 1016.057,47.893 Q1016.057,48.412 1016.365,48.72 Q1016.672,49.028 1017.199,49.028 Q1017.992,49.028 1018.429,48.429 Q1018.867,47.831 1018.867,46.758 L1018.867,46.621 z M1020.856,45.849 L1020.856,50.217 L1018.867,50.217 L1018.867,49.363 Q1018.504,49.868 1017.937,50.142 Q1017.37,50.415 1016.686,50.415 Q1015.38,50.415 1014.652,49.725 Q1013.924,49.034 1013.924,47.797 Q1013.924,46.457 1014.792,45.818 Q1015.661,45.179 1017.479,45.179 L1018.867,45.179 L1018.867,44.844 Q1018.867,44.359 1018.515,44.109 Q1018.163,43.86 1017.479,43.86 Q1016.761,43.86 1016.088,44.041 Q1015.414,44.222 1014.683,44.618 L1014.683,42.909 Q1015.346,42.636 1016.03,42.506 Q1016.713,42.376 1017.479,42.376 Q1019.345,42.376 1020.101,43.135 Q1020.856,43.894 1020.856,45.849 z" fill="#F42300"/>
    <path d="M1029.032,45.247 L1029.032,50.217 L1027.042,50.217 L1027.042,45.555 Q1027.042,44.721 1026.807,44.362 Q1026.571,44.003 1026.038,44.003 Q1025.498,44.003 1025.187,44.488 Q1024.875,44.974 1024.875,45.835 L1024.875,50.217 L1022.886,50.217 L1022.886,42.561 L1024.875,42.561 L1024.875,43.709 Q1025.087,43.073 1025.6,42.725 Q1026.113,42.376 1026.837,42.376 Q1027.924,42.376 1028.478,43.097 Q1029.032,43.819 1029.032,45.247 z" fill="#F42300"/>
    <path d="M1034.856,40.387 L1034.856,42.561 L1037.474,42.561 L1037.474,44.099 L1034.856,44.099 L1034.856,47.722 Q1034.856,48.235 1035.105,48.457 Q1035.355,48.679 1035.936,48.679 L1037.474,48.679 L1037.474,50.217 L1035.792,50.217 Q1034.07,50.217 1033.461,49.667 Q1032.853,49.116 1032.853,47.626 L1032.853,44.099 L1030.898,44.099 L1030.898,42.561 L1032.853,42.561 L1032.853,40.387 z" fill="#F42300"/>
    <path d="M1046.101,49.841 Q1045.404,50.128 1044.679,50.272 Q1043.955,50.415 1043.148,50.415 Q1041.227,50.415 1040.212,49.386 Q1039.197,48.358 1039.197,46.423 Q1039.197,44.55 1040.174,43.463 Q1041.152,42.376 1042.84,42.376 Q1044.542,42.376 1045.482,43.384 Q1046.422,44.393 1046.422,46.225 L1046.422,47.038 L1041.234,47.038 Q1041.241,47.941 1041.767,48.385 Q1042.293,48.829 1043.339,48.829 Q1044.03,48.829 1044.7,48.631 Q1045.37,48.433 1046.101,48.002 z M1044.406,45.534 Q1044.392,44.741 1043.999,44.335 Q1043.606,43.928 1042.84,43.928 Q1042.15,43.928 1041.74,44.348 Q1041.33,44.769 1041.254,45.541 z" fill="#F42300"/>
    <path d="M806.026,77.888 L811.973,77.888 L811.973,87.065 L815.706,87.065 L815.706,89.372 L805.226,89.372 L805.226,87.065 L808.969,87.065 L808.969,80.195 L806.026,80.195 z M808.969,72.299 L811.973,72.299 L811.973,75.806 L808.969,75.806 z" fill="#000000"/>
    <path d="M827.385,81.917 L827.385,89.372 L824.401,89.372 L824.401,82.379 Q824.401,81.128 824.047,80.59 Q823.694,80.051 822.894,80.051 Q822.084,80.051 821.617,80.779 Q821.151,81.507 821.151,82.799 L821.151,89.372 L818.167,89.372 L818.167,77.888 L821.151,77.888 L821.151,79.61 Q821.469,78.657 822.238,78.134 Q823.007,77.611 824.094,77.611 Q825.724,77.611 826.554,78.693 Q827.385,79.774 827.385,81.917 z" fill="#000000"/>
    <path d="M836.121,74.627 L836.121,77.888 L840.049,77.888 L840.049,80.195 L836.121,80.195 L836.121,85.629 Q836.121,86.398 836.496,86.732 Q836.87,87.065 837.741,87.065 L840.049,87.065 L840.049,89.372 L837.526,89.372 Q834.942,89.372 834.03,88.547 Q833.117,87.721 833.117,85.486 L833.117,80.195 L830.184,80.195 L830.184,77.888 L833.117,77.888 L833.117,74.627 z" fill="#000000"/>
    <path d="M895.855,77.336 Q896.194,76.608 896.716,76.259 Q897.239,75.911 897.998,75.911 Q899.485,75.911 900.054,76.936 Q900.623,77.962 900.623,81.202 L900.623,87.672 L898.162,87.672 L898.162,80.299 Q898.162,79.018 897.967,78.587 Q897.773,78.156 897.26,78.156 Q896.747,78.156 896.542,78.597 Q896.337,79.038 896.337,80.299 L896.337,87.672 L893.907,87.672 L893.907,80.299 Q893.907,79.038 893.702,78.597 Q893.497,78.156 892.984,78.156 Q892.471,78.156 892.277,78.587 Q892.082,79.018 892.082,80.299 L892.082,87.672 L889.621,87.672 L889.621,76.188 L891.805,76.188 L891.805,77.377 Q892.061,76.7 892.625,76.306 Q893.189,75.911 893.886,75.911 Q894.584,75.911 895.158,76.326 Q895.732,76.741 895.855,77.336 z" fill="#000000"/>
    <path d="M908.601,82.278 Q906.919,82.278 906.253,82.709 Q905.586,83.14 905.586,84.186 Q905.586,84.965 906.048,85.426 Q906.509,85.888 907.299,85.888 Q908.488,85.888 909.144,84.991 Q909.8,84.093 909.8,82.484 L909.8,82.278 z M912.784,81.12 L912.784,87.672 L909.8,87.672 L909.8,86.39 Q909.257,87.149 908.406,87.559 Q907.555,87.969 906.529,87.969 Q904.571,87.969 903.479,86.934 Q902.387,85.898 902.387,84.042 Q902.387,82.032 903.689,81.074 Q904.991,80.115 907.719,80.115 L909.8,80.115 L909.8,79.612 Q909.8,78.884 909.272,78.51 Q908.744,78.136 907.719,78.136 Q906.642,78.136 905.632,78.408 Q904.622,78.679 903.525,79.274 L903.525,76.711 Q904.52,76.3 905.545,76.106 Q906.57,75.911 907.719,75.911 Q910.518,75.911 911.651,77.049 Q912.784,78.187 912.784,81.12 z" fill="#000000"/>
    <path d="M926.709,89.62 L926.709,91.671 L914.066,91.671 L914.066,89.62 z" fill="#000000"/>
    <path d="M937.589,87.088 Q936.83,87.528 935.958,87.749 Q935.087,87.969 934.082,87.969 Q931.426,87.969 929.929,86.37 Q928.432,84.77 928.432,81.94 Q928.432,79.1 929.939,77.495 Q931.446,75.89 934.102,75.89 Q935.025,75.89 935.881,76.106 Q936.737,76.321 937.589,76.772 L937.589,79.52 Q936.932,78.956 936.148,78.654 Q935.363,78.351 934.523,78.351 Q933.056,78.351 932.267,79.284 Q931.477,80.217 931.477,81.94 Q931.477,83.663 932.267,84.586 Q933.056,85.508 934.523,85.508 Q935.394,85.508 936.153,85.216 Q936.912,84.924 937.589,84.329 z" fill="#000000"/>
    <path d="M945.669,78.351 Q944.592,78.351 943.977,79.3 Q943.362,80.248 943.362,81.94 Q943.362,83.632 943.977,84.58 Q944.592,85.529 945.669,85.529 Q946.756,85.529 947.371,84.58 Q947.986,83.632 947.986,81.94 Q947.986,80.248 947.371,79.3 Q946.756,78.351 945.669,78.351 z M940.357,81.94 Q940.357,79.161 941.798,77.536 Q943.238,75.911 945.669,75.911 Q948.109,75.911 949.55,77.536 Q950.99,79.161 950.99,81.94 Q950.99,84.719 949.55,86.344 Q948.109,87.969 945.669,87.969 Q943.238,87.969 941.798,86.344 Q940.357,84.719 940.357,81.94 z" fill="#000000"/>
    <path d="M962.977,80.217 L962.977,87.672 L959.993,87.672 L959.993,80.679 Q959.993,79.428 959.64,78.89 Q959.286,78.351 958.486,78.351 Q957.676,78.351 957.209,79.079 Q956.743,79.807 956.743,81.099 L956.743,87.672 L953.759,87.672 L953.759,76.188 L956.743,76.188 L956.743,77.91 Q957.061,76.957 957.83,76.434 Q958.599,75.911 959.686,75.911 Q961.316,75.911 962.147,76.993 Q962.977,78.074 962.977,80.217 z" fill="#000000"/>
    <path d="M974.8,76.547 L974.8,79.172 Q973.969,78.638 973.072,78.367 Q972.175,78.095 971.273,78.095 Q970.268,78.095 969.755,78.387 Q969.242,78.679 969.242,79.254 Q969.242,80.074 971.437,80.587 L971.549,80.617 L972.411,80.822 Q974.051,81.212 974.815,82.078 Q975.579,82.945 975.579,84.422 Q975.579,86.195 974.415,87.082 Q973.252,87.969 970.914,87.969 Q969.878,87.969 968.791,87.79 Q967.704,87.61 966.587,87.252 L966.587,84.627 Q967.581,85.191 968.612,85.488 Q969.642,85.785 970.606,85.785 Q971.662,85.785 972.206,85.478 Q972.749,85.17 972.749,84.586 Q972.749,84.011 972.365,83.704 Q971.98,83.396 970.534,83.047 L969.704,82.863 Q967.981,82.473 967.192,81.643 Q966.402,80.812 966.402,79.418 Q966.402,77.756 967.602,76.834 Q968.801,75.911 970.975,75.911 Q971.949,75.911 972.918,76.07 Q973.887,76.229 974.8,76.547 z" fill="#000000"/>
    <path d="M984.357,72.927 L984.357,76.188 L988.284,76.188 L988.284,78.495 L984.357,78.495 L984.357,83.929 Q984.357,84.698 984.731,85.032 Q985.105,85.365 985.977,85.365 L988.284,85.365 L988.284,87.672 L985.761,87.672 Q983.177,87.672 982.265,86.847 Q981.352,86.021 981.352,83.786 L981.352,78.495 L978.42,78.495 L978.42,76.188 L981.352,76.188 L981.352,72.927 z" fill="#000000"/>
    <path d="M997.102,82.278 Q995.421,82.278 994.754,82.709 Q994.088,83.14 994.088,84.186 Q994.088,84.965 994.549,85.426 Q995.01,85.888 995.8,85.888 Q996.989,85.888 997.646,84.991 Q998.302,84.093 998.302,82.484 L998.302,82.278 z M1001.286,81.12 L1001.286,87.672 L998.302,87.672 L998.302,86.39 Q997.758,87.149 996.907,87.559 Q996.056,87.969 995.031,87.969 Q993.072,87.969 991.98,86.934 Q990.888,85.898 990.888,84.042 Q990.888,82.032 992.191,81.074 Q993.493,80.115 996.22,80.115 L998.302,80.115 L998.302,79.612 Q998.302,78.884 997.774,78.51 Q997.246,78.136 996.22,78.136 Q995.144,78.136 994.134,78.408 Q993.124,78.679 992.027,79.274 L992.027,76.711 Q993.021,76.3 994.047,76.106 Q995.072,75.911 996.22,75.911 Q999.02,75.911 1000.153,77.049 Q1001.286,78.187 1001.286,81.12 z" fill="#000000"/>
    <path d="M1013.549,80.217 L1013.549,87.672 L1010.566,87.672 L1010.566,80.679 Q1010.566,79.428 1010.212,78.89 Q1009.858,78.351 1009.058,78.351 Q1008.248,78.351 1007.782,79.079 Q1007.315,79.807 1007.315,81.099 L1007.315,87.672 L1004.331,87.672 L1004.331,76.188 L1007.315,76.188 L1007.315,77.91 Q1007.633,76.957 1008.402,76.434 Q1009.171,75.911 1010.258,75.911 Q1011.888,75.911 1012.719,76.993 Q1013.549,78.074 1013.549,80.217 z" fill="#000000"/>
    <path d="M1022.286,72.927 L1022.286,76.188 L1026.213,76.188 L1026.213,78.495 L1022.286,78.495 L1022.286,83.929 Q1022.286,84.698 1022.66,85.032 Q1023.034,85.365 1023.906,85.365 L1026.213,85.365 L1026.213,87.672 L1023.691,87.672 Q1021.107,87.672 1020.194,86.847 Q1019.281,86.021 1019.281,83.786 L1019.281,78.495 L1016.349,78.495 L1016.349,76.188 L1019.281,76.188 L1019.281,72.927 z" fill="#000000"/>
    <path d="M1039.154,87.108 Q1038.108,87.539 1037.021,87.754 Q1035.934,87.969 1034.724,87.969 Q1031.843,87.969 1030.32,86.426 Q1028.797,84.883 1028.797,81.981 Q1028.797,79.172 1030.263,77.541 Q1031.73,75.911 1034.262,75.911 Q1036.816,75.911 1038.226,77.423 Q1039.635,78.936 1039.635,81.684 L1039.635,82.904 L1031.853,82.904 Q1031.863,84.257 1032.653,84.924 Q1033.442,85.59 1035.011,85.59 Q1036.047,85.59 1037.052,85.293 Q1038.056,84.996 1039.154,84.35 z M1036.611,80.648 Q1036.59,79.459 1036,78.849 Q1035.411,78.238 1034.262,78.238 Q1033.227,78.238 1032.612,78.869 Q1031.996,79.5 1031.884,80.658 z" fill="#000000"/>
    <path d="M907.92,176.033 Q905.925,181.01 903.93,181.031 Q901.515,181.052 900.402,178.532 Q899.541,176.6 899.52,173.471 Q899.499,169.943 900.444,167.045 Q901.536,163.664 903.405,163.454 Q903.678,163.433 903.93,163.433 Q905.673,163.433 906.618,164.987 Q907.311,166.163 907.794,168.725 Q908.151,169.754 908.151,169.985 Q908.151,170.678 907.29,171.056 Q907.101,171.14 906.849,171.14 Q906.24,171.14 905.505,170.741 Q904.644,170.279 904.644,169.733 Q904.644,169.649 904.938,168.914 Q904.896,167.99 904.602,167.161 Q904.308,166.331 903.93,166.247 Q903.342,166.1 902.901,168.578 Q902.523,170.636 902.439,173.114 Q902.376,174.983 902.649,176.579 Q902.964,178.406 903.594,178.532 Q903.972,178.595 904.497,177.587 Q905.001,176.663 905.337,175.403 Q905.295,175.193 905.295,175.004 Q905.295,173.765 906.807,173.765 Q907.143,173.765 907.479,173.828 Q908.508,174.038 908.508,174.857 Q908.508,175.529 907.92,176.033 z" fill="#000000"/>
    <path d="M918.693,164.966 Q918.693,165.218 918.273,165.596 Q917.769,166.016 917.643,166.268 L911.175,178.532 Q911.049,178.742 910.692,179.918 Q910.44,180.674 910.125,180.737 Q909.621,180.842 908.844,180.401 Q907.983,179.897 907.983,179.204 Q908.004,178.868 908.277,178.532 Q908.676,178.049 908.739,177.944 L915.669,164.966 Q915.753,164.819 915.9,164.126 Q916.026,163.622 916.341,163.454 Q916.551,163.349 916.824,163.349 Q917.475,163.349 918.084,163.811 Q918.714,164.336 918.693,164.966 z" fill="#000000"/>
    <path d="M926.925,176.033 Q924.93,181.01 922.935,181.031 Q920.52,181.052 919.407,178.532 Q918.546,176.6 918.525,173.471 Q918.504,169.943 919.449,167.045 Q920.541,163.664 922.41,163.454 Q922.683,163.433 922.935,163.433 Q924.678,163.433 925.623,164.987 Q926.316,166.163 926.799,168.725 Q927.156,169.754 927.156,169.985 Q927.156,170.678 926.295,171.056 Q926.106,171.14 925.854,171.14 Q925.245,171.14 924.51,170.741 Q923.649,170.279 923.649,169.733 Q923.649,169.649 923.943,168.914 Q923.901,167.99 923.607,167.161 Q923.313,166.331 922.935,166.247 Q922.347,166.1 921.906,168.578 Q921.528,170.636 921.444,173.114 Q921.381,174.983 921.654,176.579 Q921.969,178.406 922.599,178.532 Q922.977,178.595 923.502,177.587 Q924.006,176.663 924.342,175.403 Q924.3,175.193 924.3,175.004 Q924.3,173.765 925.812,173.765 Q926.148,173.765 926.484,173.828 Q927.513,174.038 927.513,174.857 Q927.513,175.529 926.925,176.033 z" fill="#000000"/>
    <path d="M935.934,172.001 Q935.598,171.98 934.863,172.022 L933.351,172.274 L933.519,173.618 Q933.54,173.807 933.656,174.154 Q933.771,174.5 933.771,174.668 Q933.771,175.13 933.246,175.382 Q932.826,175.592 932.301,175.592 Q931.587,175.592 931.304,175.267 Q931.02,174.941 930.915,174.196 Q930.81,173.45 930.705,172.652 L929.823,173.03 Q929.445,173.198 929.067,173.156 Q928.605,173.114 928.29,172.631 Q927.975,172.148 927.975,171.581 Q927.975,171.224 928.164,170.857 Q928.353,170.489 928.689,170.489 Q928.773,170.489 929.025,170.573 Q929.277,170.657 929.445,170.636 L930.495,170.468 L930.285,168.746 Q930.264,168.62 930.18,168.389 Q930.096,168.158 930.096,168.032 Q930.096,167.654 930.873,167.423 Q931.44,167.255 931.944,167.255 Q933.183,167.255 933.183,167.822 Q933.183,167.927 933.068,168.19 Q932.952,168.452 932.973,168.62 L933.099,170.132 L934.023,169.964 Q934.212,169.922 934.632,169.796 Q934.989,169.67 935.199,169.67 Q935.703,169.67 936.113,170.153 Q936.522,170.636 936.522,171.161 Q936.522,171.833 935.934,172.001 z" fill="#000000"/>
    <path d="M945.174,172.001 Q944.838,171.98 944.103,172.022 L942.591,172.274 L942.759,173.618 Q942.78,173.807 942.895,174.154 Q943.011,174.5 943.011,174.668 Q943.011,175.13 942.486,175.382 Q942.066,175.592 941.541,175.592 Q940.827,175.592 940.543,175.267 Q940.26,174.941 940.155,174.196 Q940.05,173.45 939.945,172.652 L939.063,173.03 Q938.685,173.198 938.307,173.156 Q937.845,173.114 937.53,172.631 Q937.215,172.148 937.215,171.581 Q937.215,171.224 937.404,170.857 Q937.593,170.489 937.929,170.489 Q938.013,170.489 938.265,170.573 Q938.517,170.657 938.685,170.636 L939.735,170.468 L939.525,168.746 Q939.504,168.62 939.42,168.389 Q939.336,168.158 939.336,168.032 Q939.336,167.654 940.113,167.423 Q940.68,167.255 941.184,167.255 Q942.423,167.255 942.423,167.822 Q942.423,167.927 942.307,168.19 Q942.192,168.452 942.213,168.62 L942.339,170.132 L943.263,169.964 Q943.452,169.922 943.872,169.796 Q944.229,169.67 944.439,169.67 Q944.943,169.67 945.352,170.153 Q945.762,170.636 945.762,171.161 Q945.762,171.833 945.174,172.001 z" fill="#000000"/>
    <path d="M274.958,32.783 L412.515,32.774 C421.198,32.773 428.236,36.08 428.236,40.16 L428.24,90.339 C428.24,94.42 421.203,97.728 412.52,97.729 L274.963,97.739 C266.28,97.739 259.24,94.432 259.24,90.351 L259.237,40.172 C259.236,36.092 266.275,32.784 274.958,32.783 z" fill="#CEEEFC" fill-opacity="0.727"/>
    <path d="M263.934,40.011 L266.101,40.011 L268.945,47.428 L268.945,40.011 L270.723,40.011 L270.723,50.217 L268.569,50.217 L265.712,42.8 L265.712,50.217 L263.934,50.217 z" fill="#F42300"/>
    <path d="M275.761,44.003 Q275.043,44.003 274.633,44.635 Q274.223,45.268 274.223,46.396 Q274.223,47.524 274.633,48.156 Q275.043,48.788 275.761,48.788 Q276.485,48.788 276.895,48.156 Q277.306,47.524 277.306,46.396 Q277.306,45.268 276.895,44.635 Q276.485,44.003 275.761,44.003 z M272.22,46.396 Q272.22,44.543 273.18,43.46 Q274.141,42.376 275.761,42.376 Q277.388,42.376 278.348,43.46 Q279.309,44.543 279.309,46.396 Q279.309,48.248 278.348,49.332 Q277.388,50.415 275.761,50.415 Q274.141,50.415 273.18,49.332 Q272.22,48.248 272.22,46.396 z" fill="#F42300"/>
    <path d="M284.695,43.326 Q284.921,42.841 285.269,42.609 Q285.618,42.376 286.124,42.376 Q287.115,42.376 287.495,43.06 Q287.874,43.743 287.874,45.904 L287.874,50.217 L286.233,50.217 L286.233,45.302 Q286.233,44.447 286.103,44.16 Q285.974,43.873 285.632,43.873 Q285.29,43.873 285.153,44.167 Q285.017,44.461 285.017,45.302 L285.017,50.217 L283.396,50.217 L283.396,45.302 Q283.396,44.461 283.26,44.167 Q283.123,43.873 282.781,43.873 Q282.439,43.873 282.309,44.16 Q282.18,44.447 282.18,45.302 L282.18,50.217 L280.539,50.217 L280.539,42.561 L281.995,42.561 L281.995,43.354 Q282.166,42.903 282.542,42.639 Q282.918,42.376 283.383,42.376 Q283.848,42.376 284.23,42.653 Q284.613,42.93 284.695,43.326 z" fill="#F42300"/>
    <path d="M302.243,43.648 L302.243,39.58 L304.239,39.58 L304.239,50.217 L302.243,50.217 L302.243,49.082 Q301.922,49.745 301.413,50.08 Q300.903,50.415 300.213,50.415 Q298.9,50.415 298.176,49.363 Q297.451,48.31 297.451,46.396 Q297.451,44.454 298.186,43.415 Q298.921,42.376 300.281,42.376 Q300.896,42.376 301.385,42.694 Q301.874,43.012 302.243,43.648 z M299.454,46.409 Q299.454,47.517 299.823,48.146 Q300.192,48.775 300.842,48.775 Q301.491,48.775 301.867,48.146 Q302.243,47.517 302.243,46.409 Q302.243,45.302 301.867,44.673 Q301.491,44.044 300.842,44.044 Q300.192,44.044 299.823,44.673 Q299.454,45.302 299.454,46.409 z" fill="#F42300"/>
    <path d="M312.798,49.841 Q312.1,50.128 311.376,50.272 Q310.651,50.415 309.845,50.415 Q307.924,50.415 306.909,49.386 Q305.893,48.358 305.893,46.423 Q305.893,44.55 306.871,43.463 Q307.849,42.376 309.537,42.376 Q311.239,42.376 312.179,43.384 Q313.119,44.393 313.119,46.225 L313.119,47.038 L307.931,47.038 Q307.937,47.941 308.464,48.385 Q308.99,48.829 310.036,48.829 Q310.726,48.829 311.396,48.631 Q312.066,48.433 312.798,48.002 z M311.102,45.534 Q311.089,44.741 310.696,44.335 Q310.303,43.928 309.537,43.928 Q308.847,43.928 308.436,44.348 Q308.026,44.769 307.951,45.541 z" fill="#F42300"/>
    <path d="M324.767,47.025 L324.767,41.118 L322.737,41.118 L322.737,39.58 L326.77,39.58 L326.77,47.025 Q326.77,47.927 327.051,48.303 Q327.331,48.679 328.001,48.679 L329.6,48.679 L329.6,50.217 L327.44,50.217 Q326.012,50.217 325.39,49.479 Q324.767,48.74 324.767,47.025 z" fill="#F42300"/>
    <path d="M335.336,46.621 Q334.215,46.621 333.77,46.908 Q333.326,47.196 333.326,47.893 Q333.326,48.412 333.634,48.72 Q333.941,49.028 334.468,49.028 Q335.261,49.028 335.698,48.429 Q336.136,47.831 336.136,46.758 L336.136,46.621 z M338.125,45.849 L338.125,50.217 L336.136,50.217 L336.136,49.363 Q335.773,49.868 335.206,50.142 Q334.639,50.415 333.955,50.415 Q332.649,50.415 331.921,49.725 Q331.193,49.034 331.193,47.797 Q331.193,46.457 332.061,45.818 Q332.93,45.179 334.748,45.179 L336.136,45.179 L336.136,44.844 Q336.136,44.359 335.784,44.109 Q335.432,43.86 334.748,43.86 Q334.03,43.86 333.357,44.041 Q332.684,44.222 331.952,44.618 L331.952,42.909 Q332.615,42.636 333.299,42.506 Q333.982,42.376 334.748,42.376 Q336.614,42.376 337.37,43.135 Q338.125,43.894 338.125,45.849 z" fill="#F42300"/>
    <path d="M354.661,49.827 Q354.155,50.121 353.574,50.268 Q352.993,50.415 352.323,50.415 Q350.553,50.415 349.555,49.349 Q348.557,48.282 348.557,46.396 Q348.557,44.502 349.561,43.432 Q350.566,42.363 352.337,42.363 Q352.952,42.363 353.523,42.506 Q354.094,42.65 354.661,42.95 L354.661,44.782 Q354.224,44.406 353.701,44.205 Q353.178,44.003 352.617,44.003 Q351.64,44.003 351.113,44.625 Q350.587,45.247 350.587,46.396 Q350.587,47.544 351.113,48.159 Q351.64,48.775 352.617,48.775 Q353.198,48.775 353.704,48.58 Q354.21,48.385 354.661,47.988 z" fill="#F42300"/>
    <path d="M360.048,44.003 Q359.33,44.003 358.92,44.635 Q358.51,45.268 358.51,46.396 Q358.51,47.524 358.92,48.156 Q359.33,48.788 360.048,48.788 Q360.772,48.788 361.183,48.156 Q361.593,47.524 361.593,46.396 Q361.593,45.268 361.183,44.635 Q360.772,44.003 360.048,44.003 z M356.507,46.396 Q356.507,44.543 357.467,43.46 Q358.428,42.376 360.048,42.376 Q361.675,42.376 362.635,43.46 Q363.596,44.543 363.596,46.396 Q363.596,48.248 362.635,49.332 Q361.675,50.415 360.048,50.415 Q358.428,50.415 357.467,49.332 Q356.507,48.248 356.507,46.396 z" fill="#F42300"/>
    <path d="M371.587,45.247 L371.587,50.217 L369.598,50.217 L369.598,45.555 Q369.598,44.721 369.362,44.362 Q369.126,44.003 368.593,44.003 Q368.053,44.003 367.742,44.488 Q367.431,44.974 367.431,45.835 L367.431,50.217 L365.441,50.217 L365.441,42.561 L367.431,42.561 L367.431,43.709 Q367.642,43.073 368.155,42.725 Q368.668,42.376 369.392,42.376 Q370.479,42.376 371.033,43.097 Q371.587,43.819 371.587,45.247 z" fill="#F42300"/>
    <path d="M379.469,42.8 L379.469,44.55 Q378.915,44.195 378.317,44.013 Q377.719,43.832 377.117,43.832 Q376.447,43.832 376.105,44.027 Q375.764,44.222 375.764,44.605 Q375.764,45.152 377.226,45.493 L377.302,45.514 L377.876,45.651 Q378.97,45.91 379.479,46.488 Q379.988,47.066 379.988,48.05 Q379.988,49.233 379.212,49.824 Q378.436,50.415 376.878,50.415 Q376.187,50.415 375.463,50.296 Q374.738,50.176 373.993,49.937 L373.993,48.187 Q374.656,48.563 375.343,48.761 Q376.03,48.959 376.673,48.959 Q377.377,48.959 377.739,48.754 Q378.101,48.549 378.101,48.159 Q378.101,47.777 377.845,47.571 Q377.589,47.366 376.625,47.134 L376.071,47.011 Q374.923,46.751 374.396,46.197 Q373.87,45.644 373.87,44.714 Q373.87,43.607 374.67,42.991 Q375.47,42.376 376.919,42.376 Q377.568,42.376 378.214,42.482 Q378.86,42.588 379.469,42.8 z" fill="#F42300"/>
    <path d="M385.84,40.387 L385.84,42.561 L388.458,42.561 L388.458,44.099 L385.84,44.099 L385.84,47.722 Q385.84,48.235 386.089,48.457 Q386.339,48.679 386.92,48.679 L388.458,48.679 L388.458,50.217 L386.776,50.217 Q385.054,50.217 384.445,49.667 Q383.837,49.116 383.837,47.626 L383.837,44.099 L381.882,44.099 L381.882,42.561 L383.837,42.561 L383.837,40.387 z" fill="#F42300"/>
    <path d="M394.337,46.621 Q393.216,46.621 392.771,46.908 Q392.327,47.196 392.327,47.893 Q392.327,48.412 392.635,48.72 Q392.942,49.028 393.469,49.028 Q394.262,49.028 394.699,48.429 Q395.137,47.831 395.137,46.758 L395.137,46.621 z M397.126,45.849 L397.126,50.217 L395.137,50.217 L395.137,49.363 Q394.774,49.868 394.207,50.142 Q393.64,50.415 392.956,50.415 Q391.65,50.415 390.922,49.725 Q390.194,49.034 390.194,47.797 Q390.194,46.457 391.062,45.818 Q391.931,45.179 393.749,45.179 L395.137,45.179 L395.137,44.844 Q395.137,44.359 394.785,44.109 Q394.433,43.86 393.749,43.86 Q393.031,43.86 392.358,44.041 Q391.684,44.222 390.953,44.618 L390.953,42.909 Q391.616,42.636 392.3,42.506 Q392.983,42.376 393.749,42.376 Q395.615,42.376 396.371,43.135 Q397.126,43.894 397.126,45.849 z" fill="#F42300"/>
    <path d="M405.302,45.247 L405.302,50.217 L403.312,50.217 L403.312,45.555 Q403.312,44.721 403.077,44.362 Q402.841,44.003 402.308,44.003 Q401.767,44.003 401.456,44.488 Q401.145,44.974 401.145,45.835 L401.145,50.217 L399.156,50.217 L399.156,42.561 L401.145,42.561 L401.145,43.709 Q401.357,43.073 401.87,42.725 Q402.383,42.376 403.107,42.376 Q404.194,42.376 404.748,43.097 Q405.302,43.819 405.302,45.247 z" fill="#F42300"/>
    <path d="M411.126,40.387 L411.126,42.561 L413.744,42.561 L413.744,44.099 L411.126,44.099 L411.126,47.722 Q411.126,48.235 411.375,48.457 Q411.625,48.679 412.206,48.679 L413.744,48.679 L413.744,50.217 L412.062,50.217 Q410.34,50.217 409.731,49.667 Q409.123,49.116 409.123,47.626 L409.123,44.099 L407.168,44.099 L407.168,42.561 L409.123,42.561 L409.123,40.387 z" fill="#F42300"/>
    <path d="M422.371,49.841 Q421.674,50.128 420.949,50.272 Q420.225,50.415 419.418,50.415 Q417.497,50.415 416.482,49.386 Q415.467,48.358 415.467,46.423 Q415.467,44.55 416.444,43.463 Q417.422,42.376 419.11,42.376 Q420.812,42.376 421.752,43.384 Q422.692,44.393 422.692,46.225 L422.692,47.038 L417.504,47.038 Q417.511,47.941 418.037,48.385 Q418.563,48.829 419.609,48.829 Q420.3,48.829 420.97,48.631 Q421.64,48.433 422.371,48.002 z M420.676,45.534 Q420.662,44.741 420.269,44.335 Q419.876,43.928 419.11,43.928 Q418.42,43.928 418.01,44.348 Q417.6,44.769 417.524,45.541 z" fill="#F42300"/>
    <path d="M274.955,79.731 Q275.294,79.003 275.817,78.654 Q276.339,78.306 277.098,78.306 Q278.585,78.306 279.154,79.331 Q279.723,80.357 279.723,83.597 L279.723,90.067 L277.262,90.067 L277.262,82.694 Q277.262,81.413 277.068,80.982 Q276.873,80.551 276.36,80.551 Q275.847,80.551 275.642,80.992 Q275.437,81.433 275.437,82.694 L275.437,90.067 L273.007,90.067 L273.007,82.694 Q273.007,81.433 272.802,80.992 Q272.597,80.551 272.084,80.551 Q271.571,80.551 271.377,80.982 Q271.182,81.413 271.182,82.694 L271.182,90.067 L268.721,90.067 L268.721,78.583 L270.905,78.583 L270.905,79.772 Q271.161,79.095 271.725,78.701 Q272.289,78.306 272.986,78.306 Q273.684,78.306 274.258,78.721 Q274.832,79.136 274.955,79.731 z" fill="#000000"/>
    <path d="M287.701,84.673 Q286.019,84.673 285.353,85.104 Q284.686,85.535 284.686,86.581 Q284.686,87.36 285.148,87.821 Q285.609,88.283 286.399,88.283 Q287.588,88.283 288.244,87.386 Q288.901,86.488 288.901,84.879 L288.901,84.673 z M291.884,83.515 L291.884,90.067 L288.901,90.067 L288.901,88.785 Q288.357,89.544 287.506,89.954 Q286.655,90.364 285.63,90.364 Q283.671,90.364 282.579,89.329 Q281.487,88.293 281.487,86.437 Q281.487,84.427 282.789,83.469 Q284.091,82.51 286.819,82.51 L288.901,82.51 L288.901,82.007 Q288.901,81.279 288.372,80.905 Q287.844,80.531 286.819,80.531 Q285.742,80.531 284.732,80.803 Q283.722,81.074 282.625,81.669 L282.625,79.106 Q283.62,78.695 284.645,78.501 Q285.671,78.306 286.819,78.306 Q289.618,78.306 290.751,79.444 Q291.884,80.582 291.884,83.515 z" fill="#000000"/>
    <path d="M305.809,92.015 L305.809,94.066 L293.166,94.066 L293.166,92.015 z" fill="#000000"/>
    <path d="M316.689,89.483 Q315.93,89.923 315.058,90.144 Q314.187,90.364 313.182,90.364 Q310.526,90.364 309.029,88.765 Q307.532,87.165 307.532,84.335 Q307.532,81.495 309.039,79.89 Q310.547,78.285 313.202,78.285 Q314.125,78.285 314.981,78.501 Q315.838,78.716 316.689,79.167 L316.689,81.915 Q316.032,81.351 315.248,81.049 Q314.464,80.746 313.623,80.746 Q312.156,80.746 311.367,81.679 Q310.577,82.612 310.577,84.335 Q310.577,86.058 311.367,86.981 Q312.156,87.903 313.623,87.903 Q314.494,87.903 315.253,87.611 Q316.012,87.319 316.689,86.724 z" fill="#000000"/>
    <path d="M324.769,80.746 Q323.692,80.746 323.077,81.695 Q322.462,82.643 322.462,84.335 Q322.462,86.027 323.077,86.975 Q323.692,87.924 324.769,87.924 Q325.856,87.924 326.471,86.975 Q327.086,86.027 327.086,84.335 Q327.086,82.643 326.471,81.695 Q325.856,80.746 324.769,80.746 z M319.457,84.335 Q319.457,81.556 320.898,79.931 Q322.339,78.306 324.769,78.306 Q327.209,78.306 328.65,79.931 Q330.09,81.556 330.09,84.335 Q330.09,87.114 328.65,88.739 Q327.209,90.364 324.769,90.364 Q322.339,90.364 320.898,88.739 Q319.457,87.114 319.457,84.335 z" fill="#000000"/>
    <path d="M342.077,82.612 L342.077,90.067 L339.093,90.067 L339.093,83.074 Q339.093,81.823 338.74,81.285 Q338.386,80.746 337.586,80.746 Q336.776,80.746 336.309,81.474 Q335.843,82.202 335.843,83.494 L335.843,90.067 L332.859,90.067 L332.859,78.583 L335.843,78.583 L335.843,80.305 Q336.161,79.352 336.93,78.829 Q337.699,78.306 338.786,78.306 Q340.416,78.306 341.247,79.388 Q342.077,80.469 342.077,82.612 z" fill="#000000"/>
    <path d="M353.9,78.942 L353.9,81.567 Q353.069,81.033 352.172,80.762 Q351.275,80.49 350.373,80.49 Q349.368,80.49 348.855,80.782 Q348.342,81.074 348.342,81.649 Q348.342,82.469 350.537,82.982 L350.65,83.012 L351.511,83.217 Q353.151,83.607 353.915,84.473 Q354.679,85.34 354.679,86.817 Q354.679,88.59 353.516,89.477 Q352.352,90.364 350.014,90.364 Q348.978,90.364 347.891,90.185 Q346.804,90.005 345.687,89.647 L345.687,87.022 Q346.681,87.586 347.712,87.883 Q348.742,88.18 349.706,88.18 Q350.762,88.18 351.306,87.873 Q351.849,87.565 351.849,86.981 Q351.849,86.406 351.465,86.099 Q351.08,85.791 349.634,85.442 L348.804,85.258 Q347.081,84.868 346.292,84.038 Q345.502,83.207 345.502,81.813 Q345.502,80.151 346.702,79.229 Q347.901,78.306 350.075,78.306 Q351.049,78.306 352.018,78.465 Q352.987,78.624 353.9,78.942 z" fill="#000000"/>
    <path d="M363.457,75.322 L363.457,78.583 L367.384,78.583 L367.384,80.89 L363.457,80.89 L363.457,86.324 Q363.457,87.093 363.831,87.427 Q364.205,87.76 365.077,87.76 L367.384,87.76 L367.384,90.067 L364.861,90.067 Q362.277,90.067 361.365,89.242 Q360.452,88.416 360.452,86.181 L360.452,80.89 L357.52,80.89 L357.52,78.583 L360.452,78.583 L360.452,75.322 z" fill="#000000"/>
    <path d="M376.202,84.673 Q374.521,84.673 373.854,85.104 Q373.188,85.535 373.188,86.581 Q373.188,87.36 373.649,87.821 Q374.11,88.283 374.9,88.283 Q376.089,88.283 376.746,87.386 Q377.402,86.488 377.402,84.879 L377.402,84.673 z M380.386,83.515 L380.386,90.067 L377.402,90.067 L377.402,88.785 Q376.859,89.544 376.007,89.954 Q375.156,90.364 374.131,90.364 Q372.172,90.364 371.08,89.329 Q369.988,88.293 369.988,86.437 Q369.988,84.427 371.291,83.469 Q372.593,82.51 375.32,82.51 L377.402,82.51 L377.402,82.007 Q377.402,81.279 376.874,80.905 Q376.346,80.531 375.32,80.531 Q374.244,80.531 373.234,80.803 Q372.224,81.074 371.127,81.669 L371.127,79.106 Q372.121,78.695 373.147,78.501 Q374.172,78.306 375.32,78.306 Q378.12,78.306 379.253,79.444 Q380.386,80.582 380.386,83.515 z" fill="#000000"/>
    <path d="M392.65,82.612 L392.65,90.067 L389.666,90.067 L389.666,83.074 Q389.666,81.823 389.312,81.285 Q388.958,80.746 388.158,80.746 Q387.348,80.746 386.882,81.474 Q386.415,82.202 386.415,83.494 L386.415,90.067 L383.431,90.067 L383.431,78.583 L386.415,78.583 L386.415,80.305 Q386.733,79.352 387.502,78.829 Q388.271,78.306 389.358,78.306 Q390.988,78.306 391.819,79.388 Q392.65,80.469 392.65,82.612 z" fill="#000000"/>
    <path d="M401.386,75.322 L401.386,78.583 L405.313,78.583 L405.313,80.89 L401.386,80.89 L401.386,86.324 Q401.386,87.093 401.76,87.427 Q402.134,87.76 403.006,87.76 L405.313,87.76 L405.313,90.067 L402.791,90.067 Q400.207,90.067 399.294,89.242 Q398.381,88.416 398.381,86.181 L398.381,80.89 L395.449,80.89 L395.449,78.583 L398.381,78.583 L398.381,75.322 z" fill="#000000"/>
    <path d="M418.254,89.503 Q417.208,89.934 416.121,90.149 Q415.034,90.364 413.824,90.364 Q410.943,90.364 409.42,88.821 Q407.897,87.278 407.897,84.376 Q407.897,81.567 409.363,79.936 Q410.83,78.306 413.362,78.306 Q415.916,78.306 417.326,79.818 Q418.735,81.331 418.735,84.079 L418.735,85.299 L410.953,85.299 Q410.963,86.652 411.753,87.319 Q412.542,87.985 414.111,87.985 Q415.147,87.985 416.151,87.688 Q417.156,87.391 418.254,86.745 z M415.711,83.043 Q415.69,81.854 415.1,81.244 Q414.511,80.633 413.362,80.633 Q412.327,80.633 411.712,81.264 Q411.096,81.895 410.984,83.053 z" fill="#000000"/>
    <path d="M1222.014,87.286 L1225.428,87.286 L1225.428,90.065 L1223.419,93.992 L1221.214,93.992 L1222.014,90.065 z M1222.014,80.149 L1225.428,80.149 L1225.428,83.892 L1222.014,83.892 z" fill="#000000"/>
  </g>
</svg>
