<?xml version="1.0" encoding="UTF-8"?>
<!DOCTYPE svg PUBLIC "-//W3C//DTD SVG 1.1//EN" "http://www.w3.org/Graphics/SVG/1.1/DTD/svg11.dtd">
<svg version="1.1" xmlns="http://www.w3.org/2000/svg" xmlns:xlink="http://www.w3.org/1999/xlink" x="0" y="0" width="449.455" height="211.5" viewBox="0, 0, 449.455, 211.5">
  <g id="Calque_1" transform="translate(-0, 0)">
    <path d="M21.813,0 L212.678,0 C224.725,0 234.491,10.77 234.491,24.056 L234.491,187.443 C234.491,200.729 224.725,211.5 212.678,211.5 L21.813,211.5 C9.766,211.5 0,200.729 0,187.443 L0,24.056 C0,10.77 9.766,0 21.813,0 z" fill="#FFF4B8" fill-opacity="0.5"/>
    <path d="M288.475,0 L432.944,0 C442.063,0 449.455,10.77 449.455,24.056 L449.455,187.443 C449.455,200.729 442.063,211.5 432.944,211.5 L288.475,211.5 C279.356,211.5 271.964,200.729 271.964,187.443 L271.964,24.056 C271.964,10.77 279.356,0 288.475,0 z" fill="#FFF4B8" fill-opacity="0.5"/>
    <path d="M21.52,31.25 L18.639,31.25 L18.639,19.189 L14.938,19.189 L14.938,16.67 L25.221,16.67 L25.221,19.189 L21.52,19.189 z" fill="#000000"/>
    <path d="M32.936,26.113 Q31.334,26.113 30.7,26.523 Q30.065,26.934 30.065,27.93 Q30.065,28.672 30.504,29.111 Q30.944,29.551 31.696,29.551 Q32.829,29.551 33.454,28.696 Q34.079,27.842 34.079,26.309 L34.079,26.113 z M36.92,25.01 L36.92,31.25 L34.079,31.25 L34.079,30.029 Q33.561,30.752 32.75,31.143 Q31.94,31.533 30.963,31.533 Q29.098,31.533 28.058,30.547 Q27.018,29.561 27.018,27.793 Q27.018,25.879 28.258,24.966 Q29.498,24.053 32.096,24.053 L34.079,24.053 L34.079,23.574 Q34.079,22.881 33.576,22.524 Q33.073,22.168 32.096,22.168 Q31.071,22.168 30.109,22.427 Q29.147,22.686 28.102,23.252 L28.102,20.811 Q29.049,20.42 30.026,20.234 Q31.002,20.049 32.096,20.049 Q34.762,20.049 35.841,21.133 Q36.92,22.217 36.92,25.01 z" fill="#000000"/>
    <path d="M48.6,24.15 L48.6,31.25 L45.758,31.25 L45.758,24.59 Q45.758,23.398 45.421,22.886 Q45.084,22.373 44.323,22.373 Q43.551,22.373 43.107,23.066 Q42.663,23.76 42.663,24.99 L42.663,31.25 L39.821,31.25 L39.821,20.312 L42.663,20.312 L42.663,21.953 Q42.965,21.045 43.698,20.547 Q44.43,20.049 45.465,20.049 Q47.018,20.049 47.809,21.079 Q48.6,22.109 48.6,24.15 z" fill="#000000"/>
    <path d="M56.92,17.207 L56.92,20.312 L60.661,20.312 L60.661,22.51 L56.92,22.51 L56.92,27.686 Q56.92,28.418 57.277,28.735 Q57.633,29.053 58.463,29.053 L60.661,29.053 L60.661,31.25 L58.258,31.25 Q55.797,31.25 54.928,30.464 Q54.059,29.678 54.059,27.549 L54.059,22.51 L51.266,22.51 L51.266,20.312 L54.059,20.312 L54.059,17.207 z" fill="#000000"/>
    <path d="M78.004,25.771 Q78.004,27.354 78.532,28.252 Q79.059,29.15 79.987,29.15 Q80.914,29.15 81.452,28.252 Q81.989,27.354 81.989,25.771 Q81.989,24.189 81.452,23.291 Q80.914,22.393 79.987,22.393 Q79.059,22.393 78.532,23.291 Q78.004,24.189 78.004,25.771 z M81.989,29.707 Q81.461,30.625 80.763,31.079 Q80.065,31.533 79.186,31.533 Q77.243,31.533 76.193,30.049 Q75.143,28.564 75.143,25.791 Q75.143,23.057 76.178,21.553 Q77.213,20.049 79.088,20.049 Q80.075,20.049 80.802,20.527 Q81.53,21.006 81.989,21.953 L81.989,20.312 L84.84,20.312 L84.84,35.41 L81.989,35.41 z" fill="#000000"/>
    <path d="M87.868,27.432 L87.868,20.312 L90.729,20.312 L90.729,26.992 Q90.729,28.174 91.061,28.682 Q91.393,29.189 92.164,29.189 Q92.936,29.189 93.371,28.506 Q93.805,27.822 93.805,26.592 L93.805,20.312 L96.666,20.312 L96.666,31.25 L93.805,31.25 L93.805,29.629 Q93.502,30.537 92.775,31.035 Q92.047,31.533 91.022,31.533 Q89.459,31.533 88.663,30.498 Q87.868,29.463 87.868,27.432 z" fill="#000000"/>
    <path d="M109.108,30.713 Q108.112,31.123 107.077,31.328 Q106.041,31.533 104.889,31.533 Q102.145,31.533 100.695,30.063 Q99.245,28.594 99.245,25.83 Q99.245,23.154 100.641,21.602 Q102.038,20.049 104.45,20.049 Q106.881,20.049 108.224,21.489 Q109.567,22.93 109.567,25.547 L109.567,26.709 L102.155,26.709 Q102.164,27.998 102.916,28.633 Q103.668,29.268 105.163,29.268 Q106.149,29.268 107.106,28.984 Q108.063,28.701 109.108,28.086 z M106.686,24.561 Q106.666,23.428 106.105,22.847 Q105.543,22.266 104.45,22.266 Q103.463,22.266 102.877,22.866 Q102.291,23.467 102.184,24.57 z" fill="#000000"/>
    <path d="M17.637,38 L17.637,132.184" fill-opacity="0" stroke="#000000" stroke-width="2"/>
    <path d="M63.52,199.216 Q63.373,199.489 62.869,199.552 Q62.827,199.552 61.966,199.594 Q62.113,200.539 63.058,201.946 Q63.604,202.345 63.604,202.996 Q63.604,204.025 62.344,204.025 Q61.147,204.025 60.706,203.416 Q60.559,203.206 60.517,202.849 Q60.517,202.618 60.496,202.366 Q60.307,202.177 59.362,199.93 Q57.64,200.182 55.12,200.644 Q54.868,201.253 54.574,202.408 Q54.616,202.618 54.616,202.807 Q54.616,203.374 54.238,203.679 Q53.86,203.983 53.335,203.983 Q52.747,203.983 52.243,203.542 Q51.739,203.101 51.739,202.513 Q51.739,201.988 52.222,201.568 Q53.797,193.567 56.044,188.338 Q56.002,188.086 56.002,187.834 Q56.002,186.784 56.716,186.448 Q57.01,186.322 57.472,186.322 Q58.354,186.322 58.942,186.595 Q59.698,186.973 59.698,187.729 Q59.698,188.422 59.32,188.968 Q59.719,192.538 61.042,197.2 Q61.168,197.179 61.903,196.99 Q62.344,196.864 62.575,196.864 Q62.848,196.864 63.016,196.99 Q63.751,197.557 63.751,198.376 Q63.751,198.817 63.52,199.216 z M58.48,197.62 Q58.123,196.297 57.346,192.538 Q55.855,195.793 55.582,198.124 z" fill="#000000"/>
    <path d="M68.329,203.605 Q67.909,204.403 66.775,204.403 Q65.725,204.403 65.305,203.689 Q65.179,203.479 65.179,203.227 Q65.179,203.017 65.326,202.534 Q65.473,202.051 65.473,201.736 L65.389,188.17 Q65.389,187.057 65.389,187.036 Q65.452,186.763 65.977,186.585 Q66.502,186.406 67.09,186.406 Q67.951,186.406 68.182,186.721 Q68.413,187.036 68.413,187.372 Q68.413,187.603 68.245,188.139 Q68.077,188.674 68.077,189.01 L68.077,201.61 Q68.077,201.925 68.255,202.439 Q68.434,202.954 68.434,203.185 Q68.434,203.416 68.329,203.605 z" fill="#000000"/>
    <path d="M77.485,192.349 Q77.527,194.155 77.674,198.292 Q77.758,201.211 77.758,202.471 Q77.758,205.243 77.317,206.251 Q76.876,207.259 75.532,207.364 Q73.852,207.511 72.571,206.482 Q71.941,206.293 71.773,206.188 Q71.416,205.978 71.311,205.474 Q71.122,204.487 72.865,204.487 Q73.306,204.487 73.705,204.592 Q73.999,204.655 74.356,205.085 Q74.713,205.516 75.028,205.537 Q75.637,205.579 75.637,203.815 Q75.637,203.059 75.532,201.358 Q74.776,202.639 74.44,203.017 Q73.747,203.731 72.823,203.731 Q71.521,203.731 70.723,201.925 Q69.988,200.266 69.988,197.893 Q69.988,195.457 70.765,193.777 Q71.647,191.887 73.201,191.845 Q74.041,191.824 74.44,192.181 Q74.839,192.538 75.217,192.916 Q74.944,192.16 75.343,191.782 Q75.574,191.551 76.036,191.551 Q76.477,191.551 76.918,191.782 Q77.359,192.013 77.485,192.349 z M74.965,197.704 Q75.049,196.486 74.671,195.394 Q74.251,194.176 73.579,194.176 Q73.033,194.176 72.613,195.394 Q72.235,196.486 72.193,197.704 Q72.151,198.985 72.382,200.014 Q72.676,201.232 73.201,201.232 Q73.663,201.232 74.272,200.046 Q74.881,198.859 74.965,197.704 z" fill="#000000"/>
    <path d="M86.179,192.664 Q87.586,194.092 87.586,197.473 Q87.586,200.098 86.599,201.946 Q85.486,204.025 83.533,204.025 Q81.601,204.025 80.551,202.156 Q79.627,200.518 79.627,197.998 Q79.627,195.772 80.341,194.008 Q81.097,192.118 82.273,191.782 Q82.882,191.614 83.533,191.614 Q85.15,191.614 86.179,192.664 z M83.785,193.672 Q83.092,193.609 82.588,194.974 Q82.147,196.213 82.147,197.578 Q82.147,199.552 82.315,200.371 Q82.609,201.841 83.533,201.988 Q84.121,202.072 84.625,200.371 Q85.108,198.733 85.108,196.864 Q85.108,193.798 83.785,193.672 z" fill="#000000"/>
    <path d="M97.246,192.79 Q97.162,193.231 96.448,193.399 Q95.608,193.609 95.377,193.882 L91.954,197.83 L91.954,201.022 Q91.954,201.484 92.216,201.957 Q92.479,202.429 92.479,202.681 Q92.479,202.933 92.332,203.248 Q91.975,204.046 90.883,204.046 Q90.127,204.046 89.686,203.563 Q89.392,203.248 89.392,202.765 Q89.392,202.597 89.434,202.219 Q89.476,201.841 89.476,201.61 L89.476,193.756 Q89.476,193.567 89.308,193.294 Q89.14,193.021 89.14,192.853 Q89.14,192.727 89.224,192.559 Q89.497,192.055 90.925,192.055 Q92.038,192.055 92.185,192.58 Q92.248,192.79 92.248,192.937 Q92.248,193.168 92.08,193.294 Q91.912,193.42 91.912,193.546 L91.954,194.302 L93.76,192.391 Q94.075,192.034 94.422,191.677 Q94.768,191.32 95.23,191.278 Q95.944,191.215 96.605,191.593 Q97.267,191.971 97.267,192.58 Q97.267,192.685 97.246,192.79 z" fill="#000000"/>
    <path d="M101.593,187.75 Q101.656,187.813 101.656,187.96 Q101.656,188.149 101.53,188.611 Q101.383,189.178 101.341,189.388 Q101.299,189.598 101.383,190.312 Q101.383,190.753 101.12,190.889 Q100.858,191.026 100.459,191.026 Q99.892,191.026 99.304,190.795 Q98.59,190.501 98.59,190.018 Q98.59,189.871 98.716,189.609 Q98.842,189.346 98.863,189.178 Q98.905,189.01 98.863,188.338 Q98.821,187.813 99.073,187.624 Q99.409,187.372 100.27,187.372 Q101.215,187.372 101.593,187.75 z M101.866,192.874 Q101.866,193.168 101.54,193.788 Q101.215,194.407 101.215,194.806 L101.215,200.98 Q101.215,201.4 101.446,202.167 Q101.677,202.933 101.677,203.227 Q101.677,203.647 101.341,203.857 Q100.816,204.193 100.207,204.193 Q99.409,204.193 99.073,203.647 Q98.632,202.975 98.632,199.636 Q98.632,198.838 98.663,197.147 Q98.695,195.457 98.695,194.68 Q98.695,194.386 98.632,193.913 Q98.569,193.441 98.569,193.231 Q98.569,192.538 99.073,192.034 Q99.283,191.824 99.85,191.824 Q100.417,191.824 100.984,192.003 Q101.551,192.181 101.708,192.412 Q101.866,192.643 101.866,192.874 z" fill="#000000"/>
    <path d="M110.749,193.966 Q110.581,193.966 110.224,193.829 Q109.867,193.693 109.678,193.693 Q109.531,193.693 109.384,193.756 L108.607,194.155 L108.607,201.337 Q108.607,201.736 109.037,202.366 Q109.468,202.996 109.384,203.374 Q109.279,203.836 108.764,204.109 Q108.25,204.382 107.662,204.382 Q106.549,204.382 106.129,203.395 Q106.003,203.101 105.982,201.526 Q105.961,200.476 106.003,198.25 Q106.045,195.73 106.045,195.058 Q105.919,195.1 105.625,195.341 Q105.331,195.583 105.037,195.583 Q104.806,195.583 104.449,195.457 Q102.979,194.953 102.979,194.428 Q102.979,194.302 103.042,194.155 Q103.189,193.819 103.588,193.777 Q104.197,193.693 104.323,193.63 Q104.806,193.441 106.087,192.727 L106.087,190.9 Q106.087,190.69 105.971,190.343 Q105.856,189.997 105.856,189.829 Q105.856,189.64 105.961,189.472 Q106.507,188.632 107.431,188.632 Q108.502,188.632 108.943,189.472 Q109.111,189.808 109.111,190.018 Q109.111,190.27 108.859,190.543 Q108.607,190.816 108.607,191.047 L108.607,192.076 Q108.985,191.908 109.447,191.509 Q109.804,191.215 110.056,191.215 Q110.161,191.215 110.287,191.257 Q111.61,191.614 111.61,192.853 Q111.61,193.252 111.368,193.609 Q111.127,193.966 110.749,193.966 z" fill="#000000"/>
    <path d="M121.438,201.736 Q121.564,202.261 121.564,202.408 Q121.564,202.849 121.049,203.133 Q120.535,203.416 119.947,203.416 Q119.044,203.416 118.792,202.744 Q118.687,202.471 118.687,202.282 Q118.687,202.009 118.928,201.694 Q119.17,201.379 119.17,201.106 Q119.422,200.014 119.422,197.956 Q119.422,194.386 118.918,194.302 Q118.54,194.239 117.7,195.499 Q116.818,196.822 116.23,198.46 Q115.537,200.392 115.642,201.862 Q115.579,201.988 115.579,202.114 Q115.579,202.303 115.747,202.65 Q115.915,202.996 115.915,203.206 Q115.915,203.416 115.768,203.605 Q115.201,204.424 114.634,204.424 Q114.046,204.424 113.5,203.5 Q113.185,202.954 113.185,197.221 Q113.185,195.121 113.29,187.666 Q113.29,187.54 113.269,187.278 Q113.248,187.015 113.248,186.868 Q113.269,186.658 113.374,186.49 Q113.605,186.049 114.361,186.049 Q115.033,186.049 115.589,186.406 Q116.146,186.763 116.02,187.246 Q115.999,187.372 115.82,187.54 Q115.642,187.708 115.642,187.876 L115.642,194.638 Q116.839,191.95 119.17,191.782 Q120.43,191.698 121.186,193.672 Q121.879,195.478 121.879,198.103 Q121.879,200.119 121.438,201.736 z" fill="#000000"/>
    <path d="M137.419,203.5 Q137.146,204.277 136.18,204.277 Q134.962,204.277 134.374,203.437 Q134.059,202.975 134.059,200.266 Q134.059,199.867 134.059,199.153 Q134.08,198.418 134.08,198.124 Q134.08,196.654 133.933,196.612 Q133.618,196.486 131.791,202.492 Q131.791,202.513 131.707,203.5 Q131.665,204.109 131.287,204.319 Q131.014,204.466 130.678,204.466 Q130.069,204.466 129.502,204.067 Q128.935,203.668 128.788,203.122 Q128.578,202.345 128.599,200.056 Q128.641,196.717 128.641,196.843 Q128.62,195.961 128.515,195.94 Q128.032,196.738 127.675,197.473 Q126.814,199.237 126.688,200.413 Q126.583,200.665 126.667,201.4 Q126.751,202.03 126.478,202.261 Q126.205,202.492 125.743,202.492 Q125.239,202.492 124.725,202.208 Q124.21,201.925 123.979,201.568 Q123.643,201.043 123.601,198.502 Q123.601,196.024 123.601,193.546 Q123.58,193.336 123.433,192.958 Q123.286,192.58 123.286,192.391 Q123.286,192.202 123.391,192.034 Q123.664,191.614 124.777,191.614 Q126.142,191.614 126.415,192.286 Q126.478,192.433 126.478,192.58 Q126.478,192.769 126.278,193.126 Q126.079,193.483 126.079,193.714 L126.079,196.108 Q126.709,194.785 127.738,192.748 Q127.864,192.475 127.979,192.202 Q128.095,191.929 128.326,191.719 Q128.557,191.509 129.103,191.509 Q129.943,191.509 130.794,191.887 Q131.644,192.265 131.665,192.79 Q131.686,193.336 131.507,193.619 Q131.329,193.903 131.329,194.092 L131.287,198.628 Q131.623,197.872 132.505,195.058 Q133.198,192.916 133.555,192.664 Q134.017,192.328 134.92,192.328 Q136.6,192.328 136.663,193.294 Q136.642,195.856 136.663,201.862 Q136.663,202.093 137.083,202.419 Q137.503,202.744 137.503,203.101 Q137.503,203.269 137.419,203.5 z" fill="#000000"/>
    <path d="M142.165,187.75 Q142.228,187.813 142.228,187.96 Q142.228,188.149 142.102,188.611 Q141.955,189.178 141.913,189.388 Q141.871,189.598 141.955,190.312 Q141.955,190.753 141.692,190.889 Q141.43,191.026 141.031,191.026 Q140.464,191.026 139.876,190.795 Q139.162,190.501 139.162,190.018 Q139.162,189.871 139.288,189.609 Q139.414,189.346 139.435,189.178 Q139.477,189.01 139.435,188.338 Q139.393,187.813 139.645,187.624 Q139.981,187.372 140.842,187.372 Q141.787,187.372 142.165,187.75 z M142.438,192.874 Q142.438,193.168 142.112,193.788 Q141.787,194.407 141.787,194.806 L141.787,200.98 Q141.787,201.4 142.018,202.167 Q142.249,202.933 142.249,203.227 Q142.249,203.647 141.913,203.857 Q141.388,204.193 140.779,204.193 Q139.981,204.193 139.645,203.647 Q139.204,202.975 139.204,199.636 Q139.204,198.838 139.235,197.147 Q139.267,195.457 139.267,194.68 Q139.267,194.386 139.204,193.913 Q139.141,193.441 139.141,193.231 Q139.141,192.538 139.645,192.034 Q139.855,191.824 140.422,191.824 Q140.989,191.824 141.556,192.003 Q142.123,192.181 142.28,192.412 Q142.438,192.643 142.438,192.874 z" fill="#000000"/>
    <path d="M151.636,192.16 Q151.72,192.349 151.72,192.517 Q151.72,192.727 151.552,193.053 Q151.384,193.378 151.384,193.609 L151.384,205.558 Q151.384,205.831 151.52,206.219 Q151.657,206.608 151.657,206.839 Q151.657,207.07 151.573,207.322 Q151.321,208.078 150.271,208.078 Q148.99,208.078 148.549,207.133 Q148.444,206.923 148.444,206.713 Q148.444,206.44 148.717,205.915 Q148.99,205.39 148.99,205.054 L148.99,202.366 Q148.087,203.731 147.226,203.731 Q145.693,203.731 144.643,201.757 Q143.698,199.93 143.698,197.704 Q143.698,195.289 144.307,193.756 Q145.105,191.782 146.848,191.782 Q148.15,191.782 149.116,193.168 Q149.095,193 148.99,192.685 Q148.885,192.37 148.885,192.223 Q148.885,192.034 148.99,191.908 Q149.263,191.572 150.082,191.572 Q151.384,191.572 151.636,192.16 z M148.738,197.704 Q148.738,196.423 148.35,195.111 Q147.961,193.798 147.478,193.798 Q146.449,193.798 146.449,196.171 Q146.449,196.444 146.449,196.948 Q146.47,197.473 146.47,197.704 Q146.47,199.027 146.701,200.077 Q146.995,201.358 147.478,201.358 Q147.898,201.358 148.339,199.972 Q148.738,198.67 148.738,197.704 z" fill="#000000"/>
    <path d="M161.275,193.252 Q161.317,193.567 161.149,193.924 Q160.939,194.407 160.897,194.638 Q160.897,199.006 160.54,200.707 Q159.763,204.277 157.243,204.277 Q153.568,204.277 153.568,197.578 Q153.568,195.772 153.841,193.756 Q153.694,193.273 153.694,192.895 Q153.694,192.286 154.093,191.866 Q154.429,191.509 155.08,191.509 Q155.605,191.509 156.067,191.729 Q156.529,191.95 156.613,192.244 Q156.655,192.391 156.655,192.538 Q156.655,192.811 156.424,193.41 Q156.193,194.008 156.235,194.386 Q156.025,195.562 156.025,197.347 Q156.025,199.153 156.256,200.35 Q156.55,201.736 157.075,201.736 Q157.957,201.736 158.23,198.754 Q158.377,197.263 158.377,194.008 Q158.377,193.798 158.314,193.399 Q158.251,193 158.251,192.811 Q158.251,192.307 158.629,192.118 Q158.839,192.013 159.217,192.013 Q159.91,192.013 160.498,192.307 Q161.191,192.664 161.275,193.252 z" fill="#000000"/>
    <path d="M170.305,201.295 Q170.137,202.093 169.171,202.996 Q169.024,203.227 168.016,203.605 Q166.861,204.046 166.021,203.983 Q164.446,203.878 163.543,202.177 Q162.724,200.602 162.724,198.313 Q162.724,195.835 163.648,193.966 Q164.677,191.908 166.399,191.656 Q166.735,191.614 167.05,191.614 Q169.549,191.614 169.801,194.68 Q169.927,196.087 168.688,197.746 Q167.344,199.573 165.244,200.308 Q165.475,201.148 165.601,201.4 Q165.895,201.925 166.399,201.925 Q166.882,201.925 167.428,201.547 Q167.89,201.232 168.058,200.938 Q168.142,200.896 168.226,200.465 Q168.31,200.035 168.667,199.846 Q168.793,199.783 168.961,199.783 Q169.465,199.783 169.938,200.277 Q170.41,200.77 170.305,201.295 z M167.008,193.903 Q166.168,193.903 165.643,195.1 Q164.95,196.696 165.076,198.25 Q166.063,197.935 166.903,196.78 Q167.743,195.625 167.743,194.722 Q167.743,193.903 167.008,193.903 z" fill="#000000"/>
    <path d="M130.136,30.693 Q129.414,31.113 128.647,31.323 Q127.88,31.533 127.08,31.533 Q124.541,31.533 123.11,30.01 Q121.679,28.486 121.679,25.791 Q121.679,23.096 123.11,21.572 Q124.541,20.049 127.08,20.049 Q127.871,20.049 128.623,20.254 Q129.375,20.459 130.136,20.889 L130.136,22.773 Q129.423,22.139 128.706,21.855 Q127.988,21.572 127.08,21.572 Q125.39,21.572 124.482,22.666 Q123.574,23.76 123.574,25.791 Q123.574,27.812 124.487,28.911 Q125.4,30.01 127.08,30.01 Q128.017,30.01 128.759,29.722 Q129.502,29.434 130.136,28.828 z" fill="#F42300"/>
    <path d="M137.832,21.572 Q136.464,21.572 135.761,22.637 Q135.058,23.701 135.058,25.791 Q135.058,27.871 135.761,28.94 Q136.464,30.01 137.832,30.01 Q139.209,30.01 139.912,28.94 Q140.615,27.871 140.615,25.791 Q140.615,23.701 139.912,22.637 Q139.209,21.572 137.832,21.572 z M137.832,20.049 Q140.107,20.049 141.313,21.523 Q142.519,22.998 142.519,25.791 Q142.519,28.594 141.318,30.063 Q140.117,31.533 137.832,31.533 Q135.556,31.533 134.355,30.063 Q133.154,28.594 133.154,25.791 Q133.154,22.998 134.355,21.523 Q135.556,20.049 137.832,20.049 z" fill="#F42300"/>
    <path d="M154.121,24.473 L154.121,31.25 L152.314,31.25 L152.314,24.473 Q152.314,22.998 151.796,22.305 Q151.279,21.611 150.175,21.611 Q148.916,21.611 148.237,22.505 Q147.558,23.398 147.558,25.068 L147.558,31.25 L145.761,31.25 L145.761,20.312 L147.558,20.312 L147.558,21.953 Q148.037,21.016 148.857,20.532 Q149.677,20.049 150.8,20.049 Q152.47,20.049 153.296,21.147 Q154.121,22.246 154.121,24.473 z" fill="#F42300"/>
    <path d="M164.277,21.709 L164.277,16.055 L166.074,16.055 L166.074,31.25 L164.277,31.25 L164.277,29.873 Q163.828,30.684 163.081,31.108 Q162.334,31.533 161.357,31.533 Q159.375,31.533 158.237,29.995 Q157.099,28.457 157.099,25.752 Q157.099,23.086 158.242,21.567 Q159.384,20.049 161.357,20.049 Q162.343,20.049 163.095,20.474 Q163.847,20.898 164.277,21.709 z M158.994,25.791 Q158.994,27.881 159.658,28.945 Q160.322,30.01 161.621,30.01 Q162.92,30.01 163.598,28.936 Q164.277,27.861 164.277,25.791 Q164.277,23.711 163.598,22.642 Q162.92,21.572 161.621,21.572 Q160.322,21.572 159.658,22.637 Q158.994,23.701 158.994,25.791 z" fill="#F42300"/>
    <path d="M171.025,20.352 L175.625,20.352 L175.625,29.854 L179.189,29.854 L179.189,31.25 L170.263,31.25 L170.263,29.854 L173.828,29.854 L173.828,21.748 L171.025,21.748 z M173.828,16.104 L175.625,16.104 L175.625,18.369 L173.828,18.369 z" fill="#F42300"/>
    <path d="M185.976,17.207 L185.976,20.312 L190.058,20.312 L190.058,21.709 L185.976,21.709 L185.976,27.646 Q185.976,28.857 186.435,29.336 Q186.894,29.814 188.037,29.814 L190.058,29.814 L190.058,31.25 L187.861,31.25 Q185.839,31.25 185.009,30.439 Q184.179,29.629 184.179,27.646 L184.179,21.709 L181.259,21.709 L181.259,20.312 L184.179,20.312 L184.179,17.207 z" fill="#F42300"/>
    <path d="M195.107,20.352 L199.707,20.352 L199.707,29.854 L203.271,29.854 L203.271,31.25 L194.345,31.25 L194.345,29.854 L197.91,29.854 L197.91,21.748 L195.107,21.748 z M197.91,16.104 L199.707,16.104 L199.707,18.369 L197.91,18.369 z" fill="#F42300"/>
    <path d="M210.078,21.572 Q208.711,21.572 208.007,22.637 Q207.304,23.701 207.304,25.791 Q207.304,27.871 208.007,28.94 Q208.711,30.01 210.078,30.01 Q211.455,30.01 212.158,28.94 Q212.861,27.871 212.861,25.791 Q212.861,23.701 212.158,22.637 Q211.455,21.572 210.078,21.572 z M210.078,20.049 Q212.353,20.049 213.559,21.523 Q214.765,22.998 214.765,25.791 Q214.765,28.594 213.564,30.063 Q212.363,31.533 210.078,31.533 Q207.802,31.533 206.601,30.063 Q205.4,28.594 205.4,25.791 Q205.4,22.998 206.601,21.523 Q207.802,20.049 210.078,20.049 z" fill="#F42300"/>
    <path d="M226.367,24.473 L226.367,31.25 L224.56,31.25 L224.56,24.473 Q224.56,22.998 224.043,22.305 Q223.525,21.611 222.421,21.611 Q221.162,21.611 220.483,22.505 Q219.804,23.398 219.804,25.068 L219.804,31.25 L218.007,31.25 L218.007,20.312 L219.804,20.312 L219.804,21.953 Q220.283,21.016 221.103,20.532 Q221.923,20.049 223.046,20.049 Q224.716,20.049 225.542,21.147 Q226.367,22.246 226.367,24.473 z" fill="#F42300"/>
    <path d="M24.918,138.643 L18.717,138.643 L18.717,141.788 L24.362,141.788 L24.362,144.327 L18.717,144.327 L18.717,150.684 L15.836,150.684 L15.836,136.104 L24.918,136.104 z" fill="#000000"/>
    <path d="M28.258,139.746 L33.922,139.746 L33.922,148.487 L37.477,148.487 L37.477,150.684 L27.496,150.684 L27.496,148.487 L31.061,148.487 L31.061,141.944 L28.258,141.944 z M31.061,134.424 L33.922,134.424 L33.922,137.764 L31.061,137.764 z" fill="#000000"/>
    <path d="M48.6,143.584 L48.6,150.684 L45.758,150.684 L45.758,144.024 Q45.758,142.832 45.421,142.32 Q45.084,141.807 44.323,141.807 Q43.551,141.807 43.107,142.5 Q42.663,143.194 42.663,144.424 L42.663,150.684 L39.821,150.684 L39.821,139.746 L42.663,139.746 L42.663,141.387 Q42.965,140.479 43.698,139.981 Q44.43,139.483 45.465,139.483 Q47.018,139.483 47.809,140.513 Q48.6,141.543 48.6,143.584 z" fill="#000000"/>
    <path d="M69.684,150.684 L66.803,150.684 L66.803,138.623 L63.102,138.623 L63.102,136.104 L73.385,136.104 L73.385,138.623 L69.684,138.623 z" fill="#000000"/>
    <path d="M81.1,145.547 Q79.498,145.547 78.864,145.957 Q78.229,146.368 78.229,147.364 Q78.229,148.106 78.668,148.545 Q79.108,148.985 79.86,148.985 Q80.993,148.985 81.618,148.13 Q82.243,147.276 82.243,145.743 L82.243,145.547 z M85.084,144.444 L85.084,150.684 L82.243,150.684 L82.243,149.463 Q81.725,150.186 80.914,150.577 Q80.104,150.967 79.127,150.967 Q77.262,150.967 76.222,149.981 Q75.182,148.995 75.182,147.227 Q75.182,145.313 76.422,144.4 Q77.663,143.487 80.26,143.487 L82.243,143.487 L82.243,143.008 Q82.243,142.315 81.74,141.958 Q81.237,141.602 80.26,141.602 Q79.235,141.602 78.273,141.861 Q77.311,142.12 76.266,142.686 L76.266,140.245 Q77.213,139.854 78.19,139.668 Q79.166,139.483 80.26,139.483 Q82.926,139.483 84.005,140.567 Q85.084,141.651 85.084,144.444 z" fill="#000000"/>
    <path d="M96.764,143.584 L96.764,150.684 L93.922,150.684 L93.922,144.024 Q93.922,142.832 93.585,142.32 Q93.248,141.807 92.487,141.807 Q91.715,141.807 91.271,142.5 Q90.827,143.194 90.827,144.424 L90.827,150.684 L87.985,150.684 L87.985,139.746 L90.827,139.746 L90.827,141.387 Q91.129,140.479 91.862,139.981 Q92.594,139.483 93.629,139.483 Q95.182,139.483 95.973,140.513 Q96.764,141.543 96.764,143.584 z" fill="#000000"/>
    <path d="M105.084,136.641 L105.084,139.746 L108.825,139.746 L108.825,141.944 L105.084,141.944 L105.084,147.12 Q105.084,147.852 105.441,148.169 Q105.797,148.487 106.627,148.487 L108.825,148.487 L108.825,150.684 L106.422,150.684 Q103.961,150.684 103.092,149.898 Q102.223,149.112 102.223,146.983 L102.223,141.944 L99.43,141.944 L99.43,139.746 L102.223,139.746 L102.223,136.641 z" fill="#000000"/>
    <path d="M126.168,145.205 Q126.168,146.788 126.696,147.686 Q127.223,148.584 128.151,148.584 Q129.079,148.584 129.616,147.686 Q130.153,146.788 130.153,145.205 Q130.153,143.623 129.616,142.725 Q129.079,141.827 128.151,141.827 Q127.223,141.827 126.696,142.725 Q126.168,143.623 126.168,145.205 z M130.153,149.141 Q129.625,150.059 128.927,150.513 Q128.229,150.967 127.35,150.967 Q125.407,150.967 124.357,149.483 Q123.307,147.998 123.307,145.225 Q123.307,142.491 124.342,140.987 Q125.377,139.483 127.252,139.483 Q128.239,139.483 128.966,139.961 Q129.694,140.44 130.153,141.387 L130.153,139.746 L133.004,139.746 L133.004,154.844 L130.153,154.844 z" fill="#000000"/>
    <path d="M136.032,146.866 L136.032,139.746 L138.893,139.746 L138.893,146.426 Q138.893,147.608 139.225,148.116 Q139.557,148.623 140.329,148.623 Q141.1,148.623 141.535,147.94 Q141.969,147.256 141.969,146.026 L141.969,139.746 L144.83,139.746 L144.83,150.684 L141.969,150.684 L141.969,149.063 Q141.666,149.971 140.939,150.469 Q140.211,150.967 139.186,150.967 Q137.623,150.967 136.828,149.932 Q136.032,148.897 136.032,146.866 z" fill="#000000"/>
    <path d="M157.272,150.147 Q156.276,150.557 155.241,150.762 Q154.205,150.967 153.053,150.967 Q150.309,150.967 148.859,149.497 Q147.409,148.028 147.409,145.264 Q147.409,142.588 148.805,141.036 Q150.202,139.483 152.614,139.483 Q155.045,139.483 156.388,140.923 Q157.731,142.364 157.731,144.981 L157.731,146.143 L150.319,146.143 Q150.329,147.432 151.08,148.067 Q151.832,148.702 153.327,148.702 Q154.313,148.702 155.27,148.418 Q156.227,148.135 157.272,147.52 z M154.85,143.995 Q154.83,142.862 154.269,142.281 Q153.707,141.7 152.614,141.7 Q151.627,141.7 151.041,142.3 Q150.455,142.901 150.348,144.004 z" fill="#000000"/>
    <path d="M36.759,58.686 L36.164,58.686 Q34.591,58.686 33.796,59.238 Q33,59.789 33,60.883 Q33,61.87 33.595,62.416 Q34.191,62.963 35.246,62.963 Q36.73,62.963 37.58,61.933 Q38.429,60.903 38.439,59.086 L38.439,58.686 z M40.246,57.944 L40.246,64.184 L38.439,64.184 L38.439,62.563 Q37.863,63.539 36.989,64.003 Q36.115,64.467 34.865,64.467 Q33.195,64.467 32.199,63.525 Q31.203,62.582 31.203,61 Q31.203,59.174 32.428,58.227 Q33.654,57.28 36.027,57.28 L38.439,57.28 L38.439,56.997 Q38.429,55.688 37.775,55.097 Q37.121,54.506 35.685,54.506 Q34.767,54.506 33.83,54.77 Q32.892,55.034 32.004,55.541 L32.004,53.745 Q33,53.364 33.913,53.173 Q34.826,52.983 35.685,52.983 Q37.043,52.983 38.005,53.383 Q38.966,53.784 39.562,54.584 Q39.933,55.073 40.09,55.79 Q40.246,56.508 40.246,57.944 z" fill="#0142F2"/>
    <path d="M52.306,63.627 Q51.584,64.047 50.817,64.257 Q50.05,64.467 49.25,64.467 Q46.711,64.467 45.28,62.944 Q43.849,61.42 43.849,58.725 Q43.849,56.03 45.28,54.506 Q46.711,52.983 49.25,52.983 Q50.041,52.983 50.793,53.188 Q51.545,53.393 52.306,53.823 L52.306,55.707 Q51.593,55.073 50.876,54.789 Q50.158,54.506 49.25,54.506 Q47.56,54.506 46.652,55.6 Q45.744,56.694 45.744,58.725 Q45.744,60.747 46.657,61.845 Q47.57,62.944 49.25,62.944 Q50.187,62.944 50.929,62.656 Q51.672,62.368 52.306,61.762 z" fill="#0142F2"/>
    <path d="M59.982,50.141 L59.982,53.247 L64.064,53.247 L64.064,54.643 L59.982,54.643 L59.982,60.58 Q59.982,61.791 60.441,62.27 Q60.9,62.748 62.043,62.748 L64.064,62.748 L64.064,64.184 L61.867,64.184 Q59.845,64.184 59.015,63.373 Q58.185,62.563 58.185,60.58 L58.185,54.643 L55.265,54.643 L55.265,53.247 L58.185,53.247 L58.185,50.141 z" fill="#0142F2"/>
    <path d="M69.113,53.286 L73.713,53.286 L73.713,62.788 L77.277,62.788 L77.277,64.184 L68.351,64.184 L68.351,62.788 L71.916,62.788 L71.916,54.682 L69.113,54.682 z M71.916,49.038 L73.713,49.038 L73.713,51.303 L71.916,51.303 z" fill="#0142F2"/>
    <path d="M84.084,54.506 Q82.716,54.506 82.013,55.571 Q81.31,56.635 81.31,58.725 Q81.31,60.805 82.013,61.874 Q82.716,62.944 84.084,62.944 Q85.461,62.944 86.164,61.874 Q86.867,60.805 86.867,58.725 Q86.867,56.635 86.164,55.571 Q85.461,54.506 84.084,54.506 z M84.084,52.983 Q86.359,52.983 87.565,54.457 Q88.771,55.932 88.771,58.725 Q88.771,61.528 87.57,62.997 Q86.369,64.467 84.084,64.467 Q81.808,64.467 80.607,62.997 Q79.406,61.528 79.406,58.725 Q79.406,55.932 80.607,54.457 Q81.808,52.983 84.084,52.983 z" fill="#0142F2"/>
    <path d="M100.373,57.407 L100.373,64.184 L98.566,64.184 L98.566,57.407 Q98.566,55.932 98.049,55.239 Q97.531,54.545 96.427,54.545 Q95.168,54.545 94.489,55.439 Q93.81,56.332 93.81,58.002 L93.81,64.184 L92.013,64.184 L92.013,53.247 L93.81,53.247 L93.81,54.887 Q94.289,53.95 95.109,53.466 Q95.929,52.983 97.052,52.983 Q98.722,52.983 99.548,54.081 Q100.373,55.18 100.373,57.407 z" fill="#0142F2"/>
    <path d="M116.828,62.534 L119.894,62.534 L119.894,51.518 L116.222,53.286 L116.222,51.391 L119.875,49.653 L121.847,49.653 L121.847,62.534 L124.875,62.534 L124.875,64.184 L116.828,64.184 z" fill="#0142F2"/>
    <path d="M36.759,81.502 L36.164,81.502 Q34.591,81.502 33.796,82.054 Q33,82.605 33,83.699 Q33,84.686 33.595,85.232 Q34.191,85.779 35.246,85.779 Q36.73,85.779 37.58,84.749 Q38.429,83.719 38.439,81.902 L38.439,81.502 z M40.246,80.76 L40.246,87 L38.439,87 L38.439,85.379 Q37.863,86.355 36.989,86.819 Q36.115,87.283 34.865,87.283 Q33.195,87.283 32.199,86.341 Q31.203,85.398 31.203,83.816 Q31.203,81.99 32.428,81.043 Q33.654,80.096 36.027,80.096 L38.439,80.096 L38.439,79.812 Q38.429,78.504 37.775,77.913 Q37.121,77.322 35.685,77.322 Q34.767,77.322 33.83,77.586 Q32.892,77.85 32.004,78.357 L32.004,76.561 Q33,76.18 33.913,75.989 Q34.826,75.799 35.685,75.799 Q37.043,75.799 38.005,76.199 Q38.966,76.6 39.562,77.4 Q39.933,77.889 40.09,78.606 Q40.246,79.324 40.246,80.76 z" fill="#0142F2"/>
    <path d="M52.306,86.443 Q51.584,86.863 50.817,87.073 Q50.05,87.283 49.25,87.283 Q46.711,87.283 45.28,85.76 Q43.849,84.236 43.849,81.541 Q43.849,78.846 45.28,77.322 Q46.711,75.799 49.25,75.799 Q50.041,75.799 50.793,76.004 Q51.545,76.209 52.306,76.639 L52.306,78.523 Q51.593,77.889 50.876,77.605 Q50.158,77.322 49.25,77.322 Q47.56,77.322 46.652,78.416 Q45.744,79.51 45.744,81.541 Q45.744,83.562 46.657,84.661 Q47.57,85.76 49.25,85.76 Q50.187,85.76 50.929,85.472 Q51.672,85.184 52.306,84.578 z" fill="#0142F2"/>
    <path d="M59.982,72.957 L59.982,76.062 L64.064,76.062 L64.064,77.459 L59.982,77.459 L59.982,83.396 Q59.982,84.607 60.441,85.086 Q60.9,85.564 62.043,85.564 L64.064,85.564 L64.064,87 L61.867,87 Q59.845,87 59.015,86.189 Q58.185,85.379 58.185,83.396 L58.185,77.459 L55.265,77.459 L55.265,76.062 L58.185,76.062 L58.185,72.957 z" fill="#0142F2"/>
    <path d="M69.113,76.102 L73.713,76.102 L73.713,85.604 L77.277,85.604 L77.277,87 L68.351,87 L68.351,85.604 L71.916,85.604 L71.916,77.498 L69.113,77.498 z M71.916,71.854 L73.713,71.854 L73.713,74.119 L71.916,74.119 z" fill="#0142F2"/>
    <path d="M84.084,77.322 Q82.716,77.322 82.013,78.387 Q81.31,79.451 81.31,81.541 Q81.31,83.621 82.013,84.69 Q82.716,85.76 84.084,85.76 Q85.461,85.76 86.164,84.69 Q86.867,83.621 86.867,81.541 Q86.867,79.451 86.164,78.387 Q85.461,77.322 84.084,77.322 z M84.084,75.799 Q86.359,75.799 87.565,77.273 Q88.771,78.748 88.771,81.541 Q88.771,84.344 87.57,85.813 Q86.369,87.283 84.084,87.283 Q81.808,87.283 80.607,85.813 Q79.406,84.344 79.406,81.541 Q79.406,78.748 80.607,77.273 Q81.808,75.799 84.084,75.799 z" fill="#0142F2"/>
    <path d="M100.373,80.223 L100.373,87 L98.566,87 L98.566,80.223 Q98.566,78.748 98.049,78.055 Q97.531,77.361 96.427,77.361 Q95.168,77.361 94.489,78.255 Q93.81,79.148 93.81,80.818 L93.81,87 L92.013,87 L92.013,76.062 L93.81,76.062 L93.81,77.703 Q94.289,76.766 95.109,76.282 Q95.929,75.799 97.052,75.799 Q98.722,75.799 99.548,76.897 Q100.373,77.996 100.373,80.223 z" fill="#0142F2"/>
    <path d="M117.834,85.34 L124.533,85.34 L124.533,87 L115.675,87 L115.675,85.34 Q117.502,83.416 118.869,81.941 Q120.236,80.467 120.754,79.861 Q121.73,78.67 122.072,77.933 Q122.414,77.195 122.414,76.424 Q122.414,75.203 121.696,74.51 Q120.978,73.816 119.728,73.816 Q118.84,73.816 117.863,74.139 Q116.886,74.461 115.793,75.115 L115.793,73.123 Q116.799,72.645 117.77,72.4 Q118.742,72.156 119.689,72.156 Q121.828,72.156 123.132,73.294 Q124.435,74.432 124.435,76.277 Q124.435,77.215 124.001,78.152 Q123.566,79.09 122.59,80.223 Q122.043,80.857 121.003,81.98 Q119.963,83.104 117.834,85.34 z" fill="#0142F2"/>
    <path d="M36.759,107.752 L36.164,107.752 Q34.591,107.752 33.796,108.304 Q33,108.855 33,109.949 Q33,110.936 33.595,111.482 Q34.191,112.029 35.246,112.029 Q36.73,112.029 37.58,110.999 Q38.429,109.969 38.439,108.152 L38.439,107.752 z M40.246,107.01 L40.246,113.25 L38.439,113.25 L38.439,111.629 Q37.863,112.605 36.989,113.069 Q36.115,113.533 34.865,113.533 Q33.195,113.533 32.199,112.591 Q31.203,111.648 31.203,110.066 Q31.203,108.24 32.428,107.293 Q33.654,106.346 36.027,106.346 L38.439,106.346 L38.439,106.062 Q38.429,104.754 37.775,104.163 Q37.121,103.572 35.685,103.572 Q34.767,103.572 33.83,103.836 Q32.892,104.1 32.004,104.607 L32.004,102.811 Q33,102.43 33.913,102.239 Q34.826,102.049 35.685,102.049 Q37.043,102.049 38.005,102.449 Q38.966,102.85 39.562,103.65 Q39.933,104.139 40.09,104.856 Q40.246,105.574 40.246,107.01 z" fill="#0142F2"/>
    <path d="M52.306,112.693 Q51.584,113.113 50.817,113.323 Q50.05,113.533 49.25,113.533 Q46.711,113.533 45.28,112.01 Q43.849,110.486 43.849,107.791 Q43.849,105.096 45.28,103.572 Q46.711,102.049 49.25,102.049 Q50.041,102.049 50.793,102.254 Q51.545,102.459 52.306,102.889 L52.306,104.773 Q51.593,104.139 50.876,103.855 Q50.158,103.572 49.25,103.572 Q47.56,103.572 46.652,104.666 Q45.744,105.76 45.744,107.791 Q45.744,109.812 46.657,110.911 Q47.57,112.01 49.25,112.01 Q50.187,112.01 50.929,111.722 Q51.672,111.434 52.306,110.828 z" fill="#0142F2"/>
    <path d="M59.982,99.207 L59.982,102.312 L64.064,102.312 L64.064,103.709 L59.982,103.709 L59.982,109.646 Q59.982,110.857 60.441,111.336 Q60.9,111.814 62.043,111.814 L64.064,111.814 L64.064,113.25 L61.867,113.25 Q59.845,113.25 59.015,112.439 Q58.185,111.629 58.185,109.646 L58.185,103.709 L55.265,103.709 L55.265,102.312 L58.185,102.312 L58.185,99.207 z" fill="#0142F2"/>
    <path d="M69.113,102.352 L73.713,102.352 L73.713,111.854 L77.277,111.854 L77.277,113.25 L68.351,113.25 L68.351,111.854 L71.916,111.854 L71.916,103.748 L69.113,103.748 z M71.916,98.104 L73.713,98.104 L73.713,100.369 L71.916,100.369 z" fill="#0142F2"/>
    <path d="M84.084,103.572 Q82.716,103.572 82.013,104.637 Q81.31,105.701 81.31,107.791 Q81.31,109.871 82.013,110.94 Q82.716,112.01 84.084,112.01 Q85.461,112.01 86.164,110.94 Q86.867,109.871 86.867,107.791 Q86.867,105.701 86.164,104.637 Q85.461,103.572 84.084,103.572 z M84.084,102.049 Q86.359,102.049 87.565,103.523 Q88.771,104.998 88.771,107.791 Q88.771,110.594 87.57,112.063 Q86.369,113.533 84.084,113.533 Q81.808,113.533 80.607,112.063 Q79.406,110.594 79.406,107.791 Q79.406,104.998 80.607,103.523 Q81.808,102.049 84.084,102.049 z" fill="#0142F2"/>
    <path d="M100.373,106.473 L100.373,113.25 L98.566,113.25 L98.566,106.473 Q98.566,104.998 98.049,104.305 Q97.531,103.611 96.427,103.611 Q95.168,103.611 94.489,104.505 Q93.81,105.398 93.81,107.068 L93.81,113.25 L92.013,113.25 L92.013,102.312 L93.81,102.312 L93.81,103.953 Q94.289,103.016 95.109,102.532 Q95.929,102.049 97.052,102.049 Q98.722,102.049 99.548,103.147 Q100.373,104.246 100.373,106.473 z" fill="#0142F2"/>
    <path d="M124.455,106.473 L124.455,113.25 L122.648,113.25 L122.648,106.473 Q122.648,104.998 122.131,104.305 Q121.613,103.611 120.509,103.611 Q119.25,103.611 118.571,104.505 Q117.892,105.398 117.892,107.068 L117.892,113.25 L116.095,113.25 L116.095,102.312 L117.892,102.312 L117.892,103.953 Q118.371,103.016 119.191,102.532 Q120.011,102.049 121.134,102.049 Q122.804,102.049 123.63,103.147 Q124.455,104.246 124.455,106.473 z" fill="#0142F2"/>
    <path d="M287.748,21.865 L287.748,16.055 L290.599,16.055 L290.599,31.25 L287.748,31.25 L287.748,29.629 Q287.289,30.576 286.561,31.055 Q285.834,31.533 284.847,31.533 Q282.972,31.533 281.937,30.029 Q280.902,28.525 280.902,25.791 Q280.902,23.018 281.952,21.533 Q283.001,20.049 284.945,20.049 Q285.824,20.049 286.522,20.503 Q287.22,20.957 287.748,21.865 z M283.763,25.811 Q283.763,27.393 284.291,28.291 Q284.818,29.189 285.746,29.189 Q286.673,29.189 287.21,28.291 Q287.748,27.393 287.748,25.811 Q287.748,24.229 287.21,23.33 Q286.673,22.432 285.746,22.432 Q284.818,22.432 284.291,23.33 Q283.763,24.229 283.763,25.811 z" fill="#000000"/>
    <path d="M298.08,22.373 Q297.054,22.373 296.468,23.276 Q295.882,24.18 295.882,25.791 Q295.882,27.402 296.468,28.306 Q297.054,29.209 298.08,29.209 Q299.115,29.209 299.701,28.306 Q300.287,27.402 300.287,25.791 Q300.287,24.18 299.701,23.276 Q299.115,22.373 298.08,22.373 z M293.021,25.791 Q293.021,23.145 294.393,21.597 Q295.765,20.049 298.08,20.049 Q300.404,20.049 301.776,21.597 Q303.148,23.145 303.148,25.791 Q303.148,28.438 301.776,29.985 Q300.404,31.533 298.08,31.533 Q295.765,31.533 294.393,29.985 Q293.021,28.438 293.021,25.791 z" fill="#000000"/>
    <path d="M322.089,15.098 Q320.79,17.324 320.15,19.536 Q319.51,21.748 319.51,23.994 Q319.51,26.23 320.15,28.447 Q320.79,30.664 322.089,32.91 L320.526,32.91 Q319.051,30.586 318.329,28.384 Q317.606,26.182 317.606,23.994 Q317.606,21.816 318.329,19.609 Q319.051,17.402 320.526,15.098 z" fill="#F42300"/>
    <path d="M336.141,30.693 Q335.419,31.113 334.652,31.323 Q333.885,31.533 333.085,31.533 Q330.546,31.533 329.115,30.01 Q327.684,28.486 327.684,25.791 Q327.684,23.096 329.115,21.572 Q330.546,20.049 333.085,20.049 Q333.876,20.049 334.628,20.254 Q335.38,20.459 336.141,20.889 L336.141,22.773 Q335.428,22.139 334.711,21.855 Q333.993,21.572 333.085,21.572 Q331.395,21.572 330.487,22.666 Q329.579,23.76 329.579,25.791 Q329.579,27.812 330.492,28.911 Q331.405,30.01 333.085,30.01 Q334.022,30.01 334.764,29.722 Q335.507,29.434 336.141,28.828 z" fill="#F42300"/>
    <path d="M343.837,21.572 Q342.469,21.572 341.766,22.637 Q341.063,23.701 341.063,25.791 Q341.063,27.871 341.766,28.94 Q342.469,30.01 343.837,30.01 Q345.214,30.01 345.917,28.94 Q346.62,27.871 346.62,25.791 Q346.62,23.701 345.917,22.637 Q345.214,21.572 343.837,21.572 z M343.837,20.049 Q346.112,20.049 347.318,21.523 Q348.524,22.998 348.524,25.791 Q348.524,28.594 347.323,30.063 Q346.122,31.533 343.837,31.533 Q341.561,31.533 340.36,30.063 Q339.159,28.594 339.159,25.791 Q339.159,22.998 340.36,21.523 Q341.561,20.049 343.837,20.049 z" fill="#F42300"/>
    <path d="M360.126,24.473 L360.126,31.25 L358.319,31.25 L358.319,24.473 Q358.319,22.998 357.801,22.305 Q357.284,21.611 356.18,21.611 Q354.921,21.611 354.242,22.505 Q353.563,23.398 353.563,25.068 L353.563,31.25 L351.766,31.25 L351.766,20.312 L353.563,20.312 L353.563,21.953 Q354.042,21.016 354.862,20.532 Q355.682,20.049 356.805,20.049 Q358.475,20.049 359.301,21.147 Q360.126,22.246 360.126,24.473 z" fill="#F42300"/>
    <path d="M370.282,21.709 L370.282,16.055 L372.079,16.055 L372.079,31.25 L370.282,31.25 L370.282,29.873 Q369.833,30.684 369.086,31.108 Q368.339,31.533 367.362,31.533 Q365.38,31.533 364.242,29.995 Q363.104,28.457 363.104,25.752 Q363.104,23.086 364.247,21.567 Q365.389,20.049 367.362,20.049 Q368.348,20.049 369.1,20.474 Q369.852,20.898 370.282,21.709 z M364.999,25.791 Q364.999,27.881 365.663,28.945 Q366.327,30.01 367.626,30.01 Q368.925,30.01 369.603,28.936 Q370.282,27.861 370.282,25.791 Q370.282,23.711 369.603,22.642 Q368.925,21.572 367.626,21.572 Q366.327,21.572 365.663,22.637 Q364.999,23.701 364.999,25.791 z" fill="#F42300"/>
    <path d="M377.03,20.352 L381.63,20.352 L381.63,29.854 L385.194,29.854 L385.194,31.25 L376.268,31.25 L376.268,29.854 L379.833,29.854 L379.833,21.748 L377.03,21.748 z M379.833,16.104 L381.63,16.104 L381.63,18.369 L379.833,18.369 z" fill="#F42300"/>
    <path d="M391.981,17.207 L391.981,20.312 L396.063,20.312 L396.063,21.709 L391.981,21.709 L391.981,27.646 Q391.981,28.857 392.44,29.336 Q392.899,29.814 394.042,29.814 L396.063,29.814 L396.063,31.25 L393.866,31.25 Q391.844,31.25 391.014,30.439 Q390.184,29.629 390.184,27.646 L390.184,21.709 L387.264,21.709 L387.264,20.312 L390.184,20.312 L390.184,17.207 z" fill="#F42300"/>
    <path d="M401.112,20.352 L405.712,20.352 L405.712,29.854 L409.276,29.854 L409.276,31.25 L400.35,31.25 L400.35,29.854 L403.915,29.854 L403.915,21.748 L401.112,21.748 z M403.915,16.104 L405.712,16.104 L405.712,18.369 L403.915,18.369 z" fill="#F42300"/>
    <path d="M416.083,21.572 Q414.716,21.572 414.012,22.637 Q413.309,23.701 413.309,25.791 Q413.309,27.871 414.012,28.94 Q414.716,30.01 416.083,30.01 Q417.46,30.01 418.163,28.94 Q418.866,27.871 418.866,25.791 Q418.866,23.701 418.163,22.637 Q417.46,21.572 416.083,21.572 z M416.083,20.049 Q418.358,20.049 419.564,21.523 Q420.77,22.998 420.77,25.791 Q420.77,28.594 419.569,30.063 Q418.368,31.533 416.083,31.533 Q413.807,31.533 412.606,30.063 Q411.405,28.594 411.405,25.791 Q411.405,22.998 412.606,21.523 Q413.807,20.049 416.083,20.049 z" fill="#F42300"/>
    <path d="M432.372,24.473 L432.372,31.25 L430.565,31.25 L430.565,24.473 Q430.565,22.998 430.048,22.305 Q429.53,21.611 428.426,21.611 Q427.167,21.611 426.488,22.505 Q425.809,23.398 425.809,25.068 L425.809,31.25 L424.012,31.25 L424.012,20.312 L425.809,20.312 L425.809,21.953 Q426.288,21.016 427.108,20.532 Q427.928,20.049 429.051,20.049 Q430.721,20.049 431.547,21.147 Q432.372,22.246 432.372,24.473 z" fill="#F42300"/>
    <path d="M437.548,15.098 L439.11,15.098 Q440.585,17.402 441.307,19.609 Q442.03,21.816 442.03,23.994 Q442.03,26.191 441.307,28.398 Q440.585,30.605 439.11,32.91 L437.548,32.91 Q438.846,30.645 439.486,28.428 Q440.126,26.211 440.126,23.994 Q440.126,21.768 439.486,19.551 Q438.846,17.334 437.548,15.098 z" fill="#F42300"/>
    <path d="M281.781,149.08 L282.962,149.08 Q283.978,149.08 284.33,148.661 Q284.681,148.241 284.681,146.844 L284.681,144.842 Q284.681,143.241 285.16,142.577 Q285.638,141.913 286.859,141.707 Q285.628,141.522 285.155,140.868 Q284.681,140.213 284.681,138.602 L284.681,136.561 Q284.681,135.184 284.335,134.764 Q283.988,134.344 282.962,134.344 L281.781,134.344 L281.781,132.489 L283.246,132.489 Q285.668,132.489 286.483,133.206 Q287.298,133.924 287.298,136.082 L287.298,138.182 Q287.298,139.657 287.831,140.218 Q288.363,140.78 289.74,140.78 L290.345,140.78 L290.345,142.645 L289.74,142.645 Q288.363,142.645 287.831,143.211 Q287.298,143.778 287.298,145.243 L287.298,147.342 Q287.298,149.5 286.483,150.223 Q285.668,150.946 283.246,150.946 L281.781,150.946 z" fill="#000000"/>
    <path d="M303.594,70.186 L302.999,70.186 Q301.426,70.186 300.631,70.738 Q299.835,71.289 299.835,72.383 Q299.835,73.37 300.43,73.916 Q301.026,74.463 302.081,74.463 Q303.565,74.463 304.415,73.433 Q305.264,72.403 305.274,70.586 L305.274,70.186 z M307.081,69.444 L307.081,75.684 L305.274,75.684 L305.274,74.063 Q304.698,75.039 303.824,75.503 Q302.95,75.967 301.7,75.967 Q300.03,75.967 299.034,75.025 Q298.038,74.082 298.038,72.5 Q298.038,70.674 299.263,69.727 Q300.489,68.78 302.862,68.78 L305.274,68.78 L305.274,68.496 Q305.264,67.188 304.61,66.597 Q303.956,66.006 302.52,66.006 Q301.602,66.006 300.665,66.27 Q299.727,66.534 298.839,67.041 L298.839,65.245 Q299.835,64.864 300.748,64.673 Q301.661,64.483 302.52,64.483 Q303.878,64.483 304.84,64.883 Q305.801,65.284 306.397,66.084 Q306.768,66.573 306.925,67.29 Q307.081,68.008 307.081,69.444 z" fill="#0142F2"/>
    <path d="M319.141,75.127 Q318.419,75.547 317.652,75.757 Q316.885,75.967 316.085,75.967 Q313.546,75.967 312.115,74.444 Q310.684,72.92 310.684,70.225 Q310.684,67.53 312.115,66.006 Q313.546,64.483 316.085,64.483 Q316.876,64.483 317.628,64.688 Q318.38,64.893 319.141,65.323 L319.141,67.207 Q318.428,66.573 317.711,66.289 Q316.993,66.006 316.085,66.006 Q314.395,66.006 313.487,67.1 Q312.579,68.194 312.579,70.225 Q312.579,72.246 313.492,73.345 Q314.405,74.444 316.085,74.444 Q317.022,74.444 317.764,74.156 Q318.507,73.868 319.141,73.262 z" fill="#0142F2"/>
    <path d="M326.817,61.641 L326.817,64.746 L330.899,64.746 L330.899,66.143 L326.817,66.143 L326.817,72.08 Q326.817,73.291 327.276,73.77 Q327.735,74.248 328.878,74.248 L330.899,74.248 L330.899,75.684 L328.702,75.684 Q326.68,75.684 325.85,74.873 Q325.02,74.063 325.02,72.08 L325.02,66.143 L322.1,66.143 L322.1,64.746 L325.02,64.746 L325.02,61.641 z" fill="#0142F2"/>
    <path d="M335.948,64.786 L340.548,64.786 L340.548,74.288 L344.112,74.288 L344.112,75.684 L335.186,75.684 L335.186,74.288 L338.751,74.288 L338.751,66.182 L335.948,66.182 z M338.751,60.538 L340.548,60.538 L340.548,62.803 L338.751,62.803 z" fill="#0142F2"/>
    <path d="M350.919,66.006 Q349.551,66.006 348.848,67.071 Q348.145,68.135 348.145,70.225 Q348.145,72.305 348.848,73.374 Q349.551,74.444 350.919,74.444 Q352.296,74.444 352.999,73.374 Q353.702,72.305 353.702,70.225 Q353.702,68.135 352.999,67.071 Q352.296,66.006 350.919,66.006 z M350.919,64.483 Q353.194,64.483 354.4,65.957 Q355.606,67.432 355.606,70.225 Q355.606,73.028 354.405,74.497 Q353.204,75.967 350.919,75.967 Q348.643,75.967 347.442,74.497 Q346.241,73.028 346.241,70.225 Q346.241,67.432 347.442,65.957 Q348.643,64.483 350.919,64.483 z" fill="#0142F2"/>
    <path d="M367.208,68.907 L367.208,75.684 L365.401,75.684 L365.401,68.907 Q365.401,67.432 364.884,66.739 Q364.366,66.045 363.262,66.045 Q362.003,66.045 361.324,66.939 Q360.645,67.832 360.645,69.502 L360.645,75.684 L358.848,75.684 L358.848,64.746 L360.645,64.746 L360.645,66.387 Q361.124,65.45 361.944,64.966 Q362.764,64.483 363.887,64.483 Q365.557,64.483 366.383,65.581 Q367.208,66.68 367.208,68.907 z" fill="#0142F2"/>
    <path d="M383.663,74.034 L386.729,74.034 L386.729,63.018 L383.057,64.786 L383.057,62.891 L386.71,61.153 L388.682,61.153 L388.682,74.034 L391.71,74.034 L391.71,75.684 L383.663,75.684 z" fill="#0142F2"/>
    <path d="M397.384,72.159 L400.43,72.159 L400.43,74.746 L398.507,78.477 L396.417,78.477 L397.384,74.746 z M397.257,64.756 L400.303,64.756 L400.303,68.282 L397.257,68.282 z" fill="#0142F2"/>
    <path d="M303.594,93.002 L302.999,93.002 Q301.426,93.002 300.631,93.554 Q299.835,94.105 299.835,95.199 Q299.835,96.186 300.43,96.732 Q301.026,97.279 302.081,97.279 Q303.565,97.279 304.415,96.249 Q305.264,95.219 305.274,93.402 L305.274,93.002 z M307.081,92.26 L307.081,98.5 L305.274,98.5 L305.274,96.879 Q304.698,97.855 303.824,98.319 Q302.95,98.783 301.7,98.783 Q300.03,98.783 299.034,97.841 Q298.038,96.898 298.038,95.316 Q298.038,93.49 299.263,92.543 Q300.489,91.596 302.862,91.596 L305.274,91.596 L305.274,91.312 Q305.264,90.004 304.61,89.413 Q303.956,88.822 302.52,88.822 Q301.602,88.822 300.665,89.086 Q299.727,89.35 298.839,89.857 L298.839,88.061 Q299.835,87.68 300.748,87.489 Q301.661,87.299 302.52,87.299 Q303.878,87.299 304.84,87.699 Q305.801,88.1 306.397,88.9 Q306.768,89.389 306.925,90.106 Q307.081,90.824 307.081,92.26 z" fill="#0142F2"/>
    <path d="M319.141,97.943 Q318.419,98.363 317.652,98.573 Q316.885,98.783 316.085,98.783 Q313.546,98.783 312.115,97.26 Q310.684,95.736 310.684,93.041 Q310.684,90.346 312.115,88.822 Q313.546,87.299 316.085,87.299 Q316.876,87.299 317.628,87.504 Q318.38,87.709 319.141,88.139 L319.141,90.023 Q318.428,89.389 317.711,89.105 Q316.993,88.822 316.085,88.822 Q314.395,88.822 313.487,89.916 Q312.579,91.01 312.579,93.041 Q312.579,95.062 313.492,96.161 Q314.405,97.26 316.085,97.26 Q317.022,97.26 317.764,96.972 Q318.507,96.684 319.141,96.078 z" fill="#0142F2"/>
    <path d="M326.817,84.457 L326.817,87.562 L330.899,87.562 L330.899,88.959 L326.817,88.959 L326.817,94.896 Q326.817,96.107 327.276,96.586 Q327.735,97.064 328.878,97.064 L330.899,97.064 L330.899,98.5 L328.702,98.5 Q326.68,98.5 325.85,97.689 Q325.02,96.879 325.02,94.896 L325.02,88.959 L322.1,88.959 L322.1,87.562 L325.02,87.562 L325.02,84.457 z" fill="#0142F2"/>
    <path d="M335.948,87.602 L340.548,87.602 L340.548,97.104 L344.112,97.104 L344.112,98.5 L335.186,98.5 L335.186,97.104 L338.751,97.104 L338.751,88.998 L335.948,88.998 z M338.751,83.354 L340.548,83.354 L340.548,85.619 L338.751,85.619 z" fill="#0142F2"/>
    <path d="M350.919,88.822 Q349.551,88.822 348.848,89.887 Q348.145,90.951 348.145,93.041 Q348.145,95.121 348.848,96.19 Q349.551,97.26 350.919,97.26 Q352.296,97.26 352.999,96.19 Q353.702,95.121 353.702,93.041 Q353.702,90.951 352.999,89.887 Q352.296,88.822 350.919,88.822 z M350.919,87.299 Q353.194,87.299 354.4,88.773 Q355.606,90.248 355.606,93.041 Q355.606,95.844 354.405,97.313 Q353.204,98.783 350.919,98.783 Q348.643,98.783 347.442,97.313 Q346.241,95.844 346.241,93.041 Q346.241,90.248 347.442,88.773 Q348.643,87.299 350.919,87.299 z" fill="#0142F2"/>
    <path d="M367.208,91.723 L367.208,98.5 L365.401,98.5 L365.401,91.723 Q365.401,90.248 364.884,89.555 Q364.366,88.861 363.262,88.861 Q362.003,88.861 361.324,89.755 Q360.645,90.648 360.645,92.318 L360.645,98.5 L358.848,98.5 L358.848,87.562 L360.645,87.562 L360.645,89.203 Q361.124,88.266 361.944,87.782 Q362.764,87.299 363.887,87.299 Q365.557,87.299 366.383,88.397 Q367.208,89.496 367.208,91.723 z" fill="#0142F2"/>
    <path d="M384.669,96.84 L391.368,96.84 L391.368,98.5 L382.51,98.5 L382.51,96.84 Q384.337,94.916 385.704,93.441 Q387.071,91.967 387.589,91.361 Q388.565,90.17 388.907,89.433 Q389.249,88.695 389.249,87.924 Q389.249,86.703 388.531,86.01 Q387.813,85.316 386.563,85.316 Q385.675,85.316 384.698,85.639 Q383.721,85.961 382.628,86.615 L382.628,84.623 Q383.634,84.145 384.605,83.9 Q385.577,83.656 386.524,83.656 Q388.663,83.656 389.967,84.794 Q391.27,85.932 391.27,87.777 Q391.27,88.715 390.836,89.652 Q390.401,90.59 389.425,91.723 Q388.878,92.357 387.838,93.48 Q386.798,94.604 384.669,96.84 z" fill="#0142F2"/>
    <path d="M397.384,94.975 L400.43,94.975 L400.43,97.562 L398.507,101.293 L396.417,101.293 L397.384,97.562 z M397.257,87.572 L400.303,87.572 L400.303,91.098 L397.257,91.098 z" fill="#0142F2"/>
    <path d="M303.594,117.252 L302.999,117.252 Q301.426,117.252 300.631,117.804 Q299.835,118.355 299.835,119.449 Q299.835,120.436 300.43,120.982 Q301.026,121.529 302.081,121.529 Q303.565,121.529 304.415,120.499 Q305.264,119.469 305.274,117.652 L305.274,117.252 z M307.081,116.51 L307.081,122.75 L305.274,122.75 L305.274,121.129 Q304.698,122.105 303.824,122.569 Q302.95,123.033 301.7,123.033 Q300.03,123.033 299.034,122.091 Q298.038,121.148 298.038,119.566 Q298.038,117.74 299.263,116.793 Q300.489,115.846 302.862,115.846 L305.274,115.846 L305.274,115.562 Q305.264,114.254 304.61,113.663 Q303.956,113.072 302.52,113.072 Q301.602,113.072 300.665,113.336 Q299.727,113.6 298.839,114.107 L298.839,112.311 Q299.835,111.93 300.748,111.739 Q301.661,111.549 302.52,111.549 Q303.878,111.549 304.84,111.949 Q305.801,112.35 306.397,113.15 Q306.768,113.639 306.925,114.356 Q307.081,115.074 307.081,116.51 z" fill="#0142F2"/>
    <path d="M319.141,122.193 Q318.419,122.613 317.652,122.823 Q316.885,123.033 316.085,123.033 Q313.546,123.033 312.115,121.51 Q310.684,119.986 310.684,117.291 Q310.684,114.596 312.115,113.072 Q313.546,111.549 316.085,111.549 Q316.876,111.549 317.628,111.754 Q318.38,111.959 319.141,112.389 L319.141,114.273 Q318.428,113.639 317.711,113.355 Q316.993,113.072 316.085,113.072 Q314.395,113.072 313.487,114.166 Q312.579,115.26 312.579,117.291 Q312.579,119.312 313.492,120.411 Q314.405,121.51 316.085,121.51 Q317.022,121.51 317.764,121.222 Q318.507,120.934 319.141,120.328 z" fill="#0142F2"/>
    <path d="M326.817,108.707 L326.817,111.812 L330.899,111.812 L330.899,113.209 L326.817,113.209 L326.817,119.146 Q326.817,120.357 327.276,120.836 Q327.735,121.314 328.878,121.314 L330.899,121.314 L330.899,122.75 L328.702,122.75 Q326.68,122.75 325.85,121.939 Q325.02,121.129 325.02,119.146 L325.02,113.209 L322.1,113.209 L322.1,111.812 L325.02,111.812 L325.02,108.707 z" fill="#0142F2"/>
    <path d="M335.948,111.852 L340.548,111.852 L340.548,121.354 L344.112,121.354 L344.112,122.75 L335.186,122.75 L335.186,121.354 L338.751,121.354 L338.751,113.248 L335.948,113.248 z M338.751,107.604 L340.548,107.604 L340.548,109.869 L338.751,109.869 z" fill="#0142F2"/>
    <path d="M350.919,113.072 Q349.551,113.072 348.848,114.137 Q348.145,115.201 348.145,117.291 Q348.145,119.371 348.848,120.44 Q349.551,121.51 350.919,121.51 Q352.296,121.51 352.999,120.44 Q353.702,119.371 353.702,117.291 Q353.702,115.201 352.999,114.137 Q352.296,113.072 350.919,113.072 z M350.919,111.549 Q353.194,111.549 354.4,113.023 Q355.606,114.498 355.606,117.291 Q355.606,120.094 354.405,121.563 Q353.204,123.033 350.919,123.033 Q348.643,123.033 347.442,121.563 Q346.241,120.094 346.241,117.291 Q346.241,114.498 347.442,113.023 Q348.643,111.549 350.919,111.549 z" fill="#0142F2"/>
    <path d="M367.208,115.973 L367.208,122.75 L365.401,122.75 L365.401,115.973 Q365.401,114.498 364.884,113.805 Q364.366,113.111 363.262,113.111 Q362.003,113.111 361.324,114.005 Q360.645,114.898 360.645,116.568 L360.645,122.75 L358.848,122.75 L358.848,111.812 L360.645,111.812 L360.645,113.453 Q361.124,112.516 361.944,112.032 Q362.764,111.549 363.887,111.549 Q365.557,111.549 366.383,112.647 Q367.208,113.746 367.208,115.973 z" fill="#0142F2"/>
    <path d="M391.29,115.973 L391.29,122.75 L389.483,122.75 L389.483,115.973 Q389.483,114.498 388.966,113.805 Q388.448,113.111 387.344,113.111 Q386.085,113.111 385.406,114.005 Q384.727,114.898 384.727,116.568 L384.727,122.75 L382.93,122.75 L382.93,111.812 L384.727,111.812 L384.727,113.453 Q385.206,112.516 386.026,112.032 Q386.846,111.549 387.969,111.549 Q389.639,111.549 390.465,112.647 Q391.29,113.746 391.29,115.973 z" fill="#0142F2"/>
    <path d="M397.384,119.225 L400.43,119.225 L400.43,121.812 L398.507,125.543 L396.417,125.543 L397.384,121.812 z M397.257,111.822 L400.303,111.822 L400.303,115.348 L397.257,115.348 z" fill="#0142F2"/>
    <path d="M290.306,56.646 L290.306,58.512 L288.841,58.512 Q286.41,58.512 285.585,57.789 Q284.759,57.066 284.759,54.908 L284.759,52.809 Q284.759,51.334 284.237,50.772 Q283.714,50.211 282.347,50.211 L281.742,50.211 L281.742,48.346 L282.347,48.346 Q283.714,48.346 284.237,47.789 Q284.759,47.232 284.759,45.748 L284.759,43.648 Q284.759,41.49 285.585,40.772 Q286.41,40.055 288.841,40.055 L290.306,40.055 L290.306,41.91 L289.105,41.91 Q288.089,41.91 287.748,42.32 Q287.406,42.73 287.406,44.127 L287.406,46.168 Q287.406,47.779 286.927,48.434 Q286.449,49.088 285.218,49.273 Q286.449,49.479 286.927,50.143 Q287.406,50.807 287.406,52.408 L287.406,54.41 Q287.406,55.816 287.748,56.231 Q288.089,56.646 289.105,56.646 z" fill="#000000"/>
    <path d="M355.842,199.069 Q353.847,204.046 351.852,204.067 Q349.437,204.088 348.324,201.568 Q347.463,199.636 347.442,196.507 Q347.421,192.979 348.366,190.081 Q349.458,186.7 351.327,186.49 Q351.6,186.469 351.852,186.469 Q353.595,186.469 354.54,188.023 Q355.233,189.199 355.716,191.761 Q356.073,192.79 356.073,193.021 Q356.073,193.714 355.212,194.092 Q355.023,194.176 354.771,194.176 Q354.162,194.176 353.427,193.777 Q352.566,193.315 352.566,192.769 Q352.566,192.685 352.86,191.95 Q352.818,191.026 352.524,190.197 Q352.23,189.367 351.852,189.283 Q351.264,189.136 350.823,191.614 Q350.445,193.672 350.361,196.15 Q350.298,198.019 350.571,199.615 Q350.886,201.442 351.516,201.568 Q351.894,201.631 352.419,200.623 Q352.923,199.699 353.259,198.439 Q353.217,198.229 353.217,198.04 Q353.217,196.801 354.729,196.801 Q355.065,196.801 355.401,196.864 Q356.43,197.074 356.43,197.893 Q356.43,198.565 355.842,199.069 z" fill="#000000"/>
    <path d="M366.615,188.002 Q366.615,188.254 366.195,188.632 Q365.691,189.052 365.565,189.304 L359.097,201.568 Q358.971,201.778 358.614,202.954 Q358.362,203.71 358.047,203.773 Q357.543,203.878 356.766,203.437 Q355.905,202.933 355.905,202.24 Q355.926,201.904 356.199,201.568 Q356.598,201.085 356.661,200.98 L363.591,188.002 Q363.675,187.855 363.822,187.162 Q363.948,186.658 364.263,186.49 Q364.473,186.385 364.746,186.385 Q365.397,186.385 366.006,186.847 Q366.636,187.372 366.615,188.002 z" fill="#000000"/>
    <path d="M374.847,199.069 Q372.852,204.046 370.857,204.067 Q368.442,204.088 367.329,201.568 Q366.468,199.636 366.447,196.507 Q366.426,192.979 367.371,190.081 Q368.463,186.7 370.332,186.49 Q370.605,186.469 370.857,186.469 Q372.6,186.469 373.545,188.023 Q374.238,189.199 374.721,191.761 Q375.078,192.79 375.078,193.021 Q375.078,193.714 374.217,194.092 Q374.028,194.176 373.776,194.176 Q373.167,194.176 372.432,193.777 Q371.571,193.315 371.571,192.769 Q371.571,192.685 371.865,191.95 Q371.823,191.026 371.529,190.197 Q371.235,189.367 370.857,189.283 Q370.269,189.136 369.828,191.614 Q369.45,193.672 369.366,196.15 Q369.303,198.019 369.576,199.615 Q369.891,201.442 370.521,201.568 Q370.899,201.631 371.424,200.623 Q371.928,199.699 372.264,198.439 Q372.222,198.229 372.222,198.04 Q372.222,196.801 373.734,196.801 Q374.07,196.801 374.406,196.864 Q375.435,197.074 375.435,197.893 Q375.435,198.565 374.847,199.069 z" fill="#000000"/>
    <path d="M383.856,195.037 Q383.52,195.016 382.785,195.058 L381.273,195.31 L381.441,196.654 Q381.462,196.843 381.577,197.189 Q381.693,197.536 381.693,197.704 Q381.693,198.166 381.168,198.418 Q380.748,198.628 380.223,198.628 Q379.509,198.628 379.225,198.302 Q378.942,197.977 378.837,197.231 Q378.732,196.486 378.627,195.688 L377.745,196.066 Q377.367,196.234 376.989,196.192 Q376.527,196.15 376.212,195.667 Q375.897,195.184 375.897,194.617 Q375.897,194.26 376.086,193.893 Q376.275,193.525 376.611,193.525 Q376.695,193.525 376.947,193.609 Q377.199,193.693 377.367,193.672 L378.417,193.504 L378.207,191.782 Q378.186,191.656 378.102,191.425 Q378.018,191.194 378.018,191.068 Q378.018,190.69 378.795,190.459 Q379.362,190.291 379.866,190.291 Q381.105,190.291 381.105,190.858 Q381.105,190.963 380.989,191.225 Q380.874,191.488 380.895,191.656 L381.021,193.168 L381.945,193 Q382.134,192.958 382.554,192.832 Q382.911,192.706 383.121,192.706 Q383.625,192.706 384.034,193.189 Q384.444,193.672 384.444,194.197 Q384.444,194.869 383.856,195.037 z" fill="#000000"/>
    <path d="M393.096,195.037 Q392.76,195.016 392.025,195.058 L390.513,195.31 L390.681,196.654 Q390.702,196.843 390.817,197.189 Q390.933,197.536 390.933,197.704 Q390.933,198.166 390.408,198.418 Q389.988,198.628 389.463,198.628 Q388.749,198.628 388.465,198.302 Q388.182,197.977 388.077,197.231 Q387.972,196.486 387.867,195.688 L386.985,196.066 Q386.607,196.234 386.229,196.192 Q385.767,196.15 385.452,195.667 Q385.137,195.184 385.137,194.617 Q385.137,194.26 385.326,193.893 Q385.515,193.525 385.851,193.525 Q385.935,193.525 386.187,193.609 Q386.439,193.693 386.607,193.672 L387.657,193.504 L387.447,191.782 Q387.426,191.656 387.342,191.425 Q387.258,191.194 387.258,191.068 Q387.258,190.69 388.035,190.459 Q388.602,190.291 389.106,190.291 Q390.345,190.291 390.345,190.858 Q390.345,190.963 390.229,191.225 Q390.114,191.488 390.135,191.656 L390.261,193.168 L391.185,193 Q391.374,192.958 391.794,192.832 Q392.151,192.706 392.361,192.706 Q392.865,192.706 393.274,193.189 Q393.684,193.672 393.684,194.197 Q393.684,194.869 393.096,195.037 z" fill="#000000"/>
  </g>
</svg>
