<?xml version="1.0" encoding="UTF-8"?>
<!DOCTYPE svg PUBLIC "-//W3C//DTD SVG 1.1//EN" "http://www.w3.org/Graphics/SVG/1.1/DTD/svg11.dtd">
<svg version="1.1" xmlns="http://www.w3.org/2000/svg" xmlns:xlink="http://www.w3.org/1999/xlink" x="0" y="0" width="507.171" height="211.5" viewBox="0, 0, 507.171, 211.5">
  <g id="Calque_1" transform="translate(-0, 0)">
    <path d="M21.813,0 L212.678,0 C224.725,0 234.491,10.77 234.491,24.056 L234.491,187.443 C234.491,200.729 224.725,211.5 212.678,211.5 L21.813,211.5 C9.766,211.5 0,200.729 0,187.443 L0,24.056 C0,10.77 9.766,0 21.813,0 z" fill="#FFF4B8" fill-opacity="0.5"/>
    <path d="M293.843,0 L485.291,0 C497.375,0 507.171,10.77 507.171,24.056 L507.171,187.443 C507.171,200.729 497.375,211.5 485.291,211.5 L293.843,211.5 C281.76,211.5 271.964,200.729 271.964,187.443 L271.964,24.056 C271.964,10.77 281.76,0 293.843,0 z" fill="#FFF4B8" fill-opacity="0.5"/>
    <path d="M24.918,19.209 L18.717,19.209 L18.717,22.354 L24.362,22.354 L24.362,24.893 L18.717,24.893 L18.717,31.25 L15.836,31.25 L15.836,16.67 L24.918,16.67 z" fill="#000000"/>
    <path d="M32.936,26.113 Q31.334,26.113 30.7,26.523 Q30.065,26.934 30.065,27.93 Q30.065,28.672 30.504,29.111 Q30.944,29.551 31.696,29.551 Q32.829,29.551 33.454,28.696 Q34.079,27.842 34.079,26.309 L34.079,26.113 z M36.92,25.01 L36.92,31.25 L34.079,31.25 L34.079,30.029 Q33.561,30.752 32.75,31.143 Q31.94,31.533 30.963,31.533 Q29.098,31.533 28.058,30.547 Q27.018,29.561 27.018,27.793 Q27.018,25.879 28.258,24.966 Q29.498,24.053 32.096,24.053 L34.079,24.053 L34.079,23.574 Q34.079,22.881 33.576,22.524 Q33.073,22.168 32.096,22.168 Q31.071,22.168 30.109,22.427 Q29.147,22.686 28.102,23.252 L28.102,20.811 Q29.049,20.42 30.026,20.234 Q31.002,20.049 32.096,20.049 Q34.762,20.049 35.841,21.133 Q36.92,22.217 36.92,25.01 z" fill="#000000"/>
    <path d="M40.299,20.312 L45.963,20.312 L45.963,29.053 L49.518,29.053 L49.518,31.25 L39.538,31.25 L39.538,29.053 L43.102,29.053 L43.102,22.51 L40.299,22.51 z M43.102,14.99 L45.963,14.99 L45.963,18.33 L43.102,18.33 z" fill="#000000"/>
    <path d="M61.422,23.33 Q60.954,22.9 60.324,22.686 Q59.694,22.471 58.942,22.471 Q58.034,22.471 57.355,22.788 Q56.676,23.105 56.305,23.711 Q56.071,24.082 55.978,24.609 Q55.885,25.137 55.885,26.211 L55.885,31.25 L53.024,31.25 L53.024,20.312 L55.885,20.312 L55.885,22.012 Q56.305,21.074 57.174,20.562 Q58.043,20.049 59.205,20.049 Q59.791,20.049 60.353,20.19 Q60.914,20.332 61.422,20.605 z" fill="#000000"/>
    <path d="M72.985,30.713 Q71.989,31.123 70.954,31.328 Q69.918,31.533 68.766,31.533 Q66.022,31.533 64.572,30.063 Q63.122,28.594 63.122,25.83 Q63.122,23.154 64.518,21.602 Q65.914,20.049 68.327,20.049 Q70.758,20.049 72.101,21.489 Q73.444,22.93 73.444,25.547 L73.444,26.709 L66.032,26.709 Q66.041,27.998 66.793,28.633 Q67.545,29.268 69.039,29.268 Q70.026,29.268 70.983,28.984 Q71.94,28.701 72.985,28.086 z M70.563,24.561 Q70.543,23.428 69.982,22.847 Q69.42,22.266 68.327,22.266 Q67.34,22.266 66.754,22.866 Q66.168,23.467 66.061,24.57 z" fill="#000000"/>
    <path d="M17.637,38 L17.637,132.184" fill-opacity="0" stroke="#000000" stroke-width="2"/>
    <path d="M63.52,199.216 Q63.373,199.489 62.869,199.552 Q62.827,199.552 61.966,199.594 Q62.113,200.539 63.058,201.946 Q63.604,202.345 63.604,202.996 Q63.604,204.025 62.344,204.025 Q61.147,204.025 60.706,203.416 Q60.559,203.206 60.517,202.849 Q60.517,202.618 60.496,202.366 Q60.307,202.177 59.362,199.93 Q57.64,200.182 55.12,200.644 Q54.868,201.253 54.574,202.408 Q54.616,202.618 54.616,202.807 Q54.616,203.374 54.238,203.679 Q53.86,203.983 53.335,203.983 Q52.747,203.983 52.243,203.542 Q51.739,203.101 51.739,202.513 Q51.739,201.988 52.222,201.568 Q53.797,193.567 56.044,188.338 Q56.002,188.086 56.002,187.834 Q56.002,186.784 56.716,186.448 Q57.01,186.322 57.472,186.322 Q58.354,186.322 58.942,186.595 Q59.698,186.973 59.698,187.729 Q59.698,188.422 59.32,188.968 Q59.719,192.538 61.042,197.2 Q61.168,197.179 61.903,196.99 Q62.344,196.864 62.575,196.864 Q62.848,196.864 63.016,196.99 Q63.751,197.557 63.751,198.376 Q63.751,198.817 63.52,199.216 z M58.48,197.62 Q58.123,196.297 57.346,192.538 Q55.855,195.793 55.582,198.124 z" fill="#000000"/>
    <path d="M68.329,203.605 Q67.909,204.403 66.775,204.403 Q65.725,204.403 65.305,203.689 Q65.179,203.479 65.179,203.227 Q65.179,203.017 65.326,202.534 Q65.473,202.051 65.473,201.736 L65.389,188.17 Q65.389,187.057 65.389,187.036 Q65.452,186.763 65.977,186.585 Q66.502,186.406 67.09,186.406 Q67.951,186.406 68.182,186.721 Q68.413,187.036 68.413,187.372 Q68.413,187.603 68.245,188.139 Q68.077,188.674 68.077,189.01 L68.077,201.61 Q68.077,201.925 68.255,202.439 Q68.434,202.954 68.434,203.185 Q68.434,203.416 68.329,203.605 z" fill="#000000"/>
    <path d="M77.485,192.349 Q77.527,194.155 77.674,198.292 Q77.758,201.211 77.758,202.471 Q77.758,205.243 77.317,206.251 Q76.876,207.259 75.532,207.364 Q73.852,207.511 72.571,206.482 Q71.941,206.293 71.773,206.188 Q71.416,205.978 71.311,205.474 Q71.122,204.487 72.865,204.487 Q73.306,204.487 73.705,204.592 Q73.999,204.655 74.356,205.085 Q74.713,205.516 75.028,205.537 Q75.637,205.579 75.637,203.815 Q75.637,203.059 75.532,201.358 Q74.776,202.639 74.44,203.017 Q73.747,203.731 72.823,203.731 Q71.521,203.731 70.723,201.925 Q69.988,200.266 69.988,197.893 Q69.988,195.457 70.765,193.777 Q71.647,191.887 73.201,191.845 Q74.041,191.824 74.44,192.181 Q74.839,192.538 75.217,192.916 Q74.944,192.16 75.343,191.782 Q75.574,191.551 76.036,191.551 Q76.477,191.551 76.918,191.782 Q77.359,192.013 77.485,192.349 z M74.965,197.704 Q75.049,196.486 74.671,195.394 Q74.251,194.176 73.579,194.176 Q73.033,194.176 72.613,195.394 Q72.235,196.486 72.193,197.704 Q72.151,198.985 72.382,200.014 Q72.676,201.232 73.201,201.232 Q73.663,201.232 74.272,200.046 Q74.881,198.859 74.965,197.704 z" fill="#000000"/>
    <path d="M86.179,192.664 Q87.586,194.092 87.586,197.473 Q87.586,200.098 86.599,201.946 Q85.486,204.025 83.533,204.025 Q81.601,204.025 80.551,202.156 Q79.627,200.518 79.627,197.998 Q79.627,195.772 80.341,194.008 Q81.097,192.118 82.273,191.782 Q82.882,191.614 83.533,191.614 Q85.15,191.614 86.179,192.664 z M83.785,193.672 Q83.092,193.609 82.588,194.974 Q82.147,196.213 82.147,197.578 Q82.147,199.552 82.315,200.371 Q82.609,201.841 83.533,201.988 Q84.121,202.072 84.625,200.371 Q85.108,198.733 85.108,196.864 Q85.108,193.798 83.785,193.672 z" fill="#000000"/>
    <path d="M97.246,192.79 Q97.162,193.231 96.448,193.399 Q95.608,193.609 95.377,193.882 L91.954,197.83 L91.954,201.022 Q91.954,201.484 92.216,201.957 Q92.479,202.429 92.479,202.681 Q92.479,202.933 92.332,203.248 Q91.975,204.046 90.883,204.046 Q90.127,204.046 89.686,203.563 Q89.392,203.248 89.392,202.765 Q89.392,202.597 89.434,202.219 Q89.476,201.841 89.476,201.61 L89.476,193.756 Q89.476,193.567 89.308,193.294 Q89.14,193.021 89.14,192.853 Q89.14,192.727 89.224,192.559 Q89.497,192.055 90.925,192.055 Q92.038,192.055 92.185,192.58 Q92.248,192.79 92.248,192.937 Q92.248,193.168 92.08,193.294 Q91.912,193.42 91.912,193.546 L91.954,194.302 L93.76,192.391 Q94.075,192.034 94.422,191.677 Q94.768,191.32 95.23,191.278 Q95.944,191.215 96.605,191.593 Q97.267,191.971 97.267,192.58 Q97.267,192.685 97.246,192.79 z" fill="#000000"/>
    <path d="M101.593,187.75 Q101.656,187.813 101.656,187.96 Q101.656,188.149 101.53,188.611 Q101.383,189.178 101.341,189.388 Q101.299,189.598 101.383,190.312 Q101.383,190.753 101.12,190.889 Q100.858,191.026 100.459,191.026 Q99.892,191.026 99.304,190.795 Q98.59,190.501 98.59,190.018 Q98.59,189.871 98.716,189.609 Q98.842,189.346 98.863,189.178 Q98.905,189.01 98.863,188.338 Q98.821,187.813 99.073,187.624 Q99.409,187.372 100.27,187.372 Q101.215,187.372 101.593,187.75 z M101.866,192.874 Q101.866,193.168 101.541,193.788 Q101.215,194.407 101.215,194.806 L101.215,200.98 Q101.215,201.4 101.446,202.167 Q101.677,202.933 101.677,203.227 Q101.677,203.647 101.341,203.857 Q100.816,204.193 100.207,204.193 Q99.409,204.193 99.073,203.647 Q98.632,202.975 98.632,199.636 Q98.632,198.838 98.663,197.147 Q98.695,195.457 98.695,194.68 Q98.695,194.386 98.632,193.913 Q98.569,193.441 98.569,193.231 Q98.569,192.538 99.073,192.034 Q99.283,191.824 99.85,191.824 Q100.417,191.824 100.984,192.003 Q101.551,192.181 101.709,192.412 Q101.866,192.643 101.866,192.874 z" fill="#000000"/>
    <path d="M110.749,193.966 Q110.581,193.966 110.224,193.829 Q109.867,193.693 109.678,193.693 Q109.531,193.693 109.384,193.756 L108.607,194.155 L108.607,201.337 Q108.607,201.736 109.037,202.366 Q109.468,202.996 109.384,203.374 Q109.279,203.836 108.764,204.109 Q108.25,204.382 107.662,204.382 Q106.549,204.382 106.129,203.395 Q106.003,203.101 105.982,201.526 Q105.961,200.476 106.003,198.25 Q106.045,195.73 106.045,195.058 Q105.919,195.1 105.625,195.341 Q105.331,195.583 105.037,195.583 Q104.806,195.583 104.449,195.457 Q102.979,194.953 102.979,194.428 Q102.979,194.302 103.042,194.155 Q103.189,193.819 103.588,193.777 Q104.197,193.693 104.323,193.63 Q104.806,193.441 106.087,192.727 L106.087,190.9 Q106.087,190.69 105.971,190.343 Q105.856,189.997 105.856,189.829 Q105.856,189.64 105.961,189.472 Q106.507,188.632 107.431,188.632 Q108.502,188.632 108.943,189.472 Q109.111,189.808 109.111,190.018 Q109.111,190.27 108.859,190.543 Q108.607,190.816 108.607,191.047 L108.607,192.076 Q108.985,191.908 109.447,191.509 Q109.804,191.215 110.056,191.215 Q110.161,191.215 110.287,191.257 Q111.61,191.614 111.61,192.853 Q111.61,193.252 111.368,193.609 Q111.127,193.966 110.749,193.966 z" fill="#000000"/>
    <path d="M121.438,201.736 Q121.564,202.261 121.564,202.408 Q121.564,202.849 121.049,203.133 Q120.535,203.416 119.947,203.416 Q119.044,203.416 118.792,202.744 Q118.687,202.471 118.687,202.282 Q118.687,202.009 118.929,201.694 Q119.17,201.379 119.17,201.106 Q119.422,200.014 119.422,197.956 Q119.422,194.386 118.918,194.302 Q118.54,194.239 117.7,195.499 Q116.818,196.822 116.23,198.46 Q115.537,200.392 115.642,201.862 Q115.579,201.988 115.579,202.114 Q115.579,202.303 115.747,202.65 Q115.915,202.996 115.915,203.206 Q115.915,203.416 115.768,203.605 Q115.201,204.424 114.634,204.424 Q114.046,204.424 113.5,203.5 Q113.185,202.954 113.185,197.221 Q113.185,195.121 113.29,187.666 Q113.29,187.54 113.269,187.278 Q113.248,187.015 113.248,186.868 Q113.269,186.658 113.374,186.49 Q113.605,186.049 114.361,186.049 Q115.033,186.049 115.59,186.406 Q116.146,186.763 116.02,187.246 Q115.999,187.372 115.821,187.54 Q115.642,187.708 115.642,187.876 L115.642,194.638 Q116.839,191.95 119.17,191.782 Q120.43,191.698 121.186,193.672 Q121.879,195.478 121.879,198.103 Q121.879,200.119 121.438,201.736 z" fill="#000000"/>
    <path d="M137.419,203.5 Q137.146,204.277 136.18,204.277 Q134.962,204.277 134.374,203.437 Q134.059,202.975 134.059,200.266 Q134.059,199.867 134.059,199.153 Q134.08,198.418 134.08,198.124 Q134.08,196.654 133.933,196.612 Q133.618,196.486 131.791,202.492 Q131.791,202.513 131.707,203.5 Q131.665,204.109 131.287,204.319 Q131.014,204.466 130.678,204.466 Q130.069,204.466 129.502,204.067 Q128.935,203.668 128.788,203.122 Q128.578,202.345 128.599,200.056 Q128.641,196.717 128.641,196.843 Q128.62,195.961 128.515,195.94 Q128.032,196.738 127.675,197.473 Q126.814,199.237 126.688,200.413 Q126.583,200.665 126.667,201.4 Q126.751,202.03 126.478,202.261 Q126.205,202.492 125.743,202.492 Q125.239,202.492 124.725,202.208 Q124.21,201.925 123.979,201.568 Q123.643,201.043 123.601,198.502 Q123.601,196.024 123.601,193.546 Q123.58,193.336 123.433,192.958 Q123.286,192.58 123.286,192.391 Q123.286,192.202 123.391,192.034 Q123.664,191.614 124.777,191.614 Q126.142,191.614 126.415,192.286 Q126.478,192.433 126.478,192.58 Q126.478,192.769 126.278,193.126 Q126.079,193.483 126.079,193.714 L126.079,196.108 Q126.709,194.785 127.738,192.748 Q127.864,192.475 127.979,192.202 Q128.095,191.929 128.326,191.719 Q128.557,191.509 129.103,191.509 Q129.943,191.509 130.794,191.887 Q131.644,192.265 131.665,192.79 Q131.686,193.336 131.507,193.619 Q131.329,193.903 131.329,194.092 L131.287,198.628 Q131.623,197.872 132.505,195.058 Q133.198,192.916 133.555,192.664 Q134.017,192.328 134.92,192.328 Q136.6,192.328 136.663,193.294 Q136.642,195.856 136.663,201.862 Q136.663,202.093 137.083,202.419 Q137.503,202.744 137.503,203.101 Q137.503,203.269 137.419,203.5 z" fill="#000000"/>
    <path d="M142.165,187.75 Q142.228,187.813 142.228,187.96 Q142.228,188.149 142.102,188.611 Q141.955,189.178 141.913,189.388 Q141.871,189.598 141.955,190.312 Q141.955,190.753 141.692,190.889 Q141.43,191.026 141.031,191.026 Q140.464,191.026 139.876,190.795 Q139.162,190.501 139.162,190.018 Q139.162,189.871 139.288,189.609 Q139.414,189.346 139.435,189.178 Q139.477,189.01 139.435,188.338 Q139.393,187.813 139.645,187.624 Q139.981,187.372 140.842,187.372 Q141.787,187.372 142.165,187.75 z M142.438,192.874 Q142.438,193.168 142.112,193.788 Q141.787,194.407 141.787,194.806 L141.787,200.98 Q141.787,201.4 142.018,202.167 Q142.249,202.933 142.249,203.227 Q142.249,203.647 141.913,203.857 Q141.388,204.193 140.779,204.193 Q139.981,204.193 139.645,203.647 Q139.204,202.975 139.204,199.636 Q139.204,198.838 139.235,197.147 Q139.267,195.457 139.267,194.68 Q139.267,194.386 139.204,193.913 Q139.141,193.441 139.141,193.231 Q139.141,192.538 139.645,192.034 Q139.855,191.824 140.422,191.824 Q140.989,191.824 141.556,192.003 Q142.123,192.181 142.281,192.412 Q142.438,192.643 142.438,192.874 z" fill="#000000"/>
    <path d="M151.636,192.16 Q151.72,192.349 151.72,192.517 Q151.72,192.727 151.552,193.053 Q151.384,193.378 151.384,193.609 L151.384,205.558 Q151.384,205.831 151.521,206.219 Q151.657,206.608 151.657,206.839 Q151.657,207.07 151.573,207.322 Q151.321,208.078 150.271,208.078 Q148.99,208.078 148.549,207.133 Q148.444,206.923 148.444,206.713 Q148.444,206.44 148.717,205.915 Q148.99,205.39 148.99,205.054 L148.99,202.366 Q148.087,203.731 147.226,203.731 Q145.693,203.731 144.643,201.757 Q143.698,199.93 143.698,197.704 Q143.698,195.289 144.307,193.756 Q145.105,191.782 146.848,191.782 Q148.15,191.782 149.116,193.168 Q149.095,193 148.99,192.685 Q148.885,192.37 148.885,192.223 Q148.885,192.034 148.99,191.908 Q149.263,191.572 150.082,191.572 Q151.384,191.572 151.636,192.16 z M148.738,197.704 Q148.738,196.423 148.35,195.111 Q147.961,193.798 147.478,193.798 Q146.449,193.798 146.449,196.171 Q146.449,196.444 146.449,196.948 Q146.47,197.473 146.47,197.704 Q146.47,199.027 146.701,200.077 Q146.995,201.358 147.478,201.358 Q147.898,201.358 148.339,199.972 Q148.738,198.67 148.738,197.704 z" fill="#000000"/>
    <path d="M161.275,193.252 Q161.317,193.567 161.149,193.924 Q160.939,194.407 160.897,194.638 Q160.897,199.006 160.54,200.707 Q159.763,204.277 157.243,204.277 Q153.568,204.277 153.568,197.578 Q153.568,195.772 153.841,193.756 Q153.694,193.273 153.694,192.895 Q153.694,192.286 154.093,191.866 Q154.429,191.509 155.08,191.509 Q155.605,191.509 156.067,191.729 Q156.529,191.95 156.613,192.244 Q156.655,192.391 156.655,192.538 Q156.655,192.811 156.424,193.41 Q156.193,194.008 156.235,194.386 Q156.025,195.562 156.025,197.347 Q156.025,199.153 156.256,200.35 Q156.55,201.736 157.075,201.736 Q157.957,201.736 158.23,198.754 Q158.377,197.263 158.377,194.008 Q158.377,193.798 158.314,193.399 Q158.251,193 158.251,192.811 Q158.251,192.307 158.629,192.118 Q158.839,192.013 159.217,192.013 Q159.91,192.013 160.498,192.307 Q161.191,192.664 161.275,193.252 z" fill="#000000"/>
    <path d="M170.305,201.295 Q170.137,202.093 169.171,202.996 Q169.024,203.227 168.016,203.605 Q166.861,204.046 166.021,203.983 Q164.446,203.878 163.543,202.177 Q162.724,200.602 162.724,198.313 Q162.724,195.835 163.648,193.966 Q164.677,191.908 166.399,191.656 Q166.735,191.614 167.05,191.614 Q169.549,191.614 169.801,194.68 Q169.927,196.087 168.688,197.746 Q167.344,199.573 165.244,200.308 Q165.475,201.148 165.601,201.4 Q165.895,201.925 166.399,201.925 Q166.882,201.925 167.428,201.547 Q167.89,201.232 168.058,200.938 Q168.142,200.896 168.226,200.465 Q168.31,200.035 168.667,199.846 Q168.793,199.783 168.961,199.783 Q169.465,199.783 169.938,200.277 Q170.41,200.77 170.305,201.295 z M167.008,193.903 Q166.168,193.903 165.643,195.1 Q164.95,196.696 165.076,198.25 Q166.063,197.935 166.903,196.78 Q167.743,195.625 167.743,194.722 Q167.743,193.903 167.008,193.903 z" fill="#000000"/>
    <path d="M127.136,157.127 Q126.414,157.547 125.647,157.757 Q124.88,157.967 124.08,157.967 Q121.541,157.967 120.11,156.444 Q118.679,154.92 118.679,152.225 Q118.679,149.53 120.11,148.006 Q121.541,146.483 124.08,146.483 Q124.871,146.483 125.623,146.688 Q126.375,146.893 127.136,147.323 L127.136,149.207 Q126.423,148.573 125.706,148.289 Q124.988,148.006 124.08,148.006 Q122.39,148.006 121.482,149.1 Q120.574,150.194 120.574,152.225 Q120.574,154.246 121.487,155.345 Q122.4,156.444 124.08,156.444 Q125.017,156.444 125.759,156.156 Q126.502,155.868 127.136,155.262 z" fill="#F42300"/>
    <path d="M134.832,148.006 Q133.464,148.006 132.761,149.071 Q132.058,150.135 132.058,152.225 Q132.058,154.305 132.761,155.374 Q133.464,156.444 134.832,156.444 Q136.209,156.444 136.912,155.374 Q137.615,154.305 137.615,152.225 Q137.615,150.135 136.912,149.071 Q136.209,148.006 134.832,148.006 z M134.832,146.483 Q137.107,146.483 138.313,147.957 Q139.519,149.432 139.519,152.225 Q139.519,155.028 138.318,156.497 Q137.117,157.967 134.832,157.967 Q132.556,157.967 131.355,156.497 Q130.154,155.028 130.154,152.225 Q130.154,149.432 131.355,147.957 Q132.556,146.483 134.832,146.483 z" fill="#F42300"/>
    <path d="M151.121,150.907 L151.121,157.684 L149.314,157.684 L149.314,150.907 Q149.314,149.432 148.796,148.739 Q148.279,148.045 147.175,148.045 Q145.916,148.045 145.237,148.939 Q144.558,149.832 144.558,151.502 L144.558,157.684 L142.761,157.684 L142.761,146.746 L144.558,146.746 L144.558,148.387 Q145.037,147.45 145.857,146.966 Q146.677,146.483 147.8,146.483 Q149.47,146.483 150.296,147.581 Q151.121,148.68 151.121,150.907 z" fill="#F42300"/>
    <path d="M161.277,148.143 L161.277,142.489 L163.074,142.489 L163.074,157.684 L161.277,157.684 L161.277,156.307 Q160.828,157.118 160.081,157.542 Q159.334,157.967 158.357,157.967 Q156.375,157.967 155.237,156.429 Q154.099,154.891 154.099,152.186 Q154.099,149.52 155.242,148.001 Q156.384,146.483 158.357,146.483 Q159.343,146.483 160.095,146.908 Q160.847,147.332 161.277,148.143 z M155.994,152.225 Q155.994,154.315 156.658,155.379 Q157.322,156.444 158.621,156.444 Q159.92,156.444 160.598,155.37 Q161.277,154.295 161.277,152.225 Q161.277,150.145 160.598,149.076 Q159.92,148.006 158.621,148.006 Q157.322,148.006 156.658,149.071 Q155.994,150.135 155.994,152.225 z" fill="#F42300"/>
    <path d="M168.025,146.786 L172.625,146.786 L172.625,156.288 L176.189,156.288 L176.189,157.684 L167.263,157.684 L167.263,156.288 L170.828,156.288 L170.828,148.182 L168.025,148.182 z M170.828,142.538 L172.625,142.538 L172.625,144.803 L170.828,144.803 z" fill="#F42300"/>
    <path d="M182.976,143.641 L182.976,146.746 L187.058,146.746 L187.058,148.143 L182.976,148.143 L182.976,154.08 Q182.976,155.291 183.435,155.77 Q183.894,156.248 185.037,156.248 L187.058,156.248 L187.058,157.684 L184.861,157.684 Q182.839,157.684 182.009,156.873 Q181.179,156.063 181.179,154.08 L181.179,148.143 L178.259,148.143 L178.259,146.746 L181.179,146.746 L181.179,143.641 z" fill="#F42300"/>
    <path d="M192.107,146.786 L196.707,146.786 L196.707,156.288 L200.271,156.288 L200.271,157.684 L191.345,157.684 L191.345,156.288 L194.91,156.288 L194.91,148.182 L192.107,148.182 z M194.91,142.538 L196.707,142.538 L196.707,144.803 L194.91,144.803 z" fill="#F42300"/>
    <path d="M207.078,148.006 Q205.711,148.006 205.007,149.071 Q204.304,150.135 204.304,152.225 Q204.304,154.305 205.007,155.374 Q205.711,156.444 207.078,156.444 Q208.455,156.444 209.158,155.374 Q209.861,154.305 209.861,152.225 Q209.861,150.135 209.158,149.071 Q208.455,148.006 207.078,148.006 z M207.078,146.483 Q209.353,146.483 210.559,147.957 Q211.765,149.432 211.765,152.225 Q211.765,155.028 210.564,156.497 Q209.363,157.967 207.078,157.967 Q204.802,157.967 203.601,156.497 Q202.4,155.028 202.4,152.225 Q202.4,149.432 203.601,147.957 Q204.802,146.483 207.078,146.483 z" fill="#F42300"/>
    <path d="M223.367,150.907 L223.367,157.684 L221.56,157.684 L221.56,150.907 Q221.56,149.432 221.043,148.739 Q220.525,148.045 219.421,148.045 Q218.162,148.045 217.483,148.939 Q216.804,149.832 216.804,151.502 L216.804,157.684 L215.007,157.684 L215.007,146.746 L216.804,146.746 L216.804,148.387 Q217.283,147.45 218.103,146.966 Q218.923,146.483 220.046,146.483 Q221.716,146.483 222.542,147.581 Q223.367,148.68 223.367,150.907 z" fill="#F42300"/>
    <path d="M21.52,157.684 L18.639,157.684 L18.639,145.623 L14.938,145.623 L14.938,143.104 L25.221,143.104 L25.221,145.623 L21.52,145.623 z" fill="#000000"/>
    <path d="M32.936,152.547 Q31.334,152.547 30.7,152.957 Q30.065,153.368 30.065,154.364 Q30.065,155.106 30.504,155.545 Q30.944,155.985 31.696,155.985 Q32.829,155.985 33.454,155.13 Q34.079,154.276 34.079,152.743 L34.079,152.547 z M36.92,151.444 L36.92,157.684 L34.079,157.684 L34.079,156.463 Q33.561,157.186 32.75,157.577 Q31.94,157.967 30.963,157.967 Q29.098,157.967 28.058,156.981 Q27.018,155.995 27.018,154.227 Q27.018,152.313 28.258,151.4 Q29.498,150.487 32.096,150.487 L34.079,150.487 L34.079,150.008 Q34.079,149.315 33.576,148.958 Q33.073,148.602 32.096,148.602 Q31.071,148.602 30.109,148.861 Q29.147,149.12 28.102,149.686 L28.102,147.245 Q29.049,146.854 30.026,146.668 Q31.002,146.483 32.096,146.483 Q34.762,146.483 35.841,147.567 Q36.92,148.651 36.92,151.444 z" fill="#000000"/>
    <path d="M48.6,150.584 L48.6,157.684 L45.758,157.684 L45.758,151.024 Q45.758,149.832 45.421,149.32 Q45.084,148.807 44.323,148.807 Q43.551,148.807 43.107,149.5 Q42.663,150.194 42.663,151.424 L42.663,157.684 L39.821,157.684 L39.821,146.746 L42.663,146.746 L42.663,148.387 Q42.965,147.479 43.698,146.981 Q44.43,146.483 45.465,146.483 Q47.018,146.483 47.809,147.513 Q48.6,148.543 48.6,150.584 z" fill="#000000"/>
    <path d="M56.92,143.641 L56.92,146.746 L60.661,146.746 L60.661,148.944 L56.92,148.944 L56.92,154.12 Q56.92,154.852 57.277,155.169 Q57.633,155.487 58.463,155.487 L60.661,155.487 L60.661,157.684 L58.258,157.684 Q55.797,157.684 54.928,156.898 Q54.059,156.112 54.059,153.983 L54.059,148.944 L51.266,148.944 L51.266,146.746 L54.059,146.746 L54.059,143.641 z" fill="#000000"/>
    <path d="M78.004,152.205 Q78.004,153.788 78.532,154.686 Q79.059,155.584 79.987,155.584 Q80.914,155.584 81.452,154.686 Q81.989,153.788 81.989,152.205 Q81.989,150.623 81.452,149.725 Q80.914,148.827 79.987,148.827 Q79.059,148.827 78.532,149.725 Q78.004,150.623 78.004,152.205 z M81.989,156.141 Q81.461,157.059 80.763,157.513 Q80.065,157.967 79.186,157.967 Q77.243,157.967 76.193,156.483 Q75.143,154.998 75.143,152.225 Q75.143,149.491 76.178,147.987 Q77.213,146.483 79.088,146.483 Q80.075,146.483 80.802,146.961 Q81.53,147.44 81.989,148.387 L81.989,146.746 L84.84,146.746 L84.84,161.844 L81.989,161.844 z" fill="#000000"/>
    <path d="M87.868,153.866 L87.868,146.746 L90.729,146.746 L90.729,153.426 Q90.729,154.608 91.061,155.116 Q91.393,155.623 92.164,155.623 Q92.936,155.623 93.371,154.94 Q93.805,154.256 93.805,153.026 L93.805,146.746 L96.666,146.746 L96.666,157.684 L93.805,157.684 L93.805,156.063 Q93.502,156.971 92.775,157.469 Q92.047,157.967 91.022,157.967 Q89.459,157.967 88.663,156.932 Q87.868,155.897 87.868,153.866 z" fill="#000000"/>
    <path d="M109.108,157.147 Q108.112,157.557 107.077,157.762 Q106.041,157.967 104.889,157.967 Q102.145,157.967 100.695,156.497 Q99.245,155.028 99.245,152.264 Q99.245,149.588 100.641,148.036 Q102.038,146.483 104.45,146.483 Q106.881,146.483 108.224,147.923 Q109.567,149.364 109.567,151.981 L109.567,153.143 L102.155,153.143 Q102.164,154.432 102.916,155.067 Q103.668,155.702 105.163,155.702 Q106.149,155.702 107.106,155.418 Q108.063,155.135 109.108,154.52 z M106.686,150.995 Q106.666,149.862 106.105,149.281 Q105.543,148.7 104.45,148.7 Q103.463,148.7 102.877,149.3 Q102.291,149.901 102.184,151.004 z" fill="#000000"/>
    <path d="M36.759,58.686 L36.164,58.686 Q34.591,58.686 33.796,59.238 Q33,59.789 33,60.883 Q33,61.87 33.595,62.416 Q34.191,62.963 35.246,62.963 Q36.73,62.963 37.58,61.933 Q38.429,60.903 38.439,59.086 L38.439,58.686 z M40.246,57.944 L40.246,64.184 L38.439,64.184 L38.439,62.563 Q37.863,63.539 36.989,64.003 Q36.115,64.467 34.865,64.467 Q33.195,64.467 32.199,63.525 Q31.203,62.582 31.203,61 Q31.203,59.174 32.428,58.227 Q33.654,57.28 36.027,57.28 L38.439,57.28 L38.439,56.997 Q38.429,55.688 37.775,55.097 Q37.121,54.506 35.685,54.506 Q34.767,54.506 33.83,54.77 Q32.892,55.034 32.004,55.541 L32.004,53.745 Q33,53.364 33.913,53.173 Q34.826,52.983 35.685,52.983 Q37.043,52.983 38.005,53.383 Q38.966,53.784 39.562,54.584 Q39.933,55.073 40.09,55.79 Q40.246,56.508 40.246,57.944 z" fill="#0142F2"/>
    <path d="M52.306,63.627 Q51.584,64.047 50.817,64.257 Q50.05,64.467 49.25,64.467 Q46.711,64.467 45.28,62.944 Q43.849,61.42 43.849,58.725 Q43.849,56.03 45.28,54.506 Q46.711,52.983 49.25,52.983 Q50.041,52.983 50.793,53.188 Q51.545,53.393 52.306,53.823 L52.306,55.707 Q51.593,55.073 50.876,54.789 Q50.158,54.506 49.25,54.506 Q47.56,54.506 46.652,55.6 Q45.744,56.694 45.744,58.725 Q45.744,60.747 46.657,61.845 Q47.57,62.944 49.25,62.944 Q50.187,62.944 50.929,62.656 Q51.672,62.368 52.306,61.762 z" fill="#0142F2"/>
    <path d="M59.982,50.141 L59.982,53.247 L64.064,53.247 L64.064,54.643 L59.982,54.643 L59.982,60.58 Q59.982,61.791 60.441,62.27 Q60.9,62.748 62.043,62.748 L64.064,62.748 L64.064,64.184 L61.867,64.184 Q59.845,64.184 59.015,63.373 Q58.185,62.563 58.185,60.58 L58.185,54.643 L55.265,54.643 L55.265,53.247 L58.185,53.247 L58.185,50.141 z" fill="#0142F2"/>
    <path d="M69.113,53.286 L73.713,53.286 L73.713,62.788 L77.277,62.788 L77.277,64.184 L68.351,64.184 L68.351,62.788 L71.916,62.788 L71.916,54.682 L69.113,54.682 z M71.916,49.038 L73.713,49.038 L73.713,51.303 L71.916,51.303 z" fill="#0142F2"/>
    <path d="M84.084,54.506 Q82.716,54.506 82.013,55.571 Q81.31,56.635 81.31,58.725 Q81.31,60.805 82.013,61.874 Q82.716,62.944 84.084,62.944 Q85.461,62.944 86.164,61.874 Q86.867,60.805 86.867,58.725 Q86.867,56.635 86.164,55.571 Q85.461,54.506 84.084,54.506 z M84.084,52.983 Q86.359,52.983 87.565,54.457 Q88.771,55.932 88.771,58.725 Q88.771,61.528 87.57,62.997 Q86.369,64.467 84.084,64.467 Q81.808,64.467 80.607,62.997 Q79.406,61.528 79.406,58.725 Q79.406,55.932 80.607,54.457 Q81.808,52.983 84.084,52.983 z" fill="#0142F2"/>
    <path d="M100.373,57.407 L100.373,64.184 L98.566,64.184 L98.566,57.407 Q98.566,55.932 98.049,55.239 Q97.531,54.545 96.427,54.545 Q95.168,54.545 94.489,55.439 Q93.81,56.332 93.81,58.002 L93.81,64.184 L92.013,64.184 L92.013,53.247 L93.81,53.247 L93.81,54.887 Q94.289,53.95 95.109,53.466 Q95.929,52.983 97.052,52.983 Q98.722,52.983 99.548,54.081 Q100.373,55.18 100.373,57.407 z" fill="#0142F2"/>
    <path d="M116.828,62.534 L119.894,62.534 L119.894,51.518 L116.222,53.286 L116.222,51.391 L119.875,49.653 L121.847,49.653 L121.847,62.534 L124.875,62.534 L124.875,64.184 L116.828,64.184 z" fill="#0142F2"/>
    <path d="M36.759,81.502 L36.164,81.502 Q34.591,81.502 33.796,82.054 Q33,82.605 33,83.699 Q33,84.686 33.595,85.232 Q34.191,85.779 35.246,85.779 Q36.73,85.779 37.58,84.749 Q38.429,83.719 38.439,81.902 L38.439,81.502 z M40.246,80.76 L40.246,87 L38.439,87 L38.439,85.379 Q37.863,86.355 36.989,86.819 Q36.115,87.283 34.865,87.283 Q33.195,87.283 32.199,86.341 Q31.203,85.398 31.203,83.816 Q31.203,81.99 32.428,81.043 Q33.654,80.096 36.027,80.096 L38.439,80.096 L38.439,79.812 Q38.429,78.504 37.775,77.913 Q37.121,77.322 35.685,77.322 Q34.767,77.322 33.83,77.586 Q32.892,77.85 32.004,78.357 L32.004,76.561 Q33,76.18 33.913,75.989 Q34.826,75.799 35.685,75.799 Q37.043,75.799 38.005,76.199 Q38.966,76.6 39.562,77.4 Q39.933,77.889 40.09,78.606 Q40.246,79.324 40.246,80.76 z" fill="#0142F2"/>
    <path d="M52.306,86.443 Q51.584,86.863 50.817,87.073 Q50.05,87.283 49.25,87.283 Q46.711,87.283 45.28,85.76 Q43.849,84.236 43.849,81.541 Q43.849,78.846 45.28,77.322 Q46.711,75.799 49.25,75.799 Q50.041,75.799 50.793,76.004 Q51.545,76.209 52.306,76.639 L52.306,78.523 Q51.593,77.889 50.876,77.605 Q50.158,77.322 49.25,77.322 Q47.56,77.322 46.652,78.416 Q45.744,79.51 45.744,81.541 Q45.744,83.562 46.657,84.661 Q47.57,85.76 49.25,85.76 Q50.187,85.76 50.929,85.472 Q51.672,85.184 52.306,84.578 z" fill="#0142F2"/>
    <path d="M59.982,72.957 L59.982,76.062 L64.064,76.062 L64.064,77.459 L59.982,77.459 L59.982,83.396 Q59.982,84.607 60.441,85.086 Q60.9,85.564 62.043,85.564 L64.064,85.564 L64.064,87 L61.867,87 Q59.845,87 59.015,86.189 Q58.185,85.379 58.185,83.396 L58.185,77.459 L55.265,77.459 L55.265,76.062 L58.185,76.062 L58.185,72.957 z" fill="#0142F2"/>
    <path d="M69.113,76.102 L73.713,76.102 L73.713,85.604 L77.277,85.604 L77.277,87 L68.351,87 L68.351,85.604 L71.916,85.604 L71.916,77.498 L69.113,77.498 z M71.916,71.854 L73.713,71.854 L73.713,74.119 L71.916,74.119 z" fill="#0142F2"/>
    <path d="M84.084,77.322 Q82.716,77.322 82.013,78.387 Q81.31,79.451 81.31,81.541 Q81.31,83.621 82.013,84.69 Q82.716,85.76 84.084,85.76 Q85.461,85.76 86.164,84.69 Q86.867,83.621 86.867,81.541 Q86.867,79.451 86.164,78.387 Q85.461,77.322 84.084,77.322 z M84.084,75.799 Q86.359,75.799 87.565,77.273 Q88.771,78.748 88.771,81.541 Q88.771,84.344 87.57,85.813 Q86.369,87.283 84.084,87.283 Q81.808,87.283 80.607,85.813 Q79.406,84.344 79.406,81.541 Q79.406,78.748 80.607,77.273 Q81.808,75.799 84.084,75.799 z" fill="#0142F2"/>
    <path d="M100.373,80.223 L100.373,87 L98.566,87 L98.566,80.223 Q98.566,78.748 98.049,78.055 Q97.531,77.361 96.427,77.361 Q95.168,77.361 94.489,78.255 Q93.81,79.148 93.81,80.818 L93.81,87 L92.013,87 L92.013,76.062 L93.81,76.062 L93.81,77.703 Q94.289,76.766 95.109,76.282 Q95.929,75.799 97.052,75.799 Q98.722,75.799 99.548,76.897 Q100.373,77.996 100.373,80.223 z" fill="#0142F2"/>
    <path d="M117.834,85.34 L124.533,85.34 L124.533,87 L115.675,87 L115.675,85.34 Q117.502,83.416 118.869,81.941 Q120.236,80.467 120.754,79.861 Q121.73,78.67 122.072,77.933 Q122.414,77.195 122.414,76.424 Q122.414,75.203 121.696,74.51 Q120.978,73.816 119.728,73.816 Q118.84,73.816 117.863,74.139 Q116.886,74.461 115.793,75.115 L115.793,73.123 Q116.799,72.645 117.77,72.4 Q118.742,72.156 119.689,72.156 Q121.828,72.156 123.132,73.294 Q124.435,74.432 124.435,76.277 Q124.435,77.215 124.001,78.152 Q123.566,79.09 122.59,80.223 Q122.043,80.857 121.003,81.98 Q119.963,83.104 117.834,85.34 z" fill="#0142F2"/>
    <path d="M36.759,107.752 L36.164,107.752 Q34.591,107.752 33.796,108.304 Q33,108.855 33,109.949 Q33,110.936 33.595,111.482 Q34.191,112.029 35.246,112.029 Q36.73,112.029 37.58,110.999 Q38.429,109.969 38.439,108.152 L38.439,107.752 z M40.246,107.01 L40.246,113.25 L38.439,113.25 L38.439,111.629 Q37.863,112.605 36.989,113.069 Q36.115,113.533 34.865,113.533 Q33.195,113.533 32.199,112.591 Q31.203,111.648 31.203,110.066 Q31.203,108.24 32.428,107.293 Q33.654,106.346 36.027,106.346 L38.439,106.346 L38.439,106.062 Q38.429,104.754 37.775,104.163 Q37.121,103.572 35.685,103.572 Q34.767,103.572 33.83,103.836 Q32.892,104.1 32.004,104.607 L32.004,102.811 Q33,102.43 33.913,102.239 Q34.826,102.049 35.685,102.049 Q37.043,102.049 38.005,102.449 Q38.966,102.85 39.562,103.65 Q39.933,104.139 40.09,104.856 Q40.246,105.574 40.246,107.01 z" fill="#0142F2"/>
    <path d="M52.306,112.693 Q51.584,113.113 50.817,113.323 Q50.05,113.533 49.25,113.533 Q46.711,113.533 45.28,112.01 Q43.849,110.486 43.849,107.791 Q43.849,105.096 45.28,103.572 Q46.711,102.049 49.25,102.049 Q50.041,102.049 50.793,102.254 Q51.545,102.459 52.306,102.889 L52.306,104.773 Q51.593,104.139 50.876,103.855 Q50.158,103.572 49.25,103.572 Q47.56,103.572 46.652,104.666 Q45.744,105.76 45.744,107.791 Q45.744,109.812 46.657,110.911 Q47.57,112.01 49.25,112.01 Q50.187,112.01 50.929,111.722 Q51.672,111.434 52.306,110.828 z" fill="#0142F2"/>
    <path d="M59.982,99.207 L59.982,102.312 L64.064,102.312 L64.064,103.709 L59.982,103.709 L59.982,109.646 Q59.982,110.857 60.441,111.336 Q60.9,111.814 62.043,111.814 L64.064,111.814 L64.064,113.25 L61.867,113.25 Q59.845,113.25 59.015,112.439 Q58.185,111.629 58.185,109.646 L58.185,103.709 L55.265,103.709 L55.265,102.312 L58.185,102.312 L58.185,99.207 z" fill="#0142F2"/>
    <path d="M69.113,102.352 L73.713,102.352 L73.713,111.854 L77.277,111.854 L77.277,113.25 L68.351,113.25 L68.351,111.854 L71.916,111.854 L71.916,103.748 L69.113,103.748 z M71.916,98.104 L73.713,98.104 L73.713,100.369 L71.916,100.369 z" fill="#0142F2"/>
    <path d="M84.084,103.572 Q82.716,103.572 82.013,104.637 Q81.31,105.701 81.31,107.791 Q81.31,109.871 82.013,110.94 Q82.716,112.01 84.084,112.01 Q85.461,112.01 86.164,110.94 Q86.867,109.871 86.867,107.791 Q86.867,105.701 86.164,104.637 Q85.461,103.572 84.084,103.572 z M84.084,102.049 Q86.359,102.049 87.565,103.523 Q88.771,104.998 88.771,107.791 Q88.771,110.594 87.57,112.063 Q86.369,113.533 84.084,113.533 Q81.808,113.533 80.607,112.063 Q79.406,110.594 79.406,107.791 Q79.406,104.998 80.607,103.523 Q81.808,102.049 84.084,102.049 z" fill="#0142F2"/>
    <path d="M100.373,106.473 L100.373,113.25 L98.566,113.25 L98.566,106.473 Q98.566,104.998 98.049,104.305 Q97.531,103.611 96.427,103.611 Q95.168,103.611 94.489,104.505 Q93.81,105.398 93.81,107.068 L93.81,113.25 L92.013,113.25 L92.013,102.312 L93.81,102.312 L93.81,103.953 Q94.289,103.016 95.109,102.532 Q95.929,102.049 97.052,102.049 Q98.722,102.049 99.548,103.147 Q100.373,104.246 100.373,106.473 z" fill="#0142F2"/>
    <path d="M124.455,106.473 L124.455,113.25 L122.648,113.25 L122.648,106.473 Q122.648,104.998 122.131,104.305 Q121.613,103.611 120.509,103.611 Q119.25,103.611 118.571,104.505 Q117.892,105.398 117.892,107.068 L117.892,113.25 L116.095,113.25 L116.095,102.312 L117.892,102.312 L117.892,103.953 Q118.371,103.016 119.191,102.532 Q120.011,102.049 121.134,102.049 Q122.804,102.049 123.63,103.147 Q124.455,104.246 124.455,106.473 z" fill="#0142F2"/>
    <path d="M287.748,21.865 L287.748,16.055 L290.599,16.055 L290.599,31.25 L287.748,31.25 L287.748,29.629 Q287.289,30.576 286.561,31.055 Q285.834,31.533 284.847,31.533 Q282.972,31.533 281.937,30.029 Q280.902,28.525 280.902,25.791 Q280.902,23.018 281.952,21.533 Q283.001,20.049 284.945,20.049 Q285.824,20.049 286.522,20.503 Q287.22,20.957 287.748,21.865 z M283.763,25.811 Q283.763,27.393 284.291,28.291 Q284.818,29.189 285.746,29.189 Q286.673,29.189 287.21,28.291 Q287.748,27.393 287.748,25.811 Q287.748,24.229 287.21,23.33 Q286.673,22.432 285.746,22.432 Q284.818,22.432 284.291,23.33 Q283.763,24.229 283.763,25.811 z" fill="#000000"/>
    <path d="M298.08,22.373 Q297.054,22.373 296.468,23.276 Q295.882,24.18 295.882,25.791 Q295.882,27.402 296.468,28.306 Q297.054,29.209 298.08,29.209 Q299.115,29.209 299.701,28.306 Q300.287,27.402 300.287,25.791 Q300.287,24.18 299.701,23.276 Q299.115,22.373 298.08,22.373 z M293.021,25.791 Q293.021,23.145 294.393,21.597 Q295.765,20.049 298.08,20.049 Q300.404,20.049 301.776,21.597 Q303.148,23.145 303.148,25.791 Q303.148,28.438 301.776,29.985 Q300.404,31.533 298.08,31.533 Q295.765,31.533 294.393,29.985 Q293.021,28.438 293.021,25.791 z" fill="#000000"/>
    <path d="M367.805,138.94 Q366.506,141.166 365.866,143.378 Q365.227,145.59 365.227,147.836 Q365.227,150.072 365.866,152.289 Q366.506,154.506 367.805,156.752 L366.242,156.752 Q364.768,154.428 364.045,152.226 Q363.322,150.024 363.322,147.836 Q363.322,145.658 364.045,143.451 Q364.768,141.244 366.242,138.94 z" fill="#F42300"/>
    <path d="M381.857,154.535 Q381.135,154.955 380.368,155.165 Q379.602,155.375 378.801,155.375 Q376.262,155.375 374.831,153.852 Q373.4,152.328 373.4,149.633 Q373.4,146.938 374.831,145.414 Q376.262,143.891 378.801,143.891 Q379.592,143.891 380.344,144.096 Q381.096,144.301 381.857,144.731 L381.857,146.615 Q381.144,145.981 380.427,145.697 Q379.709,145.414 378.801,145.414 Q377.111,145.414 376.203,146.508 Q375.295,147.602 375.295,149.633 Q375.295,151.655 376.208,152.753 Q377.121,153.852 378.801,153.852 Q379.738,153.852 380.48,153.564 Q381.223,153.276 381.857,152.67 z" fill="#F42300"/>
    <path d="M389.553,145.414 Q388.185,145.414 387.482,146.479 Q386.779,147.543 386.779,149.633 Q386.779,151.713 387.482,152.782 Q388.185,153.852 389.553,153.852 Q390.93,153.852 391.633,152.782 Q392.336,151.713 392.336,149.633 Q392.336,147.543 391.633,146.479 Q390.93,145.414 389.553,145.414 z M389.553,143.891 Q391.828,143.891 393.034,145.365 Q394.24,146.84 394.24,149.633 Q394.24,152.436 393.039,153.905 Q391.838,155.375 389.553,155.375 Q387.277,155.375 386.076,153.905 Q384.875,152.436 384.875,149.633 Q384.875,146.84 386.076,145.365 Q387.277,143.891 389.553,143.891 z" fill="#F42300"/>
    <path d="M405.842,148.315 L405.842,155.092 L404.035,155.092 L404.035,148.315 Q404.035,146.84 403.518,146.147 Q403,145.453 401.896,145.453 Q400.637,145.453 399.958,146.347 Q399.279,147.24 399.279,148.91 L399.279,155.092 L397.482,155.092 L397.482,144.155 L399.279,144.155 L399.279,145.795 Q399.758,144.858 400.578,144.374 Q401.398,143.891 402.521,143.891 Q404.191,143.891 405.017,144.989 Q405.842,146.088 405.842,148.315 z" fill="#F42300"/>
    <path d="M415.998,145.551 L415.998,139.897 L417.795,139.897 L417.795,155.092 L415.998,155.092 L415.998,153.715 Q415.549,154.526 414.802,154.95 Q414.055,155.375 413.078,155.375 Q411.096,155.375 409.958,153.837 Q408.82,152.299 408.82,149.594 Q408.82,146.928 409.963,145.409 Q411.105,143.891 413.078,143.891 Q414.064,143.891 414.816,144.316 Q415.568,144.74 415.998,145.551 z M410.715,149.633 Q410.715,151.723 411.379,152.787 Q412.043,153.852 413.342,153.852 Q414.641,153.852 415.319,152.778 Q415.998,151.703 415.998,149.633 Q415.998,147.553 415.319,146.484 Q414.641,145.414 413.342,145.414 Q412.043,145.414 411.379,146.479 Q410.715,147.543 410.715,149.633 z" fill="#F42300"/>
    <path d="M422.746,144.194 L427.346,144.194 L427.346,153.696 L430.91,153.696 L430.91,155.092 L421.984,155.092 L421.984,153.696 L425.549,153.696 L425.549,145.59 L422.746,145.59 z M425.549,139.946 L427.346,139.946 L427.346,142.211 L425.549,142.211 z" fill="#F42300"/>
    <path d="M437.697,141.049 L437.697,144.155 L441.779,144.155 L441.779,145.551 L437.697,145.551 L437.697,151.488 Q437.697,152.699 438.156,153.178 Q438.615,153.656 439.758,153.656 L441.779,153.656 L441.779,155.092 L439.582,155.092 Q437.56,155.092 436.73,154.281 Q435.9,153.471 435.9,151.488 L435.9,145.551 L432.98,145.551 L432.98,144.155 L435.9,144.155 L435.9,141.049 z" fill="#F42300"/>
    <path d="M446.828,144.194 L451.428,144.194 L451.428,153.696 L454.992,153.696 L454.992,155.092 L446.066,155.092 L446.066,153.696 L449.631,153.696 L449.631,145.59 L446.828,145.59 z M449.631,139.946 L451.428,139.946 L451.428,142.211 L449.631,142.211 z" fill="#F42300"/>
    <path d="M461.799,145.414 Q460.432,145.414 459.728,146.479 Q459.025,147.543 459.025,149.633 Q459.025,151.713 459.728,152.782 Q460.432,153.852 461.799,153.852 Q463.176,153.852 463.879,152.782 Q464.582,151.713 464.582,149.633 Q464.582,147.543 463.879,146.479 Q463.176,145.414 461.799,145.414 z M461.799,143.891 Q464.074,143.891 465.28,145.365 Q466.486,146.84 466.486,149.633 Q466.486,152.436 465.285,153.905 Q464.084,155.375 461.799,155.375 Q459.523,155.375 458.322,153.905 Q457.121,152.436 457.121,149.633 Q457.121,146.84 458.322,145.365 Q459.523,143.891 461.799,143.891 z" fill="#F42300"/>
    <path d="M478.088,148.315 L478.088,155.092 L476.281,155.092 L476.281,148.315 Q476.281,146.84 475.764,146.147 Q475.246,145.453 474.143,145.453 Q472.883,145.453 472.204,146.347 Q471.525,147.24 471.525,148.91 L471.525,155.092 L469.728,155.092 L469.728,144.155 L471.525,144.155 L471.525,145.795 Q472.004,144.858 472.824,144.374 Q473.644,143.891 474.768,143.891 Q476.437,143.891 477.263,144.989 Q478.088,146.088 478.088,148.315 z" fill="#F42300"/>
    <path d="M483.264,138.94 L484.826,138.94 Q486.301,141.244 487.023,143.451 Q487.746,145.658 487.746,147.836 Q487.746,150.033 487.023,152.24 Q486.301,154.447 484.826,156.752 L483.264,156.752 Q484.562,154.487 485.202,152.27 Q485.842,150.053 485.842,147.836 Q485.842,145.61 485.202,143.393 Q484.562,141.176 483.264,138.94 z" fill="#F42300"/>
    <path d="M496.222,151.567 L499.269,151.567 L499.269,154.155 L497.345,157.885 L495.256,157.885 L496.222,154.155 z M496.095,144.164 L499.142,144.164 L499.142,147.69 L496.095,147.69 z" fill="#000000"/>
    <path d="M281.781,156.08 L282.962,156.08 Q283.978,156.08 284.33,155.661 Q284.681,155.241 284.681,153.844 L284.681,151.842 Q284.681,150.241 285.16,149.577 Q285.638,148.913 286.859,148.707 Q285.628,148.522 285.155,147.868 Q284.681,147.213 284.681,145.602 L284.681,143.561 Q284.681,142.184 284.335,141.764 Q283.988,141.344 282.962,141.344 L281.781,141.344 L281.781,139.489 L283.246,139.489 Q285.668,139.489 286.483,140.206 Q287.298,140.924 287.298,143.082 L287.298,145.182 Q287.298,146.657 287.831,147.218 Q288.363,147.78 289.74,147.78 L290.345,147.78 L290.345,149.645 L289.74,149.645 Q288.363,149.645 287.831,150.211 Q287.298,150.778 287.298,152.243 L287.298,154.342 Q287.298,156.5 286.483,157.223 Q285.668,157.946 283.246,157.946 L281.781,157.946 z" fill="#000000"/>
    <path d="M303.594,70.186 L302.999,70.186 Q301.426,70.186 300.631,70.738 Q299.835,71.289 299.835,72.383 Q299.835,73.37 300.43,73.916 Q301.026,74.463 302.081,74.463 Q303.565,74.463 304.415,73.433 Q305.264,72.403 305.274,70.586 L305.274,70.186 z M307.081,69.444 L307.081,75.684 L305.274,75.684 L305.274,74.063 Q304.698,75.039 303.824,75.503 Q302.95,75.967 301.7,75.967 Q300.03,75.967 299.034,75.025 Q298.038,74.082 298.038,72.5 Q298.038,70.674 299.263,69.727 Q300.489,68.78 302.862,68.78 L305.274,68.78 L305.274,68.496 Q305.264,67.188 304.61,66.597 Q303.956,66.006 302.52,66.006 Q301.602,66.006 300.665,66.27 Q299.727,66.534 298.839,67.041 L298.839,65.245 Q299.835,64.864 300.748,64.673 Q301.661,64.483 302.52,64.483 Q303.878,64.483 304.84,64.883 Q305.801,65.284 306.397,66.084 Q306.768,66.573 306.925,67.29 Q307.081,68.008 307.081,69.444 z" fill="#0142F2"/>
    <path d="M319.141,75.127 Q318.419,75.547 317.652,75.757 Q316.885,75.967 316.085,75.967 Q313.546,75.967 312.115,74.444 Q310.684,72.92 310.684,70.225 Q310.684,67.53 312.115,66.006 Q313.546,64.483 316.085,64.483 Q316.876,64.483 317.628,64.688 Q318.38,64.893 319.141,65.323 L319.141,67.207 Q318.428,66.573 317.711,66.289 Q316.993,66.006 316.085,66.006 Q314.395,66.006 313.487,67.1 Q312.579,68.194 312.579,70.225 Q312.579,72.246 313.492,73.345 Q314.405,74.444 316.085,74.444 Q317.022,74.444 317.764,74.156 Q318.507,73.868 319.141,73.262 z" fill="#0142F2"/>
    <path d="M326.817,61.641 L326.817,64.746 L330.899,64.746 L330.899,66.143 L326.817,66.143 L326.817,72.08 Q326.817,73.291 327.276,73.77 Q327.735,74.248 328.878,74.248 L330.899,74.248 L330.899,75.684 L328.702,75.684 Q326.68,75.684 325.85,74.873 Q325.02,74.063 325.02,72.08 L325.02,66.143 L322.1,66.143 L322.1,64.746 L325.02,64.746 L325.02,61.641 z" fill="#0142F2"/>
    <path d="M335.948,64.786 L340.548,64.786 L340.548,74.288 L344.112,74.288 L344.112,75.684 L335.186,75.684 L335.186,74.288 L338.751,74.288 L338.751,66.182 L335.948,66.182 z M338.751,60.538 L340.548,60.538 L340.548,62.803 L338.751,62.803 z" fill="#0142F2"/>
    <path d="M350.919,66.006 Q349.551,66.006 348.848,67.071 Q348.145,68.135 348.145,70.225 Q348.145,72.305 348.848,73.374 Q349.551,74.444 350.919,74.444 Q352.296,74.444 352.999,73.374 Q353.702,72.305 353.702,70.225 Q353.702,68.135 352.999,67.071 Q352.296,66.006 350.919,66.006 z M350.919,64.483 Q353.194,64.483 354.4,65.957 Q355.606,67.432 355.606,70.225 Q355.606,73.028 354.405,74.497 Q353.204,75.967 350.919,75.967 Q348.643,75.967 347.442,74.497 Q346.241,73.028 346.241,70.225 Q346.241,67.432 347.442,65.957 Q348.643,64.483 350.919,64.483 z" fill="#0142F2"/>
    <path d="M367.208,68.907 L367.208,75.684 L365.401,75.684 L365.401,68.907 Q365.401,67.432 364.884,66.739 Q364.366,66.045 363.262,66.045 Q362.003,66.045 361.324,66.939 Q360.645,67.832 360.645,69.502 L360.645,75.684 L358.848,75.684 L358.848,64.746 L360.645,64.746 L360.645,66.387 Q361.124,65.45 361.944,64.966 Q362.764,64.483 363.887,64.483 Q365.557,64.483 366.383,65.581 Q367.208,66.68 367.208,68.907 z" fill="#0142F2"/>
    <path d="M383.663,74.034 L386.729,74.034 L386.729,63.018 L383.057,64.786 L383.057,62.891 L386.71,61.153 L388.682,61.153 L388.682,74.034 L391.71,74.034 L391.71,75.684 L383.663,75.684 z" fill="#0142F2"/>
    <path d="M397.384,72.159 L400.43,72.159 L400.43,74.746 L398.507,78.477 L396.417,78.477 L397.384,74.746 z M397.257,64.756 L400.303,64.756 L400.303,68.282 L397.257,68.282 z" fill="#0142F2"/>
    <path d="M303.594,93.002 L302.999,93.002 Q301.426,93.002 300.631,93.554 Q299.835,94.105 299.835,95.199 Q299.835,96.186 300.43,96.732 Q301.026,97.279 302.081,97.279 Q303.565,97.279 304.415,96.249 Q305.264,95.219 305.274,93.402 L305.274,93.002 z M307.081,92.26 L307.081,98.5 L305.274,98.5 L305.274,96.879 Q304.698,97.855 303.824,98.319 Q302.95,98.783 301.7,98.783 Q300.03,98.783 299.034,97.841 Q298.038,96.898 298.038,95.316 Q298.038,93.49 299.263,92.543 Q300.489,91.596 302.862,91.596 L305.274,91.596 L305.274,91.312 Q305.264,90.004 304.61,89.413 Q303.956,88.822 302.52,88.822 Q301.602,88.822 300.665,89.086 Q299.727,89.35 298.839,89.857 L298.839,88.061 Q299.835,87.68 300.748,87.489 Q301.661,87.299 302.52,87.299 Q303.878,87.299 304.84,87.699 Q305.801,88.1 306.397,88.9 Q306.768,89.389 306.925,90.106 Q307.081,90.824 307.081,92.26 z" fill="#0142F2"/>
    <path d="M319.141,97.943 Q318.419,98.363 317.652,98.573 Q316.885,98.783 316.085,98.783 Q313.546,98.783 312.115,97.26 Q310.684,95.736 310.684,93.041 Q310.684,90.346 312.115,88.822 Q313.546,87.299 316.085,87.299 Q316.876,87.299 317.628,87.504 Q318.38,87.709 319.141,88.139 L319.141,90.023 Q318.428,89.389 317.711,89.105 Q316.993,88.822 316.085,88.822 Q314.395,88.822 313.487,89.916 Q312.579,91.01 312.579,93.041 Q312.579,95.062 313.492,96.161 Q314.405,97.26 316.085,97.26 Q317.022,97.26 317.764,96.972 Q318.507,96.684 319.141,96.078 z" fill="#0142F2"/>
    <path d="M326.817,84.457 L326.817,87.562 L330.899,87.562 L330.899,88.959 L326.817,88.959 L326.817,94.896 Q326.817,96.107 327.276,96.586 Q327.735,97.064 328.878,97.064 L330.899,97.064 L330.899,98.5 L328.702,98.5 Q326.68,98.5 325.85,97.689 Q325.02,96.879 325.02,94.896 L325.02,88.959 L322.1,88.959 L322.1,87.562 L325.02,87.562 L325.02,84.457 z" fill="#0142F2"/>
    <path d="M335.948,87.602 L340.548,87.602 L340.548,97.104 L344.112,97.104 L344.112,98.5 L335.186,98.5 L335.186,97.104 L338.751,97.104 L338.751,88.998 L335.948,88.998 z M338.751,83.354 L340.548,83.354 L340.548,85.619 L338.751,85.619 z" fill="#0142F2"/>
    <path d="M350.919,88.822 Q349.551,88.822 348.848,89.887 Q348.145,90.951 348.145,93.041 Q348.145,95.121 348.848,96.19 Q349.551,97.26 350.919,97.26 Q352.296,97.26 352.999,96.19 Q353.702,95.121 353.702,93.041 Q353.702,90.951 352.999,89.887 Q352.296,88.822 350.919,88.822 z M350.919,87.299 Q353.194,87.299 354.4,88.773 Q355.606,90.248 355.606,93.041 Q355.606,95.844 354.405,97.313 Q353.204,98.783 350.919,98.783 Q348.643,98.783 347.442,97.313 Q346.241,95.844 346.241,93.041 Q346.241,90.248 347.442,88.773 Q348.643,87.299 350.919,87.299 z" fill="#0142F2"/>
    <path d="M367.208,91.723 L367.208,98.5 L365.401,98.5 L365.401,91.723 Q365.401,90.248 364.884,89.555 Q364.366,88.861 363.262,88.861 Q362.003,88.861 361.324,89.755 Q360.645,90.648 360.645,92.318 L360.645,98.5 L358.848,98.5 L358.848,87.562 L360.645,87.562 L360.645,89.203 Q361.124,88.266 361.944,87.782 Q362.764,87.299 363.887,87.299 Q365.557,87.299 366.383,88.397 Q367.208,89.496 367.208,91.723 z" fill="#0142F2"/>
    <path d="M384.669,96.84 L391.368,96.84 L391.368,98.5 L382.51,98.5 L382.51,96.84 Q384.337,94.916 385.704,93.441 Q387.071,91.967 387.589,91.361 Q388.565,90.17 388.907,89.433 Q389.249,88.695 389.249,87.924 Q389.249,86.703 388.531,86.01 Q387.813,85.316 386.563,85.316 Q385.675,85.316 384.698,85.639 Q383.721,85.961 382.628,86.615 L382.628,84.623 Q383.634,84.145 384.605,83.9 Q385.577,83.656 386.524,83.656 Q388.663,83.656 389.967,84.794 Q391.27,85.932 391.27,87.777 Q391.27,88.715 390.836,89.652 Q390.401,90.59 389.425,91.723 Q388.878,92.357 387.838,93.48 Q386.798,94.604 384.669,96.84 z" fill="#0142F2"/>
    <path d="M397.384,94.975 L400.43,94.975 L400.43,97.562 L398.507,101.293 L396.417,101.293 L397.384,97.562 z M397.257,87.572 L400.303,87.572 L400.303,91.098 L397.257,91.098 z" fill="#0142F2"/>
    <path d="M303.594,117.252 L302.999,117.252 Q301.426,117.252 300.631,117.804 Q299.835,118.355 299.835,119.449 Q299.835,120.436 300.43,120.982 Q301.026,121.529 302.081,121.529 Q303.565,121.529 304.415,120.499 Q305.264,119.469 305.274,117.652 L305.274,117.252 z M307.081,116.51 L307.081,122.75 L305.274,122.75 L305.274,121.129 Q304.698,122.105 303.824,122.569 Q302.95,123.033 301.7,123.033 Q300.03,123.033 299.034,122.091 Q298.038,121.148 298.038,119.566 Q298.038,117.74 299.263,116.793 Q300.489,115.846 302.862,115.846 L305.274,115.846 L305.274,115.562 Q305.264,114.254 304.61,113.663 Q303.956,113.072 302.52,113.072 Q301.602,113.072 300.665,113.336 Q299.727,113.6 298.839,114.107 L298.839,112.311 Q299.835,111.93 300.748,111.739 Q301.661,111.549 302.52,111.549 Q303.878,111.549 304.84,111.949 Q305.801,112.35 306.397,113.15 Q306.768,113.639 306.925,114.356 Q307.081,115.074 307.081,116.51 z" fill="#0142F2"/>
    <path d="M319.141,122.193 Q318.419,122.613 317.652,122.823 Q316.885,123.033 316.085,123.033 Q313.546,123.033 312.115,121.51 Q310.684,119.986 310.684,117.291 Q310.684,114.596 312.115,113.072 Q313.546,111.549 316.085,111.549 Q316.876,111.549 317.628,111.754 Q318.38,111.959 319.141,112.389 L319.141,114.273 Q318.428,113.639 317.711,113.355 Q316.993,113.072 316.085,113.072 Q314.395,113.072 313.487,114.166 Q312.579,115.26 312.579,117.291 Q312.579,119.312 313.492,120.411 Q314.405,121.51 316.085,121.51 Q317.022,121.51 317.764,121.222 Q318.507,120.934 319.141,120.328 z" fill="#0142F2"/>
    <path d="M326.817,108.707 L326.817,111.812 L330.899,111.812 L330.899,113.209 L326.817,113.209 L326.817,119.146 Q326.817,120.357 327.276,120.836 Q327.735,121.314 328.878,121.314 L330.899,121.314 L330.899,122.75 L328.702,122.75 Q326.68,122.75 325.85,121.939 Q325.02,121.129 325.02,119.146 L325.02,113.209 L322.1,113.209 L322.1,111.812 L325.02,111.812 L325.02,108.707 z" fill="#0142F2"/>
    <path d="M335.948,111.852 L340.548,111.852 L340.548,121.354 L344.112,121.354 L344.112,122.75 L335.186,122.75 L335.186,121.354 L338.751,121.354 L338.751,113.248 L335.948,113.248 z M338.751,107.604 L340.548,107.604 L340.548,109.869 L338.751,109.869 z" fill="#0142F2"/>
    <path d="M350.919,113.072 Q349.551,113.072 348.848,114.137 Q348.145,115.201 348.145,117.291 Q348.145,119.371 348.848,120.44 Q349.551,121.51 350.919,121.51 Q352.296,121.51 352.999,120.44 Q353.702,119.371 353.702,117.291 Q353.702,115.201 352.999,114.137 Q352.296,113.072 350.919,113.072 z M350.919,111.549 Q353.194,111.549 354.4,113.023 Q355.606,114.498 355.606,117.291 Q355.606,120.094 354.405,121.563 Q353.204,123.033 350.919,123.033 Q348.643,123.033 347.442,121.563 Q346.241,120.094 346.241,117.291 Q346.241,114.498 347.442,113.023 Q348.643,111.549 350.919,111.549 z" fill="#0142F2"/>
    <path d="M367.208,115.973 L367.208,122.75 L365.401,122.75 L365.401,115.973 Q365.401,114.498 364.884,113.805 Q364.366,113.111 363.262,113.111 Q362.003,113.111 361.324,114.005 Q360.645,114.898 360.645,116.568 L360.645,122.75 L358.848,122.75 L358.848,111.812 L360.645,111.812 L360.645,113.453 Q361.124,112.516 361.944,112.032 Q362.764,111.549 363.887,111.549 Q365.557,111.549 366.383,112.647 Q367.208,113.746 367.208,115.973 z" fill="#0142F2"/>
    <path d="M391.29,115.973 L391.29,122.75 L389.483,122.75 L389.483,115.973 Q389.483,114.498 388.966,113.805 Q388.448,113.111 387.344,113.111 Q386.085,113.111 385.406,114.005 Q384.727,114.898 384.727,116.568 L384.727,122.75 L382.93,122.75 L382.93,111.812 L384.727,111.812 L384.727,113.453 Q385.206,112.516 386.026,112.032 Q386.846,111.549 387.969,111.549 Q389.639,111.549 390.465,112.647 Q391.29,113.746 391.29,115.973 z" fill="#0142F2"/>
    <path d="M397.384,119.225 L400.43,119.225 L400.43,121.812 L398.507,125.543 L396.417,125.543 L397.384,121.812 z M397.257,111.822 L400.303,111.822 L400.303,115.348 L397.257,115.348 z" fill="#0142F2"/>
    <path d="M290.306,56.646 L290.306,58.512 L288.841,58.512 Q286.41,58.512 285.585,57.789 Q284.759,57.066 284.759,54.908 L284.759,52.809 Q284.759,51.334 284.237,50.772 Q283.714,50.211 282.347,50.211 L281.742,50.211 L281.742,48.346 L282.347,48.346 Q283.714,48.346 284.237,47.789 Q284.759,47.232 284.759,45.748 L284.759,43.648 Q284.759,41.49 285.585,40.772 Q286.41,40.055 288.841,40.055 L290.306,40.055 L290.306,41.91 L289.105,41.91 Q288.089,41.91 287.748,42.32 Q287.406,42.73 287.406,44.127 L287.406,46.168 Q287.406,47.779 286.927,48.434 Q286.449,49.088 285.218,49.273 Q286.449,49.479 286.927,50.143 Q287.406,50.807 287.406,52.408 L287.406,54.41 Q287.406,55.816 287.748,56.231 Q288.089,56.646 289.105,56.646 z" fill="#000000"/>
    <path d="M374.919,199.069 Q372.924,204.046 370.929,204.067 Q368.514,204.088 367.401,201.568 Q366.54,199.636 366.519,196.507 Q366.498,192.979 367.443,190.081 Q368.535,186.7 370.404,186.49 Q370.677,186.469 370.929,186.469 Q372.672,186.469 373.617,188.023 Q374.31,189.199 374.793,191.761 Q375.15,192.79 375.15,193.021 Q375.15,193.714 374.289,194.092 Q374.1,194.176 373.848,194.176 Q373.239,194.176 372.504,193.777 Q371.643,193.315 371.643,192.769 Q371.643,192.685 371.937,191.95 Q371.895,191.026 371.601,190.197 Q371.307,189.367 370.929,189.283 Q370.341,189.136 369.9,191.614 Q369.522,193.672 369.438,196.15 Q369.375,198.019 369.648,199.615 Q369.963,201.442 370.593,201.568 Q370.971,201.631 371.496,200.623 Q372,199.699 372.336,198.439 Q372.294,198.229 372.294,198.04 Q372.294,196.801 373.806,196.801 Q374.142,196.801 374.478,196.864 Q375.507,197.074 375.507,197.893 Q375.507,198.565 374.919,199.069 z" fill="#000000"/>
    <path d="M385.692,188.002 Q385.692,188.254 385.272,188.632 Q384.768,189.052 384.642,189.304 L378.174,201.568 Q378.048,201.778 377.691,202.954 Q377.439,203.71 377.124,203.773 Q376.62,203.878 375.843,203.437 Q374.982,202.933 374.982,202.24 Q375.003,201.904 375.276,201.568 Q375.675,201.085 375.738,200.98 L382.668,188.002 Q382.752,187.855 382.899,187.162 Q383.025,186.658 383.34,186.49 Q383.55,186.385 383.823,186.385 Q384.474,186.385 385.083,186.847 Q385.713,187.372 385.692,188.002 z" fill="#000000"/>
    <path d="M393.924,199.069 Q391.929,204.046 389.934,204.067 Q387.519,204.088 386.406,201.568 Q385.545,199.636 385.524,196.507 Q385.503,192.979 386.448,190.081 Q387.54,186.7 389.409,186.49 Q389.682,186.469 389.934,186.469 Q391.677,186.469 392.622,188.023 Q393.315,189.199 393.798,191.761 Q394.155,192.79 394.155,193.021 Q394.155,193.714 393.294,194.092 Q393.105,194.176 392.853,194.176 Q392.244,194.176 391.509,193.777 Q390.648,193.315 390.648,192.769 Q390.648,192.685 390.942,191.95 Q390.9,191.026 390.606,190.197 Q390.312,189.367 389.934,189.283 Q389.346,189.136 388.905,191.614 Q388.527,193.672 388.443,196.15 Q388.38,198.019 388.653,199.615 Q388.968,201.442 389.598,201.568 Q389.976,201.631 390.501,200.623 Q391.005,199.699 391.341,198.439 Q391.299,198.229 391.299,198.04 Q391.299,196.801 392.811,196.801 Q393.147,196.801 393.483,196.864 Q394.512,197.074 394.512,197.893 Q394.512,198.565 393.924,199.069 z" fill="#000000"/>
    <path d="M402.933,195.037 Q402.597,195.016 401.862,195.058 L400.35,195.31 L400.518,196.654 Q400.539,196.843 400.655,197.189 Q400.77,197.536 400.77,197.704 Q400.77,198.166 400.245,198.418 Q399.825,198.628 399.3,198.628 Q398.586,198.628 398.302,198.302 Q398.019,197.977 397.914,197.231 Q397.809,196.486 397.704,195.688 L396.822,196.066 Q396.444,196.234 396.066,196.192 Q395.604,196.15 395.289,195.667 Q394.974,195.184 394.974,194.617 Q394.974,194.26 395.163,193.893 Q395.352,193.525 395.688,193.525 Q395.772,193.525 396.024,193.609 Q396.276,193.693 396.444,193.672 L397.494,193.504 L397.284,191.782 Q397.263,191.656 397.179,191.425 Q397.095,191.194 397.095,191.068 Q397.095,190.69 397.872,190.459 Q398.439,190.291 398.943,190.291 Q400.182,190.291 400.182,190.858 Q400.182,190.963 400.066,191.225 Q399.951,191.488 399.972,191.656 L400.098,193.168 L401.022,193 Q401.211,192.958 401.631,192.832 Q401.988,192.706 402.198,192.706 Q402.702,192.706 403.112,193.189 Q403.521,193.672 403.521,194.197 Q403.521,194.869 402.933,195.037 z" fill="#000000"/>
    <path d="M412.173,195.037 Q411.837,195.016 411.102,195.058 L409.59,195.31 L409.758,196.654 Q409.779,196.843 409.895,197.189 Q410.01,197.536 410.01,197.704 Q410.01,198.166 409.485,198.418 Q409.065,198.628 408.54,198.628 Q407.826,198.628 407.543,198.302 Q407.259,197.977 407.154,197.231 Q407.049,196.486 406.944,195.688 L406.062,196.066 Q405.684,196.234 405.306,196.192 Q404.844,196.15 404.529,195.667 Q404.214,195.184 404.214,194.617 Q404.214,194.26 404.403,193.893 Q404.592,193.525 404.928,193.525 Q405.012,193.525 405.264,193.609 Q405.516,193.693 405.684,193.672 L406.734,193.504 L406.524,191.782 Q406.503,191.656 406.419,191.425 Q406.335,191.194 406.335,191.068 Q406.335,190.69 407.112,190.459 Q407.679,190.291 408.183,190.291 Q409.422,190.291 409.422,190.858 Q409.422,190.963 409.307,191.225 Q409.191,191.488 409.212,191.656 L409.338,193.168 L410.262,193 Q410.451,192.958 410.871,192.832 Q411.228,192.706 411.438,192.706 Q411.942,192.706 412.352,193.189 Q412.761,193.672 412.761,194.197 Q412.761,194.869 412.173,195.037 z" fill="#000000"/>
    <path d="M296.739,143.746 L299.122,143.746 L300.421,152.125 L301.602,146.608 L303.917,146.608 L305.079,152.125 L306.397,143.746 L308.78,143.746 L306.798,154.684 L304.083,154.684 L302.755,149 L301.436,154.684 L298.721,154.684 z" fill="#000000"/>
    <path d="M319.239,147.584 L319.239,154.684 L316.397,154.684 L316.397,148.024 Q316.397,146.842 316.06,146.334 Q315.723,145.827 314.962,145.827 Q314.18,145.827 313.741,146.515 Q313.301,147.204 313.301,148.424 L313.301,154.684 L310.46,154.684 L310.46,139.489 L313.301,139.489 L313.301,145.387 Q313.604,144.479 314.337,143.981 Q315.069,143.483 316.104,143.483 Q317.657,143.483 318.448,144.513 Q319.239,145.543 319.239,147.584 z" fill="#000000"/>
    <path d="M322.979,143.746 L328.643,143.746 L328.643,152.487 L332.198,152.487 L332.198,154.684 L322.217,154.684 L322.217,152.487 L325.782,152.487 L325.782,145.944 L322.979,145.944 z M325.782,138.424 L328.643,138.424 L328.643,141.764 L325.782,141.764 z" fill="#000000"/>
    <path d="M336.641,150.123 L336.641,141.686 L333.741,141.686 L333.741,139.489 L339.503,139.489 L339.503,150.123 Q339.503,151.413 339.903,151.95 Q340.303,152.487 341.26,152.487 L343.546,152.487 L343.546,154.684 L340.46,154.684 Q338.419,154.684 337.53,153.629 Q336.641,152.575 336.641,150.123 z" fill="#000000"/>
    <path d="M355.665,154.147 Q354.669,154.557 353.634,154.762 Q352.598,154.967 351.446,154.967 Q348.702,154.967 347.252,153.497 Q345.801,152.028 345.801,149.264 Q345.801,146.588 347.198,145.036 Q348.594,143.483 351.007,143.483 Q353.438,143.483 354.781,144.923 Q356.124,146.364 356.124,148.981 L356.124,150.143 L348.712,150.143 Q348.721,151.432 349.473,152.067 Q350.225,152.702 351.719,152.702 Q352.706,152.702 353.663,152.418 Q354.62,152.135 355.665,151.52 z M353.243,147.995 Q353.223,146.862 352.662,146.281 Q352.1,145.7 351.007,145.7 Q350.02,145.7 349.434,146.3 Q348.848,146.901 348.741,148.004 z" fill="#000000"/>
  </g>
</svg>
