<?xml version="1.0" encoding="UTF-8"?>
<!DOCTYPE svg PUBLIC "-//W3C//DTD SVG 1.1//EN" "http://www.w3.org/Graphics/SVG/1.1/DTD/svg11.dtd">
<svg version="1.1" xmlns="http://www.w3.org/2000/svg" xmlns:xlink="http://www.w3.org/1999/xlink" x="0" y="0" width="995.667" height="162.368" viewBox="0, 0, 995.667, 162.368">
  <g id="Calque_1" transform="translate(0, 0)">
    <path d="M217.837,0 L470.163,0 C486.089,0 499,3.233 499,7.222 L499,56.277 C499,60.266 486.089,63.5 470.163,63.5 L217.837,63.5 C201.911,63.5 189,60.266 189,56.277 L189,7.222 C189,3.233 201.911,0 217.837,0 z" fill="#FFF4B8" fill-opacity="0.5"/>
    <path d="M9.395,0 L91.605,0 C96.794,0 101,3.233 101,7.222 L101,56.277 C101,60.266 96.794,63.5 91.605,63.5 L9.395,63.5 C4.207,63.5 0,60.266 0,56.277 L0,7.222 C0,3.233 4.207,0 9.395,0 z" fill="#FFF4B8" fill-opacity="0.5"/>
    <path d="M7.046,48.076 L17.915,48.076 L17.915,50.834 L7.046,50.834 z" fill="#000000"/>
    <path d="M20.571,52.834 L23.955,52.834 L23.955,42.898 L20.807,43.677 L20.807,40.95 L23.975,40.191 L26.897,40.191 L26.897,52.834 L30.281,52.834 L30.281,55.5 L20.571,55.5 z" fill="#000000"/>
    <path d="M35.736,52.834 L42.186,52.834 L42.186,55.5 L32.465,55.5 L32.465,52.916 L34.106,51.173 Q37.028,48.066 37.654,47.348 Q38.423,46.466 38.761,45.784 Q39.1,45.103 39.1,44.436 Q39.1,43.411 38.479,42.852 Q37.859,42.293 36.721,42.293 Q35.911,42.293 34.901,42.616 Q33.891,42.939 32.793,43.554 L32.793,40.734 Q33.891,40.334 34.942,40.124 Q35.993,39.914 36.957,39.914 Q39.387,39.914 40.776,41.047 Q42.166,42.18 42.166,44.139 Q42.166,45.041 41.863,45.831 Q41.561,46.62 40.822,47.584 Q40.279,48.281 37.838,50.722 Q36.516,52.044 35.736,52.834 z" fill="#000000"/>
    <path d="M45.313,40.191 L54.993,40.191 L54.993,42.334 L49.805,55.5 L46.718,55.5 L51.702,42.857 L45.313,42.857 z" fill="#000000"/>
    <path d="M61.176,51.737 L64.591,51.737 L64.591,55.5 L61.176,55.5 z" fill="#000000"/>
    <path d="M74.845,48.65 L73.225,48.65 L73.225,45.984 L74.845,45.984 Q75.973,45.984 76.593,45.538 Q77.213,45.092 77.213,44.282 Q77.213,43.431 76.593,42.954 Q75.973,42.478 74.845,42.478 Q73.983,42.478 72.999,42.693 Q72.015,42.908 70.958,43.318 L70.958,40.57 Q72.015,40.252 73.04,40.083 Q74.065,39.914 75.009,39.914 Q77.429,39.914 78.782,40.97 Q80.136,42.026 80.136,43.882 Q80.136,45.246 79.356,46.113 Q78.577,46.979 77.131,47.246 Q78.772,47.533 79.633,48.553 Q80.495,49.573 80.495,51.234 Q80.495,53.459 79.069,54.628 Q77.644,55.797 74.927,55.797 Q73.768,55.797 72.645,55.603 Q71.522,55.408 70.497,55.039 L70.497,52.229 Q71.461,52.711 72.579,52.962 Q73.696,53.213 74.927,53.213 Q76.157,53.213 76.875,52.644 Q77.593,52.075 77.593,51.111 Q77.593,49.932 76.875,49.291 Q76.157,48.65 74.845,48.65 z" fill="#000000"/>
    <path d="M88.975,43.554 L85.109,49.604 L88.975,49.604 z M88.708,40.191 L91.876,40.191 L91.876,49.604 L93.558,49.604 L93.558,52.198 L91.876,52.198 L91.876,55.5 L88.975,55.5 L88.975,52.198 L82.904,52.198 L82.904,49.266 z" fill="#000000"/>
    <g>
      <path d="M107.5,49.5 L162.9,49.5" fill-opacity="0" stroke="#000000" stroke-width="3"/>
      <g>
        <path d="M162.9,53.7 L174.1,49.5 L162.9,45.3 z" fill="#000000"/>
        <path d="M162.9,53.7 L174.1,49.5 L162.9,45.3 z" fill-opacity="0" stroke="#000000" stroke-width="3"/>
      </g>
    </g>
    <path d="M205.829,39.565 Q204.475,42.016 203.819,44.313 Q203.163,46.61 203.163,48.907 Q203.163,51.183 203.819,53.495 Q204.475,55.808 205.829,58.269 L203.491,58.269 Q201.86,55.9 201.071,53.598 Q200.281,51.296 200.281,48.907 Q200.281,46.528 201.076,44.216 Q201.871,41.903 203.491,39.565 z" fill="#4CEC00"/>
    <path d="M210.043,48.076 L220.912,48.076 L220.912,50.834 L210.043,50.834 z" fill="#4CEC00"/>
    <path d="M223.568,52.834 L226.952,52.834 L226.952,42.898 L223.804,43.677 L223.804,40.95 L226.972,40.191 L229.895,40.191 L229.895,52.834 L233.278,52.834 L233.278,55.5 L223.568,55.5 z" fill="#4CEC00"/>
    <path d="M237.452,39.565 L239.79,39.565 Q241.41,41.903 242.204,44.216 Q242.999,46.528 242.999,48.907 Q242.999,51.296 242.209,53.598 Q241.42,55.9 239.79,58.269 L237.452,58.269 Q238.805,55.808 239.461,53.495 Q240.118,51.183 240.118,48.907 Q240.118,46.61 239.461,44.313 Q238.805,42.016 237.452,39.565 z" fill="#4CEC00"/>
    <path d="M271.617,46.764 L267.383,49.05 L271.628,51.357 L270.725,52.916 L266.716,50.496 L266.716,54.977 L264.901,54.977 L264.901,50.506 Q263.927,51.091 262.891,51.716 Q261.856,52.342 260.892,52.916 L260,51.357 L264.255,49.05 L260.01,46.764 L260.892,45.195 L264.901,47.604 L264.901,43.134 L266.716,43.134 L266.716,47.604 Q267.7,47.02 268.731,46.395 Q269.761,45.769 270.725,45.195 z" fill="#000000"/>
    <path d="M286.783,52.834 L290.167,52.834 L290.167,42.898 L287.019,43.677 L287.019,40.95 L290.187,40.191 L293.109,40.191 L293.109,52.834 L296.493,52.834 L296.493,55.5 L286.783,55.5 z" fill="#F42300"/>
    <path d="M301.948,52.834 L308.398,52.834 L308.398,55.5 L298.677,55.5 L298.677,52.916 L300.318,51.173 Q303.24,48.066 303.866,47.348 Q304.635,46.466 304.973,45.784 Q305.312,45.103 305.312,44.436 Q305.312,43.411 304.691,42.852 Q304.071,42.293 302.933,42.293 Q302.123,42.293 301.113,42.616 Q300.103,42.939 299.005,43.554 L299.005,40.734 Q300.103,40.334 301.154,40.124 Q302.205,39.914 303.168,39.914 Q305.599,39.914 306.988,41.047 Q308.377,42.18 308.377,44.139 Q308.377,45.041 308.075,45.831 Q307.772,46.62 307.034,47.584 Q306.491,48.281 304.05,50.722 Q302.728,52.044 301.948,52.834 z" fill="#F42300"/>
    <path d="M311.525,40.191 L321.205,40.191 L321.205,42.334 L316.017,55.5 L312.93,55.5 L317.914,42.857 L311.525,42.857 z" fill="#F42300"/>
    <path d="M328.414,48.65 L326.793,48.65 L326.793,45.984 L328.414,45.984 Q329.542,45.984 330.162,45.538 Q330.782,45.092 330.782,44.282 Q330.782,43.431 330.162,42.954 Q329.542,42.478 328.414,42.478 Q327.552,42.478 326.568,42.693 Q325.583,42.908 324.527,43.318 L324.527,40.57 Q325.583,40.252 326.609,40.083 Q327.634,39.914 328.578,39.914 Q330.998,39.914 332.351,40.97 Q333.705,42.026 333.705,43.882 Q333.705,45.246 332.925,46.113 Q332.146,46.979 330.7,47.246 Q332.341,47.533 333.202,48.553 Q334.063,49.573 334.063,51.234 Q334.063,53.459 332.638,54.628 Q331.213,55.797 328.496,55.797 Q327.337,55.797 326.214,55.603 Q325.091,55.408 324.066,55.039 L324.066,52.229 Q325.03,52.711 326.147,52.962 Q327.265,53.213 328.496,53.213 Q329.726,53.213 330.444,52.644 Q331.162,52.075 331.162,51.111 Q331.162,49.932 330.444,49.291 Q329.726,48.65 328.414,48.65 z" fill="#F42300"/>
    <path d="M342.543,43.554 L338.678,49.604 L342.543,49.604 z M342.277,40.191 L345.445,40.191 L345.445,49.604 L347.127,49.604 L347.127,52.198 L345.445,52.198 L345.445,55.5 L342.543,55.5 L342.543,52.198 L336.473,52.198 L336.473,49.266 z" fill="#F42300"/>
    <path d="M372.762,46.764 L368.528,49.05 L372.773,51.357 L371.87,52.916 L367.861,50.496 L367.861,54.977 L366.046,54.977 L366.046,50.506 Q365.072,51.091 364.036,51.716 Q363.001,52.342 362.037,52.916 L361.145,51.357 L365.4,49.05 L361.155,46.764 L362.037,45.195 L366.046,47.604 L366.046,43.134 L367.861,43.134 L367.861,47.604 Q368.845,47.02 369.876,46.395 Q370.906,45.769 371.87,45.195 z" fill="#000000"/>
    <path d="M387.928,52.834 L391.312,52.834 L391.312,42.898 L388.164,43.677 L388.164,40.95 L391.332,40.191 L394.255,40.191 L394.255,52.834 L397.638,52.834 L397.638,55.5 L387.928,55.5 z" fill="#000000"/>
    <path d="M399.904,47.861 Q399.904,43.882 401.166,41.898 Q402.427,39.914 404.96,39.914 Q407.503,39.914 408.764,41.893 Q410.025,43.872 410.025,47.861 Q410.025,51.839 408.764,53.818 Q407.503,55.797 404.96,55.797 Q402.427,55.797 401.166,53.813 Q399.904,51.829 399.904,47.861 z M403.432,51.952 Q403.914,53.234 404.96,53.234 Q406.016,53.234 406.498,51.952 Q406.98,50.67 406.98,47.861 Q406.98,46.794 406.908,45.954 L403.329,51.655 Q403.381,51.819 403.432,51.952 z M404.96,42.478 Q403.914,42.478 403.432,43.759 Q402.95,45.041 402.95,47.861 Q402.95,48.732 402.991,49.45 L406.518,43.821 Q406.508,43.79 406.498,43.759 Q406.016,42.478 404.96,42.478 z" fill="#000000"/>
    <path d="M418.864,40.191 L423.345,45.902 L420.863,45.902 L417.603,42.816 L414.352,45.902 L411.871,45.902 L416.352,40.191 z" fill="#000000"/>
    <path d="M433.404,39.565 Q432.05,42.016 431.394,44.313 Q430.738,46.61 430.738,48.907 Q430.738,51.183 431.394,53.495 Q432.05,55.808 433.404,58.269 L431.066,58.269 Q429.436,55.9 428.646,53.598 Q427.857,51.296 427.857,48.907 Q427.857,46.528 428.651,44.216 Q429.446,41.903 431.066,39.565 z" fill="#000000"/>
    <path d="M437.618,48.076 L448.487,48.076 L448.487,50.834 L437.618,50.834 z" fill="#000000"/>
    <path d="M450.476,47.861 Q450.476,43.882 451.737,41.898 Q452.999,39.914 455.531,39.914 Q458.074,39.914 459.336,41.893 Q460.597,43.872 460.597,47.861 Q460.597,51.839 459.336,53.818 Q458.074,55.797 455.531,55.797 Q452.999,55.797 451.737,53.813 Q450.476,51.829 450.476,47.861 z M454.004,51.952 Q454.486,53.234 455.531,53.234 Q456.588,53.234 457.069,51.952 Q457.551,50.67 457.551,47.861 Q457.551,46.794 457.48,45.954 L453.901,51.655 Q453.952,51.819 454.004,51.952 z M455.531,42.478 Q454.486,42.478 454.004,43.759 Q453.522,45.041 453.522,47.861 Q453.522,48.732 453.563,49.45 L457.09,43.821 Q457.08,43.79 457.069,43.759 Q456.588,42.478 455.531,42.478 z" fill="#0142F2"/>
    <path d="M466.308,52.834 L472.758,52.834 L472.758,55.5 L463.037,55.5 L463.037,52.916 L464.678,51.173 Q467.6,48.066 468.226,47.348 Q468.995,46.466 469.333,45.784 Q469.672,45.103 469.672,44.436 Q469.672,43.411 469.051,42.852 Q468.431,42.293 467.293,42.293 Q466.483,42.293 465.473,42.616 Q464.463,42.939 463.365,43.554 L463.365,40.734 Q464.463,40.334 465.514,40.124 Q466.565,39.914 467.528,39.914 Q469.959,39.914 471.348,41.047 Q472.737,42.18 472.737,44.139 Q472.737,45.041 472.435,45.831 Q472.132,46.62 471.394,47.584 Q470.851,48.281 468.41,50.722 Q467.088,52.044 466.308,52.834 z" fill="#0142F2"/>
    <path d="M477.669,39.565 L480.007,39.565 Q481.627,41.903 482.422,44.216 Q483.217,46.528 483.217,48.907 Q483.217,51.296 482.427,53.598 Q481.638,55.9 480.007,58.269 L477.669,58.269 Q479.023,55.808 479.679,53.495 Q480.335,51.183 480.335,48.907 Q480.335,46.61 479.679,44.313 Q479.023,42.016 477.669,39.565 z" fill="#000000"/>
    <g>
      <path d="M217.62,70.526 L195.5,136" fill-opacity="0" stroke="#4CEC00" stroke-width="1"/>
      <g>
        <path d="M220.462,71.486 L220.18,62.947 L214.777,69.566 z" fill="#4CEC00"/>
        <path d="M220.462,71.486 L220.18,62.947 L214.777,69.566 z" fill-opacity="0" stroke="#4CEC00" stroke-width="1"/>
      </g>
    </g>
    <g>
      <path d="M319.742,71 L319.5,136.5" fill-opacity="0" stroke="#F42300" stroke-width="1"/>
      <g>
        <path d="M322.742,71.011 L319.772,63 L316.742,70.988 z" fill="#F42300"/>
        <path d="M322.742,71.011 L319.772,63 L316.742,70.988 z" fill-opacity="0" stroke="#F42300" stroke-width="1"/>
      </g>
    </g>
    <g>
      <path d="M462.48,71 L462.333,136.5" fill-opacity="0" stroke="#0142F2" stroke-width="1"/>
      <g>
        <path d="M465.48,71.006 L462.498,63 L459.48,70.993 z" fill="#0142F2"/>
        <path d="M465.48,71.006 L462.498,63 L459.48,70.993 z" fill-opacity="0" stroke="#0142F2" stroke-width="1"/>
      </g>
    </g>
    <path d="M268.448,142.691 L272.057,142.691 L273.882,149.407 L275.697,142.691 L279.327,142.691 L279.327,158 L276.723,158 L276.723,145.736 L275.103,152.432 L272.693,152.432 L271.052,145.736 L271.052,158 L268.448,158 z" fill="#F42300"/>
    <path d="M287.387,152.606 Q285.705,152.606 285.039,153.037 Q284.372,153.468 284.372,154.514 Q284.372,155.293 284.834,155.754 Q285.295,156.216 286.085,156.216 Q287.274,156.216 287.93,155.319 Q288.586,154.421 288.586,152.812 L288.586,152.606 z M291.57,151.448 L291.57,158 L288.586,158 L288.586,156.718 Q288.043,157.477 287.192,157.887 Q286.341,158.297 285.315,158.297 Q283.357,158.297 282.265,157.262 Q281.173,156.226 281.173,154.37 Q281.173,152.36 282.475,151.402 Q283.777,150.443 286.505,150.443 L288.586,150.443 L288.586,149.94 Q288.586,149.212 288.058,148.838 Q287.53,148.464 286.505,148.464 Q285.428,148.464 284.418,148.736 Q283.408,149.007 282.311,149.602 L282.311,147.039 Q283.306,146.628 284.331,146.434 Q285.357,146.239 286.505,146.239 Q289.304,146.239 290.437,147.377 Q291.57,148.515 291.57,151.448 z" fill="#F42300"/>
    <path d="M303.834,150.545 L303.834,158 L300.85,158 L300.85,151.007 Q300.85,149.756 300.496,149.218 Q300.143,148.679 299.343,148.679 Q298.533,148.679 298.066,149.407 Q297.6,150.135 297.6,151.427 L297.6,158 L294.616,158 L294.616,146.516 L297.6,146.516 L297.6,148.238 Q297.918,147.285 298.687,146.762 Q299.456,146.239 300.543,146.239 Q302.173,146.239 303.003,147.321 Q303.834,148.402 303.834,150.545 z" fill="#F42300"/>
    <path d="M312.57,143.255 L312.57,146.516 L316.498,146.516 L316.498,148.823 L312.57,148.823 L312.57,154.257 Q312.57,155.026 312.945,155.36 Q313.319,155.693 314.19,155.693 L316.498,155.693 L316.498,158 L313.975,158 Q311.391,158 310.479,157.175 Q309.566,156.349 309.566,154.114 L309.566,148.823 L306.633,148.823 L306.633,146.516 L309.566,146.516 L309.566,143.255 z" fill="#F42300"/>
    <path d="M320.404,146.516 L326.352,146.516 L326.352,155.693 L330.084,155.693 L330.084,158 L319.605,158 L319.605,155.693 L323.347,155.693 L323.347,148.823 L320.404,148.823 z M323.347,140.927 L326.352,140.927 L326.352,144.434 L323.347,144.434 z" fill="#F42300"/>
    <path d="M340.943,146.875 L340.943,149.5 Q340.112,148.966 339.215,148.695 Q338.318,148.423 337.416,148.423 Q336.411,148.423 335.898,148.715 Q335.385,149.007 335.385,149.582 Q335.385,150.402 337.58,150.915 L337.692,150.945 L338.554,151.15 Q340.194,151.54 340.958,152.406 Q341.722,153.273 341.722,154.75 Q341.722,156.523 340.558,157.41 Q339.395,158.297 337.057,158.297 Q336.021,158.297 334.934,158.118 Q333.847,157.938 332.73,157.58 L332.73,154.955 Q333.724,155.519 334.755,155.816 Q335.785,156.113 336.749,156.113 Q337.805,156.113 338.349,155.806 Q338.892,155.498 338.892,154.914 Q338.892,154.339 338.508,154.032 Q338.123,153.724 336.677,153.375 L335.847,153.191 Q334.124,152.801 333.335,151.971 Q332.545,151.14 332.545,149.746 Q332.545,148.084 333.745,147.162 Q334.944,146.239 337.118,146.239 Q338.092,146.239 339.061,146.398 Q340.03,146.557 340.943,146.875 z" fill="#F42300"/>
    <path d="M353.586,146.875 L353.586,149.5 Q352.755,148.966 351.858,148.695 Q350.961,148.423 350.059,148.423 Q349.054,148.423 348.541,148.715 Q348.028,149.007 348.028,149.582 Q348.028,150.402 350.223,150.915 L350.336,150.945 L351.197,151.15 Q352.837,151.54 353.601,152.406 Q354.365,153.273 354.365,154.75 Q354.365,156.523 353.201,157.41 Q352.038,158.297 349.7,158.297 Q348.664,158.297 347.577,158.118 Q346.49,157.938 345.373,157.58 L345.373,154.955 Q346.367,155.519 347.398,155.816 Q348.428,156.113 349.392,156.113 Q350.448,156.113 350.992,155.806 Q351.535,155.498 351.535,154.914 Q351.535,154.339 351.151,154.032 Q350.766,153.724 349.32,153.375 L348.49,153.191 Q346.767,152.801 345.978,151.971 Q345.188,151.14 345.188,149.746 Q345.188,148.084 346.388,147.162 Q347.587,146.239 349.761,146.239 Q350.735,146.239 351.704,146.398 Q352.673,146.557 353.586,146.875 z" fill="#F42300"/>
    <path d="M367.367,157.436 Q366.321,157.867 365.234,158.082 Q364.148,158.297 362.938,158.297 Q360.056,158.297 358.534,156.754 Q357.011,155.211 357.011,152.309 Q357.011,149.5 358.477,147.869 Q359.943,146.239 362.476,146.239 Q365.029,146.239 366.439,147.751 Q367.849,149.264 367.849,152.012 L367.849,153.232 L360.066,153.232 Q360.077,154.585 360.866,155.252 Q361.656,155.918 363.225,155.918 Q364.26,155.918 365.265,155.621 Q366.27,155.324 367.367,154.678 z M364.824,150.976 Q364.804,149.787 364.214,149.177 Q363.625,148.566 362.476,148.566 Q361.44,148.566 360.825,149.197 Q360.21,149.828 360.097,150.986 z" fill="#F42300"/>
    <path d="M156.37,151.284 Q154.084,150.412 153.274,149.453 Q152.464,148.495 152.464,146.875 Q152.464,144.793 153.797,143.604 Q155.13,142.414 157.457,142.414 Q158.514,142.414 159.57,142.655 Q160.626,142.896 161.661,143.368 L161.661,146.321 Q160.687,145.634 159.682,145.275 Q158.678,144.916 157.693,144.916 Q156.596,144.916 156.012,145.357 Q155.427,145.798 155.427,146.618 Q155.427,147.254 155.853,147.669 Q156.278,148.084 157.632,148.587 L158.934,149.079 Q160.78,149.756 161.651,150.874 Q162.523,151.991 162.523,153.693 Q162.523,156.011 161.154,157.154 Q159.785,158.297 157.016,158.297 Q155.878,158.297 154.735,158.026 Q153.592,157.754 152.525,157.221 L152.525,154.093 Q153.735,154.955 154.868,155.375 Q156.001,155.795 157.109,155.795 Q158.226,155.795 158.842,155.288 Q159.457,154.78 159.457,153.868 Q159.457,153.181 159.047,152.663 Q158.637,152.145 157.857,151.848 z" fill="#4CEC00"/>
    <path d="M166.05,146.516 L171.997,146.516 L171.997,155.693 L175.73,155.693 L175.73,158 L165.25,158 L165.25,155.693 L168.993,155.693 L168.993,148.823 L166.05,148.823 z M168.993,140.927 L171.997,140.927 L171.997,144.434 L168.993,144.434 z" fill="#4CEC00"/>
    <path d="M184.661,152.073 Q184.661,150.535 184.077,149.607 Q183.492,148.679 182.538,148.679 Q181.595,148.679 181.016,149.602 Q180.436,150.525 180.436,152.073 Q180.436,153.632 181.016,154.555 Q181.595,155.478 182.538,155.478 Q183.492,155.478 184.077,154.55 Q184.661,153.622 184.661,152.073 z M187.665,157.139 Q187.665,159.897 186.42,161.122 Q185.174,162.348 182.374,162.348 Q181.431,162.348 180.508,162.209 Q179.585,162.071 178.632,161.784 L178.632,159.025 Q179.483,159.497 180.365,159.723 Q181.246,159.948 182.18,159.948 Q183.451,159.948 184.056,159.348 Q184.661,158.749 184.661,157.477 L184.661,156.236 Q184.22,157.057 183.492,157.457 Q182.764,157.856 181.718,157.856 Q179.749,157.856 178.591,156.318 Q177.432,154.78 177.432,152.145 Q177.432,149.417 178.591,147.818 Q179.749,146.218 181.698,146.218 Q182.682,146.218 183.451,146.68 Q184.22,147.141 184.661,147.982 L184.661,146.516 L187.665,146.516 z" fill="#4CEC00"/>
    <path d="M200.052,150.545 L200.052,158 L197.068,158 L197.068,151.007 Q197.068,149.756 196.714,149.218 Q196.361,148.679 195.561,148.679 Q194.751,148.679 194.284,149.407 Q193.818,150.135 193.818,151.427 L193.818,158 L190.834,158 L190.834,146.516 L193.818,146.516 L193.818,148.238 Q194.136,147.285 194.905,146.762 Q195.674,146.239 196.761,146.239 Q198.391,146.239 199.222,147.321 Q200.052,148.402 200.052,150.545 z" fill="#4CEC00"/>
    <path d="M213.013,157.436 Q211.967,157.867 210.88,158.082 Q209.793,158.297 208.583,158.297 Q205.702,158.297 204.179,156.754 Q202.657,155.211 202.657,152.309 Q202.657,149.5 204.123,147.869 Q205.589,146.239 208.122,146.239 Q210.675,146.239 212.085,147.751 Q213.495,149.264 213.495,152.012 L213.495,153.232 L205.712,153.232 Q205.723,154.585 206.512,155.252 Q207.302,155.918 208.87,155.918 Q209.906,155.918 210.911,155.621 Q211.916,155.324 213.013,154.678 z M210.47,150.976 Q210.45,149.787 209.86,149.177 Q209.27,148.566 208.122,148.566 Q207.086,148.566 206.471,149.197 Q205.856,149.828 205.743,150.986 z" fill="#4CEC00"/>
    <path d="M423.27,158 L413.734,158 L413.734,142.691 L423.27,142.691 L423.27,145.357 L416.759,145.357 L416.759,148.659 L422.655,148.659 L422.655,151.325 L416.759,151.325 L416.759,155.334 L423.27,155.334 z" fill="#0142F2"/>
    <path d="M436.395,146.516 L432.529,152.012 L436.733,158 L433.226,158 L430.97,154.134 L428.725,158 L425.218,158 L429.463,152.012 L425.556,146.516 L429.063,146.516 L430.97,149.94 L432.888,146.516 z" fill="#0142F2"/>
    <path d="M441.829,156.38 L441.829,162.368 L438.835,162.368 L438.835,146.516 L441.829,146.516 L441.829,148.238 Q442.301,147.244 443.07,146.741 Q443.839,146.239 444.875,146.239 Q446.844,146.239 447.93,147.818 Q449.017,149.397 449.017,152.268 Q449.017,155.18 447.915,156.739 Q446.813,158.297 444.772,158.297 Q443.849,158.297 443.116,157.821 Q442.383,157.344 441.829,156.38 z M446.013,152.248 Q446.013,150.586 445.459,149.643 Q444.906,148.7 443.931,148.7 Q442.957,148.7 442.393,149.643 Q441.829,150.586 441.829,152.248 Q441.829,153.909 442.393,154.852 Q442.957,155.795 443.931,155.795 Q444.906,155.795 445.459,154.852 Q446.013,153.909 446.013,152.248 z" fill="#0142F2"/>
    <path d="M456.257,148.679 Q455.18,148.679 454.565,149.628 Q453.949,150.576 453.949,152.268 Q453.949,153.96 454.565,154.908 Q455.18,155.857 456.257,155.857 Q457.344,155.857 457.959,154.908 Q458.574,153.96 458.574,152.268 Q458.574,150.576 457.959,149.628 Q457.344,148.679 456.257,148.679 z M450.945,152.268 Q450.945,149.489 452.386,147.864 Q453.826,146.239 456.257,146.239 Q458.697,146.239 460.138,147.864 Q461.578,149.489 461.578,152.268 Q461.578,155.047 460.138,156.672 Q458.697,158.297 456.257,158.297 Q453.826,158.297 452.386,156.672 Q450.945,155.047 450.945,152.268 z" fill="#0142F2"/>
    <path d="M472.745,146.875 L472.745,149.5 Q471.914,148.966 471.017,148.695 Q470.12,148.423 469.218,148.423 Q468.213,148.423 467.7,148.715 Q467.187,149.007 467.187,149.582 Q467.187,150.402 469.382,150.915 L469.494,150.945 L470.356,151.15 Q471.996,151.54 472.76,152.406 Q473.524,153.273 473.524,154.75 Q473.524,156.523 472.36,157.41 Q471.197,158.297 468.859,158.297 Q467.823,158.297 466.736,158.118 Q465.649,157.938 464.532,157.58 L464.532,154.955 Q465.526,155.519 466.557,155.816 Q467.587,156.113 468.551,156.113 Q469.607,156.113 470.151,155.806 Q470.694,155.498 470.694,154.914 Q470.694,154.339 470.31,154.032 Q469.925,153.724 468.479,153.375 L467.649,153.191 Q465.926,152.801 465.137,151.971 Q464.347,151.14 464.347,149.746 Q464.347,148.084 465.547,147.162 Q466.746,146.239 468.92,146.239 Q469.894,146.239 470.863,146.398 Q471.832,146.557 472.745,146.875 z" fill="#0142F2"/>
    <path d="M482.404,152.606 Q480.722,152.606 480.056,153.037 Q479.389,153.468 479.389,154.514 Q479.389,155.293 479.851,155.754 Q480.312,156.216 481.102,156.216 Q482.291,156.216 482.948,155.319 Q483.604,154.421 483.604,152.812 L483.604,152.606 z M486.588,151.448 L486.588,158 L483.604,158 L483.604,156.718 Q483.06,157.477 482.209,157.887 Q481.358,158.297 480.333,158.297 Q478.374,158.297 477.282,157.262 Q476.19,156.226 476.19,154.37 Q476.19,152.36 477.492,151.402 Q478.795,150.443 481.522,150.443 L483.604,150.443 L483.604,149.94 Q483.604,149.212 483.076,148.838 Q482.548,148.464 481.522,148.464 Q480.446,148.464 479.436,148.736 Q478.426,149.007 477.328,149.602 L477.328,147.039 Q478.323,146.628 479.348,146.434 Q480.374,146.239 481.522,146.239 Q484.322,146.239 485.455,147.377 Q486.588,148.515 486.588,151.448 z" fill="#0142F2"/>
    <path d="M498.851,150.545 L498.851,158 L495.867,158 L495.867,151.007 Q495.867,149.756 495.514,149.218 Q495.16,148.679 494.36,148.679 Q493.55,148.679 493.084,149.407 Q492.617,150.135 492.617,151.427 L492.617,158 L489.633,158 L489.633,146.516 L492.617,146.516 L492.617,148.238 Q492.935,147.285 493.704,146.762 Q494.473,146.239 495.56,146.239 Q497.19,146.239 498.021,147.321 Q498.851,148.402 498.851,150.545 z" fill="#0142F2"/>
    <path d="M507.588,143.255 L507.588,146.516 L511.515,146.516 L511.515,148.823 L507.588,148.823 L507.588,154.257 Q507.588,155.026 507.962,155.36 Q508.336,155.693 509.208,155.693 L511.515,155.693 L511.515,158 L508.992,158 Q506.408,158 505.496,157.175 Q504.583,156.349 504.583,154.114 L504.583,148.823 L501.651,148.823 L501.651,146.516 L504.583,146.516 L504.583,143.255 z" fill="#0142F2"/>
    <path d="M7.955,6.794 L10.122,6.794 L12.966,14.211 L12.966,6.794 L14.744,6.794 L14.744,17 L12.59,17 L9.733,9.583 L9.733,17 L7.955,17 z" fill="#000000"/>
    <path d="M19.782,10.786 Q19.064,10.786 18.654,11.418 Q18.244,12.051 18.244,13.179 Q18.244,14.307 18.654,14.939 Q19.064,15.571 19.782,15.571 Q20.506,15.571 20.916,14.939 Q21.327,14.307 21.327,13.179 Q21.327,12.051 20.916,11.418 Q20.506,10.786 19.782,10.786 z M16.241,13.179 Q16.241,11.326 17.201,10.243 Q18.162,9.159 19.782,9.159 Q21.409,9.159 22.369,10.243 Q23.33,11.326 23.33,13.179 Q23.33,15.031 22.369,16.115 Q21.409,17.198 19.782,17.198 Q18.162,17.198 17.201,16.115 Q16.241,15.031 16.241,13.179 z" fill="#000000"/>
    <path d="M28.716,10.109 Q28.942,9.624 29.29,9.392 Q29.639,9.159 30.145,9.159 Q31.136,9.159 31.516,9.843 Q31.895,10.526 31.895,12.687 L31.895,17 L30.254,17 L30.254,12.085 Q30.254,11.23 30.124,10.943 Q29.995,10.656 29.653,10.656 Q29.311,10.656 29.174,10.95 Q29.038,11.244 29.038,12.085 L29.038,17 L27.417,17 L27.417,12.085 Q27.417,11.244 27.281,10.95 Q27.144,10.656 26.802,10.656 Q26.46,10.656 26.33,10.943 Q26.201,11.23 26.201,12.085 L26.201,17 L24.56,17 L24.56,9.344 L26.016,9.344 L26.016,10.137 Q26.187,9.686 26.563,9.422 Q26.939,9.159 27.404,9.159 Q27.869,9.159 28.251,9.436 Q28.634,9.713 28.716,10.109 z" fill="#000000"/>
    <path d="M38.239,13.192 Q38.239,12.085 37.87,11.456 Q37.5,10.827 36.851,10.827 Q36.202,10.827 35.826,11.456 Q35.45,12.085 35.45,13.192 Q35.45,14.3 35.826,14.929 Q36.202,15.558 36.851,15.558 Q37.5,15.558 37.87,14.929 Q38.239,14.3 38.239,13.192 z M35.45,10.431 Q35.819,9.795 36.308,9.477 Q36.796,9.159 37.412,9.159 Q38.772,9.159 39.507,10.198 Q40.242,11.237 40.242,13.179 Q40.242,15.093 39.517,16.146 Q38.792,17.198 37.48,17.198 Q36.789,17.198 36.277,16.863 Q35.764,16.528 35.45,15.865 L35.45,17 L33.454,17 L33.454,6.363 L35.45,6.363 z" fill="#000000"/>
    <path d="M48.725,11.456 Q48.397,11.155 47.956,11.005 Q47.515,10.854 46.989,10.854 Q46.353,10.854 45.878,11.077 Q45.403,11.299 45.143,11.723 Q44.979,11.982 44.914,12.352 Q44.849,12.721 44.849,13.473 L44.849,17 L42.846,17 L42.846,9.344 L44.849,9.344 L44.849,10.533 Q45.143,9.877 45.751,9.518 Q46.36,9.159 47.173,9.159 Q47.583,9.159 47.976,9.258 Q48.37,9.357 48.725,9.549 z" fill="#000000"/>
    <path d="M56.819,16.624 Q56.121,16.911 55.397,17.055 Q54.672,17.198 53.866,17.198 Q51.945,17.198 50.93,16.169 Q49.914,15.141 49.914,13.206 Q49.914,11.333 50.892,10.246 Q51.87,9.159 53.558,9.159 Q55.26,9.159 56.2,10.167 Q57.14,11.176 57.14,13.008 L57.14,13.821 L51.952,13.821 Q51.958,14.724 52.485,15.168 Q53.011,15.612 54.057,15.612 Q54.747,15.612 55.417,15.414 Q56.087,15.216 56.819,14.785 z M55.123,12.317 Q55.11,11.524 54.717,11.118 Q54.324,10.711 53.558,10.711 Q52.868,10.711 52.457,11.131 Q52.047,11.552 51.972,12.324 z" fill="#000000"/>
    <path d="M74.011,11.456 Q73.683,11.155 73.242,11.005 Q72.801,10.854 72.275,10.854 Q71.639,10.854 71.164,11.077 Q70.689,11.299 70.429,11.723 Q70.265,11.982 70.2,12.352 Q70.135,12.721 70.135,13.473 L70.135,17 L68.132,17 L68.132,9.344 L70.135,9.344 L70.135,10.533 Q70.429,9.877 71.038,9.518 Q71.646,9.159 72.459,9.159 Q72.87,9.159 73.263,9.258 Q73.656,9.357 74.011,9.549 z" fill="#000000"/>
    <path d="M82.105,16.624 Q81.408,16.911 80.683,17.055 Q79.958,17.198 79.152,17.198 Q77.231,17.198 76.216,16.169 Q75.201,15.141 75.201,13.206 Q75.201,11.333 76.178,10.246 Q77.156,9.159 78.844,9.159 Q80.546,9.159 81.486,10.167 Q82.426,11.176 82.426,13.008 L82.426,13.821 L77.238,13.821 Q77.245,14.724 77.771,15.168 Q78.297,15.612 79.343,15.612 Q80.034,15.612 80.704,15.414 Q81.373,15.216 82.105,14.785 z M80.41,12.317 Q80.396,11.524 80.003,11.118 Q79.61,10.711 78.844,10.711 Q78.154,10.711 77.744,11.131 Q77.333,11.552 77.258,12.324 z M79.979,5.803 L81.907,5.803 L79.391,8.373 L78.044,8.373 z" fill="#000000"/>
    <path d="M90.534,16.624 Q89.836,16.911 89.112,17.055 Q88.387,17.198 87.58,17.198 Q85.66,17.198 84.644,16.169 Q83.629,15.141 83.629,13.206 Q83.629,11.333 84.607,10.246 Q85.584,9.159 87.273,9.159 Q88.975,9.159 89.915,10.167 Q90.855,11.176 90.855,13.008 L90.855,13.821 L85.666,13.821 Q85.673,14.724 86.2,15.168 Q86.726,15.612 87.772,15.612 Q88.462,15.612 89.132,15.414 Q89.802,15.216 90.534,14.785 z M88.838,12.317 Q88.825,11.524 88.432,11.118 Q88.038,10.711 87.273,10.711 Q86.582,10.711 86.172,11.131 Q85.762,11.552 85.687,12.324 z" fill="#000000"/>
    <path d="M94.075,13.808 L94.075,7.901 L92.044,7.901 L92.044,6.363 L96.078,6.363 L96.078,13.808 Q96.078,14.71 96.358,15.086 Q96.638,15.462 97.308,15.462 L98.908,15.462 L98.908,17 L96.747,17 Q95.319,17 94.697,16.262 Q94.075,15.523 94.075,13.808 z" fill="#000000"/>
    <path d="M209.087,8.612 L209.087,15.182 L209.634,15.182 Q210.823,15.182 211.329,14.433 Q211.835,13.685 211.835,11.887 Q211.835,10.103 211.329,9.357 Q210.823,8.612 209.634,8.612 z M207.071,6.794 L209.231,6.794 Q211.733,6.794 212.833,7.987 Q213.934,9.18 213.934,11.887 Q213.934,14.601 212.833,15.8 Q211.733,17 209.231,17 L207.071,17 z" fill="#000000"/>
    <path d="M222.096,16.624 Q221.399,16.911 220.674,17.055 Q219.949,17.198 219.143,17.198 Q217.222,17.198 216.207,16.169 Q215.192,15.141 215.192,13.206 Q215.192,11.333 216.169,10.246 Q217.147,9.159 218.835,9.159 Q220.537,9.159 221.477,10.167 Q222.417,11.176 222.417,13.008 L222.417,13.821 L217.229,13.821 Q217.236,14.724 217.762,15.168 Q218.288,15.612 219.334,15.612 Q220.025,15.612 220.695,15.414 Q221.364,15.216 222.096,14.785 z M220.401,12.317 Q220.387,11.524 219.994,11.118 Q219.601,10.711 218.835,10.711 Q218.145,10.711 217.735,11.131 Q217.324,11.552 217.249,12.324 z M219.97,5.803 L221.898,5.803 L219.382,8.373 L218.035,8.373 z" fill="#000000"/>
    <path d="M230.244,16.61 Q229.738,16.904 229.157,17.051 Q228.576,17.198 227.906,17.198 Q226.136,17.198 225.138,16.132 Q224.14,15.065 224.14,13.179 Q224.14,11.285 225.145,10.215 Q226.15,9.146 227.92,9.146 Q228.535,9.146 229.106,9.289 Q229.677,9.433 230.244,9.733 L230.244,11.565 Q229.807,11.189 229.284,10.988 Q228.761,10.786 228.2,10.786 Q227.223,10.786 226.697,11.408 Q226.17,12.03 226.17,13.179 Q226.17,14.327 226.697,14.942 Q227.223,15.558 228.2,15.558 Q228.781,15.558 229.287,15.363 Q229.793,15.168 230.244,14.771 z" fill="#000000"/>
    <path d="M235.631,10.786 Q234.913,10.786 234.503,11.418 Q234.093,12.051 234.093,13.179 Q234.093,14.307 234.503,14.939 Q234.913,15.571 235.631,15.571 Q236.356,15.571 236.766,14.939 Q237.176,14.307 237.176,13.179 Q237.176,12.051 236.766,11.418 Q236.356,10.786 235.631,10.786 z M232.09,13.179 Q232.09,11.326 233.051,10.243 Q234.011,9.159 235.631,9.159 Q237.258,9.159 238.218,10.243 Q239.179,11.326 239.179,13.179 Q239.179,15.031 238.218,16.115 Q237.258,17.198 235.631,17.198 Q234.011,17.198 233.051,16.115 Q232.09,15.031 232.09,13.179 z" fill="#000000"/>
    <path d="M244.566,10.109 Q244.791,9.624 245.14,9.392 Q245.488,9.159 245.994,9.159 Q246.986,9.159 247.365,9.843 Q247.744,10.526 247.744,12.687 L247.744,17 L246.104,17 L246.104,12.085 Q246.104,11.23 245.974,10.943 Q245.844,10.656 245.502,10.656 Q245.16,10.656 245.024,10.95 Q244.887,11.244 244.887,12.085 L244.887,17 L243.267,17 L243.267,12.085 Q243.267,11.244 243.13,10.95 Q242.993,10.656 242.652,10.656 Q242.31,10.656 242.18,10.943 Q242.05,11.23 242.05,12.085 L242.05,17 L240.409,17 L240.409,9.344 L241.865,9.344 L241.865,10.137 Q242.036,9.686 242.412,9.422 Q242.788,9.159 243.253,9.159 Q243.718,9.159 244.101,9.436 Q244.484,9.713 244.566,10.109 z" fill="#000000"/>
    <path d="M251.299,15.92 L251.299,19.912 L249.303,19.912 L249.303,9.344 L251.299,9.344 L251.299,10.492 Q251.613,9.829 252.126,9.494 Q252.639,9.159 253.329,9.159 Q254.642,9.159 255.366,10.212 Q256.091,11.265 256.091,13.179 Q256.091,15.12 255.356,16.159 Q254.621,17.198 253.261,17.198 Q252.646,17.198 252.157,16.88 Q251.668,16.562 251.299,15.92 z M254.088,13.165 Q254.088,12.058 253.719,11.429 Q253.35,10.8 252.7,10.8 Q252.051,10.8 251.675,11.429 Q251.299,12.058 251.299,13.165 Q251.299,14.272 251.675,14.901 Q252.051,15.53 252.7,15.53 Q253.35,15.53 253.719,14.901 Q254.088,14.272 254.088,13.165 z" fill="#000000"/>
    <path d="M260.917,10.786 Q260.199,10.786 259.789,11.418 Q259.379,12.051 259.379,13.179 Q259.379,14.307 259.789,14.939 Q260.199,15.571 260.917,15.571 Q261.642,15.571 262.052,14.939 Q262.462,14.307 262.462,13.179 Q262.462,12.051 262.052,11.418 Q261.642,10.786 260.917,10.786 z M257.376,13.179 Q257.376,11.326 258.337,10.243 Q259.297,9.159 260.917,9.159 Q262.544,9.159 263.505,10.243 Q264.465,11.326 264.465,13.179 Q264.465,15.031 263.505,16.115 Q262.544,17.198 260.917,17.198 Q259.297,17.198 258.337,16.115 Q257.376,15.031 257.376,13.179 z" fill="#000000"/>
    <path d="M271.909,9.583 L271.909,11.333 Q271.356,10.978 270.758,10.796 Q270.159,10.615 269.558,10.615 Q268.888,10.615 268.546,10.81 Q268.204,11.005 268.204,11.388 Q268.204,11.935 269.667,12.276 L269.742,12.297 L270.317,12.434 Q271.41,12.693 271.92,13.271 Q272.429,13.849 272.429,14.833 Q272.429,16.016 271.653,16.607 Q270.877,17.198 269.319,17.198 Q268.628,17.198 267.904,17.079 Q267.179,16.959 266.434,16.72 L266.434,14.97 Q267.097,15.346 267.784,15.544 Q268.471,15.742 269.113,15.742 Q269.818,15.742 270.18,15.537 Q270.542,15.332 270.542,14.942 Q270.542,14.56 270.286,14.354 Q270.03,14.149 269.066,13.917 L268.512,13.794 Q267.363,13.534 266.837,12.98 Q266.311,12.427 266.311,11.497 Q266.311,10.39 267.111,9.774 Q267.91,9.159 269.36,9.159 Q270.009,9.159 270.655,9.265 Q271.301,9.371 271.909,9.583 z" fill="#000000"/>
    <path d="M275.074,9.344 L279.039,9.344 L279.039,15.462 L281.528,15.462 L281.528,17 L274.541,17 L274.541,15.462 L277.036,15.462 L277.036,10.882 L275.074,10.882 z M277.036,5.618 L279.039,5.618 L279.039,7.956 L277.036,7.956 z" fill="#000000"/>
    <path d="M286.709,7.17 L286.709,9.344 L289.327,9.344 L289.327,10.882 L286.709,10.882 L286.709,14.505 Q286.709,15.018 286.959,15.24 Q287.208,15.462 287.789,15.462 L289.327,15.462 L289.327,17 L287.646,17 Q285.923,17 285.315,16.45 Q284.706,15.899 284.706,14.409 L284.706,10.882 L282.751,10.882 L282.751,9.344 L284.706,9.344 L284.706,7.17 z" fill="#000000"/>
    <path d="M291.932,9.344 L295.897,9.344 L295.897,15.462 L298.385,15.462 L298.385,17 L291.399,17 L291.399,15.462 L293.894,15.462 L293.894,10.882 L291.932,10.882 z M293.894,5.618 L295.897,5.618 L295.897,7.956 L293.894,7.956 z" fill="#000000"/>
    <path d="M303.061,10.786 Q302.343,10.786 301.933,11.418 Q301.523,12.051 301.523,13.179 Q301.523,14.307 301.933,14.939 Q302.343,15.571 303.061,15.571 Q303.785,15.571 304.196,14.939 Q304.606,14.307 304.606,13.179 Q304.606,12.051 304.196,11.418 Q303.785,10.786 303.061,10.786 z M299.52,13.179 Q299.52,11.326 300.48,10.243 Q301.441,9.159 303.061,9.159 Q304.688,9.159 305.648,10.243 Q306.609,11.326 306.609,13.179 Q306.609,15.031 305.648,16.115 Q304.688,17.198 303.061,17.198 Q301.441,17.198 300.48,16.115 Q299.52,15.031 299.52,13.179 z" fill="#000000"/>
    <path d="M314.6,12.03 L314.6,17 L312.611,17 L312.611,12.338 Q312.611,11.504 312.375,11.145 Q312.139,10.786 311.606,10.786 Q311.066,10.786 310.755,11.271 Q310.444,11.757 310.444,12.618 L310.444,17 L308.454,17 L308.454,9.344 L310.444,9.344 L310.444,10.492 Q310.655,9.856 311.168,9.508 Q311.681,9.159 312.405,9.159 Q313.492,9.159 314.046,9.88 Q314.6,10.602 314.6,12.03 z" fill="#000000"/>
    <path d="M331.669,16.624 Q330.972,16.911 330.247,17.055 Q329.523,17.198 328.716,17.198 Q326.795,17.198 325.78,16.169 Q324.765,15.141 324.765,13.206 Q324.765,11.333 325.742,10.246 Q326.72,9.159 328.408,9.159 Q330.111,9.159 331.051,10.167 Q331.99,11.176 331.99,13.008 L331.99,13.821 L326.802,13.821 Q326.809,14.724 327.335,15.168 Q327.862,15.612 328.907,15.612 Q329.598,15.612 330.268,15.414 Q330.938,15.216 331.669,14.785 z M329.974,12.317 Q329.96,11.524 329.567,11.118 Q329.174,10.711 328.408,10.711 Q327.718,10.711 327.308,11.131 Q326.898,11.552 326.822,12.324 z" fill="#000000"/>
    <path d="M339.886,12.03 L339.886,17 L337.897,17 L337.897,12.338 Q337.897,11.504 337.661,11.145 Q337.425,10.786 336.892,10.786 Q336.352,10.786 336.041,11.271 Q335.73,11.757 335.73,12.618 L335.73,17 L333.74,17 L333.74,9.344 L335.73,9.344 L335.73,10.492 Q335.942,9.856 336.454,9.508 Q336.967,9.159 337.692,9.159 Q338.779,9.159 339.332,9.88 Q339.886,10.602 339.886,12.03 z" fill="#000000"/>
    <path d="M354.474,8.674 L354.474,9.344 L356.825,9.344 L356.825,10.882 L354.474,10.882 L354.474,17 L352.471,17 L352.471,10.882 L350.612,10.882 L350.612,9.344 L352.471,9.344 L352.471,8.811 Q352.471,7.43 353.045,6.896 Q353.619,6.363 355.178,6.363 L356.825,6.363 L356.825,7.901 L355.26,7.901 Q354.809,7.901 354.648,8.065 Q354.488,8.229 354.474,8.674 z" fill="#000000"/>
    <path d="M360.496,13.808 L360.496,7.901 L358.466,7.901 L358.466,6.363 L362.499,6.363 L362.499,13.808 Q362.499,14.71 362.78,15.086 Q363.06,15.462 363.73,15.462 L365.329,15.462 L365.329,17 L363.169,17 Q361.74,17 361.118,16.262 Q360.496,15.523 360.496,13.808 z" fill="#000000"/>
    <path d="M370.49,10.786 Q369.773,10.786 369.363,11.418 Q368.952,12.051 368.952,13.179 Q368.952,14.307 369.363,14.939 Q369.773,15.571 370.49,15.571 Q371.215,15.571 371.625,14.939 Q372.035,14.307 372.035,13.179 Q372.035,12.051 371.625,11.418 Q371.215,10.786 370.49,10.786 z M366.949,13.179 Q366.949,11.326 367.91,10.243 Q368.87,9.159 370.49,9.159 Q372.117,9.159 373.078,10.243 Q374.038,11.326 374.038,13.179 Q374.038,15.031 373.078,16.115 Q372.117,17.198 370.49,17.198 Q368.87,17.198 367.91,16.115 Q366.949,15.031 366.949,13.179 z" fill="#000000"/>
    <path d="M379.425,7.17 L379.425,9.344 L382.043,9.344 L382.043,10.882 L379.425,10.882 L379.425,14.505 Q379.425,15.018 379.675,15.24 Q379.924,15.462 380.505,15.462 L382.043,15.462 L382.043,17 L380.362,17 Q378.639,17 378.03,16.45 Q377.422,15.899 377.422,14.409 L377.422,10.882 L375.467,10.882 L375.467,9.344 L377.422,9.344 L377.422,7.17 z" fill="#000000"/>
    <path d="M387.854,7.17 L387.854,9.344 L390.472,9.344 L390.472,10.882 L387.854,10.882 L387.854,14.505 Q387.854,15.018 388.103,15.24 Q388.353,15.462 388.934,15.462 L390.472,15.462 L390.472,17 L388.79,17 Q387.068,17 386.459,16.45 Q385.851,15.899 385.851,14.409 L385.851,10.882 L383.896,10.882 L383.896,9.344 L385.851,9.344 L385.851,7.17 z" fill="#000000"/>
    <path d="M396.351,13.404 Q395.23,13.404 394.785,13.691 Q394.341,13.979 394.341,14.676 Q394.341,15.195 394.649,15.503 Q394.956,15.811 395.483,15.811 Q396.276,15.811 396.713,15.212 Q397.151,14.614 397.151,13.541 L397.151,13.404 z M399.14,12.632 L399.14,17 L397.151,17 L397.151,16.146 Q396.788,16.651 396.221,16.925 Q395.654,17.198 394.97,17.198 Q393.664,17.198 392.936,16.508 Q392.208,15.817 392.208,14.58 Q392.208,13.24 393.076,12.601 Q393.945,11.962 395.763,11.962 L397.151,11.962 L397.151,11.627 Q397.151,11.142 396.799,10.892 Q396.447,10.643 395.763,10.643 Q395.045,10.643 394.372,10.824 Q393.698,11.005 392.967,11.401 L392.967,9.692 Q393.63,9.419 394.314,9.289 Q394.997,9.159 395.763,9.159 Q397.629,9.159 398.384,9.918 Q399.14,10.677 399.14,12.632 z" fill="#000000"/>
    <path d="M407.316,12.03 L407.316,17 L405.326,17 L405.326,12.338 Q405.326,11.504 405.091,11.145 Q404.855,10.786 404.322,10.786 Q403.781,10.786 403.47,11.271 Q403.159,11.757 403.159,12.618 L403.159,17 L401.17,17 L401.17,9.344 L403.159,9.344 L403.159,10.492 Q403.371,9.856 403.884,9.508 Q404.397,9.159 405.121,9.159 Q406.208,9.159 406.762,9.88 Q407.316,10.602 407.316,12.03 z" fill="#000000"/>
    <path d="M413.14,7.17 L413.14,9.344 L415.758,9.344 L415.758,10.882 L413.14,10.882 L413.14,14.505 Q413.14,15.018 413.389,15.24 Q413.639,15.462 414.22,15.462 L415.758,15.462 L415.758,17 L414.076,17 Q412.354,17 411.745,16.45 Q411.137,15.899 411.137,14.409 L411.137,10.882 L409.182,10.882 L409.182,9.344 L411.137,9.344 L411.137,7.17 z" fill="#000000"/>
    <path d="M431.091,13.192 Q431.091,12.085 430.722,11.456 Q430.353,10.827 429.703,10.827 Q429.054,10.827 428.678,11.456 Q428.302,12.085 428.302,13.192 Q428.302,14.3 428.678,14.929 Q429.054,15.558 429.703,15.558 Q430.353,15.558 430.722,14.929 Q431.091,14.3 431.091,13.192 z M428.302,10.431 Q428.671,9.795 429.16,9.477 Q429.649,9.159 430.264,9.159 Q431.624,9.159 432.359,10.198 Q433.094,11.237 433.094,13.179 Q433.094,15.093 432.369,16.146 Q431.645,17.198 430.332,17.198 Q429.642,17.198 429.129,16.863 Q428.616,16.528 428.302,15.865 L428.302,17 L426.306,17 L426.306,6.363 L428.302,6.363 z" fill="#000000"/>
    <path d="M438.494,13.404 Q437.373,13.404 436.929,13.691 Q436.485,13.979 436.485,14.676 Q436.485,15.195 436.792,15.503 Q437.1,15.811 437.626,15.811 Q438.419,15.811 438.857,15.212 Q439.294,14.614 439.294,13.541 L439.294,13.404 z M441.283,12.632 L441.283,17 L439.294,17 L439.294,16.146 Q438.932,16.651 438.364,16.925 Q437.797,17.198 437.113,17.198 Q435.808,17.198 435.08,16.508 Q434.352,15.817 434.352,14.58 Q434.352,13.24 435.22,12.601 Q436.088,11.962 437.906,11.962 L439.294,11.962 L439.294,11.627 Q439.294,11.142 438.942,10.892 Q438.59,10.643 437.906,10.643 Q437.189,10.643 436.515,10.824 Q435.842,11.005 435.111,11.401 L435.111,9.692 Q435.774,9.419 436.457,9.289 Q437.141,9.159 437.906,9.159 Q439.773,9.159 440.528,9.918 Q441.283,10.677 441.283,12.632 z" fill="#000000"/>
    <path d="M448.912,9.583 L448.912,11.333 Q448.359,10.978 447.76,10.796 Q447.162,10.615 446.561,10.615 Q445.891,10.615 445.549,10.81 Q445.207,11.005 445.207,11.388 Q445.207,11.935 446.67,12.276 L446.745,12.297 L447.32,12.434 Q448.413,12.693 448.923,13.271 Q449.432,13.849 449.432,14.833 Q449.432,16.016 448.656,16.607 Q447.88,17.198 446.322,17.198 Q445.631,17.198 444.906,17.079 Q444.182,16.959 443.437,16.72 L443.437,14.97 Q444.1,15.346 444.787,15.544 Q445.474,15.742 446.116,15.742 Q446.821,15.742 447.183,15.537 Q447.545,15.332 447.545,14.942 Q447.545,14.56 447.289,14.354 Q447.032,14.149 446.069,13.917 L445.515,13.794 Q444.366,13.534 443.84,12.98 Q443.314,12.427 443.314,11.497 Q443.314,10.39 444.113,9.774 Q444.913,9.159 446.363,9.159 Q447.012,9.159 447.658,9.265 Q448.304,9.371 448.912,9.583 z" fill="#000000"/>
    <path d="M458.1,16.624 Q457.403,16.911 456.678,17.055 Q455.953,17.198 455.147,17.198 Q453.226,17.198 452.211,16.169 Q451.196,15.141 451.196,13.206 Q451.196,11.333 452.173,10.246 Q453.151,9.159 454.839,9.159 Q456.541,9.159 457.481,10.167 Q458.421,11.176 458.421,13.008 L458.421,13.821 L453.233,13.821 Q453.239,14.724 453.766,15.168 Q454.292,15.612 455.338,15.612 Q456.029,15.612 456.698,15.414 Q457.368,15.216 458.1,14.785 z M456.405,12.317 Q456.391,11.524 455.998,11.118 Q455.605,10.711 454.839,10.711 Q454.149,10.711 453.738,11.131 Q453.328,11.552 453.253,12.324 z" fill="#000000"/>
    <path d="M468.709,15.223 L470.965,15.223 L470.965,8.599 L468.866,9.118 L468.866,7.3 L470.979,6.794 L472.927,6.794 L472.927,15.223 L475.183,15.223 L475.183,17 L468.709,17 z" fill="#000000"/>
    <path d="M476.694,11.907 Q476.694,9.255 477.534,7.932 Q478.375,6.609 480.064,6.609 Q481.759,6.609 482.6,7.929 Q483.441,9.248 483.441,11.907 Q483.441,14.56 482.6,15.879 Q481.759,17.198 480.064,17.198 Q478.375,17.198 477.534,15.875 Q476.694,14.553 476.694,11.907 z M479.045,14.635 Q479.366,15.489 480.064,15.489 Q480.768,15.489 481.089,14.635 Q481.41,13.78 481.41,11.907 Q481.41,11.196 481.363,10.636 L478.977,14.437 Q479.011,14.546 479.045,14.635 z M480.064,8.318 Q479.366,8.318 479.045,9.173 Q478.724,10.027 478.724,11.907 Q478.724,12.488 478.751,12.967 L481.103,9.214 Q481.096,9.193 481.089,9.173 Q480.768,8.318 480.064,8.318 z" fill="#000000"/>
    <g>
      <path d="M518.167,49.5 L573.567,49.5" fill-opacity="0" stroke="#000000" stroke-width="3"/>
      <g>
        <path d="M573.567,53.7 L584.767,49.5 L573.567,45.3 z" fill="#000000"/>
        <path d="M573.567,53.7 L584.767,49.5 L573.567,45.3 z" fill-opacity="0" stroke="#000000" stroke-width="3"/>
      </g>
    </g>
    <path d="M635.899,0 L958.767,0 C979.146,0 995.667,3.233 995.667,7.222 L995.667,56.277 C995.667,60.266 979.146,63.5 958.767,63.5 L635.899,63.5 C615.52,63.5 599,60.266 599,56.277 L599,7.222 C599,3.233 615.52,0 635.899,0 z" fill="#FFF4B8" fill-opacity="0.5"/>
    <path d="M665.427,8.612 L665.427,15.182 L665.974,15.182 Q667.163,15.182 667.669,14.433 Q668.175,13.685 668.175,11.887 Q668.175,10.103 667.669,9.357 Q667.163,8.612 665.974,8.612 z M663.411,6.794 L665.571,6.794 Q668.073,6.794 669.173,7.987 Q670.274,9.18 670.274,11.887 Q670.274,14.601 669.173,15.8 Q668.073,17 665.571,17 L663.411,17 z" fill="#000000"/>
    <path d="M678.436,16.624 Q677.739,16.911 677.014,17.055 Q676.289,17.198 675.483,17.198 Q673.562,17.198 672.547,16.169 Q671.532,15.141 671.532,13.206 Q671.532,11.333 672.509,10.246 Q673.487,9.159 675.175,9.159 Q676.877,9.159 677.817,10.167 Q678.757,11.176 678.757,13.008 L678.757,13.821 L673.569,13.821 Q673.576,14.724 674.102,15.168 Q674.628,15.612 675.674,15.612 Q676.365,15.612 677.035,15.414 Q677.704,15.216 678.436,14.785 z M676.741,12.317 Q676.727,11.524 676.334,11.118 Q675.941,10.711 675.175,10.711 Q674.485,10.711 674.075,11.131 Q673.664,11.552 673.589,12.324 z M676.31,5.803 L678.238,5.803 L675.722,8.373 L674.375,8.373 z" fill="#000000"/>
    <path d="M686.584,16.61 Q686.078,16.904 685.497,17.051 Q684.916,17.198 684.246,17.198 Q682.476,17.198 681.478,16.132 Q680.48,15.065 680.48,13.179 Q680.48,11.285 681.485,10.215 Q682.49,9.146 684.26,9.146 Q684.875,9.146 685.446,9.289 Q686.017,9.433 686.584,9.733 L686.584,11.565 Q686.147,11.189 685.624,10.988 Q685.101,10.786 684.54,10.786 Q683.563,10.786 683.036,11.408 Q682.51,12.03 682.51,13.179 Q682.51,14.327 683.036,14.942 Q683.563,15.558 684.54,15.558 Q685.121,15.558 685.627,15.363 Q686.133,15.168 686.584,14.771 z" fill="#000000"/>
    <path d="M691.971,10.786 Q691.253,10.786 690.843,11.418 Q690.433,12.051 690.433,13.179 Q690.433,14.307 690.843,14.939 Q691.253,15.571 691.971,15.571 Q692.696,15.571 693.106,14.939 Q693.516,14.307 693.516,13.179 Q693.516,12.051 693.106,11.418 Q692.696,10.786 691.971,10.786 z M688.43,13.179 Q688.43,11.326 689.391,10.243 Q690.351,9.159 691.971,9.159 Q693.598,9.159 694.558,10.243 Q695.519,11.326 695.519,13.179 Q695.519,15.031 694.558,16.115 Q693.598,17.198 691.971,17.198 Q690.351,17.198 689.391,16.115 Q688.43,15.031 688.43,13.179 z" fill="#000000"/>
    <path d="M700.906,10.109 Q701.131,9.624 701.48,9.392 Q701.828,9.159 702.334,9.159 Q703.326,9.159 703.705,9.843 Q704.084,10.526 704.084,12.687 L704.084,17 L702.444,17 L702.444,12.085 Q702.444,11.23 702.314,10.943 Q702.184,10.656 701.842,10.656 Q701.5,10.656 701.364,10.95 Q701.227,11.244 701.227,12.085 L701.227,17 L699.607,17 L699.607,12.085 Q699.607,11.244 699.47,10.95 Q699.333,10.656 698.992,10.656 Q698.65,10.656 698.52,10.943 Q698.39,11.23 698.39,12.085 L698.39,17 L696.749,17 L696.749,9.344 L698.205,9.344 L698.205,10.137 Q698.376,9.686 698.752,9.422 Q699.128,9.159 699.593,9.159 Q700.058,9.159 700.441,9.436 Q700.824,9.713 700.906,10.109 z" fill="#000000"/>
    <path d="M707.639,15.92 L707.639,19.912 L705.643,19.912 L705.643,9.344 L707.639,9.344 L707.639,10.492 Q707.953,9.829 708.466,9.494 Q708.979,9.159 709.669,9.159 Q710.982,9.159 711.706,10.212 Q712.431,11.265 712.431,13.179 Q712.431,15.12 711.696,16.159 Q710.961,17.198 709.601,17.198 Q708.986,17.198 708.497,16.88 Q708.008,16.562 707.639,15.92 z M710.428,13.165 Q710.428,12.058 710.059,11.429 Q709.69,10.8 709.04,10.8 Q708.391,10.8 708.015,11.429 Q707.639,12.058 707.639,13.165 Q707.639,14.272 708.015,14.901 Q708.391,15.53 709.04,15.53 Q709.69,15.53 710.059,14.901 Q710.428,14.272 710.428,13.165 z" fill="#000000"/>
    <path d="M717.257,10.786 Q716.539,10.786 716.129,11.418 Q715.719,12.051 715.719,13.179 Q715.719,14.307 716.129,14.939 Q716.539,15.571 717.257,15.571 Q717.982,15.571 718.392,14.939 Q718.802,14.307 718.802,13.179 Q718.802,12.051 718.392,11.418 Q717.982,10.786 717.257,10.786 z M713.716,13.179 Q713.716,11.326 714.677,10.243 Q715.637,9.159 717.257,9.159 Q718.884,9.159 719.845,10.243 Q720.805,11.326 720.805,13.179 Q720.805,15.031 719.845,16.115 Q718.884,17.198 717.257,17.198 Q715.637,17.198 714.677,16.115 Q713.716,15.031 713.716,13.179 z" fill="#000000"/>
    <path d="M728.249,9.583 L728.249,11.333 Q727.696,10.978 727.098,10.796 Q726.499,10.615 725.898,10.615 Q725.228,10.615 724.886,10.81 Q724.544,11.005 724.544,11.388 Q724.544,11.935 726.007,12.276 L726.082,12.297 L726.657,12.434 Q727.75,12.693 728.26,13.271 Q728.769,13.849 728.769,14.833 Q728.769,16.016 727.993,16.607 Q727.217,17.198 725.659,17.198 Q724.968,17.198 724.244,17.079 Q723.519,16.959 722.774,16.72 L722.774,14.97 Q723.437,15.346 724.124,15.544 Q724.811,15.742 725.453,15.742 Q726.158,15.742 726.52,15.537 Q726.882,15.332 726.882,14.942 Q726.882,14.56 726.626,14.354 Q726.37,14.149 725.406,13.917 L724.852,13.794 Q723.703,13.534 723.177,12.98 Q722.651,12.427 722.651,11.497 Q722.651,10.39 723.451,9.774 Q724.25,9.159 725.7,9.159 Q726.349,9.159 726.995,9.265 Q727.641,9.371 728.249,9.583 z" fill="#000000"/>
    <path d="M731.414,9.344 L735.379,9.344 L735.379,15.462 L737.868,15.462 L737.868,17 L730.881,17 L730.881,15.462 L733.376,15.462 L733.376,10.882 L731.414,10.882 z M733.376,5.618 L735.379,5.618 L735.379,7.956 L733.376,7.956 z" fill="#000000"/>
    <path d="M743.049,7.17 L743.049,9.344 L745.667,9.344 L745.667,10.882 L743.049,10.882 L743.049,14.505 Q743.049,15.018 743.299,15.24 Q743.548,15.462 744.129,15.462 L745.667,15.462 L745.667,17 L743.986,17 Q742.263,17 741.655,16.45 Q741.046,15.899 741.046,14.409 L741.046,10.882 L739.091,10.882 L739.091,9.344 L741.046,9.344 L741.046,7.17 z" fill="#000000"/>
    <path d="M748.272,9.344 L752.237,9.344 L752.237,15.462 L754.725,15.462 L754.725,17 L747.739,17 L747.739,15.462 L750.234,15.462 L750.234,10.882 L748.272,10.882 z M750.234,5.618 L752.237,5.618 L752.237,7.956 L750.234,7.956 z" fill="#000000"/>
    <path d="M759.401,10.786 Q758.683,10.786 758.273,11.418 Q757.863,12.051 757.863,13.179 Q757.863,14.307 758.273,14.939 Q758.683,15.571 759.401,15.571 Q760.125,15.571 760.536,14.939 Q760.946,14.307 760.946,13.179 Q760.946,12.051 760.536,11.418 Q760.125,10.786 759.401,10.786 z M755.86,13.179 Q755.86,11.326 756.82,10.243 Q757.781,9.159 759.401,9.159 Q761.028,9.159 761.988,10.243 Q762.949,11.326 762.949,13.179 Q762.949,15.031 761.988,16.115 Q761.028,17.198 759.401,17.198 Q757.781,17.198 756.82,16.115 Q755.86,15.031 755.86,13.179 z" fill="#000000"/>
    <path d="M770.94,12.03 L770.94,17 L768.951,17 L768.951,12.338 Q768.951,11.504 768.715,11.145 Q768.479,10.786 767.946,10.786 Q767.406,10.786 767.095,11.271 Q766.784,11.757 766.784,12.618 L766.784,17 L764.794,17 L764.794,9.344 L766.784,9.344 L766.784,10.492 Q766.995,9.856 767.508,9.508 Q768.021,9.159 768.745,9.159 Q769.832,9.159 770.386,9.88 Q770.94,10.602 770.94,12.03 z" fill="#000000"/>
    <path d="M788.009,16.624 Q787.312,16.911 786.587,17.055 Q785.863,17.198 785.056,17.198 Q783.135,17.198 782.12,16.169 Q781.105,15.141 781.105,13.206 Q781.105,11.333 782.082,10.246 Q783.06,9.159 784.748,9.159 Q786.451,9.159 787.391,10.167 Q788.33,11.176 788.33,13.008 L788.33,13.821 L783.142,13.821 Q783.149,14.724 783.675,15.168 Q784.202,15.612 785.247,15.612 Q785.938,15.612 786.608,15.414 Q787.278,15.216 788.009,14.785 z M786.314,12.317 Q786.3,11.524 785.907,11.118 Q785.514,10.711 784.748,10.711 Q784.058,10.711 783.648,11.131 Q783.238,11.552 783.162,12.324 z" fill="#000000"/>
    <path d="M796.226,12.03 L796.226,17 L794.237,17 L794.237,12.338 Q794.237,11.504 794.001,11.145 Q793.765,10.786 793.232,10.786 Q792.692,10.786 792.381,11.271 Q792.07,11.757 792.07,12.618 L792.07,17 L790.08,17 L790.08,9.344 L792.07,9.344 L792.07,10.492 Q792.282,9.856 792.794,9.508 Q793.307,9.159 794.032,9.159 Q795.119,9.159 795.672,9.88 Q796.226,10.602 796.226,12.03 z" fill="#000000"/>
    <path d="M810.814,8.674 L810.814,9.344 L813.165,9.344 L813.165,10.882 L810.814,10.882 L810.814,17 L808.811,17 L808.811,10.882 L806.952,10.882 L806.952,9.344 L808.811,9.344 L808.811,8.811 Q808.811,7.43 809.385,6.896 Q809.959,6.363 811.518,6.363 L813.165,6.363 L813.165,7.901 L811.6,7.901 Q811.149,7.901 810.988,8.065 Q810.828,8.229 810.814,8.674 z" fill="#000000"/>
    <path d="M816.836,13.808 L816.836,7.901 L814.806,7.901 L814.806,6.363 L818.839,6.363 L818.839,13.808 Q818.839,14.71 819.12,15.086 Q819.4,15.462 820.07,15.462 L821.669,15.462 L821.669,17 L819.509,17 Q818.08,17 817.458,16.262 Q816.836,15.523 816.836,13.808 z" fill="#000000"/>
    <path d="M826.83,10.786 Q826.113,10.786 825.703,11.418 Q825.292,12.051 825.292,13.179 Q825.292,14.307 825.703,14.939 Q826.113,15.571 826.83,15.571 Q827.555,15.571 827.965,14.939 Q828.375,14.307 828.375,13.179 Q828.375,12.051 827.965,11.418 Q827.555,10.786 826.83,10.786 z M823.289,13.179 Q823.289,11.326 824.25,10.243 Q825.21,9.159 826.83,9.159 Q828.457,9.159 829.418,10.243 Q830.378,11.326 830.378,13.179 Q830.378,15.031 829.418,16.115 Q828.457,17.198 826.83,17.198 Q825.21,17.198 824.25,16.115 Q823.289,15.031 823.289,13.179 z" fill="#000000"/>
    <path d="M835.765,7.17 L835.765,9.344 L838.383,9.344 L838.383,10.882 L835.765,10.882 L835.765,14.505 Q835.765,15.018 836.015,15.24 Q836.264,15.462 836.845,15.462 L838.383,15.462 L838.383,17 L836.702,17 Q834.979,17 834.37,16.45 Q833.762,15.899 833.762,14.409 L833.762,10.882 L831.807,10.882 L831.807,9.344 L833.762,9.344 L833.762,7.17 z" fill="#000000"/>
    <path d="M844.194,7.17 L844.194,9.344 L846.812,9.344 L846.812,10.882 L844.194,10.882 L844.194,14.505 Q844.194,15.018 844.443,15.24 Q844.693,15.462 845.274,15.462 L846.812,15.462 L846.812,17 L845.13,17 Q843.408,17 842.799,16.45 Q842.191,15.899 842.191,14.409 L842.191,10.882 L840.236,10.882 L840.236,9.344 L842.191,9.344 L842.191,7.17 z" fill="#000000"/>
    <path d="M852.691,13.404 Q851.57,13.404 851.125,13.691 Q850.681,13.979 850.681,14.676 Q850.681,15.195 850.989,15.503 Q851.296,15.811 851.823,15.811 Q852.616,15.811 853.053,15.212 Q853.491,14.614 853.491,13.541 L853.491,13.404 z M855.48,12.632 L855.48,17 L853.491,17 L853.491,16.146 Q853.128,16.651 852.561,16.925 Q851.994,17.198 851.31,17.198 Q850.004,17.198 849.276,16.508 Q848.548,15.817 848.548,14.58 Q848.548,13.24 849.416,12.601 Q850.285,11.962 852.103,11.962 L853.491,11.962 L853.491,11.627 Q853.491,11.142 853.139,10.892 Q852.786,10.643 852.103,10.643 Q851.385,10.643 850.712,10.824 Q850.038,11.005 849.307,11.401 L849.307,9.692 Q849.97,9.419 850.654,9.289 Q851.337,9.159 852.103,9.159 Q853.969,9.159 854.724,9.918 Q855.48,10.677 855.48,12.632 z" fill="#000000"/>
    <path d="M863.656,12.03 L863.656,17 L861.666,17 L861.666,12.338 Q861.666,11.504 861.431,11.145 Q861.195,10.786 860.661,10.786 Q860.121,10.786 859.81,11.271 Q859.499,11.757 859.499,12.618 L859.499,17 L857.51,17 L857.51,9.344 L859.499,9.344 L859.499,10.492 Q859.711,9.856 860.224,9.508 Q860.737,9.159 861.461,9.159 Q862.548,9.159 863.102,9.88 Q863.656,10.602 863.656,12.03 z" fill="#000000"/>
    <path d="M869.48,7.17 L869.48,9.344 L872.098,9.344 L872.098,10.882 L869.48,10.882 L869.48,14.505 Q869.48,15.018 869.729,15.24 Q869.979,15.462 870.56,15.462 L872.098,15.462 L872.098,17 L870.416,17 Q868.694,17 868.085,16.45 Q867.477,15.899 867.477,14.409 L867.477,10.882 L865.522,10.882 L865.522,9.344 L867.477,9.344 L867.477,7.17 z" fill="#000000"/>
    <path d="M887.431,13.192 Q887.431,12.085 887.062,11.456 Q886.693,10.827 886.043,10.827 Q885.394,10.827 885.018,11.456 Q884.642,12.085 884.642,13.192 Q884.642,14.3 885.018,14.929 Q885.394,15.558 886.043,15.558 Q886.693,15.558 887.062,14.929 Q887.431,14.3 887.431,13.192 z M884.642,10.431 Q885.011,9.795 885.5,9.477 Q885.989,9.159 886.604,9.159 Q887.964,9.159 888.699,10.198 Q889.434,11.237 889.434,13.179 Q889.434,15.093 888.709,16.146 Q887.985,17.198 886.672,17.198 Q885.982,17.198 885.469,16.863 Q884.956,16.528 884.642,15.865 L884.642,17 L882.646,17 L882.646,6.363 L884.642,6.363 z" fill="#000000"/>
    <path d="M894.834,13.404 Q893.713,13.404 893.269,13.691 Q892.825,13.979 892.825,14.676 Q892.825,15.195 893.132,15.503 Q893.44,15.811 893.966,15.811 Q894.759,15.811 895.197,15.212 Q895.634,14.614 895.634,13.541 L895.634,13.404 z M897.623,12.632 L897.623,17 L895.634,17 L895.634,16.146 Q895.272,16.651 894.704,16.925 Q894.137,17.198 893.453,17.198 Q892.148,17.198 891.42,16.508 Q890.692,15.817 890.692,14.58 Q890.692,13.24 891.56,12.601 Q892.428,11.962 894.246,11.962 L895.634,11.962 L895.634,11.627 Q895.634,11.142 895.282,10.892 Q894.93,10.643 894.246,10.643 Q893.529,10.643 892.855,10.824 Q892.182,11.005 891.451,11.401 L891.451,9.692 Q892.114,9.419 892.797,9.289 Q893.481,9.159 894.246,9.159 Q896.113,9.159 896.868,9.918 Q897.623,10.677 897.623,12.632 z" fill="#000000"/>
    <path d="M905.252,9.583 L905.252,11.333 Q904.699,10.978 904.1,10.796 Q903.502,10.615 902.901,10.615 Q902.231,10.615 901.889,10.81 Q901.547,11.005 901.547,11.388 Q901.547,11.935 903.01,12.276 L903.085,12.297 L903.66,12.434 Q904.753,12.693 905.263,13.271 Q905.772,13.849 905.772,14.833 Q905.772,16.016 904.996,16.607 Q904.22,17.198 902.661,17.198 Q901.971,17.198 901.246,17.079 Q900.522,16.959 899.777,16.72 L899.777,14.97 Q900.44,15.346 901.127,15.544 Q901.814,15.742 902.456,15.742 Q903.161,15.742 903.523,15.537 Q903.885,15.332 903.885,14.942 Q903.885,14.56 903.629,14.354 Q903.372,14.149 902.409,13.917 L901.855,13.794 Q900.706,13.534 900.18,12.98 Q899.654,12.427 899.654,11.497 Q899.654,10.39 900.453,9.774 Q901.253,9.159 902.703,9.159 Q903.352,9.159 903.998,9.265 Q904.644,9.371 905.252,9.583 z" fill="#000000"/>
    <path d="M914.44,16.624 Q913.743,16.911 913.018,17.055 Q912.293,17.198 911.487,17.198 Q909.566,17.198 908.551,16.169 Q907.536,15.141 907.536,13.206 Q907.536,11.333 908.513,10.246 Q909.491,9.159 911.179,9.159 Q912.881,9.159 913.821,10.167 Q914.761,11.176 914.761,13.008 L914.761,13.821 L909.573,13.821 Q909.579,14.724 910.106,15.168 Q910.632,15.612 911.678,15.612 Q912.369,15.612 913.038,15.414 Q913.708,15.216 914.44,14.785 z M912.745,12.317 Q912.731,11.524 912.338,11.118 Q911.945,10.711 911.179,10.711 Q910.489,10.711 910.078,11.131 Q909.668,11.552 909.593,12.324 z" fill="#000000"/>
    <path d="M926.731,15.223 L931.031,15.223 L931.031,17 L924.55,17 L924.55,15.277 L925.644,14.115 Q927.592,12.044 928.009,11.565 Q928.522,10.978 928.747,10.523 Q928.973,10.068 928.973,9.624 Q928.973,8.94 928.559,8.568 Q928.146,8.195 927.387,8.195 Q926.847,8.195 926.174,8.411 Q925.5,8.626 924.769,9.036 L924.769,7.156 Q925.5,6.89 926.201,6.75 Q926.902,6.609 927.544,6.609 Q929.164,6.609 930.091,7.365 Q931.017,8.12 931.017,9.426 Q931.017,10.027 930.815,10.554 Q930.614,11.08 930.121,11.723 Q929.759,12.188 928.132,13.814 Q927.25,14.696 926.731,15.223 z" fill="#000000"/>
    <path d="M617.554,47.215 L620.455,47.215 L620.455,38.698 L617.757,39.366 L617.757,37.028 L620.472,36.378 L622.977,36.378 L622.977,47.215 L625.878,47.215 L625.878,49.5 L617.554,49.5 z" fill="#4CEC00"/>
    <path d="M638.657,42.952 Q638.657,39.542 639.738,37.841 Q640.819,36.141 642.99,36.141 Q645.17,36.141 646.251,37.837 Q647.332,39.533 647.332,42.952 Q647.332,46.362 646.251,48.059 Q645.17,49.755 642.99,49.755 Q640.819,49.755 639.738,48.054 Q638.657,46.354 638.657,42.952 z M641.68,46.459 Q642.094,47.558 642.99,47.558 Q643.895,47.558 644.308,46.459 Q644.721,45.36 644.721,42.952 Q644.721,42.038 644.66,41.317 L641.593,46.204 Q641.637,46.345 641.68,46.459 z M642.99,38.338 Q642.094,38.338 641.68,39.437 Q641.267,40.535 641.267,42.952 Q641.267,43.699 641.303,44.314 L644.326,39.489 Q644.317,39.463 644.308,39.437 Q643.895,38.338 642.99,38.338 z" fill="#0137CF"/>
    <path d="M649.494,42.952 Q649.494,39.542 650.575,37.841 Q651.656,36.141 653.827,36.141 Q656.007,36.141 657.088,37.837 Q658.169,39.533 658.169,42.952 Q658.169,46.362 657.088,48.059 Q656.007,49.755 653.827,49.755 Q651.656,49.755 650.575,48.054 Q649.494,46.354 649.494,42.952 z M652.517,46.459 Q652.93,47.558 653.827,47.558 Q654.732,47.558 655.145,46.459 Q655.558,45.36 655.558,42.952 Q655.558,42.038 655.497,41.317 L652.43,46.204 Q652.473,46.345 652.517,46.459 z M653.827,38.338 Q652.93,38.338 652.517,39.437 Q652.104,40.535 652.104,42.952 Q652.104,43.699 652.139,44.314 L655.163,39.489 Q655.154,39.463 655.145,39.437 Q654.732,38.338 653.827,38.338 z" fill="#0137CF"/>
    <path d="M660.331,42.952 Q660.331,39.542 661.412,37.841 Q662.493,36.141 664.664,36.141 Q666.844,36.141 667.925,37.837 Q669.006,39.533 669.006,42.952 Q669.006,46.362 667.925,48.059 Q666.844,49.755 664.664,49.755 Q662.493,49.755 661.412,48.054 Q660.331,46.354 660.331,42.952 z M663.354,46.459 Q663.767,47.558 664.664,47.558 Q665.569,47.558 665.982,46.459 Q666.395,45.36 666.395,42.952 Q666.395,42.038 666.334,41.317 L663.266,46.204 Q663.31,46.345 663.354,46.459 z M664.664,38.338 Q663.767,38.338 663.354,39.437 Q662.941,40.535 662.941,42.952 Q662.941,43.699 662.976,44.314 L666,39.489 Q665.991,39.463 665.982,39.437 Q665.569,38.338 664.664,38.338 z" fill="#0137CF"/>
    <path d="M671.168,42.952 Q671.168,39.542 672.249,37.841 Q673.33,36.141 675.501,36.141 Q677.68,36.141 678.762,37.837 Q679.843,39.533 679.843,42.952 Q679.843,46.362 678.762,48.059 Q677.68,49.755 675.501,49.755 Q673.33,49.755 672.249,48.054 Q671.168,46.354 671.168,42.952 z M674.191,46.459 Q674.604,47.558 675.501,47.558 Q676.406,47.558 676.819,46.459 Q677.232,45.36 677.232,42.952 Q677.232,42.038 677.171,41.317 L674.103,46.204 Q674.147,46.345 674.191,46.459 z M675.501,38.338 Q674.604,38.338 674.191,39.437 Q673.778,40.535 673.778,42.952 Q673.778,43.699 673.813,44.314 L676.837,39.489 Q676.828,39.463 676.819,39.437 Q676.406,38.338 675.501,38.338 z" fill="#0137CF"/>
    <path d="M682.005,42.952 Q682.005,39.542 683.086,37.841 Q684.167,36.141 686.338,36.141 Q688.517,36.141 689.598,37.837 Q690.68,39.533 690.68,42.952 Q690.68,46.362 689.598,48.059 Q688.517,49.755 686.338,49.755 Q684.167,49.755 683.086,48.054 Q682.005,46.354 682.005,42.952 z M685.028,46.459 Q685.441,47.558 686.338,47.558 Q687.243,47.558 687.656,46.459 Q688.069,45.36 688.069,42.952 Q688.069,42.038 688.008,41.317 L684.94,46.204 Q684.984,46.345 685.028,46.459 z M686.338,38.338 Q685.441,38.338 685.028,39.437 Q684.615,40.535 684.615,42.952 Q684.615,43.699 684.65,44.314 L687.674,39.489 Q687.665,39.463 687.656,39.437 Q687.243,38.338 686.338,38.338 z" fill="#0137CF"/>
    <path d="M692.842,42.952 Q692.842,39.542 693.923,37.841 Q695.004,36.141 697.175,36.141 Q699.354,36.141 700.435,37.837 Q701.516,39.533 701.516,42.952 Q701.516,46.362 700.435,48.059 Q699.354,49.755 697.175,49.755 Q695.004,49.755 693.923,48.054 Q692.842,46.354 692.842,42.952 z M695.865,46.459 Q696.278,47.558 697.175,47.558 Q698.08,47.558 698.493,46.459 Q698.906,45.36 698.906,42.952 Q698.906,42.038 698.845,41.317 L695.777,46.204 Q695.821,46.345 695.865,46.459 z M697.175,38.338 Q696.278,38.338 695.865,39.437 Q695.452,40.535 695.452,42.952 Q695.452,43.699 695.487,44.314 L698.511,39.489 Q698.502,39.463 698.493,39.437 Q698.08,38.338 697.175,38.338 z" fill="#0137CF"/>
    <path d="M704.25,47.215 L707.15,47.215 L707.15,38.698 L704.452,39.366 L704.452,37.028 L707.168,36.378 L709.673,36.378 L709.673,47.215 L712.573,47.215 L712.573,49.5 L704.25,49.5 z" fill="#0137CF"/>
    <path d="M714.515,42.952 Q714.515,39.542 715.596,37.841 Q716.678,36.141 718.848,36.141 Q721.028,36.141 722.109,37.837 Q723.19,39.533 723.19,42.952 Q723.19,46.362 722.109,48.059 Q721.028,49.755 718.848,49.755 Q716.678,49.755 715.596,48.054 Q714.515,46.354 714.515,42.952 z M717.539,46.459 Q717.952,47.558 718.848,47.558 Q719.754,47.558 720.167,46.459 Q720.58,45.36 720.58,42.952 Q720.58,42.038 720.518,41.317 L717.451,46.204 Q717.495,46.345 717.539,46.459 z M718.848,38.338 Q717.952,38.338 717.539,39.437 Q717.126,40.535 717.126,42.952 Q717.126,43.699 717.161,44.314 L720.184,39.489 Q720.176,39.463 720.167,39.437 Q719.754,38.338 718.848,38.338 z" fill="#0137CF"/>
    <path d="M736.19,42.952 Q736.19,39.542 737.271,37.841 Q738.352,36.141 740.523,36.141 Q742.703,36.141 743.784,37.837 Q744.865,39.533 744.865,42.952 Q744.865,46.362 743.784,48.059 Q742.703,49.755 740.523,49.755 Q738.352,49.755 737.271,48.054 Q736.19,46.354 736.19,42.952 z M739.214,46.459 Q739.627,47.558 740.523,47.558 Q741.428,47.558 741.841,46.459 Q742.255,45.36 742.255,42.952 Q742.255,42.038 742.193,41.317 L739.126,46.204 Q739.17,46.345 739.214,46.459 z M740.523,38.338 Q739.627,38.338 739.214,39.437 Q738.8,40.535 738.8,42.952 Q738.8,43.699 738.836,44.314 L741.859,39.489 Q741.85,39.463 741.841,39.437 Q741.428,38.338 740.523,38.338 z" fill="#F42300"/>
    <path d="M747.027,42.952 Q747.027,39.542 748.108,37.841 Q749.189,36.141 751.36,36.141 Q753.54,36.141 754.621,37.837 Q755.702,39.533 755.702,42.952 Q755.702,46.362 754.621,48.059 Q753.54,49.755 751.36,49.755 Q749.189,49.755 748.108,48.054 Q747.027,46.354 747.027,42.952 z M750.05,46.459 Q750.464,47.558 751.36,47.558 Q752.265,47.558 752.678,46.459 Q753.091,45.36 753.091,42.952 Q753.091,42.038 753.03,41.317 L749.963,46.204 Q750.006,46.345 750.05,46.459 z M751.36,38.338 Q750.464,38.338 750.05,39.437 Q749.637,40.535 749.637,42.952 Q749.637,43.699 749.672,44.314 L752.696,39.489 Q752.687,39.463 752.678,39.437 Q752.265,38.338 751.36,38.338 z" fill="#F42300"/>
    <path d="M757.864,42.952 Q757.864,39.542 758.945,37.841 Q760.026,36.141 762.197,36.141 Q764.377,36.141 765.458,37.837 Q766.539,39.533 766.539,42.952 Q766.539,46.362 765.458,48.059 Q764.377,49.755 762.197,49.755 Q760.026,49.755 758.945,48.054 Q757.864,46.354 757.864,42.952 z M760.887,46.459 Q761.3,47.558 762.197,47.558 Q763.102,47.558 763.515,46.459 Q763.928,45.36 763.928,42.952 Q763.928,42.038 763.867,41.317 L760.799,46.204 Q760.843,46.345 760.887,46.459 z M762.197,38.338 Q761.3,38.338 760.887,39.437 Q760.474,40.535 760.474,42.952 Q760.474,43.699 760.509,44.314 L763.533,39.489 Q763.524,39.463 763.515,39.437 Q763.102,38.338 762.197,38.338 z" fill="#F42300"/>
    <path d="M768.701,42.952 Q768.701,39.542 769.782,37.841 Q770.863,36.141 773.034,36.141 Q775.214,36.141 776.295,37.837 Q777.376,39.533 777.376,42.952 Q777.376,46.362 776.295,48.059 Q775.214,49.755 773.034,49.755 Q770.863,49.755 769.782,48.054 Q768.701,46.354 768.701,42.952 z M771.724,46.459 Q772.137,47.558 773.034,47.558 Q773.939,47.558 774.352,46.459 Q774.765,45.36 774.765,42.952 Q774.765,42.038 774.704,41.317 L771.636,46.204 Q771.68,46.345 771.724,46.459 z M773.034,38.338 Q772.137,38.338 771.724,39.437 Q771.311,40.535 771.311,42.952 Q771.311,43.699 771.346,44.314 L774.37,39.489 Q774.361,39.463 774.352,39.437 Q773.939,38.338 773.034,38.338 z" fill="#F42300"/>
    <path d="M779.538,42.952 Q779.538,39.542 780.619,37.841 Q781.7,36.141 783.871,36.141 Q786.05,36.141 787.131,37.837 Q788.213,39.533 788.213,42.952 Q788.213,46.362 787.131,48.059 Q786.05,49.755 783.871,49.755 Q781.7,49.755 780.619,48.054 Q779.538,46.354 779.538,42.952 z M782.561,46.459 Q782.974,47.558 783.871,47.558 Q784.776,47.558 785.189,46.459 Q785.602,45.36 785.602,42.952 Q785.602,42.038 785.541,41.317 L782.473,46.204 Q782.517,46.345 782.561,46.459 z M783.871,38.338 Q782.974,38.338 782.561,39.437 Q782.148,40.535 782.148,42.952 Q782.148,43.699 782.183,44.314 L785.207,39.489 Q785.198,39.463 785.189,39.437 Q784.776,38.338 783.871,38.338 z" fill="#F42300"/>
    <path d="M790.375,42.952 Q790.375,39.542 791.456,37.841 Q792.537,36.141 794.708,36.141 Q796.887,36.141 797.968,37.837 Q799.049,39.533 799.049,42.952 Q799.049,46.362 797.968,48.059 Q796.887,49.755 794.708,49.755 Q792.537,49.755 791.456,48.054 Q790.375,46.354 790.375,42.952 z M793.398,46.459 Q793.811,47.558 794.708,47.558 Q795.613,47.558 796.026,46.459 Q796.439,45.36 796.439,42.952 Q796.439,42.038 796.378,41.317 L793.31,46.204 Q793.354,46.345 793.398,46.459 z M794.708,38.338 Q793.811,38.338 793.398,39.437 Q792.985,40.535 792.985,42.952 Q792.985,43.699 793.02,44.314 L796.044,39.489 Q796.035,39.463 796.026,39.437 Q795.613,38.338 794.708,38.338 z" fill="#F42300"/>
    <path d="M801.212,42.952 Q801.212,39.542 802.293,37.841 Q803.374,36.141 805.545,36.141 Q807.724,36.141 808.805,37.837 Q809.886,39.533 809.886,42.952 Q809.886,46.362 808.805,48.059 Q807.724,49.755 805.545,49.755 Q803.374,49.755 802.293,48.054 Q801.212,46.354 801.212,42.952 z M804.235,46.459 Q804.648,47.558 805.545,47.558 Q806.45,47.558 806.863,46.459 Q807.276,45.36 807.276,42.952 Q807.276,42.038 807.214,41.317 L804.147,46.204 Q804.191,46.345 804.235,46.459 z M805.545,38.338 Q804.648,38.338 804.235,39.437 Q803.822,40.535 803.822,42.952 Q803.822,43.699 803.857,44.314 L806.88,39.489 Q806.872,39.463 806.863,39.437 Q806.45,38.338 805.545,38.338 z" fill="#F42300"/>
    <path d="M812.048,42.952 Q812.048,39.542 813.13,37.841 Q814.211,36.141 816.381,36.141 Q818.561,36.141 819.642,37.837 Q820.723,39.533 820.723,42.952 Q820.723,46.362 819.642,48.059 Q818.561,49.755 816.381,49.755 Q814.211,49.755 813.13,48.054 Q812.048,46.354 812.048,42.952 z M815.072,46.459 Q815.485,47.558 816.381,47.558 Q817.287,47.558 817.7,46.459 Q818.113,45.36 818.113,42.952 Q818.113,42.038 818.051,41.317 L814.984,46.204 Q815.028,46.345 815.072,46.459 z M816.381,38.338 Q815.485,38.338 815.072,39.437 Q814.659,40.535 814.659,42.952 Q814.659,43.699 814.694,44.314 L817.717,39.489 Q817.709,39.463 817.7,39.437 Q817.287,38.338 816.381,38.338 z" fill="#F42300"/>
    <path d="M822.885,42.952 Q822.885,39.542 823.966,37.841 Q825.047,36.141 827.218,36.141 Q829.398,36.141 830.479,37.837 Q831.56,39.533 831.56,42.952 Q831.56,46.362 830.479,48.059 Q829.398,49.755 827.218,49.755 Q825.047,49.755 823.966,48.054 Q822.885,46.354 822.885,42.952 z M825.909,46.459 Q826.322,47.558 827.218,47.558 Q828.124,47.558 828.537,46.459 Q828.95,45.36 828.95,42.952 Q828.95,42.038 828.888,41.317 L825.821,46.204 Q825.865,46.345 825.909,46.459 z M827.218,38.338 Q826.322,38.338 825.909,39.437 Q825.496,40.535 825.496,42.952 Q825.496,43.699 825.531,44.314 L828.554,39.489 Q828.546,39.463 828.537,39.437 Q828.124,38.338 827.218,38.338 z" fill="#F42300"/>
    <path d="M834.293,47.215 L837.194,47.215 L837.194,38.698 L834.495,39.366 L834.495,37.028 L837.211,36.378 L839.716,36.378 L839.716,47.215 L842.617,47.215 L842.617,49.5 L834.293,49.5 z" fill="#F42300"/>
    <path d="M845.13,47.215 L848.031,47.215 L848.031,38.698 L845.332,39.366 L845.332,37.028 L848.048,36.378 L850.553,36.378 L850.553,47.215 L853.453,47.215 L853.453,49.5 L845.13,49.5 z" fill="#F42300"/>
    <path d="M855.396,42.952 Q855.396,39.542 856.477,37.841 Q857.558,36.141 859.729,36.141 Q861.909,36.141 862.99,37.837 Q864.071,39.533 864.071,42.952 Q864.071,46.362 862.99,48.059 Q861.909,49.755 859.729,49.755 Q857.558,49.755 856.477,48.054 Q855.396,46.354 855.396,42.952 z M858.419,46.459 Q858.832,47.558 859.729,47.558 Q860.634,47.558 861.047,46.459 Q861.46,45.36 861.46,42.952 Q861.46,42.038 861.399,41.317 L858.331,46.204 Q858.375,46.345 858.419,46.459 z M859.729,38.338 Q858.832,38.338 858.419,39.437 Q858.006,40.535 858.006,42.952 Q858.006,43.699 858.041,44.314 L861.065,39.489 Q861.056,39.463 861.047,39.437 Q860.634,38.338 859.729,38.338 z" fill="#F42300"/>
    <path d="M866.233,42.952 Q866.233,39.542 867.314,37.841 Q868.395,36.141 870.566,36.141 Q872.745,36.141 873.827,37.837 Q874.908,39.533 874.908,42.952 Q874.908,46.362 873.827,48.059 Q872.745,49.755 870.566,49.755 Q868.395,49.755 867.314,48.054 Q866.233,46.354 866.233,42.952 z M869.256,46.459 Q869.669,47.558 870.566,47.558 Q871.471,47.558 871.884,46.459 Q872.297,45.36 872.297,42.952 Q872.297,42.038 872.236,41.317 L869.168,46.204 Q869.212,46.345 869.256,46.459 z M870.566,38.338 Q869.669,38.338 869.256,39.437 Q868.843,40.535 868.843,42.952 Q868.843,43.699 868.878,44.314 L871.902,39.489 Q871.893,39.463 871.884,39.437 Q871.471,38.338 870.566,38.338 z" fill="#F42300"/>
    <path d="M877.07,42.952 Q877.07,39.542 878.151,37.841 Q879.232,36.141 881.403,36.141 Q883.582,36.141 884.663,37.837 Q885.745,39.533 885.745,42.952 Q885.745,46.362 884.663,48.059 Q883.582,49.755 881.403,49.755 Q879.232,49.755 878.151,48.054 Q877.07,46.354 877.07,42.952 z M880.093,46.459 Q880.506,47.558 881.403,47.558 Q882.308,47.558 882.721,46.459 Q883.134,45.36 883.134,42.952 Q883.134,42.038 883.073,41.317 L880.005,46.204 Q880.049,46.345 880.093,46.459 z M881.403,38.338 Q880.506,38.338 880.093,39.437 Q879.68,40.535 879.68,42.952 Q879.68,43.699 879.715,44.314 L882.739,39.489 Q882.73,39.463 882.721,39.437 Q882.308,38.338 881.403,38.338 z" fill="#F42300"/>
    <path d="M888.478,47.215 L891.378,47.215 L891.378,38.698 L888.68,39.366 L888.68,37.028 L891.396,36.378 L893.901,36.378 L893.901,47.215 L896.801,47.215 L896.801,49.5 L888.478,49.5 z" fill="#F42300"/>
    <path d="M899.315,47.215 L902.215,47.215 L902.215,38.698 L899.517,39.366 L899.517,37.028 L902.233,36.378 L904.738,36.378 L904.738,47.215 L907.638,47.215 L907.638,49.5 L899.315,49.5 z" fill="#F42300"/>
    <path d="M909.58,42.952 Q909.58,39.542 910.661,37.841 Q911.743,36.141 913.913,36.141 Q916.093,36.141 917.174,37.837 Q918.255,39.533 918.255,42.952 Q918.255,46.362 917.174,48.059 Q916.093,49.755 913.913,49.755 Q911.743,49.755 910.661,48.054 Q909.58,46.354 909.58,42.952 z M912.604,46.459 Q913.017,47.558 913.913,47.558 Q914.819,47.558 915.232,46.459 Q915.645,45.36 915.645,42.952 Q915.645,42.038 915.583,41.317 L912.516,46.204 Q912.56,46.345 912.604,46.459 z M913.913,38.338 Q913.017,38.338 912.604,39.437 Q912.191,40.535 912.191,42.952 Q912.191,43.699 912.226,44.314 L915.249,39.489 Q915.241,39.463 915.232,39.437 Q914.819,38.338 913.913,38.338 z" fill="#F42300"/>
    <path d="M920.989,47.215 L923.889,47.215 L923.889,38.698 L921.191,39.366 L921.191,37.028 L923.907,36.378 L926.411,36.378 L926.411,47.215 L929.312,47.215 L929.312,49.5 L920.989,49.5 z" fill="#F42300"/>
    <path d="M931.826,47.215 L934.726,47.215 L934.726,38.698 L932.028,39.366 L932.028,37.028 L934.744,36.378 L937.248,36.378 L937.248,47.215 L940.149,47.215 L940.149,49.5 L931.826,49.5 z" fill="#F42300"/>
    <path d="M942.662,47.215 L945.563,47.215 L945.563,38.698 L942.865,39.366 L942.865,37.028 L945.58,36.378 L948.085,36.378 L948.085,47.215 L950.986,47.215 L950.986,49.5 L942.662,49.5 z" fill="#F42300"/>
    <path d="M953.499,47.215 L956.4,47.215 L956.4,38.698 L953.702,39.366 L953.702,37.028 L956.417,36.378 L958.922,36.378 L958.922,47.215 L961.823,47.215 L961.823,49.5 L953.499,49.5 z" fill="#F42300"/>
    <path d="M964.336,47.215 L967.237,47.215 L967.237,38.698 L964.538,39.366 L964.538,37.028 L967.254,36.378 L969.759,36.378 L969.759,47.215 L972.66,47.215 L972.66,49.5 L964.336,49.5 z" fill="#F42300"/>
    <path d="M974.602,42.952 Q974.602,39.542 975.683,37.841 Q976.764,36.141 978.935,36.141 Q981.115,36.141 982.196,37.837 Q983.277,39.533 983.277,42.952 Q983.277,46.362 982.196,48.059 Q981.115,49.755 978.935,49.755 Q976.764,49.755 975.683,48.054 Q974.602,46.354 974.602,42.952 z M977.625,46.459 Q978.038,47.558 978.935,47.558 Q979.84,47.558 980.253,46.459 Q980.666,45.36 980.666,42.952 Q980.666,42.038 980.605,41.317 L977.537,46.204 Q977.581,46.345 977.625,46.459 z M978.935,38.338 Q978.038,38.338 977.625,39.437 Q977.212,40.535 977.212,42.952 Q977.212,43.699 977.247,44.314 L980.271,39.489 Q980.262,39.463 980.253,39.437 Q979.84,38.338 978.935,38.338 z" fill="#F42300"/>
    <g>
      <path d="M618.763,66.506 L599.5,136" fill-opacity="0" stroke="#4CEC00" stroke-width="1"/>
      <g>
        <path d="M621.654,67.307 L620.9,58.797 L615.872,65.705 z" fill="#4CEC00"/>
        <path d="M621.654,67.307 L620.9,58.797 L615.872,65.705 z" fill-opacity="0" stroke="#4CEC00" stroke-width="1"/>
      </g>
    </g>
    <path d="M569.417,150.784 Q567.131,149.912 566.321,148.953 Q565.511,147.995 565.511,146.375 Q565.511,144.293 566.844,143.104 Q568.177,141.914 570.504,141.914 Q571.561,141.914 572.617,142.155 Q573.673,142.396 574.708,142.868 L574.708,145.821 Q573.734,145.134 572.729,144.775 Q571.725,144.416 570.74,144.416 Q569.643,144.416 569.059,144.857 Q568.474,145.298 568.474,146.118 Q568.474,146.754 568.9,147.169 Q569.325,147.584 570.679,148.087 L571.981,148.579 Q573.827,149.256 574.698,150.374 Q575.57,151.491 575.57,153.193 Q575.57,155.511 574.201,156.654 Q572.832,157.797 570.063,157.797 Q568.925,157.797 567.782,157.526 Q566.639,157.254 565.572,156.721 L565.572,153.593 Q566.782,154.455 567.915,154.875 Q569.048,155.295 570.156,155.295 Q571.273,155.295 571.889,154.788 Q572.504,154.28 572.504,153.368 Q572.504,152.681 572.094,152.163 Q571.684,151.645 570.904,151.348 z" fill="#4CEC00"/>
    <path d="M579.097,146.016 L585.044,146.016 L585.044,155.193 L588.777,155.193 L588.777,157.5 L578.297,157.5 L578.297,155.193 L582.04,155.193 L582.04,148.323 L579.097,148.323 z M582.04,140.427 L585.044,140.427 L585.044,143.934 L582.04,143.934 z" fill="#4CEC00"/>
    <path d="M597.708,151.573 Q597.708,150.035 597.124,149.107 Q596.539,148.179 595.585,148.179 Q594.642,148.179 594.063,149.102 Q593.483,150.025 593.483,151.573 Q593.483,153.132 594.063,154.055 Q594.642,154.978 595.585,154.978 Q596.539,154.978 597.124,154.05 Q597.708,153.122 597.708,151.573 z M600.712,156.639 Q600.712,159.397 599.467,160.622 Q598.221,161.848 595.421,161.848 Q594.478,161.848 593.555,161.709 Q592.632,161.571 591.679,161.284 L591.679,158.525 Q592.53,158.997 593.412,159.223 Q594.293,159.448 595.227,159.448 Q596.498,159.448 597.103,158.848 Q597.708,158.249 597.708,156.977 L597.708,155.736 Q597.267,156.557 596.539,156.957 Q595.811,157.356 594.765,157.356 Q592.796,157.356 591.638,155.818 Q590.479,154.28 590.479,151.645 Q590.479,148.917 591.638,147.318 Q592.796,145.718 594.745,145.718 Q595.729,145.718 596.498,146.18 Q597.267,146.641 597.708,147.482 L597.708,146.016 L600.712,146.016 z" fill="#4CEC00"/>
    <path d="M613.099,150.045 L613.099,157.5 L610.115,157.5 L610.115,150.507 Q610.115,149.256 609.761,148.718 Q609.408,148.179 608.608,148.179 Q607.798,148.179 607.331,148.907 Q606.865,149.635 606.865,150.927 L606.865,157.5 L603.881,157.5 L603.881,146.016 L606.865,146.016 L606.865,147.738 Q607.183,146.785 607.952,146.262 Q608.721,145.739 609.808,145.739 Q611.438,145.739 612.269,146.821 Q613.099,147.902 613.099,150.045 z" fill="#4CEC00"/>
    <path d="M626.06,156.936 Q625.014,157.367 623.927,157.582 Q622.84,157.797 621.63,157.797 Q618.749,157.797 617.226,156.254 Q615.704,154.711 615.704,151.809 Q615.704,149 617.17,147.369 Q618.636,145.739 621.169,145.739 Q623.722,145.739 625.132,147.251 Q626.542,148.764 626.542,151.512 L626.542,152.732 L618.759,152.732 Q618.77,154.085 619.559,154.752 Q620.349,155.418 621.917,155.418 Q622.953,155.418 623.958,155.121 Q624.963,154.824 626.06,154.178 z M623.517,150.476 Q623.497,149.287 622.907,148.677 Q622.317,148.066 621.169,148.066 Q620.133,148.066 619.518,148.697 Q618.903,149.328 618.79,150.486 z" fill="#4CEC00"/>
    <g>
      <path d="M864.687,72 L864.445,137.5" fill-opacity="0" stroke="#F42300" stroke-width="1"/>
      <g>
        <path d="M867.687,72.011 L864.717,64 L861.687,71.988 z" fill="#F42300"/>
        <path d="M867.687,72.011 L864.717,64 L861.687,71.988 z" fill-opacity="0" stroke="#F42300" stroke-width="1"/>
      </g>
    </g>
    <path d="M814.393,142.691 L818.002,142.691 L819.827,149.407 L821.642,142.691 L825.272,142.691 L825.272,158 L822.668,158 L822.668,145.736 L821.048,152.432 L818.638,152.432 L816.997,145.736 L816.997,158 L814.393,158 z" fill="#F42300"/>
    <path d="M833.332,152.606 Q831.65,152.606 830.984,153.037 Q830.317,153.468 830.317,154.514 Q830.317,155.293 830.779,155.754 Q831.24,156.216 832.03,156.216 Q833.219,156.216 833.875,155.319 Q834.531,154.421 834.531,152.812 L834.531,152.606 z M837.515,151.448 L837.515,158 L834.531,158 L834.531,156.718 Q833.988,157.477 833.137,157.887 Q832.286,158.297 831.26,158.297 Q829.302,158.297 828.21,157.262 Q827.118,156.226 827.118,154.37 Q827.118,152.36 828.42,151.402 Q829.722,150.443 832.45,150.443 L834.531,150.443 L834.531,149.94 Q834.531,149.212 834.003,148.838 Q833.475,148.464 832.45,148.464 Q831.373,148.464 830.363,148.736 Q829.353,149.007 828.256,149.602 L828.256,147.039 Q829.251,146.628 830.276,146.434 Q831.302,146.239 832.45,146.239 Q835.249,146.239 836.382,147.377 Q837.515,148.515 837.515,151.448 z" fill="#F42300"/>
    <path d="M849.779,150.545 L849.779,158 L846.795,158 L846.795,151.007 Q846.795,149.756 846.441,149.218 Q846.088,148.679 845.288,148.679 Q844.478,148.679 844.011,149.407 Q843.545,150.135 843.545,151.427 L843.545,158 L840.561,158 L840.561,146.516 L843.545,146.516 L843.545,148.238 Q843.863,147.285 844.632,146.762 Q845.401,146.239 846.488,146.239 Q848.118,146.239 848.948,147.321 Q849.779,148.402 849.779,150.545 z" fill="#F42300"/>
    <path d="M858.515,143.255 L858.515,146.516 L862.443,146.516 L862.443,148.823 L858.515,148.823 L858.515,154.257 Q858.515,155.026 858.89,155.36 Q859.264,155.693 860.135,155.693 L862.443,155.693 L862.443,158 L859.92,158 Q857.336,158 856.424,157.175 Q855.511,156.349 855.511,154.114 L855.511,148.823 L852.578,148.823 L852.578,146.516 L855.511,146.516 L855.511,143.255 z" fill="#F42300"/>
    <path d="M866.349,146.516 L872.297,146.516 L872.297,155.693 L876.029,155.693 L876.029,158 L865.55,158 L865.55,155.693 L869.292,155.693 L869.292,148.823 L866.349,148.823 z M869.292,140.927 L872.297,140.927 L872.297,144.434 L869.292,144.434 z" fill="#F42300"/>
    <path d="M886.888,146.875 L886.888,149.5 Q886.057,148.966 885.16,148.695 Q884.263,148.423 883.361,148.423 Q882.356,148.423 881.843,148.715 Q881.33,149.007 881.33,149.582 Q881.33,150.402 883.525,150.915 L883.637,150.945 L884.499,151.15 Q886.139,151.54 886.903,152.406 Q887.667,153.273 887.667,154.75 Q887.667,156.523 886.503,157.41 Q885.34,158.297 883.002,158.297 Q881.966,158.297 880.879,158.118 Q879.792,157.938 878.675,157.58 L878.675,154.955 Q879.669,155.519 880.7,155.816 Q881.73,156.113 882.694,156.113 Q883.75,156.113 884.294,155.806 Q884.837,155.498 884.837,154.914 Q884.837,154.339 884.453,154.032 Q884.068,153.724 882.622,153.375 L881.792,153.191 Q880.069,152.801 879.28,151.971 Q878.49,151.14 878.49,149.746 Q878.49,148.084 879.69,147.162 Q880.889,146.239 883.063,146.239 Q884.037,146.239 885.006,146.398 Q885.975,146.557 886.888,146.875 z" fill="#F42300"/>
    <path d="M899.531,146.875 L899.531,149.5 Q898.7,148.966 897.803,148.695 Q896.906,148.423 896.004,148.423 Q894.999,148.423 894.486,148.715 Q893.973,149.007 893.973,149.582 Q893.973,150.402 896.168,150.915 L896.281,150.945 L897.142,151.15 Q898.782,151.54 899.546,152.406 Q900.31,153.273 900.31,154.75 Q900.31,156.523 899.146,157.41 Q897.983,158.297 895.645,158.297 Q894.609,158.297 893.522,158.118 Q892.435,157.938 891.318,157.58 L891.318,154.955 Q892.312,155.519 893.343,155.816 Q894.373,156.113 895.337,156.113 Q896.393,156.113 896.937,155.806 Q897.48,155.498 897.48,154.914 Q897.48,154.339 897.096,154.032 Q896.711,153.724 895.265,153.375 L894.435,153.191 Q892.712,152.801 891.923,151.971 Q891.133,151.14 891.133,149.746 Q891.133,148.084 892.333,147.162 Q893.532,146.239 895.706,146.239 Q896.68,146.239 897.649,146.398 Q898.618,146.557 899.531,146.875 z" fill="#F42300"/>
    <path d="M913.312,157.436 Q912.266,157.867 911.179,158.082 Q910.093,158.297 908.883,158.297 Q906.001,158.297 904.479,156.754 Q902.956,155.211 902.956,152.309 Q902.956,149.5 904.422,147.869 Q905.888,146.239 908.421,146.239 Q910.974,146.239 912.384,147.751 Q913.794,149.264 913.794,152.012 L913.794,153.232 L906.011,153.232 Q906.022,154.585 906.811,155.252 Q907.601,155.918 909.17,155.918 Q910.205,155.918 911.21,155.621 Q912.215,155.324 913.312,154.678 z M910.769,150.976 Q910.749,149.787 910.159,149.177 Q909.57,148.566 908.421,148.566 Q907.385,148.566 906.77,149.197 Q906.155,149.828 906.042,150.986 z" fill="#F42300"/>
    <g>
      <path d="M696.204,70.777 L711.667,139" fill-opacity="0" stroke="#0142F2" stroke-width="1"/>
      <g>
        <path d="M699.129,70.114 L694.435,62.975 L693.278,71.44 z" fill="#0142F2"/>
        <path d="M699.129,70.114 L694.435,62.975 L693.278,71.44 z" fill-opacity="0" stroke="#0142F2" stroke-width="1"/>
      </g>
    </g>
    <path d="M674.984,157.5 L665.448,157.5 L665.448,142.191 L674.984,142.191 L674.984,144.857 L668.473,144.857 L668.473,148.159 L674.369,148.159 L674.369,150.825 L668.473,150.825 L668.473,154.834 L674.984,154.834 z" fill="#0142F2"/>
    <path d="M688.109,146.016 L684.243,151.512 L688.447,157.5 L684.94,157.5 L682.685,153.634 L680.439,157.5 L676.932,157.5 L681.177,151.512 L677.27,146.016 L680.777,146.016 L682.685,149.44 L684.602,146.016 z" fill="#0142F2"/>
    <path d="M693.543,155.88 L693.543,161.868 L690.549,161.868 L690.549,146.016 L693.543,146.016 L693.543,147.738 Q694.015,146.744 694.784,146.241 Q695.553,145.739 696.589,145.739 Q698.558,145.739 699.644,147.318 Q700.731,148.897 700.731,151.768 Q700.731,154.68 699.629,156.239 Q698.527,157.797 696.486,157.797 Q695.563,157.797 694.83,157.321 Q694.097,156.844 693.543,155.88 z M697.727,151.748 Q697.727,150.086 697.173,149.143 Q696.62,148.2 695.645,148.2 Q694.671,148.2 694.107,149.143 Q693.543,150.086 693.543,151.748 Q693.543,153.409 694.107,154.352 Q694.671,155.295 695.645,155.295 Q696.62,155.295 697.173,154.352 Q697.727,153.409 697.727,151.748 z" fill="#0142F2"/>
    <path d="M707.971,148.179 Q706.894,148.179 706.279,149.128 Q705.664,150.076 705.664,151.768 Q705.664,153.46 706.279,154.408 Q706.894,155.357 707.971,155.357 Q709.058,155.357 709.673,154.408 Q710.288,153.46 710.288,151.768 Q710.288,150.076 709.673,149.128 Q709.058,148.179 707.971,148.179 z M702.659,151.768 Q702.659,148.989 704.1,147.364 Q705.54,145.739 707.971,145.739 Q710.411,145.739 711.852,147.364 Q713.292,148.989 713.292,151.768 Q713.292,154.547 711.852,156.172 Q710.411,157.797 707.971,157.797 Q705.54,157.797 704.1,156.172 Q702.659,154.547 702.659,151.768 z" fill="#0142F2"/>
    <path d="M724.459,146.375 L724.459,149 Q723.628,148.466 722.731,148.195 Q721.834,147.923 720.932,147.923 Q719.927,147.923 719.414,148.215 Q718.901,148.507 718.901,149.082 Q718.901,149.902 721.096,150.415 L721.208,150.445 L722.07,150.65 Q723.71,151.04 724.474,151.906 Q725.238,152.773 725.238,154.25 Q725.238,156.023 724.074,156.91 Q722.911,157.797 720.573,157.797 Q719.537,157.797 718.45,157.618 Q717.363,157.438 716.246,157.08 L716.246,154.455 Q717.24,155.019 718.271,155.316 Q719.301,155.613 720.265,155.613 Q721.321,155.613 721.865,155.306 Q722.408,154.998 722.408,154.414 Q722.408,153.839 722.024,153.532 Q721.639,153.224 720.193,152.875 L719.363,152.691 Q717.64,152.301 716.851,151.471 Q716.061,150.64 716.061,149.246 Q716.061,147.584 717.261,146.662 Q718.46,145.739 720.634,145.739 Q721.608,145.739 722.577,145.898 Q723.546,146.057 724.459,146.375 z" fill="#0142F2"/>
    <path d="M734.118,152.106 Q732.436,152.106 731.77,152.537 Q731.103,152.968 731.103,154.014 Q731.103,154.793 731.565,155.254 Q732.026,155.716 732.816,155.716 Q734.005,155.716 734.662,154.819 Q735.318,153.921 735.318,152.312 L735.318,152.106 z M738.302,150.948 L738.302,157.5 L735.318,157.5 L735.318,156.218 Q734.774,156.977 733.923,157.387 Q733.072,157.797 732.047,157.797 Q730.088,157.797 728.996,156.762 Q727.904,155.726 727.904,153.87 Q727.904,151.86 729.206,150.902 Q730.509,149.943 733.236,149.943 L735.318,149.943 L735.318,149.44 Q735.318,148.712 734.79,148.338 Q734.262,147.964 733.236,147.964 Q732.16,147.964 731.15,148.236 Q730.14,148.507 729.042,149.102 L729.042,146.539 Q730.037,146.128 731.062,145.934 Q732.088,145.739 733.236,145.739 Q736.036,145.739 737.169,146.877 Q738.302,148.015 738.302,150.948 z" fill="#0142F2"/>
    <path d="M750.565,150.045 L750.565,157.5 L747.581,157.5 L747.581,150.507 Q747.581,149.256 747.228,148.718 Q746.874,148.179 746.074,148.179 Q745.264,148.179 744.798,148.907 Q744.331,149.635 744.331,150.927 L744.331,157.5 L741.347,157.5 L741.347,146.016 L744.331,146.016 L744.331,147.738 Q744.649,146.785 745.418,146.262 Q746.187,145.739 747.274,145.739 Q748.904,145.739 749.735,146.821 Q750.565,147.902 750.565,150.045 z" fill="#0142F2"/>
    <path d="M759.302,142.755 L759.302,146.016 L763.229,146.016 L763.229,148.323 L759.302,148.323 L759.302,153.757 Q759.302,154.526 759.676,154.86 Q760.05,155.193 760.922,155.193 L763.229,155.193 L763.229,157.5 L760.706,157.5 Q758.122,157.5 757.21,156.675 Q756.297,155.849 756.297,153.614 L756.297,148.323 L753.365,148.323 L753.365,146.016 L756.297,146.016 L756.297,142.755 z" fill="#0142F2"/>
  </g>
</svg>
