<?xml version="1.0" encoding="UTF-8"?>
<!DOCTYPE svg PUBLIC "-//W3C//DTD SVG 1.1//EN" "http://www.w3.org/Graphics/SVG/1.1/DTD/svg11.dtd">
<svg version="1.1" xmlns="http://www.w3.org/2000/svg" xmlns:xlink="http://www.w3.org/1999/xlink" x="0" y="0" width="446.568" height="211.5" viewBox="0, 0, 446.568, 211.5">
  <g id="Calque_1" transform="translate(-0, 0)">
    <path d="M19.581,0 L190.911,0 C201.725,0 210.491,10.77 210.491,24.056 L210.491,187.443 C210.491,200.729 201.725,211.5 190.911,211.5 L19.581,211.5 C8.767,211.5 0,200.729 0,187.443 L0,24.056 C0,10.77 8.767,0 19.581,0 z" fill="#FFF4B8" fill-opacity="0.5"/>
    <path d="M285.588,0 L430.057,0 C439.176,0 446.568,10.77 446.568,24.056 L446.568,187.443 C446.568,200.729 439.176,211.5 430.057,211.5 L285.588,211.5 C276.469,211.5 269.077,200.729 269.077,187.443 L269.077,24.056 C269.077,10.77 276.469,0 285.588,0 z" fill="#FFF4B8" fill-opacity="0.5"/>
    <path d="M16.152,24.854 Q13.975,24.023 13.203,23.11 Q12.432,22.197 12.432,20.654 Q12.432,18.672 13.701,17.539 Q14.971,16.406 17.188,16.406 Q18.193,16.406 19.199,16.636 Q20.205,16.865 21.192,17.314 L21.192,20.127 Q20.264,19.473 19.307,19.131 Q18.35,18.789 17.412,18.789 Q16.367,18.789 15.811,19.209 Q15.254,19.629 15.254,20.41 Q15.254,21.016 15.659,21.411 Q16.065,21.807 17.354,22.285 L18.594,22.754 Q20.352,23.398 21.182,24.463 Q22.012,25.527 22.012,27.148 Q22.012,29.355 20.708,30.444 Q19.404,31.533 16.768,31.533 Q15.684,31.533 14.595,31.274 Q13.506,31.016 12.49,30.508 L12.49,27.529 Q13.643,28.35 14.722,28.75 Q15.801,29.15 16.856,29.15 Q17.92,29.15 18.506,28.667 Q19.092,28.184 19.092,27.314 Q19.092,26.66 18.701,26.167 Q18.311,25.674 17.568,25.391 z" fill="#000000"/>
    <path d="M25.371,20.312 L31.035,20.312 L31.035,29.053 L34.59,29.053 L34.59,31.25 L24.609,31.25 L24.609,29.053 L28.174,29.053 L28.174,22.51 L25.371,22.51 z M28.174,14.99 L31.035,14.99 L31.035,18.33 L28.174,18.33 z" fill="#000000"/>
    <path d="M14.75,38 L14.75,121.184" fill-opacity="0" stroke="#000000" stroke-width="2"/>
    <path d="M60.633,199.216 Q60.486,199.489 59.982,199.552 Q59.94,199.552 59.079,199.594 Q59.226,200.539 60.171,201.946 Q60.717,202.345 60.717,202.996 Q60.717,204.025 59.457,204.025 Q58.26,204.025 57.819,203.416 Q57.672,203.206 57.63,202.849 Q57.63,202.618 57.609,202.366 Q57.42,202.177 56.475,199.93 Q54.753,200.182 52.233,200.644 Q51.981,201.253 51.687,202.408 Q51.729,202.618 51.729,202.807 Q51.729,203.374 51.351,203.679 Q50.973,203.983 50.448,203.983 Q49.86,203.983 49.356,203.542 Q48.852,203.101 48.852,202.513 Q48.852,201.988 49.335,201.568 Q50.91,193.567 53.157,188.338 Q53.115,188.086 53.115,187.834 Q53.115,186.784 53.829,186.448 Q54.123,186.322 54.585,186.322 Q55.467,186.322 56.055,186.595 Q56.811,186.973 56.811,187.729 Q56.811,188.422 56.433,188.968 Q56.832,192.538 58.155,197.2 Q58.281,197.179 59.016,196.99 Q59.457,196.864 59.688,196.864 Q59.961,196.864 60.129,196.99 Q60.864,197.557 60.864,198.376 Q60.864,198.817 60.633,199.216 z M55.593,197.62 Q55.236,196.297 54.459,192.538 Q52.968,195.793 52.695,198.124 z" fill="#000000"/>
    <path d="M65.442,203.605 Q65.022,204.403 63.888,204.403 Q62.838,204.403 62.418,203.689 Q62.292,203.479 62.292,203.227 Q62.292,203.017 62.439,202.534 Q62.586,202.051 62.586,201.736 L62.502,188.17 Q62.502,187.057 62.502,187.036 Q62.565,186.763 63.09,186.585 Q63.615,186.406 64.203,186.406 Q65.064,186.406 65.295,186.721 Q65.526,187.036 65.526,187.372 Q65.526,187.603 65.358,188.139 Q65.19,188.674 65.19,189.01 L65.19,201.61 Q65.19,201.925 65.368,202.439 Q65.547,202.954 65.547,203.185 Q65.547,203.416 65.442,203.605 z" fill="#000000"/>
    <path d="M74.598,192.349 Q74.64,194.155 74.787,198.292 Q74.871,201.211 74.871,202.471 Q74.871,205.243 74.43,206.251 Q73.989,207.259 72.645,207.364 Q70.965,207.511 69.684,206.482 Q69.054,206.293 68.886,206.188 Q68.529,205.978 68.424,205.474 Q68.235,204.487 69.978,204.487 Q70.419,204.487 70.818,204.592 Q71.112,204.655 71.469,205.085 Q71.826,205.516 72.141,205.537 Q72.75,205.579 72.75,203.815 Q72.75,203.059 72.645,201.358 Q71.889,202.639 71.553,203.017 Q70.86,203.731 69.936,203.731 Q68.634,203.731 67.836,201.925 Q67.101,200.266 67.101,197.893 Q67.101,195.457 67.878,193.777 Q68.76,191.887 70.314,191.845 Q71.154,191.824 71.553,192.181 Q71.952,192.538 72.33,192.916 Q72.057,192.16 72.456,191.782 Q72.687,191.551 73.149,191.551 Q73.59,191.551 74.031,191.782 Q74.472,192.013 74.598,192.349 z M72.078,197.704 Q72.162,196.486 71.784,195.394 Q71.364,194.176 70.692,194.176 Q70.146,194.176 69.726,195.394 Q69.348,196.486 69.306,197.704 Q69.264,198.985 69.495,200.014 Q69.789,201.232 70.314,201.232 Q70.776,201.232 71.385,200.046 Q71.994,198.859 72.078,197.704 z" fill="#000000"/>
    <path d="M83.292,192.664 Q84.699,194.092 84.699,197.473 Q84.699,200.098 83.712,201.946 Q82.599,204.025 80.646,204.025 Q78.714,204.025 77.664,202.156 Q76.74,200.518 76.74,197.998 Q76.74,195.772 77.454,194.008 Q78.21,192.118 79.386,191.782 Q79.995,191.614 80.646,191.614 Q82.263,191.614 83.292,192.664 z M80.898,193.672 Q80.205,193.609 79.701,194.974 Q79.26,196.213 79.26,197.578 Q79.26,199.552 79.428,200.371 Q79.722,201.841 80.646,201.988 Q81.234,202.072 81.738,200.371 Q82.221,198.733 82.221,196.864 Q82.221,193.798 80.898,193.672 z" fill="#000000"/>
    <path d="M94.359,192.79 Q94.275,193.231 93.561,193.399 Q92.721,193.609 92.49,193.882 L89.067,197.83 L89.067,201.022 Q89.067,201.484 89.329,201.957 Q89.592,202.429 89.592,202.681 Q89.592,202.933 89.445,203.248 Q89.088,204.046 87.996,204.046 Q87.24,204.046 86.799,203.563 Q86.505,203.248 86.505,202.765 Q86.505,202.597 86.547,202.219 Q86.589,201.841 86.589,201.61 L86.589,193.756 Q86.589,193.567 86.421,193.294 Q86.253,193.021 86.253,192.853 Q86.253,192.727 86.337,192.559 Q86.61,192.055 88.038,192.055 Q89.151,192.055 89.298,192.58 Q89.361,192.79 89.361,192.937 Q89.361,193.168 89.193,193.294 Q89.025,193.42 89.025,193.546 L89.067,194.302 L90.873,192.391 Q91.188,192.034 91.534,191.677 Q91.881,191.32 92.343,191.278 Q93.057,191.215 93.718,191.593 Q94.38,191.971 94.38,192.58 Q94.38,192.685 94.359,192.79 z" fill="#000000"/>
    <path d="M98.706,187.75 Q98.769,187.813 98.769,187.96 Q98.769,188.149 98.643,188.611 Q98.496,189.178 98.454,189.388 Q98.412,189.598 98.496,190.312 Q98.496,190.753 98.233,190.889 Q97.971,191.026 97.572,191.026 Q97.005,191.026 96.417,190.795 Q95.703,190.501 95.703,190.018 Q95.703,189.871 95.829,189.609 Q95.955,189.346 95.976,189.178 Q96.018,189.01 95.976,188.338 Q95.934,187.813 96.186,187.624 Q96.522,187.372 97.383,187.372 Q98.328,187.372 98.706,187.75 z M98.979,192.874 Q98.979,193.168 98.653,193.788 Q98.328,194.407 98.328,194.806 L98.328,200.98 Q98.328,201.4 98.559,202.167 Q98.79,202.933 98.79,203.227 Q98.79,203.647 98.454,203.857 Q97.929,204.193 97.32,204.193 Q96.522,204.193 96.186,203.647 Q95.745,202.975 95.745,199.636 Q95.745,198.838 95.776,197.147 Q95.808,195.457 95.808,194.68 Q95.808,194.386 95.745,193.913 Q95.682,193.441 95.682,193.231 Q95.682,192.538 96.186,192.034 Q96.396,191.824 96.963,191.824 Q97.53,191.824 98.097,192.003 Q98.664,192.181 98.821,192.412 Q98.979,192.643 98.979,192.874 z" fill="#000000"/>
    <path d="M107.862,193.966 Q107.694,193.966 107.337,193.829 Q106.98,193.693 106.791,193.693 Q106.644,193.693 106.497,193.756 L105.72,194.155 L105.72,201.337 Q105.72,201.736 106.15,202.366 Q106.581,202.996 106.497,203.374 Q106.392,203.836 105.877,204.109 Q105.363,204.382 104.775,204.382 Q103.662,204.382 103.242,203.395 Q103.116,203.101 103.095,201.526 Q103.074,200.476 103.116,198.25 Q103.158,195.73 103.158,195.058 Q103.032,195.1 102.738,195.341 Q102.444,195.583 102.15,195.583 Q101.919,195.583 101.562,195.457 Q100.092,194.953 100.092,194.428 Q100.092,194.302 100.155,194.155 Q100.302,193.819 100.701,193.777 Q101.31,193.693 101.436,193.63 Q101.919,193.441 103.2,192.727 L103.2,190.9 Q103.2,190.69 103.084,190.343 Q102.969,189.997 102.969,189.829 Q102.969,189.64 103.074,189.472 Q103.62,188.632 104.544,188.632 Q105.615,188.632 106.056,189.472 Q106.224,189.808 106.224,190.018 Q106.224,190.27 105.972,190.543 Q105.72,190.816 105.72,191.047 L105.72,192.076 Q106.098,191.908 106.56,191.509 Q106.917,191.215 107.169,191.215 Q107.274,191.215 107.4,191.257 Q108.723,191.614 108.723,192.853 Q108.723,193.252 108.481,193.609 Q108.24,193.966 107.862,193.966 z" fill="#000000"/>
    <path d="M118.551,201.736 Q118.677,202.261 118.677,202.408 Q118.677,202.849 118.162,203.133 Q117.648,203.416 117.06,203.416 Q116.157,203.416 115.905,202.744 Q115.8,202.471 115.8,202.282 Q115.8,202.009 116.041,201.694 Q116.283,201.379 116.283,201.106 Q116.535,200.014 116.535,197.956 Q116.535,194.386 116.031,194.302 Q115.653,194.239 114.813,195.499 Q113.931,196.822 113.343,198.46 Q112.65,200.392 112.755,201.862 Q112.692,201.988 112.692,202.114 Q112.692,202.303 112.86,202.65 Q113.028,202.996 113.028,203.206 Q113.028,203.416 112.881,203.605 Q112.314,204.424 111.747,204.424 Q111.159,204.424 110.613,203.5 Q110.298,202.954 110.298,197.221 Q110.298,195.121 110.403,187.666 Q110.403,187.54 110.382,187.278 Q110.361,187.015 110.361,186.868 Q110.382,186.658 110.487,186.49 Q110.718,186.049 111.474,186.049 Q112.146,186.049 112.702,186.406 Q113.259,186.763 113.133,187.246 Q113.112,187.372 112.933,187.54 Q112.755,187.708 112.755,187.876 L112.755,194.638 Q113.952,191.95 116.283,191.782 Q117.543,191.698 118.299,193.672 Q118.992,195.478 118.992,198.103 Q118.992,200.119 118.551,201.736 z" fill="#000000"/>
    <path d="M134.532,203.5 Q134.259,204.277 133.293,204.277 Q132.075,204.277 131.487,203.437 Q131.172,202.975 131.172,200.266 Q131.172,199.867 131.172,199.153 Q131.193,198.418 131.193,198.124 Q131.193,196.654 131.046,196.612 Q130.731,196.486 128.904,202.492 Q128.904,202.513 128.82,203.5 Q128.778,204.109 128.4,204.319 Q128.127,204.466 127.791,204.466 Q127.182,204.466 126.615,204.067 Q126.048,203.668 125.901,203.122 Q125.691,202.345 125.712,200.056 Q125.754,196.717 125.754,196.843 Q125.733,195.961 125.628,195.94 Q125.145,196.738 124.788,197.473 Q123.927,199.237 123.801,200.413 Q123.696,200.665 123.78,201.4 Q123.864,202.03 123.591,202.261 Q123.318,202.492 122.856,202.492 Q122.352,202.492 121.837,202.208 Q121.323,201.925 121.092,201.568 Q120.756,201.043 120.714,198.502 Q120.714,196.024 120.714,193.546 Q120.693,193.336 120.546,192.958 Q120.399,192.58 120.399,192.391 Q120.399,192.202 120.504,192.034 Q120.777,191.614 121.89,191.614 Q123.255,191.614 123.528,192.286 Q123.591,192.433 123.591,192.58 Q123.591,192.769 123.391,193.126 Q123.192,193.483 123.192,193.714 L123.192,196.108 Q123.822,194.785 124.851,192.748 Q124.977,192.475 125.092,192.202 Q125.208,191.929 125.439,191.719 Q125.67,191.509 126.216,191.509 Q127.056,191.509 127.906,191.887 Q128.757,192.265 128.778,192.79 Q128.799,193.336 128.62,193.619 Q128.442,193.903 128.442,194.092 L128.4,198.628 Q128.736,197.872 129.618,195.058 Q130.311,192.916 130.668,192.664 Q131.13,192.328 132.033,192.328 Q133.713,192.328 133.776,193.294 Q133.755,195.856 133.776,201.862 Q133.776,202.093 134.196,202.419 Q134.616,202.744 134.616,203.101 Q134.616,203.269 134.532,203.5 z" fill="#000000"/>
    <path d="M139.278,187.75 Q139.341,187.813 139.341,187.96 Q139.341,188.149 139.215,188.611 Q139.068,189.178 139.026,189.388 Q138.984,189.598 139.068,190.312 Q139.068,190.753 138.805,190.889 Q138.543,191.026 138.144,191.026 Q137.577,191.026 136.989,190.795 Q136.275,190.501 136.275,190.018 Q136.275,189.871 136.401,189.609 Q136.527,189.346 136.548,189.178 Q136.59,189.01 136.548,188.338 Q136.506,187.813 136.758,187.624 Q137.094,187.372 137.955,187.372 Q138.9,187.372 139.278,187.75 z M139.551,192.874 Q139.551,193.168 139.225,193.788 Q138.9,194.407 138.9,194.806 L138.9,200.98 Q138.9,201.4 139.131,202.167 Q139.362,202.933 139.362,203.227 Q139.362,203.647 139.026,203.857 Q138.501,204.193 137.892,204.193 Q137.094,204.193 136.758,203.647 Q136.317,202.975 136.317,199.636 Q136.317,198.838 136.348,197.147 Q136.38,195.457 136.38,194.68 Q136.38,194.386 136.317,193.913 Q136.254,193.441 136.254,193.231 Q136.254,192.538 136.758,192.034 Q136.968,191.824 137.535,191.824 Q138.102,191.824 138.669,192.003 Q139.236,192.181 139.393,192.412 Q139.551,192.643 139.551,192.874 z" fill="#000000"/>
    <path d="M148.749,192.16 Q148.833,192.349 148.833,192.517 Q148.833,192.727 148.665,193.053 Q148.497,193.378 148.497,193.609 L148.497,205.558 Q148.497,205.831 148.633,206.219 Q148.77,206.608 148.77,206.839 Q148.77,207.07 148.686,207.322 Q148.434,208.078 147.384,208.078 Q146.103,208.078 145.662,207.133 Q145.557,206.923 145.557,206.713 Q145.557,206.44 145.83,205.915 Q146.103,205.39 146.103,205.054 L146.103,202.366 Q145.2,203.731 144.339,203.731 Q142.806,203.731 141.756,201.757 Q140.811,199.93 140.811,197.704 Q140.811,195.289 141.42,193.756 Q142.218,191.782 143.961,191.782 Q145.263,191.782 146.229,193.168 Q146.208,193 146.103,192.685 Q145.998,192.37 145.998,192.223 Q145.998,192.034 146.103,191.908 Q146.376,191.572 147.195,191.572 Q148.497,191.572 148.749,192.16 z M145.851,197.704 Q145.851,196.423 145.462,195.111 Q145.074,193.798 144.591,193.798 Q143.562,193.798 143.562,196.171 Q143.562,196.444 143.562,196.948 Q143.583,197.473 143.583,197.704 Q143.583,199.027 143.814,200.077 Q144.108,201.358 144.591,201.358 Q145.011,201.358 145.452,199.972 Q145.851,198.67 145.851,197.704 z" fill="#000000"/>
    <path d="M158.388,193.252 Q158.43,193.567 158.262,193.924 Q158.052,194.407 158.01,194.638 Q158.01,199.006 157.653,200.707 Q156.876,204.277 154.356,204.277 Q150.681,204.277 150.681,197.578 Q150.681,195.772 150.954,193.756 Q150.807,193.273 150.807,192.895 Q150.807,192.286 151.206,191.866 Q151.542,191.509 152.193,191.509 Q152.718,191.509 153.18,191.729 Q153.642,191.95 153.726,192.244 Q153.768,192.391 153.768,192.538 Q153.768,192.811 153.537,193.41 Q153.306,194.008 153.348,194.386 Q153.138,195.562 153.138,197.347 Q153.138,199.153 153.369,200.35 Q153.663,201.736 154.188,201.736 Q155.07,201.736 155.343,198.754 Q155.49,197.263 155.49,194.008 Q155.49,193.798 155.427,193.399 Q155.364,193 155.364,192.811 Q155.364,192.307 155.742,192.118 Q155.952,192.013 156.33,192.013 Q157.023,192.013 157.611,192.307 Q158.304,192.664 158.388,193.252 z" fill="#000000"/>
    <path d="M167.418,201.295 Q167.25,202.093 166.284,202.996 Q166.137,203.227 165.129,203.605 Q163.974,204.046 163.134,203.983 Q161.559,203.878 160.656,202.177 Q159.837,200.602 159.837,198.313 Q159.837,195.835 160.761,193.966 Q161.79,191.908 163.512,191.656 Q163.848,191.614 164.163,191.614 Q166.662,191.614 166.914,194.68 Q167.04,196.087 165.801,197.746 Q164.457,199.573 162.357,200.308 Q162.588,201.148 162.714,201.4 Q163.008,201.925 163.512,201.925 Q163.995,201.925 164.541,201.547 Q165.003,201.232 165.171,200.938 Q165.255,200.896 165.339,200.465 Q165.423,200.035 165.78,199.846 Q165.906,199.783 166.074,199.783 Q166.578,199.783 167.05,200.277 Q167.523,200.77 167.418,201.295 z M164.121,193.903 Q163.281,193.903 162.756,195.1 Q162.063,196.696 162.189,198.25 Q163.176,197.935 164.016,196.78 Q164.856,195.625 164.856,194.722 Q164.856,193.903 164.121,193.903 z" fill="#000000"/>
    <path d="M42.317,56.741 L40.959,62.707 L43.684,62.707 z M40.559,54.104 L44.084,54.104 L48.02,68.684 L45.139,68.684 L44.24,65.08 L40.383,65.08 L39.504,68.684 L36.623,68.684 z" fill="#000000"/>
    <path d="M52.121,64.123 L52.121,55.686 L49.221,55.686 L49.221,53.489 L54.983,53.489 L54.983,64.123 Q54.983,65.413 55.383,65.95 Q55.783,66.487 56.74,66.487 L59.026,66.487 L59.026,68.684 L55.94,68.684 Q53.899,68.684 53.01,67.629 Q52.121,66.575 52.121,64.123 z" fill="#000000"/>
    <path d="M66.399,59.807 Q65.373,59.807 64.787,60.71 Q64.201,61.614 64.201,63.225 Q64.201,64.836 64.787,65.74 Q65.373,66.643 66.399,66.643 Q67.434,66.643 68.02,65.74 Q68.606,64.836 68.606,63.225 Q68.606,61.614 68.02,60.71 Q67.434,59.807 66.399,59.807 z M61.34,63.225 Q61.34,60.579 62.712,59.031 Q64.084,57.483 66.399,57.483 Q68.723,57.483 70.095,59.031 Q71.467,60.579 71.467,63.225 Q71.467,65.871 70.095,67.419 Q68.723,68.967 66.399,68.967 Q64.084,68.967 62.712,67.419 Q61.34,65.871 61.34,63.225 z" fill="#000000"/>
    <path d="M83.664,60.764 Q83.196,60.334 82.566,60.12 Q81.936,59.905 81.184,59.905 Q80.276,59.905 79.597,60.222 Q78.918,60.539 78.547,61.145 Q78.313,61.516 78.22,62.043 Q78.127,62.571 78.127,63.645 L78.127,68.684 L75.266,68.684 L75.266,57.747 L78.127,57.747 L78.127,59.446 Q78.547,58.508 79.416,57.996 Q80.285,57.483 81.447,57.483 Q82.033,57.483 82.595,57.624 Q83.156,57.766 83.664,58.039 z" fill="#000000"/>
    <path d="M94.143,58.088 L94.143,60.588 Q93.352,60.08 92.497,59.822 Q91.643,59.563 90.783,59.563 Q89.826,59.563 89.338,59.841 Q88.85,60.12 88.85,60.666 Q88.85,61.448 90.94,61.936 L91.047,61.965 L91.867,62.161 Q93.43,62.532 94.157,63.357 Q94.885,64.182 94.885,65.588 Q94.885,67.278 93.777,68.122 Q92.668,68.967 90.442,68.967 Q89.455,68.967 88.42,68.796 Q87.385,68.625 86.321,68.284 L86.321,65.784 Q87.268,66.321 88.249,66.604 Q89.231,66.887 90.149,66.887 Q91.155,66.887 91.672,66.594 Q92.19,66.301 92.19,65.745 Q92.19,65.198 91.823,64.905 Q91.457,64.612 90.08,64.28 L89.289,64.104 Q87.649,63.733 86.897,62.942 Q86.145,62.151 86.145,60.823 Q86.145,59.241 87.287,58.362 Q88.43,57.483 90.5,57.483 Q91.428,57.483 92.351,57.634 Q93.274,57.786 94.143,58.088 z" fill="#000000"/>
    <path d="M55.249,30.693 Q54.527,31.113 53.76,31.323 Q52.993,31.533 52.193,31.533 Q49.654,31.533 48.223,30.01 Q46.792,28.486 46.792,25.791 Q46.792,23.096 48.223,21.572 Q49.654,20.049 52.193,20.049 Q52.984,20.049 53.736,20.254 Q54.488,20.459 55.249,20.889 L55.249,22.773 Q54.536,22.139 53.819,21.855 Q53.101,21.572 52.193,21.572 Q50.503,21.572 49.595,22.666 Q48.687,23.76 48.687,25.791 Q48.687,27.812 49.6,28.911 Q50.513,30.01 52.193,30.01 Q53.13,30.01 53.872,29.722 Q54.615,29.434 55.249,28.828 z" fill="#F42300"/>
    <path d="M62.945,21.572 Q61.577,21.572 60.874,22.637 Q60.171,23.701 60.171,25.791 Q60.171,27.871 60.874,28.94 Q61.577,30.01 62.945,30.01 Q64.322,30.01 65.025,28.94 Q65.728,27.871 65.728,25.791 Q65.728,23.701 65.025,22.637 Q64.322,21.572 62.945,21.572 z M62.945,20.049 Q65.22,20.049 66.426,21.523 Q67.632,22.998 67.632,25.791 Q67.632,28.594 66.431,30.063 Q65.23,31.533 62.945,31.533 Q60.669,31.533 59.468,30.063 Q58.267,28.594 58.267,25.791 Q58.267,22.998 59.468,21.523 Q60.669,20.049 62.945,20.049 z" fill="#F42300"/>
    <path d="M79.234,24.473 L79.234,31.25 L77.427,31.25 L77.427,24.473 Q77.427,22.998 76.909,22.305 Q76.392,21.611 75.288,21.611 Q74.029,21.611 73.35,22.505 Q72.671,23.398 72.671,25.068 L72.671,31.25 L70.874,31.25 L70.874,20.312 L72.671,20.312 L72.671,21.953 Q73.15,21.016 73.97,20.532 Q74.79,20.049 75.913,20.049 Q77.583,20.049 78.409,21.147 Q79.234,22.246 79.234,24.473 z" fill="#F42300"/>
    <path d="M89.39,21.709 L89.39,16.055 L91.187,16.055 L91.187,31.25 L89.39,31.25 L89.39,29.873 Q88.941,30.684 88.194,31.108 Q87.447,31.533 86.47,31.533 Q84.488,31.533 83.35,29.995 Q82.212,28.457 82.212,25.752 Q82.212,23.086 83.355,21.567 Q84.497,20.049 86.47,20.049 Q87.456,20.049 88.208,20.474 Q88.96,20.898 89.39,21.709 z M84.107,25.791 Q84.107,27.881 84.771,28.945 Q85.435,30.01 86.734,30.01 Q88.033,30.01 88.711,28.936 Q89.39,27.861 89.39,25.791 Q89.39,23.711 88.711,22.642 Q88.033,21.572 86.734,21.572 Q85.435,21.572 84.771,22.637 Q84.107,23.701 84.107,25.791 z" fill="#F42300"/>
    <path d="M96.138,20.352 L100.738,20.352 L100.738,29.854 L104.302,29.854 L104.302,31.25 L95.376,31.25 L95.376,29.854 L98.941,29.854 L98.941,21.748 L96.138,21.748 z M98.941,16.104 L100.738,16.104 L100.738,18.369 L98.941,18.369 z" fill="#F42300"/>
    <path d="M111.089,17.207 L111.089,20.312 L115.171,20.312 L115.171,21.709 L111.089,21.709 L111.089,27.646 Q111.089,28.857 111.548,29.336 Q112.007,29.814 113.15,29.814 L115.171,29.814 L115.171,31.25 L112.974,31.25 Q110.952,31.25 110.122,30.439 Q109.292,29.629 109.292,27.646 L109.292,21.709 L106.372,21.709 L106.372,20.312 L109.292,20.312 L109.292,17.207 z" fill="#F42300"/>
    <path d="M120.22,20.352 L124.82,20.352 L124.82,29.854 L128.384,29.854 L128.384,31.25 L119.458,31.25 L119.458,29.854 L123.023,29.854 L123.023,21.748 L120.22,21.748 z M123.023,16.104 L124.82,16.104 L124.82,18.369 L123.023,18.369 z" fill="#F42300"/>
    <path d="M135.191,21.572 Q133.824,21.572 133.12,22.637 Q132.417,23.701 132.417,25.791 Q132.417,27.871 133.12,28.94 Q133.824,30.01 135.191,30.01 Q136.568,30.01 137.271,28.94 Q137.974,27.871 137.974,25.791 Q137.974,23.701 137.271,22.637 Q136.568,21.572 135.191,21.572 z M135.191,20.049 Q137.466,20.049 138.672,21.523 Q139.878,22.998 139.878,25.791 Q139.878,28.594 138.677,30.063 Q137.476,31.533 135.191,31.533 Q132.915,31.533 131.714,30.063 Q130.513,28.594 130.513,25.791 Q130.513,22.998 131.714,21.523 Q132.915,20.049 135.191,20.049 z" fill="#F42300"/>
    <path d="M151.48,24.473 L151.48,31.25 L149.673,31.25 L149.673,24.473 Q149.673,22.998 149.156,22.305 Q148.638,21.611 147.534,21.611 Q146.275,21.611 145.596,22.505 Q144.917,23.398 144.917,25.068 L144.917,31.25 L143.12,31.25 L143.12,20.312 L144.917,20.312 L144.917,21.953 Q145.396,21.016 146.216,20.532 Q147.036,20.049 148.159,20.049 Q149.829,20.049 150.655,21.147 Q151.48,22.246 151.48,24.473 z" fill="#F42300"/>
    <path d="M22.031,127.643 L15.83,127.643 L15.83,130.788 L21.475,130.788 L21.475,133.327 L15.83,133.327 L15.83,139.684 L12.949,139.684 L12.949,125.104 L22.031,125.104 z" fill="#000000"/>
    <path d="M25.371,128.746 L31.035,128.746 L31.035,137.487 L34.59,137.487 L34.59,139.684 L24.609,139.684 L24.609,137.487 L28.174,137.487 L28.174,130.944 L25.371,130.944 z M28.174,123.424 L31.035,123.424 L31.035,126.764 L28.174,126.764 z" fill="#000000"/>
    <path d="M45.713,132.584 L45.713,139.684 L42.871,139.684 L42.871,133.024 Q42.871,131.832 42.534,131.32 Q42.197,130.807 41.436,130.807 Q40.664,130.807 40.22,131.5 Q39.776,132.194 39.776,133.424 L39.776,139.684 L36.934,139.684 L36.934,128.746 L39.776,128.746 L39.776,130.387 Q40.078,129.479 40.811,128.981 Q41.543,128.483 42.578,128.483 Q44.131,128.483 44.922,129.513 Q45.713,130.543 45.713,132.584 z" fill="#000000"/>
    <path d="M64.317,133.288 Q62.139,132.457 61.367,131.544 Q60.596,130.631 60.596,129.088 Q60.596,127.106 61.865,125.973 Q63.135,124.84 65.352,124.84 Q66.358,124.84 67.363,125.07 Q68.369,125.299 69.356,125.748 L69.356,128.561 Q68.428,127.907 67.471,127.565 Q66.514,127.223 65.576,127.223 Q64.531,127.223 63.975,127.643 Q63.418,128.063 63.418,128.844 Q63.418,129.45 63.823,129.845 Q64.229,130.241 65.518,130.719 L66.758,131.188 Q68.516,131.832 69.346,132.897 Q70.176,133.961 70.176,135.582 Q70.176,137.789 68.872,138.878 Q67.568,139.967 64.932,139.967 Q63.848,139.967 62.759,139.708 Q61.67,139.45 60.654,138.942 L60.654,135.963 Q61.807,136.784 62.886,137.184 Q63.965,137.584 65.02,137.584 Q66.084,137.584 66.67,137.101 Q67.256,136.618 67.256,135.748 Q67.256,135.094 66.865,134.601 Q66.475,134.108 65.733,133.825 z" fill="#000000"/>
    <path d="M73.535,128.746 L79.199,128.746 L79.199,137.487 L82.754,137.487 L82.754,139.684 L72.774,139.684 L72.774,137.487 L76.338,137.487 L76.338,130.944 L73.535,130.944 z M76.338,123.424 L79.199,123.424 L79.199,126.764 L76.338,126.764 z" fill="#000000"/>
    <path d="M111.872,61.686 L111.277,61.686 Q109.704,61.686 108.909,62.238 Q108.113,62.789 108.113,63.883 Q108.113,64.87 108.708,65.416 Q109.304,65.963 110.359,65.963 Q111.843,65.963 112.693,64.933 Q113.542,63.903 113.552,62.086 L113.552,61.686 z M115.359,60.944 L115.359,67.184 L113.552,67.184 L113.552,65.563 Q112.976,66.539 112.102,67.003 Q111.228,67.467 109.978,67.467 Q108.308,67.467 107.312,66.525 Q106.316,65.582 106.316,64 Q106.316,62.174 107.541,61.227 Q108.767,60.28 111.14,60.28 L113.552,60.28 L113.552,59.997 Q113.542,58.688 112.888,58.097 Q112.234,57.506 110.798,57.506 Q109.88,57.506 108.943,57.77 Q108.005,58.034 107.117,58.541 L107.117,56.745 Q108.113,56.364 109.026,56.173 Q109.939,55.983 110.798,55.983 Q112.156,55.983 113.118,56.383 Q114.079,56.784 114.675,57.584 Q115.046,58.073 115.203,58.79 Q115.359,59.508 115.359,60.944 z" fill="#0142F2"/>
    <path d="M127.419,66.627 Q126.697,67.047 125.93,67.257 Q125.163,67.467 124.363,67.467 Q121.824,67.467 120.393,65.944 Q118.962,64.42 118.962,61.725 Q118.962,59.03 120.393,57.506 Q121.824,55.983 124.363,55.983 Q125.154,55.983 125.906,56.188 Q126.658,56.393 127.419,56.823 L127.419,58.707 Q126.706,58.073 125.989,57.789 Q125.271,57.506 124.363,57.506 Q122.673,57.506 121.765,58.6 Q120.857,59.694 120.857,61.725 Q120.857,63.747 121.77,64.845 Q122.683,65.944 124.363,65.944 Q125.3,65.944 126.042,65.656 Q126.785,65.368 127.419,64.762 z" fill="#0142F2"/>
    <path d="M135.095,53.141 L135.095,56.247 L139.177,56.247 L139.177,57.643 L135.095,57.643 L135.095,63.58 Q135.095,64.791 135.554,65.27 Q136.013,65.748 137.156,65.748 L139.177,65.748 L139.177,67.184 L136.98,67.184 Q134.958,67.184 134.128,66.373 Q133.298,65.563 133.298,63.58 L133.298,57.643 L130.378,57.643 L130.378,56.247 L133.298,56.247 L133.298,53.141 z" fill="#0142F2"/>
    <path d="M144.226,56.286 L148.826,56.286 L148.826,65.788 L152.39,65.788 L152.39,67.184 L143.464,67.184 L143.464,65.788 L147.029,65.788 L147.029,57.682 L144.226,57.682 z M147.029,52.038 L148.826,52.038 L148.826,54.303 L147.029,54.303 z" fill="#0142F2"/>
    <path d="M159.197,57.506 Q157.829,57.506 157.126,58.571 Q156.423,59.635 156.423,61.725 Q156.423,63.805 157.126,64.874 Q157.829,65.944 159.197,65.944 Q160.574,65.944 161.277,64.874 Q161.98,63.805 161.98,61.725 Q161.98,59.635 161.277,58.571 Q160.574,57.506 159.197,57.506 z M159.197,55.983 Q161.472,55.983 162.678,57.457 Q163.884,58.932 163.884,61.725 Q163.884,64.528 162.683,65.997 Q161.482,67.467 159.197,67.467 Q156.921,67.467 155.72,65.997 Q154.519,64.528 154.519,61.725 Q154.519,58.932 155.72,57.457 Q156.921,55.983 159.197,55.983 z" fill="#0142F2"/>
    <path d="M175.486,60.407 L175.486,67.184 L173.679,67.184 L173.679,60.407 Q173.679,58.932 173.162,58.239 Q172.644,57.545 171.54,57.545 Q170.281,57.545 169.602,58.439 Q168.923,59.332 168.923,61.002 L168.923,67.184 L167.126,67.184 L167.126,56.247 L168.923,56.247 L168.923,57.887 Q169.402,56.95 170.222,56.466 Q171.042,55.983 172.165,55.983 Q173.835,55.983 174.661,57.081 Q175.486,58.18 175.486,60.407 z" fill="#0142F2"/>
    <path d="M191.941,65.534 L195.007,65.534 L195.007,54.518 L191.335,56.286 L191.335,54.391 L194.988,52.653 L196.96,52.653 L196.96,65.534 L199.988,65.534 L199.988,67.184 L191.941,67.184 z" fill="#0142F2"/>
    <path d="M111.872,84.502 L111.277,84.502 Q109.704,84.502 108.909,85.054 Q108.113,85.605 108.113,86.699 Q108.113,87.686 108.708,88.232 Q109.304,88.779 110.359,88.779 Q111.843,88.779 112.693,87.749 Q113.542,86.719 113.552,84.902 L113.552,84.502 z M115.359,83.76 L115.359,90 L113.552,90 L113.552,88.379 Q112.976,89.355 112.102,89.819 Q111.228,90.283 109.978,90.283 Q108.308,90.283 107.312,89.341 Q106.316,88.398 106.316,86.816 Q106.316,84.99 107.541,84.043 Q108.767,83.096 111.14,83.096 L113.552,83.096 L113.552,82.812 Q113.542,81.504 112.888,80.913 Q112.234,80.322 110.798,80.322 Q109.88,80.322 108.943,80.586 Q108.005,80.85 107.117,81.357 L107.117,79.561 Q108.113,79.18 109.026,78.989 Q109.939,78.799 110.798,78.799 Q112.156,78.799 113.118,79.199 Q114.079,79.6 114.675,80.4 Q115.046,80.889 115.203,81.606 Q115.359,82.324 115.359,83.76 z" fill="#0142F2"/>
    <path d="M127.419,89.443 Q126.697,89.863 125.93,90.073 Q125.163,90.283 124.363,90.283 Q121.824,90.283 120.393,88.76 Q118.962,87.236 118.962,84.541 Q118.962,81.846 120.393,80.322 Q121.824,78.799 124.363,78.799 Q125.154,78.799 125.906,79.004 Q126.658,79.209 127.419,79.639 L127.419,81.523 Q126.706,80.889 125.989,80.605 Q125.271,80.322 124.363,80.322 Q122.673,80.322 121.765,81.416 Q120.857,82.51 120.857,84.541 Q120.857,86.562 121.77,87.661 Q122.683,88.76 124.363,88.76 Q125.3,88.76 126.042,88.472 Q126.785,88.184 127.419,87.578 z" fill="#0142F2"/>
    <path d="M135.095,75.957 L135.095,79.062 L139.177,79.062 L139.177,80.459 L135.095,80.459 L135.095,86.396 Q135.095,87.607 135.554,88.086 Q136.013,88.564 137.156,88.564 L139.177,88.564 L139.177,90 L136.98,90 Q134.958,90 134.128,89.189 Q133.298,88.379 133.298,86.396 L133.298,80.459 L130.378,80.459 L130.378,79.062 L133.298,79.062 L133.298,75.957 z" fill="#0142F2"/>
    <path d="M144.226,79.102 L148.826,79.102 L148.826,88.604 L152.39,88.604 L152.39,90 L143.464,90 L143.464,88.604 L147.029,88.604 L147.029,80.498 L144.226,80.498 z M147.029,74.854 L148.826,74.854 L148.826,77.119 L147.029,77.119 z" fill="#0142F2"/>
    <path d="M159.197,80.322 Q157.829,80.322 157.126,81.387 Q156.423,82.451 156.423,84.541 Q156.423,86.621 157.126,87.69 Q157.829,88.76 159.197,88.76 Q160.574,88.76 161.277,87.69 Q161.98,86.621 161.98,84.541 Q161.98,82.451 161.277,81.387 Q160.574,80.322 159.197,80.322 z M159.197,78.799 Q161.472,78.799 162.678,80.273 Q163.884,81.748 163.884,84.541 Q163.884,87.344 162.683,88.813 Q161.482,90.283 159.197,90.283 Q156.921,90.283 155.72,88.813 Q154.519,87.344 154.519,84.541 Q154.519,81.748 155.72,80.273 Q156.921,78.799 159.197,78.799 z" fill="#0142F2"/>
    <path d="M175.486,83.223 L175.486,90 L173.679,90 L173.679,83.223 Q173.679,81.748 173.162,81.055 Q172.644,80.361 171.54,80.361 Q170.281,80.361 169.602,81.255 Q168.923,82.148 168.923,83.818 L168.923,90 L167.126,90 L167.126,79.062 L168.923,79.062 L168.923,80.703 Q169.402,79.766 170.222,79.282 Q171.042,78.799 172.165,78.799 Q173.835,78.799 174.661,79.897 Q175.486,80.996 175.486,83.223 z" fill="#0142F2"/>
    <path d="M192.947,88.34 L199.646,88.34 L199.646,90 L190.788,90 L190.788,88.34 Q192.615,86.416 193.982,84.941 Q195.349,83.467 195.867,82.861 Q196.843,81.67 197.185,80.933 Q197.527,80.195 197.527,79.424 Q197.527,78.203 196.809,77.51 Q196.091,76.816 194.841,76.816 Q193.953,76.816 192.976,77.139 Q191.999,77.461 190.906,78.115 L190.906,76.123 Q191.912,75.645 192.883,75.4 Q193.855,75.156 194.802,75.156 Q196.941,75.156 198.245,76.294 Q199.548,77.432 199.548,79.277 Q199.548,80.215 199.114,81.152 Q198.679,82.09 197.703,83.223 Q197.156,83.857 196.116,84.98 Q195.076,86.104 192.947,88.34 z" fill="#0142F2"/>
    <path d="M111.872,110.752 L111.277,110.752 Q109.704,110.752 108.909,111.304 Q108.113,111.855 108.113,112.949 Q108.113,113.936 108.708,114.482 Q109.304,115.029 110.359,115.029 Q111.843,115.029 112.693,113.999 Q113.542,112.969 113.552,111.152 L113.552,110.752 z M115.359,110.01 L115.359,116.25 L113.552,116.25 L113.552,114.629 Q112.976,115.605 112.102,116.069 Q111.228,116.533 109.978,116.533 Q108.308,116.533 107.312,115.591 Q106.316,114.648 106.316,113.066 Q106.316,111.24 107.541,110.293 Q108.767,109.346 111.14,109.346 L113.552,109.346 L113.552,109.062 Q113.542,107.754 112.888,107.163 Q112.234,106.572 110.798,106.572 Q109.88,106.572 108.943,106.836 Q108.005,107.1 107.117,107.607 L107.117,105.811 Q108.113,105.43 109.026,105.239 Q109.939,105.049 110.798,105.049 Q112.156,105.049 113.118,105.449 Q114.079,105.85 114.675,106.65 Q115.046,107.139 115.203,107.856 Q115.359,108.574 115.359,110.01 z" fill="#0142F2"/>
    <path d="M127.419,115.693 Q126.697,116.113 125.93,116.323 Q125.163,116.533 124.363,116.533 Q121.824,116.533 120.393,115.01 Q118.962,113.486 118.962,110.791 Q118.962,108.096 120.393,106.572 Q121.824,105.049 124.363,105.049 Q125.154,105.049 125.906,105.254 Q126.658,105.459 127.419,105.889 L127.419,107.773 Q126.706,107.139 125.989,106.855 Q125.271,106.572 124.363,106.572 Q122.673,106.572 121.765,107.666 Q120.857,108.76 120.857,110.791 Q120.857,112.812 121.77,113.911 Q122.683,115.01 124.363,115.01 Q125.3,115.01 126.042,114.722 Q126.785,114.434 127.419,113.828 z" fill="#0142F2"/>
    <path d="M135.095,102.207 L135.095,105.312 L139.177,105.312 L139.177,106.709 L135.095,106.709 L135.095,112.646 Q135.095,113.857 135.554,114.336 Q136.013,114.814 137.156,114.814 L139.177,114.814 L139.177,116.25 L136.98,116.25 Q134.958,116.25 134.128,115.439 Q133.298,114.629 133.298,112.646 L133.298,106.709 L130.378,106.709 L130.378,105.312 L133.298,105.312 L133.298,102.207 z" fill="#0142F2"/>
    <path d="M144.226,105.352 L148.826,105.352 L148.826,114.854 L152.39,114.854 L152.39,116.25 L143.464,116.25 L143.464,114.854 L147.029,114.854 L147.029,106.748 L144.226,106.748 z M147.029,101.104 L148.826,101.104 L148.826,103.369 L147.029,103.369 z" fill="#0142F2"/>
    <path d="M159.197,106.572 Q157.829,106.572 157.126,107.637 Q156.423,108.701 156.423,110.791 Q156.423,112.871 157.126,113.94 Q157.829,115.01 159.197,115.01 Q160.574,115.01 161.277,113.94 Q161.98,112.871 161.98,110.791 Q161.98,108.701 161.277,107.637 Q160.574,106.572 159.197,106.572 z M159.197,105.049 Q161.472,105.049 162.678,106.523 Q163.884,107.998 163.884,110.791 Q163.884,113.594 162.683,115.063 Q161.482,116.533 159.197,116.533 Q156.921,116.533 155.72,115.063 Q154.519,113.594 154.519,110.791 Q154.519,107.998 155.72,106.523 Q156.921,105.049 159.197,105.049 z" fill="#0142F2"/>
    <path d="M175.486,109.473 L175.486,116.25 L173.679,116.25 L173.679,109.473 Q173.679,107.998 173.162,107.305 Q172.644,106.611 171.54,106.611 Q170.281,106.611 169.602,107.505 Q168.923,108.398 168.923,110.068 L168.923,116.25 L167.126,116.25 L167.126,105.312 L168.923,105.312 L168.923,106.953 Q169.402,106.016 170.222,105.532 Q171.042,105.049 172.165,105.049 Q173.835,105.049 174.661,106.147 Q175.486,107.246 175.486,109.473 z" fill="#0142F2"/>
    <path d="M199.568,109.473 L199.568,116.25 L197.761,116.25 L197.761,109.473 Q197.761,107.998 197.244,107.305 Q196.726,106.611 195.622,106.611 Q194.363,106.611 193.684,107.505 Q193.005,108.398 193.005,110.068 L193.005,116.25 L191.208,116.25 L191.208,105.312 L193.005,105.312 L193.005,106.953 Q193.484,106.016 194.304,105.532 Q195.124,105.049 196.247,105.049 Q197.917,105.049 198.743,106.147 Q199.568,107.246 199.568,109.473 z" fill="#0142F2"/>
    <path d="M279.294,20.312 L284.958,20.312 L284.958,29.053 L288.513,29.053 L288.513,31.25 L278.532,31.25 L278.532,29.053 L282.097,29.053 L282.097,22.51 L279.294,22.51 z M282.097,14.99 L284.958,14.99 L284.958,18.33 L282.097,18.33 z" fill="#000000"/>
    <path d="M296.394,19.355 L296.394,20.312 L299.753,20.312 L299.753,22.51 L296.394,22.51 L296.394,31.25 L293.532,31.25 L293.532,22.51 L290.876,22.51 L290.876,20.312 L293.532,20.312 L293.532,19.551 Q293.532,17.578 294.353,16.816 Q295.173,16.055 297.4,16.055 L299.753,16.055 L299.753,18.252 L297.517,18.252 Q296.872,18.252 296.643,18.486 Q296.413,18.721 296.394,19.355 z" fill="#000000"/>
    <path d="M319.202,15.098 Q317.903,17.324 317.263,19.536 Q316.623,21.748 316.623,23.994 Q316.623,26.23 317.263,28.447 Q317.903,30.664 319.202,32.91 L317.639,32.91 Q316.164,30.586 315.442,28.384 Q314.719,26.182 314.719,23.994 Q314.719,21.816 315.442,19.609 Q316.164,17.402 317.639,15.098 z" fill="#F42300"/>
    <path d="M333.254,30.693 Q332.532,31.113 331.765,31.323 Q330.998,31.533 330.198,31.533 Q327.659,31.533 326.228,30.01 Q324.797,28.486 324.797,25.791 Q324.797,23.096 326.228,21.572 Q327.659,20.049 330.198,20.049 Q330.989,20.049 331.741,20.254 Q332.493,20.459 333.254,20.889 L333.254,22.773 Q332.541,22.139 331.824,21.855 Q331.106,21.572 330.198,21.572 Q328.508,21.572 327.6,22.666 Q326.692,23.76 326.692,25.791 Q326.692,27.812 327.605,28.911 Q328.518,30.01 330.198,30.01 Q331.135,30.01 331.877,29.722 Q332.62,29.434 333.254,28.828 z" fill="#F42300"/>
    <path d="M340.95,21.572 Q339.582,21.572 338.879,22.637 Q338.176,23.701 338.176,25.791 Q338.176,27.871 338.879,28.94 Q339.582,30.01 340.95,30.01 Q342.327,30.01 343.03,28.94 Q343.733,27.871 343.733,25.791 Q343.733,23.701 343.03,22.637 Q342.327,21.572 340.95,21.572 z M340.95,20.049 Q343.225,20.049 344.431,21.523 Q345.637,22.998 345.637,25.791 Q345.637,28.594 344.436,30.063 Q343.235,31.533 340.95,31.533 Q338.674,31.533 337.473,30.063 Q336.272,28.594 336.272,25.791 Q336.272,22.998 337.473,21.523 Q338.674,20.049 340.95,20.049 z" fill="#F42300"/>
    <path d="M357.239,24.473 L357.239,31.25 L355.432,31.25 L355.432,24.473 Q355.432,22.998 354.914,22.305 Q354.397,21.611 353.293,21.611 Q352.034,21.611 351.355,22.505 Q350.676,23.398 350.676,25.068 L350.676,31.25 L348.879,31.25 L348.879,20.312 L350.676,20.312 L350.676,21.953 Q351.155,21.016 351.975,20.532 Q352.795,20.049 353.918,20.049 Q355.588,20.049 356.413,21.147 Q357.239,22.246 357.239,24.473 z" fill="#F42300"/>
    <path d="M367.395,21.709 L367.395,16.055 L369.192,16.055 L369.192,31.25 L367.395,31.25 L367.395,29.873 Q366.946,30.684 366.199,31.108 Q365.452,31.533 364.475,31.533 Q362.493,31.533 361.355,29.995 Q360.217,28.457 360.217,25.752 Q360.217,23.086 361.36,21.567 Q362.502,20.049 364.475,20.049 Q365.461,20.049 366.213,20.474 Q366.965,20.898 367.395,21.709 z M362.112,25.791 Q362.112,27.881 362.776,28.945 Q363.44,30.01 364.739,30.01 Q366.038,30.01 366.716,28.936 Q367.395,27.861 367.395,25.791 Q367.395,23.711 366.716,22.642 Q366.038,21.572 364.739,21.572 Q363.44,21.572 362.776,22.637 Q362.112,23.701 362.112,25.791 z" fill="#F42300"/>
    <path d="M374.143,20.352 L378.743,20.352 L378.743,29.854 L382.307,29.854 L382.307,31.25 L373.381,31.25 L373.381,29.854 L376.946,29.854 L376.946,21.748 L374.143,21.748 z M376.946,16.104 L378.743,16.104 L378.743,18.369 L376.946,18.369 z" fill="#F42300"/>
    <path d="M389.094,17.207 L389.094,20.312 L393.176,20.312 L393.176,21.709 L389.094,21.709 L389.094,27.646 Q389.094,28.857 389.553,29.336 Q390.012,29.814 391.155,29.814 L393.176,29.814 L393.176,31.25 L390.979,31.25 Q388.957,31.25 388.127,30.439 Q387.297,29.629 387.297,27.646 L387.297,21.709 L384.377,21.709 L384.377,20.312 L387.297,20.312 L387.297,17.207 z" fill="#F42300"/>
    <path d="M398.225,20.352 L402.825,20.352 L402.825,29.854 L406.389,29.854 L406.389,31.25 L397.463,31.25 L397.463,29.854 L401.028,29.854 L401.028,21.748 L398.225,21.748 z M401.028,16.104 L402.825,16.104 L402.825,18.369 L401.028,18.369 z" fill="#F42300"/>
    <path d="M413.196,21.572 Q411.829,21.572 411.125,22.637 Q410.422,23.701 410.422,25.791 Q410.422,27.871 411.125,28.94 Q411.829,30.01 413.196,30.01 Q414.573,30.01 415.276,28.94 Q415.979,27.871 415.979,25.791 Q415.979,23.701 415.276,22.637 Q414.573,21.572 413.196,21.572 z M413.196,20.049 Q415.471,20.049 416.677,21.523 Q417.883,22.998 417.883,25.791 Q417.883,28.594 416.682,30.063 Q415.481,31.533 413.196,31.533 Q410.92,31.533 409.719,30.063 Q408.518,28.594 408.518,25.791 Q408.518,22.998 409.719,21.523 Q410.92,20.049 413.196,20.049 z" fill="#F42300"/>
    <path d="M429.485,24.473 L429.485,31.25 L427.678,31.25 L427.678,24.473 Q427.678,22.998 427.161,22.305 Q426.643,21.611 425.539,21.611 Q424.28,21.611 423.601,22.505 Q422.922,23.398 422.922,25.068 L422.922,31.25 L421.125,31.25 L421.125,20.312 L422.922,20.312 L422.922,21.953 Q423.401,21.016 424.221,20.532 Q425.041,20.049 426.164,20.049 Q427.834,20.049 428.66,21.147 Q429.485,22.246 429.485,24.473 z" fill="#F42300"/>
    <path d="M434.661,15.098 L436.223,15.098 Q437.698,17.402 438.42,19.609 Q439.143,21.816 439.143,23.994 Q439.143,26.191 438.42,28.398 Q437.698,30.605 436.223,32.91 L434.661,32.91 Q435.959,30.645 436.599,28.428 Q437.239,26.211 437.239,23.994 Q437.239,21.768 436.599,19.551 Q435.959,17.334 434.661,15.098 z" fill="#F42300"/>
    <path d="M278.894,149.08 L280.075,149.08 Q281.091,149.08 281.443,148.661 Q281.794,148.241 281.794,146.844 L281.794,144.842 Q281.794,143.241 282.273,142.577 Q282.751,141.913 283.972,141.707 Q282.741,141.522 282.268,140.868 Q281.794,140.213 281.794,138.602 L281.794,136.561 Q281.794,135.184 281.448,134.764 Q281.101,134.344 280.075,134.344 L278.894,134.344 L278.894,132.489 L280.359,132.489 Q282.781,132.489 283.596,133.206 Q284.411,133.924 284.411,136.082 L284.411,138.182 Q284.411,139.657 284.944,140.218 Q285.476,140.78 286.853,140.78 L287.458,140.78 L287.458,142.645 L286.853,142.645 Q285.476,142.645 284.944,143.211 Q284.411,143.778 284.411,145.243 L284.411,147.342 Q284.411,149.5 283.596,150.223 Q282.781,150.946 280.359,150.946 L278.894,150.946 z" fill="#000000"/>
    <path d="M300.707,70.186 L300.112,70.186 Q298.539,70.186 297.744,70.738 Q296.948,71.289 296.948,72.383 Q296.948,73.37 297.543,73.916 Q298.139,74.463 299.194,74.463 Q300.678,74.463 301.528,73.433 Q302.377,72.403 302.387,70.586 L302.387,70.186 z M304.194,69.444 L304.194,75.684 L302.387,75.684 L302.387,74.063 Q301.811,75.039 300.937,75.503 Q300.063,75.967 298.813,75.967 Q297.143,75.967 296.147,75.025 Q295.151,74.082 295.151,72.5 Q295.151,70.674 296.376,69.727 Q297.602,68.78 299.975,68.78 L302.387,68.78 L302.387,68.496 Q302.377,67.188 301.723,66.597 Q301.069,66.006 299.633,66.006 Q298.715,66.006 297.778,66.27 Q296.84,66.534 295.952,67.041 L295.952,65.245 Q296.948,64.864 297.861,64.673 Q298.774,64.483 299.633,64.483 Q300.991,64.483 301.953,64.883 Q302.914,65.284 303.51,66.084 Q303.881,66.573 304.038,67.29 Q304.194,68.008 304.194,69.444 z" fill="#0142F2"/>
    <path d="M316.254,75.127 Q315.532,75.547 314.765,75.757 Q313.998,75.967 313.198,75.967 Q310.659,75.967 309.228,74.444 Q307.797,72.92 307.797,70.225 Q307.797,67.53 309.228,66.006 Q310.659,64.483 313.198,64.483 Q313.989,64.483 314.741,64.688 Q315.493,64.893 316.254,65.323 L316.254,67.207 Q315.541,66.573 314.824,66.289 Q314.106,66.006 313.198,66.006 Q311.508,66.006 310.6,67.1 Q309.692,68.194 309.692,70.225 Q309.692,72.246 310.605,73.345 Q311.518,74.444 313.198,74.444 Q314.135,74.444 314.877,74.156 Q315.62,73.868 316.254,73.262 z" fill="#0142F2"/>
    <path d="M323.93,61.641 L323.93,64.746 L328.012,64.746 L328.012,66.143 L323.93,66.143 L323.93,72.08 Q323.93,73.291 324.389,73.77 Q324.848,74.248 325.991,74.248 L328.012,74.248 L328.012,75.684 L325.815,75.684 Q323.793,75.684 322.963,74.873 Q322.133,74.063 322.133,72.08 L322.133,66.143 L319.213,66.143 L319.213,64.746 L322.133,64.746 L322.133,61.641 z" fill="#0142F2"/>
    <path d="M333.061,64.786 L337.661,64.786 L337.661,74.288 L341.225,74.288 L341.225,75.684 L332.299,75.684 L332.299,74.288 L335.864,74.288 L335.864,66.182 L333.061,66.182 z M335.864,60.538 L337.661,60.538 L337.661,62.803 L335.864,62.803 z" fill="#0142F2"/>
    <path d="M348.032,66.006 Q346.664,66.006 345.961,67.071 Q345.258,68.135 345.258,70.225 Q345.258,72.305 345.961,73.374 Q346.664,74.444 348.032,74.444 Q349.409,74.444 350.112,73.374 Q350.815,72.305 350.815,70.225 Q350.815,68.135 350.112,67.071 Q349.409,66.006 348.032,66.006 z M348.032,64.483 Q350.307,64.483 351.513,65.957 Q352.719,67.432 352.719,70.225 Q352.719,73.028 351.518,74.497 Q350.317,75.967 348.032,75.967 Q345.756,75.967 344.555,74.497 Q343.354,73.028 343.354,70.225 Q343.354,67.432 344.555,65.957 Q345.756,64.483 348.032,64.483 z" fill="#0142F2"/>
    <path d="M364.321,68.907 L364.321,75.684 L362.514,75.684 L362.514,68.907 Q362.514,67.432 361.996,66.739 Q361.479,66.045 360.375,66.045 Q359.116,66.045 358.437,66.939 Q357.758,67.832 357.758,69.502 L357.758,75.684 L355.961,75.684 L355.961,64.746 L357.758,64.746 L357.758,66.387 Q358.237,65.45 359.057,64.966 Q359.877,64.483 361,64.483 Q362.67,64.483 363.496,65.581 Q364.321,66.68 364.321,68.907 z" fill="#0142F2"/>
    <path d="M380.776,74.034 L383.842,74.034 L383.842,63.018 L380.17,64.786 L380.17,62.891 L383.823,61.153 L385.795,61.153 L385.795,74.034 L388.823,74.034 L388.823,75.684 L380.776,75.684 z" fill="#0142F2"/>
    <path d="M394.496,72.159 L397.543,72.159 L397.543,74.746 L395.62,78.477 L393.53,78.477 L394.496,74.746 z M394.37,64.756 L397.416,64.756 L397.416,68.282 L394.37,68.282 z" fill="#0142F2"/>
    <path d="M300.707,93.002 L300.112,93.002 Q298.539,93.002 297.744,93.554 Q296.948,94.105 296.948,95.199 Q296.948,96.186 297.543,96.732 Q298.139,97.279 299.194,97.279 Q300.678,97.279 301.528,96.249 Q302.377,95.219 302.387,93.402 L302.387,93.002 z M304.194,92.26 L304.194,98.5 L302.387,98.5 L302.387,96.879 Q301.811,97.855 300.937,98.319 Q300.063,98.783 298.813,98.783 Q297.143,98.783 296.147,97.841 Q295.151,96.898 295.151,95.316 Q295.151,93.49 296.376,92.543 Q297.602,91.596 299.975,91.596 L302.387,91.596 L302.387,91.312 Q302.377,90.004 301.723,89.413 Q301.069,88.822 299.633,88.822 Q298.715,88.822 297.778,89.086 Q296.84,89.35 295.952,89.857 L295.952,88.061 Q296.948,87.68 297.861,87.489 Q298.774,87.299 299.633,87.299 Q300.991,87.299 301.953,87.699 Q302.914,88.1 303.51,88.9 Q303.881,89.389 304.038,90.106 Q304.194,90.824 304.194,92.26 z" fill="#0142F2"/>
    <path d="M316.254,97.943 Q315.532,98.363 314.765,98.573 Q313.998,98.783 313.198,98.783 Q310.659,98.783 309.228,97.26 Q307.797,95.736 307.797,93.041 Q307.797,90.346 309.228,88.822 Q310.659,87.299 313.198,87.299 Q313.989,87.299 314.741,87.504 Q315.493,87.709 316.254,88.139 L316.254,90.023 Q315.541,89.389 314.824,89.105 Q314.106,88.822 313.198,88.822 Q311.508,88.822 310.6,89.916 Q309.692,91.01 309.692,93.041 Q309.692,95.062 310.605,96.161 Q311.518,97.26 313.198,97.26 Q314.135,97.26 314.877,96.972 Q315.62,96.684 316.254,96.078 z" fill="#0142F2"/>
    <path d="M323.93,84.457 L323.93,87.562 L328.012,87.562 L328.012,88.959 L323.93,88.959 L323.93,94.896 Q323.93,96.107 324.389,96.586 Q324.848,97.064 325.991,97.064 L328.012,97.064 L328.012,98.5 L325.815,98.5 Q323.793,98.5 322.963,97.689 Q322.133,96.879 322.133,94.896 L322.133,88.959 L319.213,88.959 L319.213,87.562 L322.133,87.562 L322.133,84.457 z" fill="#0142F2"/>
    <path d="M333.061,87.602 L337.661,87.602 L337.661,97.104 L341.225,97.104 L341.225,98.5 L332.299,98.5 L332.299,97.104 L335.864,97.104 L335.864,88.998 L333.061,88.998 z M335.864,83.354 L337.661,83.354 L337.661,85.619 L335.864,85.619 z" fill="#0142F2"/>
    <path d="M348.032,88.822 Q346.664,88.822 345.961,89.887 Q345.258,90.951 345.258,93.041 Q345.258,95.121 345.961,96.19 Q346.664,97.26 348.032,97.26 Q349.409,97.26 350.112,96.19 Q350.815,95.121 350.815,93.041 Q350.815,90.951 350.112,89.887 Q349.409,88.822 348.032,88.822 z M348.032,87.299 Q350.307,87.299 351.513,88.773 Q352.719,90.248 352.719,93.041 Q352.719,95.844 351.518,97.313 Q350.317,98.783 348.032,98.783 Q345.756,98.783 344.555,97.313 Q343.354,95.844 343.354,93.041 Q343.354,90.248 344.555,88.773 Q345.756,87.299 348.032,87.299 z" fill="#0142F2"/>
    <path d="M364.321,91.723 L364.321,98.5 L362.514,98.5 L362.514,91.723 Q362.514,90.248 361.996,89.555 Q361.479,88.861 360.375,88.861 Q359.116,88.861 358.437,89.755 Q357.758,90.648 357.758,92.318 L357.758,98.5 L355.961,98.5 L355.961,87.562 L357.758,87.562 L357.758,89.203 Q358.237,88.266 359.057,87.782 Q359.877,87.299 361,87.299 Q362.67,87.299 363.496,88.397 Q364.321,89.496 364.321,91.723 z" fill="#0142F2"/>
    <path d="M381.782,96.84 L388.481,96.84 L388.481,98.5 L379.623,98.5 L379.623,96.84 Q381.45,94.916 382.817,93.441 Q384.184,91.967 384.702,91.361 Q385.678,90.17 386.02,89.433 Q386.362,88.695 386.362,87.924 Q386.362,86.703 385.644,86.01 Q384.926,85.316 383.676,85.316 Q382.788,85.316 381.811,85.639 Q380.834,85.961 379.741,86.615 L379.741,84.623 Q380.746,84.145 381.718,83.9 Q382.69,83.656 383.637,83.656 Q385.776,83.656 387.079,84.794 Q388.383,85.932 388.383,87.777 Q388.383,88.715 387.949,89.652 Q387.514,90.59 386.538,91.723 Q385.991,92.357 384.951,93.48 Q383.911,94.604 381.782,96.84 z" fill="#0142F2"/>
    <path d="M394.496,94.975 L397.543,94.975 L397.543,97.562 L395.62,101.293 L393.53,101.293 L394.496,97.562 z M394.37,87.572 L397.416,87.572 L397.416,91.098 L394.37,91.098 z" fill="#0142F2"/>
    <path d="M300.707,117.252 L300.112,117.252 Q298.539,117.252 297.744,117.804 Q296.948,118.355 296.948,119.449 Q296.948,120.436 297.543,120.982 Q298.139,121.529 299.194,121.529 Q300.678,121.529 301.528,120.499 Q302.377,119.469 302.387,117.652 L302.387,117.252 z M304.194,116.51 L304.194,122.75 L302.387,122.75 L302.387,121.129 Q301.811,122.105 300.937,122.569 Q300.063,123.033 298.813,123.033 Q297.143,123.033 296.147,122.091 Q295.151,121.148 295.151,119.566 Q295.151,117.74 296.376,116.793 Q297.602,115.846 299.975,115.846 L302.387,115.846 L302.387,115.562 Q302.377,114.254 301.723,113.663 Q301.069,113.072 299.633,113.072 Q298.715,113.072 297.778,113.336 Q296.84,113.6 295.952,114.107 L295.952,112.311 Q296.948,111.93 297.861,111.739 Q298.774,111.549 299.633,111.549 Q300.991,111.549 301.953,111.949 Q302.914,112.35 303.51,113.15 Q303.881,113.639 304.038,114.356 Q304.194,115.074 304.194,116.51 z" fill="#0142F2"/>
    <path d="M316.254,122.193 Q315.532,122.613 314.765,122.823 Q313.998,123.033 313.198,123.033 Q310.659,123.033 309.228,121.51 Q307.797,119.986 307.797,117.291 Q307.797,114.596 309.228,113.072 Q310.659,111.549 313.198,111.549 Q313.989,111.549 314.741,111.754 Q315.493,111.959 316.254,112.389 L316.254,114.273 Q315.541,113.639 314.824,113.355 Q314.106,113.072 313.198,113.072 Q311.508,113.072 310.6,114.166 Q309.692,115.26 309.692,117.291 Q309.692,119.312 310.605,120.411 Q311.518,121.51 313.198,121.51 Q314.135,121.51 314.877,121.222 Q315.62,120.934 316.254,120.328 z" fill="#0142F2"/>
    <path d="M323.93,108.707 L323.93,111.812 L328.012,111.812 L328.012,113.209 L323.93,113.209 L323.93,119.146 Q323.93,120.357 324.389,120.836 Q324.848,121.314 325.991,121.314 L328.012,121.314 L328.012,122.75 L325.815,122.75 Q323.793,122.75 322.963,121.939 Q322.133,121.129 322.133,119.146 L322.133,113.209 L319.213,113.209 L319.213,111.812 L322.133,111.812 L322.133,108.707 z" fill="#0142F2"/>
    <path d="M333.061,111.852 L337.661,111.852 L337.661,121.354 L341.225,121.354 L341.225,122.75 L332.299,122.75 L332.299,121.354 L335.864,121.354 L335.864,113.248 L333.061,113.248 z M335.864,107.604 L337.661,107.604 L337.661,109.869 L335.864,109.869 z" fill="#0142F2"/>
    <path d="M348.032,113.072 Q346.664,113.072 345.961,114.137 Q345.258,115.201 345.258,117.291 Q345.258,119.371 345.961,120.44 Q346.664,121.51 348.032,121.51 Q349.409,121.51 350.112,120.44 Q350.815,119.371 350.815,117.291 Q350.815,115.201 350.112,114.137 Q349.409,113.072 348.032,113.072 z M348.032,111.549 Q350.307,111.549 351.513,113.023 Q352.719,114.498 352.719,117.291 Q352.719,120.094 351.518,121.563 Q350.317,123.033 348.032,123.033 Q345.756,123.033 344.555,121.563 Q343.354,120.094 343.354,117.291 Q343.354,114.498 344.555,113.023 Q345.756,111.549 348.032,111.549 z" fill="#0142F2"/>
    <path d="M364.321,115.973 L364.321,122.75 L362.514,122.75 L362.514,115.973 Q362.514,114.498 361.996,113.805 Q361.479,113.111 360.375,113.111 Q359.116,113.111 358.437,114.005 Q357.758,114.898 357.758,116.568 L357.758,122.75 L355.961,122.75 L355.961,111.812 L357.758,111.812 L357.758,113.453 Q358.237,112.516 359.057,112.032 Q359.877,111.549 361,111.549 Q362.67,111.549 363.496,112.647 Q364.321,113.746 364.321,115.973 z" fill="#0142F2"/>
    <path d="M388.403,115.973 L388.403,122.75 L386.596,122.75 L386.596,115.973 Q386.596,114.498 386.079,113.805 Q385.561,113.111 384.457,113.111 Q383.198,113.111 382.519,114.005 Q381.84,114.898 381.84,116.568 L381.84,122.75 L380.043,122.75 L380.043,111.812 L381.84,111.812 L381.84,113.453 Q382.319,112.516 383.139,112.032 Q383.959,111.549 385.082,111.549 Q386.752,111.549 387.578,112.647 Q388.403,113.746 388.403,115.973 z" fill="#0142F2"/>
    <path d="M394.496,119.225 L397.543,119.225 L397.543,121.812 L395.62,125.543 L393.53,125.543 L394.496,121.812 z M394.37,111.822 L397.416,111.822 L397.416,115.348 L394.37,115.348 z" fill="#0142F2"/>
    <path d="M287.419,56.646 L287.419,58.512 L285.954,58.512 Q283.523,58.512 282.698,57.789 Q281.872,57.066 281.872,54.908 L281.872,52.809 Q281.872,51.334 281.35,50.772 Q280.827,50.211 279.46,50.211 L278.855,50.211 L278.855,48.346 L279.46,48.346 Q280.827,48.346 281.35,47.789 Q281.872,47.232 281.872,45.748 L281.872,43.648 Q281.872,41.49 282.698,40.772 Q283.523,40.055 285.954,40.055 L287.419,40.055 L287.419,41.91 L286.218,41.91 Q285.202,41.91 284.861,42.32 Q284.519,42.73 284.519,44.127 L284.519,46.168 Q284.519,47.779 284.04,48.434 Q283.562,49.088 282.331,49.273 Q283.562,49.479 284.04,50.143 Q284.519,50.807 284.519,52.408 L284.519,54.41 Q284.519,55.816 284.861,56.231 Q285.202,56.646 286.218,56.646 z" fill="#000000"/>
    <path d="M352.955,199.069 Q350.96,204.046 348.965,204.067 Q346.55,204.088 345.437,201.568 Q344.576,199.636 344.555,196.507 Q344.534,192.979 345.479,190.081 Q346.571,186.7 348.44,186.49 Q348.713,186.469 348.965,186.469 Q350.708,186.469 351.653,188.023 Q352.346,189.199 352.829,191.761 Q353.186,192.79 353.186,193.021 Q353.186,193.714 352.325,194.092 Q352.136,194.176 351.884,194.176 Q351.275,194.176 350.54,193.777 Q349.679,193.315 349.679,192.769 Q349.679,192.685 349.973,191.95 Q349.931,191.026 349.637,190.197 Q349.343,189.367 348.965,189.283 Q348.377,189.136 347.936,191.614 Q347.558,193.672 347.474,196.15 Q347.411,198.019 347.684,199.615 Q347.999,201.442 348.629,201.568 Q349.007,201.631 349.532,200.623 Q350.036,199.699 350.372,198.439 Q350.33,198.229 350.33,198.04 Q350.33,196.801 351.842,196.801 Q352.178,196.801 352.514,196.864 Q353.543,197.074 353.543,197.893 Q353.543,198.565 352.955,199.069 z" fill="#000000"/>
    <path d="M363.728,188.002 Q363.728,188.254 363.308,188.632 Q362.804,189.052 362.678,189.304 L356.21,201.568 Q356.084,201.778 355.727,202.954 Q355.475,203.71 355.16,203.773 Q354.656,203.878 353.879,203.437 Q353.018,202.933 353.018,202.24 Q353.039,201.904 353.312,201.568 Q353.711,201.085 353.774,200.98 L360.704,188.002 Q360.788,187.855 360.935,187.162 Q361.061,186.658 361.376,186.49 Q361.586,186.385 361.859,186.385 Q362.51,186.385 363.119,186.847 Q363.749,187.372 363.728,188.002 z" fill="#000000"/>
    <path d="M371.96,199.069 Q369.965,204.046 367.97,204.067 Q365.555,204.088 364.442,201.568 Q363.581,199.636 363.56,196.507 Q363.539,192.979 364.484,190.081 Q365.576,186.7 367.445,186.49 Q367.718,186.469 367.97,186.469 Q369.713,186.469 370.658,188.023 Q371.351,189.199 371.834,191.761 Q372.191,192.79 372.191,193.021 Q372.191,193.714 371.33,194.092 Q371.141,194.176 370.889,194.176 Q370.28,194.176 369.545,193.777 Q368.684,193.315 368.684,192.769 Q368.684,192.685 368.978,191.95 Q368.936,191.026 368.642,190.197 Q368.348,189.367 367.97,189.283 Q367.382,189.136 366.941,191.614 Q366.563,193.672 366.479,196.15 Q366.416,198.019 366.689,199.615 Q367.004,201.442 367.634,201.568 Q368.012,201.631 368.537,200.623 Q369.041,199.699 369.377,198.439 Q369.335,198.229 369.335,198.04 Q369.335,196.801 370.847,196.801 Q371.183,196.801 371.519,196.864 Q372.548,197.074 372.548,197.893 Q372.548,198.565 371.96,199.069 z" fill="#000000"/>
    <path d="M380.969,195.037 Q380.633,195.016 379.898,195.058 L378.386,195.31 L378.554,196.654 Q378.575,196.843 378.69,197.189 Q378.806,197.536 378.806,197.704 Q378.806,198.166 378.281,198.418 Q377.861,198.628 377.336,198.628 Q376.622,198.628 376.338,198.302 Q376.055,197.977 375.95,197.231 Q375.845,196.486 375.74,195.688 L374.858,196.066 Q374.48,196.234 374.102,196.192 Q373.64,196.15 373.325,195.667 Q373.01,195.184 373.01,194.617 Q373.01,194.26 373.199,193.893 Q373.388,193.525 373.724,193.525 Q373.808,193.525 374.06,193.609 Q374.312,193.693 374.48,193.672 L375.53,193.504 L375.32,191.782 Q375.299,191.656 375.215,191.425 Q375.131,191.194 375.131,191.068 Q375.131,190.69 375.908,190.459 Q376.475,190.291 376.979,190.291 Q378.218,190.291 378.218,190.858 Q378.218,190.963 378.102,191.225 Q377.987,191.488 378.008,191.656 L378.134,193.168 L379.058,193 Q379.247,192.958 379.667,192.832 Q380.024,192.706 380.234,192.706 Q380.738,192.706 381.147,193.189 Q381.557,193.672 381.557,194.197 Q381.557,194.869 380.969,195.037 z" fill="#000000"/>
    <path d="M390.209,195.037 Q389.873,195.016 389.138,195.058 L387.626,195.31 L387.794,196.654 Q387.815,196.843 387.93,197.189 Q388.046,197.536 388.046,197.704 Q388.046,198.166 387.521,198.418 Q387.101,198.628 386.576,198.628 Q385.862,198.628 385.578,198.302 Q385.295,197.977 385.19,197.231 Q385.085,196.486 384.98,195.688 L384.098,196.066 Q383.72,196.234 383.342,196.192 Q382.88,196.15 382.565,195.667 Q382.25,195.184 382.25,194.617 Q382.25,194.26 382.439,193.893 Q382.628,193.525 382.964,193.525 Q383.048,193.525 383.3,193.609 Q383.552,193.693 383.72,193.672 L384.77,193.504 L384.56,191.782 Q384.539,191.656 384.455,191.425 Q384.371,191.194 384.371,191.068 Q384.371,190.69 385.148,190.459 Q385.715,190.291 386.219,190.291 Q387.458,190.291 387.458,190.858 Q387.458,190.963 387.342,191.225 Q387.227,191.488 387.248,191.656 L387.374,193.168 L388.298,193 Q388.487,192.958 388.907,192.832 Q389.264,192.706 389.474,192.706 Q389.978,192.706 390.387,193.189 Q390.797,193.672 390.797,194.197 Q390.797,194.869 390.209,195.037 z" fill="#000000"/>
  </g>
</svg>
