<?xml version="1.0" encoding="UTF-8"?>
<!DOCTYPE svg PUBLIC "-//W3C//DTD SVG 1.1//EN" "http://www.w3.org/Graphics/SVG/1.1/DTD/svg11.dtd">
<svg version="1.1" xmlns="http://www.w3.org/2000/svg" xmlns:xlink="http://www.w3.org/1999/xlink" x="0" y="0" width="445.568" height="315.991" viewBox="0, 0, 445.568, 315.991">
  <g id="Calque_1" transform="translate(-0, -0)">
    <path d="M19.581,0 L190.911,0 C201.725,0 210.491,16.091 210.491,35.942 L210.491,280.049 C210.491,299.899 201.725,315.991 190.911,315.991 L19.581,315.991 C8.767,315.991 0,299.899 0,280.049 L0,35.942 C0,16.091 8.767,0 19.581,0 z" fill="#FFF4B8" fill-opacity="0.5"/>
    <path d="M284.588,0 L429.057,0 C438.176,0 445.568,15.896 445.568,35.505 L445.568,276.644 C445.568,296.252 438.176,312.149 429.057,312.149 L284.588,312.149 C275.469,312.149 268.077,296.252 268.077,276.644 L268.077,35.505 C268.077,15.896 275.469,0 284.588,0 z" fill="#FFF4B8" fill-opacity="0.5"/>
    <path d="M16.152,24.854 Q13.975,24.023 13.203,23.11 Q12.432,22.197 12.432,20.654 Q12.432,18.672 13.701,17.539 Q14.971,16.406 17.188,16.406 Q18.193,16.406 19.199,16.636 Q20.205,16.865 21.192,17.314 L21.192,20.127 Q20.264,19.473 19.307,19.131 Q18.35,18.789 17.412,18.789 Q16.367,18.789 15.811,19.209 Q15.254,19.629 15.254,20.41 Q15.254,21.016 15.659,21.411 Q16.065,21.807 17.354,22.285 L18.594,22.754 Q20.352,23.398 21.182,24.463 Q22.012,25.527 22.012,27.148 Q22.012,29.355 20.708,30.444 Q19.404,31.533 16.768,31.533 Q15.684,31.533 14.595,31.274 Q13.506,31.016 12.49,30.508 L12.49,27.529 Q13.643,28.35 14.722,28.75 Q15.801,29.15 16.856,29.15 Q17.92,29.15 18.506,28.667 Q19.092,28.184 19.092,27.314 Q19.092,26.66 18.701,26.167 Q18.311,25.674 17.568,25.391 z" fill="#000000"/>
    <path d="M25.371,20.312 L31.035,20.312 L31.035,29.053 L34.59,29.053 L34.59,31.25 L24.609,31.25 L24.609,29.053 L28.174,29.053 L28.174,22.51 L25.371,22.51 z M28.174,14.99 L31.035,14.99 L31.035,18.33 L28.174,18.33 z" fill="#000000"/>
    <path d="M14.75,38 L14.75,199.184" fill-opacity="0" stroke="#000000" stroke-width="2"/>
    <path d="M55.133,294.216 Q54.986,294.489 54.482,294.552 Q54.44,294.552 53.579,294.594 Q53.726,295.539 54.671,296.946 Q55.217,297.345 55.217,297.996 Q55.217,299.025 53.957,299.025 Q52.76,299.025 52.319,298.416 Q52.172,298.206 52.13,297.849 Q52.13,297.618 52.109,297.366 Q51.92,297.177 50.975,294.93 Q49.253,295.182 46.733,295.644 Q46.481,296.253 46.187,297.408 Q46.229,297.618 46.229,297.807 Q46.229,298.374 45.851,298.678 Q45.473,298.983 44.948,298.983 Q44.36,298.983 43.856,298.542 Q43.352,298.101 43.352,297.513 Q43.352,296.988 43.835,296.568 Q45.41,288.567 47.657,283.338 Q47.615,283.086 47.615,282.834 Q47.615,281.784 48.329,281.448 Q48.623,281.322 49.085,281.322 Q49.967,281.322 50.555,281.595 Q51.311,281.973 51.311,282.729 Q51.311,283.422 50.933,283.968 Q51.332,287.538 52.655,292.2 Q52.781,292.179 53.516,291.99 Q53.957,291.864 54.188,291.864 Q54.461,291.864 54.629,291.99 Q55.364,292.557 55.364,293.376 Q55.364,293.817 55.133,294.216 z M50.093,292.62 Q49.736,291.297 48.959,287.538 Q47.468,290.793 47.195,293.124 z" fill="#000000"/>
    <path d="M59.942,298.605 Q59.522,299.403 58.388,299.403 Q57.338,299.403 56.918,298.689 Q56.792,298.479 56.792,298.227 Q56.792,298.017 56.939,297.534 Q57.086,297.051 57.086,296.736 L57.002,283.17 Q57.002,282.057 57.002,282.036 Q57.065,281.763 57.59,281.585 Q58.115,281.406 58.703,281.406 Q59.564,281.406 59.795,281.721 Q60.026,282.036 60.026,282.372 Q60.026,282.603 59.858,283.138 Q59.69,283.674 59.69,284.01 L59.69,296.61 Q59.69,296.925 59.868,297.439 Q60.047,297.954 60.047,298.185 Q60.047,298.416 59.942,298.605 z" fill="#000000"/>
    <path d="M69.098,287.349 Q69.14,289.155 69.287,293.292 Q69.371,296.211 69.371,297.471 Q69.371,300.243 68.93,301.251 Q68.489,302.259 67.145,302.364 Q65.465,302.511 64.184,301.482 Q63.554,301.293 63.386,301.188 Q63.029,300.978 62.924,300.474 Q62.735,299.487 64.478,299.487 Q64.919,299.487 65.318,299.592 Q65.612,299.655 65.969,300.085 Q66.326,300.516 66.641,300.537 Q67.25,300.579 67.25,298.815 Q67.25,298.059 67.145,296.358 Q66.389,297.639 66.053,298.017 Q65.36,298.731 64.436,298.731 Q63.134,298.731 62.336,296.925 Q61.601,295.266 61.601,292.893 Q61.601,290.457 62.378,288.777 Q63.26,286.887 64.814,286.845 Q65.654,286.824 66.053,287.181 Q66.452,287.538 66.83,287.916 Q66.557,287.16 66.956,286.782 Q67.187,286.551 67.649,286.551 Q68.09,286.551 68.531,286.782 Q68.972,287.013 69.098,287.349 z M66.578,292.704 Q66.662,291.486 66.284,290.394 Q65.864,289.176 65.192,289.176 Q64.646,289.176 64.226,290.394 Q63.848,291.486 63.806,292.704 Q63.764,293.985 63.995,295.014 Q64.289,296.232 64.814,296.232 Q65.276,296.232 65.885,295.046 Q66.494,293.859 66.578,292.704 z" fill="#000000"/>
    <path d="M77.792,287.664 Q79.199,289.092 79.199,292.473 Q79.199,295.098 78.212,296.946 Q77.099,299.025 75.146,299.025 Q73.214,299.025 72.164,297.156 Q71.24,295.518 71.24,292.998 Q71.24,290.772 71.954,289.008 Q72.71,287.118 73.886,286.782 Q74.495,286.614 75.146,286.614 Q76.763,286.614 77.792,287.664 z M75.398,288.672 Q74.705,288.609 74.201,289.974 Q73.76,291.213 73.76,292.578 Q73.76,294.552 73.928,295.371 Q74.222,296.841 75.146,296.988 Q75.734,297.072 76.238,295.371 Q76.721,293.733 76.721,291.864 Q76.721,288.798 75.398,288.672 z" fill="#000000"/>
    <path d="M88.859,287.79 Q88.775,288.231 88.061,288.399 Q87.221,288.609 86.99,288.882 L83.567,292.83 L83.567,296.022 Q83.567,296.484 83.829,296.957 Q84.092,297.429 84.092,297.681 Q84.092,297.933 83.945,298.248 Q83.588,299.046 82.496,299.046 Q81.74,299.046 81.299,298.563 Q81.005,298.248 81.005,297.765 Q81.005,297.597 81.047,297.219 Q81.089,296.841 81.089,296.61 L81.089,288.756 Q81.089,288.567 80.921,288.294 Q80.753,288.021 80.753,287.853 Q80.753,287.727 80.837,287.559 Q81.11,287.055 82.538,287.055 Q83.651,287.055 83.798,287.58 Q83.861,287.79 83.861,287.937 Q83.861,288.168 83.693,288.294 Q83.525,288.42 83.525,288.546 L83.567,289.302 L85.373,287.391 Q85.688,287.034 86.034,286.677 Q86.381,286.32 86.843,286.278 Q87.557,286.215 88.218,286.593 Q88.88,286.971 88.88,287.58 Q88.88,287.685 88.859,287.79 z" fill="#000000"/>
    <path d="M93.206,282.75 Q93.269,282.813 93.269,282.96 Q93.269,283.149 93.143,283.611 Q92.996,284.178 92.954,284.388 Q92.912,284.598 92.996,285.312 Q92.996,285.753 92.733,285.889 Q92.471,286.026 92.072,286.026 Q91.505,286.026 90.917,285.795 Q90.203,285.501 90.203,285.018 Q90.203,284.871 90.329,284.608 Q90.455,284.346 90.476,284.178 Q90.518,284.01 90.476,283.338 Q90.434,282.813 90.686,282.624 Q91.022,282.372 91.883,282.372 Q92.828,282.372 93.206,282.75 z M93.479,287.874 Q93.479,288.168 93.153,288.788 Q92.828,289.407 92.828,289.806 L92.828,295.98 Q92.828,296.4 93.059,297.167 Q93.29,297.933 93.29,298.227 Q93.29,298.647 92.954,298.857 Q92.429,299.193 91.82,299.193 Q91.022,299.193 90.686,298.647 Q90.245,297.975 90.245,294.636 Q90.245,293.838 90.276,292.147 Q90.308,290.457 90.308,289.68 Q90.308,289.386 90.245,288.914 Q90.182,288.441 90.182,288.231 Q90.182,287.538 90.686,287.034 Q90.896,286.824 91.463,286.824 Q92.03,286.824 92.597,287.003 Q93.164,287.181 93.321,287.412 Q93.479,287.643 93.479,287.874 z" fill="#000000"/>
    <path d="M102.362,288.966 Q102.194,288.966 101.837,288.829 Q101.48,288.693 101.291,288.693 Q101.144,288.693 100.997,288.756 L100.22,289.155 L100.22,296.337 Q100.22,296.736 100.65,297.366 Q101.081,297.996 100.997,298.374 Q100.892,298.836 100.377,299.109 Q99.863,299.382 99.275,299.382 Q98.162,299.382 97.742,298.395 Q97.616,298.101 97.595,296.526 Q97.574,295.476 97.616,293.25 Q97.658,290.73 97.658,290.058 Q97.532,290.1 97.238,290.342 Q96.944,290.583 96.65,290.583 Q96.419,290.583 96.062,290.457 Q94.592,289.953 94.592,289.428 Q94.592,289.302 94.655,289.155 Q94.802,288.819 95.201,288.777 Q95.81,288.693 95.936,288.63 Q96.419,288.441 97.7,287.727 L97.7,285.9 Q97.7,285.69 97.584,285.344 Q97.469,284.997 97.469,284.829 Q97.469,284.64 97.574,284.472 Q98.12,283.632 99.044,283.632 Q100.115,283.632 100.556,284.472 Q100.724,284.808 100.724,285.018 Q100.724,285.27 100.472,285.543 Q100.22,285.816 100.22,286.047 L100.22,287.076 Q100.598,286.908 101.06,286.509 Q101.417,286.215 101.669,286.215 Q101.774,286.215 101.9,286.257 Q103.223,286.614 103.223,287.853 Q103.223,288.252 102.981,288.609 Q102.74,288.966 102.362,288.966 z" fill="#000000"/>
    <path d="M113.051,296.736 Q113.177,297.261 113.177,297.408 Q113.177,297.849 112.662,298.132 Q112.148,298.416 111.56,298.416 Q110.657,298.416 110.405,297.744 Q110.3,297.471 110.3,297.282 Q110.3,297.009 110.541,296.694 Q110.783,296.379 110.783,296.106 Q111.035,295.014 111.035,292.956 Q111.035,289.386 110.531,289.302 Q110.153,289.239 109.313,290.499 Q108.431,291.822 107.843,293.46 Q107.15,295.392 107.255,296.862 Q107.192,296.988 107.192,297.114 Q107.192,297.303 107.36,297.649 Q107.528,297.996 107.528,298.206 Q107.528,298.416 107.381,298.605 Q106.814,299.424 106.247,299.424 Q105.659,299.424 105.113,298.5 Q104.798,297.954 104.798,292.221 Q104.798,290.121 104.903,282.666 Q104.903,282.54 104.882,282.277 Q104.861,282.015 104.861,281.868 Q104.882,281.658 104.987,281.49 Q105.218,281.049 105.974,281.049 Q106.646,281.049 107.202,281.406 Q107.759,281.763 107.633,282.246 Q107.612,282.372 107.433,282.54 Q107.255,282.708 107.255,282.876 L107.255,289.638 Q108.452,286.95 110.783,286.782 Q112.043,286.698 112.799,288.672 Q113.492,290.478 113.492,293.103 Q113.492,295.119 113.051,296.736 z" fill="#000000"/>
    <path d="M129.032,298.5 Q128.759,299.277 127.793,299.277 Q126.575,299.277 125.987,298.437 Q125.672,297.975 125.672,295.266 Q125.672,294.867 125.672,294.153 Q125.693,293.418 125.693,293.124 Q125.693,291.654 125.546,291.612 Q125.231,291.486 123.404,297.492 Q123.404,297.513 123.32,298.5 Q123.278,299.109 122.9,299.319 Q122.627,299.466 122.291,299.466 Q121.682,299.466 121.115,299.067 Q120.548,298.668 120.401,298.122 Q120.191,297.345 120.212,295.056 Q120.254,291.717 120.254,291.843 Q120.233,290.961 120.128,290.94 Q119.645,291.738 119.288,292.473 Q118.427,294.237 118.301,295.413 Q118.196,295.665 118.28,296.4 Q118.364,297.03 118.091,297.261 Q117.818,297.492 117.356,297.492 Q116.852,297.492 116.337,297.209 Q115.823,296.925 115.592,296.568 Q115.256,296.043 115.214,293.502 Q115.214,291.024 115.214,288.546 Q115.193,288.336 115.046,287.958 Q114.899,287.58 114.899,287.391 Q114.899,287.202 115.004,287.034 Q115.277,286.614 116.39,286.614 Q117.755,286.614 118.028,287.286 Q118.091,287.433 118.091,287.58 Q118.091,287.769 117.891,288.126 Q117.692,288.483 117.692,288.714 L117.692,291.108 Q118.322,289.785 119.351,287.748 Q119.477,287.475 119.592,287.202 Q119.708,286.929 119.939,286.719 Q120.17,286.509 120.716,286.509 Q121.556,286.509 122.406,286.887 Q123.257,287.265 123.278,287.79 Q123.299,288.336 123.12,288.62 Q122.942,288.903 122.942,289.092 L122.9,293.628 Q123.236,292.872 124.118,290.058 Q124.811,287.916 125.168,287.664 Q125.63,287.328 126.533,287.328 Q128.213,287.328 128.276,288.294 Q128.255,290.856 128.276,296.862 Q128.276,297.093 128.696,297.419 Q129.116,297.744 129.116,298.101 Q129.116,298.269 129.032,298.5 z" fill="#000000"/>
    <path d="M133.778,282.75 Q133.841,282.813 133.841,282.96 Q133.841,283.149 133.715,283.611 Q133.568,284.178 133.526,284.388 Q133.484,284.598 133.568,285.312 Q133.568,285.753 133.305,285.889 Q133.043,286.026 132.644,286.026 Q132.077,286.026 131.489,285.795 Q130.775,285.501 130.775,285.018 Q130.775,284.871 130.901,284.608 Q131.027,284.346 131.048,284.178 Q131.09,284.01 131.048,283.338 Q131.006,282.813 131.258,282.624 Q131.594,282.372 132.455,282.372 Q133.4,282.372 133.778,282.75 z M134.051,287.874 Q134.051,288.168 133.725,288.788 Q133.4,289.407 133.4,289.806 L133.4,295.98 Q133.4,296.4 133.631,297.167 Q133.862,297.933 133.862,298.227 Q133.862,298.647 133.526,298.857 Q133.001,299.193 132.392,299.193 Q131.594,299.193 131.258,298.647 Q130.817,297.975 130.817,294.636 Q130.817,293.838 130.848,292.147 Q130.88,290.457 130.88,289.68 Q130.88,289.386 130.817,288.914 Q130.754,288.441 130.754,288.231 Q130.754,287.538 131.258,287.034 Q131.468,286.824 132.035,286.824 Q132.602,286.824 133.169,287.003 Q133.736,287.181 133.893,287.412 Q134.051,287.643 134.051,287.874 z" fill="#000000"/>
    <path d="M143.249,287.16 Q143.333,287.349 143.333,287.517 Q143.333,287.727 143.165,288.052 Q142.997,288.378 142.997,288.609 L142.997,300.558 Q142.997,300.831 143.133,301.219 Q143.27,301.608 143.27,301.839 Q143.27,302.07 143.186,302.322 Q142.934,303.078 141.884,303.078 Q140.603,303.078 140.162,302.133 Q140.057,301.923 140.057,301.713 Q140.057,301.44 140.33,300.915 Q140.603,300.39 140.603,300.054 L140.603,297.366 Q139.7,298.731 138.839,298.731 Q137.306,298.731 136.256,296.757 Q135.311,294.93 135.311,292.704 Q135.311,290.289 135.92,288.756 Q136.718,286.782 138.461,286.782 Q139.763,286.782 140.729,288.168 Q140.708,288 140.603,287.685 Q140.498,287.37 140.498,287.223 Q140.498,287.034 140.603,286.908 Q140.876,286.572 141.695,286.572 Q142.997,286.572 143.249,287.16 z M140.351,292.704 Q140.351,291.423 139.962,290.11 Q139.574,288.798 139.091,288.798 Q138.062,288.798 138.062,291.171 Q138.062,291.444 138.062,291.948 Q138.083,292.473 138.083,292.704 Q138.083,294.027 138.314,295.077 Q138.608,296.358 139.091,296.358 Q139.511,296.358 139.952,294.972 Q140.351,293.67 140.351,292.704 z" fill="#000000"/>
    <path d="M152.888,288.252 Q152.93,288.567 152.762,288.924 Q152.552,289.407 152.51,289.638 Q152.51,294.006 152.153,295.707 Q151.376,299.277 148.856,299.277 Q145.181,299.277 145.181,292.578 Q145.181,290.772 145.454,288.756 Q145.307,288.273 145.307,287.895 Q145.307,287.286 145.706,286.866 Q146.042,286.509 146.693,286.509 Q147.218,286.509 147.68,286.729 Q148.142,286.95 148.226,287.244 Q148.268,287.391 148.268,287.538 Q148.268,287.811 148.037,288.409 Q147.806,289.008 147.848,289.386 Q147.638,290.562 147.638,292.347 Q147.638,294.153 147.869,295.35 Q148.163,296.736 148.688,296.736 Q149.57,296.736 149.843,293.754 Q149.99,292.263 149.99,289.008 Q149.99,288.798 149.927,288.399 Q149.864,288 149.864,287.811 Q149.864,287.307 150.242,287.118 Q150.452,287.013 150.83,287.013 Q151.523,287.013 152.111,287.307 Q152.804,287.664 152.888,288.252 z" fill="#000000"/>
    <path d="M161.918,296.295 Q161.75,297.093 160.784,297.996 Q160.637,298.227 159.629,298.605 Q158.474,299.046 157.634,298.983 Q156.059,298.878 155.156,297.177 Q154.337,295.602 154.337,293.313 Q154.337,290.835 155.261,288.966 Q156.29,286.908 158.012,286.656 Q158.348,286.614 158.663,286.614 Q161.162,286.614 161.414,289.68 Q161.54,291.087 160.301,292.746 Q158.957,294.573 156.857,295.308 Q157.088,296.148 157.214,296.4 Q157.508,296.925 158.012,296.925 Q158.495,296.925 159.041,296.547 Q159.503,296.232 159.671,295.938 Q159.755,295.896 159.839,295.466 Q159.923,295.035 160.28,294.846 Q160.406,294.783 160.574,294.783 Q161.078,294.783 161.55,295.277 Q162.023,295.77 161.918,296.295 z M158.621,288.903 Q157.781,288.903 157.256,290.1 Q156.563,291.696 156.689,293.25 Q157.676,292.935 158.516,291.78 Q159.356,290.625 159.356,289.722 Q159.356,288.903 158.621,288.903 z" fill="#000000"/>
    <path d="M42.317,56.741 L40.959,62.707 L43.684,62.707 z M40.559,54.104 L44.084,54.104 L48.02,68.684 L45.139,68.684 L44.24,65.08 L40.383,65.08 L39.504,68.684 L36.623,68.684 z" fill="#000000"/>
    <path d="M52.121,64.123 L52.121,55.686 L49.221,55.686 L49.221,53.489 L54.983,53.489 L54.983,64.123 Q54.983,65.413 55.383,65.95 Q55.783,66.487 56.74,66.487 L59.026,66.487 L59.026,68.684 L55.94,68.684 Q53.899,68.684 53.01,67.629 Q52.121,66.575 52.121,64.123 z" fill="#000000"/>
    <path d="M66.399,59.807 Q65.373,59.807 64.787,60.71 Q64.201,61.614 64.201,63.225 Q64.201,64.836 64.787,65.74 Q65.373,66.643 66.399,66.643 Q67.434,66.643 68.02,65.74 Q68.606,64.836 68.606,63.225 Q68.606,61.614 68.02,60.71 Q67.434,59.807 66.399,59.807 z M61.34,63.225 Q61.34,60.579 62.712,59.031 Q64.084,57.483 66.399,57.483 Q68.723,57.483 70.095,59.031 Q71.467,60.579 71.467,63.225 Q71.467,65.871 70.095,67.419 Q68.723,68.967 66.399,68.967 Q64.084,68.967 62.712,67.419 Q61.34,65.871 61.34,63.225 z" fill="#000000"/>
    <path d="M83.664,60.764 Q83.196,60.334 82.566,60.12 Q81.936,59.905 81.184,59.905 Q80.276,59.905 79.597,60.222 Q78.918,60.539 78.547,61.145 Q78.313,61.516 78.22,62.043 Q78.127,62.571 78.127,63.645 L78.127,68.684 L75.266,68.684 L75.266,57.747 L78.127,57.747 L78.127,59.446 Q78.547,58.508 79.416,57.996 Q80.285,57.483 81.447,57.483 Q82.033,57.483 82.595,57.624 Q83.156,57.766 83.664,58.039 z" fill="#000000"/>
    <path d="M94.143,58.088 L94.143,60.588 Q93.352,60.08 92.497,59.822 Q91.643,59.563 90.783,59.563 Q89.826,59.563 89.338,59.841 Q88.85,60.12 88.85,60.666 Q88.85,61.448 90.94,61.936 L91.047,61.965 L91.867,62.161 Q93.43,62.532 94.157,63.357 Q94.885,64.182 94.885,65.588 Q94.885,67.278 93.777,68.122 Q92.668,68.967 90.442,68.967 Q89.455,68.967 88.42,68.796 Q87.385,68.625 86.321,68.284 L86.321,65.784 Q87.268,66.321 88.249,66.604 Q89.231,66.887 90.149,66.887 Q91.155,66.887 91.672,66.594 Q92.19,66.301 92.19,65.745 Q92.19,65.198 91.823,64.905 Q91.457,64.612 90.08,64.28 L89.289,64.104 Q87.649,63.733 86.897,62.942 Q86.145,62.151 86.145,60.823 Q86.145,59.241 87.287,58.362 Q88.43,57.483 90.5,57.483 Q91.428,57.483 92.351,57.634 Q93.274,57.786 94.143,58.088 z" fill="#000000"/>
    <path d="M55.249,30.693 Q54.527,31.113 53.76,31.323 Q52.993,31.533 52.193,31.533 Q49.654,31.533 48.223,30.01 Q46.792,28.486 46.792,25.791 Q46.792,23.096 48.223,21.572 Q49.654,20.049 52.193,20.049 Q52.984,20.049 53.736,20.254 Q54.488,20.459 55.249,20.889 L55.249,22.773 Q54.536,22.139 53.819,21.855 Q53.101,21.572 52.193,21.572 Q50.503,21.572 49.595,22.666 Q48.687,23.76 48.687,25.791 Q48.687,27.812 49.6,28.911 Q50.513,30.01 52.193,30.01 Q53.13,30.01 53.872,29.722 Q54.615,29.434 55.249,28.828 z" fill="#F42300"/>
    <path d="M62.945,21.572 Q61.577,21.572 60.874,22.637 Q60.171,23.701 60.171,25.791 Q60.171,27.871 60.874,28.94 Q61.577,30.01 62.945,30.01 Q64.322,30.01 65.025,28.94 Q65.728,27.871 65.728,25.791 Q65.728,23.701 65.025,22.637 Q64.322,21.572 62.945,21.572 z M62.945,20.049 Q65.22,20.049 66.426,21.523 Q67.632,22.998 67.632,25.791 Q67.632,28.594 66.431,30.063 Q65.23,31.533 62.945,31.533 Q60.669,31.533 59.468,30.063 Q58.267,28.594 58.267,25.791 Q58.267,22.998 59.468,21.523 Q60.669,20.049 62.945,20.049 z" fill="#F42300"/>
    <path d="M79.234,24.473 L79.234,31.25 L77.427,31.25 L77.427,24.473 Q77.427,22.998 76.909,22.305 Q76.392,21.611 75.288,21.611 Q74.029,21.611 73.35,22.505 Q72.671,23.398 72.671,25.068 L72.671,31.25 L70.874,31.25 L70.874,20.312 L72.671,20.312 L72.671,21.953 Q73.15,21.016 73.97,20.532 Q74.79,20.049 75.913,20.049 Q77.583,20.049 78.409,21.147 Q79.234,22.246 79.234,24.473 z" fill="#F42300"/>
    <path d="M89.39,21.709 L89.39,16.055 L91.187,16.055 L91.187,31.25 L89.39,31.25 L89.39,29.873 Q88.941,30.684 88.194,31.108 Q87.447,31.533 86.47,31.533 Q84.488,31.533 83.35,29.995 Q82.212,28.457 82.212,25.752 Q82.212,23.086 83.355,21.567 Q84.497,20.049 86.47,20.049 Q87.456,20.049 88.208,20.474 Q88.96,20.898 89.39,21.709 z M84.107,25.791 Q84.107,27.881 84.771,28.945 Q85.435,30.01 86.734,30.01 Q88.033,30.01 88.711,28.936 Q89.39,27.861 89.39,25.791 Q89.39,23.711 88.711,22.642 Q88.033,21.572 86.734,21.572 Q85.435,21.572 84.771,22.637 Q84.107,23.701 84.107,25.791 z" fill="#F42300"/>
    <path d="M96.138,20.352 L100.738,20.352 L100.738,29.854 L104.302,29.854 L104.302,31.25 L95.376,31.25 L95.376,29.854 L98.941,29.854 L98.941,21.748 L96.138,21.748 z M98.941,16.104 L100.738,16.104 L100.738,18.369 L98.941,18.369 z" fill="#F42300"/>
    <path d="M111.089,17.207 L111.089,20.312 L115.171,20.312 L115.171,21.709 L111.089,21.709 L111.089,27.646 Q111.089,28.857 111.548,29.336 Q112.007,29.814 113.15,29.814 L115.171,29.814 L115.171,31.25 L112.974,31.25 Q110.952,31.25 110.122,30.439 Q109.292,29.629 109.292,27.646 L109.292,21.709 L106.372,21.709 L106.372,20.312 L109.292,20.312 L109.292,17.207 z" fill="#F42300"/>
    <path d="M120.22,20.352 L124.82,20.352 L124.82,29.854 L128.384,29.854 L128.384,31.25 L119.458,31.25 L119.458,29.854 L123.023,29.854 L123.023,21.748 L120.22,21.748 z M123.023,16.104 L124.82,16.104 L124.82,18.369 L123.023,18.369 z" fill="#F42300"/>
    <path d="M135.191,21.572 Q133.824,21.572 133.12,22.637 Q132.417,23.701 132.417,25.791 Q132.417,27.871 133.12,28.94 Q133.824,30.01 135.191,30.01 Q136.568,30.01 137.271,28.94 Q137.974,27.871 137.974,25.791 Q137.974,23.701 137.271,22.637 Q136.568,21.572 135.191,21.572 z M135.191,20.049 Q137.466,20.049 138.672,21.523 Q139.878,22.998 139.878,25.791 Q139.878,28.594 138.677,30.063 Q137.476,31.533 135.191,31.533 Q132.915,31.533 131.714,30.063 Q130.513,28.594 130.513,25.791 Q130.513,22.998 131.714,21.523 Q132.915,20.049 135.191,20.049 z" fill="#F42300"/>
    <path d="M151.48,24.473 L151.48,31.25 L149.673,31.25 L149.673,24.473 Q149.673,22.998 149.156,22.305 Q148.638,21.611 147.534,21.611 Q146.275,21.611 145.596,22.505 Q144.917,23.398 144.917,25.068 L144.917,31.25 L143.12,31.25 L143.12,20.312 L144.917,20.312 L144.917,21.953 Q145.396,21.016 146.216,20.532 Q147.036,20.049 148.159,20.049 Q149.829,20.049 150.655,21.147 Q151.48,22.246 151.48,24.473 z" fill="#F42300"/>
    <path d="M41.281,141.88 Q39.104,141.049 38.332,140.136 Q37.561,139.223 37.561,137.68 Q37.561,135.698 38.83,134.565 Q40.1,133.432 42.317,133.432 Q43.322,133.432 44.328,133.662 Q45.334,133.891 46.321,134.34 L46.321,137.153 Q45.393,136.499 44.436,136.157 Q43.479,135.815 42.541,135.815 Q41.496,135.815 40.94,136.235 Q40.383,136.655 40.383,137.436 Q40.383,138.042 40.788,138.437 Q41.194,138.833 42.483,139.311 L43.723,139.78 Q45.481,140.424 46.311,141.489 Q47.141,142.553 47.141,144.174 Q47.141,146.381 45.837,147.47 Q44.533,148.559 41.897,148.559 Q40.813,148.559 39.724,148.3 Q38.635,148.042 37.619,147.534 L37.619,144.555 Q38.772,145.376 39.851,145.776 Q40.93,146.176 41.985,146.176 Q43.049,146.176 43.635,145.693 Q44.221,145.21 44.221,144.34 Q44.221,143.686 43.83,143.193 Q43.44,142.7 42.697,142.417 z" fill="#000000"/>
    <path d="M50.5,137.339 L56.164,137.339 L56.164,146.079 L59.719,146.079 L59.719,148.276 L49.738,148.276 L49.738,146.079 L53.303,146.079 L53.303,139.536 L50.5,139.536 z M53.303,132.016 L56.164,132.016 L56.164,135.356 L53.303,135.356 z" fill="#000000"/>
    <path d="M70.842,141.176 L70.842,148.276 L68,148.276 L68,141.616 Q68,140.424 67.663,139.912 Q67.326,139.399 66.565,139.399 Q65.793,139.399 65.349,140.092 Q64.905,140.786 64.905,142.016 L64.905,148.276 L62.063,148.276 L62.063,137.339 L64.905,137.339 L64.905,138.979 Q65.207,138.071 65.94,137.573 Q66.672,137.075 67.707,137.075 Q69.26,137.075 70.051,138.105 Q70.842,139.135 70.842,141.176 z" fill="#000000"/>
    <path d="M78.44,139.399 Q77.414,139.399 76.828,140.302 Q76.242,141.206 76.242,142.817 Q76.242,144.428 76.828,145.332 Q77.414,146.235 78.44,146.235 Q79.475,146.235 80.061,145.332 Q80.647,144.428 80.647,142.817 Q80.647,141.206 80.061,140.302 Q79.475,139.399 78.44,139.399 z M73.381,142.817 Q73.381,140.171 74.753,138.623 Q76.125,137.075 78.44,137.075 Q80.764,137.075 82.136,138.623 Q83.508,140.171 83.508,142.817 Q83.508,145.464 82.136,147.011 Q80.764,148.559 78.44,148.559 Q76.125,148.559 74.753,147.011 Q73.381,145.464 73.381,142.817 z" fill="#000000"/>
    <path d="M94.924,141.176 L94.924,148.276 L92.082,148.276 L92.082,141.616 Q92.082,140.424 91.745,139.912 Q91.408,139.399 90.647,139.399 Q89.875,139.399 89.431,140.092 Q88.987,140.786 88.987,142.016 L88.987,148.276 L86.145,148.276 L86.145,137.339 L88.987,137.339 L88.987,138.979 Q89.289,138.071 90.022,137.573 Q90.754,137.075 91.789,137.075 Q93.342,137.075 94.133,138.105 Q94.924,139.135 94.924,141.176 z" fill="#000000"/>
    <path d="M111.872,62.002 L111.277,62.002 Q109.704,62.002 108.909,62.554 Q108.113,63.105 108.113,64.199 Q108.113,65.186 108.708,65.732 Q109.304,66.279 110.359,66.279 Q111.843,66.279 112.693,65.249 Q113.542,64.219 113.552,62.402 L113.552,62.002 z M115.359,61.26 L115.359,67.5 L113.552,67.5 L113.552,65.879 Q112.976,66.855 112.102,67.319 Q111.228,67.783 109.978,67.783 Q108.308,67.783 107.312,66.841 Q106.316,65.898 106.316,64.316 Q106.316,62.49 107.541,61.543 Q108.767,60.596 111.14,60.596 L113.552,60.596 L113.552,60.312 Q113.542,59.004 112.888,58.413 Q112.234,57.822 110.798,57.822 Q109.88,57.822 108.943,58.086 Q108.005,58.35 107.117,58.857 L107.117,57.061 Q108.113,56.68 109.026,56.489 Q109.939,56.299 110.798,56.299 Q112.156,56.299 113.118,56.699 Q114.079,57.1 114.675,57.9 Q115.046,58.389 115.203,59.106 Q115.359,59.824 115.359,61.26 z" fill="#0142F2"/>
    <path d="M127.419,66.943 Q126.697,67.363 125.93,67.573 Q125.163,67.783 124.363,67.783 Q121.824,67.783 120.393,66.26 Q118.962,64.736 118.962,62.041 Q118.962,59.346 120.393,57.822 Q121.824,56.299 124.363,56.299 Q125.154,56.299 125.906,56.504 Q126.658,56.709 127.419,57.139 L127.419,59.023 Q126.706,58.389 125.989,58.105 Q125.271,57.822 124.363,57.822 Q122.673,57.822 121.765,58.916 Q120.857,60.01 120.857,62.041 Q120.857,64.062 121.77,65.161 Q122.683,66.26 124.363,66.26 Q125.3,66.26 126.042,65.972 Q126.785,65.684 127.419,65.078 z" fill="#0142F2"/>
    <path d="M135.095,53.457 L135.095,56.562 L139.177,56.562 L139.177,57.959 L135.095,57.959 L135.095,63.896 Q135.095,65.107 135.554,65.586 Q136.013,66.064 137.156,66.064 L139.177,66.064 L139.177,67.5 L136.98,67.5 Q134.958,67.5 134.128,66.689 Q133.298,65.879 133.298,63.896 L133.298,57.959 L130.378,57.959 L130.378,56.562 L133.298,56.562 L133.298,53.457 z" fill="#0142F2"/>
    <path d="M144.226,56.602 L148.826,56.602 L148.826,66.104 L152.39,66.104 L152.39,67.5 L143.464,67.5 L143.464,66.104 L147.029,66.104 L147.029,57.998 L144.226,57.998 z M147.029,52.354 L148.826,52.354 L148.826,54.619 L147.029,54.619 z" fill="#0142F2"/>
    <path d="M159.197,57.822 Q157.829,57.822 157.126,58.887 Q156.423,59.951 156.423,62.041 Q156.423,64.121 157.126,65.19 Q157.829,66.26 159.197,66.26 Q160.574,66.26 161.277,65.19 Q161.98,64.121 161.98,62.041 Q161.98,59.951 161.277,58.887 Q160.574,57.822 159.197,57.822 z M159.197,56.299 Q161.472,56.299 162.678,57.773 Q163.884,59.248 163.884,62.041 Q163.884,64.844 162.683,66.313 Q161.482,67.783 159.197,67.783 Q156.921,67.783 155.72,66.313 Q154.519,64.844 154.519,62.041 Q154.519,59.248 155.72,57.773 Q156.921,56.299 159.197,56.299 z" fill="#0142F2"/>
    <path d="M175.486,60.723 L175.486,67.5 L173.679,67.5 L173.679,60.723 Q173.679,59.248 173.162,58.555 Q172.644,57.861 171.54,57.861 Q170.281,57.861 169.602,58.755 Q168.923,59.648 168.923,61.318 L168.923,67.5 L167.126,67.5 L167.126,56.562 L168.923,56.562 L168.923,58.203 Q169.402,57.266 170.222,56.782 Q171.042,56.299 172.165,56.299 Q173.835,56.299 174.661,57.397 Q175.486,58.496 175.486,60.723 z" fill="#0142F2"/>
    <path d="M191.941,65.85 L195.007,65.85 L195.007,54.834 L191.335,56.602 L191.335,54.707 L194.988,52.969 L196.96,52.969 L196.96,65.85 L199.988,65.85 L199.988,67.5 L191.941,67.5 z" fill="#0142F2"/>
    <path d="M111.872,84.502 L111.277,84.502 Q109.704,84.502 108.909,85.054 Q108.113,85.605 108.113,86.699 Q108.113,87.686 108.708,88.232 Q109.304,88.779 110.359,88.779 Q111.843,88.779 112.693,87.749 Q113.542,86.719 113.552,84.902 L113.552,84.502 z M115.359,83.76 L115.359,90 L113.552,90 L113.552,88.379 Q112.976,89.355 112.102,89.819 Q111.228,90.283 109.978,90.283 Q108.308,90.283 107.312,89.341 Q106.316,88.398 106.316,86.816 Q106.316,84.99 107.541,84.043 Q108.767,83.096 111.14,83.096 L113.552,83.096 L113.552,82.812 Q113.542,81.504 112.888,80.913 Q112.234,80.322 110.798,80.322 Q109.88,80.322 108.943,80.586 Q108.005,80.85 107.117,81.357 L107.117,79.561 Q108.113,79.18 109.026,78.989 Q109.939,78.799 110.798,78.799 Q112.156,78.799 113.118,79.199 Q114.079,79.6 114.675,80.4 Q115.046,80.889 115.203,81.606 Q115.359,82.324 115.359,83.76 z" fill="#0142F2"/>
    <path d="M127.419,89.443 Q126.697,89.863 125.93,90.073 Q125.163,90.283 124.363,90.283 Q121.824,90.283 120.393,88.76 Q118.962,87.236 118.962,84.541 Q118.962,81.846 120.393,80.322 Q121.824,78.799 124.363,78.799 Q125.154,78.799 125.906,79.004 Q126.658,79.209 127.419,79.639 L127.419,81.523 Q126.706,80.889 125.989,80.605 Q125.271,80.322 124.363,80.322 Q122.673,80.322 121.765,81.416 Q120.857,82.51 120.857,84.541 Q120.857,86.562 121.77,87.661 Q122.683,88.76 124.363,88.76 Q125.3,88.76 126.042,88.472 Q126.785,88.184 127.419,87.578 z" fill="#0142F2"/>
    <path d="M135.095,75.957 L135.095,79.062 L139.177,79.062 L139.177,80.459 L135.095,80.459 L135.095,86.396 Q135.095,87.607 135.554,88.086 Q136.013,88.564 137.156,88.564 L139.177,88.564 L139.177,90 L136.98,90 Q134.958,90 134.128,89.189 Q133.298,88.379 133.298,86.396 L133.298,80.459 L130.378,80.459 L130.378,79.062 L133.298,79.062 L133.298,75.957 z" fill="#0142F2"/>
    <path d="M144.226,79.102 L148.826,79.102 L148.826,88.604 L152.39,88.604 L152.39,90 L143.464,90 L143.464,88.604 L147.029,88.604 L147.029,80.498 L144.226,80.498 z M147.029,74.854 L148.826,74.854 L148.826,77.119 L147.029,77.119 z" fill="#0142F2"/>
    <path d="M159.197,80.322 Q157.829,80.322 157.126,81.387 Q156.423,82.451 156.423,84.541 Q156.423,86.621 157.126,87.69 Q157.829,88.76 159.197,88.76 Q160.574,88.76 161.277,87.69 Q161.98,86.621 161.98,84.541 Q161.98,82.451 161.277,81.387 Q160.574,80.322 159.197,80.322 z M159.197,78.799 Q161.472,78.799 162.678,80.273 Q163.884,81.748 163.884,84.541 Q163.884,87.344 162.683,88.813 Q161.482,90.283 159.197,90.283 Q156.921,90.283 155.72,88.813 Q154.519,87.344 154.519,84.541 Q154.519,81.748 155.72,80.273 Q156.921,78.799 159.197,78.799 z" fill="#0142F2"/>
    <path d="M175.486,83.223 L175.486,90 L173.679,90 L173.679,83.223 Q173.679,81.748 173.162,81.055 Q172.644,80.361 171.54,80.361 Q170.281,80.361 169.602,81.255 Q168.923,82.148 168.923,83.818 L168.923,90 L167.126,90 L167.126,79.062 L168.923,79.062 L168.923,80.703 Q169.402,79.766 170.222,79.282 Q171.042,78.799 172.165,78.799 Q173.835,78.799 174.661,79.897 Q175.486,80.996 175.486,83.223 z" fill="#0142F2"/>
    <path d="M192.947,88.34 L199.646,88.34 L199.646,90 L190.788,90 L190.788,88.34 Q192.615,86.416 193.982,84.941 Q195.349,83.467 195.867,82.861 Q196.843,81.67 197.185,80.933 Q197.527,80.195 197.527,79.424 Q197.527,78.203 196.809,77.51 Q196.091,76.816 194.841,76.816 Q193.953,76.816 192.976,77.139 Q191.999,77.461 190.906,78.115 L190.906,76.123 Q191.912,75.645 192.883,75.4 Q193.855,75.156 194.802,75.156 Q196.941,75.156 198.245,76.294 Q199.548,77.432 199.548,79.277 Q199.548,80.215 199.114,81.152 Q198.679,82.09 197.703,83.223 Q197.156,83.857 196.116,84.98 Q195.076,86.104 192.947,88.34 z" fill="#0142F2"/>
    <path d="M278.294,20.469 L283.958,20.469 L283.958,29.21 L287.513,29.21 L287.513,31.407 L277.532,31.407 L277.532,29.21 L281.097,29.21 L281.097,22.667 L278.294,22.667 z M281.097,15.147 L283.958,15.147 L283.958,18.487 L281.097,18.487 z" fill="#000000"/>
    <path d="M295.394,19.512 L295.394,20.469 L298.753,20.469 L298.753,22.667 L295.394,22.667 L295.394,31.407 L292.532,31.407 L292.532,22.667 L289.876,22.667 L289.876,20.469 L292.532,20.469 L292.532,19.708 Q292.532,17.735 293.353,16.973 Q294.173,16.212 296.4,16.212 L298.753,16.212 L298.753,18.409 L296.517,18.409 Q295.872,18.409 295.643,18.643 Q295.413,18.878 295.394,19.512 z" fill="#000000"/>
    <path d="M318.202,15.255 Q316.903,17.481 316.263,19.693 Q315.623,21.905 315.623,24.151 Q315.623,26.387 316.263,28.604 Q316.903,30.821 318.202,33.067 L316.639,33.067 Q315.164,30.743 314.442,28.541 Q313.719,26.339 313.719,24.151 Q313.719,21.973 314.442,19.766 Q315.164,17.559 316.639,15.255 z" fill="#F42300"/>
    <path d="M332.254,30.85 Q331.532,31.27 330.765,31.48 Q329.998,31.69 329.198,31.69 Q326.659,31.69 325.228,30.167 Q323.797,28.643 323.797,25.948 Q323.797,23.253 325.228,21.729 Q326.659,20.206 329.198,20.206 Q329.989,20.206 330.741,20.411 Q331.493,20.616 332.254,21.046 L332.254,22.93 Q331.541,22.296 330.824,22.012 Q330.106,21.729 329.198,21.729 Q327.508,21.729 326.6,22.823 Q325.692,23.917 325.692,25.948 Q325.692,27.969 326.605,29.068 Q327.518,30.167 329.198,30.167 Q330.135,30.167 330.877,29.879 Q331.62,29.591 332.254,28.985 z" fill="#F42300"/>
    <path d="M339.95,21.729 Q338.582,21.729 337.879,22.794 Q337.176,23.858 337.176,25.948 Q337.176,28.028 337.879,29.097 Q338.582,30.167 339.95,30.167 Q341.327,30.167 342.03,29.097 Q342.733,28.028 342.733,25.948 Q342.733,23.858 342.03,22.794 Q341.327,21.729 339.95,21.729 z M339.95,20.206 Q342.225,20.206 343.431,21.68 Q344.637,23.155 344.637,25.948 Q344.637,28.751 343.436,30.22 Q342.235,31.69 339.95,31.69 Q337.674,31.69 336.473,30.22 Q335.272,28.751 335.272,25.948 Q335.272,23.155 336.473,21.68 Q337.674,20.206 339.95,20.206 z" fill="#F42300"/>
    <path d="M356.239,24.63 L356.239,31.407 L354.432,31.407 L354.432,24.63 Q354.432,23.155 353.914,22.462 Q353.397,21.768 352.293,21.768 Q351.034,21.768 350.355,22.662 Q349.676,23.555 349.676,25.225 L349.676,31.407 L347.879,31.407 L347.879,20.469 L349.676,20.469 L349.676,22.11 Q350.155,21.173 350.975,20.689 Q351.795,20.206 352.918,20.206 Q354.588,20.206 355.413,21.304 Q356.239,22.403 356.239,24.63 z" fill="#F42300"/>
    <path d="M366.395,21.866 L366.395,16.212 L368.192,16.212 L368.192,31.407 L366.395,31.407 L366.395,30.03 Q365.946,30.841 365.199,31.265 Q364.452,31.69 363.475,31.69 Q361.493,31.69 360.355,30.152 Q359.217,28.614 359.217,25.909 Q359.217,23.243 360.36,21.724 Q361.502,20.206 363.475,20.206 Q364.461,20.206 365.213,20.631 Q365.965,21.055 366.395,21.866 z M361.112,25.948 Q361.112,28.038 361.776,29.102 Q362.44,30.167 363.739,30.167 Q365.038,30.167 365.716,29.093 Q366.395,28.018 366.395,25.948 Q366.395,23.868 365.716,22.799 Q365.038,21.729 363.739,21.729 Q362.44,21.729 361.776,22.794 Q361.112,23.858 361.112,25.948 z" fill="#F42300"/>
    <path d="M373.143,20.509 L377.743,20.509 L377.743,30.011 L381.307,30.011 L381.307,31.407 L372.381,31.407 L372.381,30.011 L375.946,30.011 L375.946,21.905 L373.143,21.905 z M375.946,16.261 L377.743,16.261 L377.743,18.526 L375.946,18.526 z" fill="#F42300"/>
    <path d="M388.094,17.364 L388.094,20.469 L392.176,20.469 L392.176,21.866 L388.094,21.866 L388.094,27.803 Q388.094,29.014 388.553,29.493 Q389.012,29.971 390.155,29.971 L392.176,29.971 L392.176,31.407 L389.979,31.407 Q387.957,31.407 387.127,30.596 Q386.297,29.786 386.297,27.803 L386.297,21.866 L383.377,21.866 L383.377,20.469 L386.297,20.469 L386.297,17.364 z" fill="#F42300"/>
    <path d="M397.225,20.509 L401.825,20.509 L401.825,30.011 L405.389,30.011 L405.389,31.407 L396.463,31.407 L396.463,30.011 L400.028,30.011 L400.028,21.905 L397.225,21.905 z M400.028,16.261 L401.825,16.261 L401.825,18.526 L400.028,18.526 z" fill="#F42300"/>
    <path d="M412.196,21.729 Q410.829,21.729 410.125,22.794 Q409.422,23.858 409.422,25.948 Q409.422,28.028 410.125,29.097 Q410.829,30.167 412.196,30.167 Q413.573,30.167 414.276,29.097 Q414.979,28.028 414.979,25.948 Q414.979,23.858 414.276,22.794 Q413.573,21.729 412.196,21.729 z M412.196,20.206 Q414.471,20.206 415.677,21.68 Q416.883,23.155 416.883,25.948 Q416.883,28.751 415.682,30.22 Q414.481,31.69 412.196,31.69 Q409.92,31.69 408.719,30.22 Q407.518,28.751 407.518,25.948 Q407.518,23.155 408.719,21.68 Q409.92,20.206 412.196,20.206 z" fill="#F42300"/>
    <path d="M428.485,24.63 L428.485,31.407 L426.678,31.407 L426.678,24.63 Q426.678,23.155 426.161,22.462 Q425.643,21.768 424.539,21.768 Q423.28,21.768 422.601,22.662 Q421.922,23.555 421.922,25.225 L421.922,31.407 L420.125,31.407 L420.125,20.469 L421.922,20.469 L421.922,22.11 Q422.401,21.173 423.221,20.689 Q424.041,20.206 425.164,20.206 Q426.834,20.206 427.66,21.304 Q428.485,22.403 428.485,24.63 z" fill="#F42300"/>
    <path d="M433.661,15.255 L435.223,15.255 Q436.698,17.559 437.42,19.766 Q438.143,21.973 438.143,24.151 Q438.143,26.348 437.42,28.555 Q436.698,30.762 435.223,33.067 L433.661,33.067 Q434.959,30.802 435.599,28.585 Q436.239,26.368 436.239,24.151 Q436.239,21.925 435.599,19.708 Q434.959,17.491 433.661,15.255 z" fill="#F42300"/>
    <path d="M277.894,122.238 L279.075,122.238 Q280.091,122.238 280.443,121.819 Q280.794,121.399 280.794,120.002 L280.794,118 Q280.794,116.399 281.273,115.735 Q281.751,115.071 282.972,114.865 Q281.741,114.68 281.268,114.026 Q280.794,113.371 280.794,111.76 L280.794,109.719 Q280.794,108.342 280.448,107.922 Q280.101,107.502 279.075,107.502 L277.894,107.502 L277.894,105.647 L279.359,105.647 Q281.781,105.647 282.596,106.364 Q283.411,107.082 283.411,109.24 L283.411,111.34 Q283.411,112.815 283.944,113.376 Q284.476,113.938 285.853,113.938 L286.458,113.938 L286.458,115.803 L285.853,115.803 Q284.476,115.803 283.944,116.369 Q283.411,116.936 283.411,118.401 L283.411,120.5 Q283.411,122.658 282.596,123.381 Q281.781,124.104 279.359,124.104 L277.894,124.104 z" fill="#000000"/>
    <path d="M299.707,70.344 L299.112,70.344 Q297.539,70.344 296.744,70.896 Q295.948,71.447 295.948,72.541 Q295.948,73.528 296.543,74.074 Q297.139,74.621 298.194,74.621 Q299.678,74.621 300.528,73.591 Q301.377,72.561 301.387,70.744 L301.387,70.344 z M303.194,69.602 L303.194,75.842 L301.387,75.842 L301.387,74.221 Q300.811,75.197 299.937,75.661 Q299.063,76.125 297.813,76.125 Q296.143,76.125 295.147,75.183 Q294.151,74.24 294.151,72.658 Q294.151,70.832 295.376,69.885 Q296.602,68.938 298.975,68.938 L301.387,68.938 L301.387,68.654 Q301.377,67.346 300.723,66.755 Q300.069,66.164 298.633,66.164 Q297.715,66.164 296.778,66.428 Q295.84,66.692 294.952,67.199 L294.952,65.403 Q295.948,65.022 296.861,64.831 Q297.774,64.641 298.633,64.641 Q299.991,64.641 300.953,65.041 Q301.914,65.442 302.51,66.242 Q302.881,66.731 303.038,67.448 Q303.194,68.166 303.194,69.602 z" fill="#0142F2"/>
    <path d="M315.254,75.285 Q314.532,75.705 313.765,75.915 Q312.998,76.125 312.198,76.125 Q309.659,76.125 308.228,74.602 Q306.797,73.078 306.797,70.383 Q306.797,67.688 308.228,66.164 Q309.659,64.641 312.198,64.641 Q312.989,64.641 313.741,64.846 Q314.493,65.051 315.254,65.481 L315.254,67.365 Q314.541,66.731 313.824,66.447 Q313.106,66.164 312.198,66.164 Q310.508,66.164 309.6,67.258 Q308.692,68.352 308.692,70.383 Q308.692,72.404 309.605,73.503 Q310.518,74.602 312.198,74.602 Q313.135,74.602 313.877,74.314 Q314.62,74.026 315.254,73.42 z" fill="#0142F2"/>
    <path d="M322.93,61.799 L322.93,64.904 L327.012,64.904 L327.012,66.301 L322.93,66.301 L322.93,72.238 Q322.93,73.449 323.389,73.928 Q323.848,74.406 324.991,74.406 L327.012,74.406 L327.012,75.842 L324.815,75.842 Q322.793,75.842 321.963,75.031 Q321.133,74.221 321.133,72.238 L321.133,66.301 L318.213,66.301 L318.213,64.904 L321.133,64.904 L321.133,61.799 z" fill="#0142F2"/>
    <path d="M332.061,64.944 L336.661,64.944 L336.661,74.446 L340.225,74.446 L340.225,75.842 L331.299,75.842 L331.299,74.446 L334.864,74.446 L334.864,66.34 L332.061,66.34 z M334.864,60.696 L336.661,60.696 L336.661,62.961 L334.864,62.961 z" fill="#0142F2"/>
    <path d="M347.032,66.164 Q345.664,66.164 344.961,67.229 Q344.258,68.293 344.258,70.383 Q344.258,72.463 344.961,73.532 Q345.664,74.602 347.032,74.602 Q348.409,74.602 349.112,73.532 Q349.815,72.463 349.815,70.383 Q349.815,68.293 349.112,67.229 Q348.409,66.164 347.032,66.164 z M347.032,64.641 Q349.307,64.641 350.513,66.115 Q351.719,67.59 351.719,70.383 Q351.719,73.186 350.518,74.655 Q349.317,76.125 347.032,76.125 Q344.756,76.125 343.555,74.655 Q342.354,73.186 342.354,70.383 Q342.354,67.59 343.555,66.115 Q344.756,64.641 347.032,64.641 z" fill="#0142F2"/>
    <path d="M363.321,69.065 L363.321,75.842 L361.514,75.842 L361.514,69.065 Q361.514,67.59 360.996,66.897 Q360.479,66.203 359.375,66.203 Q358.116,66.203 357.437,67.097 Q356.758,67.99 356.758,69.66 L356.758,75.842 L354.961,75.842 L354.961,64.904 L356.758,64.904 L356.758,66.545 Q357.237,65.608 358.057,65.124 Q358.877,64.641 360,64.641 Q361.67,64.641 362.496,65.739 Q363.321,66.838 363.321,69.065 z" fill="#0142F2"/>
    <path d="M379.776,74.192 L382.842,74.192 L382.842,63.176 L379.17,64.944 L379.17,63.049 L382.823,61.311 L384.795,61.311 L384.795,74.192 L387.823,74.192 L387.823,75.842 L379.776,75.842 z" fill="#0142F2"/>
    <path d="M393.496,72.317 L396.543,72.317 L396.543,74.904 L394.62,78.635 L392.53,78.635 L393.496,74.904 z M393.37,64.914 L396.416,64.914 L396.416,68.44 L393.37,68.44 z" fill="#0142F2"/>
    <path d="M299.707,93.159 L299.112,93.159 Q297.539,93.159 296.744,93.711 Q295.948,94.262 295.948,95.356 Q295.948,96.343 296.543,96.889 Q297.139,97.436 298.194,97.436 Q299.678,97.436 300.528,96.406 Q301.377,95.376 301.387,93.559 L301.387,93.159 z M303.194,92.417 L303.194,98.657 L301.387,98.657 L301.387,97.036 Q300.811,98.012 299.937,98.476 Q299.063,98.94 297.813,98.94 Q296.143,98.94 295.147,97.998 Q294.151,97.055 294.151,95.473 Q294.151,93.647 295.376,92.7 Q296.602,91.753 298.975,91.753 L301.387,91.753 L301.387,91.47 Q301.377,90.161 300.723,89.57 Q300.069,88.979 298.633,88.979 Q297.715,88.979 296.778,89.243 Q295.84,89.507 294.952,90.014 L294.952,88.218 Q295.948,87.837 296.861,87.646 Q297.774,87.456 298.633,87.456 Q299.991,87.456 300.953,87.856 Q301.914,88.257 302.51,89.057 Q302.881,89.546 303.038,90.263 Q303.194,90.981 303.194,92.417 z" fill="#0142F2"/>
    <path d="M315.254,98.1 Q314.532,98.52 313.765,98.73 Q312.998,98.94 312.198,98.94 Q309.659,98.94 308.228,97.417 Q306.797,95.893 306.797,93.198 Q306.797,90.503 308.228,88.979 Q309.659,87.456 312.198,87.456 Q312.989,87.456 313.741,87.661 Q314.493,87.866 315.254,88.296 L315.254,90.18 Q314.541,89.546 313.824,89.262 Q313.106,88.979 312.198,88.979 Q310.508,88.979 309.6,90.073 Q308.692,91.167 308.692,93.198 Q308.692,95.22 309.605,96.318 Q310.518,97.417 312.198,97.417 Q313.135,97.417 313.877,97.129 Q314.62,96.841 315.254,96.235 z" fill="#0142F2"/>
    <path d="M322.93,84.614 L322.93,87.72 L327.012,87.72 L327.012,89.116 L322.93,89.116 L322.93,95.053 Q322.93,96.264 323.389,96.743 Q323.848,97.221 324.991,97.221 L327.012,97.221 L327.012,98.657 L324.815,98.657 Q322.793,98.657 321.963,97.846 Q321.133,97.036 321.133,95.053 L321.133,89.116 L318.213,89.116 L318.213,87.72 L321.133,87.72 L321.133,84.614 z" fill="#0142F2"/>
    <path d="M332.061,87.759 L336.661,87.759 L336.661,97.261 L340.225,97.261 L340.225,98.657 L331.299,98.657 L331.299,97.261 L334.864,97.261 L334.864,89.155 L332.061,89.155 z M334.864,83.511 L336.661,83.511 L336.661,85.776 L334.864,85.776 z" fill="#0142F2"/>
    <path d="M347.032,88.979 Q345.664,88.979 344.961,90.044 Q344.258,91.108 344.258,93.198 Q344.258,95.278 344.961,96.347 Q345.664,97.417 347.032,97.417 Q348.409,97.417 349.112,96.347 Q349.815,95.278 349.815,93.198 Q349.815,91.108 349.112,90.044 Q348.409,88.979 347.032,88.979 z M347.032,87.456 Q349.307,87.456 350.513,88.93 Q351.719,90.405 351.719,93.198 Q351.719,96.001 350.518,97.47 Q349.317,98.94 347.032,98.94 Q344.756,98.94 343.555,97.47 Q342.354,96.001 342.354,93.198 Q342.354,90.405 343.555,88.93 Q344.756,87.456 347.032,87.456 z" fill="#0142F2"/>
    <path d="M363.321,91.88 L363.321,98.657 L361.514,98.657 L361.514,91.88 Q361.514,90.405 360.996,89.712 Q360.479,89.018 359.375,89.018 Q358.116,89.018 357.437,89.912 Q356.758,90.805 356.758,92.475 L356.758,98.657 L354.961,98.657 L354.961,87.72 L356.758,87.72 L356.758,89.36 Q357.237,88.423 358.057,87.939 Q358.877,87.456 360,87.456 Q361.67,87.456 362.496,88.554 Q363.321,89.653 363.321,91.88 z" fill="#0142F2"/>
    <path d="M380.782,96.997 L387.481,96.997 L387.481,98.657 L378.623,98.657 L378.623,96.997 Q380.45,95.073 381.817,93.598 Q383.184,92.124 383.702,91.518 Q384.678,90.327 385.02,89.59 Q385.362,88.852 385.362,88.081 Q385.362,86.86 384.644,86.167 Q383.926,85.473 382.676,85.473 Q381.788,85.473 380.811,85.796 Q379.834,86.118 378.741,86.772 L378.741,84.78 Q379.746,84.302 380.718,84.057 Q381.69,83.813 382.637,83.813 Q384.776,83.813 386.079,84.951 Q387.383,86.089 387.383,87.934 Q387.383,88.872 386.949,89.809 Q386.514,90.747 385.538,91.88 Q384.991,92.514 383.951,93.637 Q382.911,94.761 380.782,96.997 z" fill="#0142F2"/>
    <path d="M393.496,95.132 L396.543,95.132 L396.543,97.72 L394.62,101.45 L392.53,101.45 L393.496,97.72 z M393.37,87.729 L396.416,87.729 L396.416,91.255 L393.37,91.255 z" fill="#0142F2"/>
    <path d="M286.419,56.803 L286.419,58.669 L284.954,58.669 Q282.523,58.669 281.698,57.946 Q280.872,57.223 280.872,55.065 L280.872,52.966 Q280.872,51.491 280.35,50.929 Q279.827,50.368 278.46,50.368 L277.855,50.368 L277.855,48.503 L278.46,48.503 Q279.827,48.503 280.35,47.946 Q280.872,47.389 280.872,45.905 L280.872,43.805 Q280.872,41.647 281.698,40.929 Q282.523,40.212 284.954,40.212 L286.419,40.212 L286.419,42.067 L285.218,42.067 Q284.202,42.067 283.861,42.477 Q283.519,42.887 283.519,44.284 L283.519,46.325 Q283.519,47.936 283.04,48.591 Q282.562,49.245 281.331,49.43 Q282.562,49.636 283.04,50.3 Q283.519,50.964 283.519,52.565 L283.519,54.567 Q283.519,55.973 283.861,56.388 Q284.202,56.803 285.218,56.803 z" fill="#000000"/>
    <path d="M342.174,294.069 Q340.179,299.046 338.184,299.067 Q335.769,299.088 334.656,296.568 Q333.795,294.636 333.774,291.507 Q333.753,287.979 334.698,285.081 Q335.79,281.7 337.659,281.49 Q337.932,281.469 338.184,281.469 Q339.927,281.469 340.872,283.023 Q341.565,284.199 342.048,286.761 Q342.405,287.79 342.405,288.021 Q342.405,288.714 341.544,289.092 Q341.355,289.176 341.103,289.176 Q340.494,289.176 339.759,288.777 Q338.898,288.315 338.898,287.769 Q338.898,287.685 339.192,286.95 Q339.15,286.026 338.856,285.197 Q338.562,284.367 338.184,284.283 Q337.596,284.136 337.155,286.614 Q336.777,288.672 336.693,291.15 Q336.63,293.019 336.903,294.615 Q337.218,296.442 337.848,296.568 Q338.226,296.631 338.751,295.623 Q339.255,294.699 339.591,293.439 Q339.549,293.229 339.549,293.04 Q339.549,291.801 341.061,291.801 Q341.397,291.801 341.733,291.864 Q342.762,292.074 342.762,292.893 Q342.762,293.565 342.174,294.069 z" fill="#000000"/>
    <path d="M352.947,283.002 Q352.947,283.254 352.527,283.632 Q352.023,284.052 351.897,284.304 L345.429,296.568 Q345.303,296.778 344.946,297.954 Q344.694,298.71 344.379,298.773 Q343.875,298.878 343.098,298.437 Q342.237,297.933 342.237,297.24 Q342.258,296.904 342.531,296.568 Q342.93,296.085 342.993,295.98 L349.923,283.002 Q350.007,282.855 350.154,282.162 Q350.28,281.658 350.595,281.49 Q350.805,281.385 351.078,281.385 Q351.729,281.385 352.338,281.847 Q352.968,282.372 352.947,283.002 z" fill="#000000"/>
    <path d="M361.179,294.069 Q359.184,299.046 357.189,299.067 Q354.774,299.088 353.661,296.568 Q352.8,294.636 352.779,291.507 Q352.758,287.979 353.703,285.081 Q354.795,281.7 356.664,281.49 Q356.937,281.469 357.189,281.469 Q358.932,281.469 359.877,283.023 Q360.57,284.199 361.053,286.761 Q361.41,287.79 361.41,288.021 Q361.41,288.714 360.549,289.092 Q360.36,289.176 360.108,289.176 Q359.499,289.176 358.764,288.777 Q357.903,288.315 357.903,287.769 Q357.903,287.685 358.197,286.95 Q358.155,286.026 357.861,285.197 Q357.567,284.367 357.189,284.283 Q356.601,284.136 356.16,286.614 Q355.782,288.672 355.698,291.15 Q355.635,293.019 355.908,294.615 Q356.223,296.442 356.853,296.568 Q357.231,296.631 357.756,295.623 Q358.26,294.699 358.596,293.439 Q358.554,293.229 358.554,293.04 Q358.554,291.801 360.066,291.801 Q360.402,291.801 360.738,291.864 Q361.767,292.074 361.767,292.893 Q361.767,293.565 361.179,294.069 z" fill="#000000"/>
    <path d="M370.188,290.037 Q369.852,290.016 369.117,290.058 L367.605,290.31 L367.773,291.654 Q367.794,291.843 367.909,292.189 Q368.025,292.536 368.025,292.704 Q368.025,293.166 367.5,293.418 Q367.08,293.628 366.555,293.628 Q365.841,293.628 365.557,293.302 Q365.274,292.977 365.169,292.232 Q365.064,291.486 364.959,290.688 L364.077,291.066 Q363.699,291.234 363.321,291.192 Q362.859,291.15 362.544,290.667 Q362.229,290.184 362.229,289.617 Q362.229,289.26 362.418,288.892 Q362.607,288.525 362.943,288.525 Q363.027,288.525 363.279,288.609 Q363.531,288.693 363.699,288.672 L364.749,288.504 L364.539,286.782 Q364.518,286.656 364.434,286.425 Q364.35,286.194 364.35,286.068 Q364.35,285.69 365.127,285.459 Q365.694,285.291 366.198,285.291 Q367.437,285.291 367.437,285.858 Q367.437,285.963 367.321,286.225 Q367.206,286.488 367.227,286.656 L367.353,288.168 L368.277,288 Q368.466,287.958 368.886,287.832 Q369.243,287.706 369.453,287.706 Q369.957,287.706 370.366,288.189 Q370.776,288.672 370.776,289.197 Q370.776,289.869 370.188,290.037 z" fill="#000000"/>
    <path d="M379.428,290.037 Q379.092,290.016 378.357,290.058 L376.845,290.31 L377.013,291.654 Q377.034,291.843 377.149,292.189 Q377.265,292.536 377.265,292.704 Q377.265,293.166 376.74,293.418 Q376.32,293.628 375.795,293.628 Q375.081,293.628 374.797,293.302 Q374.514,292.977 374.409,292.232 Q374.304,291.486 374.199,290.688 L373.317,291.066 Q372.939,291.234 372.561,291.192 Q372.099,291.15 371.784,290.667 Q371.469,290.184 371.469,289.617 Q371.469,289.26 371.658,288.892 Q371.847,288.525 372.183,288.525 Q372.267,288.525 372.519,288.609 Q372.771,288.693 372.939,288.672 L373.989,288.504 L373.779,286.782 Q373.758,286.656 373.674,286.425 Q373.59,286.194 373.59,286.068 Q373.59,285.69 374.367,285.459 Q374.934,285.291 375.438,285.291 Q376.677,285.291 376.677,285.858 Q376.677,285.963 376.561,286.225 Q376.446,286.488 376.467,286.656 L376.593,288.168 L377.517,288 Q377.706,287.958 378.126,287.832 Q378.483,287.706 378.693,287.706 Q379.197,287.706 379.606,288.189 Q380.016,288.672 380.016,289.197 Q380.016,289.869 379.428,290.037 z" fill="#000000"/>
    <path d="M111.872,143.186 L111.277,143.186 Q109.704,143.186 108.909,143.738 Q108.113,144.289 108.113,145.383 Q108.113,146.37 108.708,146.916 Q109.304,147.463 110.359,147.463 Q111.843,147.463 112.693,146.433 Q113.542,145.403 113.552,143.586 L113.552,143.186 z M115.359,142.444 L115.359,148.684 L113.552,148.684 L113.552,147.063 Q112.976,148.039 112.102,148.503 Q111.228,148.967 109.978,148.967 Q108.308,148.967 107.312,148.025 Q106.316,147.082 106.316,145.5 Q106.316,143.674 107.541,142.727 Q108.767,141.78 111.14,141.78 L113.552,141.78 L113.552,141.496 Q113.542,140.188 112.888,139.597 Q112.234,139.006 110.798,139.006 Q109.88,139.006 108.943,139.27 Q108.005,139.534 107.117,140.041 L107.117,138.245 Q108.113,137.864 109.026,137.673 Q109.939,137.483 110.798,137.483 Q112.156,137.483 113.118,137.883 Q114.079,138.284 114.675,139.084 Q115.046,139.573 115.203,140.29 Q115.359,141.008 115.359,142.444 z" fill="#0142F2"/>
    <path d="M127.419,148.127 Q126.697,148.547 125.93,148.757 Q125.163,148.967 124.363,148.967 Q121.824,148.967 120.393,147.444 Q118.962,145.92 118.962,143.225 Q118.962,140.53 120.393,139.006 Q121.824,137.483 124.363,137.483 Q125.154,137.483 125.906,137.688 Q126.658,137.893 127.419,138.323 L127.419,140.207 Q126.706,139.573 125.989,139.289 Q125.271,139.006 124.363,139.006 Q122.673,139.006 121.765,140.1 Q120.857,141.194 120.857,143.225 Q120.857,145.246 121.77,146.345 Q122.683,147.444 124.363,147.444 Q125.3,147.444 126.042,147.156 Q126.785,146.868 127.419,146.262 z" fill="#0142F2"/>
    <path d="M135.095,134.641 L135.095,137.746 L139.177,137.746 L139.177,139.143 L135.095,139.143 L135.095,145.08 Q135.095,146.291 135.554,146.77 Q136.013,147.248 137.156,147.248 L139.177,147.248 L139.177,148.684 L136.98,148.684 Q134.958,148.684 134.128,147.873 Q133.298,147.063 133.298,145.08 L133.298,139.143 L130.378,139.143 L130.378,137.746 L133.298,137.746 L133.298,134.641 z" fill="#0142F2"/>
    <path d="M144.226,137.786 L148.826,137.786 L148.826,147.288 L152.39,147.288 L152.39,148.684 L143.464,148.684 L143.464,147.288 L147.029,147.288 L147.029,139.182 L144.226,139.182 z M147.029,133.538 L148.826,133.538 L148.826,135.803 L147.029,135.803 z" fill="#0142F2"/>
    <path d="M159.197,139.006 Q157.829,139.006 157.126,140.071 Q156.423,141.135 156.423,143.225 Q156.423,145.305 157.126,146.374 Q157.829,147.444 159.197,147.444 Q160.574,147.444 161.277,146.374 Q161.98,145.305 161.98,143.225 Q161.98,141.135 161.277,140.071 Q160.574,139.006 159.197,139.006 z M159.197,137.483 Q161.472,137.483 162.678,138.957 Q163.884,140.432 163.884,143.225 Q163.884,146.028 162.683,147.497 Q161.482,148.967 159.197,148.967 Q156.921,148.967 155.72,147.497 Q154.519,146.028 154.519,143.225 Q154.519,140.432 155.72,138.957 Q156.921,137.483 159.197,137.483 z" fill="#0142F2"/>
    <path d="M175.486,141.907 L175.486,148.684 L173.679,148.684 L173.679,141.907 Q173.679,140.432 173.162,139.739 Q172.644,139.045 171.54,139.045 Q170.281,139.045 169.602,139.939 Q168.923,140.832 168.923,142.502 L168.923,148.684 L167.126,148.684 L167.126,137.746 L168.923,137.746 L168.923,139.387 Q169.402,138.45 170.222,137.966 Q171.042,137.483 172.165,137.483 Q173.835,137.483 174.661,138.581 Q175.486,139.68 175.486,141.907 z" fill="#0142F2"/>
    <path d="M196.16,143.186 L195.564,143.186 Q193.992,143.186 193.196,143.738 Q192.4,144.289 192.4,145.383 Q192.4,146.37 192.996,146.916 Q193.591,147.463 194.646,147.463 Q196.13,147.463 196.98,146.433 Q197.829,145.403 197.839,143.586 L197.839,143.186 z M199.646,142.444 L199.646,148.684 L197.839,148.684 L197.839,147.063 Q197.263,148.039 196.389,148.503 Q195.515,148.967 194.265,148.967 Q192.595,148.967 191.599,148.025 Q190.603,147.082 190.603,145.5 Q190.603,143.674 191.829,142.727 Q193.054,141.78 195.427,141.78 L197.839,141.78 L197.839,141.496 Q197.829,140.188 197.175,139.597 Q196.521,139.006 195.085,139.006 Q194.167,139.006 193.23,139.27 Q192.292,139.534 191.404,140.041 L191.404,138.245 Q192.4,137.864 193.313,137.673 Q194.226,137.483 195.085,137.483 Q196.443,137.483 197.405,137.883 Q198.367,138.284 198.962,139.084 Q199.333,139.573 199.49,140.29 Q199.646,141.008 199.646,142.444 z" fill="#0142F2"/>
    <path d="M111.872,165.686 L111.277,165.686 Q109.704,165.686 108.909,166.238 Q108.113,166.789 108.113,167.883 Q108.113,168.87 108.708,169.416 Q109.304,169.963 110.359,169.963 Q111.843,169.963 112.693,168.933 Q113.542,167.903 113.552,166.086 L113.552,165.686 z M115.359,164.944 L115.359,171.184 L113.552,171.184 L113.552,169.563 Q112.976,170.539 112.102,171.003 Q111.228,171.467 109.978,171.467 Q108.308,171.467 107.312,170.525 Q106.316,169.582 106.316,168 Q106.316,166.174 107.541,165.227 Q108.767,164.28 111.14,164.28 L113.552,164.28 L113.552,163.996 Q113.542,162.688 112.888,162.097 Q112.234,161.506 110.798,161.506 Q109.88,161.506 108.943,161.77 Q108.005,162.034 107.117,162.541 L107.117,160.745 Q108.113,160.364 109.026,160.173 Q109.939,159.983 110.798,159.983 Q112.156,159.983 113.118,160.383 Q114.079,160.784 114.675,161.584 Q115.046,162.073 115.203,162.79 Q115.359,163.508 115.359,164.944 z" fill="#0142F2"/>
    <path d="M127.419,170.627 Q126.697,171.047 125.93,171.257 Q125.163,171.467 124.363,171.467 Q121.824,171.467 120.393,169.944 Q118.962,168.42 118.962,165.725 Q118.962,163.03 120.393,161.506 Q121.824,159.983 124.363,159.983 Q125.154,159.983 125.906,160.188 Q126.658,160.393 127.419,160.823 L127.419,162.707 Q126.706,162.073 125.989,161.789 Q125.271,161.506 124.363,161.506 Q122.673,161.506 121.765,162.6 Q120.857,163.694 120.857,165.725 Q120.857,167.746 121.77,168.845 Q122.683,169.944 124.363,169.944 Q125.3,169.944 126.042,169.656 Q126.785,169.368 127.419,168.762 z" fill="#0142F2"/>
    <path d="M135.095,157.141 L135.095,160.246 L139.177,160.246 L139.177,161.643 L135.095,161.643 L135.095,167.58 Q135.095,168.791 135.554,169.27 Q136.013,169.748 137.156,169.748 L139.177,169.748 L139.177,171.184 L136.98,171.184 Q134.958,171.184 134.128,170.373 Q133.298,169.563 133.298,167.58 L133.298,161.643 L130.378,161.643 L130.378,160.246 L133.298,160.246 L133.298,157.141 z" fill="#0142F2"/>
    <path d="M144.226,160.286 L148.826,160.286 L148.826,169.788 L152.39,169.788 L152.39,171.184 L143.464,171.184 L143.464,169.788 L147.029,169.788 L147.029,161.682 L144.226,161.682 z M147.029,156.038 L148.826,156.038 L148.826,158.303 L147.029,158.303 z" fill="#0142F2"/>
    <path d="M159.197,161.506 Q157.829,161.506 157.126,162.571 Q156.423,163.635 156.423,165.725 Q156.423,167.805 157.126,168.874 Q157.829,169.944 159.197,169.944 Q160.574,169.944 161.277,168.874 Q161.98,167.805 161.98,165.725 Q161.98,163.635 161.277,162.571 Q160.574,161.506 159.197,161.506 z M159.197,159.983 Q161.472,159.983 162.678,161.457 Q163.884,162.932 163.884,165.725 Q163.884,168.528 162.683,169.997 Q161.482,171.467 159.197,171.467 Q156.921,171.467 155.72,169.997 Q154.519,168.528 154.519,165.725 Q154.519,162.932 155.72,161.457 Q156.921,159.983 159.197,159.983 z" fill="#0142F2"/>
    <path d="M175.486,164.407 L175.486,171.184 L173.679,171.184 L173.679,164.407 Q173.679,162.932 173.162,162.239 Q172.644,161.545 171.54,161.545 Q170.281,161.545 169.602,162.439 Q168.923,163.332 168.923,165.002 L168.923,171.184 L167.126,171.184 L167.126,160.246 L168.923,160.246 L168.923,161.887 Q169.402,160.95 170.222,160.466 Q171.042,159.983 172.165,159.983 Q173.835,159.983 174.661,161.081 Q175.486,162.18 175.486,164.407 z" fill="#0142F2"/>
    <path d="M198.269,165.725 Q198.269,163.635 197.605,162.571 Q196.941,161.506 195.642,161.506 Q194.333,161.506 193.66,162.576 Q192.986,163.645 192.986,165.725 Q192.986,167.795 193.66,168.87 Q194.333,169.944 195.642,169.944 Q196.941,169.944 197.605,168.879 Q198.269,167.815 198.269,165.725 z M192.986,161.643 Q193.415,160.842 194.172,160.413 Q194.929,159.983 195.925,159.983 Q197.898,159.983 199.031,161.501 Q200.163,163.02 200.163,165.686 Q200.163,168.391 199.026,169.929 Q197.888,171.467 195.906,171.467 Q194.929,171.467 194.182,171.042 Q193.435,170.618 192.986,169.807 L192.986,171.184 L191.189,171.184 L191.189,155.989 L192.986,155.989 z" fill="#0142F2"/>
    <path d="M22.031,205.643 L15.83,205.643 L15.83,208.788 L21.475,208.788 L21.475,211.327 L15.83,211.327 L15.83,217.684 L12.949,217.684 L12.949,203.104 L22.031,203.104 z" fill="#000000"/>
    <path d="M25.371,206.746 L31.035,206.746 L31.035,215.487 L34.59,215.487 L34.59,217.684 L24.609,217.684 L24.609,215.487 L28.174,215.487 L28.174,208.944 L25.371,208.944 z M28.174,201.424 L31.035,201.424 L31.035,204.764 L28.174,204.764 z" fill="#000000"/>
    <path d="M45.713,210.584 L45.713,217.684 L42.871,217.684 L42.871,211.024 Q42.871,209.832 42.534,209.32 Q42.197,208.807 41.436,208.807 Q40.664,208.807 40.22,209.5 Q39.776,210.194 39.776,211.424 L39.776,217.684 L36.934,217.684 L36.934,206.746 L39.776,206.746 L39.776,208.387 Q40.078,207.479 40.811,206.981 Q41.543,206.483 42.578,206.483 Q44.131,206.483 44.922,207.513 Q45.713,208.543 45.713,210.584 z" fill="#000000"/>
    <path d="M64.317,211.288 Q62.139,210.457 61.367,209.544 Q60.596,208.631 60.596,207.088 Q60.596,205.106 61.865,203.973 Q63.135,202.84 65.352,202.84 Q66.358,202.84 67.363,203.07 Q68.369,203.299 69.356,203.748 L69.356,206.561 Q68.428,205.907 67.471,205.565 Q66.514,205.223 65.576,205.223 Q64.531,205.223 63.975,205.643 Q63.418,206.063 63.418,206.844 Q63.418,207.45 63.823,207.845 Q64.229,208.241 65.518,208.719 L66.758,209.188 Q68.516,209.832 69.346,210.897 Q70.176,211.961 70.176,213.582 Q70.176,215.789 68.872,216.878 Q67.568,217.967 64.932,217.967 Q63.848,217.967 62.759,217.708 Q61.67,217.45 60.654,216.942 L60.654,213.963 Q61.807,214.784 62.886,215.184 Q63.965,215.584 65.02,215.584 Q66.084,215.584 66.67,215.101 Q67.256,214.618 67.256,213.748 Q67.256,213.094 66.865,212.601 Q66.475,212.108 65.733,211.825 z" fill="#000000"/>
    <path d="M73.535,206.746 L79.199,206.746 L79.199,215.487 L82.754,215.487 L82.754,217.684 L72.774,217.684 L72.774,215.487 L76.338,215.487 L76.338,208.944 L73.535,208.944 z M76.338,201.424 L79.199,201.424 L79.199,204.764 L76.338,204.764 z" fill="#000000"/>
    <path d="M286.898,152.713 Q285.902,153.123 284.866,153.328 Q283.831,153.533 282.679,153.533 Q279.935,153.533 278.485,152.063 Q277.034,150.594 277.034,147.83 Q277.034,145.154 278.431,143.602 Q279.827,142.049 282.24,142.049 Q284.671,142.049 286.014,143.489 Q287.357,144.93 287.357,147.547 L287.357,148.709 L279.945,148.709 Q279.954,149.998 280.706,150.633 Q281.458,151.268 282.952,151.268 Q283.939,151.268 284.896,150.984 Q285.853,150.701 286.898,150.086 z M284.476,146.561 Q284.456,145.428 283.895,144.847 Q283.333,144.266 282.24,144.266 Q281.253,144.266 280.667,144.866 Q280.081,145.467 279.974,146.57 z" fill="#000000"/>
    <path d="M291.956,148.689 L291.956,140.252 L289.056,140.252 L289.056,138.055 L294.818,138.055 L294.818,148.689 Q294.818,149.979 295.218,150.516 Q295.618,151.053 296.575,151.053 L298.861,151.053 L298.861,153.25 L295.775,153.25 Q293.734,153.25 292.845,152.195 Q291.956,151.141 291.956,148.689 z" fill="#000000"/>
    <path d="M309.896,142.654 L309.896,145.154 Q309.105,144.646 308.25,144.388 Q307.396,144.129 306.536,144.129 Q305.579,144.129 305.091,144.407 Q304.603,144.686 304.603,145.232 Q304.603,146.014 306.693,146.502 L306.8,146.531 L307.62,146.727 Q309.183,147.098 309.91,147.923 Q310.638,148.748 310.638,150.154 Q310.638,151.844 309.53,152.688 Q308.421,153.533 306.195,153.533 Q305.208,153.533 304.173,153.362 Q303.138,153.191 302.073,152.85 L302.073,150.35 Q303.021,150.887 304.002,151.17 Q304.984,151.453 305.902,151.453 Q306.907,151.453 307.425,151.16 Q307.943,150.867 307.943,150.311 Q307.943,149.764 307.576,149.471 Q307.21,149.178 305.833,148.846 L305.042,148.67 Q303.402,148.299 302.65,147.508 Q301.898,146.717 301.898,145.389 Q301.898,143.807 303.04,142.928 Q304.183,142.049 306.253,142.049 Q307.181,142.049 308.104,142.2 Q309.027,142.352 309.896,142.654 z" fill="#000000"/>
    <path d="M323.021,152.713 Q322.025,153.123 320.99,153.328 Q319.954,153.533 318.802,153.533 Q316.058,153.533 314.608,152.063 Q313.157,150.594 313.157,147.83 Q313.157,145.154 314.554,143.602 Q315.95,142.049 318.363,142.049 Q320.794,142.049 322.137,143.489 Q323.48,144.93 323.48,147.547 L323.48,148.709 L316.068,148.709 Q316.077,149.998 316.829,150.633 Q317.581,151.268 319.075,151.268 Q320.062,151.268 321.019,150.984 Q321.976,150.701 323.021,150.086 z M320.599,146.561 Q320.579,145.428 320.018,144.847 Q319.456,144.266 318.363,144.266 Q317.376,144.266 316.79,144.866 Q316.204,145.467 316.097,146.57 z" fill="#000000"/>
    <path d="M277.894,245.238 L279.075,245.238 Q280.091,245.238 280.443,244.819 Q280.794,244.399 280.794,243.002 L280.794,241 Q280.794,239.399 281.273,238.735 Q281.751,238.071 282.972,237.865 Q281.741,237.68 281.268,237.026 Q280.794,236.371 280.794,234.76 L280.794,232.719 Q280.794,231.342 280.448,230.922 Q280.101,230.502 279.075,230.502 L277.894,230.502 L277.894,228.647 L279.359,228.647 Q281.781,228.647 282.596,229.364 Q283.411,230.082 283.411,232.24 L283.411,234.34 Q283.411,235.815 283.944,236.376 Q284.476,236.938 285.853,236.938 L286.458,236.938 L286.458,238.803 L285.853,238.803 Q284.476,238.803 283.944,239.369 Q283.411,239.936 283.411,241.401 L283.411,243.5 Q283.411,245.658 282.596,246.381 Q281.781,247.104 279.359,247.104 L277.894,247.104 z" fill="#000000"/>
    <path d="M299.707,195.469 L299.112,195.469 Q297.539,195.469 296.744,196.021 Q295.948,196.572 295.948,197.666 Q295.948,198.653 296.543,199.199 Q297.139,199.746 298.194,199.746 Q299.678,199.746 300.528,198.716 Q301.377,197.686 301.387,195.869 L301.387,195.469 z M303.194,194.727 L303.194,200.967 L301.387,200.967 L301.387,199.346 Q300.811,200.322 299.937,200.786 Q299.063,201.25 297.813,201.25 Q296.143,201.25 295.147,200.308 Q294.151,199.365 294.151,197.783 Q294.151,195.957 295.376,195.01 Q296.602,194.063 298.975,194.063 L301.387,194.063 L301.387,193.78 Q301.377,192.471 300.723,191.88 Q300.069,191.289 298.633,191.289 Q297.715,191.289 296.778,191.553 Q295.84,191.817 294.952,192.324 L294.952,190.528 Q295.948,190.147 296.861,189.956 Q297.774,189.766 298.633,189.766 Q299.991,189.766 300.953,190.166 Q301.914,190.567 302.51,191.367 Q302.881,191.856 303.038,192.573 Q303.194,193.291 303.194,194.727 z" fill="#0142F2"/>
    <path d="M315.254,200.41 Q314.532,200.83 313.765,201.04 Q312.998,201.25 312.198,201.25 Q309.659,201.25 308.228,199.727 Q306.797,198.203 306.797,195.508 Q306.797,192.813 308.228,191.289 Q309.659,189.766 312.198,189.766 Q312.989,189.766 313.741,189.971 Q314.493,190.176 315.254,190.606 L315.254,192.49 Q314.541,191.856 313.824,191.572 Q313.106,191.289 312.198,191.289 Q310.508,191.289 309.6,192.383 Q308.692,193.477 308.692,195.508 Q308.692,197.53 309.605,198.628 Q310.518,199.727 312.198,199.727 Q313.135,199.727 313.877,199.439 Q314.62,199.151 315.254,198.545 z" fill="#0142F2"/>
    <path d="M322.93,186.924 L322.93,190.03 L327.012,190.03 L327.012,191.426 L322.93,191.426 L322.93,197.363 Q322.93,198.574 323.389,199.053 Q323.848,199.531 324.991,199.531 L327.012,199.531 L327.012,200.967 L324.815,200.967 Q322.793,200.967 321.963,200.156 Q321.133,199.346 321.133,197.363 L321.133,191.426 L318.213,191.426 L318.213,190.03 L321.133,190.03 L321.133,186.924 z" fill="#0142F2"/>
    <path d="M332.061,190.069 L336.661,190.069 L336.661,199.571 L340.225,199.571 L340.225,200.967 L331.299,200.967 L331.299,199.571 L334.864,199.571 L334.864,191.465 L332.061,191.465 z M334.864,185.821 L336.661,185.821 L336.661,188.086 L334.864,188.086 z" fill="#0142F2"/>
    <path d="M347.032,191.289 Q345.664,191.289 344.961,192.354 Q344.258,193.418 344.258,195.508 Q344.258,197.588 344.961,198.657 Q345.664,199.727 347.032,199.727 Q348.409,199.727 349.112,198.657 Q349.815,197.588 349.815,195.508 Q349.815,193.418 349.112,192.354 Q348.409,191.289 347.032,191.289 z M347.032,189.766 Q349.307,189.766 350.513,191.24 Q351.719,192.715 351.719,195.508 Q351.719,198.311 350.518,199.78 Q349.317,201.25 347.032,201.25 Q344.756,201.25 343.555,199.78 Q342.354,198.311 342.354,195.508 Q342.354,192.715 343.555,191.24 Q344.756,189.766 347.032,189.766 z" fill="#0142F2"/>
    <path d="M363.321,194.19 L363.321,200.967 L361.514,200.967 L361.514,194.19 Q361.514,192.715 360.996,192.022 Q360.479,191.328 359.375,191.328 Q358.116,191.328 357.437,192.222 Q356.758,193.115 356.758,194.785 L356.758,200.967 L354.961,200.967 L354.961,190.03 L356.758,190.03 L356.758,191.67 Q357.237,190.733 358.057,190.249 Q358.877,189.766 360,189.766 Q361.67,189.766 362.496,190.864 Q363.321,191.963 363.321,194.19 z" fill="#0142F2"/>
    <path d="M383.995,195.469 L383.399,195.469 Q381.827,195.469 381.031,196.021 Q380.235,196.572 380.235,197.666 Q380.235,198.653 380.83,199.199 Q381.426,199.746 382.481,199.746 Q383.965,199.746 384.815,198.716 Q385.664,197.686 385.674,195.869 L385.674,195.469 z M387.481,194.727 L387.481,200.967 L385.674,200.967 L385.674,199.346 Q385.098,200.322 384.224,200.786 Q383.35,201.25 382.1,201.25 Q380.43,201.25 379.434,200.308 Q378.438,199.365 378.438,197.783 Q378.438,195.957 379.663,195.01 Q380.889,194.063 383.262,194.063 L385.674,194.063 L385.674,193.78 Q385.664,192.471 385.01,191.88 Q384.356,191.289 382.92,191.289 Q382.002,191.289 381.065,191.553 Q380.127,191.817 379.239,192.324 L379.239,190.528 Q380.235,190.147 381.148,189.956 Q382.061,189.766 382.92,189.766 Q384.278,189.766 385.24,190.166 Q386.202,190.567 386.797,191.367 Q387.168,191.856 387.325,192.573 Q387.481,193.291 387.481,194.727 z" fill="#0142F2"/>
    <path d="M393.496,197.442 L396.543,197.442 L396.543,200.03 L394.62,203.76 L392.53,203.76 L393.496,200.03 z M393.37,190.039 L396.416,190.039 L396.416,193.565 L393.37,193.565 z" fill="#0142F2"/>
    <path d="M299.707,218.344 L299.112,218.344 Q297.539,218.344 296.744,218.896 Q295.948,219.447 295.948,220.541 Q295.948,221.528 296.543,222.074 Q297.139,222.621 298.194,222.621 Q299.678,222.621 300.528,221.591 Q301.377,220.561 301.387,218.744 L301.387,218.344 z M303.194,217.602 L303.194,223.842 L301.387,223.842 L301.387,222.221 Q300.811,223.197 299.937,223.661 Q299.063,224.125 297.813,224.125 Q296.143,224.125 295.147,223.183 Q294.151,222.24 294.151,220.658 Q294.151,218.832 295.376,217.885 Q296.602,216.938 298.975,216.938 L301.387,216.938 L301.387,216.655 Q301.377,215.346 300.723,214.755 Q300.069,214.164 298.633,214.164 Q297.715,214.164 296.778,214.428 Q295.84,214.692 294.952,215.199 L294.952,213.403 Q295.948,213.022 296.861,212.831 Q297.774,212.641 298.633,212.641 Q299.991,212.641 300.953,213.041 Q301.914,213.442 302.51,214.242 Q302.881,214.731 303.038,215.448 Q303.194,216.166 303.194,217.602 z" fill="#0142F2"/>
    <path d="M315.254,223.285 Q314.532,223.705 313.765,223.915 Q312.998,224.125 312.198,224.125 Q309.659,224.125 308.228,222.602 Q306.797,221.078 306.797,218.383 Q306.797,215.688 308.228,214.164 Q309.659,212.641 312.198,212.641 Q312.989,212.641 313.741,212.846 Q314.493,213.051 315.254,213.481 L315.254,215.365 Q314.541,214.731 313.824,214.447 Q313.106,214.164 312.198,214.164 Q310.508,214.164 309.6,215.258 Q308.692,216.352 308.692,218.383 Q308.692,220.405 309.605,221.503 Q310.518,222.602 312.198,222.602 Q313.135,222.602 313.877,222.314 Q314.62,222.026 315.254,221.42 z" fill="#0142F2"/>
    <path d="M322.93,209.799 L322.93,212.905 L327.012,212.905 L327.012,214.301 L322.93,214.301 L322.93,220.238 Q322.93,221.449 323.389,221.928 Q323.848,222.406 324.991,222.406 L327.012,222.406 L327.012,223.842 L324.815,223.842 Q322.793,223.842 321.963,223.031 Q321.133,222.221 321.133,220.238 L321.133,214.301 L318.213,214.301 L318.213,212.905 L321.133,212.905 L321.133,209.799 z" fill="#0142F2"/>
    <path d="M332.061,212.944 L336.661,212.944 L336.661,222.446 L340.225,222.446 L340.225,223.842 L331.299,223.842 L331.299,222.446 L334.864,222.446 L334.864,214.34 L332.061,214.34 z M334.864,208.696 L336.661,208.696 L336.661,210.961 L334.864,210.961 z" fill="#0142F2"/>
    <path d="M347.032,214.164 Q345.664,214.164 344.961,215.229 Q344.258,216.293 344.258,218.383 Q344.258,220.463 344.961,221.532 Q345.664,222.602 347.032,222.602 Q348.409,222.602 349.112,221.532 Q349.815,220.463 349.815,218.383 Q349.815,216.293 349.112,215.229 Q348.409,214.164 347.032,214.164 z M347.032,212.641 Q349.307,212.641 350.513,214.115 Q351.719,215.59 351.719,218.383 Q351.719,221.186 350.518,222.655 Q349.317,224.125 347.032,224.125 Q344.756,224.125 343.555,222.655 Q342.354,221.186 342.354,218.383 Q342.354,215.59 343.555,214.115 Q344.756,212.641 347.032,212.641 z" fill="#0142F2"/>
    <path d="M363.321,217.065 L363.321,223.842 L361.514,223.842 L361.514,217.065 Q361.514,215.59 360.996,214.897 Q360.479,214.203 359.375,214.203 Q358.116,214.203 357.437,215.097 Q356.758,215.99 356.758,217.66 L356.758,223.842 L354.961,223.842 L354.961,212.905 L356.758,212.905 L356.758,214.545 Q357.237,213.608 358.057,213.124 Q358.877,212.641 360,212.641 Q361.67,212.641 362.496,213.739 Q363.321,214.838 363.321,217.065 z" fill="#0142F2"/>
    <path d="M386.104,218.383 Q386.104,216.293 385.44,215.229 Q384.776,214.164 383.477,214.164 Q382.168,214.164 381.495,215.234 Q380.821,216.303 380.821,218.383 Q380.821,220.453 381.495,221.528 Q382.168,222.602 383.477,222.602 Q384.776,222.602 385.44,221.537 Q386.104,220.473 386.104,218.383 z M380.821,214.301 Q381.25,213.5 382.007,213.071 Q382.764,212.641 383.76,212.641 Q385.733,212.641 386.866,214.159 Q387.998,215.678 387.998,218.344 Q387.998,221.049 386.861,222.587 Q385.723,224.125 383.741,224.125 Q382.764,224.125 382.017,223.7 Q381.27,223.276 380.821,222.465 L380.821,223.842 L379.024,223.842 L379.024,208.647 L380.821,208.647 z" fill="#0142F2"/>
    <path d="M393.496,220.317 L396.543,220.317 L396.543,222.905 L394.62,226.635 L392.53,226.635 L393.496,222.905 z M393.37,212.914 L396.416,212.914 L396.416,216.44 L393.37,216.44 z" fill="#0142F2"/>
    <path d="M286.419,181.928 L286.419,183.794 L284.954,183.794 Q282.523,183.794 281.698,183.071 Q280.872,182.348 280.872,180.19 L280.872,178.091 Q280.872,176.616 280.35,176.054 Q279.827,175.493 278.46,175.493 L277.855,175.493 L277.855,173.628 L278.46,173.628 Q279.827,173.628 280.35,173.071 Q280.872,172.514 280.872,171.03 L280.872,168.93 Q280.872,166.772 281.698,166.054 Q282.523,165.337 284.954,165.337 L286.419,165.337 L286.419,167.192 L285.218,167.192 Q284.202,167.192 283.861,167.602 Q283.519,168.012 283.519,169.409 L283.519,171.45 Q283.519,173.061 283.04,173.716 Q282.562,174.37 281.331,174.555 Q282.562,174.761 283.04,175.425 Q283.519,176.089 283.519,177.69 L283.519,179.692 Q283.519,181.098 283.861,181.513 Q284.202,181.928 285.218,181.928 z" fill="#000000"/>
  </g>
</svg>
