<?xml version="1.0" encoding="UTF-8"?>
<!DOCTYPE svg PUBLIC "-//W3C//DTD SVG 1.1//EN" "http://www.w3.org/Graphics/SVG/1.1/DTD/svg11.dtd">
<svg version="1.1" xmlns="http://www.w3.org/2000/svg" xmlns:xlink="http://www.w3.org/1999/xlink" x="0" y="0" width="383.245" height="172.459" viewBox="0, 0, 383.245, 172.459">
  <g id="Calque_1" transform="translate(-0, 0)">
    <path d="M0,0 L0,172.459 L383.245,172.459 L383.245,0 L0,0 z M191.019,3.517 C192.314,3.517 193.363,4.566 193.363,5.861 C193.363,7.155 192.314,8.205 191.019,8.205 C189.725,8.205 188.675,7.155 188.675,5.861 C188.675,4.566 189.727,3.517 191.019,3.517 z M69.341,3.517 C70.636,3.517 71.685,4.566 71.685,5.861 C71.685,7.155 70.636,8.205 69.341,8.205 C68.047,8.205 66.997,7.155 66.997,5.861 C66.997,4.566 68.048,3.517 69.341,3.517 z M57.173,3.517 C58.468,3.517 59.517,4.566 59.517,5.861 C59.517,7.155 58.468,8.205 57.173,8.205 C55.879,8.205 54.829,7.155 54.829,5.861 C54.829,4.566 55.879,3.517 57.173,3.517 z M11.056,6.313 C13.72,6.313 15.88,8.472 15.88,11.137 C15.88,13.802 13.72,15.958 11.056,15.958 C8.393,15.958 6.233,13.8 6.233,11.137 C6.233,8.473 8.393,6.313 11.056,6.313 z M11.061,166.193 C8.398,166.193 6.238,164.033 6.238,161.369 C6.238,158.706 8.398,156.546 11.061,156.546 C13.725,156.546 15.885,158.704 15.885,161.369 C15.883,164.033 13.725,166.193 11.061,166.193 z M32.837,8.203 C31.543,8.203 30.493,7.153 30.493,5.859 C30.493,4.564 31.543,3.515 32.837,3.515 C34.132,3.515 35.181,4.564 35.181,5.859 C35.181,7.153 34.13,8.203 32.837,8.203 z M42.661,5.861 C42.661,4.566 43.711,3.517 45.005,3.517 C46.3,3.517 47.349,4.566 47.349,5.861 C47.349,7.155 46.3,8.205 45.005,8.205 C43.711,8.205 42.661,7.153 42.661,5.861 z M73.04,151.829 L45.438,151.829 L45.438,143.69 L73.04,143.69 L73.04,151.829 z M73.04,28.769 L45.438,28.769 L45.438,20.629 L73.04,20.629 L73.04,28.769 z M81.507,8.203 C80.213,8.203 79.163,7.153 79.163,5.859 C79.163,4.564 80.213,3.515 81.507,3.515 C82.802,3.515 83.851,4.564 83.851,5.859 C83.851,7.153 82.802,8.203 81.507,8.203 z M93.677,8.203 C92.383,8.203 91.333,7.153 91.333,5.859 C91.333,4.564 92.383,3.515 93.677,3.515 C94.972,3.515 96.021,4.564 96.021,5.859 C96.021,7.153 94.97,8.203 93.677,8.203 z M105.845,8.203 C104.551,8.203 103.501,7.153 103.501,5.859 C103.501,4.564 104.551,3.515 105.845,3.515 C107.14,3.515 108.189,4.564 108.189,5.859 C108.189,7.153 107.14,8.203 105.845,8.203 z M118.013,8.203 C116.719,8.203 115.669,7.153 115.669,5.859 C115.669,4.564 116.719,3.515 118.013,3.515 C119.308,3.515 120.357,4.564 120.357,5.859 C120.357,7.153 119.308,8.203 118.013,8.203 z M130.179,8.203 C128.885,8.203 127.835,7.153 127.835,5.859 C127.835,4.564 128.885,3.515 130.179,3.515 C131.474,3.515 132.523,4.564 132.523,5.859 C132.523,7.153 131.474,8.203 130.179,8.203 z M142.347,8.203 C141.053,8.203 140.003,7.153 140.003,5.859 C140.003,4.564 141.053,3.515 142.347,3.515 C143.642,3.515 144.691,4.564 144.691,5.859 C144.691,7.153 143.642,8.203 142.347,8.203 z M154.517,8.203 C153.223,8.203 152.173,7.153 152.173,5.859 C152.173,4.564 153.223,3.515 154.517,3.515 C155.812,3.515 156.861,4.564 156.861,5.859 C156.861,7.153 155.81,8.203 154.517,8.203 z M166.685,8.203 C165.391,8.203 164.341,7.153 164.341,5.859 C164.341,4.564 165.391,3.515 166.685,3.515 C167.98,3.515 169.029,4.564 169.029,5.859 C169.029,7.153 167.98,8.203 166.685,8.203 z M176.507,5.861 C176.507,4.566 177.557,3.517 178.851,3.517 C180.146,3.517 181.195,4.566 181.195,5.861 C181.195,7.155 180.146,8.205 178.851,8.205 C177.557,8.205 176.507,7.153 176.507,5.861 z M205.425,151.829 L177.82,151.829 L177.82,143.69 L205.425,143.69 L205.425,151.829 z M205.425,28.769 L177.82,28.769 L177.82,20.629 L205.425,20.629 L205.425,28.769 z M203.187,8.203 C201.893,8.203 200.843,7.153 200.843,5.859 C200.843,4.564 201.893,3.515 203.187,3.515 C204.482,3.515 205.531,4.564 205.531,5.859 C205.531,7.153 204.482,8.203 203.187,8.203 z M215.357,8.203 C214.063,8.203 213.013,7.153 213.013,5.859 C213.013,4.564 214.063,3.515 215.357,3.515 C216.652,3.515 217.701,4.564 217.701,5.859 C217.701,7.153 216.652,8.203 215.357,8.203 z M337.806,151.829 L310.205,151.829 L310.205,143.69 L337.806,143.69 L337.806,151.829 z M337.806,28.769 L310.205,28.769 L310.205,20.629 L337.806,20.629 L337.806,28.769 z M372.152,6.305 C374.815,6.305 376.975,8.463 376.975,11.128 C376.975,13.793 374.817,15.952 372.152,15.952 C369.487,15.952 367.327,13.793 367.327,11.128 C367.327,8.463 369.487,6.305 372.152,6.305 z M372.152,166.194 C369.488,166.194 367.329,164.036 367.329,161.371 C367.329,158.709 369.487,156.548 372.152,156.548 C374.817,156.548 376.977,158.708 376.977,161.371 C376.977,164.034 374.815,166.194 372.152,166.194 z" fill="#1F7A34"/>
    <path d="M2.672,11.137 C2.672,15.762 6.429,19.521 11.055,19.521 C15.689,19.521 19.439,15.762 19.439,11.137 C19.439,6.504 15.689,2.754 11.055,2.754 C6.429,2.754 2.672,6.504 2.672,11.137 z M6.233,11.137 C6.233,8.473 8.393,6.313 11.056,6.313 C13.72,6.313 15.88,8.472 15.88,11.137 C15.88,13.802 13.718,15.958 11.055,15.958 C8.393,15.958 6.233,13.8 6.233,11.137 z" fill="#9A916C"/>
    <path d="M380.534,161.371 C380.534,156.746 376.777,152.987 372.15,152.987 C367.516,152.987 363.766,156.746 363.766,161.371 C363.766,166.003 367.516,169.753 372.15,169.753 C376.779,169.753 380.534,166.005 380.534,161.371 z M376.977,161.371 C376.977,164.034 374.815,166.194 372.152,166.194 C369.488,166.194 367.328,164.036 367.328,161.371 C367.328,158.709 369.487,156.548 372.152,156.548 C374.817,156.548 376.977,158.709 376.977,161.371 z" fill="#9A916C"/>
    <path d="M2.677,161.369 C2.677,165.995 6.434,169.753 11.06,169.753 C15.694,169.753 19.444,165.995 19.444,161.369 C19.444,156.737 15.694,152.987 11.06,152.987 C6.434,152.987 2.677,156.737 2.677,161.369 z M6.236,161.369 C6.236,158.706 8.396,156.546 11.06,156.546 C13.723,156.546 15.883,158.704 15.883,161.369 C15.883,164.031 13.723,166.193 11.06,166.193 C8.398,166.193 6.236,164.033 6.236,161.369 z" fill="#9A916C"/>
    <path d="M367.682,110.309 C366.441,110.309 365.424,109.292 365.424,108.05 L365.424,64.411 C365.424,63.168 366.441,62.151 367.682,62.151 L367.778,62.151 L367.778,28.267 L367.778,27.087 L366.597,27.087 L363.134,23.624 L363.134,22.419 L361.929,22.419 L21.313,22.419 L20.108,22.419 L20.108,23.624 L16.647,27.085 L15.466,27.085 L15.466,28.265 L15.466,62.151 L15.562,62.151 C16.804,62.151 17.821,63.168 17.821,64.411 L17.821,108.05 C17.821,109.292 16.804,110.309 15.562,110.309 L15.466,110.309 L15.466,144.192 L15.466,145.372 L16.647,145.372 L20.11,148.835 L20.11,150.04 L21.315,150.04 L361.929,150.04 L363.134,150.04 L363.134,148.835 L366.597,145.372 L367.778,145.372 L367.778,144.192 L367.778,110.309 L367.682,110.309 z" fill="#303030"/>
    <g>
      <path d="M352.641,120.635 C352.641,124.363 349.59,127.414 345.86,127.414 L37.383,127.414 C33.655,127.414 30.605,124.363 30.605,120.635 L30.605,51.824 C30.605,48.095 33.655,45.045 37.383,45.045 L345.86,45.045 C349.59,45.045 352.641,48.095 352.641,51.824 L352.641,120.635 z" fill="#FF2B2B"/>
      <g opacity="0.2">
        <path d="M352.627,51.791 L352.627,120.667 C352.627,120.657 352.631,120.647 352.631,120.635 L352.631,51.824 C352.631,51.812 352.627,51.802 352.627,51.791 z M37.383,45.045 C33.657,45.045 30.605,48.097 30.605,51.824 L30.605,120.635 C30.605,124.362 33.657,127.414 37.383,127.414 L41.314,127.414 C37.586,127.414 34.536,124.362 34.536,120.635 L34.536,54.085 C34.536,50.357 37.586,47.306 41.314,47.306 L350.863,47.306 C349.621,45.93 347.843,45.045 345.854,45.045 L37.383,45.045 z" fill="#FF2B2B"/>
      </g>
    </g>
    <g>
      <path d="M355.505,31.464 C355.505,30.222 354.488,29.206 353.247,29.206 L29.998,29.206 C28.756,29.206 27.74,30.224 27.74,31.464 L27.74,32.71 C27.74,33.952 28.757,34.967 29.998,34.967 L353.246,34.967 C354.486,34.967 355.504,33.95 355.504,32.71 L355.504,31.464 z" fill="#1A1A1A"/>
      <path d="M354.376,33.482 C354.376,32.664 353.646,31.995 352.759,31.995 L30.618,31.995 C29.729,31.995 29.001,32.664 29.001,33.482 C29.001,34.3 29.729,34.969 30.618,34.969 L352.759,34.969 C353.646,34.967 354.376,34.298 354.376,33.482 z" fill="#424242"/>
    </g>
    <g>
      <path d="M355.505,138.674 C355.505,137.434 354.488,136.416 353.247,136.416 L29.998,136.416 C28.756,136.416 27.74,137.434 27.74,138.674 L27.74,139.921 C27.74,141.162 28.757,142.179 29.998,142.179 L353.246,142.179 C354.486,142.179 355.504,141.162 355.504,139.921 L355.504,138.674 z" fill="#1A1A1A"/>
      <path d="M354.376,140.694 C354.376,139.876 353.646,139.207 352.759,139.207 L30.618,139.207 C29.729,139.207 29.001,139.876 29.001,140.694 C29.001,141.51 29.729,142.179 30.618,142.179 L352.759,142.179 C353.646,142.179 354.376,141.51 354.376,140.694 z" fill="#424242"/>
    </g>
    <g>
      <path d="M16.794,27.332 L20.365,23.761" fill-opacity="0" stroke="#F2F2F2" stroke-width="0.399" stroke-opacity="0.2" stroke-linecap="round"/>
      <path d="M20.402,148.681 L16.831,145.108" fill-opacity="0" stroke="#F2F2F2" stroke-width="0.399" stroke-opacity="0.2" stroke-linecap="round"/>
    </g>
    <g>
      <path d="M366.431,27.332 L362.858,23.761" fill-opacity="0" stroke="#F2F2F2" stroke-width="0.399" stroke-opacity="0.2" stroke-linecap="round"/>
      <path d="M362.823,148.681 L366.394,145.108" fill-opacity="0" stroke="#F2F2F2" stroke-width="0.399" stroke-opacity="0.2" stroke-linecap="round"/>
    </g>
    <path d="M352.79,120.627 C352.79,124.353 349.74,127.405 346.013,127.405 L37.543,127.405 C33.816,127.405 30.764,124.353 30.764,120.627 L30.764,51.815 C30.764,48.089 33.816,45.036 37.543,45.036 L346.013,45.036 C349.74,45.036 352.79,48.089 352.79,51.815 L352.79,120.627 z" fill-opacity="0" stroke="#1A1A1A" stroke-width="2.391" stroke-opacity="0.4"/>
    <path d="M363.768,11.128 C363.768,15.754 367.525,19.512 372.152,19.512 C376.786,19.512 380.536,15.754 380.536,11.128 C380.536,6.496 376.786,2.746 372.152,2.746 C367.523,2.746 363.768,6.496 363.768,11.128 z M367.325,11.128 C367.325,8.465 369.487,6.305 372.15,6.305 C374.814,6.305 376.973,8.463 376.973,11.128 C376.973,13.793 374.815,15.952 372.15,15.952 C369.485,15.952 367.325,13.792 367.325,11.128 z" fill="#9A916C"/>
    <path d="M28.764,-0 L28.764,8.027 C28.764,10.275 30.586,12.1 32.837,12.1 C35.085,12.1 36.91,10.275 36.91,8.027 L36.91,-0 L28.764,-0 z M32.837,8.203 C31.543,8.203 30.493,7.153 30.493,5.859 C30.493,4.564 31.543,3.515 32.837,3.515 C34.132,3.515 35.181,4.564 35.181,5.859 C35.181,7.153 34.13,8.203 32.837,8.203 z" fill="#9A916C"/>
    <path d="M40.932,-0 L40.932,8.027 C40.932,10.275 42.754,12.1 45.005,12.1 C47.253,12.1 49.078,10.275 49.078,8.027 L49.078,-0 L40.932,-0 z M45.005,8.203 C43.711,8.203 42.661,7.153 42.661,5.859 C42.661,4.564 43.711,3.515 45.005,3.515 C46.3,3.515 47.349,4.564 47.349,5.859 C47.349,7.153 46.3,8.203 45.005,8.203 z" fill="#9A916C"/>
    <path d="M53.1,-0 L53.1,8.027 C53.1,10.275 54.922,12.1 57.173,12.1 C59.421,12.1 61.246,10.275 61.246,8.027 L61.246,-0 L53.1,-0 z M57.173,8.203 C55.879,8.203 54.829,7.153 54.829,5.859 C54.829,4.564 55.879,3.515 57.173,3.515 C58.468,3.515 59.517,4.564 59.517,5.859 C59.517,7.153 58.468,8.203 57.173,8.203 z" fill="#9A916C"/>
    <path d="M65.268,-0 L65.268,8.027 C65.268,10.275 67.09,12.1 69.341,12.1 C71.589,12.1 73.414,10.275 73.414,8.027 L73.414,-0 L65.268,-0 z M69.341,8.203 C68.047,8.203 66.997,7.153 66.997,5.859 C66.997,4.564 68.047,3.515 69.341,3.515 C70.636,3.515 71.685,4.564 71.685,5.859 C71.685,7.153 70.636,8.203 69.341,8.203 z" fill="#9A916C"/>
    <path d="M77.434,-0 L77.434,8.027 C77.434,10.275 79.256,12.1 81.507,12.1 C83.755,12.1 85.58,10.275 85.58,8.027 L85.58,-0 L77.434,-0 z M81.507,8.203 C80.213,8.203 79.163,7.153 79.163,5.859 C79.163,4.564 80.213,3.515 81.507,3.515 C82.802,3.515 83.851,4.564 83.851,5.859 C83.851,7.153 82.802,8.203 81.507,8.203 z" fill="#9A916C"/>
    <path d="M89.604,-0 L89.604,8.027 C89.604,10.275 91.426,12.1 93.677,12.1 C95.925,12.1 97.75,10.275 97.75,8.027 L97.75,-0 L89.604,-0 z M93.677,8.203 C92.383,8.203 91.333,7.153 91.333,5.859 C91.333,4.564 92.383,3.515 93.677,3.515 C94.972,3.515 96.021,4.564 96.021,5.859 C96.021,7.153 94.97,8.203 93.677,8.203 z" fill="#9A916C"/>
    <path d="M101.772,-0 L101.772,8.027 C101.772,10.275 103.594,12.1 105.845,12.1 C108.093,12.1 109.918,10.275 109.918,8.027 L109.918,-0 L101.772,-0 z M105.845,8.203 C104.551,8.203 103.501,7.153 103.501,5.859 C103.501,4.564 104.551,3.515 105.845,3.515 C107.14,3.515 108.189,4.564 108.189,5.859 C108.189,7.153 107.14,8.203 105.845,8.203 z" fill="#9A916C"/>
    <path d="M113.94,-0 L113.94,8.027 C113.94,10.275 115.762,12.1 118.013,12.1 C120.261,12.1 122.086,10.275 122.086,8.027 L122.086,-0 L113.94,-0 z M118.013,8.203 C116.719,8.203 115.669,7.153 115.669,5.859 C115.669,4.564 116.719,3.515 118.013,3.515 C119.308,3.515 120.357,4.564 120.357,5.859 C120.357,7.153 119.308,8.203 118.013,8.203 z" fill="#9A916C"/>
    <path d="M126.106,-0 L126.106,8.027 C126.106,10.275 127.928,12.1 130.179,12.1 C132.427,12.1 134.252,10.275 134.252,8.027 L134.252,-0 L126.106,-0 z M130.179,8.203 C128.885,8.203 127.835,7.153 127.835,5.859 C127.835,4.564 128.885,3.515 130.179,3.515 C131.474,3.515 132.523,4.564 132.523,5.859 C132.523,7.153 131.474,8.203 130.179,8.203 z" fill="#9A916C"/>
    <path d="M138.274,-0 L138.274,8.027 C138.274,10.275 140.096,12.1 142.347,12.1 C144.595,12.1 146.42,10.275 146.42,8.027 L146.42,-0 L138.274,-0 z M142.347,8.203 C141.053,8.203 140.003,7.153 140.003,5.859 C140.003,4.564 141.053,3.515 142.347,3.515 C143.642,3.515 144.691,4.564 144.691,5.859 C144.691,7.153 143.642,8.203 142.347,8.203 z" fill="#9A916C"/>
    <path d="M150.444,-0 L150.444,8.027 C150.444,10.275 152.266,12.1 154.517,12.1 C156.765,12.1 158.59,10.275 158.59,8.027 L158.59,-0 L150.444,-0 z M154.517,8.203 C153.223,8.203 152.173,7.153 152.173,5.859 C152.173,4.564 153.223,3.515 154.517,3.515 C155.812,3.515 156.861,4.564 156.861,5.859 C156.861,7.153 155.81,8.203 154.517,8.203 z" fill="#9A916C"/>
    <path d="M162.612,-0 L162.612,8.027 C162.612,10.275 164.434,12.1 166.685,12.1 C168.933,12.1 170.758,10.275 170.758,8.027 L170.758,-0 L162.612,-0 z M166.685,8.203 C165.391,8.203 164.341,7.153 164.341,5.859 C164.341,4.564 165.391,3.515 166.685,3.515 C167.98,3.515 169.029,4.564 169.029,5.859 C169.029,7.153 167.98,8.203 166.685,8.203 z" fill="#9A916C"/>
    <path d="M174.778,-0 L174.778,8.027 C174.778,10.275 176.6,12.1 178.851,12.1 C181.099,12.1 182.924,10.275 182.924,8.027 L182.924,-0 L174.778,-0 z M178.851,8.203 C177.557,8.203 176.507,7.153 176.507,5.859 C176.507,4.564 177.557,3.515 178.851,3.515 C180.146,3.515 181.195,4.564 181.195,5.859 C181.195,7.153 180.146,8.203 178.851,8.203 z" fill="#9A916C"/>
    <path d="M186.946,-0 L186.946,8.027 C186.946,10.275 188.768,12.1 191.019,12.1 C193.267,12.1 195.094,10.275 195.094,8.027 L195.094,-0 L186.946,-0 z M191.019,8.203 C189.725,8.203 188.675,7.153 188.675,5.859 C188.675,4.564 189.725,3.515 191.019,3.515 C192.314,3.515 193.363,4.564 193.363,5.859 C193.363,7.153 192.314,8.203 191.019,8.203 z" fill="#9A916C"/>
    <path d="M199.114,-0 L199.114,8.027 C199.114,10.275 200.936,12.1 203.187,12.1 C205.435,12.1 207.26,10.275 207.26,8.027 L207.26,-0 L199.114,-0 z M203.187,8.203 C201.893,8.203 200.843,7.153 200.843,5.859 C200.843,4.564 201.893,3.515 203.187,3.515 C204.482,3.515 205.531,4.564 205.531,5.859 C205.531,7.153 204.482,8.203 203.187,8.203 z" fill="#9A916C"/>
    <path d="M211.284,-0 L211.284,8.027 C211.284,10.275 213.106,12.1 215.357,12.1 C217.605,12.1 219.43,10.275 219.43,8.027 L219.43,-0 L211.284,-0 z M215.357,8.203 C214.063,8.203 213.013,7.153 213.013,5.859 C213.013,4.564 214.063,3.515 215.357,3.515 C216.652,3.515 217.701,4.564 217.701,5.859 C217.701,7.153 216.652,8.203 215.357,8.203 z" fill="#9A916C"/>
    <g>
      <path d="M46.965,86.815 L63.911,86.815 L63.911,114.737 L46.965,114.737 z" fill="#1A1A1A" fill-opacity="0.1"/>
      <path d="M65.123,86.815 L82.068,86.815 L82.068,114.737 L65.123,114.737 z" fill="#1A1A1A" fill-opacity="0.1"/>
      <path d="M83.28,86.815 L100.226,86.815 L100.226,114.737 L83.28,114.737 z" fill="#1A1A1A" fill-opacity="0.1"/>
      <path d="M101.438,86.815 L118.385,86.815 L118.385,114.737 L101.438,114.737 z" fill="#1A1A1A" fill-opacity="0.1"/>
      <path d="M119.598,86.815 L136.544,86.815 L136.544,114.737 L119.598,114.737 z" fill="#1A1A1A" fill-opacity="0.1"/>
      <path d="M137.756,86.815 L154.701,86.815 L154.701,114.737 L137.756,114.737 z" fill="#1A1A1A" fill-opacity="0.1"/>
      <path d="M155.913,86.815 L172.859,86.815 L172.859,114.737 L155.913,114.737 z" fill="#1A1A1A" fill-opacity="0.1"/>
      <path d="M174.07,86.815 L191.016,86.815 L191.016,114.737 L174.07,114.737 z" fill="#1A1A1A" fill-opacity="0.1"/>
      <path d="M192.228,86.815 L209.175,86.815 L209.175,114.737 L192.228,114.737 z" fill="#1A1A1A" fill-opacity="0.1"/>
      <path d="M210.387,86.815 L227.332,86.815 L227.332,114.737 L210.387,114.737 z" fill="#1A1A1A" fill-opacity="0.1"/>
      <path d="M228.544,86.815 L245.49,86.815 L245.49,114.737 L228.544,114.737 z" fill="#1A1A1A" fill-opacity="0.1"/>
      <path d="M246.701,86.815 L263.647,86.815 L263.647,114.737 L246.701,114.737 z" fill="#1A1A1A" fill-opacity="0.1"/>
      <path d="M264.859,86.815 L281.804,86.815 L281.804,114.737 L264.859,114.737 z" fill="#1A1A1A" fill-opacity="0.1"/>
      <path d="M283.016,86.815 L299.962,86.815 L299.962,114.737 L283.016,114.737 z" fill="#1A1A1A" fill-opacity="0.1"/>
      <path d="M301.173,86.815 L318.119,86.815 L318.119,114.737 L301.173,114.737 z" fill="#1A1A1A" fill-opacity="0.1"/>
      <path d="M319.333,86.815 L336.278,86.815 L336.278,114.737 L319.333,114.737 z" fill="#1A1A1A" fill-opacity="0.1"/>
      <path d="M46.965,57.72 L63.911,57.72 L63.911,85.642 L46.965,85.642 z" fill="#1A1A1A" fill-opacity="0.1"/>
      <path d="M65.123,57.72 L82.068,57.72 L82.068,85.642 L65.123,85.642 z" fill="#1A1A1A" fill-opacity="0.1"/>
      <path d="M83.28,57.72 L100.226,57.72 L100.226,85.642 L83.28,85.642 z" fill="#1A1A1A" fill-opacity="0.1"/>
      <path d="M101.438,57.72 L118.385,57.72 L118.385,85.642 L101.438,85.642 z" fill="#1A1A1A" fill-opacity="0.1"/>
      <path d="M119.598,57.72 L136.544,57.72 L136.544,85.642 L119.598,85.642 z" fill="#1A1A1A" fill-opacity="0.1"/>
      <path d="M137.756,57.72 L154.701,57.72 L154.701,85.642 L137.756,85.642 z" fill="#1A1A1A" fill-opacity="0.1"/>
      <path d="M155.913,57.72 L172.859,57.72 L172.859,85.642 L155.913,85.642 z" fill="#1A1A1A" fill-opacity="0.1"/>
      <path d="M174.07,57.72 L191.016,57.72 L191.016,85.642 L174.07,85.642 z" fill="#1A1A1A" fill-opacity="0.1"/>
      <path d="M192.228,57.72 L209.175,57.72 L209.175,85.642 L192.228,85.642 z" fill="#1A1A1A" fill-opacity="0.1"/>
      <path d="M210.387,57.72 L227.332,57.72 L227.332,85.642 L210.387,85.642 z" fill="#1A1A1A" fill-opacity="0.1"/>
      <path d="M228.544,57.72 L245.49,57.72 L245.49,85.642 L228.544,85.642 z" fill="#1A1A1A" fill-opacity="0.1"/>
      <path d="M246.701,57.72 L263.647,57.72 L263.647,85.642 L246.701,85.642 z" fill="#1A1A1A" fill-opacity="0.1"/>
      <path d="M264.859,57.72 L281.804,57.72 L281.804,85.642 L264.859,85.642 z" fill="#1A1A1A" fill-opacity="0.1"/>
      <path d="M283.016,57.72 L299.962,57.72 L299.962,85.642 L283.016,85.642 z" fill="#1A1A1A" fill-opacity="0.1"/>
      <path d="M301.173,57.72 L318.119,57.72 L318.119,85.642 L301.173,85.642 z" fill="#1A1A1A" fill-opacity="0.1"/>
      <path d="M319.333,57.72 L336.278,57.72 L336.278,85.642 L319.333,85.642 z" fill="#1A1A1A" fill-opacity="0.1"/>
    </g>
    <g>
      <path d="M15.978,110.227 L15.978,145.374 L16.431,145.374 L16.431,110.134 C16.29,110.193 16.13,110.196 15.978,110.227 z" fill="#606060"/>
      <path d="M16.431,62.329 L16.431,27.084 L15.978,27.084 L15.978,62.236 C16.13,62.266 16.29,62.269 16.431,62.329 z" fill="#606060"/>
    </g>
    <path d="M20.111,22.936 L363.129,22.936 L363.129,23.388 L20.111,23.388 z" fill="#606060"/>
    <path d="M20.111,22.426 L363.129,22.426 L363.129,22.94 L20.111,22.94 z" fill="#212121"/>
    <g>
      <path d="M15.562,62.151 C15.709,62.151 15.839,62.209 15.979,62.236 L15.979,27.084 L15.467,27.084 L15.467,62.151 L15.562,62.151 z" fill="#212121"/>
      <path d="M15.562,110.309 L15.467,110.309 L15.467,145.374 L15.979,145.374 L15.979,110.225 C15.839,110.252 15.709,110.309 15.562,110.309 z" fill="#212121"/>
    </g>
    <path d="M20.111,149.531 L363.129,149.531 L363.129,150.043 L20.111,150.043 z" fill="#212121"/>
    <path d="M20.111,149.083 L363.129,149.083 L363.129,149.534 L20.111,149.534 z" fill="#606060"/>
    <g>
      <path d="M367.682,110.309 C367.531,110.309 367.401,110.252 367.259,110.223 L367.259,145.374 L367.775,145.374 L367.775,110.309 L367.682,110.309 z" fill="#212121"/>
      <path d="M367.682,62.151 L367.775,62.151 L367.775,27.084 L367.259,27.084 L367.259,62.237 C367.401,62.21 367.531,62.151 367.682,62.151 z" fill="#212121"/>
    </g>
    <g>
      <path d="M366.813,110.134 L366.813,145.374 L367.263,145.374 L367.263,110.225 C367.112,110.196 366.952,110.193 366.813,110.134 z" fill="#606060"/>
      <path d="M367.263,62.237 L367.263,27.085 L366.813,27.085 L366.813,62.329 C366.952,62.269 367.112,62.266 367.263,62.237 z" fill="#606060"/>
    </g>
    <path d="M35.784,2.344 C35.784,3.638 34.735,4.688 33.44,4.688 C32.146,4.688 31.096,3.638 31.096,2.344 C31.096,1.049 32.146,-0 33.44,-0 C34.735,-0 35.784,1.049 35.784,2.344 z" fill="#000000" id="connector0pin"/>
    <path d="M47.952,2.344 C47.952,3.638 46.903,4.688 45.608,4.688 C44.314,4.688 43.264,3.638 43.264,2.344 C43.264,1.049 44.314,-0 45.608,-0 C46.903,-0 47.952,1.049 47.952,2.344 z" fill="#000000" id="connector1pin"/>
    <path d="M60.12,2.344 C60.12,3.638 59.071,4.688 57.776,4.688 C56.482,4.688 55.432,3.638 55.432,2.344 C55.432,1.049 56.482,-0 57.776,-0 C59.071,-0 60.12,1.049 60.12,2.344 z" fill="#000000" id="connector2pin"/>
    <path d="M72.288,2.344 C72.288,3.638 71.239,4.688 69.944,4.688 C68.65,4.688 67.6,3.638 67.6,2.344 C67.6,1.049 68.65,-0 69.944,-0 C71.239,-0 72.288,1.049 72.288,2.344 z" fill="#000000" id="connector3pin"/>
    <path d="M84.455,2.344 C84.455,3.638 83.405,4.688 82.111,4.688 C80.816,4.688 79.767,3.638 79.767,2.344 C79.767,1.049 80.816,-0 82.111,-0 C83.405,-0 84.455,1.049 84.455,2.344 z" fill="#000000" id="connector4pin"/>
    <path d="M96.624,2.344 C96.624,3.638 95.575,4.688 94.28,4.688 C92.986,4.688 91.936,3.638 91.936,2.344 C91.936,1.049 92.986,-0 94.28,-0 C95.575,-0 96.624,1.049 96.624,2.344 z" fill="#000000" id="connector5pin"/>
    <path d="M104.104,2.344 C104.104,1.049 105.154,-0 106.448,-0 C107.743,-0 108.792,1.049 108.792,2.344 C108.792,3.638 107.743,4.688 106.448,4.688 C105.154,4.688 104.104,3.637 104.104,2.344" fill="#000000" id="connector6pin"/>
    <path d="M120.96,2.344 C120.96,3.638 119.911,4.688 118.616,4.688 C117.322,4.688 116.272,3.638 116.272,2.344 C116.272,1.049 117.322,-0 118.616,-0 C119.911,-0 120.96,1.049 120.96,2.344 z" fill="#000000" id="connector7pin"/>
    <path d="M133.127,2.344 C133.127,3.638 132.077,4.688 130.783,4.688 C129.488,4.688 128.439,3.638 128.439,2.344 C128.439,1.049 129.488,-0 130.783,-0 C132.077,-0 133.127,1.049 133.127,2.344 z" fill="#000000" id="connector8pin"/>
    <path d="M145.295,2.344 C145.295,3.638 144.245,4.688 142.951,4.688 C141.656,4.688 140.607,3.638 140.607,2.344 C140.607,1.049 141.656,-0 142.951,-0 C144.245,-0 145.295,1.049 145.295,2.344 z" fill="#000000" id="connector9pin"/>
    <path d="M157.464,2.344 C157.464,3.638 156.415,4.688 155.12,4.688 C153.826,4.688 152.776,3.638 152.776,2.344 C152.776,1.049 153.826,-0 155.12,-0 C156.415,-0 157.464,1.049 157.464,2.344 z" fill="#000000" id="connector10pin"/>
    <path d="M169.632,2.344 C169.632,3.638 168.583,4.688 167.288,4.688 C165.994,4.688 164.944,3.638 164.944,2.344 C164.944,1.049 165.994,-0 167.288,-0 C168.583,-0 169.632,1.049 169.632,2.344 z" fill="#000000" id="connector11pin"/>
    <path d="M181.799,2.344 C181.799,3.638 180.749,4.688 179.455,4.688 C178.16,4.688 177.111,3.638 177.111,2.344 C177.111,1.049 178.16,-0 179.455,-0 C180.749,-0 181.799,1.049 181.799,2.344 z" fill="#000000" id="connector12pin"/>
    <path d="M193.967,2.344 C193.967,3.638 192.917,4.688 191.623,4.688 C190.328,4.688 189.279,3.638 189.279,2.344 C189.279,1.049 190.328,-0 191.623,-0 C192.917,-0 193.967,1.049 193.967,2.344 z" fill="#000000" id="connector13pin"/>
    <path d="M206.135,2.344 C206.135,3.638 205.085,4.688 203.791,4.688 C202.496,4.688 201.447,3.638 201.447,2.344 C201.447,1.049 202.496,-0 203.791,-0 C205.085,-0 206.135,1.049 206.135,2.344 z" fill="#000000" id="connector14pin"/>
    <path d="M218.304,2.344 C218.304,3.638 217.255,4.688 215.96,4.688 C214.666,4.688 213.616,3.638 213.616,2.344 C213.616,1.049 214.666,-0 215.96,-0 C217.255,-0 218.304,1.049 218.304,2.344 z" fill="#000000" id="connector15pin"/>
    <path d="M61.209,72.007 L61.209,81.236 L57.514,81.236 L57.514,72.578 Q57.514,71.042 57.076,70.382 Q56.638,69.721 55.648,69.721 Q54.633,69.721 54.061,70.616 Q53.49,71.511 53.49,73.098 L53.49,81.236 L49.796,81.236 L49.796,61.482 L53.49,61.482 L53.49,69.15 Q53.883,67.969 54.836,67.322 Q55.788,66.674 57.133,66.674 Q59.152,66.674 60.18,68.014 Q61.209,69.353 61.209,72.007 z" fill="#000000"/>
    <path d="M79.255,80.538 Q77.96,81.071 76.615,81.338 Q75.269,81.604 73.771,81.604 Q70.203,81.604 68.318,79.694 Q66.433,77.783 66.433,74.19 Q66.433,70.712 68.248,68.693 Q70.064,66.674 73.2,66.674 Q76.361,66.674 78.106,68.547 Q79.852,70.42 79.852,73.822 L79.852,75.333 L70.216,75.333 Q70.229,77.008 71.206,77.834 Q72.184,78.659 74.126,78.659 Q75.409,78.659 76.653,78.291 Q77.897,77.923 79.255,77.123 z M76.107,72.54 Q76.081,71.067 75.351,70.312 Q74.621,69.556 73.2,69.556 Q71.917,69.556 71.156,70.337 Q70.394,71.118 70.254,72.552 z" fill="#000000"/>
    <path d="M87.831,75.307 L87.831,64.339 L84.061,64.339 L84.061,61.482 L91.551,61.482 L91.551,75.307 Q91.551,76.983 92.071,77.681 Q92.592,78.38 93.836,78.38 L96.807,78.38 L96.807,81.236 L92.795,81.236 Q90.142,81.236 88.986,79.865 Q87.831,78.494 87.831,75.307 z" fill="#000000"/>
    <path d="M105.484,75.307 L105.484,64.339 L101.714,64.339 L101.714,61.482 L109.204,61.482 L109.204,75.307 Q109.204,76.983 109.724,77.681 Q110.245,78.38 111.489,78.38 L114.46,78.38 L114.46,81.236 L110.448,81.236 Q107.795,81.236 106.639,79.865 Q105.484,78.494 105.484,75.307 z" fill="#000000"/>
    <path d="M127.045,69.696 Q125.712,69.696 124.951,70.87 Q124.189,72.045 124.189,74.139 Q124.189,76.234 124.951,77.408 Q125.712,78.583 127.045,78.583 Q128.391,78.583 129.153,77.408 Q129.914,76.234 129.914,74.139 Q129.914,72.045 129.153,70.87 Q128.391,69.696 127.045,69.696 z M120.469,74.139 Q120.469,70.699 122.253,68.687 Q124.037,66.674 127.045,66.674 Q130.067,66.674 131.85,68.687 Q133.634,70.699 133.634,74.139 Q133.634,77.58 131.85,79.592 Q130.067,81.604 127.045,81.604 Q124.037,81.604 122.253,79.592 Q120.469,77.58 120.469,74.139 z" fill="#000000"/>
    <path d="M141.731,73.077 L145.704,73.077 L145.704,76.517 L143.216,81.38 L140.474,81.38 L141.731,76.517 z" fill="#000000"/>
    <path d="M174.958,67.017 L178.056,67.017 L179.744,77.91 L181.28,70.737 L184.289,70.737 L185.8,77.91 L187.514,67.017 L190.611,67.017 L188.034,81.236 L184.505,81.236 L182.778,73.847 L181.064,81.236 L177.535,81.236 z" fill="#000000"/>
    <path d="M201.778,69.696 Q200.445,69.696 199.684,70.87 Q198.922,72.045 198.922,74.139 Q198.922,76.234 199.684,77.408 Q200.445,78.583 201.778,78.583 Q203.124,78.583 203.886,77.408 Q204.647,76.234 204.647,74.139 Q204.647,72.045 203.886,70.87 Q203.124,69.696 201.778,69.696 z M195.202,74.139 Q195.202,70.699 196.986,68.687 Q198.77,66.674 201.778,66.674 Q204.8,66.674 206.583,68.687 Q208.367,70.699 208.367,74.139 Q208.367,77.58 206.583,79.592 Q204.8,81.604 201.778,81.604 Q198.77,81.604 196.986,79.592 Q195.202,77.58 195.202,74.139 z" fill="#000000"/>
    <path d="M224.224,70.94 Q223.615,70.382 222.796,70.102 Q221.977,69.823 221,69.823 Q219.819,69.823 218.937,70.236 Q218.054,70.648 217.572,71.435 Q217.267,71.918 217.147,72.603 Q217.026,73.289 217.026,74.685 L217.026,81.236 L213.306,81.236 L213.306,67.017 L217.026,67.017 L217.026,69.226 Q217.572,68.007 218.702,67.341 Q219.832,66.674 221.342,66.674 Q222.104,66.674 222.834,66.859 Q223.564,67.043 224.224,67.398 z" fill="#000000"/>
    <path d="M235.871,75.307 L235.871,64.339 L232.101,64.339 L232.101,61.482 L239.591,61.482 L239.591,75.307 Q239.591,76.983 240.111,77.681 Q240.632,78.38 241.876,78.38 L244.847,78.38 L244.847,81.236 L240.835,81.236 Q238.182,81.236 237.026,79.865 Q235.871,78.494 235.871,75.307 z" fill="#000000"/>
    <path d="M258.654,69.036 L258.654,61.482 L262.361,61.482 L262.361,81.236 L258.654,81.236 L258.654,79.129 Q258.057,80.36 257.112,80.982 Q256.166,81.604 254.883,81.604 Q252.446,81.604 251.1,79.649 Q249.755,77.694 249.755,74.139 Q249.755,70.534 251.119,68.604 Q252.484,66.674 255.01,66.674 Q256.153,66.674 257.061,67.265 Q257.968,67.855 258.654,69.036 z M253.474,74.165 Q253.474,76.221 254.16,77.389 Q254.845,78.557 256.051,78.557 Q257.258,78.557 257.956,77.389 Q258.654,76.221 258.654,74.165 Q258.654,72.108 257.956,70.94 Q257.258,69.772 256.051,69.772 Q254.845,69.772 254.16,70.94 Q253.474,72.108 253.474,74.165 z" fill="#000000"/>
    <path d="M270.397,77.643 L273.786,77.643 L273.786,81.236 L270.397,81.236 z M270.397,62.282 L273.786,62.282 L273.786,70.597 L273.368,75.13 L270.841,75.13 L270.397,70.597 z" fill="#000000"/>
    <path d="M53.78,101.921 Q50.949,100.841 49.946,99.654 Q48.943,98.467 48.943,96.462 Q48.943,93.884 50.593,92.412 Q52.243,90.939 55.125,90.939 Q56.433,90.939 57.741,91.237 Q59.048,91.536 60.33,92.12 L60.33,95.776 Q59.124,94.925 57.88,94.481 Q56.636,94.037 55.417,94.037 Q54.059,94.037 53.335,94.583 Q52.612,95.129 52.612,96.144 Q52.612,96.931 53.138,97.445 Q53.665,97.96 55.341,98.582 L56.953,99.191 Q59.239,100.029 60.318,101.413 Q61.397,102.797 61.397,104.904 Q61.397,107.773 59.702,109.189 Q58.007,110.604 54.579,110.604 Q53.17,110.604 51.755,110.268 Q50.339,109.931 49.019,109.271 L49.019,105.399 Q50.517,106.465 51.92,106.986 Q53.323,107.507 54.694,107.507 Q56.077,107.507 56.839,106.878 Q57.601,106.25 57.601,105.12 Q57.601,104.269 57.093,103.628 Q56.585,102.987 55.62,102.619 z" fill="#000000"/>
    <path d="M74.657,110.236 L70.912,110.236 L70.912,94.557 L66.101,94.557 L66.101,91.282 L79.469,91.282 L79.469,94.557 L74.657,94.557 z" fill="#000000"/>
    <path d="M84.796,94.583 L84.796,91.282 L96.082,91.282 L96.082,94.583 L92.311,94.583 L92.311,106.935 L96.082,106.935 L96.082,110.236 L84.796,110.236 L84.796,106.935 L88.566,106.935 L88.566,94.583 z" fill="#000000"/>
    <path d="M105.775,106.935 L113.76,106.935 L113.76,110.236 L101.725,110.236 L101.725,107.037 L103.756,104.879 Q107.374,101.032 108.149,100.143 Q109.101,99.051 109.52,98.207 Q109.939,97.363 109.939,96.538 Q109.939,95.268 109.171,94.576 Q108.403,93.884 106.994,93.884 Q105.991,93.884 104.74,94.284 Q103.49,94.684 102.131,95.446 L102.131,91.955 Q103.49,91.46 104.791,91.199 Q106.092,90.939 107.286,90.939 Q110.294,90.939 112.015,92.342 Q113.735,93.745 113.735,96.17 Q113.735,97.287 113.36,98.264 Q112.986,99.242 112.072,100.435 Q111.399,101.299 108.377,104.32 Q106.74,105.958 105.775,106.935 z" fill="#000000"/>
    <path d="M124.402,94.659 L124.402,106.859 L125.418,106.859 Q127.627,106.859 128.566,105.469 Q129.506,104.079 129.506,100.74 Q129.506,97.426 128.566,96.043 Q127.627,94.659 125.418,94.659 z M120.657,91.282 L124.669,91.282 Q129.315,91.282 131.359,93.497 Q133.403,95.713 133.403,100.74 Q133.403,105.78 131.359,108.008 Q129.315,110.236 124.669,110.236 L120.657,110.236 z" fill="#000000"/>
    <path d="M163.047,102.421 Q160.216,101.341 159.213,100.154 Q158.21,98.967 158.21,96.962 Q158.21,94.384 159.86,92.912 Q161.51,91.439 164.392,91.439 Q165.7,91.439 167.008,91.737 Q168.315,92.036 169.597,92.62 L169.597,96.276 Q168.391,95.425 167.147,94.981 Q165.903,94.537 164.684,94.537 Q163.326,94.537 162.602,95.083 Q161.879,95.629 161.879,96.644 Q161.879,97.431 162.405,97.945 Q162.932,98.46 164.608,99.082 L166.22,99.691 Q168.506,100.529 169.585,101.913 Q170.664,103.297 170.664,105.404 Q170.664,108.273 168.969,109.689 Q167.274,111.104 163.846,111.104 Q162.437,111.104 161.022,110.768 Q159.606,110.431 158.286,109.771 L158.286,105.899 Q159.784,106.965 161.187,107.486 Q162.59,108.007 163.961,108.007 Q165.344,108.007 166.106,107.378 Q166.868,106.75 166.868,105.62 Q166.868,104.769 166.36,104.128 Q165.852,103.487 164.887,103.119 z" fill="#000000"/>
    <path d="M176.836,94.583 L176.836,91.282 L188.122,91.282 L188.122,94.583 L184.351,94.583 L184.351,106.935 L188.122,106.935 L188.122,110.236 L176.836,110.236 L176.836,106.935 L180.606,106.935 L180.606,94.583 z" fill="#000000"/>
    <path d="M195.163,91.282 L199.187,91.282 L204.468,105.056 L204.468,91.282 L207.769,91.282 L207.769,110.236 L203.77,110.236 L198.464,96.462 L198.464,110.236 L195.163,110.236 z" fill="#000000"/>
  </g>
</svg>
