<?xml version="1.0" encoding="UTF-8"?>
<!DOCTYPE svg PUBLIC "-//W3C//DTD SVG 1.1//EN" "http://www.w3.org/Graphics/SVG/1.1/DTD/svg11.dtd">
<svg version="1.1" xmlns="http://www.w3.org/2000/svg" xmlns:xlink="http://www.w3.org/1999/xlink" x="0" y="0" width="439.603" height="200.316" viewBox="0, 0, 439.603, 200.316">
  <g id="Calque_1" transform="translate(0, -0)">
    <path d="M263.103,0 L421.501,0 C431.499,0 439.603,10.201 439.603,22.785 L439.603,177.531 C439.603,190.115 431.499,200.316 421.501,200.316 L263.103,200.316 C253.105,200.316 245,190.115 245,177.531 L245,22.785 C245,10.201 253.105,0 263.103,0 z" fill="#FFF4B8" fill-opacity="0.5"/>
    <path d="M19.163,0 L186.837,0 C197.42,0 206,10.201 206,22.785 L206,177.531 C206,190.115 197.42,200.316 186.837,200.316 L19.163,200.316 C8.579,200.316 0,190.115 0,177.531 L0,22.785 C0,10.201 8.579,0 19.163,0 z" fill="#FFF4B8" fill-opacity="0.5"/>
    <path d="M55.887,182.422 Q55.74,182.695 55.236,182.758 Q55.194,182.758 54.333,182.8 Q54.48,183.745 55.425,185.152 Q55.971,185.551 55.971,186.202 Q55.971,187.231 54.711,187.231 Q53.514,187.231 53.073,186.622 Q52.926,186.412 52.884,186.055 Q52.884,185.824 52.863,185.572 Q52.674,185.383 51.729,183.136 Q50.007,183.388 47.487,183.85 Q47.235,184.459 46.941,185.614 Q46.983,185.824 46.983,186.013 Q46.983,186.58 46.605,186.885 Q46.227,187.189 45.702,187.189 Q45.114,187.189 44.61,186.748 Q44.106,186.307 44.106,185.719 Q44.106,185.194 44.589,184.774 Q46.164,176.773 48.411,171.544 Q48.369,171.292 48.369,171.04 Q48.369,169.99 49.083,169.654 Q49.377,169.528 49.839,169.528 Q50.721,169.528 51.309,169.801 Q52.065,170.179 52.065,170.935 Q52.065,171.628 51.687,172.174 Q52.086,175.744 53.409,180.406 Q53.535,180.385 54.27,180.196 Q54.711,180.07 54.942,180.07 Q55.215,180.07 55.383,180.196 Q56.118,180.763 56.118,181.582 Q56.118,182.023 55.887,182.422 z M50.847,180.826 Q50.49,179.503 49.713,175.744 Q48.222,178.999 47.949,181.33 z" fill="#000000"/>
    <path d="M60.696,186.811 Q60.276,187.609 59.142,187.609 Q58.092,187.609 57.672,186.895 Q57.546,186.685 57.546,186.433 Q57.546,186.223 57.693,185.74 Q57.84,185.257 57.84,184.942 L57.756,171.376 Q57.756,170.263 57.756,170.242 Q57.819,169.969 58.344,169.79 Q58.869,169.612 59.457,169.612 Q60.318,169.612 60.549,169.927 Q60.78,170.242 60.78,170.578 Q60.78,170.809 60.612,171.344 Q60.444,171.88 60.444,172.216 L60.444,184.816 Q60.444,185.131 60.623,185.645 Q60.801,186.16 60.801,186.391 Q60.801,186.622 60.696,186.811 z" fill="#000000"/>
    <path d="M69.852,175.555 Q69.894,177.361 70.041,181.498 Q70.125,184.417 70.125,185.677 Q70.125,188.449 69.684,189.457 Q69.243,190.465 67.899,190.57 Q66.219,190.717 64.938,189.688 Q64.308,189.499 64.14,189.394 Q63.783,189.184 63.678,188.68 Q63.489,187.693 65.232,187.693 Q65.673,187.693 66.072,187.798 Q66.366,187.861 66.723,188.292 Q67.08,188.722 67.395,188.743 Q68.004,188.785 68.004,187.021 Q68.004,186.265 67.899,184.564 Q67.143,185.845 66.807,186.223 Q66.114,186.937 65.19,186.937 Q63.888,186.937 63.09,185.131 Q62.355,183.472 62.355,181.099 Q62.355,178.663 63.132,176.983 Q64.014,175.093 65.568,175.051 Q66.408,175.03 66.807,175.387 Q67.206,175.744 67.584,176.122 Q67.311,175.366 67.71,174.988 Q67.941,174.757 68.403,174.757 Q68.844,174.757 69.285,174.988 Q69.726,175.219 69.852,175.555 z M67.332,180.91 Q67.416,179.692 67.038,178.6 Q66.618,177.382 65.946,177.382 Q65.4,177.382 64.98,178.6 Q64.602,179.692 64.56,180.91 Q64.518,182.191 64.749,183.22 Q65.043,184.438 65.568,184.438 Q66.03,184.438 66.639,183.251 Q67.248,182.065 67.332,180.91 z" fill="#000000"/>
    <path d="M78.546,175.87 Q79.953,177.298 79.953,180.679 Q79.953,183.304 78.966,185.152 Q77.853,187.231 75.9,187.231 Q73.968,187.231 72.918,185.362 Q71.994,183.724 71.994,181.204 Q71.994,178.978 72.708,177.214 Q73.464,175.324 74.64,174.988 Q75.249,174.82 75.9,174.82 Q77.517,174.82 78.546,175.87 z M76.152,176.878 Q75.459,176.815 74.955,178.18 Q74.514,179.419 74.514,180.784 Q74.514,182.758 74.682,183.577 Q74.976,185.047 75.9,185.194 Q76.488,185.278 76.992,183.577 Q77.475,181.939 77.475,180.07 Q77.475,177.004 76.152,176.878 z" fill="#000000"/>
    <path d="M89.613,175.996 Q89.529,176.437 88.815,176.605 Q87.975,176.815 87.744,177.088 L84.321,181.036 L84.321,184.228 Q84.321,184.69 84.583,185.162 Q84.846,185.635 84.846,185.887 Q84.846,186.139 84.699,186.454 Q84.342,187.252 83.25,187.252 Q82.494,187.252 82.053,186.769 Q81.759,186.454 81.759,185.971 Q81.759,185.803 81.801,185.425 Q81.843,185.047 81.843,184.816 L81.843,176.962 Q81.843,176.773 81.675,176.5 Q81.507,176.227 81.507,176.059 Q81.507,175.933 81.591,175.765 Q81.864,175.261 83.292,175.261 Q84.405,175.261 84.552,175.786 Q84.615,175.996 84.615,176.143 Q84.615,176.374 84.447,176.5 Q84.279,176.626 84.279,176.752 L84.321,177.508 L86.127,175.597 Q86.442,175.24 86.788,174.883 Q87.135,174.526 87.597,174.484 Q88.311,174.421 88.972,174.799 Q89.634,175.177 89.634,175.786 Q89.634,175.891 89.613,175.996 z" fill="#000000"/>
    <path d="M93.96,170.956 Q94.023,171.019 94.023,171.166 Q94.023,171.355 93.897,171.817 Q93.75,172.384 93.708,172.594 Q93.666,172.804 93.75,173.518 Q93.75,173.959 93.487,174.096 Q93.225,174.232 92.826,174.232 Q92.259,174.232 91.671,174.001 Q90.957,173.707 90.957,173.224 Q90.957,173.077 91.083,172.814 Q91.209,172.552 91.23,172.384 Q91.272,172.216 91.23,171.544 Q91.188,171.019 91.44,170.83 Q91.776,170.578 92.637,170.578 Q93.582,170.578 93.96,170.956 z M94.233,176.08 Q94.233,176.374 93.907,176.993 Q93.582,177.613 93.582,178.012 L93.582,184.186 Q93.582,184.606 93.813,185.372 Q94.044,186.139 94.044,186.433 Q94.044,186.853 93.708,187.063 Q93.183,187.399 92.574,187.399 Q91.776,187.399 91.44,186.853 Q90.999,186.181 90.999,182.842 Q90.999,182.044 91.03,180.354 Q91.062,178.663 91.062,177.886 Q91.062,177.592 90.999,177.12 Q90.936,176.647 90.936,176.437 Q90.936,175.744 91.44,175.24 Q91.65,175.03 92.217,175.03 Q92.784,175.03 93.351,175.209 Q93.918,175.387 94.076,175.618 Q94.233,175.849 94.233,176.08 z" fill="#000000"/>
    <path d="M103.116,177.172 Q102.948,177.172 102.591,177.036 Q102.234,176.899 102.045,176.899 Q101.898,176.899 101.751,176.962 L100.974,177.361 L100.974,184.543 Q100.974,184.942 101.405,185.572 Q101.835,186.202 101.751,186.58 Q101.646,187.042 101.132,187.315 Q100.617,187.588 100.029,187.588 Q98.916,187.588 98.496,186.601 Q98.37,186.307 98.349,184.732 Q98.328,183.682 98.37,181.456 Q98.412,178.936 98.412,178.264 Q98.286,178.306 97.992,178.548 Q97.698,178.789 97.404,178.789 Q97.173,178.789 96.816,178.663 Q95.346,178.159 95.346,177.634 Q95.346,177.508 95.409,177.361 Q95.556,177.025 95.955,176.983 Q96.564,176.899 96.69,176.836 Q97.173,176.647 98.454,175.933 L98.454,174.106 Q98.454,173.896 98.339,173.549 Q98.223,173.203 98.223,173.035 Q98.223,172.846 98.328,172.678 Q98.874,171.838 99.798,171.838 Q100.869,171.838 101.31,172.678 Q101.478,173.014 101.478,173.224 Q101.478,173.476 101.226,173.749 Q100.974,174.022 100.974,174.253 L100.974,175.282 Q101.352,175.114 101.814,174.715 Q102.171,174.421 102.423,174.421 Q102.528,174.421 102.654,174.463 Q103.977,174.82 103.977,176.059 Q103.977,176.458 103.736,176.815 Q103.494,177.172 103.116,177.172 z" fill="#000000"/>
    <path d="M113.805,184.942 Q113.931,185.467 113.931,185.614 Q113.931,186.055 113.416,186.339 Q112.902,186.622 112.314,186.622 Q111.411,186.622 111.159,185.95 Q111.054,185.677 111.054,185.488 Q111.054,185.215 111.296,184.9 Q111.537,184.585 111.537,184.312 Q111.789,183.22 111.789,181.162 Q111.789,177.592 111.285,177.508 Q110.907,177.445 110.067,178.705 Q109.185,180.028 108.597,181.666 Q107.904,183.598 108.009,185.068 Q107.946,185.194 107.946,185.32 Q107.946,185.509 108.114,185.855 Q108.282,186.202 108.282,186.412 Q108.282,186.622 108.135,186.811 Q107.568,187.63 107.001,187.63 Q106.413,187.63 105.867,186.706 Q105.552,186.16 105.552,180.427 Q105.552,178.327 105.657,170.872 Q105.657,170.746 105.636,170.483 Q105.615,170.221 105.615,170.074 Q105.636,169.864 105.741,169.696 Q105.972,169.255 106.728,169.255 Q107.4,169.255 107.956,169.612 Q108.513,169.969 108.387,170.452 Q108.366,170.578 108.188,170.746 Q108.009,170.914 108.009,171.082 L108.009,177.844 Q109.206,175.156 111.537,174.988 Q112.797,174.904 113.553,176.878 Q114.246,178.684 114.246,181.309 Q114.246,183.325 113.805,184.942 z" fill="#000000"/>
    <path d="M129.786,186.706 Q129.513,187.483 128.547,187.483 Q127.329,187.483 126.741,186.643 Q126.426,186.181 126.426,183.472 Q126.426,183.073 126.426,182.359 Q126.447,181.624 126.447,181.33 Q126.447,179.86 126.3,179.818 Q125.985,179.692 124.158,185.698 Q124.158,185.719 124.074,186.706 Q124.032,187.315 123.654,187.525 Q123.381,187.672 123.045,187.672 Q122.436,187.672 121.869,187.273 Q121.302,186.874 121.155,186.328 Q120.945,185.551 120.966,183.262 Q121.008,179.923 121.008,180.049 Q120.987,179.167 120.882,179.146 Q120.399,179.944 120.042,180.679 Q119.181,182.443 119.055,183.619 Q118.95,183.871 119.034,184.606 Q119.118,185.236 118.845,185.467 Q118.572,185.698 118.11,185.698 Q117.606,185.698 117.091,185.415 Q116.577,185.131 116.346,184.774 Q116.01,184.249 115.968,181.708 Q115.968,179.23 115.968,176.752 Q115.947,176.542 115.8,176.164 Q115.653,175.786 115.653,175.597 Q115.653,175.408 115.758,175.24 Q116.031,174.82 117.144,174.82 Q118.509,174.82 118.782,175.492 Q118.845,175.639 118.845,175.786 Q118.845,175.975 118.646,176.332 Q118.446,176.689 118.446,176.92 L118.446,179.314 Q119.076,177.991 120.105,175.954 Q120.231,175.681 120.347,175.408 Q120.462,175.135 120.693,174.925 Q120.924,174.715 121.47,174.715 Q122.31,174.715 123.16,175.093 Q124.011,175.471 124.032,175.996 Q124.053,176.542 123.875,176.826 Q123.696,177.109 123.696,177.298 L123.654,181.834 Q123.99,181.078 124.872,178.264 Q125.565,176.122 125.922,175.87 Q126.384,175.534 127.287,175.534 Q128.967,175.534 129.03,176.5 Q129.009,179.062 129.03,185.068 Q129.03,185.299 129.45,185.624 Q129.87,185.95 129.87,186.307 Q129.87,186.475 129.786,186.706 z" fill="#000000"/>
    <path d="M134.532,170.956 Q134.595,171.019 134.595,171.166 Q134.595,171.355 134.469,171.817 Q134.322,172.384 134.28,172.594 Q134.238,172.804 134.322,173.518 Q134.322,173.959 134.06,174.096 Q133.797,174.232 133.398,174.232 Q132.831,174.232 132.243,174.001 Q131.529,173.707 131.529,173.224 Q131.529,173.077 131.655,172.814 Q131.781,172.552 131.802,172.384 Q131.844,172.216 131.802,171.544 Q131.76,171.019 132.012,170.83 Q132.348,170.578 133.209,170.578 Q134.154,170.578 134.532,170.956 z M134.805,176.08 Q134.805,176.374 134.48,176.993 Q134.154,177.613 134.154,178.012 L134.154,184.186 Q134.154,184.606 134.385,185.372 Q134.616,186.139 134.616,186.433 Q134.616,186.853 134.28,187.063 Q133.755,187.399 133.146,187.399 Q132.348,187.399 132.012,186.853 Q131.571,186.181 131.571,182.842 Q131.571,182.044 131.603,180.354 Q131.634,178.663 131.634,177.886 Q131.634,177.592 131.571,177.12 Q131.508,176.647 131.508,176.437 Q131.508,175.744 132.012,175.24 Q132.222,175.03 132.789,175.03 Q133.356,175.03 133.923,175.209 Q134.49,175.387 134.648,175.618 Q134.805,175.849 134.805,176.08 z" fill="#000000"/>
    <path d="M144.003,175.366 Q144.087,175.555 144.087,175.723 Q144.087,175.933 143.919,176.258 Q143.751,176.584 143.751,176.815 L143.751,188.764 Q143.751,189.037 143.887,189.425 Q144.024,189.814 144.024,190.045 Q144.024,190.276 143.94,190.528 Q143.688,191.284 142.638,191.284 Q141.357,191.284 140.916,190.339 Q140.811,190.129 140.811,189.919 Q140.811,189.646 141.084,189.121 Q141.357,188.596 141.357,188.26 L141.357,185.572 Q140.454,186.937 139.593,186.937 Q138.06,186.937 137.01,184.963 Q136.065,183.136 136.065,180.91 Q136.065,178.495 136.674,176.962 Q137.472,174.988 139.215,174.988 Q140.517,174.988 141.483,176.374 Q141.462,176.206 141.357,175.891 Q141.252,175.576 141.252,175.429 Q141.252,175.24 141.357,175.114 Q141.63,174.778 142.449,174.778 Q143.751,174.778 144.003,175.366 z M141.105,180.91 Q141.105,179.629 140.716,178.316 Q140.328,177.004 139.845,177.004 Q138.816,177.004 138.816,179.377 Q138.816,179.65 138.816,180.154 Q138.837,180.679 138.837,180.91 Q138.837,182.233 139.068,183.283 Q139.362,184.564 139.845,184.564 Q140.265,184.564 140.706,183.178 Q141.105,181.876 141.105,180.91 z" fill="#000000"/>
    <path d="M153.642,176.458 Q153.684,176.773 153.516,177.13 Q153.306,177.613 153.264,177.844 Q153.264,182.212 152.907,183.913 Q152.13,187.483 149.61,187.483 Q145.935,187.483 145.935,180.784 Q145.935,178.978 146.208,176.962 Q146.061,176.479 146.061,176.101 Q146.061,175.492 146.46,175.072 Q146.796,174.715 147.447,174.715 Q147.972,174.715 148.434,174.936 Q148.896,175.156 148.98,175.45 Q149.022,175.597 149.022,175.744 Q149.022,176.017 148.791,176.615 Q148.56,177.214 148.602,177.592 Q148.392,178.768 148.392,180.553 Q148.392,182.359 148.623,183.556 Q148.917,184.942 149.442,184.942 Q150.324,184.942 150.597,181.96 Q150.744,180.469 150.744,177.214 Q150.744,177.004 150.681,176.605 Q150.618,176.206 150.618,176.017 Q150.618,175.513 150.996,175.324 Q151.206,175.219 151.584,175.219 Q152.277,175.219 152.865,175.513 Q153.558,175.87 153.642,176.458 z" fill="#000000"/>
    <path d="M162.672,184.501 Q162.504,185.299 161.538,186.202 Q161.391,186.433 160.383,186.811 Q159.228,187.252 158.388,187.189 Q156.813,187.084 155.91,185.383 Q155.091,183.808 155.091,181.519 Q155.091,179.041 156.015,177.172 Q157.044,175.114 158.766,174.862 Q159.102,174.82 159.417,174.82 Q161.916,174.82 162.168,177.886 Q162.294,179.293 161.055,180.952 Q159.711,182.779 157.611,183.514 Q157.842,184.354 157.968,184.606 Q158.262,185.131 158.766,185.131 Q159.249,185.131 159.795,184.753 Q160.257,184.438 160.425,184.144 Q160.509,184.102 160.593,183.672 Q160.677,183.241 161.034,183.052 Q161.16,182.989 161.328,182.989 Q161.832,182.989 162.304,183.482 Q162.777,183.976 162.672,184.501 z M159.375,177.109 Q158.535,177.109 158.01,178.306 Q157.317,179.902 157.443,181.456 Q158.43,181.141 159.27,179.986 Q160.11,178.831 160.11,177.928 Q160.11,177.109 159.375,177.109 z" fill="#000000"/>
    <path d="M321.974,182.422 Q321.827,182.695 321.323,182.758 Q321.281,182.758 320.42,182.8 Q320.567,183.745 321.512,185.152 Q322.058,185.551 322.058,186.202 Q322.058,187.231 320.798,187.231 Q319.601,187.231 319.16,186.622 Q319.013,186.412 318.971,186.055 Q318.971,185.824 318.95,185.572 Q318.761,185.383 317.816,183.136 Q316.094,183.388 313.574,183.85 Q313.322,184.459 313.028,185.614 Q313.07,185.824 313.07,186.013 Q313.07,186.58 312.692,186.885 Q312.314,187.189 311.789,187.189 Q311.201,187.189 310.697,186.748 Q310.193,186.307 310.193,185.719 Q310.193,185.194 310.676,184.774 Q312.251,176.773 314.498,171.544 Q314.456,171.292 314.456,171.04 Q314.456,169.99 315.17,169.654 Q315.464,169.528 315.926,169.528 Q316.808,169.528 317.396,169.801 Q318.152,170.179 318.152,170.935 Q318.152,171.628 317.774,172.174 Q318.173,175.744 319.496,180.406 Q319.622,180.385 320.357,180.196 Q320.798,180.07 321.029,180.07 Q321.302,180.07 321.47,180.196 Q322.205,180.763 322.205,181.582 Q322.205,182.023 321.974,182.422 z M316.934,180.826 Q316.577,179.503 315.8,175.744 Q314.309,178.999 314.036,181.33 z" fill="#000000"/>
    <path d="M331.634,175.996 Q331.55,176.437 330.836,176.605 Q329.996,176.815 329.765,177.088 L326.342,181.036 L326.342,184.228 Q326.342,184.69 326.605,185.162 Q326.867,185.635 326.867,185.887 Q326.867,186.139 326.72,186.454 Q326.363,187.252 325.271,187.252 Q324.515,187.252 324.074,186.769 Q323.78,186.454 323.78,185.971 Q323.78,185.803 323.822,185.425 Q323.864,185.047 323.864,184.816 L323.864,176.962 Q323.864,176.773 323.696,176.5 Q323.528,176.227 323.528,176.059 Q323.528,175.933 323.612,175.765 Q323.885,175.261 325.313,175.261 Q326.426,175.261 326.573,175.786 Q326.636,175.996 326.636,176.143 Q326.636,176.374 326.468,176.5 Q326.3,176.626 326.3,176.752 L326.342,177.508 L328.148,175.597 Q328.463,175.24 328.81,174.883 Q329.156,174.526 329.618,174.484 Q330.332,174.421 330.993,174.799 Q331.655,175.177 331.655,175.786 Q331.655,175.891 331.634,175.996 z" fill="#000000"/>
    <path d="M339.362,186.58 Q339.11,187.147 337.808,187.147 Q336.989,187.147 336.716,186.811 Q336.611,186.706 336.611,186.517 Q336.611,186.37 336.716,186.055 Q336.821,185.74 336.842,185.572 Q335.876,186.937 334.574,186.937 Q332.831,186.937 332.033,184.963 Q331.424,183.451 331.424,181.036 Q331.424,178.81 332.369,176.983 Q333.419,174.988 334.952,174.988 Q335.813,174.988 336.716,176.374 L336.716,173.665 Q336.716,173.329 336.443,172.804 Q336.17,172.279 336.17,172.006 Q336.17,171.796 336.275,171.586 Q336.716,170.641 337.997,170.641 Q339.047,170.641 339.299,171.397 Q339.383,171.649 339.383,171.88 Q339.383,172.111 339.246,172.499 Q339.11,172.888 339.11,173.161 L339.11,185.131 Q339.11,185.362 339.278,185.688 Q339.446,186.013 339.446,186.223 Q339.446,186.391 339.362,186.58 z M336.464,181.036 Q336.464,180.07 336.065,178.768 Q335.624,177.382 335.204,177.382 Q334.721,177.382 334.427,178.663 Q334.196,179.713 334.196,181.036 Q334.196,181.267 334.175,181.792 Q334.175,182.296 334.175,182.569 Q334.175,184.942 335.204,184.942 Q335.687,184.942 336.086,183.577 Q336.464,182.317 336.464,181.036 z" fill="#000000"/>
    <path d="M348.833,176.458 Q348.875,176.773 348.707,177.13 Q348.497,177.613 348.455,177.844 Q348.455,182.212 348.098,183.913 Q347.321,187.483 344.801,187.483 Q341.126,187.483 341.126,180.784 Q341.126,178.978 341.399,176.962 Q341.252,176.479 341.252,176.101 Q341.252,175.492 341.651,175.072 Q341.987,174.715 342.638,174.715 Q343.163,174.715 343.625,174.936 Q344.087,175.156 344.171,175.45 Q344.213,175.597 344.213,175.744 Q344.213,176.017 343.982,176.615 Q343.751,177.214 343.793,177.592 Q343.583,178.768 343.583,180.553 Q343.583,182.359 343.814,183.556 Q344.108,184.942 344.633,184.942 Q345.515,184.942 345.788,181.96 Q345.935,180.469 345.935,177.214 Q345.935,177.004 345.872,176.605 Q345.809,176.206 345.809,176.017 Q345.809,175.513 346.187,175.324 Q346.397,175.219 346.775,175.219 Q347.468,175.219 348.056,175.513 Q348.749,175.87 348.833,176.458 z" fill="#000000"/>
    <path d="M353.726,170.956 Q353.789,171.019 353.789,171.166 Q353.789,171.355 353.663,171.817 Q353.516,172.384 353.474,172.594 Q353.432,172.804 353.516,173.518 Q353.516,173.959 353.254,174.096 Q352.991,174.232 352.592,174.232 Q352.025,174.232 351.437,174.001 Q350.723,173.707 350.723,173.224 Q350.723,173.077 350.849,172.814 Q350.975,172.552 350.996,172.384 Q351.038,172.216 350.996,171.544 Q350.954,171.019 351.206,170.83 Q351.542,170.578 352.403,170.578 Q353.348,170.578 353.726,170.956 z M353.999,176.08 Q353.999,176.374 353.673,176.993 Q353.348,177.613 353.348,178.012 L353.348,184.186 Q353.348,184.606 353.579,185.372 Q353.81,186.139 353.81,186.433 Q353.81,186.853 353.474,187.063 Q352.949,187.399 352.34,187.399 Q351.542,187.399 351.206,186.853 Q350.765,186.181 350.765,182.842 Q350.765,182.044 350.797,180.354 Q350.828,178.663 350.828,177.886 Q350.828,177.592 350.765,177.12 Q350.702,176.647 350.702,176.437 Q350.702,175.744 351.206,175.24 Q351.416,175.03 351.983,175.03 Q352.55,175.03 353.117,175.209 Q353.684,175.387 353.841,175.618 Q353.999,175.849 353.999,176.08 z" fill="#000000"/>
    <path d="M365.36,185.362 Q365.318,185.824 364.751,186.15 Q364.184,186.475 363.491,186.475 Q362.462,186.475 362.084,185.824 Q362.252,179.356 361.706,179.272 Q361.181,179.188 359.144,185.068 Q359.144,185.698 359.144,186.328 Q359.123,187.084 358.734,187.399 Q358.346,187.714 357.905,187.714 Q357.149,187.714 356.288,186.895 Q356.036,186.685 356.015,183.703 Q356.036,185.53 356.036,176.92 Q356.036,176.731 355.994,176.406 Q355.952,176.08 355.952,175.933 Q355.952,175.534 356.162,175.24 Q356.414,174.862 356.96,174.862 Q357.527,174.862 358.146,175.209 Q358.766,175.555 358.892,175.87 Q358.976,176.08 358.976,176.29 Q358.976,176.5 358.808,176.878 Q358.64,177.256 358.64,177.508 L358.64,180.406 Q359.963,177.592 360.635,176.689 Q361.832,175.135 363.344,175.24 Q364.247,175.303 364.625,176.92 Q364.919,178.138 364.94,180.532 Q364.94,182.422 364.94,184.312 Q364.982,184.459 365.234,184.837 Q365.381,185.047 365.36,185.362 z" fill="#000000"/>
    <path d="M373.298,175.87 Q374.705,177.298 374.705,180.679 Q374.705,183.304 373.718,185.152 Q372.605,187.231 370.652,187.231 Q368.72,187.231 367.67,185.362 Q366.746,183.724 366.746,181.204 Q366.746,178.978 367.46,177.214 Q368.216,175.324 369.392,174.988 Q370.001,174.82 370.652,174.82 Q372.269,174.82 373.298,175.87 z M370.904,176.878 Q370.211,176.815 369.707,178.18 Q369.266,179.419 369.266,180.784 Q369.266,182.758 369.434,183.577 Q369.728,185.047 370.652,185.194 Q371.24,185.278 371.744,183.577 Q372.227,181.939 372.227,180.07 Q372.227,177.004 370.904,176.878 z" fill="#000000"/>
    <path d="M13.543,32.164 L13.543,17.584 L16.424,17.584 L16.424,29.625 L22.586,29.625 L22.586,32.164 z" fill="#000000"/>
    <path d="M33.944,31.744 Q33.26,32.096 32.508,32.271 Q31.756,32.447 30.926,32.447 Q27.977,32.447 26.424,30.504 Q24.871,28.56 24.871,24.889 Q24.871,21.207 26.424,19.264 Q27.977,17.32 30.926,17.32 Q31.756,17.32 32.518,17.496 Q33.28,17.672 33.944,18.023 L33.944,21.226 Q33.201,20.543 32.503,20.226 Q31.805,19.908 31.063,19.908 Q29.481,19.908 28.675,21.163 Q27.869,22.418 27.869,24.889 Q27.869,27.35 28.675,28.604 Q29.481,29.859 31.063,29.859 Q31.805,29.859 32.503,29.542 Q33.201,29.225 33.944,28.541 z" fill="#000000"/>
    <path d="M39.647,20.182 L39.647,29.566 L40.428,29.566 Q42.127,29.566 42.85,28.497 Q43.573,27.428 43.573,24.859 Q43.573,22.31 42.85,21.246 Q42.127,20.182 40.428,20.182 z M36.766,17.584 L39.852,17.584 Q43.426,17.584 44.998,19.288 Q46.571,20.992 46.571,24.859 Q46.571,28.736 44.998,30.45 Q43.426,32.164 39.852,32.164 L36.766,32.164 z" fill="#000000"/>
    <path d="M59.51,34.019 L59.51,35.973 L47.469,35.973 L47.469,34.019 z" fill="#000000"/>
    <path d="M70.233,32.164 L61.151,32.164 L61.151,17.584 L70.233,17.584 L70.233,20.123 L64.032,20.123 L64.032,23.268 L69.647,23.268 L69.647,25.807 L64.032,25.807 L64.032,29.625 L70.233,29.625 z" fill="#000000"/>
    <path d="M78.768,20.269 L78.768,21.226 L82.127,21.226 L82.127,23.424 L78.768,23.424 L78.768,32.164 L75.907,32.164 L75.907,23.424 L73.25,23.424 L73.25,21.226 L75.907,21.226 L75.907,20.465 Q75.907,18.492 76.727,17.73 Q77.547,16.969 79.774,16.969 L82.127,16.969 L82.127,19.166 L79.891,19.166 Q79.246,19.166 79.017,19.4 Q78.787,19.635 78.768,20.269 z" fill="#000000"/>
    <path d="M90.809,20.269 L90.809,21.226 L94.168,21.226 L94.168,23.424 L90.809,23.424 L90.809,32.164 L87.948,32.164 L87.948,23.424 L85.291,23.424 L85.291,21.226 L87.948,21.226 L87.948,20.465 Q87.948,18.492 88.768,17.73 Q89.588,16.969 91.815,16.969 L94.168,16.969 L94.168,19.166 L91.932,19.166 Q91.287,19.166 91.058,19.4 Q90.828,19.635 90.809,20.269 z" fill="#000000"/>
    <path d="M102.469,27.027 Q100.867,27.027 100.233,27.437 Q99.598,27.848 99.598,28.844 Q99.598,29.586 100.037,30.025 Q100.477,30.465 101.229,30.465 Q102.362,30.465 102.987,29.61 Q103.612,28.756 103.612,27.223 L103.612,27.027 z M106.453,25.924 L106.453,32.164 L103.612,32.164 L103.612,30.943 Q103.094,31.666 102.284,32.057 Q101.473,32.447 100.496,32.447 Q98.631,32.447 97.591,31.461 Q96.551,30.475 96.551,28.707 Q96.551,26.793 97.791,25.88 Q99.032,24.967 101.629,24.967 L103.612,24.967 L103.612,24.488 Q103.612,23.795 103.109,23.438 Q102.606,23.082 101.629,23.082 Q100.604,23.082 99.642,23.341 Q98.68,23.6 97.635,24.166 L97.635,21.725 Q98.582,21.334 99.559,21.148 Q100.535,20.963 101.629,20.963 Q104.295,20.963 105.374,22.047 Q106.453,23.131 106.453,25.924 z" fill="#000000"/>
    <path d="M118.035,31.607 Q117.313,32.027 116.483,32.237 Q115.653,32.447 114.696,32.447 Q112.166,32.447 110.741,30.924 Q109.315,29.4 109.315,26.705 Q109.315,24 110.75,22.472 Q112.186,20.943 114.715,20.943 Q115.594,20.943 116.409,21.148 Q117.225,21.353 118.035,21.783 L118.035,24.4 Q117.41,23.863 116.663,23.575 Q115.916,23.287 115.116,23.287 Q113.719,23.287 112.967,24.176 Q112.215,25.064 112.215,26.705 Q112.215,28.346 112.967,29.225 Q113.719,30.103 115.116,30.103 Q115.946,30.103 116.668,29.825 Q117.391,29.547 118.035,28.98 z" fill="#000000"/>
    <path d="M130.477,31.627 Q129.481,32.037 128.446,32.242 Q127.41,32.447 126.258,32.447 Q123.514,32.447 122.064,30.977 Q120.614,29.508 120.614,26.744 Q120.614,24.068 122.01,22.516 Q123.407,20.963 125.819,20.963 Q128.25,20.963 129.593,22.403 Q130.936,23.844 130.936,26.461 L130.936,27.623 L123.524,27.623 Q123.534,28.912 124.285,29.547 Q125.037,30.182 126.532,30.182 Q127.518,30.182 128.475,29.898 Q129.432,29.615 130.477,29 z M128.055,25.475 Q128.035,24.342 127.474,23.761 Q126.912,23.18 125.819,23.18 Q124.832,23.18 124.246,23.78 Q123.66,24.381 123.553,25.484 z" fill="#000000"/>
    <path d="M142.996,24.244 Q142.528,23.814 141.898,23.6 Q141.268,23.385 140.516,23.385 Q139.608,23.385 138.929,23.702 Q138.25,24.019 137.879,24.625 Q137.645,24.996 137.552,25.523 Q137.459,26.051 137.459,27.125 L137.459,32.164 L134.598,32.164 L134.598,21.226 L137.459,21.226 L137.459,22.926 Q137.879,21.988 138.748,21.476 Q139.617,20.963 140.78,20.963 Q141.366,20.963 141.927,21.104 Q142.489,21.246 142.996,21.519 z" fill="#000000"/>
    <path d="M152.821,16.988 Q151.532,19.322 150.907,21.51 Q150.282,23.697 150.282,25.885 Q150.282,28.053 150.907,30.255 Q151.532,32.457 152.821,34.801 L150.594,34.801 Q149.041,32.545 148.289,30.352 Q147.537,28.16 147.537,25.885 Q147.537,23.619 148.294,21.417 Q149.051,19.215 150.594,16.988 z" fill="#000000"/>
    <path d="M171.056,16.988 L173.282,16.988 Q174.825,19.215 175.582,21.417 Q176.339,23.619 176.339,25.885 Q176.339,28.16 175.587,30.352 Q174.835,32.545 173.282,34.801 L171.056,34.801 Q172.345,32.457 172.97,30.255 Q173.595,28.053 173.595,25.885 Q173.595,23.697 172.97,21.51 Q172.345,19.322 171.056,16.988 z" fill="#000000"/>
    <path d="M271.087,27.603 L271.087,19.166 L268.187,19.166 L268.187,16.969 L273.949,16.969 L273.949,27.603 Q273.949,28.893 274.349,29.43 Q274.749,29.967 275.706,29.967 L277.992,29.967 L277.992,32.164 L274.906,32.164 Q272.865,32.164 271.976,31.109 Q271.087,30.055 271.087,27.603 z" fill="#000000"/>
    <path d="M289.71,31.607 Q288.988,32.027 288.158,32.237 Q287.328,32.447 286.37,32.447 Q283.841,32.447 282.415,30.924 Q280.99,29.4 280.99,26.705 Q280.99,24 282.425,22.472 Q283.861,20.943 286.39,20.943 Q287.269,20.943 288.084,21.148 Q288.9,21.353 289.71,21.783 L289.71,24.4 Q289.085,23.863 288.338,23.575 Q287.591,23.287 286.79,23.287 Q285.394,23.287 284.642,24.176 Q283.89,25.064 283.89,26.705 Q283.89,28.346 284.642,29.225 Q285.394,30.103 286.79,30.103 Q287.62,30.103 288.343,29.825 Q289.066,29.547 289.71,28.98 z" fill="#000000"/>
    <path d="M299.115,22.779 L299.115,16.969 L301.966,16.969 L301.966,32.164 L299.115,32.164 L299.115,30.543 Q298.656,31.49 297.928,31.969 Q297.201,32.447 296.214,32.447 Q294.339,32.447 293.304,30.943 Q292.269,29.439 292.269,26.705 Q292.269,23.932 293.319,22.447 Q294.369,20.963 296.312,20.963 Q297.191,20.963 297.889,21.417 Q298.587,21.871 299.115,22.779 z M295.13,26.725 Q295.13,28.307 295.658,29.205 Q296.185,30.103 297.113,30.103 Q298.04,30.103 298.578,29.205 Q299.115,28.307 299.115,26.725 Q299.115,25.143 298.578,24.244 Q298.04,23.346 297.113,23.346 Q296.185,23.346 295.658,24.244 Q295.13,25.143 295.13,26.725 z" fill="#000000"/>
    <path d="M307.816,28.58 L311.068,28.58 L311.068,32.164 L307.816,32.164 z" fill="#000000"/>
    <path d="M325.833,31.607 Q325.111,32.027 324.281,32.237 Q323.451,32.447 322.494,32.447 Q319.964,32.447 318.538,30.924 Q317.113,29.4 317.113,26.705 Q317.113,24 318.548,22.472 Q319.984,20.943 322.513,20.943 Q323.392,20.943 324.207,21.148 Q325.023,21.353 325.833,21.783 L325.833,24.4 Q325.208,23.863 324.461,23.575 Q323.714,23.287 322.913,23.287 Q321.517,23.287 320.765,24.176 Q320.013,25.064 320.013,26.705 Q320.013,28.346 320.765,29.225 Q321.517,30.103 322.913,30.103 Q323.744,30.103 324.466,29.825 Q325.189,29.547 325.833,28.98 z" fill="#000000"/>
    <path d="M331.292,27.603 L331.292,19.166 L328.392,19.166 L328.392,16.969 L334.154,16.969 L334.154,27.603 Q334.154,28.893 334.554,29.43 Q334.954,29.967 335.911,29.967 L338.197,29.967 L338.197,32.164 L335.111,32.164 Q333.07,32.164 332.181,31.109 Q331.292,30.055 331.292,27.603 z" fill="#000000"/>
    <path d="M350.316,31.627 Q349.32,32.037 348.285,32.242 Q347.249,32.447 346.097,32.447 Q343.353,32.447 341.903,30.977 Q340.453,29.508 340.453,26.744 Q340.453,24.068 341.849,22.516 Q343.245,20.963 345.658,20.963 Q348.089,20.963 349.432,22.403 Q350.775,23.844 350.775,26.461 L350.775,27.623 L343.363,27.623 Q343.372,28.912 344.124,29.547 Q344.876,30.182 346.37,30.182 Q347.357,30.182 348.314,29.898 Q349.271,29.615 350.316,29 z M347.894,25.475 Q347.874,24.342 347.313,23.761 Q346.751,23.18 345.658,23.18 Q344.671,23.18 344.085,23.78 Q343.499,24.381 343.392,25.484 z" fill="#000000"/>
    <path d="M358.431,27.027 Q356.829,27.027 356.195,27.437 Q355.56,27.848 355.56,28.844 Q355.56,29.586 355.999,30.025 Q356.439,30.465 357.191,30.465 Q358.324,30.465 358.949,29.61 Q359.574,28.756 359.574,27.223 L359.574,27.027 z M362.415,25.924 L362.415,32.164 L359.574,32.164 L359.574,30.943 Q359.056,31.666 358.245,32.057 Q357.435,32.447 356.458,32.447 Q354.593,32.447 353.553,31.461 Q352.513,30.475 352.513,28.707 Q352.513,26.793 353.753,25.88 Q354.994,24.967 357.591,24.967 L359.574,24.967 L359.574,24.488 Q359.574,23.795 359.071,23.438 Q358.568,23.082 357.591,23.082 Q356.566,23.082 355.604,23.341 Q354.642,23.6 353.597,24.166 L353.597,21.725 Q354.544,21.334 355.521,21.148 Q356.497,20.963 357.591,20.963 Q360.257,20.963 361.336,22.047 Q362.415,23.131 362.415,25.924 z" fill="#000000"/>
    <path d="M374.876,24.244 Q374.408,23.814 373.778,23.6 Q373.148,23.385 372.396,23.385 Q371.488,23.385 370.809,23.702 Q370.13,24.019 369.759,24.625 Q369.525,24.996 369.432,25.523 Q369.339,26.051 369.339,27.125 L369.339,32.164 L366.478,32.164 L366.478,21.226 L369.339,21.226 L369.339,22.926 Q369.759,21.988 370.628,21.476 Q371.497,20.963 372.66,20.963 Q373.245,20.963 373.807,21.104 Q374.369,21.246 374.876,21.519 z" fill="#000000"/>
    <path d="M384.701,16.988 Q383.411,19.322 382.786,21.51 Q382.161,23.697 382.161,25.885 Q382.161,28.053 382.786,30.255 Q383.411,32.457 384.701,34.801 L382.474,34.801 Q380.921,32.545 380.169,30.352 Q379.417,28.16 379.417,25.885 Q379.417,23.619 380.174,21.417 Q380.931,19.215 382.474,16.988 z" fill="#000000"/>
    <path d="M393.698,16.988 L395.924,16.988 Q397.467,19.215 398.224,21.417 Q398.981,23.619 398.981,25.885 Q398.981,28.16 398.229,30.352 Q397.477,32.545 395.924,34.801 L393.698,34.801 Q394.987,32.457 395.612,30.255 Q396.237,28.053 396.237,25.885 Q396.237,23.697 395.612,21.51 Q394.987,19.322 393.698,16.988 z" fill="#000000"/>
    <path d="M407.106,28.58 L410.358,28.58 L410.358,31.226 L408.444,34.967 L406.344,34.967 L407.106,31.226 z M407.106,21.783 L410.358,21.783 L410.358,25.348 L407.106,25.348 z" fill="#000000"/>
  </g>
</svg>
