<?xml version="1.0" encoding="UTF-8"?>
<!DOCTYPE svg PUBLIC "-//W3C//DTD SVG 1.1//EN" "http://www.w3.org/Graphics/SVG/1.1/DTD/svg11.dtd">
<svg version="1.1" xmlns="http://www.w3.org/2000/svg" xmlns:xlink="http://www.w3.org/1999/xlink" x="0" y="0" width="685.17" height="323.429" viewBox="0, 0, 685.17, 323.429">
  <g id="Calque_1" transform="translate(-0.107, 0)">
    <path d="M187.371,52.617 L517.416,52.617 L517.416,306.25 L187.371,306.25 L187.371,52.617 z" fill="#CCFCB8" fill-opacity="0.199"/>
    <path d="M517.416,51.092 L560.317,51.092 L560.317,304.725 L517.416,304.725 L517.416,51.092 z" fill="#FF6E67" fill-opacity="0.199"/>
    <path d="M144.47,51.092 L187.371,51.092 L187.371,304.725 L144.47,304.725 L144.47,51.092 z" fill="#FF6E67" fill-opacity="0.199"/>
    <path d="M559.317,52.617 L685.277,52.617 L685.277,306.25 L559.317,306.25 L559.317,52.617 z" fill="#CBCBCB" fill-opacity="0.201"/>
    <path d="M61.988,53.317 L146.47,53.317 L146.47,306.95 L61.988,306.95 L61.988,53.317 z" fill="#CBCBCB" fill-opacity="0.201"/>
    <path d="M653.41,321.5 L653.41,315.265 L650.822,315.265 L650.822,314.273 L657.507,314.273 L657.507,315.265 L654.919,315.265 L654.919,321.5 z" fill="#000000"/>
    <path d="M662.883,321.319 Q661.853,321.622 660.93,321.622 Q659.587,321.622 658.811,320.86 Q658.034,320.099 658.034,318.78 Q658.034,317.535 658.745,316.776 Q659.455,316.017 660.622,316.017 Q661.799,316.017 662.341,316.759 Q662.883,317.501 662.883,319.107 L659.558,319.107 Q659.704,320.641 661.242,320.641 Q661.97,320.641 662.883,320.304 z M659.538,318.292 L661.462,318.292 Q661.462,316.92 660.578,316.92 Q659.68,316.92 659.538,318.292 z" fill="#000000"/>
    <path d="M664.377,321.5 L664.377,316.139 L665.764,316.139 L665.764,317.149 Q666.399,316.017 667.57,316.017 Q668.176,316.017 668.567,316.314 Q668.957,316.612 669.045,317.149 Q669.797,316.017 670.861,316.017 Q672.331,316.017 672.331,317.638 L672.331,321.5 L670.944,321.5 L670.944,318.111 Q670.944,317.159 670.31,317.159 Q669.66,317.159 669.045,318.097 L669.045,321.5 L667.658,321.5 L667.658,318.111 Q667.658,317.154 667.019,317.154 Q666.379,317.154 665.764,318.097 L665.764,321.5 z" fill="#000000"/>
    <path d="M674.074,323.429 L674.074,316.139 L675.52,316.139 L675.52,317.149 Q676.076,316.017 677.273,316.017 Q678.239,316.017 678.794,316.725 Q679.348,317.433 679.348,318.673 Q679.348,320.021 678.723,320.821 Q678.098,321.622 677.048,321.622 Q676.203,321.622 675.52,320.958 L675.52,323.429 z M675.52,320.099 Q676.047,320.685 676.643,320.685 Q677.175,320.685 677.492,320.169 Q677.81,319.654 677.81,318.795 Q677.81,317.149 676.75,317.149 Q676.11,317.149 675.52,317.975 z" fill="#000000"/>
    <path d="M680.559,321.329 L680.559,320.27 Q681.633,320.719 682.395,320.719 Q683.283,320.719 683.283,320.113 Q683.283,319.723 682.551,319.43 L682.063,319.234 Q681.267,318.912 680.925,318.541 Q680.583,318.17 680.583,317.623 Q680.583,316.861 681.164,316.439 Q681.745,316.017 682.79,316.017 Q683.444,316.017 684.348,316.207 L684.348,317.223 Q683.479,316.92 682.907,316.92 Q682.009,316.92 682.009,317.477 Q682.009,317.843 682.673,318.097 L683.093,318.258 Q684.035,318.614 684.404,318.98 Q684.773,319.347 684.773,319.923 Q684.773,320.68 684.145,321.151 Q683.518,321.622 682.512,321.622 Q681.545,321.622 680.559,321.329 z" fill="#000000"/>
    <path d="M61.673,304.85 L683.492,304.85 M61.927,302.05 L61.927,306.25 M103.227,302.05 L103.227,306.25 M144.527,302.05 L144.527,306.25 M186.527,302.05 L186.527,306.25 M227.827,302.05 L227.827,306.25 M269.127,302.05 L269.127,306.25 M310.427,302.05 L310.427,306.25 M351.727,302.05 L351.727,306.25 M393.027,302.05 L393.027,306.25 M435.027,302.05 L435.027,306.25 M476.327,302.05 L476.327,306.25 M517.627,302.05 L517.627,306.25 M558.927,302.05 L558.927,306.25 M600.227,302.05 L600.227,306.25 M641.527,302.05 L641.527,306.25" fill-opacity="0" stroke="#000000" stroke-width="0.7"/>
    <path d="M685.277,304.85 L681.077,302.75 L683.177,304.85 L681.077,306.95 z M685.277,304.85" fill="#000000"/>
    <path d="M61.927,305.515 L61.927,1.785 M64.727,304.85 L60.527,304.85 M64.727,254.45 L60.527,254.45 M64.727,204.05 L60.527,204.05 M64.727,153.65 L60.527,153.65 M64.727,103.25 L60.527,103.25 M64.727,52.85 L60.527,52.85" fill-opacity="0" stroke="#000000" stroke-width="0.7"/>
    <path d="M61.927,-0 L59.827,4.2 L61.927,2.1 L64.027,4.2 z M61.927,-0" fill="#000000"/>
    <path d="M55.11,308.452 Q54.171,308.452 53.591,307.568 Q53.01,306.684 53.01,305.261 Q53.01,303.825 53.595,302.952 Q54.179,302.078 55.135,302.078 Q56.09,302.078 56.675,302.952 Q57.259,303.825 57.259,305.248 Q57.259,306.709 56.675,307.58 Q56.09,308.452 55.11,308.452 z M55.118,307.845 Q56.402,307.845 56.402,305.236 Q56.402,302.685 55.135,302.685 Q53.872,302.685 53.872,305.261 Q53.872,307.845 55.118,307.845 z" fill="#000000"/>
    <path d="M53.74,257.783 L53.74,257.176 L54.954,257.176 L54.954,252.385 L53.74,252.689 L53.74,252.065 L55.766,251.561 L55.766,257.176 L56.981,257.176 L56.981,257.783 z" fill="#000000"/>
    <path d="M53.174,207.266 L53.174,206.556 Q53.527,205.732 54.602,204.76 L55.065,204.346 Q55.959,203.538 55.959,202.742 Q55.959,202.233 55.654,201.942 Q55.348,201.651 54.815,201.651 Q54.183,201.651 53.326,202.139 L53.326,201.425 Q54.134,201.044 54.93,201.044 Q55.783,201.044 56.3,201.503 Q56.816,201.963 56.816,202.721 Q56.816,203.267 56.556,203.689 Q56.296,204.112 55.586,204.715 L55.274,204.981 Q54.302,205.806 54.15,206.556 L56.788,206.556 L56.788,207.266 z" fill="#000000"/>
    <path d="M53.33,156.704 L53.33,155.949 Q54.2,156.294 54.7,156.294 Q55.278,156.294 55.641,155.955 Q56.004,155.617 56.004,155.08 Q56.004,153.8 54.212,153.8 L53.892,153.8 L53.892,153.254 L54.175,153.25 Q55.857,153.25 55.857,152.065 Q55.857,151.134 54.749,151.134 Q54.142,151.134 53.412,151.474 L53.412,150.769 Q54.13,150.527 54.807,150.527 Q56.669,150.527 56.669,151.934 Q56.669,153.004 55.401,153.46 Q56.87,153.8 56.87,155.067 Q56.87,155.925 56.304,156.413 Q55.738,156.901 54.749,156.901 Q54.187,156.901 53.33,156.704 z" fill="#000000"/>
    <path d="M55.639,106.233 L55.639,104.514 L52.908,104.514 L52.908,103.903 L55.639,100.163 L56.398,100.163 L56.398,103.854 L57.21,103.854 L57.21,104.514 L56.398,104.514 L56.398,106.233 z M53.699,103.854 L55.693,103.854 L55.693,101.155 z" fill="#000000"/>
    <path d="M53.498,55.741 L53.498,55.019 Q54.101,55.261 54.647,55.261 Q55.246,55.261 55.588,54.908 Q55.931,54.555 55.931,53.936 Q55.931,52.57 54.048,52.57 Q53.835,52.57 53.601,52.599 L53.601,49.646 L56.673,49.646 L56.673,50.351 L54.31,50.351 L54.31,51.951 Q55.479,51.951 56.136,52.488 Q56.792,53.025 56.792,53.977 Q56.792,54.863 56.195,55.365 Q55.598,55.868 54.54,55.868 Q54.081,55.868 53.498,55.741 z" fill="#000000"/>
    <path d="M61.988,52.617 L144.814,52.617 L144.814,305.2 L186.226,305.2 L186.226,52.617 L227.638,52.617 L227.638,305.2 L269.051,305.2 L269.051,52.617 L393.289,52.617 L393.289,305.2 L434.701,305.2 L434.701,52.617 L476.114,52.617 L476.114,305.2 L517.527,305.2 L517.527,52.617 L683.177,52.617" fill-opacity="0" stroke="#FF1802" stroke-width="1.4" stroke-linecap="round" stroke-linejoin="round"/>
    <path d="M103.384,97.532 L103.384,95.843 L106.275,95.843 L106.275,85.178 L103.384,85.901 L103.384,84.163 L109.176,82.718 L109.176,95.843 L112.066,95.843 L112.066,97.532 z" fill="#000000"/>
    <path d="M613.513,97.532 L613.513,95.843 L616.403,95.843 L616.403,85.178 L613.513,85.901 L613.513,84.163 L619.304,82.718 L619.304,95.843 L622.194,95.843 L622.194,97.532 z" fill="#000000"/>
    <path d="M165.856,97.893 Q163.395,97.893 161.857,95.784 Q160.319,93.675 160.319,90.305 Q160.319,86.897 161.862,84.807 Q163.405,82.718 165.925,82.718 Q168.425,82.718 169.972,84.803 Q171.52,86.887 171.52,90.266 Q171.52,93.733 169.972,95.813 Q168.425,97.893 165.856,97.893 z M165.885,96.087 Q168.454,96.087 168.454,90.305 Q168.454,84.524 165.925,84.524 Q163.395,84.524 163.395,90.296 Q163.395,96.087 165.885,96.087 z" fill="#D11D00"/>
    <path d="M535.082,97.532 L535.082,95.843 L537.972,95.843 L537.972,85.178 L535.082,85.901 L535.082,84.163 L540.873,82.718 L540.873,95.843 L543.763,95.843 L543.763,97.532 z" fill="#D11D00"/>
    <path d="M248.7,97.893 Q246.239,97.893 244.701,95.784 Q243.163,93.675 243.163,90.305 Q243.163,86.897 244.706,84.807 Q246.249,82.718 248.769,82.718 Q251.269,82.718 252.816,84.803 Q254.364,86.887 254.364,90.266 Q254.364,93.733 252.816,95.813 Q251.269,97.893 248.7,97.893 z M248.729,96.087 Q251.298,96.087 251.298,90.305 Q251.298,84.524 248.769,84.524 Q246.239,84.524 246.239,90.296 Q246.239,96.087 248.729,96.087 z" fill="#000000"/>
    <path d="M414.316,97.893 Q411.855,97.893 410.317,95.784 Q408.779,93.675 408.779,90.305 Q408.779,86.897 410.322,84.807 Q411.865,82.718 414.385,82.718 Q416.885,82.718 418.432,84.803 Q419.98,86.887 419.98,90.266 Q419.98,93.733 418.432,95.813 Q416.885,97.893 414.316,97.893 z M414.346,96.087 Q416.914,96.087 416.914,90.305 Q416.914,84.524 414.385,84.524 Q411.855,84.524 411.855,90.296 Q411.855,96.087 414.346,96.087 z" fill="#000000"/>
    <path d="M496.316,97.893 Q493.855,97.893 492.317,95.784 Q490.779,93.675 490.779,90.305 Q490.779,86.897 492.322,84.807 Q493.865,82.718 496.385,82.718 Q498.885,82.718 500.432,84.803 Q501.98,86.887 501.98,90.266 Q501.98,93.733 500.432,95.813 Q498.885,97.893 496.316,97.893 z M496.346,96.087 Q498.914,96.087 498.914,90.305 Q498.914,84.524 496.385,84.524 Q493.855,84.524 493.855,90.296 Q493.855,96.087 496.346,96.087 z" fill="#000000"/>
    <path d="M286.596,97.532 L286.596,95.843 L289.486,95.843 L289.486,85.178 L286.596,85.901 L286.596,84.163 L292.387,82.718 L292.387,95.843 L295.277,95.843 L295.277,97.532 z" fill="#000000"/>
    <path d="M327.596,97.532 L327.596,95.843 L330.486,95.843 L330.486,85.178 L327.596,85.901 L327.596,84.163 L333.387,82.718 L333.387,95.843 L336.277,95.843 L336.277,97.532 z" fill="#000000"/>
    <path d="M364.344,97.532 L364.344,95.843 L367.235,95.843 L367.235,85.178 L364.344,85.901 L364.344,84.163 L370.135,82.718 L370.135,95.843 L373.026,95.843 L373.026,97.532 z" fill="#000000"/>
    <path d="M451.596,97.532 L451.596,95.843 L454.486,95.843 L454.486,85.178 L451.596,85.901 L451.596,84.163 L457.387,82.718 L457.387,95.843 L460.277,95.843 L460.277,97.532 z" fill="#000000"/>
    <path d="M203.005,97.532 L203.005,95.843 L205.895,95.843 L205.895,85.178 L203.005,85.901 L203.005,84.163 L208.796,82.718 L208.796,95.843 L211.686,95.843 L211.686,97.532 z" fill="#000000"/>
    <path d="M280.913,172.408 L280.913,154.342 L285.894,154.342 L290.239,167.049 L294.719,154.342 L299.09,154.342 L299.09,172.408 L295.623,172.408 L295.623,158.773 L291.216,171.199 L288.189,171.199 L283.867,158.59 L283.867,172.408 z" fill="#000000"/>
    <path d="M314.519,171.956 Q311.944,172.713 309.636,172.713 Q306.28,172.713 304.339,170.809 Q302.398,168.905 302.398,165.609 Q302.398,162.496 304.174,160.598 Q305.95,158.699 308.867,158.699 Q311.809,158.699 313.164,160.555 Q314.519,162.41 314.519,166.427 L306.206,166.427 Q306.572,170.26 310.418,170.26 Q312.237,170.26 314.519,169.417 z M306.157,164.388 L310.967,164.388 Q310.967,160.958 308.758,160.958 Q306.511,160.958 306.157,164.388 z" fill="#000000"/>
    <path d="M317.901,171.981 L317.901,169.332 Q320.586,170.455 322.49,170.455 Q324.712,170.455 324.712,168.941 Q324.712,167.965 322.881,167.232 L321.66,166.744 Q319.671,165.938 318.816,165.011 Q317.962,164.083 317.962,162.716 Q317.962,160.811 319.414,159.755 Q320.867,158.699 323.479,158.699 Q325.115,158.699 327.373,159.176 L327.373,161.715 Q325.2,160.958 323.772,160.958 Q321.526,160.958 321.526,162.349 Q321.526,163.265 323.186,163.9 L324.236,164.303 Q326.592,165.194 327.514,166.109 Q328.435,167.025 328.435,168.465 Q328.435,170.357 326.867,171.535 Q325.298,172.713 322.783,172.713 Q320.366,172.713 317.901,171.981 z" fill="#000000"/>
    <path d="M332.036,171.981 L332.036,169.332 Q334.722,170.455 336.626,170.455 Q338.848,170.455 338.848,168.941 Q338.848,167.965 337.017,167.232 L335.796,166.744 Q333.806,165.938 332.952,165.011 Q332.097,164.083 332.097,162.716 Q332.097,160.811 333.55,159.755 Q335.003,158.699 337.615,158.699 Q339.251,158.699 341.509,159.176 L341.509,161.715 Q339.336,160.958 337.908,160.958 Q335.662,160.958 335.662,162.349 Q335.662,163.265 337.322,163.9 L338.372,164.303 Q340.728,165.194 341.649,166.109 Q342.571,167.025 342.571,168.465 Q342.571,170.357 341.002,171.535 Q339.434,172.713 336.919,172.713 Q334.502,172.713 332.036,171.981 z" fill="#000000"/>
    <path d="M353.093,170.968 Q351.287,172.713 349.224,172.713 Q347.466,172.713 346.367,171.639 Q345.269,170.565 345.269,168.856 Q345.269,166.634 347.045,165.432 Q348.821,164.229 352.129,164.229 L353.093,164.229 L353.093,163.009 Q353.093,160.921 350.713,160.921 Q348.601,160.921 346.441,162.117 L346.441,159.627 Q348.894,158.699 351.299,158.699 Q356.56,158.699 356.56,162.887 L356.56,168.819 Q356.56,170.394 357.573,170.394 Q357.757,170.394 358.05,170.345 L358.135,172.371 Q356.988,172.713 356.109,172.713 Q353.887,172.713 353.252,170.968 z M353.093,169.027 L353.093,166.304 L352.239,166.304 Q348.736,166.304 348.736,168.502 Q348.736,169.246 349.242,169.753 Q349.749,170.26 350.493,170.26 Q351.763,170.26 353.093,169.027 z" fill="#000000"/>
    <path d="M361.321,176.571 L361.614,173.946 Q363.848,174.971 365.874,174.971 Q367.876,174.971 368.767,174.117 Q369.658,173.262 369.658,171.346 L369.658,169.515 Q368.34,172.408 365.301,172.408 Q362.908,172.408 361.504,170.62 Q360.1,168.831 360.1,165.78 Q360.1,162.569 361.675,160.634 Q363.25,158.699 365.862,158.699 Q367.913,158.699 369.658,160.36 L370.037,159.005 L373.284,159.005 L373.284,169.234 Q373.284,172.298 372.912,173.653 Q372.539,175.008 371.465,175.96 Q369.658,177.523 366.375,177.523 Q364.043,177.523 361.321,176.571 z M369.658,167.415 L369.658,162.471 Q368.352,160.994 366.924,160.994 Q365.557,160.994 364.751,162.24 Q363.946,163.485 363.946,165.584 Q363.946,169.515 366.472,169.515 Q368.218,169.515 369.658,167.415 z" fill="#000000"/>
    <path d="M388.628,171.956 Q386.052,172.713 383.745,172.713 Q380.388,172.713 378.447,170.809 Q376.507,168.905 376.507,165.609 Q376.507,162.496 378.283,160.598 Q380.059,158.699 382.976,158.699 Q385.918,158.699 387.273,160.555 Q388.628,162.41 388.628,166.427 L380.315,166.427 Q380.681,170.26 384.527,170.26 Q386.345,170.26 388.628,169.417 z M380.266,164.388 L385.076,164.388 Q385.076,160.958 382.866,160.958 Q380.62,160.958 380.266,164.388 z" fill="#000000"/>
    <path d="M531.788,150.266 L531.788,141.594 L534.735,141.594 Q536.042,141.594 536.724,142.086 Q537.407,142.578 537.407,143.522 Q537.407,145.086 535.327,145.737 Q537.759,146.328 537.759,148.121 Q537.759,149.159 537.047,149.712 Q536.335,150.266 535.005,150.266 z M533.487,145.203 L533.915,145.203 Q534.677,145.203 535.125,144.828 Q535.573,144.453 535.573,143.809 Q535.573,143.211 535.213,142.997 Q534.852,142.784 533.85,142.784 L533.487,142.784 z M533.487,149.036 L533.874,149.036 Q535.011,149.036 535.441,148.792 Q535.872,148.549 535.872,147.905 Q535.872,147.243 535.295,146.803 Q534.718,146.364 533.839,146.364 L533.487,146.364 z" fill="#000000"/>
    <path d="M539.347,150.266 L539.347,143.832 L541.081,143.832 L541.081,150.266 z M539.347,142.748 L539.347,141.301 L541.081,141.301 L541.081,142.748 z" fill="#000000"/>
    <path d="M546.565,150.231 Q545.944,150.412 545.587,150.412 Q543.331,150.412 543.331,148.303 L543.331,144.916 L542.61,144.916 L542.61,143.832 L543.331,143.832 L543.331,142.748 L545.065,142.549 L545.065,143.832 L546.442,143.832 L546.442,144.916 L545.065,144.916 L545.065,148.075 Q545.065,149.258 546.032,149.258 Q546.255,149.258 546.565,149.176 z" fill="#000000"/>
    <path d="M536.508,165.266 L536.508,164.053 Q535.84,165.412 534.404,165.412 Q533.244,165.412 532.582,164.563 Q531.92,163.713 531.92,162.225 Q531.92,160.608 532.667,159.647 Q533.414,158.686 534.674,158.686 Q535.682,158.686 536.508,159.483 L536.508,156.014 L538.248,156.014 L538.248,165.266 z M536.508,160.514 Q535.881,159.811 535.166,159.811 Q534.527,159.811 534.146,160.426 Q533.766,161.041 533.766,162.078 Q533.766,164.053 535.031,164.053 Q535.805,164.053 536.508,163.063 z" fill="#000000"/>
    <path d="M545.648,165.049 Q544.412,165.412 543.305,165.412 Q541.693,165.412 540.762,164.498 Q539.83,163.584 539.83,162.002 Q539.83,160.508 540.683,159.597 Q541.535,158.686 542.936,158.686 Q544.348,158.686 544.998,159.577 Q545.648,160.467 545.648,162.395 L541.658,162.395 Q541.834,164.235 543.68,164.235 Q544.553,164.235 545.648,163.83 z M541.635,161.416 L543.943,161.416 Q543.943,159.77 542.883,159.77 Q541.805,159.77 541.635,161.416 z" fill="#000000"/>
    <path d="M526.148,180.061 L526.148,178.789 Q527.437,179.328 528.351,179.328 Q529.418,179.328 529.418,178.602 Q529.418,178.133 528.539,177.782 L527.953,177.547 Q526.998,177.161 526.588,176.715 Q526.177,176.27 526.177,175.614 Q526.177,174.7 526.875,174.193 Q527.572,173.686 528.826,173.686 Q529.611,173.686 530.695,173.914 L530.695,175.133 Q529.652,174.77 528.966,174.77 Q527.888,174.77 527.888,175.438 Q527.888,175.877 528.685,176.182 L529.189,176.375 Q530.32,176.803 530.762,177.243 Q531.205,177.682 531.205,178.373 Q531.205,179.282 530.452,179.847 Q529.699,180.412 528.492,180.412 Q527.332,180.412 526.148,180.061 z" fill="#000000"/>
    <path d="M536.42,180.231 Q535.798,180.412 535.441,180.412 Q533.185,180.412 533.185,178.303 L533.185,174.916 L532.464,174.916 L532.464,173.832 L533.185,173.832 L533.185,172.748 L534.92,172.549 L534.92,173.832 L536.297,173.832 L536.297,174.916 L534.92,174.916 L534.92,178.075 Q534.92,179.258 535.886,179.258 Q536.109,179.258 536.42,179.176 z" fill="#000000"/>
    <path d="M540.668,180.412 Q539.162,180.412 538.274,179.501 Q537.386,178.59 537.386,177.049 Q537.386,175.491 538.28,174.588 Q539.173,173.686 540.709,173.686 Q542.25,173.686 543.143,174.588 Q544.037,175.491 544.037,177.037 Q544.037,178.62 543.14,179.516 Q542.244,180.412 540.668,180.412 z M540.697,179.328 Q542.191,179.328 542.191,177.037 Q542.191,175.989 541.796,175.379 Q541.4,174.77 540.709,174.77 Q540.023,174.77 539.628,175.379 Q539.232,175.989 539.232,177.049 Q539.232,178.098 539.625,178.713 Q540.017,179.328 540.697,179.328 z" fill="#000000"/>
    <path d="M545.63,182.58 L545.63,173.832 L547.365,173.832 L547.365,175.045 Q548.033,173.686 549.468,173.686 Q550.629,173.686 551.294,174.536 Q551.959,175.385 551.959,176.873 Q551.959,178.491 551.209,179.452 Q550.459,180.412 549.199,180.412 Q548.185,180.412 547.365,179.616 L547.365,182.58 z M547.365,178.584 Q547.998,179.287 548.713,179.287 Q549.351,179.287 549.732,178.669 Q550.113,178.051 550.113,177.02 Q550.113,175.045 548.841,175.045 Q548.074,175.045 547.365,176.036 z" fill="#000000"/>
    <path d="M596.918,150.266 L596.918,141.594 L602.338,141.594 L602.338,142.784 L598.723,142.784 L598.723,145.203 L601.687,145.203 L601.687,146.364 L598.723,146.364 L598.723,149.036 L602.613,149.036 L602.613,150.266 z M598.723,140.868 L600.135,138.987 L601.723,138.987 L599.842,140.868 z" fill="#000000"/>
    <path d="M607.441,150.231 Q606.82,150.412 606.463,150.412 Q604.207,150.412 604.207,148.303 L604.207,144.916 L603.486,144.916 L603.486,143.832 L604.207,143.832 L604.207,142.748 L605.941,142.549 L605.941,143.832 L607.318,143.832 L607.318,144.916 L605.941,144.916 L605.941,148.075 Q605.941,149.258 606.908,149.258 Q607.131,149.258 607.441,149.176 z" fill="#000000"/>
    <path d="M612.141,149.575 Q611.273,150.412 610.283,150.412 Q609.439,150.412 608.912,149.897 Q608.385,149.381 608.385,148.561 Q608.385,147.495 609.237,146.917 Q610.09,146.34 611.678,146.34 L612.141,146.34 L612.141,145.754 Q612.141,144.752 610.998,144.752 Q609.984,144.752 608.947,145.327 L608.947,144.131 Q610.125,143.686 611.279,143.686 Q613.805,143.686 613.805,145.696 L613.805,148.543 Q613.805,149.299 614.291,149.299 Q614.379,149.299 614.519,149.276 L614.56,150.248 Q614.01,150.412 613.588,150.412 Q612.521,150.412 612.217,149.575 z M612.141,148.643 L612.141,147.336 L611.73,147.336 Q610.049,147.336 610.049,148.391 Q610.049,148.748 610.292,148.992 Q610.535,149.235 610.893,149.235 Q611.502,149.235 612.141,148.643 z" fill="#000000"/>
    <path d="M619.359,150.231 Q618.738,150.412 618.381,150.412 Q616.125,150.412 616.125,148.303 L616.125,144.916 L615.404,144.916 L615.404,143.832 L616.125,143.832 L616.125,142.748 L617.859,142.549 L617.859,143.832 L619.236,143.832 L619.236,144.916 L617.859,144.916 L617.859,148.075 Q617.859,149.258 618.826,149.258 Q619.049,149.258 619.359,149.176 z" fill="#000000"/>
    <path d="M628.91,150.266 L628.91,149.053 Q628.242,150.412 626.807,150.412 Q625.646,150.412 624.984,149.563 Q624.322,148.713 624.322,147.225 Q624.322,145.608 625.069,144.647 Q625.816,143.686 627.076,143.686 Q628.084,143.686 628.91,144.483 L628.91,141.014 L630.65,141.014 L630.65,150.266 z M628.91,145.514 Q628.283,144.811 627.568,144.811 Q626.93,144.811 626.549,145.426 Q626.168,146.041 626.168,147.078 Q626.168,149.053 627.434,149.053 Q628.207,149.053 628.91,148.063 z" fill="#000000"/>
    <path d="M638.051,150.049 Q636.814,150.412 635.707,150.412 Q634.096,150.412 633.164,149.498 Q632.232,148.584 632.232,147.002 Q632.232,145.508 633.085,144.597 Q633.937,143.686 635.338,143.686 Q636.75,143.686 637.4,144.577 Q638.051,145.467 638.051,147.395 L634.06,147.395 Q634.236,149.235 636.082,149.235 Q636.955,149.235 638.051,148.83 z M634.037,146.416 L636.346,146.416 Q636.346,144.77 635.285,144.77 Q634.207,144.77 634.037,146.416 z" fill="#000000"/>
    <path d="M600.938,165.266 L600.938,158.832 L602.672,158.832 L602.672,160.045 Q603.346,158.686 604.723,158.686 Q604.887,158.686 605.045,158.721 L605.045,160.268 Q604.676,160.133 604.36,160.133 Q603.323,160.133 602.672,161.182 L602.672,165.266 z" fill="#000000"/>
    <path d="M611.631,165.049 Q610.395,165.412 609.288,165.412 Q607.676,165.412 606.745,164.498 Q605.813,163.584 605.813,162.002 Q605.813,160.508 606.666,159.597 Q607.518,158.686 608.918,158.686 Q610.331,158.686 610.981,159.577 Q611.631,160.467 611.631,162.395 L607.641,162.395 Q607.817,164.235 609.663,164.235 Q610.536,164.235 611.631,163.83 z M607.618,161.416 L609.926,161.416 Q609.926,159.77 608.866,159.77 Q607.788,159.77 607.618,161.416 z" fill="#000000"/>
    <path d="M613.424,167.58 L613.424,158.832 L615.159,158.832 L615.159,160.045 Q615.827,158.686 617.262,158.686 Q618.422,158.686 619.087,159.536 Q619.752,160.385 619.752,161.873 Q619.752,163.491 619.002,164.452 Q618.252,165.412 616.993,165.412 Q615.979,165.412 615.159,164.616 L615.159,167.58 z M615.159,163.584 Q615.792,164.287 616.506,164.287 Q617.145,164.287 617.526,163.669 Q617.907,163.051 617.907,162.02 Q617.907,160.045 616.635,160.045 Q615.868,160.045 615.159,161.036 z" fill="#000000"/>
    <path d="M624.077,165.412 Q622.571,165.412 621.683,164.501 Q620.795,163.59 620.795,162.049 Q620.795,160.491 621.689,159.588 Q622.583,158.686 624.118,158.686 Q625.659,158.686 626.552,159.588 Q627.446,160.491 627.446,162.037 Q627.446,163.62 626.549,164.516 Q625.653,165.412 624.077,165.412 z M624.106,164.328 Q625.6,164.328 625.6,162.037 Q625.6,160.989 625.205,160.379 Q624.809,159.77 624.118,159.77 Q623.432,159.77 623.037,160.379 Q622.641,160.989 622.641,162.049 Q622.641,163.098 623.034,163.713 Q623.426,164.328 624.106,164.328 z" fill="#000000"/>
    <path d="M628.87,165.061 L628.87,163.789 Q630.159,164.328 631.073,164.328 Q632.139,164.328 632.139,163.602 Q632.139,163.133 631.26,162.782 L630.674,162.547 Q629.719,162.161 629.309,161.715 Q628.899,161.27 628.899,160.614 Q628.899,159.7 629.596,159.193 Q630.293,158.686 631.547,158.686 Q632.333,158.686 633.417,158.914 L633.417,160.133 Q632.374,159.77 631.688,159.77 Q630.61,159.77 630.61,160.438 Q630.61,160.877 631.407,161.182 L631.911,161.375 Q633.042,161.803 633.484,162.243 Q633.926,162.682 633.926,163.373 Q633.926,164.282 633.173,164.847 Q632.42,165.412 631.213,165.412 Q630.053,165.412 628.87,165.061 z" fill="#000000"/>
    <path d="M606.949,195.266 L606.949,186.594 L608.754,186.594 L608.754,195.266 z" fill="#000000"/>
    <path d="M614.976,195.266 L614.976,194.053 Q614.308,195.412 612.873,195.412 Q611.713,195.412 611.05,194.563 Q610.388,193.713 610.388,192.225 Q610.388,190.608 611.135,189.647 Q611.883,188.686 613.142,188.686 Q614.15,188.686 614.976,189.483 L614.976,186.014 L616.716,186.014 L616.716,195.266 z M614.976,190.514 Q614.349,189.811 613.634,189.811 Q612.996,189.811 612.615,190.426 Q612.234,191.041 612.234,192.078 Q612.234,194.053 613.5,194.053 Q614.273,194.053 614.976,193.063 z" fill="#000000"/>
    <path d="M618.879,195.266 L618.879,186.014 L620.613,186.014 L620.613,195.266 z" fill="#000000"/>
    <path d="M628.019,195.049 Q626.783,195.412 625.675,195.412 Q624.064,195.412 623.133,194.498 Q622.201,193.584 622.201,192.002 Q622.201,190.508 623.053,189.597 Q623.906,188.686 625.306,188.686 Q626.718,188.686 627.369,189.577 Q628.019,190.467 628.019,192.395 L624.029,192.395 Q624.205,194.235 626.05,194.235 Q626.924,194.235 628.019,193.83 z M624.006,191.416 L626.314,191.416 Q626.314,189.77 625.254,189.77 Q624.175,189.77 624.006,191.416 z" fill="#000000"/>
    <path d="M83.85,150.266 L83.85,141.594 L89.27,141.594 L89.27,142.784 L85.655,142.784 L85.655,145.203 L88.62,145.203 L88.62,146.364 L85.655,146.364 L85.655,149.036 L89.545,149.036 L89.545,150.266 z M85.655,140.868 L87.067,138.987 L88.655,138.987 L86.774,140.868 z" fill="#000000"/>
    <path d="M94.373,150.231 Q93.752,150.412 93.395,150.412 Q91.139,150.412 91.139,148.303 L91.139,144.916 L90.418,144.916 L90.418,143.832 L91.139,143.832 L91.139,142.748 L92.873,142.549 L92.873,143.832 L94.25,143.832 L94.25,144.916 L92.873,144.916 L92.873,148.075 Q92.873,149.258 93.84,149.258 Q94.063,149.258 94.373,149.176 z" fill="#000000"/>
    <path d="M99.073,149.575 Q98.205,150.412 97.215,150.412 Q96.371,150.412 95.844,149.897 Q95.317,149.381 95.317,148.561 Q95.317,147.495 96.169,146.917 Q97.022,146.34 98.61,146.34 L99.073,146.34 L99.073,145.754 Q99.073,144.752 97.93,144.752 Q96.916,144.752 95.879,145.327 L95.879,144.131 Q97.057,143.686 98.211,143.686 Q100.737,143.686 100.737,145.696 L100.737,148.543 Q100.737,149.299 101.223,149.299 Q101.311,149.299 101.452,149.276 L101.493,150.248 Q100.942,150.412 100.52,150.412 Q99.453,150.412 99.149,149.575 z M99.073,148.643 L99.073,147.336 L98.662,147.336 Q96.981,147.336 96.981,148.391 Q96.981,148.748 97.224,148.992 Q97.467,149.235 97.825,149.235 Q98.434,149.235 99.073,148.643 z" fill="#000000"/>
    <path d="M106.291,150.231 Q105.67,150.412 105.313,150.412 Q103.057,150.412 103.057,148.303 L103.057,144.916 L102.336,144.916 L102.336,143.832 L103.057,143.832 L103.057,142.748 L104.791,142.549 L104.791,143.832 L106.168,143.832 L106.168,144.916 L104.791,144.916 L104.791,148.075 Q104.791,149.258 105.758,149.258 Q105.981,149.258 106.291,149.176 z" fill="#000000"/>
    <path d="M115.842,150.266 L115.842,149.053 Q115.174,150.412 113.739,150.412 Q112.578,150.412 111.916,149.563 Q111.254,148.713 111.254,147.225 Q111.254,145.608 112.001,144.647 Q112.748,143.686 114.008,143.686 Q115.016,143.686 115.842,144.483 L115.842,141.014 L117.582,141.014 L117.582,150.266 z M115.842,145.514 Q115.215,144.811 114.5,144.811 Q113.862,144.811 113.481,145.426 Q113.1,146.041 113.1,147.078 Q113.1,149.053 114.366,149.053 Q115.139,149.053 115.842,148.063 z" fill="#000000"/>
    <path d="M124.983,150.049 Q123.746,150.412 122.639,150.412 Q121.028,150.412 120.096,149.498 Q119.164,148.584 119.164,147.002 Q119.164,145.508 120.017,144.597 Q120.87,143.686 122.27,143.686 Q123.682,143.686 124.332,144.577 Q124.983,145.467 124.983,147.395 L120.993,147.395 Q121.168,149.235 123.014,149.235 Q123.887,149.235 124.983,148.83 z M120.969,146.416 L123.278,146.416 Q123.278,144.77 122.217,144.77 Q121.139,144.77 120.969,146.416 z" fill="#000000"/>
    <path d="M87.87,165.266 L87.87,158.832 L89.604,158.832 L89.604,160.045 Q90.278,158.686 91.655,158.686 Q91.819,158.686 91.977,158.721 L91.977,160.268 Q91.608,160.133 91.292,160.133 Q90.255,160.133 89.604,161.182 L89.604,165.266 z" fill="#000000"/>
    <path d="M98.563,165.049 Q97.327,165.412 96.22,165.412 Q94.608,165.412 93.677,164.498 Q92.745,163.584 92.745,162.002 Q92.745,160.508 93.598,159.597 Q94.45,158.686 95.85,158.686 Q97.263,158.686 97.913,159.577 Q98.563,160.467 98.563,162.395 L94.573,162.395 Q94.749,164.235 96.595,164.235 Q97.468,164.235 98.563,163.83 z M94.55,161.416 L96.858,161.416 Q96.858,159.77 95.798,159.77 Q94.72,159.77 94.55,161.416 z" fill="#000000"/>
    <path d="M100.356,167.58 L100.356,158.832 L102.091,158.832 L102.091,160.045 Q102.759,158.686 104.194,158.686 Q105.354,158.686 106.019,159.536 Q106.684,160.385 106.684,161.873 Q106.684,163.491 105.934,164.452 Q105.184,165.412 103.925,165.412 Q102.911,165.412 102.091,164.616 L102.091,167.58 z M102.091,163.584 Q102.723,164.287 103.438,164.287 Q104.077,164.287 104.458,163.669 Q104.839,163.051 104.839,162.02 Q104.839,160.045 103.567,160.045 Q102.8,160.045 102.091,161.036 z" fill="#000000"/>
    <path d="M111.009,165.412 Q109.503,165.412 108.615,164.501 Q107.727,163.59 107.727,162.049 Q107.727,160.491 108.621,159.588 Q109.515,158.686 111.05,158.686 Q112.591,158.686 113.484,159.588 Q114.378,160.491 114.378,162.037 Q114.378,163.62 113.481,164.516 Q112.585,165.412 111.009,165.412 z M111.038,164.328 Q112.532,164.328 112.532,162.037 Q112.532,160.989 112.137,160.379 Q111.741,159.77 111.05,159.77 Q110.364,159.77 109.969,160.379 Q109.573,160.989 109.573,162.049 Q109.573,163.098 109.966,163.713 Q110.358,164.328 111.038,164.328 z" fill="#000000"/>
    <path d="M115.802,165.061 L115.802,163.789 Q117.091,164.328 118.005,164.328 Q119.071,164.328 119.071,163.602 Q119.071,163.133 118.192,162.782 L117.606,162.547 Q116.651,162.161 116.241,161.715 Q115.831,161.27 115.831,160.614 Q115.831,159.7 116.528,159.193 Q117.225,158.686 118.479,158.686 Q119.265,158.686 120.348,158.914 L120.348,160.133 Q119.306,159.77 118.62,159.77 Q117.542,159.77 117.542,160.438 Q117.542,160.877 118.339,161.182 L118.843,161.375 Q119.973,161.803 120.416,162.243 Q120.858,162.682 120.858,163.373 Q120.858,164.282 120.105,164.847 Q119.352,165.412 118.145,165.412 Q116.985,165.412 115.802,165.061 z" fill="#000000"/>
    <path d="M93.881,195.266 L93.881,186.594 L95.686,186.594 L95.686,195.266 z" fill="#000000"/>
    <path d="M101.908,195.266 L101.908,194.053 Q101.24,195.412 99.805,195.412 Q98.645,195.412 97.983,194.563 Q97.32,193.713 97.32,192.225 Q97.32,190.608 98.067,189.647 Q98.815,188.686 100.074,188.686 Q101.082,188.686 101.908,189.483 L101.908,186.014 L103.649,186.014 L103.649,195.266 z M101.908,190.514 Q101.281,189.811 100.567,189.811 Q99.928,189.811 99.547,190.426 Q99.166,191.041 99.166,192.078 Q99.166,194.053 100.432,194.053 Q101.205,194.053 101.908,193.063 z" fill="#000000"/>
    <path d="M105.811,195.266 L105.811,186.014 L107.545,186.014 L107.545,195.266 z" fill="#000000"/>
    <path d="M114.951,195.049 Q113.715,195.412 112.608,195.412 Q110.996,195.412 110.065,194.498 Q109.133,193.584 109.133,192.002 Q109.133,190.508 109.985,189.597 Q110.838,188.686 112.238,188.686 Q113.651,188.686 114.301,189.577 Q114.951,190.467 114.951,192.395 L110.961,192.395 Q111.137,194.235 112.983,194.235 Q113.856,194.235 114.951,193.83 z M110.938,191.416 L113.246,191.416 Q113.246,189.77 112.186,189.77 Q111.108,189.77 110.938,191.416 z" fill="#000000"/>
    <path d="M158.842,150.266 L158.842,141.594 L161.789,141.594 Q163.096,141.594 163.778,142.086 Q164.461,142.578 164.461,143.522 Q164.461,145.086 162.381,145.737 Q164.813,146.328 164.813,148.121 Q164.813,149.159 164.101,149.712 Q163.389,150.266 162.059,150.266 z M160.541,145.203 L160.969,145.203 Q161.731,145.203 162.179,144.828 Q162.627,144.453 162.627,143.809 Q162.627,143.211 162.267,142.997 Q161.906,142.784 160.904,142.784 L160.541,142.784 z M160.541,149.036 L160.928,149.036 Q162.065,149.036 162.495,148.792 Q162.926,148.549 162.926,147.905 Q162.926,147.243 162.349,146.803 Q161.772,146.364 160.893,146.364 L160.541,146.364 z" fill="#000000"/>
    <path d="M166.401,150.266 L166.401,143.832 L168.135,143.832 L168.135,150.266 z M166.401,142.748 L166.401,141.301 L168.135,141.301 L168.135,142.748 z" fill="#000000"/>
    <path d="M173.619,150.231 Q172.998,150.412 172.641,150.412 Q170.385,150.412 170.385,148.303 L170.385,144.916 L169.664,144.916 L169.664,143.832 L170.385,143.832 L170.385,142.748 L172.119,142.549 L172.119,143.832 L173.496,143.832 L173.496,144.916 L172.119,144.916 L172.119,148.075 Q172.119,149.258 173.086,149.258 Q173.309,149.258 173.619,149.176 z" fill="#000000"/>
    <path d="M163.562,165.266 L163.562,164.053 Q162.894,165.412 161.458,165.412 Q160.298,165.412 159.636,164.563 Q158.974,163.713 158.974,162.225 Q158.974,160.608 159.721,159.647 Q160.468,158.686 161.728,158.686 Q162.736,158.686 163.562,159.483 L163.562,156.014 L165.302,156.014 L165.302,165.266 z M163.562,160.514 Q162.935,159.811 162.22,159.811 Q161.581,159.811 161.2,160.426 Q160.82,161.041 160.82,162.078 Q160.82,164.053 162.085,164.053 Q162.859,164.053 163.562,163.063 z" fill="#000000"/>
    <path d="M172.702,165.049 Q171.466,165.412 170.359,165.412 Q168.747,165.412 167.816,164.498 Q166.884,163.584 166.884,162.002 Q166.884,160.508 167.737,159.597 Q168.589,158.686 169.99,158.686 Q171.402,158.686 172.052,159.577 Q172.702,160.467 172.702,162.395 L168.712,162.395 Q168.888,164.235 170.734,164.235 Q171.607,164.235 172.702,163.83 z M168.689,161.416 L170.997,161.416 Q170.997,159.77 169.937,159.77 Q168.859,159.77 168.689,161.416 z" fill="#000000"/>
    <path d="M152.323,180.061 L152.323,178.789 Q153.612,179.328 154.526,179.328 Q155.593,179.328 155.593,178.602 Q155.593,178.133 154.714,177.782 L154.128,177.547 Q153.173,177.161 152.762,176.715 Q152.352,176.27 152.352,175.614 Q152.352,174.7 153.05,174.193 Q153.747,173.686 155.001,173.686 Q155.786,173.686 156.87,173.914 L156.87,175.133 Q155.827,174.77 155.141,174.77 Q154.063,174.77 154.063,175.438 Q154.063,175.877 154.86,176.182 L155.364,176.375 Q156.495,176.803 156.937,177.243 Q157.38,177.682 157.38,178.373 Q157.38,179.282 156.627,179.847 Q155.874,180.412 154.667,180.412 Q153.507,180.412 152.323,180.061 z" fill="#000000"/>
    <path d="M162.595,180.231 Q161.973,180.412 161.616,180.412 Q159.36,180.412 159.36,178.303 L159.36,174.916 L158.639,174.916 L158.639,173.832 L159.36,173.832 L159.36,172.748 L161.095,172.549 L161.095,173.832 L162.471,173.832 L162.471,174.916 L161.095,174.916 L161.095,178.075 Q161.095,179.258 162.061,179.258 Q162.284,179.258 162.595,179.176 z" fill="#000000"/>
    <path d="M167.294,179.575 Q166.427,180.412 165.436,180.412 Q164.593,180.412 164.065,179.897 Q163.538,179.381 163.538,178.561 Q163.538,177.495 164.39,176.917 Q165.243,176.34 166.831,176.34 L167.294,176.34 L167.294,175.754 Q167.294,174.752 166.151,174.752 Q165.137,174.752 164.1,175.327 L164.1,174.131 Q165.278,173.686 166.432,173.686 Q168.958,173.686 168.958,175.696 L168.958,178.543 Q168.958,179.299 169.444,179.299 Q169.532,179.299 169.673,179.276 L169.714,180.248 Q169.163,180.412 168.741,180.412 Q167.675,180.412 167.37,179.575 z M167.294,178.643 L167.294,177.336 L166.884,177.336 Q165.202,177.336 165.202,178.391 Q165.202,178.748 165.445,178.992 Q165.688,179.235 166.046,179.235 Q166.655,179.235 167.294,178.643 z" fill="#000000"/>
    <path d="M171.196,180.266 L171.196,173.832 L172.93,173.832 L172.93,175.045 Q173.604,173.686 174.981,173.686 Q175.145,173.686 175.304,173.721 L175.304,175.268 Q174.934,175.133 174.618,175.133 Q173.581,175.133 172.93,176.182 L172.93,180.266 z" fill="#000000"/>
    <path d="M179.968,180.231 Q179.346,180.412 178.989,180.412 Q176.733,180.412 176.733,178.303 L176.733,174.916 L176.012,174.916 L176.012,173.832 L176.733,173.832 L176.733,172.748 L178.468,172.549 L178.468,173.832 L179.845,173.832 L179.845,174.916 L178.468,174.916 L178.468,178.075 Q178.468,179.258 179.434,179.258 Q179.657,179.258 179.968,179.176 z" fill="#000000"/>
    <path d="M193.172,129.865 L193.172,117.58 L195.728,117.58 L195.728,128.122 L201.265,128.122 L201.265,129.865 z" fill="#000000"/>
    <path d="M202.369,129.757 L202.369,127.649 Q204.353,128.479 205.764,128.479 Q206.752,128.479 207.32,128.039 Q207.889,127.599 207.889,126.844 Q207.889,126.246 207.532,125.835 Q207.175,125.424 206.179,124.86 L205.357,124.403 Q203.705,123.473 203.025,122.623 Q202.344,121.772 202.344,120.635 Q202.344,119.115 203.46,118.194 Q204.577,117.273 206.411,117.273 Q207.881,117.273 209.723,117.696 L209.723,119.663 Q207.839,118.958 206.743,118.958 Q205.897,118.958 205.386,119.335 Q204.876,119.713 204.876,120.327 Q204.876,120.834 205.233,121.216 Q205.59,121.597 206.577,122.154 L207.457,122.643 Q209.234,123.639 209.906,124.478 Q210.578,125.316 210.578,126.52 Q210.578,128.23 209.308,129.201 Q208.038,130.172 205.805,130.172 Q204.328,130.172 202.369,129.757 z" fill="#000000"/>
    <path d="M212.77,129.865 L212.77,117.58 L216.945,117.58 Q218.796,117.58 219.763,118.277 Q220.73,118.974 220.73,120.311 Q220.73,122.527 217.783,123.449 Q221.228,124.287 221.228,126.827 Q221.228,128.296 220.22,129.081 Q219.211,129.865 217.327,129.865 z M215.177,122.693 L215.783,122.693 Q216.862,122.693 217.497,122.162 Q218.132,121.631 218.132,120.718 Q218.132,119.871 217.622,119.568 Q217.111,119.265 215.692,119.265 L215.177,119.265 z M215.177,128.122 L215.725,128.122 Q217.335,128.122 217.945,127.777 Q218.555,127.433 218.555,126.52 Q218.555,125.582 217.738,124.959 Q216.92,124.337 215.675,124.337 L215.177,124.337 z" fill="#000000"/>
    <path d="M480.298,129.865 L480.298,117.58 L483.684,117.58 L486.639,126.221 L489.686,117.58 L492.658,117.58 L492.658,129.865 L490.3,129.865 L490.3,120.593 L487.303,129.043 L485.245,129.043 L482.306,120.469 L482.306,129.865 z" fill="#000000"/>
    <path d="M495.04,129.757 L495.04,127.649 Q497.024,128.479 498.435,128.479 Q499.423,128.479 499.991,128.039 Q500.56,127.599 500.56,126.844 Q500.56,126.246 500.203,125.835 Q499.846,125.424 498.85,124.86 L498.028,124.403 Q496.376,123.473 495.696,122.623 Q495.015,121.772 495.015,120.635 Q495.015,119.115 496.131,118.194 Q497.248,117.273 499.082,117.273 Q500.552,117.273 502.394,117.696 L502.394,119.663 Q500.51,118.958 499.414,118.958 Q498.568,118.958 498.057,119.335 Q497.547,119.713 497.547,120.327 Q497.547,120.834 497.904,121.216 Q498.261,121.597 499.248,122.154 L500.128,122.643 Q501.905,123.639 502.577,124.478 Q503.249,125.316 503.249,126.52 Q503.249,128.23 501.979,129.201 Q500.709,130.172 498.476,130.172 Q496.999,130.172 495.04,129.757 z" fill="#000000"/>
    <path d="M505.441,129.865 L505.441,117.58 L509.616,117.58 Q511.467,117.58 512.434,118.277 Q513.401,118.974 513.401,120.311 Q513.401,122.527 510.454,123.449 Q513.899,124.287 513.899,126.827 Q513.899,128.296 512.891,129.081 Q511.882,129.865 509.998,129.865 z M507.848,122.693 L508.454,122.693 Q509.533,122.693 510.168,122.162 Q510.803,121.631 510.803,120.718 Q510.803,119.871 510.293,119.568 Q509.782,119.265 508.363,119.265 L507.848,119.265 z M507.848,128.122 L508.396,128.122 Q510.006,128.122 510.616,127.777 Q511.226,127.433 511.226,126.52 Q511.226,125.582 510.409,124.959 Q509.591,124.337 508.346,124.337 L507.848,124.337 z" fill="#000000"/>
    <path d="M2.695,14.2 L2.695,7.965 L0.107,7.965 L0.107,6.973 L6.792,6.973 L6.792,7.965 L4.204,7.965 L4.204,14.2 z" fill="#000000"/>
    <path d="M12.168,14.019 Q11.138,14.322 10.215,14.322 Q8.872,14.322 8.096,13.56 Q7.319,12.799 7.319,11.48 Q7.319,10.235 8.03,9.476 Q8.74,8.717 9.907,8.717 Q11.084,8.717 11.626,9.459 Q12.168,10.201 12.168,11.807 L8.843,11.807 Q8.989,13.341 10.527,13.341 Q11.255,13.341 12.168,13.004 z M8.823,10.992 L10.747,10.992 Q10.747,9.62 9.863,9.62 Q8.965,9.62 8.823,10.992 z" fill="#000000"/>
    <path d="M13.662,14.2 L13.662,8.839 L15.107,8.839 L15.107,9.849 Q15.815,8.717 16.934,8.717 Q17.651,8.717 18.066,9.171 Q18.481,9.625 18.481,10.411 L18.481,14.2 L17.036,14.2 L17.036,10.767 Q17.036,9.854 16.431,9.854 Q15.742,9.854 15.107,10.826 L15.107,14.2 z" fill="#000000"/>
    <path d="M20.088,14.029 L20.088,12.97 Q21.162,13.419 21.924,13.419 Q22.812,13.419 22.812,12.813 Q22.812,12.423 22.08,12.13 L21.592,11.934 Q20.796,11.612 20.454,11.241 Q20.112,10.87 20.112,10.323 Q20.112,9.561 20.693,9.139 Q21.274,8.717 22.319,8.717 Q22.974,8.717 23.877,8.907 L23.877,9.923 Q23.008,9.62 22.437,9.62 Q21.538,9.62 21.538,10.177 Q21.538,10.543 22.202,10.797 L22.622,10.958 Q23.564,11.314 23.933,11.68 Q24.302,12.047 24.302,12.623 Q24.302,13.38 23.674,13.851 Q23.047,14.322 22.041,14.322 Q21.074,14.322 20.088,14.029 z" fill="#000000"/>
    <path d="M25.884,14.2 L25.884,8.839 L27.329,8.839 L27.329,14.2 z M25.884,7.935 L25.884,6.729 L27.329,6.729 L27.329,7.935 z" fill="#000000"/>
    <path d="M31.387,14.322 Q30.132,14.322 29.392,13.563 Q28.652,12.804 28.652,11.519 Q28.652,10.221 29.397,9.469 Q30.142,8.717 31.421,8.717 Q32.705,8.717 33.45,9.469 Q34.194,10.221 34.194,11.51 Q34.194,12.828 33.447,13.575 Q32.7,14.322 31.387,14.322 z M31.411,13.419 Q32.656,13.419 32.656,11.51 Q32.656,10.636 32.327,10.128 Q31.997,9.62 31.421,9.62 Q30.85,9.62 30.52,10.128 Q30.19,10.636 30.19,11.519 Q30.19,12.393 30.518,12.906 Q30.845,13.419 31.411,13.419 z" fill="#000000"/>
    <path d="M35.522,14.2 L35.522,8.839 L36.968,8.839 L36.968,9.849 Q37.676,8.717 38.794,8.717 Q39.512,8.717 39.927,9.171 Q40.342,9.625 40.342,10.411 L40.342,14.2 L38.896,14.2 L38.896,10.767 Q38.896,9.854 38.291,9.854 Q37.603,9.854 36.968,10.826 L36.968,14.2 z" fill="#000000"/>
    <path d="M47.705,6.431 L47.705,7.364 Q46.406,8.673 46.406,11.065 Q46.406,13.463 47.705,14.771 L47.705,15.704 Q46.519,15.064 45.801,13.795 Q45.083,12.525 45.083,11.065 Q45.083,9.605 45.789,8.355 Q46.494,7.105 47.705,6.431 z" fill="#000000"/>
    <path d="M50.981,14.2 L48.31,6.973 L49.917,6.973 L51.987,12.564 L53.989,6.973 L55.073,6.973 L52.49,14.2 z" fill="#000000"/>
    <path d="M55.659,6.431 L55.659,7.364 Q56.958,8.673 56.958,11.065 Q56.958,13.463 55.659,14.771 L55.659,15.704 Q56.845,15.064 57.563,13.795 Q58.281,12.525 58.281,11.065 Q58.281,9.605 57.575,8.355 Q56.87,7.105 55.659,6.431 z" fill="#000000"/>
  </g>
</svg>
