<?xml version="1.0" encoding="UTF-8"?>
<!DOCTYPE svg PUBLIC "-//W3C//DTD SVG 1.1//EN" "http://www.w3.org/Graphics/SVG/1.1/DTD/svg11.dtd">
<svg version="1.1" xmlns="http://www.w3.org/2000/svg" xmlns:xlink="http://www.w3.org/1999/xlink" x="0" y="0" width="698.01" height="288.429" viewBox="0, 0, 698.01, 288.429">
  <g id="Calque_1" transform="translate(-0.107, -0)">
    <path d="M61.673,272.65 L659.135,272.65 M61.926,269.85 L61.926,274.05 M104.626,269.85 L104.626,274.05 M147.326,269.85 L147.326,274.05 M190.026,269.85 L190.026,274.05 M232.726,269.85 L232.726,274.05 M275.426,269.85 L275.426,274.05 M317.426,269.85 L317.426,274.05 M360.126,269.85 L360.126,274.05 M402.826,269.85 L402.826,274.05 M445.526,269.85 L445.526,274.05 M488.226,269.85 L488.226,274.05 M530.926,269.85 L530.926,274.05 M573.626,269.85 L573.626,274.05 M616.326,269.85 L616.326,274.05" fill-opacity="0" stroke="#000000" stroke-width="0.7"/>
    <path d="M660.92,272.65 L656.72,270.55 L658.82,272.65 L656.72,274.75 z M660.92,272.65" fill="#000000"/>
    <path d="M61.926,273.315 L61.926,1.785 M64.726,272.65 L60.526,272.65 M64.726,227.85 L60.526,227.85 M64.726,182.35 L60.526,182.35 M64.726,137.55 L60.526,137.55 M64.726,92.05 L60.526,92.05 M64.726,47.25 L60.526,47.25" fill-opacity="0" stroke="#000000" stroke-width="0.7"/>
    <path d="M61.926,0 L59.826,4.2 L61.926,2.1 L64.026,4.2 z M61.926,0" fill="#000000"/>
    <path d="M55.109,276.252 Q54.17,276.252 53.59,275.368 Q53.009,274.484 53.009,273.061 Q53.009,271.625 53.594,270.752 Q54.178,269.878 55.134,269.878 Q56.089,269.878 56.674,270.752 Q57.258,271.625 57.258,273.048 Q57.258,274.509 56.674,275.38 Q56.089,276.252 55.109,276.252 z M55.117,275.645 Q56.401,275.645 56.401,273.036 Q56.401,270.485 55.134,270.485 Q53.871,270.485 53.871,273.061 Q53.871,275.645 55.117,275.645 z" fill="#000000"/>
    <path d="M53.739,230.95 L53.739,230.343 L54.953,230.343 L54.953,225.552 L53.739,225.856 L53.739,225.232 L55.765,224.728 L55.765,230.343 L56.98,230.343 L56.98,230.95 z" fill="#000000"/>
    <path d="M53.173,185.8 L53.173,185.09 Q53.526,184.266 54.601,183.294 L55.064,182.88 Q55.958,182.072 55.958,181.276 Q55.958,180.767 55.653,180.476 Q55.347,180.185 54.814,180.185 Q54.182,180.185 53.325,180.673 L53.325,179.959 Q54.133,179.578 54.929,179.578 Q55.782,179.578 56.299,180.037 Q56.815,180.497 56.815,181.255 Q56.815,181.801 56.555,182.223 Q56.295,182.646 55.585,183.249 L55.273,183.515 Q54.301,184.34 54.149,185.09 L56.787,185.09 L56.787,185.8 z" fill="#000000"/>
    <path d="M53.329,140.605 L53.329,139.85 Q54.199,140.195 54.699,140.195 Q55.277,140.195 55.64,139.856 Q56.003,139.518 56.003,138.981 Q56.003,137.701 54.211,137.701 L53.891,137.701 L53.891,137.155 L54.174,137.151 Q55.856,137.151 55.856,135.966 Q55.856,135.035 54.748,135.035 Q54.141,135.035 53.411,135.375 L53.411,134.67 Q54.129,134.428 54.806,134.428 Q56.668,134.428 56.668,135.835 Q56.668,136.905 55.4,137.361 Q56.869,137.701 56.869,138.968 Q56.869,139.826 56.303,140.314 Q55.737,140.802 54.748,140.802 Q54.186,140.802 53.329,140.605 z" fill="#000000"/>
    <path d="M55.638,95.5 L55.638,93.781 L52.907,93.781 L52.907,93.17 L55.638,89.43 L56.397,89.43 L56.397,93.121 L57.209,93.121 L57.209,93.781 L56.397,93.781 L56.397,95.5 z M53.698,93.121 L55.692,93.121 L55.692,90.422 z" fill="#000000"/>
    <path d="M53.497,50.375 L53.497,49.653 Q54.1,49.895 54.646,49.895 Q55.245,49.895 55.587,49.542 Q55.93,49.189 55.93,48.57 Q55.93,47.204 54.047,47.204 Q53.834,47.204 53.6,47.233 L53.6,44.28 L56.672,44.28 L56.672,44.985 L54.309,44.985 L54.309,46.585 Q55.478,46.585 56.135,47.122 Q56.791,47.659 56.791,48.611 Q56.791,49.497 56.194,49.999 Q55.597,50.502 54.539,50.502 Q54.08,50.502 53.497,50.375 z" fill="#000000"/>
    <path d="M210.955,272.65 L60.526,272.65" fill-opacity="0" stroke="#FF1802" stroke-width="1"/>
    <path d="M210.955,272.65 L210.955,46.95" fill-opacity="0" stroke="#FF1802" stroke-width="1"/>
    <path d="M210.955,46.95 L232.726,46.95" fill-opacity="0" stroke="#FF1802" stroke-width="1" stroke-linecap="square"/>
    <path d="M640.617,286.5 L640.617,280.265 L638.029,280.265 L638.029,279.273 L644.714,279.273 L644.714,280.265 L642.126,280.265 L642.126,286.5 z" fill="#000000"/>
    <path d="M650.09,286.319 Q649.06,286.622 648.137,286.622 Q646.794,286.622 646.018,285.86 Q645.241,285.099 645.241,283.78 Q645.241,282.535 645.952,281.776 Q646.662,281.017 647.829,281.017 Q649.006,281.017 649.548,281.759 Q650.09,282.501 650.09,284.107 L646.765,284.107 Q646.911,285.641 648.449,285.641 Q649.177,285.641 650.09,285.304 z M646.745,283.292 L648.669,283.292 Q648.669,281.92 647.785,281.92 Q646.887,281.92 646.745,283.292 z" fill="#000000"/>
    <path d="M651.584,286.5 L651.584,281.139 L652.971,281.139 L652.971,282.149 Q653.606,281.017 654.777,281.017 Q655.383,281.017 655.774,281.314 Q656.164,281.612 656.252,282.149 Q657.004,281.017 658.068,281.017 Q659.538,281.017 659.538,282.638 L659.538,286.5 L658.151,286.5 L658.151,283.111 Q658.151,282.159 657.517,282.159 Q656.867,282.159 656.252,283.097 L656.252,286.5 L654.865,286.5 L654.865,283.111 Q654.865,282.154 654.226,282.154 Q653.586,282.154 652.971,283.097 L652.971,286.5 z" fill="#000000"/>
    <path d="M661.281,288.429 L661.281,281.139 L662.727,281.139 L662.727,282.149 Q663.283,281.017 664.48,281.017 Q665.446,281.017 666.001,281.725 Q666.555,282.433 666.555,283.673 Q666.555,285.021 665.93,285.821 Q665.305,286.622 664.255,286.622 Q663.41,286.622 662.727,285.958 L662.727,288.429 z M662.727,285.099 Q663.254,285.685 663.85,285.685 Q664.382,285.685 664.699,285.169 Q665.017,284.654 665.017,283.795 Q665.017,282.149 663.957,282.149 Q663.318,282.149 662.727,282.975 z" fill="#000000"/>
    <path d="M667.766,286.329 L667.766,285.27 Q668.84,285.719 669.602,285.719 Q670.49,285.719 670.49,285.113 Q670.49,284.723 669.758,284.43 L669.27,284.234 Q668.474,283.912 668.132,283.541 Q667.79,283.17 667.79,282.623 Q667.79,281.861 668.371,281.439 Q668.952,281.017 669.997,281.017 Q670.651,281.017 671.555,281.207 L671.555,282.223 Q670.686,281.92 670.114,281.92 Q669.216,281.92 669.216,282.477 Q669.216,282.843 669.88,283.097 L670.3,283.258 Q671.242,283.614 671.611,283.98 Q671.98,284.347 671.98,284.923 Q671.98,285.68 671.352,286.151 Q670.725,286.622 669.719,286.622 Q668.752,286.622 667.766,286.329 z" fill="#000000"/>
    <path d="M679.177,278.731 L679.177,279.664 Q677.878,280.973 677.878,283.365 Q677.878,285.763 679.177,287.071 L679.177,288.004 Q677.99,287.364 677.273,286.095 Q676.555,284.825 676.555,283.365 Q676.555,281.905 677.26,280.655 Q677.966,279.405 679.177,278.731 z" fill="#000000"/>
    <path d="M680.564,286.5 L680.564,281.139 L681.95,281.139 L681.95,282.149 Q682.585,281.017 683.757,281.017 Q684.362,281.017 684.753,281.314 Q685.144,281.612 685.232,282.149 Q685.984,281.017 687.048,281.017 Q688.518,281.017 688.518,282.638 L688.518,286.5 L687.131,286.5 L687.131,283.111 Q687.131,282.159 686.496,282.159 Q685.847,282.159 685.232,283.097 L685.232,286.5 L683.845,286.5 L683.845,283.111 Q683.845,282.154 683.205,282.154 Q682.566,282.154 681.95,283.097 L681.95,286.5 z" fill="#000000"/>
    <path d="M690.12,286.329 L690.12,285.27 Q691.194,285.719 691.956,285.719 Q692.844,285.719 692.844,285.113 Q692.844,284.723 692.112,284.43 L691.624,284.234 Q690.828,283.912 690.486,283.541 Q690.144,283.17 690.144,282.623 Q690.144,281.861 690.725,281.439 Q691.306,281.017 692.351,281.017 Q693.005,281.017 693.909,281.207 L693.909,282.223 Q693.04,281.92 692.468,281.92 Q691.57,281.92 691.57,282.477 Q691.57,282.843 692.234,283.097 L692.654,283.258 Q693.596,283.614 693.965,283.98 Q694.334,284.347 694.334,284.923 Q694.334,285.68 693.706,286.151 Q693.079,286.622 692.073,286.622 Q691.106,286.622 690.12,286.329 z" fill="#000000"/>
    <path d="M695.496,278.731 L695.496,279.664 Q696.795,280.973 696.795,283.365 Q696.795,285.763 695.496,287.071 L695.496,288.004 Q696.682,287.364 697.4,286.095 Q698.118,284.825 698.118,283.365 Q698.118,281.905 697.412,280.655 Q696.707,279.405 695.496,278.731 z" fill="#000000"/>
    <path d="M2.695,11.785 L2.695,5.55 L0.107,5.55 L0.107,4.558 L6.792,4.558 L6.792,5.55 L4.204,5.55 L4.204,11.785 z" fill="#000000"/>
    <path d="M12.168,11.604 Q11.138,11.907 10.215,11.907 Q8.872,11.907 8.096,11.145 Q7.319,10.384 7.319,9.065 Q7.319,7.82 8.03,7.061 Q8.74,6.302 9.907,6.302 Q11.084,6.302 11.626,7.044 Q12.168,7.786 12.168,9.392 L8.843,9.392 Q8.989,10.926 10.527,10.926 Q11.255,10.926 12.168,10.589 z M8.823,8.577 L10.747,8.577 Q10.747,7.205 9.863,7.205 Q8.965,7.205 8.823,8.577 z" fill="#000000"/>
    <path d="M13.662,11.785 L13.662,6.424 L15.107,6.424 L15.107,7.434 Q15.815,6.302 16.934,6.302 Q17.651,6.302 18.066,6.756 Q18.481,7.21 18.481,7.996 L18.481,11.785 L17.036,11.785 L17.036,8.352 Q17.036,7.439 16.431,7.439 Q15.742,7.439 15.107,8.411 L15.107,11.785 z" fill="#000000"/>
    <path d="M20.088,11.614 L20.088,10.555 Q21.162,11.004 21.924,11.004 Q22.812,11.004 22.812,10.398 Q22.812,10.008 22.08,9.715 L21.592,9.519 Q20.796,9.197 20.454,8.826 Q20.112,8.455 20.112,7.908 Q20.112,7.146 20.693,6.724 Q21.274,6.302 22.319,6.302 Q22.974,6.302 23.877,6.492 L23.877,7.508 Q23.008,7.205 22.437,7.205 Q21.538,7.205 21.538,7.762 Q21.538,8.128 22.202,8.382 L22.622,8.543 Q23.564,8.899 23.933,9.265 Q24.302,9.632 24.302,10.208 Q24.302,10.965 23.674,11.436 Q23.047,11.907 22.041,11.907 Q21.074,11.907 20.088,11.614 z" fill="#000000"/>
    <path d="M25.884,11.785 L25.884,6.424 L27.329,6.424 L27.329,11.785 z M25.884,5.52 L25.884,4.314 L27.329,4.314 L27.329,5.52 z" fill="#000000"/>
    <path d="M31.387,11.907 Q30.132,11.907 29.392,11.148 Q28.652,10.389 28.652,9.104 Q28.652,7.806 29.397,7.054 Q30.142,6.302 31.421,6.302 Q32.705,6.302 33.45,7.054 Q34.194,7.806 34.194,9.095 Q34.194,10.413 33.447,11.16 Q32.7,11.907 31.387,11.907 z M31.411,11.004 Q32.656,11.004 32.656,9.095 Q32.656,8.221 32.327,7.713 Q31.997,7.205 31.421,7.205 Q30.85,7.205 30.52,7.713 Q30.19,8.221 30.19,9.104 Q30.19,9.978 30.518,10.491 Q30.845,11.004 31.411,11.004 z" fill="#000000"/>
    <path d="M35.522,11.785 L35.522,6.424 L36.968,6.424 L36.968,7.434 Q37.676,6.302 38.794,6.302 Q39.512,6.302 39.927,6.756 Q40.342,7.21 40.342,7.996 L40.342,11.785 L38.896,11.785 L38.896,8.352 Q38.896,7.439 38.291,7.439 Q37.603,7.439 36.968,8.411 L36.968,11.785 z" fill="#000000"/>
    <path d="M47.705,4.016 L47.705,4.949 Q46.406,6.258 46.406,8.65 Q46.406,11.048 47.705,12.356 L47.705,13.289 Q46.519,12.649 45.801,11.38 Q45.083,10.11 45.083,8.65 Q45.083,7.19 45.789,5.94 Q46.494,4.69 47.705,4.016 z" fill="#000000"/>
    <path d="M50.981,11.785 L48.31,4.558 L49.917,4.558 L51.987,10.149 L53.989,4.558 L55.073,4.558 L52.49,11.785 z" fill="#000000"/>
    <path d="M55.659,4.016 L55.659,4.949 Q56.958,6.258 56.958,8.65 Q56.958,11.048 55.659,12.356 L55.659,13.289 Q56.845,12.649 57.563,11.38 Q58.281,10.11 58.281,8.65 Q58.281,7.19 57.575,5.94 Q56.87,4.69 55.659,4.016 z" fill="#000000"/>
    <path d="M8.519,49.95 L5.313,41.278 L7.241,41.278 L9.726,47.987 L12.128,41.278 L13.429,41.278 L10.329,49.95 z" fill="#000000"/>
    <path d="M14.636,49.95 L14.636,43.516 L16.3,43.516 L16.3,44.729 Q17.062,43.37 18.468,43.37 Q19.194,43.37 19.663,43.727 Q20.132,44.085 20.237,44.729 Q21.14,43.37 22.417,43.37 Q24.181,43.37 24.181,45.315 L24.181,49.95 L22.517,49.95 L22.517,45.884 Q22.517,44.741 21.755,44.741 Q20.976,44.741 20.237,45.866 L20.237,49.95 L18.573,49.95 L18.573,45.884 Q18.573,44.735 17.806,44.735 Q17.038,44.735 16.3,45.866 L16.3,49.95 z" fill="#000000"/>
    <path d="M29.425,49.259 Q28.558,50.096 27.567,50.096 Q26.724,50.096 26.196,49.581 Q25.669,49.065 25.669,48.245 Q25.669,47.179 26.521,46.601 Q27.374,46.024 28.962,46.024 L29.425,46.024 L29.425,45.438 Q29.425,44.436 28.282,44.436 Q27.269,44.436 26.231,45.011 L26.231,43.815 Q27.409,43.37 28.563,43.37 Q31.089,43.37 31.089,45.38 L31.089,48.227 Q31.089,48.983 31.575,48.983 Q31.663,48.983 31.804,48.96 L31.845,49.932 Q31.294,50.096 30.872,50.096 Q29.806,50.096 29.501,49.259 z M29.425,48.327 L29.425,47.02 L29.015,47.02 Q27.333,47.02 27.333,48.075 Q27.333,48.432 27.576,48.676 Q27.819,48.919 28.177,48.919 Q28.786,48.919 29.425,48.327 z" fill="#000000"/>
    <path d="M32.642,49.95 L34.851,46.721 L32.735,43.516 L34.71,43.516 L36.093,45.555 L37.417,43.516 L38.823,43.516 L36.808,46.675 L38.97,49.95 L36.995,49.95 L35.554,47.823 L34.077,49.95 z" fill="#000000"/>
    <path d="M8.519,276.65 L5.313,267.978 L7.241,267.978 L9.726,274.687 L12.128,267.978 L13.429,267.978 L10.329,276.65 z" fill="#000000"/>
    <path d="M14.636,276.65 L14.636,270.216 L16.3,270.216 L16.3,271.429 Q17.062,270.07 18.468,270.07 Q19.194,270.07 19.663,270.427 Q20.132,270.785 20.237,271.429 Q21.14,270.07 22.417,270.07 Q24.181,270.07 24.181,272.015 L24.181,276.65 L22.517,276.65 L22.517,272.584 Q22.517,271.441 21.755,271.441 Q20.976,271.441 20.237,272.566 L20.237,276.65 L18.573,276.65 L18.573,272.584 Q18.573,271.435 17.806,271.435 Q17.038,271.435 16.3,272.566 L16.3,276.65 z" fill="#000000"/>
    <path d="M26.272,276.65 L26.272,270.216 L28.007,270.216 L28.007,276.65 z M26.272,269.132 L26.272,267.685 L28.007,267.685 L28.007,269.132 z" fill="#000000"/>
    <path d="M30.175,276.65 L30.175,270.216 L31.909,270.216 L31.909,271.429 Q32.759,270.07 34.101,270.07 Q34.962,270.07 35.46,270.615 Q35.958,271.16 35.958,272.103 L35.958,276.65 L34.224,276.65 L34.224,272.531 Q34.224,271.435 33.497,271.435 Q32.671,271.435 31.909,272.601 L31.909,276.65 z" fill="#000000"/>
    <path d="M573.955,46.999 L44.17,46.95" fill-opacity="0" stroke="#0142F2" stroke-width="0.5" stroke-dasharray="1.5,1"/>
    <path d="M64.726,272.65 L42.013,272.65" fill-opacity="0" stroke="#0142F2" stroke-width="0.5" stroke-dasharray="1.5,1"/>
    <path d="M61.965,287.152 Q61.026,287.152 60.446,286.268 Q59.865,285.384 59.865,283.961 Q59.865,282.525 60.45,281.652 Q61.034,280.778 61.99,280.778 Q62.945,280.778 63.53,281.652 Q64.114,282.525 64.114,283.948 Q64.114,285.409 63.53,286.28 Q62.945,287.152 61.965,287.152 z M61.973,286.545 Q63.257,286.545 63.257,283.936 Q63.257,281.385 61.99,281.385 Q60.727,281.385 60.727,283.961 Q60.727,286.545 61.973,286.545 z" fill="#000000"/>
    <path d="M99.319,287.152 Q98.38,287.152 97.8,286.268 Q97.219,285.384 97.219,283.961 Q97.219,282.525 97.804,281.652 Q98.388,280.778 99.344,280.778 Q100.299,280.778 100.884,281.652 Q101.468,282.525 101.468,283.948 Q101.468,285.409 100.884,286.28 Q100.299,287.152 99.319,287.152 z M99.327,286.545 Q100.611,286.545 100.611,283.936 Q100.611,281.385 99.344,281.385 Q98.081,281.385 98.081,283.961 Q98.081,286.545 99.327,286.545 z" fill="#000000"/>
    <path d="M102.818,288.317 L102.818,288.013 Q103.212,287.902 103.212,287.082 L103.212,287 L102.818,287 L102.818,285.987 L103.831,285.987 L103.831,286.865 Q103.831,288.214 102.818,288.317 z" fill="#000000"/>
    <path d="M105.677,287.025 L105.677,286.303 Q106.28,286.545 106.825,286.545 Q107.424,286.545 107.766,286.192 Q108.109,285.839 108.109,285.22 Q108.109,283.854 106.226,283.854 Q106.013,283.854 105.779,283.883 L105.779,280.93 L108.851,280.93 L108.851,281.635 L106.489,281.635 L106.489,283.235 Q107.658,283.235 108.314,283.772 Q108.97,284.309 108.97,285.261 Q108.97,286.147 108.373,286.649 Q107.777,287.152 106.718,287.152 Q106.259,287.152 105.677,287.025 z" fill="#000000"/>
    <path d="M145.376,287 L145.376,286.393 L146.59,286.393 L146.59,281.602 L145.376,281.906 L145.376,281.282 L147.402,280.778 L147.402,286.393 L148.617,286.393 L148.617,287 z" fill="#000000"/>
    <path d="M184.707,287 L184.707,286.393 L185.921,286.393 L185.921,281.602 L184.707,281.906 L184.707,281.282 L186.733,280.778 L186.733,286.393 L187.948,286.393 L187.948,287 z" fill="#000000"/>
    <path d="M189.576,288.317 L189.576,288.013 Q189.97,287.902 189.97,287.082 L189.97,287 L189.576,287 L189.576,285.987 L190.589,285.987 L190.589,286.865 Q190.589,288.214 189.576,288.317 z" fill="#000000"/>
    <path d="M192.435,287.025 L192.435,286.303 Q193.038,286.545 193.583,286.545 Q194.182,286.545 194.524,286.192 Q194.867,285.839 194.867,285.22 Q194.867,283.854 192.984,283.854 Q192.771,283.854 192.537,283.883 L192.537,280.93 L195.609,280.93 L195.609,281.635 L193.247,281.635 L193.247,283.235 Q194.416,283.235 195.072,283.772 Q195.728,284.309 195.728,285.261 Q195.728,286.147 195.131,286.649 Q194.535,287.152 193.476,287.152 Q193.017,287.152 192.435,287.025 z" fill="#000000"/>
    <path d="M230.552,287 L230.552,286.29 Q230.905,285.466 231.98,284.494 L232.443,284.08 Q233.337,283.272 233.337,282.476 Q233.337,281.967 233.032,281.676 Q232.726,281.385 232.193,281.385 Q231.561,281.385 230.704,281.873 L230.704,281.159 Q231.512,280.778 232.308,280.778 Q233.161,280.778 233.678,281.237 Q234.194,281.697 234.194,282.455 Q234.194,283.001 233.934,283.423 Q233.674,283.846 232.964,284.449 L232.652,284.715 Q231.68,285.54 231.528,286.29 L234.166,286.29 L234.166,287 z" fill="#000000"/>
    <path d="M267.687,287 L267.687,286.29 Q268.04,285.466 269.115,284.494 L269.578,284.08 Q270.472,283.272 270.472,282.476 Q270.472,281.967 270.167,281.676 Q269.861,281.385 269.328,281.385 Q268.696,281.385 267.839,281.873 L267.839,281.159 Q268.647,280.778 269.443,280.778 Q270.296,280.778 270.813,281.237 Q271.329,281.697 271.329,282.455 Q271.329,283.001 271.069,283.423 Q270.809,283.846 270.099,284.449 L269.787,284.715 Q268.815,285.54 268.663,286.29 L271.301,286.29 L271.301,287 z" fill="#000000"/>
    <path d="M273.122,288.317 L273.122,288.013 Q273.516,287.902 273.516,287.082 L273.516,287 L273.122,287 L273.122,285.987 L274.135,285.987 L274.135,286.865 Q274.135,288.214 273.122,288.317 z" fill="#000000"/>
    <path d="M275.981,287.025 L275.981,286.303 Q276.584,286.545 277.129,286.545 Q277.728,286.545 278.07,286.192 Q278.413,285.839 278.413,285.22 Q278.413,283.854 276.53,283.854 Q276.317,283.854 276.083,283.883 L276.083,280.93 L279.155,280.93 L279.155,281.635 L276.793,281.635 L276.793,283.235 Q277.962,283.235 278.618,283.772 Q279.274,284.309 279.274,285.261 Q279.274,286.147 278.677,286.649 Q278.081,287.152 277.022,287.152 Q276.563,287.152 275.981,287.025 z" fill="#000000"/>
    <path d="M315.97,287.255 L315.97,286.5 Q316.84,286.845 317.34,286.845 Q317.918,286.845 318.281,286.506 Q318.644,286.168 318.644,285.631 Q318.644,284.351 316.852,284.351 L316.532,284.351 L316.532,283.805 L316.815,283.801 Q318.497,283.801 318.497,282.616 Q318.497,281.685 317.389,281.685 Q316.782,281.685 316.052,282.025 L316.052,281.32 Q316.77,281.078 317.447,281.078 Q319.309,281.078 319.309,282.485 Q319.309,283.555 318.041,284.011 Q319.51,284.351 319.51,285.618 Q319.51,286.476 318.944,286.964 Q318.378,287.452 317.389,287.452 Q316.827,287.452 315.97,287.255 z" fill="#000000"/>
    <path d="M354.617,286.955 L354.617,286.2 Q355.487,286.545 355.987,286.545 Q356.565,286.545 356.928,286.206 Q357.291,285.868 357.291,285.331 Q357.291,284.051 355.499,284.051 L355.179,284.051 L355.179,283.505 L355.462,283.501 Q357.144,283.501 357.144,282.316 Q357.144,281.385 356.036,281.385 Q355.429,281.385 354.699,281.725 L354.699,281.02 Q355.417,280.778 356.094,280.778 Q357.956,280.778 357.956,282.185 Q357.956,283.255 356.688,283.711 Q358.157,284.051 358.157,285.318 Q358.157,286.176 357.591,286.664 Q357.025,287.152 356.036,287.152 Q355.474,287.152 354.617,286.955 z" fill="#000000"/>
    <path d="M359.896,288.317 L359.896,288.013 Q360.29,287.902 360.29,287.082 L360.29,287 L359.896,287 L359.896,285.987 L360.909,285.987 L360.909,286.865 Q360.909,288.214 359.896,288.317 z" fill="#000000"/>
    <path d="M362.755,287.025 L362.755,286.303 Q363.358,286.545 363.903,286.545 Q364.502,286.545 364.844,286.192 Q365.187,285.839 365.187,285.22 Q365.187,283.854 363.304,283.854 Q363.091,283.854 362.857,283.883 L362.857,280.93 L365.929,280.93 L365.929,281.635 L363.567,281.635 L363.567,283.235 Q364.736,283.235 365.392,283.772 Q366.048,284.309 366.048,285.261 Q366.048,286.147 365.451,286.649 Q364.855,287.152 363.796,287.152 Q363.337,287.152 362.755,287.025 z" fill="#000000"/>
    <path d="M404.031,287 L404.031,285.281 L401.3,285.281 L401.3,284.67 L404.031,280.93 L404.79,280.93 L404.79,284.621 L405.602,284.621 L405.602,285.281 L404.79,285.281 L404.79,287 z M402.091,284.621 L404.085,284.621 L404.085,281.922 z" fill="#000000"/>
    <path d="M442.18,287 L442.18,285.281 L439.449,285.281 L439.449,284.67 L442.18,280.93 L442.939,280.93 L442.939,284.621 L443.751,284.621 L443.751,285.281 L442.939,285.281 L442.939,287 z M440.24,284.621 L442.234,284.621 L442.234,281.922 z" fill="#000000"/>
    <path d="M445.15,288.317 L445.15,288.013 Q445.544,287.902 445.544,287.082 L445.544,287 L445.15,287 L445.15,285.987 L446.163,285.987 L446.163,286.865 Q446.163,288.214 445.15,288.317 z" fill="#000000"/>
    <path d="M448.009,287.025 L448.009,286.303 Q448.612,286.545 449.157,286.545 Q449.756,286.545 450.098,286.192 Q450.441,285.839 450.441,285.22 Q450.441,283.854 448.558,283.854 Q448.345,283.854 448.111,283.883 L448.111,280.93 L451.183,280.93 L451.183,281.635 L448.821,281.635 L448.821,283.235 Q449.99,283.235 450.646,283.772 Q451.302,284.309 451.302,285.261 Q451.302,286.147 450.705,286.649 Q450.109,287.152 449.05,287.152 Q448.591,287.152 448.009,287.025 z" fill="#000000"/>
    <path d="M486.104,287.025 L486.104,286.303 Q486.707,286.545 487.253,286.545 Q487.852,286.545 488.194,286.192 Q488.536,285.839 488.536,285.22 Q488.536,283.854 486.654,283.854 Q486.441,283.854 486.207,283.883 L486.207,280.93 L489.279,280.93 L489.279,281.635 L486.916,281.635 L486.916,283.235 Q488.085,283.235 488.742,283.772 Q489.398,284.309 489.398,285.261 Q489.398,286.147 488.801,286.649 Q488.204,287.152 487.146,287.152 Q486.687,287.152 486.104,287.025 z" fill="#000000"/>
    <path d="M525.693,287.025 L525.693,286.303 Q526.296,286.545 526.842,286.545 Q527.441,286.545 527.783,286.192 Q528.125,285.839 528.125,285.22 Q528.125,283.854 526.243,283.854 Q526.03,283.854 525.796,283.883 L525.796,280.93 L528.868,280.93 L528.868,281.635 L526.505,281.635 L526.505,283.235 Q527.674,283.235 528.331,283.772 Q528.987,284.309 528.987,285.261 Q528.987,286.147 528.39,286.649 Q527.793,287.152 526.735,287.152 Q526.276,287.152 525.693,287.025 z" fill="#000000"/>
    <path d="M530.804,288.317 L530.804,288.013 Q531.198,287.902 531.198,287.082 L531.198,287 L530.804,287 L530.804,285.987 L531.817,285.987 L531.817,286.865 Q531.817,288.214 530.804,288.317 z" fill="#000000"/>
    <path d="M533.663,287.025 L533.663,286.303 Q534.266,286.545 534.811,286.545 Q535.41,286.545 535.752,286.192 Q536.095,285.839 536.095,285.22 Q536.095,283.854 534.212,283.854 Q533.999,283.854 533.765,283.883 L533.765,280.93 L536.837,280.93 L536.837,281.635 L534.475,281.635 L534.475,283.235 Q535.644,283.235 536.3,283.772 Q536.956,284.309 536.956,285.261 Q536.956,286.147 536.359,286.649 Q535.763,287.152 534.704,287.152 Q534.245,287.152 533.663,287.025 z" fill="#000000"/>
    <path d="M571.69,283.854 Q572.268,283.104 573.146,283.104 Q573.942,283.104 574.448,283.631 Q574.955,284.158 574.955,284.982 Q574.955,285.929 574.387,286.541 Q573.818,287.152 572.945,287.152 Q571.94,287.152 571.374,286.344 Q570.808,285.536 570.808,284.1 Q570.808,282.521 571.458,281.647 Q572.108,280.774 573.289,280.774 Q573.831,280.774 574.643,281.004 L574.643,281.709 Q573.786,281.381 573.24,281.381 Q571.69,281.381 571.69,283.854 z M574.143,285.163 Q574.143,284.473 573.833,284.08 Q573.523,283.686 572.974,283.686 Q572.461,283.686 572.092,284.03 Q571.723,284.375 571.723,284.859 Q571.723,285.622 572.073,286.083 Q572.424,286.545 573.002,286.545 Q573.523,286.545 573.833,286.169 Q574.143,285.794 574.143,285.163 z" fill="#000000"/>
    <path d="M73.982,252.125 L51.27,252.125" fill-opacity="0" stroke="#0142F2" stroke-width="0.5" stroke-dasharray="1.5,1"/>
    <path d="M39.414,254.677 Q38.475,254.677 37.895,253.793 Q37.314,252.909 37.314,251.486 Q37.314,250.05 37.899,249.177 Q38.483,248.303 39.439,248.303 Q40.394,248.303 40.979,249.177 Q41.563,250.05 41.563,251.473 Q41.563,252.934 40.979,253.805 Q40.394,254.677 39.414,254.677 z M39.422,254.07 Q40.706,254.07 40.706,251.461 Q40.706,248.91 39.439,248.91 Q38.176,248.91 38.176,251.486 Q38.176,254.07 39.422,254.07 z" fill="#000000"/>
    <path d="M42.913,255.842 L42.913,255.538 Q43.307,255.427 43.307,254.607 L43.307,254.525 L42.913,254.525 L42.913,253.512 L43.926,253.512 L43.926,254.39 Q43.926,255.739 42.913,255.842 z" fill="#000000"/>
    <path d="M45.772,254.55 L45.772,253.828 Q46.375,254.07 46.92,254.07 Q47.519,254.07 47.861,253.717 Q48.204,253.364 48.204,252.745 Q48.204,251.379 46.321,251.379 Q46.108,251.379 45.874,251.408 L45.874,248.455 L48.946,248.455 L48.946,249.16 L46.584,249.16 L46.584,250.76 Q47.753,250.76 48.409,251.297 Q49.065,251.834 49.065,252.786 Q49.065,253.672 48.468,254.174 Q47.872,254.677 46.813,254.677 Q46.354,254.677 45.772,254.55 z" fill="#000000"/>
    <path d="M13.861,256.125 L6.924,252.656 L13.861,249.188 L13.861,250.318 L9.197,252.65 L9.197,252.662 L13.861,254.994 z" fill="#000000"/>
    <path d="M18.519,256.125 L15.314,247.453 L17.242,247.453 L19.727,254.162 L22.129,247.453 L23.43,247.453 L20.33,256.125 z" fill="#000000"/>
    <path d="M24.853,256.125 L31.791,252.656 L24.853,249.188 L24.853,250.318 L29.518,252.65 L29.518,252.662 L24.853,254.994 z" fill="#000000"/>
    <path d="M631.313,252.125 L61.988,252.125" fill-opacity="0" stroke="#00CA24" stroke-width="1"/>
    <path d="M232.726,273.05 L232.726,46.95" fill-opacity="0" stroke="#FF1803" stroke-width="1"/>
    <path d="M381.184,272.699 L232.726,273.05" fill-opacity="0" stroke="#FF1802" stroke-width="1"/>
    <path d="M381.184,272.699 L381.184,46.999" fill-opacity="0" stroke="#FF1802" stroke-width="1"/>
    <path d="M381.184,46.999 L402.955,46.999" fill-opacity="0" stroke="#FF1802" stroke-width="1" stroke-linecap="square"/>
    <path d="M402.955,273.099 L402.955,46.999" fill-opacity="0" stroke="#FF1803" stroke-width="1"/>
    <path d="M552.184,272.699 L401.755,272.699" fill-opacity="0" stroke="#FF1802" stroke-width="1"/>
    <path d="M552.184,272.699 L552.184,46.999" fill-opacity="0" stroke="#FF1802" stroke-width="1"/>
    <path d="M552.184,46.999 L573.955,46.999" fill-opacity="0" stroke="#FF1802" stroke-width="1" stroke-linecap="square"/>
    <path d="M573.955,273.099 L573.955,46.999" fill-opacity="0" stroke="#FF1803" stroke-width="1"/>
  </g>
</svg>
