<?xml version="1.0" encoding="UTF-8"?>
<!DOCTYPE svg PUBLIC "-//W3C//DTD SVG 1.1//EN" "http://www.w3.org/Graphics/SVG/1.1/DTD/svg11.dtd">
<svg version="1.1" xmlns="http://www.w3.org/2000/svg" xmlns:xlink="http://www.w3.org/1999/xlink" x="0" y="0" width="591.727" height="346.471" viewBox="0, 0, 591.727, 346.471">
  <g id="Calque_1" transform="translate(-3.865, -3.242)">
    <path d="M375.945,198.265 Q375.945,199.372 376.314,200.001 Q376.683,200.63 377.333,200.63 Q377.982,200.63 378.358,200.001 Q378.734,199.372 378.734,198.265 Q378.734,197.158 378.358,196.529 Q377.982,195.9 377.333,195.9 Q376.683,195.9 376.314,196.529 Q375.945,197.158 375.945,198.265 z M378.734,201.02 Q378.365,201.662 377.876,201.98 Q377.388,202.298 376.772,202.298 Q375.412,202.298 374.677,201.259 Q373.942,200.22 373.942,198.279 Q373.942,196.365 374.667,195.312 Q375.391,194.259 376.704,194.259 Q377.394,194.259 377.904,194.594 Q378.413,194.929 378.734,195.592 L378.734,194.444 L380.73,194.444 L380.73,205.012 L378.734,205.012 z" fill="#000000"/>
    <path d="M181.764,3.242 L184.473,3.242 L188.027,12.514 L188.027,3.242 L190.249,3.242 L190.249,16 L187.557,16 L183.986,6.729 L183.986,16 L181.764,16 z" fill="#000000"/>
    <path d="M578.518,347.547 L580.676,337.318 L583.112,337.318 L580.2,349.565 L576.845,349.565 L573.933,337.318 L576.369,337.318 z" fill="#000000"/>
    <path d="M587.169,346.868 Q586.328,346.868 585.995,347.084 Q585.661,347.299 585.661,347.822 Q585.661,348.211 585.892,348.442 Q586.123,348.673 586.518,348.673 Q587.112,348.673 587.441,348.224 Q587.769,347.776 587.769,346.971 L587.769,346.868 z M589.261,346.289 L589.261,349.565 L587.769,349.565 L587.769,348.924 Q587.497,349.304 587.071,349.509 Q586.646,349.714 586.133,349.714 Q585.154,349.714 584.608,349.196 Q584.062,348.678 584.062,347.75 Q584.062,346.745 584.713,346.266 Q585.364,345.786 586.728,345.786 L587.769,345.786 L587.769,345.535 Q587.769,345.171 587.505,344.984 Q587.241,344.797 586.728,344.797 Q586.19,344.797 585.685,344.933 Q585.18,345.069 584.631,345.366 L584.631,344.084 Q585.128,343.879 585.641,343.782 Q586.154,343.684 586.728,343.684 Q588.128,343.684 588.694,344.253 Q589.261,344.823 589.261,346.289 z" fill="#000000"/>
    <path d="M590.532,345.745 Q590.532,343.756 591.163,342.764 Q591.793,341.772 593.06,341.772 Q594.331,341.772 594.962,342.762 Q595.592,343.751 595.592,345.745 Q595.592,347.735 594.962,348.724 Q594.331,349.714 593.06,349.714 Q591.793,349.714 591.163,348.722 Q590.532,347.73 590.532,345.745 z M592.296,347.791 Q592.537,348.432 593.06,348.432 Q593.588,348.432 593.829,347.791 Q594.07,347.15 594.07,345.745 Q594.07,345.212 594.034,344.792 L592.245,347.642 Q592.27,347.724 592.296,347.791 z M593.06,343.054 Q592.537,343.054 592.296,343.695 Q592.055,344.336 592.055,345.745 Q592.055,346.181 592.075,346.54 L593.839,343.725 Q593.834,343.71 593.829,343.695 Q593.588,343.054 593.06,343.054 z" fill="#000000"/>
    <g>
      <path d="M201.504,30.72 L201.504,324.1" fill-opacity="0" stroke="#000000" stroke-width="1.4" stroke-linecap="square"/>
      <g>
        <path d="M204.744,30.72 L201.504,22.08 L198.264,30.72 z" fill="#000000"/>
        <path d="M204.744,30.72 L201.504,22.08 L198.264,30.72 z" fill-opacity="0" stroke="#000000" stroke-width="1.4"/>
      </g>
    </g>
    <g>
      <path d="M562.784,324.1 L201.504,324.1" fill-opacity="0" stroke="#000000" stroke-width="1.4" stroke-linecap="square"/>
      <g>
        <path d="M562.784,327.34 L571.424,324.1 L562.784,320.86 z" fill="#000000"/>
        <path d="M562.784,327.34 L571.424,324.1 L562.784,320.86 z" fill-opacity="0" stroke="#000000" stroke-width="1.4"/>
      </g>
    </g>
    <path d="M201.504,324.1 L502.26,21" fill-opacity="0" stroke="#F42300" stroke-width="1.4" stroke-linecap="square"/>
    <path d="M201.504,324.1 L251.305,324.1" fill-opacity="0" stroke="#0137CF" stroke-width="1.4" stroke-linecap="square"/>
    <path d="M301.105,222.934 L352.063,222.934" fill-opacity="0" stroke="#0137CF" stroke-width="1.4" stroke-linecap="square"/>
    <path d="M251.305,273.451 L301.105,273.451" fill-opacity="0" stroke="#0137CF" stroke-width="1.4" stroke-linecap="square"/>
    <path d="M352.063,172.55 L403.02,172.55" fill-opacity="0" stroke="#0137CF" stroke-width="1.4" stroke-linecap="square"/>
    <path d="M403.02,121.9 L452.875,121.9" fill-opacity="0" stroke="#0137CF" stroke-width="1.4"/>
    <path d="M452.875,71.834 L503.832,71.834" fill-opacity="0" stroke="#0137CF" stroke-width="1.4"/>
    <path d="M403.02,172.55 L403.02,121.9" fill-opacity="0" stroke="#0137CF" stroke-width="1.4" stroke-linecap="square"/>
    <path d="M452.875,121.9 L452.875,71.834" fill-opacity="0" stroke="#0137CF" stroke-width="1.4" stroke-linecap="square"/>
    <path d="M352.063,223.201 L352.063,172.55" fill-opacity="0" stroke="#0137CF" stroke-width="1.4"/>
    <path d="M301.105,273.851 L301.105,223.201" fill-opacity="0" stroke="#0137CF" stroke-width="1.4"/>
    <path d="M251.305,324.31 L251.304,273.66" fill-opacity="0" stroke="#0137CF" stroke-width="1.4"/>
    <g>
      <path d="M358.363,185.808 L396.72,185.808" fill-opacity="0" stroke="#000000" stroke-width="0.7" stroke-linecap="square"/>
      <g>
        <path d="M358.363,183.708 L352.763,185.808 L358.363,187.908 z" fill="#000000"/>
        <path d="M358.363,183.708 L352.763,185.808 L358.363,187.908 z" fill-opacity="0" stroke="#000000" stroke-width="0.7"/>
      </g>
      <g>
        <path d="M396.72,187.908 L402.32,185.808 L396.72,183.708 z" fill="#000000"/>
        <path d="M396.72,187.908 L402.32,185.808 L396.72,183.708 z" fill-opacity="0" stroke="#000000" stroke-width="0.7"/>
      </g>
    </g>
    <path d="M198.131,341.337 Q198.131,338.685 198.972,337.362 Q199.812,336.039 201.501,336.039 Q203.196,336.039 204.037,337.359 Q204.878,338.678 204.878,341.337 Q204.878,343.99 204.037,345.309 Q203.196,346.628 201.501,346.628 Q199.812,346.628 198.972,345.305 Q198.131,343.983 198.131,341.337 z M200.482,344.065 Q200.804,344.919 201.501,344.919 Q202.205,344.919 202.526,344.065 Q202.848,343.21 202.848,341.337 Q202.848,340.626 202.8,340.066 L200.414,343.867 Q200.448,343.976 200.482,344.065 z M201.501,337.748 Q200.804,337.748 200.482,338.603 Q200.161,339.457 200.161,341.337 Q200.161,341.918 200.188,342.397 L202.54,338.644 Q202.533,338.623 202.526,338.603 Q202.205,337.748 201.501,337.748 z" fill="#000000"/>
    <path d="M497.426,336.224 L502.97,336.224 L502.97,338.001 L499.06,338.001 L499.06,339.895 Q499.306,339.799 499.586,339.755 Q499.867,339.71 500.181,339.71 Q501.699,339.71 502.642,340.667 Q503.586,341.624 503.586,343.156 Q503.586,344.762 502.564,345.695 Q501.542,346.628 499.778,346.628 Q499.122,346.628 498.452,346.519 Q497.782,346.409 497.085,346.191 L497.085,344.372 Q497.652,344.653 498.25,344.793 Q498.848,344.933 499.45,344.933 Q500.516,344.933 501.07,344.478 Q501.624,344.024 501.624,343.156 Q501.624,342.356 501.073,341.874 Q500.523,341.392 499.607,341.392 Q499.067,341.392 498.523,341.525 Q497.98,341.659 497.426,341.925 z" fill="#000000"/>
    <path d="M508.747,344.748 L510.544,336.224 L512.575,336.224 L510.148,346.43 L507.352,346.43 L504.925,336.224 L506.956,336.224 z" fill="#000000"/>
    <path d="M503.832,331.33 L503.832,317.031" fill-opacity="0" stroke="#000000" stroke-width="1.4"/>
    <path d="M503.832,317.031 L503.832,61.359" fill-opacity="0" stroke="#000000" stroke-width="0.7" stroke-dasharray="4.2,3.5"/>
    <path d="M201.504,71.834 L516.176,71.834" fill-opacity="0" stroke="#000000" stroke-width="0.7" stroke-dasharray="4.2,3.5"/>
    <path d="M196.266,71.834 L206.741,71.834" fill-opacity="0" stroke="#000000" stroke-width="1.4"/>
    <path d="M7.563,65.736 Q6.661,67.37 6.224,68.901 Q5.786,70.432 5.786,71.963 Q5.786,73.481 6.224,75.023 Q6.661,76.564 7.563,78.205 L6.005,78.205 Q4.918,76.626 4.392,75.091 Q3.865,73.556 3.865,71.963 Q3.865,70.378 4.395,68.836 Q4.925,67.295 6.005,65.736 z" fill="#000000"/>
    <path d="M10.961,74.582 L13.217,74.582 L13.217,67.958 L11.118,68.477 L11.118,66.659 L13.23,66.153 L15.179,66.153 L15.179,74.582 L17.434,74.582 L17.434,76.359 L10.961,76.359 z" fill="#000000"/>
    <path d="M19.39,74.582 L21.645,74.582 L21.645,67.958 L19.547,68.477 L19.547,66.659 L21.659,66.153 L23.607,66.153 L23.607,74.582 L25.863,74.582 L25.863,76.359 L19.39,76.359 z" fill="#000000"/>
    <path d="M27.818,74.582 L30.074,74.582 L30.074,67.958 L27.976,68.477 L27.976,66.659 L30.088,66.153 L32.036,66.153 L32.036,74.582 L34.292,74.582 L34.292,76.359 L27.818,76.359 z" fill="#000000"/>
    <path d="M36.247,74.582 L38.503,74.582 L38.503,67.958 L36.404,68.477 L36.404,66.659 L38.517,66.153 L40.465,66.153 L40.465,74.582 L42.721,74.582 L42.721,76.359 L36.247,76.359 z" fill="#000000"/>
    <path d="M44.676,74.582 L46.932,74.582 L46.932,67.958 L44.833,68.477 L44.833,66.659 L46.945,66.153 L48.893,66.153 L48.893,74.582 L51.149,74.582 L51.149,76.359 L44.676,76.359 z" fill="#000000"/>
    <path d="M53.104,74.582 L55.36,74.582 L55.36,67.958 L53.262,68.477 L53.262,66.659 L55.374,66.153 L57.322,66.153 L57.322,74.582 L59.578,74.582 L59.578,76.359 L53.104,76.359 z" fill="#000000"/>
    <path d="M61.533,74.582 L63.789,74.582 L63.789,67.958 L61.69,68.477 L61.69,66.659 L63.803,66.153 L65.751,66.153 L65.751,74.582 L68.007,74.582 L68.007,76.359 L61.533,76.359 z" fill="#000000"/>
    <path d="M69.962,74.582 L72.218,74.582 L72.218,67.958 L70.119,68.477 L70.119,66.659 L72.231,66.153 L74.18,66.153 L74.18,74.582 L76.435,74.582 L76.435,76.359 L69.962,76.359 z" fill="#000000"/>
    <path d="M78.391,74.582 L80.646,74.582 L80.646,67.958 L78.548,68.477 L78.548,66.659 L80.66,66.153 L82.608,66.153 L82.608,74.582 L84.864,74.582 L84.864,76.359 L78.391,76.359 z" fill="#000000"/>
    <path d="M86.819,74.582 L89.075,74.582 L89.075,67.958 L86.976,68.477 L86.976,66.659 L89.089,66.153 L91.037,66.153 L91.037,74.582 L93.293,74.582 L93.293,76.359 L86.819,76.359 z" fill="#000000"/>
    <path d="M96.075,65.736 L97.634,65.736 Q98.714,67.295 99.244,68.836 Q99.773,70.378 99.773,71.963 Q99.773,73.556 99.247,75.091 Q98.721,76.626 97.634,78.205 L96.075,78.205 Q96.977,76.564 97.415,75.023 Q97.852,73.481 97.852,71.963 Q97.852,70.432 97.415,68.901 Q96.977,67.37 96.075,65.736 z" fill="#000000"/>
    <path d="M104.511,75.089 L107.582,75.089 L107.582,76.359 L102.954,76.359 L102.954,75.129 L103.735,74.298 Q105.126,72.819 105.424,72.477 Q105.79,72.057 105.952,71.733 Q106.113,71.408 106.113,71.09 Q106.113,70.602 105.817,70.336 Q105.522,70.07 104.98,70.07 Q104.594,70.07 104.113,70.224 Q103.632,70.378 103.11,70.671 L103.11,69.328 Q103.632,69.137 104.133,69.037 Q104.633,68.937 105.092,68.937 Q106.249,68.937 106.911,69.477 Q107.573,70.016 107.573,70.949 Q107.573,71.379 107.429,71.755 Q107.285,72.13 106.933,72.589 Q106.674,72.922 105.512,74.084 Q104.882,74.713 104.511,75.089 z" fill="#000000"/>
    <path d="M115.035,72.722 L122.26,72.722 L122.26,74.342 L115.035,74.342 z M115.035,69.612 L122.26,69.612 L122.26,71.218 L115.035,71.218 z" fill="#000000"/>
    <path d="M135.198,65.736 Q134.296,67.37 133.859,68.901 Q133.421,70.432 133.421,71.963 Q133.421,73.481 133.859,75.023 Q134.296,76.564 135.198,78.205 L133.64,78.205 Q132.553,76.626 132.027,75.091 Q131.5,73.556 131.5,71.963 Q131.5,70.378 132.03,68.836 Q132.56,67.295 133.64,65.736 z" fill="#000000"/>
    <path d="M138.596,74.582 L140.852,74.582 L140.852,67.958 L138.753,68.477 L138.753,66.659 L140.865,66.153 L142.814,66.153 L142.814,74.582 L145.07,74.582 L145.07,76.359 L138.596,76.359 z" fill="#000000"/>
    <path d="M146.58,71.266 Q146.58,68.614 147.421,67.291 Q148.262,65.968 149.95,65.968 Q151.646,65.968 152.486,67.288 Q153.327,68.607 153.327,71.266 Q153.327,73.919 152.486,75.238 Q151.646,76.557 149.95,76.557 Q148.262,76.557 147.421,75.234 Q146.58,73.912 146.58,71.266 z M148.932,73.994 Q149.253,74.848 149.95,74.848 Q150.654,74.848 150.976,73.994 Q151.297,73.139 151.297,71.266 Q151.297,70.555 151.249,69.995 L148.863,73.796 Q148.898,73.905 148.932,73.994 z M149.95,67.677 Q149.253,67.677 148.932,68.532 Q148.611,69.386 148.611,71.266 Q148.611,71.847 148.638,72.326 L150.989,68.573 Q150.983,68.552 150.976,68.532 Q150.654,67.677 149.95,67.677 z" fill="#000000"/>
    <path d="M157.135,74.582 L161.435,74.582 L161.435,76.359 L154.954,76.359 L154.954,74.636 L156.048,73.474 Q157.996,71.403 158.413,70.924 Q158.926,70.337 159.152,69.882 Q159.377,69.427 159.377,68.983 Q159.377,68.299 158.964,67.927 Q158.55,67.554 157.791,67.554 Q157.251,67.554 156.578,67.77 Q155.904,67.985 155.173,68.395 L155.173,66.515 Q155.904,66.249 156.605,66.109 Q157.306,65.968 157.948,65.968 Q159.569,65.968 160.495,66.724 Q161.421,67.479 161.421,68.785 Q161.421,69.386 161.219,69.913 Q161.018,70.439 160.526,71.082 Q160.163,71.547 158.536,73.173 Q157.654,74.055 157.135,74.582 z" fill="#000000"/>
    <path d="M166.35,71.793 L165.27,71.793 L165.27,70.015 L166.35,70.015 Q167.102,70.015 167.515,69.718 Q167.929,69.421 167.929,68.88 Q167.929,68.313 167.515,67.995 Q167.102,67.677 166.35,67.677 Q165.776,67.677 165.119,67.821 Q164.463,67.964 163.759,68.238 L163.759,66.406 Q164.463,66.194 165.147,66.081 Q165.83,65.968 166.459,65.968 Q168.072,65.968 168.975,66.672 Q169.877,67.377 169.877,68.614 Q169.877,69.523 169.358,70.101 Q168.838,70.678 167.874,70.856 Q168.968,71.047 169.542,71.728 Q170.116,72.408 170.116,73.515 Q170.116,74.999 169.166,75.778 Q168.216,76.557 166.404,76.557 Q165.632,76.557 164.883,76.427 Q164.135,76.297 163.451,76.051 L163.451,74.178 Q164.094,74.5 164.839,74.667 Q165.584,74.835 166.404,74.835 Q167.225,74.835 167.703,74.455 Q168.182,74.076 168.182,73.433 Q168.182,72.647 167.703,72.22 Q167.225,71.793 166.35,71.793 z" fill="#000000"/>
    <path d="M173.138,65.736 L174.696,65.736 Q175.777,67.295 176.306,68.836 Q176.836,70.378 176.836,71.963 Q176.836,73.556 176.31,75.091 Q175.783,76.626 174.696,78.205 L173.138,78.205 Q174.04,76.564 174.478,75.023 Q174.915,73.481 174.915,71.963 Q174.915,70.432 174.478,68.901 Q174.04,67.37 173.138,65.736 z" fill="#000000"/>
    <path d="M180.372,75.089 L181.983,75.089 L181.983,70.358 L180.484,70.729 L180.484,69.43 L181.993,69.069 L183.385,69.069 L183.385,75.089 L184.996,75.089 L184.996,76.359 L180.372,76.359 z" fill="#000000"/>
    <path d="M186.075,72.721 Q186.075,70.827 186.676,69.882 Q187.276,68.937 188.482,68.937 Q189.693,68.937 190.294,69.88 Q190.894,70.822 190.894,72.721 Q190.894,74.616 190.294,75.558 Q189.693,76.501 188.482,76.501 Q187.276,76.501 186.676,75.556 Q186.075,74.611 186.075,72.721 z M187.755,74.67 Q187.984,75.28 188.482,75.28 Q188.985,75.28 189.215,74.67 Q189.444,74.059 189.444,72.721 Q189.444,72.213 189.41,71.813 L187.706,74.528 Q187.73,74.606 187.755,74.67 z M188.482,70.158 Q187.984,70.158 187.755,70.768 Q187.525,71.379 187.525,72.721 Q187.525,73.136 187.545,73.478 L189.225,70.797 Q189.22,70.783 189.215,70.768 Q188.985,70.158 188.482,70.158 z" fill="#000000"/>
    <path d="M28.169,315.408 Q27.267,317.042 26.83,318.573 Q26.392,320.104 26.392,321.635 Q26.392,323.153 26.83,324.695 Q27.267,326.236 28.169,327.877 L26.611,327.877 Q25.524,326.298 24.998,324.763 Q24.471,323.228 24.471,321.635 Q24.471,320.05 25.001,318.508 Q25.531,316.967 26.611,315.408 z" fill="#000000"/>
    <path d="M31.123,320.938 Q31.123,318.286 31.963,316.963 Q32.804,315.64 34.493,315.64 Q36.188,315.64 37.029,316.96 Q37.87,318.279 37.87,320.938 Q37.87,323.591 37.029,324.91 Q36.188,326.229 34.493,326.229 Q32.804,326.229 31.963,324.906 Q31.123,323.584 31.123,320.938 z M33.474,323.666 Q33.795,324.52 34.493,324.52 Q35.197,324.52 35.518,323.666 Q35.839,322.811 35.839,320.938 Q35.839,320.227 35.791,319.667 L33.406,323.468 Q33.44,323.577 33.474,323.666 z M34.493,317.349 Q33.795,317.349 33.474,318.204 Q33.153,319.058 33.153,320.938 Q33.153,321.519 33.18,321.998 L35.532,318.245 Q35.525,318.224 35.518,318.204 Q35.197,317.349 34.493,317.349 z" fill="#000000"/>
    <path d="M39.551,320.938 Q39.551,318.286 40.392,316.963 Q41.233,315.64 42.921,315.64 Q44.617,315.64 45.457,316.96 Q46.298,318.279 46.298,320.938 Q46.298,323.591 45.457,324.91 Q44.617,326.229 42.921,326.229 Q41.233,326.229 40.392,324.906 Q39.551,323.584 39.551,320.938 z M41.903,323.666 Q42.224,324.52 42.921,324.52 Q43.625,324.52 43.947,323.666 Q44.268,322.811 44.268,320.938 Q44.268,320.227 44.22,319.667 L41.834,323.468 Q41.869,323.577 41.903,323.666 z M42.921,317.349 Q42.224,317.349 41.903,318.204 Q41.582,319.058 41.582,320.938 Q41.582,321.519 41.609,321.998 L43.96,318.245 Q43.954,318.224 43.947,318.204 Q43.625,317.349 42.921,317.349 z" fill="#000000"/>
    <path d="M47.98,320.938 Q47.98,318.286 48.821,316.963 Q49.662,315.64 51.35,315.64 Q53.045,315.64 53.886,316.96 Q54.727,318.279 54.727,320.938 Q54.727,323.591 53.886,324.91 Q53.045,326.229 51.35,326.229 Q49.662,326.229 48.821,324.906 Q47.98,323.584 47.98,320.938 z M50.332,323.666 Q50.653,324.52 51.35,324.52 Q52.054,324.52 52.375,323.666 Q52.697,322.811 52.697,320.938 Q52.697,320.227 52.649,319.667 L50.263,323.468 Q50.297,323.577 50.332,323.666 z M51.35,317.349 Q50.653,317.349 50.332,318.204 Q50.01,319.058 50.01,320.938 Q50.01,321.519 50.038,321.998 L52.389,318.245 Q52.382,318.224 52.375,318.204 Q52.054,317.349 51.35,317.349 z" fill="#000000"/>
    <path d="M56.409,320.938 Q56.409,318.286 57.249,316.963 Q58.09,315.64 59.779,315.64 Q61.474,315.64 62.315,316.96 Q63.156,318.279 63.156,320.938 Q63.156,323.591 62.315,324.91 Q61.474,326.229 59.779,326.229 Q58.09,326.229 57.249,324.906 Q56.409,323.584 56.409,320.938 z M58.76,323.666 Q59.082,324.52 59.779,324.52 Q60.483,324.52 60.804,323.666 Q61.125,322.811 61.125,320.938 Q61.125,320.227 61.078,319.667 L58.692,323.468 Q58.726,323.577 58.76,323.666 z M59.779,317.349 Q59.082,317.349 58.76,318.204 Q58.439,319.058 58.439,320.938 Q58.439,321.519 58.466,321.998 L60.818,318.245 Q60.811,318.224 60.804,318.204 Q60.483,317.349 59.779,317.349 z" fill="#000000"/>
    <path d="M64.837,320.938 Q64.837,318.286 65.678,316.963 Q66.519,315.64 68.207,315.64 Q69.903,315.64 70.744,316.96 Q71.584,318.279 71.584,320.938 Q71.584,323.591 70.744,324.91 Q69.903,326.229 68.207,326.229 Q66.519,326.229 65.678,324.906 Q64.837,323.584 64.837,320.938 z M67.189,323.666 Q67.51,324.52 68.207,324.52 Q68.912,324.52 69.233,323.666 Q69.554,322.811 69.554,320.938 Q69.554,320.227 69.506,319.667 L67.121,323.468 Q67.155,323.577 67.189,323.666 z M68.207,317.349 Q67.51,317.349 67.189,318.204 Q66.868,319.058 66.868,320.938 Q66.868,321.519 66.895,321.998 L69.247,318.245 Q69.24,318.224 69.233,318.204 Q68.912,317.349 68.207,317.349 z" fill="#000000"/>
    <path d="M73.266,320.938 Q73.266,318.286 74.107,316.963 Q74.948,315.64 76.636,315.64 Q78.332,315.64 79.172,316.96 Q80.013,318.279 80.013,320.938 Q80.013,323.591 79.172,324.91 Q78.332,326.229 76.636,326.229 Q74.948,326.229 74.107,324.906 Q73.266,323.584 73.266,320.938 z M75.618,323.666 Q75.939,324.52 76.636,324.52 Q77.34,324.52 77.662,323.666 Q77.983,322.811 77.983,320.938 Q77.983,320.227 77.935,319.667 L75.549,323.468 Q75.583,323.577 75.618,323.666 z M76.636,317.349 Q75.939,317.349 75.618,318.204 Q75.296,319.058 75.296,320.938 Q75.296,321.519 75.324,321.998 L77.675,318.245 Q77.668,318.224 77.662,318.204 Q77.34,317.349 76.636,317.349 z" fill="#000000"/>
    <path d="M81.695,320.938 Q81.695,318.286 82.536,316.963 Q83.376,315.64 85.065,315.64 Q86.76,315.64 87.601,316.96 Q88.442,318.279 88.442,320.938 Q88.442,323.591 87.601,324.91 Q86.76,326.229 85.065,326.229 Q83.376,326.229 82.536,324.906 Q81.695,323.584 81.695,320.938 z M84.046,323.666 Q84.368,324.52 85.065,324.52 Q85.769,324.52 86.09,323.666 Q86.412,322.811 86.412,320.938 Q86.412,320.227 86.364,319.667 L83.978,323.468 Q84.012,323.577 84.046,323.666 z M85.065,317.349 Q84.368,317.349 84.046,318.204 Q83.725,319.058 83.725,320.938 Q83.725,321.519 83.752,321.998 L86.104,318.245 Q86.097,318.224 86.09,318.204 Q85.769,317.349 85.065,317.349 z" fill="#000000"/>
    <path d="M90.124,320.938 Q90.124,318.286 90.964,316.963 Q91.805,315.64 93.494,315.64 Q95.189,315.64 96.03,316.96 Q96.871,318.279 96.871,320.938 Q96.871,323.591 96.03,324.91 Q95.189,326.229 93.494,326.229 Q91.805,326.229 90.964,324.906 Q90.124,323.584 90.124,320.938 z M92.475,323.666 Q92.796,324.52 93.494,324.52 Q94.198,324.52 94.519,323.666 Q94.84,322.811 94.84,320.938 Q94.84,320.227 94.792,319.667 L92.407,323.468 Q92.441,323.577 92.475,323.666 z M93.494,317.349 Q92.796,317.349 92.475,318.204 Q92.154,319.058 92.154,320.938 Q92.154,321.519 92.181,321.998 L94.533,318.245 Q94.526,318.224 94.519,318.204 Q94.198,317.349 93.494,317.349 z" fill="#000000"/>
    <path d="M98.552,320.938 Q98.552,318.286 99.393,316.963 Q100.234,315.64 101.922,315.64 Q103.618,315.64 104.458,316.96 Q105.299,318.279 105.299,320.938 Q105.299,323.591 104.458,324.91 Q103.618,326.229 101.922,326.229 Q100.234,326.229 99.393,324.906 Q98.552,323.584 98.552,320.938 z M100.904,323.666 Q101.225,324.52 101.922,324.52 Q102.626,324.52 102.948,323.666 Q103.269,322.811 103.269,320.938 Q103.269,320.227 103.221,319.667 L100.835,323.468 Q100.87,323.577 100.904,323.666 z M101.922,317.349 Q101.225,317.349 100.904,318.204 Q100.582,319.058 100.582,320.938 Q100.582,321.519 100.61,321.998 L102.961,318.245 Q102.955,318.224 102.948,318.204 Q102.626,317.349 101.922,317.349 z" fill="#000000"/>
    <path d="M106.981,320.938 Q106.981,318.286 107.822,316.963 Q108.663,315.64 110.351,315.64 Q112.046,315.64 112.887,316.96 Q113.728,318.279 113.728,320.938 Q113.728,323.591 112.887,324.91 Q112.046,326.229 110.351,326.229 Q108.663,326.229 107.822,324.906 Q106.981,323.584 106.981,320.938 z M109.332,323.666 Q109.654,324.52 110.351,324.52 Q111.055,324.52 111.376,323.666 Q111.698,322.811 111.698,320.938 Q111.698,320.227 111.65,319.667 L109.264,323.468 Q109.298,323.577 109.332,323.666 z M110.351,317.349 Q109.654,317.349 109.332,318.204 Q109.011,319.058 109.011,320.938 Q109.011,321.519 109.039,321.998 L111.39,318.245 Q111.383,318.224 111.376,318.204 Q111.055,317.349 110.351,317.349 z" fill="#000000"/>
    <path d="M116.681,315.408 L118.24,315.408 Q119.32,316.967 119.85,318.508 Q120.379,320.05 120.379,321.635 Q120.379,323.228 119.853,324.763 Q119.327,326.298 118.24,327.877 L116.681,327.877 Q117.583,326.236 118.021,324.695 Q118.458,323.153 118.458,321.635 Q118.458,320.104 118.021,318.573 Q117.583,317.042 116.681,315.408 z" fill="#000000"/>
    <path d="M125.117,324.761 L128.188,324.761 L128.188,326.031 L123.56,326.031 L123.56,324.801 L124.341,323.97 Q125.732,322.491 126.03,322.149 Q126.396,321.729 126.558,321.405 Q126.719,321.08 126.719,320.762 Q126.719,320.274 126.423,320.008 Q126.128,319.742 125.586,319.742 Q125.2,319.742 124.719,319.896 Q124.238,320.05 123.716,320.343 L123.716,319 Q124.238,318.809 124.739,318.709 Q125.239,318.609 125.698,318.609 Q126.855,318.609 127.517,319.149 Q128.179,319.688 128.179,320.621 Q128.179,321.051 128.035,321.427 Q127.891,321.802 127.539,322.261 Q127.28,322.594 126.118,323.756 Q125.488,324.385 125.117,324.761 z" fill="#000000"/>
    <path d="M135.641,322.394 L142.866,322.394 L142.866,324.014 L135.641,324.014 z M135.641,319.284 L142.866,319.284 L142.866,320.89 L135.641,320.89 z" fill="#000000"/>
    <path d="M155.804,315.408 Q154.902,317.042 154.465,318.573 Q154.027,320.104 154.027,321.635 Q154.027,323.153 154.465,324.695 Q154.902,326.236 155.804,327.877 L154.246,327.877 Q153.159,326.298 152.633,324.763 Q152.106,323.228 152.106,321.635 Q152.106,320.05 152.636,318.508 Q153.166,316.967 154.246,315.408 z" fill="#000000"/>
    <path d="M158.758,320.938 Q158.758,318.286 159.598,316.963 Q160.439,315.64 162.128,315.64 Q163.823,315.64 164.664,316.96 Q165.505,318.279 165.505,320.938 Q165.505,323.591 164.664,324.91 Q163.823,326.229 162.128,326.229 Q160.439,326.229 159.598,324.906 Q158.758,323.584 158.758,320.938 z M161.109,323.666 Q161.43,324.52 162.128,324.52 Q162.832,324.52 163.153,323.666 Q163.474,322.811 163.474,320.938 Q163.474,320.227 163.426,319.667 L161.041,323.468 Q161.075,323.577 161.109,323.666 z M162.128,317.349 Q161.43,317.349 161.109,318.204 Q160.788,319.058 160.788,320.938 Q160.788,321.519 160.815,321.998 L163.167,318.245 Q163.16,318.224 163.153,318.204 Q162.832,317.349 162.128,317.349 z" fill="#000000"/>
    <path d="M168.458,315.408 L170.016,315.408 Q171.096,316.967 171.626,318.508 Q172.156,320.05 172.156,321.635 Q172.156,323.228 171.63,324.763 Q171.103,326.298 170.016,327.877 L168.458,327.877 Q169.36,326.236 169.798,324.695 Q170.235,323.153 170.235,321.635 Q170.235,320.104 169.798,318.573 Q169.36,317.042 168.458,315.408 z" fill="#000000"/>
    <path d="M175.692,324.761 L177.303,324.761 L177.303,320.03 L175.804,320.401 L175.804,319.102 L177.313,318.741 L178.705,318.741 L178.705,324.761 L180.316,324.761 L180.316,326.031 L175.692,326.031 z" fill="#000000"/>
    <path d="M181.395,322.393 Q181.395,320.499 181.996,319.554 Q182.596,318.609 183.802,318.609 Q185.013,318.609 185.614,319.552 Q186.214,320.494 186.214,322.393 Q186.214,324.288 185.614,325.23 Q185.013,326.173 183.802,326.173 Q182.596,326.173 181.996,325.228 Q181.395,324.283 181.395,322.393 z M183.075,324.342 Q183.304,324.952 183.802,324.952 Q184.305,324.952 184.535,324.342 Q184.764,323.731 184.764,322.393 Q184.764,321.885 184.73,321.485 L183.026,324.2 Q183.05,324.278 183.075,324.342 z M183.802,319.83 Q183.304,319.83 183.075,320.44 Q182.845,321.051 182.845,322.393 Q182.845,322.808 182.865,323.15 L184.545,320.469 Q184.54,320.455 184.535,320.44 Q184.305,319.83 183.802,319.83 z" fill="#000000"/>
  </g>
</svg>
