<?xml version="1.0" encoding="UTF-8"?>
<!DOCTYPE svg PUBLIC "-//W3C//DTD SVG 1.1//EN" "http://www.w3.org/Graphics/SVG/1.1/DTD/svg11.dtd">
<svg version="1.1" xmlns="http://www.w3.org/2000/svg" xmlns:xlink="http://www.w3.org/1999/xlink" x="0" y="0" width="698.01" height="324.635" viewBox="0, 0, 698.01, 324.635">
  <g id="Calque_1" transform="translate(-0.107, -0)">
    <path d="M61.673,272.65 L659.135,272.65 M61.926,269.85 L61.926,274.05 M104.626,269.85 L104.626,274.05 M147.326,269.85 L147.326,274.05 M190.026,269.85 L190.026,274.05 M232.726,269.85 L232.726,274.05 M275.426,269.85 L275.426,274.05 M317.426,269.85 L317.426,274.05 M360.126,269.85 L360.126,274.05 M402.826,269.85 L402.826,274.05 M445.526,269.85 L445.526,274.05 M488.226,269.85 L488.226,274.05 M530.926,269.85 L530.926,274.05 M573.626,269.85 L573.626,274.05 M616.326,269.85 L616.326,274.05" fill-opacity="0" stroke="#000000" stroke-width="0.7"/>
    <path d="M660.92,272.65 L656.72,270.55 L658.82,272.65 L656.72,274.75 z M660.92,272.65" fill="#000000"/>
    <path d="M61.926,273.315 L61.926,1.785 M64.726,272.65 L60.526,272.65 M64.726,227.85 L60.526,227.85 M64.726,182.35 L60.526,182.35 M64.726,137.55 L60.526,137.55 M64.726,92.05 L60.526,92.05 M64.726,47.25 L60.526,47.25" fill-opacity="0" stroke="#000000" stroke-width="0.7"/>
    <path d="M61.926,0 L59.826,4.2 L61.926,2.1 L64.026,4.2 z M61.926,0" fill="#000000"/>
    <path d="M55.109,276.252 Q54.17,276.252 53.59,275.368 Q53.009,274.484 53.009,273.061 Q53.009,271.625 53.594,270.752 Q54.178,269.878 55.134,269.878 Q56.089,269.878 56.674,270.752 Q57.258,271.625 57.258,273.048 Q57.258,274.509 56.674,275.38 Q56.089,276.252 55.109,276.252 z M55.117,275.645 Q56.401,275.645 56.401,273.036 Q56.401,270.485 55.134,270.485 Q53.871,270.485 53.871,273.061 Q53.871,275.645 55.117,275.645 z" fill="#000000"/>
    <path d="M53.739,230.95 L53.739,230.343 L54.953,230.343 L54.953,225.552 L53.739,225.856 L53.739,225.232 L55.765,224.728 L55.765,230.343 L56.98,230.343 L56.98,230.95 z" fill="#000000"/>
    <path d="M53.173,185.8 L53.173,185.09 Q53.526,184.266 54.601,183.294 L55.064,182.88 Q55.958,182.072 55.958,181.276 Q55.958,180.767 55.653,180.476 Q55.347,180.185 54.814,180.185 Q54.182,180.185 53.325,180.673 L53.325,179.959 Q54.133,179.578 54.929,179.578 Q55.782,179.578 56.299,180.037 Q56.815,180.497 56.815,181.255 Q56.815,181.801 56.555,182.223 Q56.295,182.646 55.585,183.249 L55.273,183.515 Q54.301,184.34 54.149,185.09 L56.787,185.09 L56.787,185.8 z" fill="#000000"/>
    <path d="M53.329,140.605 L53.329,139.85 Q54.199,140.195 54.699,140.195 Q55.277,140.195 55.64,139.856 Q56.003,139.518 56.003,138.981 Q56.003,137.701 54.211,137.701 L53.891,137.701 L53.891,137.155 L54.174,137.151 Q55.856,137.151 55.856,135.966 Q55.856,135.035 54.748,135.035 Q54.141,135.035 53.411,135.375 L53.411,134.67 Q54.129,134.428 54.806,134.428 Q56.668,134.428 56.668,135.835 Q56.668,136.905 55.4,137.361 Q56.869,137.701 56.869,138.968 Q56.869,139.826 56.303,140.314 Q55.737,140.802 54.748,140.802 Q54.186,140.802 53.329,140.605 z" fill="#000000"/>
    <path d="M55.638,95.5 L55.638,93.781 L52.907,93.781 L52.907,93.17 L55.638,89.43 L56.397,89.43 L56.397,93.121 L57.209,93.121 L57.209,93.781 L56.397,93.781 L56.397,95.5 z M53.698,93.121 L55.692,93.121 L55.692,90.422 z" fill="#000000"/>
    <path d="M53.497,50.375 L53.497,49.653 Q54.1,49.895 54.646,49.895 Q55.245,49.895 55.587,49.542 Q55.93,49.189 55.93,48.57 Q55.93,47.204 54.047,47.204 Q53.834,47.204 53.6,47.233 L53.6,44.28 L56.672,44.28 L56.672,44.985 L54.309,44.985 L54.309,46.585 Q55.478,46.585 56.135,47.122 Q56.791,47.659 56.791,48.611 Q56.791,49.497 56.194,49.999 Q55.597,50.502 54.539,50.502 Q54.08,50.502 53.497,50.375 z" fill="#000000"/>
    <path d="M61.988,273 L147.25,273 L147.25,47.25 L232.511,47.25 L232.511,273 L317.773,273 L317.773,47.25 L403.035,47.25 L403.035,273 L488.297,273 L488.297,47.25 L573.558,47.25 L573.558,273" fill-opacity="0" stroke="#FF1802" stroke-width="1.4" stroke-linecap="round" stroke-linejoin="round"/>
    <path d="M640.617,286.5 L640.617,280.265 L638.029,280.265 L638.029,279.273 L644.714,279.273 L644.714,280.265 L642.126,280.265 L642.126,286.5 z" fill="#000000"/>
    <path d="M650.09,286.319 Q649.06,286.622 648.137,286.622 Q646.794,286.622 646.018,285.86 Q645.241,285.099 645.241,283.78 Q645.241,282.535 645.952,281.776 Q646.662,281.017 647.829,281.017 Q649.006,281.017 649.548,281.759 Q650.09,282.501 650.09,284.107 L646.765,284.107 Q646.911,285.641 648.449,285.641 Q649.177,285.641 650.09,285.304 z M646.745,283.292 L648.669,283.292 Q648.669,281.92 647.785,281.92 Q646.887,281.92 646.745,283.292 z" fill="#000000"/>
    <path d="M651.584,286.5 L651.584,281.139 L652.971,281.139 L652.971,282.149 Q653.606,281.017 654.777,281.017 Q655.383,281.017 655.774,281.314 Q656.164,281.612 656.252,282.149 Q657.004,281.017 658.068,281.017 Q659.538,281.017 659.538,282.638 L659.538,286.5 L658.151,286.5 L658.151,283.111 Q658.151,282.159 657.517,282.159 Q656.867,282.159 656.252,283.097 L656.252,286.5 L654.865,286.5 L654.865,283.111 Q654.865,282.154 654.226,282.154 Q653.586,282.154 652.971,283.097 L652.971,286.5 z" fill="#000000"/>
    <path d="M661.281,288.429 L661.281,281.139 L662.727,281.139 L662.727,282.149 Q663.283,281.017 664.48,281.017 Q665.446,281.017 666.001,281.725 Q666.555,282.433 666.555,283.673 Q666.555,285.021 665.93,285.821 Q665.305,286.622 664.255,286.622 Q663.41,286.622 662.727,285.958 L662.727,288.429 z M662.727,285.099 Q663.254,285.685 663.85,285.685 Q664.382,285.685 664.699,285.169 Q665.017,284.654 665.017,283.795 Q665.017,282.149 663.957,282.149 Q663.318,282.149 662.727,282.975 z" fill="#000000"/>
    <path d="M667.766,286.329 L667.766,285.27 Q668.84,285.719 669.602,285.719 Q670.49,285.719 670.49,285.113 Q670.49,284.723 669.758,284.43 L669.27,284.234 Q668.474,283.912 668.132,283.541 Q667.79,283.17 667.79,282.623 Q667.79,281.861 668.371,281.439 Q668.952,281.017 669.997,281.017 Q670.651,281.017 671.555,281.207 L671.555,282.223 Q670.686,281.92 670.114,281.92 Q669.216,281.92 669.216,282.477 Q669.216,282.843 669.88,283.097 L670.3,283.258 Q671.242,283.614 671.611,283.98 Q671.98,284.347 671.98,284.923 Q671.98,285.68 671.352,286.151 Q670.725,286.622 669.719,286.622 Q668.752,286.622 667.766,286.329 z" fill="#000000"/>
    <path d="M679.177,278.731 L679.177,279.664 Q677.878,280.973 677.878,283.365 Q677.878,285.763 679.177,287.071 L679.177,288.004 Q677.99,287.364 677.273,286.095 Q676.555,284.825 676.555,283.365 Q676.555,281.905 677.26,280.655 Q677.966,279.405 679.177,278.731 z" fill="#000000"/>
    <path d="M680.564,286.5 L680.564,281.139 L681.95,281.139 L681.95,282.149 Q682.585,281.017 683.757,281.017 Q684.362,281.017 684.753,281.314 Q685.144,281.612 685.232,282.149 Q685.984,281.017 687.048,281.017 Q688.518,281.017 688.518,282.638 L688.518,286.5 L687.131,286.5 L687.131,283.111 Q687.131,282.159 686.496,282.159 Q685.847,282.159 685.232,283.097 L685.232,286.5 L683.845,286.5 L683.845,283.111 Q683.845,282.154 683.205,282.154 Q682.566,282.154 681.95,283.097 L681.95,286.5 z" fill="#000000"/>
    <path d="M690.12,286.329 L690.12,285.27 Q691.194,285.719 691.956,285.719 Q692.844,285.719 692.844,285.113 Q692.844,284.723 692.112,284.43 L691.624,284.234 Q690.828,283.912 690.486,283.541 Q690.144,283.17 690.144,282.623 Q690.144,281.861 690.725,281.439 Q691.306,281.017 692.351,281.017 Q693.005,281.017 693.909,281.207 L693.909,282.223 Q693.04,281.92 692.468,281.92 Q691.57,281.92 691.57,282.477 Q691.57,282.843 692.234,283.097 L692.654,283.258 Q693.596,283.614 693.965,283.98 Q694.334,284.347 694.334,284.923 Q694.334,285.68 693.706,286.151 Q693.079,286.622 692.073,286.622 Q691.106,286.622 690.12,286.329 z" fill="#000000"/>
    <path d="M695.496,278.731 L695.496,279.664 Q696.795,280.973 696.795,283.365 Q696.795,285.763 695.496,287.071 L695.496,288.004 Q696.682,287.364 697.4,286.095 Q698.118,284.825 698.118,283.365 Q698.118,281.905 697.412,280.655 Q696.707,279.405 695.496,278.731 z" fill="#000000"/>
    <path d="M2.695,11.785 L2.695,5.55 L0.107,5.55 L0.107,4.558 L6.792,4.558 L6.792,5.55 L4.204,5.55 L4.204,11.785 z" fill="#000000"/>
    <path d="M12.168,11.604 Q11.138,11.907 10.215,11.907 Q8.872,11.907 8.096,11.145 Q7.319,10.384 7.319,9.065 Q7.319,7.82 8.03,7.061 Q8.74,6.302 9.907,6.302 Q11.084,6.302 11.626,7.044 Q12.168,7.786 12.168,9.392 L8.843,9.392 Q8.989,10.926 10.527,10.926 Q11.255,10.926 12.168,10.589 z M8.823,8.577 L10.747,8.577 Q10.747,7.205 9.863,7.205 Q8.965,7.205 8.823,8.577 z" fill="#000000"/>
    <path d="M13.662,11.785 L13.662,6.424 L15.107,6.424 L15.107,7.434 Q15.815,6.302 16.934,6.302 Q17.651,6.302 18.066,6.756 Q18.481,7.21 18.481,7.996 L18.481,11.785 L17.036,11.785 L17.036,8.352 Q17.036,7.439 16.431,7.439 Q15.742,7.439 15.107,8.411 L15.107,11.785 z" fill="#000000"/>
    <path d="M20.088,11.614 L20.088,10.555 Q21.162,11.004 21.924,11.004 Q22.812,11.004 22.812,10.398 Q22.812,10.008 22.08,9.715 L21.592,9.519 Q20.796,9.197 20.454,8.826 Q20.112,8.455 20.112,7.908 Q20.112,7.146 20.693,6.724 Q21.274,6.302 22.319,6.302 Q22.974,6.302 23.877,6.492 L23.877,7.508 Q23.008,7.205 22.437,7.205 Q21.538,7.205 21.538,7.762 Q21.538,8.128 22.202,8.382 L22.622,8.543 Q23.564,8.899 23.933,9.265 Q24.302,9.632 24.302,10.208 Q24.302,10.965 23.674,11.436 Q23.047,11.907 22.041,11.907 Q21.074,11.907 20.088,11.614 z" fill="#000000"/>
    <path d="M25.884,11.785 L25.884,6.424 L27.329,6.424 L27.329,11.785 z M25.884,5.52 L25.884,4.314 L27.329,4.314 L27.329,5.52 z" fill="#000000"/>
    <path d="M31.387,11.907 Q30.132,11.907 29.392,11.148 Q28.652,10.389 28.652,9.104 Q28.652,7.806 29.397,7.054 Q30.142,6.302 31.421,6.302 Q32.705,6.302 33.45,7.054 Q34.194,7.806 34.194,9.095 Q34.194,10.413 33.447,11.16 Q32.7,11.907 31.387,11.907 z M31.411,11.004 Q32.656,11.004 32.656,9.095 Q32.656,8.221 32.327,7.713 Q31.997,7.205 31.421,7.205 Q30.85,7.205 30.52,7.713 Q30.19,8.221 30.19,9.104 Q30.19,9.978 30.518,10.491 Q30.845,11.004 31.411,11.004 z" fill="#000000"/>
    <path d="M35.522,11.785 L35.522,6.424 L36.968,6.424 L36.968,7.434 Q37.676,6.302 38.794,6.302 Q39.512,6.302 39.927,6.756 Q40.342,7.21 40.342,7.996 L40.342,11.785 L38.896,11.785 L38.896,8.352 Q38.896,7.439 38.291,7.439 Q37.603,7.439 36.968,8.411 L36.968,11.785 z" fill="#000000"/>
    <path d="M47.705,4.016 L47.705,4.949 Q46.406,6.258 46.406,8.65 Q46.406,11.048 47.705,12.356 L47.705,13.289 Q46.519,12.649 45.801,11.38 Q45.083,10.11 45.083,8.65 Q45.083,7.19 45.789,5.94 Q46.494,4.69 47.705,4.016 z" fill="#000000"/>
    <path d="M50.981,11.785 L48.31,4.558 L49.917,4.558 L51.987,10.149 L53.989,4.558 L55.073,4.558 L52.49,11.785 z" fill="#000000"/>
    <path d="M55.659,4.016 L55.659,4.949 Q56.958,6.258 56.958,8.65 Q56.958,11.048 55.659,12.356 L55.659,13.289 Q56.845,12.649 57.563,11.38 Q58.281,10.11 58.281,8.65 Q58.281,7.19 57.575,5.94 Q56.87,4.69 55.659,4.016 z" fill="#000000"/>
    <g>
      <path d="M75.826,304.5 L219.681,304.5" fill-opacity="0" stroke="#0142F2" stroke-width="2"/>
      <g>
        <path d="M75.826,300.9 L66.226,304.5 L75.826,308.1 z" fill="#0142F2"/>
        <path d="M75.826,300.9 L66.226,304.5 L75.826,308.1 z" fill-opacity="0" stroke="#0142F2" stroke-width="2"/>
      </g>
      <g>
        <path d="M219.681,308.1 L229.281,304.5 L219.681,300.9 z" fill="#0142F2"/>
        <path d="M219.681,308.1 L229.281,304.5 L219.681,300.9 z" fill-opacity="0" stroke="#0142F2" stroke-width="2"/>
      </g>
    </g>
    <path d="M232.511,273 L232.511,318.269" fill-opacity="0" stroke="#0142F2" stroke-width="0.5" stroke-dasharray="1.5,1"/>
    <path d="M61.988,273 L61.988,318.269" fill-opacity="0" stroke="#0142F2" stroke-width="0.5" stroke-dasharray="1.5,1"/>
    <path d="M116.063,324.489 L116.063,315.817 L119.086,315.817 Q120.668,315.817 121.345,316.347 Q122.022,316.878 122.022,318.12 Q122.022,319.526 121.117,320.308 Q120.211,321.091 118.583,321.091 L117.833,321.091 L117.833,324.489 z M117.833,319.901 L118.184,319.901 Q119.11,319.901 119.646,319.47 Q120.182,319.04 120.182,318.301 Q120.182,317.007 118.536,317.007 L117.833,317.007 z" fill="#000000"/>
    <path d="M128.661,324.272 Q127.424,324.635 126.317,324.635 Q124.706,324.635 123.774,323.721 Q122.842,322.807 122.842,321.225 Q122.842,319.731 123.695,318.82 Q124.547,317.909 125.948,317.909 Q127.36,317.909 128.01,318.8 Q128.661,319.69 128.661,321.618 L124.67,321.618 Q124.846,323.458 126.692,323.458 Q127.565,323.458 128.661,323.053 z M124.647,320.639 L126.956,320.639 Q126.956,318.993 125.895,318.993 Q124.817,318.993 124.647,320.639 z M124.817,316.971 L126.229,315.091 L127.817,315.091 L125.936,316.971 z" fill="#000000"/>
    <path d="M130.454,324.489 L130.454,318.055 L132.188,318.055 L132.188,319.268 Q132.862,317.909 134.239,317.909 Q134.403,317.909 134.561,317.944 L134.561,319.491 Q134.192,319.356 133.875,319.356 Q132.838,319.356 132.188,320.405 L132.188,324.489 z" fill="#000000"/>
    <path d="M135.909,324.489 L135.909,318.055 L137.643,318.055 L137.643,324.489 z M135.909,316.971 L135.909,315.524 L137.643,315.524 L137.643,316.971 z" fill="#000000"/>
    <path d="M142.512,324.635 Q141.006,324.635 140.119,323.724 Q139.231,322.813 139.231,321.272 Q139.231,319.714 140.124,318.811 Q141.018,317.909 142.553,317.909 Q144.094,317.909 144.988,318.811 Q145.881,319.714 145.881,321.26 Q145.881,322.842 144.985,323.739 Q144.088,324.635 142.512,324.635 z M142.541,323.551 Q144.036,323.551 144.036,321.26 Q144.036,320.212 143.64,319.602 Q143.245,318.993 142.553,318.993 Q141.868,318.993 141.472,319.602 Q141.077,320.212 141.077,321.272 Q141.077,322.321 141.469,322.936 Q141.862,323.551 142.541,323.551 z" fill="#000000"/>
    <path d="M151.524,324.489 L151.524,323.276 Q150.856,324.635 149.42,324.635 Q148.26,324.635 147.598,323.786 Q146.936,322.936 146.936,321.448 Q146.936,319.831 147.683,318.87 Q148.43,317.909 149.69,317.909 Q150.698,317.909 151.524,318.706 L151.524,315.237 L153.264,315.237 L153.264,324.489 z M151.524,319.737 Q150.897,319.034 150.182,319.034 Q149.543,319.034 149.163,319.649 Q148.782,320.264 148.782,321.301 Q148.782,323.276 150.047,323.276 Q150.821,323.276 151.524,322.286 z" fill="#000000"/>
    <path d="M160.665,324.272 Q159.428,324.635 158.321,324.635 Q156.709,324.635 155.778,323.721 Q154.846,322.807 154.846,321.225 Q154.846,319.731 155.699,318.82 Q156.551,317.909 157.952,317.909 Q159.364,317.909 160.014,318.8 Q160.665,319.69 160.665,321.618 L156.674,321.618 Q156.85,323.458 158.696,323.458 Q159.569,323.458 160.665,323.053 z M156.651,320.639 L158.959,320.639 Q158.959,318.993 157.899,318.993 Q156.821,318.993 156.651,320.639 z" fill="#000000"/>
    <path d="M165.944,324.489 L165.944,322.755 L167.678,322.755 L167.678,324.489 z M165.944,319.79 L165.944,318.055 L167.678,318.055 L167.678,319.79 z" fill="#000000"/>
    <path d="M175.483,324.489 L175.483,317.007 L172.377,317.007 L172.377,315.817 L180.399,315.817 L180.399,317.007 L177.293,317.007 L177.293,324.489 z" fill="#000000"/>
    <g>
      <path d="M162.584,183.4 L217.584,183.4" fill-opacity="0" stroke="#0142F2" stroke-width="2"/>
      <g>
        <path d="M162.584,179.8 L152.984,183.4 L162.584,187 z" fill="#0142F2"/>
        <path d="M162.584,179.8 L152.984,183.4 L162.584,187 z" fill-opacity="0" stroke="#0142F2" stroke-width="2"/>
      </g>
      <g>
        <path d="M217.584,187 L227.184,183.4 L217.584,179.8 z" fill="#0142F2"/>
        <path d="M217.584,187 L227.184,183.4 L217.584,179.8 z" fill-opacity="0" stroke="#0142F2" stroke-width="2"/>
      </g>
    </g>
    <path d="M167.716,148.884 L167.716,141.657 L170.827,141.657 Q172.506,141.657 173.4,142.549 Q174.293,143.44 174.293,145.119 Q174.293,146.906 173.346,147.895 Q172.399,148.884 170.695,148.884 z M169.22,147.859 L170.343,147.859 Q171.53,147.859 172.113,147.202 Q172.697,146.545 172.697,145.207 Q172.697,144.172 172.228,143.484 Q171.906,143.01 171.452,142.829 Q170.998,142.649 170.128,142.649 L169.22,142.649 z" fill="#000000"/>
    <path d="M178.961,148.884 L178.961,147.873 Q178.258,149.006 177.135,149.006 Q176.417,149.006 176.002,148.552 Q175.587,148.098 175.587,147.312 L175.587,143.523 L177.033,143.523 L177.033,146.955 Q177.033,147.868 177.643,147.868 Q178.327,147.868 178.961,146.897 L178.961,143.523 L180.407,143.523 L180.407,148.884 z" fill="#000000"/>
    <path d="M182.213,148.884 L182.213,143.523 L183.659,143.523 L183.659,144.533 Q184.22,143.401 185.368,143.401 Q185.504,143.401 185.636,143.43 L185.636,144.719 Q185.329,144.607 185.065,144.607 Q184.201,144.607 183.659,145.481 L183.659,148.884 z" fill="#000000"/>
    <path d="M191.125,148.703 Q190.094,149.006 189.171,149.006 Q187.829,149.006 187.052,148.244 Q186.276,147.483 186.276,146.164 Q186.276,144.919 186.986,144.16 Q187.697,143.401 188.864,143.401 Q190.041,143.401 190.583,144.143 Q191.125,144.885 191.125,146.491 L187.799,146.491 Q187.946,148.025 189.484,148.025 Q190.211,148.025 191.125,147.688 z M187.78,145.676 L189.704,145.676 Q189.704,144.304 188.82,144.304 Q187.921,144.304 187.78,145.676 z M187.921,142.619 L189.098,141.052 L190.421,141.052 L188.854,142.619 z" fill="#000000"/>
    <path d="M196.984,148.703 Q195.954,149.006 195.031,149.006 Q193.688,149.006 192.912,148.244 Q192.135,147.483 192.135,146.164 Q192.135,144.919 192.846,144.16 Q193.556,143.401 194.723,143.401 Q195.9,143.401 196.442,144.143 Q196.984,144.885 196.984,146.491 L193.659,146.491 Q193.805,148.025 195.343,148.025 Q196.071,148.025 196.984,147.688 z M193.639,145.676 L195.563,145.676 Q195.563,144.304 194.679,144.304 Q193.781,144.304 193.639,145.676 z" fill="#000000"/>
    <path d="M205.148,148.884 L205.148,147.873 Q204.591,149.006 203.395,149.006 Q202.428,149.006 201.876,148.298 Q201.325,147.59 201.325,146.35 Q201.325,145.002 201.947,144.201 Q202.57,143.401 203.62,143.401 Q204.459,143.401 205.148,144.065 L205.148,141.174 L206.598,141.174 L206.598,148.884 z M205.148,144.924 Q204.626,144.338 204.03,144.338 Q203.498,144.338 203.18,144.851 Q202.863,145.363 202.863,146.228 Q202.863,147.873 203.917,147.873 Q204.562,147.873 205.148,147.048 z" fill="#000000"/>
    <path d="M212.765,148.703 Q211.735,149.006 210.812,149.006 Q209.469,149.006 208.693,148.244 Q207.917,147.483 207.917,146.164 Q207.917,144.919 208.627,144.16 Q209.337,143.401 210.504,143.401 Q211.681,143.401 212.223,144.143 Q212.765,144.885 212.765,146.491 L209.44,146.491 Q209.586,148.025 211.125,148.025 Q211.852,148.025 212.765,147.688 z M209.42,145.676 L211.344,145.676 Q211.344,144.304 210.46,144.304 Q209.562,144.304 209.42,145.676 z" fill="#000000"/>
    <path d="M162.139,160.884 L162.139,153.174 L163.585,153.174 L163.585,160.884 z" fill="#000000"/>
    <path d="M165.274,156.187 L164.971,153.174 L166.539,153.174 L166.177,156.187 z" fill="#000000"/>
    <path d="M172.227,160.703 Q171.197,161.006 170.274,161.006 Q168.931,161.006 168.155,160.244 Q167.379,159.483 167.379,158.164 Q167.379,156.919 168.089,156.16 Q168.799,155.401 169.966,155.401 Q171.143,155.401 171.685,156.143 Q172.227,156.885 172.227,158.491 L168.902,158.491 Q169.049,160.025 170.587,160.025 Q171.314,160.025 172.227,159.688 z M168.882,157.676 L170.806,157.676 Q170.806,156.304 169.923,156.304 Q169.024,156.304 168.882,157.676 z M169.024,154.619 L170.201,153.052 L171.524,153.052 L169.957,154.619 z" fill="#000000"/>
    <path d="M176.485,160.855 Q175.967,161.006 175.67,161.006 Q173.79,161.006 173.79,159.248 L173.79,156.426 L173.189,156.426 L173.189,155.523 L173.79,155.523 L173.79,154.619 L175.235,154.453 L175.235,155.523 L176.382,155.523 L176.382,156.426 L175.235,156.426 L175.235,159.058 Q175.235,160.044 176.041,160.044 Q176.226,160.044 176.485,159.976 z" fill="#000000"/>
    <path d="M180.401,160.308 Q179.678,161.006 178.853,161.006 Q178.15,161.006 177.711,160.576 Q177.271,160.147 177.271,159.463 Q177.271,158.574 177.982,158.093 Q178.692,157.613 180.015,157.613 L180.401,157.613 L180.401,157.124 Q180.401,156.289 179.449,156.289 Q178.604,156.289 177.74,156.768 L177.74,155.772 Q178.721,155.401 179.683,155.401 Q181.788,155.401 181.788,157.075 L181.788,159.448 Q181.788,160.078 182.193,160.078 Q182.266,160.078 182.383,160.059 L182.418,160.869 Q181.959,161.006 181.607,161.006 Q180.718,161.006 180.465,160.308 z M180.401,159.531 L180.401,158.443 L180.059,158.443 Q178.658,158.443 178.658,159.322 Q178.658,159.619 178.861,159.822 Q179.063,160.025 179.361,160.025 Q179.869,160.025 180.401,159.531 z" fill="#000000"/>
    <path d="M186.417,160.855 Q185.899,161.006 185.601,161.006 Q183.721,161.006 183.721,159.248 L183.721,156.426 L183.121,156.426 L183.121,155.523 L183.721,155.523 L183.721,154.619 L185.167,154.453 L185.167,155.523 L186.314,155.523 L186.314,156.426 L185.167,156.426 L185.167,159.058 Q185.167,160.044 185.972,160.044 Q186.158,160.044 186.417,159.976 z" fill="#000000"/>
    <path d="M191.002,160.884 L191.002,153.174 L192.447,153.174 L192.447,156.533 Q193.155,155.401 194.273,155.401 Q194.991,155.401 195.406,155.855 Q195.821,156.309 195.821,157.095 L195.821,160.884 L194.376,160.884 L194.376,157.451 Q194.376,156.538 193.77,156.538 Q193.082,156.538 192.447,157.51 L192.447,160.884 z" fill="#000000"/>
    <path d="M200.196,160.308 Q199.473,161.006 198.648,161.006 Q197.945,161.006 197.506,160.576 Q197.066,160.147 197.066,159.463 Q197.066,158.574 197.777,158.093 Q198.487,157.613 199.81,157.613 L200.196,157.613 L200.196,157.124 Q200.196,156.289 199.244,156.289 Q198.399,156.289 197.535,156.768 L197.535,155.772 Q198.516,155.401 199.478,155.401 Q201.583,155.401 201.583,157.075 L201.583,159.448 Q201.583,160.078 201.988,160.078 Q202.061,160.078 202.178,160.059 L202.213,160.869 Q201.754,161.006 201.402,161.006 Q200.513,161.006 200.259,160.308 z M200.196,159.531 L200.196,158.443 L199.854,158.443 Q198.453,158.443 198.453,159.322 Q198.453,159.619 198.655,159.822 Q198.858,160.025 199.156,160.025 Q199.664,160.025 200.196,159.531 z" fill="#000000"/>
    <path d="M206.763,160.884 L206.763,159.873 Q206.06,161.006 204.937,161.006 Q204.219,161.006 203.804,160.552 Q203.389,160.098 203.389,159.312 L203.389,155.523 L204.835,155.523 L204.835,158.955 Q204.835,159.868 205.445,159.868 Q206.129,159.868 206.763,158.897 L206.763,155.523 L208.209,155.523 L208.209,160.884 z" fill="#000000"/>
    <path d="M212.779,160.855 Q212.261,161.006 211.964,161.006 Q210.084,161.006 210.084,159.248 L210.084,156.426 L209.483,156.426 L209.483,155.523 L210.084,155.523 L210.084,154.619 L211.529,154.453 L211.529,155.523 L212.676,155.523 L212.676,156.426 L211.529,156.426 L211.529,159.058 Q211.529,160.044 212.335,160.044 Q212.52,160.044 212.779,159.976 z" fill="#000000"/>
    <path d="M216.973,160.884 L216.973,159.439 L218.419,159.439 L218.419,160.884 z M216.973,156.968 L216.973,155.523 L218.419,155.523 L218.419,156.968 z" fill="#000000"/>
    <path d="M186.046,172.884 L186.046,166.649 L183.458,166.649 L183.458,165.657 L190.143,165.657 L190.143,166.649 L187.555,166.649 L187.555,172.884 z" fill="#000000"/>
    <path d="M191.154,172.884 L191.154,165.174 L192.599,165.174 L192.599,168.533 Q193.307,167.401 194.425,167.401 Q195.143,167.401 195.558,167.855 Q195.973,168.309 195.973,169.095 L195.973,172.884 L194.528,172.884 L194.528,169.451 Q194.528,168.538 193.922,168.538 Q193.234,168.538 192.599,169.51 L192.599,172.884 z" fill="#000000"/>
    <g>
      <path d="M75.826,183.4 L130.827,183.4" fill-opacity="0" stroke="#0142F2" stroke-width="2"/>
      <g>
        <path d="M75.826,179.8 L66.226,183.4 L75.826,187 z" fill="#0142F2"/>
        <path d="M75.826,179.8 L66.226,183.4 L75.826,187 z" fill-opacity="0" stroke="#0142F2" stroke-width="2"/>
      </g>
      <g>
        <path d="M130.827,187 L140.427,183.4 L130.827,179.8 z" fill="#0142F2"/>
        <path d="M130.827,187 L140.427,183.4 L130.827,179.8 z" fill-opacity="0" stroke="#0142F2" stroke-width="2"/>
      </g>
    </g>
    <path d="M80.958,148.884 L80.958,141.657 L84.069,141.657 Q85.748,141.657 86.642,142.549 Q87.535,143.44 87.535,145.119 Q87.535,146.906 86.588,147.895 Q85.641,148.884 83.937,148.884 z M82.462,147.859 L83.585,147.859 Q84.772,147.859 85.355,147.202 Q85.939,146.545 85.939,145.207 Q85.939,144.172 85.47,143.484 Q85.148,143.01 84.694,142.829 Q84.24,142.649 83.37,142.649 L82.462,142.649 z" fill="#000000"/>
    <path d="M92.203,148.884 L92.203,147.873 Q91.5,149.006 90.377,149.006 Q89.659,149.006 89.244,148.552 Q88.829,148.098 88.829,147.312 L88.829,143.523 L90.275,143.523 L90.275,146.955 Q90.275,147.868 90.885,147.868 Q91.569,147.868 92.203,146.897 L92.203,143.523 L93.649,143.523 L93.649,148.884 z" fill="#000000"/>
    <path d="M95.455,148.884 L95.455,143.523 L96.901,143.523 L96.901,144.533 Q97.462,143.401 98.61,143.401 Q98.746,143.401 98.878,143.43 L98.878,144.719 Q98.571,144.607 98.307,144.607 Q97.443,144.607 96.901,145.481 L96.901,148.884 z" fill="#000000"/>
    <path d="M104.367,148.703 Q103.336,149.006 102.413,149.006 Q101.071,149.006 100.294,148.244 Q99.518,147.483 99.518,146.164 Q99.518,144.919 100.228,144.16 Q100.939,143.401 102.106,143.401 Q103.283,143.401 103.825,144.143 Q104.367,144.885 104.367,146.491 L101.041,146.491 Q101.188,148.025 102.726,148.025 Q103.453,148.025 104.367,147.688 z M101.022,145.676 L102.946,145.676 Q102.946,144.304 102.062,144.304 Q101.163,144.304 101.022,145.676 z M101.163,142.619 L102.34,141.052 L103.663,141.052 L102.096,142.619 z" fill="#000000"/>
    <path d="M110.226,148.703 Q109.196,149.006 108.273,149.006 Q106.93,149.006 106.154,148.244 Q105.377,147.483 105.377,146.164 Q105.377,144.919 106.088,144.16 Q106.798,143.401 107.965,143.401 Q109.142,143.401 109.684,144.143 Q110.226,144.885 110.226,146.491 L106.901,146.491 Q107.047,148.025 108.585,148.025 Q109.313,148.025 110.226,147.688 z M106.881,145.676 L108.805,145.676 Q108.805,144.304 107.921,144.304 Q107.023,144.304 106.881,145.676 z" fill="#000000"/>
    <path d="M118.39,148.884 L118.39,147.873 Q117.833,149.006 116.637,149.006 Q115.67,149.006 115.118,148.298 Q114.567,147.59 114.567,146.35 Q114.567,145.002 115.189,144.201 Q115.812,143.401 116.862,143.401 Q117.701,143.401 118.39,144.065 L118.39,141.174 L119.84,141.174 L119.84,148.884 z M118.39,144.924 Q117.868,144.338 117.272,144.338 Q116.74,144.338 116.422,144.851 Q116.105,145.363 116.105,146.228 Q116.105,147.873 117.159,147.873 Q117.804,147.873 118.39,147.048 z" fill="#000000"/>
    <path d="M126.007,148.703 Q124.977,149.006 124.054,149.006 Q122.711,149.006 121.935,148.244 Q121.159,147.483 121.159,146.164 Q121.159,144.919 121.869,144.16 Q122.579,143.401 123.746,143.401 Q124.923,143.401 125.465,144.143 Q126.007,144.885 126.007,146.491 L122.682,146.491 Q122.828,148.025 124.367,148.025 Q125.094,148.025 126.007,147.688 z M122.662,145.676 L124.586,145.676 Q124.586,144.304 123.702,144.304 Q122.804,144.304 122.662,145.676 z" fill="#000000"/>
    <path d="M77.835,160.884 L77.835,153.174 L79.281,153.174 L79.281,160.884 z" fill="#000000"/>
    <path d="M80.97,156.187 L80.667,153.174 L82.235,153.174 L81.873,156.187 z" fill="#000000"/>
    <path d="M87.923,160.703 Q86.893,161.006 85.97,161.006 Q84.627,161.006 83.851,160.244 Q83.075,159.483 83.075,158.164 Q83.075,156.919 83.785,156.16 Q84.495,155.401 85.662,155.401 Q86.839,155.401 87.381,156.143 Q87.923,156.885 87.923,158.491 L84.598,158.491 Q84.744,160.025 86.283,160.025 Q87.01,160.025 87.923,159.688 z M84.578,157.676 L86.502,157.676 Q86.502,156.304 85.619,156.304 Q84.72,156.304 84.578,157.676 z M84.72,154.619 L85.897,153.052 L87.22,153.052 L85.653,154.619 z" fill="#000000"/>
    <path d="M92.181,160.855 Q91.663,161.006 91.366,161.006 Q89.486,161.006 89.486,159.248 L89.486,156.426 L88.885,156.426 L88.885,155.523 L89.486,155.523 L89.486,154.619 L90.931,154.453 L90.931,155.523 L92.078,155.523 L92.078,156.426 L90.931,156.426 L90.931,159.058 Q90.931,160.044 91.737,160.044 Q91.922,160.044 92.181,159.976 z" fill="#000000"/>
    <path d="M96.097,160.308 Q95.374,161.006 94.549,161.006 Q93.846,161.006 93.407,160.576 Q92.967,160.147 92.967,159.463 Q92.967,158.574 93.678,158.093 Q94.388,157.613 95.711,157.613 L96.097,157.613 L96.097,157.124 Q96.097,156.289 95.145,156.289 Q94.3,156.289 93.436,156.768 L93.436,155.772 Q94.417,155.401 95.379,155.401 Q97.484,155.401 97.484,157.075 L97.484,159.448 Q97.484,160.078 97.889,160.078 Q97.962,160.078 98.079,160.059 L98.114,160.869 Q97.655,161.006 97.303,161.006 Q96.414,161.006 96.161,160.308 z M96.097,159.531 L96.097,158.443 L95.755,158.443 Q94.354,158.443 94.354,159.322 Q94.354,159.619 94.557,159.822 Q94.759,160.025 95.057,160.025 Q95.565,160.025 96.097,159.531 z" fill="#000000"/>
    <path d="M102.113,160.855 Q101.595,161.006 101.297,161.006 Q99.417,161.006 99.417,159.248 L99.417,156.426 L98.817,156.426 L98.817,155.523 L99.417,155.523 L99.417,154.619 L100.863,154.453 L100.863,155.523 L102.01,155.523 L102.01,156.426 L100.863,156.426 L100.863,159.058 Q100.863,160.044 101.668,160.044 Q101.854,160.044 102.113,159.976 z" fill="#000000"/>
    <path d="M106.698,160.884 L106.698,153.174 L108.143,153.174 L108.143,156.533 Q108.7,155.401 109.896,155.401 Q110.863,155.401 111.417,156.109 Q111.971,156.817 111.971,158.057 Q111.971,159.4 111.346,160.203 Q110.721,161.006 109.676,161.006 Q108.778,161.006 108.143,160.342 L107.874,160.884 z M108.143,159.483 Q108.67,160.069 109.266,160.069 Q109.798,160.069 110.116,159.553 Q110.433,159.038 110.433,158.179 Q110.433,156.533 109.373,156.533 Q108.734,156.533 108.143,157.359 z" fill="#000000"/>
    <path d="M115.951,160.308 Q115.228,161.006 114.403,161.006 Q113.7,161.006 113.26,160.576 Q112.821,160.147 112.821,159.463 Q112.821,158.574 113.531,158.093 Q114.242,157.613 115.565,157.613 L115.951,157.613 L115.951,157.124 Q115.951,156.289 114.998,156.289 Q114.154,156.289 113.289,156.768 L113.289,155.772 Q114.271,155.401 115.233,155.401 Q117.337,155.401 117.337,157.075 L117.337,159.448 Q117.337,160.078 117.743,160.078 Q117.816,160.078 117.933,160.059 L117.967,160.869 Q117.508,161.006 117.157,161.006 Q116.268,161.006 116.014,160.308 z M115.951,159.531 L115.951,158.443 L115.609,158.443 Q114.207,158.443 114.207,159.322 Q114.207,159.619 114.41,159.822 Q114.613,160.025 114.911,160.025 Q115.418,160.025 115.951,159.531 z" fill="#000000"/>
    <path d="M119.061,160.713 L119.061,159.654 Q120.135,160.103 120.897,160.103 Q121.786,160.103 121.786,159.497 Q121.786,159.107 121.053,158.814 L120.565,158.618 Q119.769,158.296 119.427,157.925 Q119.085,157.554 119.085,157.007 Q119.085,156.245 119.666,155.823 Q120.247,155.401 121.292,155.401 Q121.947,155.401 122.85,155.591 L122.85,156.607 Q121.981,156.304 121.41,156.304 Q120.511,156.304 120.511,156.861 Q120.511,157.227 121.175,157.481 L121.595,157.642 Q122.537,157.998 122.906,158.364 Q123.275,158.731 123.275,159.307 Q123.275,160.064 122.647,160.535 Q122.02,161.006 121.014,161.006 Q120.047,161.006 119.061,160.713 z" fill="#000000"/>
    <path d="M127.762,160.884 L127.762,159.439 L129.207,159.439 L129.207,160.884 z M127.762,156.968 L127.762,155.523 L129.207,155.523 L129.207,156.968 z" fill="#000000"/>
    <path d="M99.258,172.884 L99.258,166.649 L96.67,166.649 L96.67,165.657 L103.355,165.657 L103.355,166.649 L100.767,166.649 L100.767,172.884 z" fill="#000000"/>
    <path d="M104.366,172.884 L104.366,165.174 L105.811,165.174 L105.811,168.533 Q106.368,167.401 107.564,167.401 Q108.531,167.401 109.085,168.109 Q109.639,168.817 109.639,170.057 Q109.639,171.4 109.014,172.203 Q108.389,173.006 107.344,173.006 Q106.446,173.006 105.811,172.342 L105.542,172.884 z M105.811,171.483 Q106.338,172.069 106.934,172.069 Q107.466,172.069 107.784,171.553 Q108.101,171.038 108.101,170.179 Q108.101,168.533 107.042,168.533 Q106.402,168.533 105.811,169.359 z" fill="#000000"/>
    <path d="M8.519,49.95 L5.313,41.278 L7.241,41.278 L9.726,47.987 L12.128,41.278 L13.429,41.278 L10.329,49.95 z" fill="#000000"/>
    <path d="M14.636,49.95 L14.636,43.516 L16.3,43.516 L16.3,44.729 Q17.062,43.37 18.468,43.37 Q19.194,43.37 19.663,43.727 Q20.132,44.085 20.237,44.729 Q21.14,43.37 22.417,43.37 Q24.181,43.37 24.181,45.315 L24.181,49.95 L22.517,49.95 L22.517,45.884 Q22.517,44.741 21.755,44.741 Q20.976,44.741 20.237,45.866 L20.237,49.95 L18.573,49.95 L18.573,45.884 Q18.573,44.735 17.806,44.735 Q17.038,44.735 16.3,45.866 L16.3,49.95 z" fill="#000000"/>
    <path d="M29.425,49.259 Q28.558,50.096 27.567,50.096 Q26.724,50.096 26.196,49.581 Q25.669,49.065 25.669,48.245 Q25.669,47.179 26.521,46.601 Q27.374,46.024 28.962,46.024 L29.425,46.024 L29.425,45.438 Q29.425,44.436 28.282,44.436 Q27.269,44.436 26.231,45.011 L26.231,43.815 Q27.409,43.37 28.563,43.37 Q31.089,43.37 31.089,45.38 L31.089,48.227 Q31.089,48.983 31.575,48.983 Q31.663,48.983 31.804,48.96 L31.845,49.932 Q31.294,50.096 30.872,50.096 Q29.806,50.096 29.501,49.259 z M29.425,48.327 L29.425,47.02 L29.015,47.02 Q27.333,47.02 27.333,48.075 Q27.333,48.432 27.576,48.676 Q27.819,48.919 28.177,48.919 Q28.786,48.919 29.425,48.327 z" fill="#000000"/>
    <path d="M32.642,49.95 L34.851,46.721 L32.735,43.516 L34.71,43.516 L36.093,45.555 L37.417,43.516 L38.823,43.516 L36.808,46.675 L38.97,49.95 L36.995,49.95 L35.554,47.823 L34.077,49.95 z" fill="#000000"/>
    <path d="M8.519,276.65 L5.313,267.978 L7.241,267.978 L9.726,274.687 L12.128,267.978 L13.429,267.978 L10.329,276.65 z" fill="#000000"/>
    <path d="M14.636,276.65 L14.636,270.216 L16.3,270.216 L16.3,271.429 Q17.062,270.07 18.468,270.07 Q19.194,270.07 19.663,270.427 Q20.132,270.785 20.237,271.429 Q21.14,270.07 22.417,270.07 Q24.181,270.07 24.181,272.015 L24.181,276.65 L22.517,276.65 L22.517,272.584 Q22.517,271.441 21.755,271.441 Q20.976,271.441 20.237,272.566 L20.237,276.65 L18.573,276.65 L18.573,272.584 Q18.573,271.435 17.806,271.435 Q17.038,271.435 16.3,272.566 L16.3,276.65 z" fill="#000000"/>
    <path d="M26.272,276.65 L26.272,270.216 L28.007,270.216 L28.007,276.65 z M26.272,269.132 L26.272,267.685 L28.007,267.685 L28.007,269.132 z" fill="#000000"/>
    <path d="M30.175,276.65 L30.175,270.216 L31.909,270.216 L31.909,271.429 Q32.759,270.07 34.101,270.07 Q34.962,270.07 35.46,270.615 Q35.958,271.16 35.958,272.103 L35.958,276.65 L34.224,276.65 L34.224,272.531 Q34.224,271.435 33.497,271.435 Q32.671,271.435 31.909,272.601 L31.909,276.65 z" fill="#000000"/>
    <path d="M150.784,46.95 L44.17,46.95" fill-opacity="0" stroke="#0142F2" stroke-width="0.5" stroke-dasharray="1.5,1"/>
    <path d="M64.726,272.65 L42.013,272.65" fill-opacity="0" stroke="#0142F2" stroke-width="0.5" stroke-dasharray="1.5,1"/>
    <path d="M61.965,287.152 Q61.026,287.152 60.446,286.268 Q59.865,285.384 59.865,283.961 Q59.865,282.525 60.45,281.652 Q61.034,280.778 61.99,280.778 Q62.945,280.778 63.53,281.652 Q64.114,282.525 64.114,283.948 Q64.114,285.409 63.53,286.28 Q62.945,287.152 61.965,287.152 z M61.973,286.545 Q63.257,286.545 63.257,283.936 Q63.257,281.385 61.99,281.385 Q60.727,281.385 60.727,283.961 Q60.727,286.545 61.973,286.545 z" fill="#000000"/>
    <path d="M99.319,287.152 Q98.38,287.152 97.8,286.268 Q97.219,285.384 97.219,283.961 Q97.219,282.525 97.804,281.652 Q98.388,280.778 99.344,280.778 Q100.299,280.778 100.884,281.652 Q101.468,282.525 101.468,283.948 Q101.468,285.409 100.884,286.28 Q100.299,287.152 99.319,287.152 z M99.327,286.545 Q100.611,286.545 100.611,283.936 Q100.611,281.385 99.344,281.385 Q98.081,281.385 98.081,283.961 Q98.081,286.545 99.327,286.545 z" fill="#000000"/>
    <path d="M102.818,288.317 L102.818,288.013 Q103.212,287.902 103.212,287.082 L103.212,287 L102.818,287 L102.818,285.987 L103.831,285.987 L103.831,286.865 Q103.831,288.214 102.818,288.317 z" fill="#000000"/>
    <path d="M105.677,287.025 L105.677,286.303 Q106.28,286.545 106.825,286.545 Q107.424,286.545 107.766,286.192 Q108.109,285.839 108.109,285.22 Q108.109,283.854 106.226,283.854 Q106.013,283.854 105.779,283.883 L105.779,280.93 L108.851,280.93 L108.851,281.635 L106.489,281.635 L106.489,283.235 Q107.658,283.235 108.314,283.772 Q108.97,284.309 108.97,285.261 Q108.97,286.147 108.373,286.649 Q107.777,287.152 106.718,287.152 Q106.259,287.152 105.677,287.025 z" fill="#000000"/>
    <path d="M145.376,287 L145.376,286.393 L146.59,286.393 L146.59,281.602 L145.376,281.906 L145.376,281.282 L147.402,280.778 L147.402,286.393 L148.617,286.393 L148.617,287 z" fill="#000000"/>
    <path d="M184.707,287 L184.707,286.393 L185.921,286.393 L185.921,281.602 L184.707,281.906 L184.707,281.282 L186.733,280.778 L186.733,286.393 L187.948,286.393 L187.948,287 z" fill="#000000"/>
    <path d="M189.576,288.317 L189.576,288.013 Q189.97,287.902 189.97,287.082 L189.97,287 L189.576,287 L189.576,285.987 L190.589,285.987 L190.589,286.865 Q190.589,288.214 189.576,288.317 z" fill="#000000"/>
    <path d="M192.435,287.025 L192.435,286.303 Q193.038,286.545 193.583,286.545 Q194.182,286.545 194.524,286.192 Q194.867,285.839 194.867,285.22 Q194.867,283.854 192.984,283.854 Q192.771,283.854 192.537,283.883 L192.537,280.93 L195.609,280.93 L195.609,281.635 L193.247,281.635 L193.247,283.235 Q194.416,283.235 195.072,283.772 Q195.728,284.309 195.728,285.261 Q195.728,286.147 195.131,286.649 Q194.535,287.152 193.476,287.152 Q193.017,287.152 192.435,287.025 z" fill="#000000"/>
    <path d="M230.552,287 L230.552,286.29 Q230.905,285.466 231.98,284.494 L232.443,284.08 Q233.337,283.272 233.337,282.476 Q233.337,281.967 233.032,281.676 Q232.726,281.385 232.193,281.385 Q231.561,281.385 230.704,281.873 L230.704,281.159 Q231.512,280.778 232.308,280.778 Q233.161,280.778 233.678,281.237 Q234.194,281.697 234.194,282.455 Q234.194,283.001 233.934,283.423 Q233.674,283.846 232.964,284.449 L232.652,284.715 Q231.68,285.54 231.528,286.29 L234.166,286.29 L234.166,287 z" fill="#000000"/>
    <path d="M267.687,287 L267.687,286.29 Q268.04,285.466 269.115,284.494 L269.578,284.08 Q270.472,283.272 270.472,282.476 Q270.472,281.967 270.167,281.676 Q269.861,281.385 269.328,281.385 Q268.696,281.385 267.839,281.873 L267.839,281.159 Q268.647,280.778 269.443,280.778 Q270.296,280.778 270.813,281.237 Q271.329,281.697 271.329,282.455 Q271.329,283.001 271.069,283.423 Q270.809,283.846 270.099,284.449 L269.787,284.715 Q268.815,285.54 268.663,286.29 L271.301,286.29 L271.301,287 z" fill="#000000"/>
    <path d="M273.122,288.317 L273.122,288.013 Q273.516,287.902 273.516,287.082 L273.516,287 L273.122,287 L273.122,285.987 L274.135,285.987 L274.135,286.865 Q274.135,288.214 273.122,288.317 z" fill="#000000"/>
    <path d="M275.981,287.025 L275.981,286.303 Q276.584,286.545 277.129,286.545 Q277.728,286.545 278.07,286.192 Q278.413,285.839 278.413,285.22 Q278.413,283.854 276.53,283.854 Q276.317,283.854 276.083,283.883 L276.083,280.93 L279.155,280.93 L279.155,281.635 L276.793,281.635 L276.793,283.235 Q277.962,283.235 278.618,283.772 Q279.274,284.309 279.274,285.261 Q279.274,286.147 278.677,286.649 Q278.081,287.152 277.022,287.152 Q276.563,287.152 275.981,287.025 z" fill="#000000"/>
    <path d="M315.97,287.255 L315.97,286.5 Q316.84,286.845 317.34,286.845 Q317.918,286.845 318.281,286.506 Q318.644,286.168 318.644,285.631 Q318.644,284.351 316.852,284.351 L316.532,284.351 L316.532,283.805 L316.815,283.801 Q318.497,283.801 318.497,282.616 Q318.497,281.685 317.389,281.685 Q316.782,281.685 316.052,282.025 L316.052,281.32 Q316.77,281.078 317.447,281.078 Q319.309,281.078 319.309,282.485 Q319.309,283.555 318.041,284.011 Q319.51,284.351 319.51,285.618 Q319.51,286.476 318.944,286.964 Q318.378,287.452 317.389,287.452 Q316.827,287.452 315.97,287.255 z" fill="#000000"/>
    <path d="M354.617,286.955 L354.617,286.2 Q355.487,286.545 355.987,286.545 Q356.565,286.545 356.928,286.206 Q357.291,285.868 357.291,285.331 Q357.291,284.051 355.499,284.051 L355.179,284.051 L355.179,283.505 L355.462,283.501 Q357.144,283.501 357.144,282.316 Q357.144,281.385 356.036,281.385 Q355.429,281.385 354.699,281.725 L354.699,281.02 Q355.417,280.778 356.094,280.778 Q357.956,280.778 357.956,282.185 Q357.956,283.255 356.688,283.711 Q358.157,284.051 358.157,285.318 Q358.157,286.176 357.591,286.664 Q357.025,287.152 356.036,287.152 Q355.474,287.152 354.617,286.955 z" fill="#000000"/>
    <path d="M359.896,288.317 L359.896,288.013 Q360.29,287.902 360.29,287.082 L360.29,287 L359.896,287 L359.896,285.987 L360.909,285.987 L360.909,286.865 Q360.909,288.214 359.896,288.317 z" fill="#000000"/>
    <path d="M362.755,287.025 L362.755,286.303 Q363.358,286.545 363.903,286.545 Q364.502,286.545 364.844,286.192 Q365.187,285.839 365.187,285.22 Q365.187,283.854 363.304,283.854 Q363.091,283.854 362.857,283.883 L362.857,280.93 L365.929,280.93 L365.929,281.635 L363.567,281.635 L363.567,283.235 Q364.736,283.235 365.392,283.772 Q366.048,284.309 366.048,285.261 Q366.048,286.147 365.451,286.649 Q364.855,287.152 363.796,287.152 Q363.337,287.152 362.755,287.025 z" fill="#000000"/>
    <path d="M404.031,287 L404.031,285.281 L401.3,285.281 L401.3,284.67 L404.031,280.93 L404.79,280.93 L404.79,284.621 L405.602,284.621 L405.602,285.281 L404.79,285.281 L404.79,287 z M402.091,284.621 L404.085,284.621 L404.085,281.922 z" fill="#000000"/>
    <path d="M442.18,287 L442.18,285.281 L439.449,285.281 L439.449,284.67 L442.18,280.93 L442.939,280.93 L442.939,284.621 L443.751,284.621 L443.751,285.281 L442.939,285.281 L442.939,287 z M440.24,284.621 L442.234,284.621 L442.234,281.922 z" fill="#000000"/>
    <path d="M445.15,288.317 L445.15,288.013 Q445.544,287.902 445.544,287.082 L445.544,287 L445.15,287 L445.15,285.987 L446.163,285.987 L446.163,286.865 Q446.163,288.214 445.15,288.317 z" fill="#000000"/>
    <path d="M448.009,287.025 L448.009,286.303 Q448.612,286.545 449.157,286.545 Q449.756,286.545 450.098,286.192 Q450.441,285.839 450.441,285.22 Q450.441,283.854 448.558,283.854 Q448.345,283.854 448.111,283.883 L448.111,280.93 L451.183,280.93 L451.183,281.635 L448.821,281.635 L448.821,283.235 Q449.99,283.235 450.646,283.772 Q451.302,284.309 451.302,285.261 Q451.302,286.147 450.705,286.649 Q450.109,287.152 449.05,287.152 Q448.591,287.152 448.009,287.025 z" fill="#000000"/>
    <path d="M486.104,287.025 L486.104,286.303 Q486.707,286.545 487.253,286.545 Q487.852,286.545 488.194,286.192 Q488.536,285.839 488.536,285.22 Q488.536,283.854 486.654,283.854 Q486.441,283.854 486.207,283.883 L486.207,280.93 L489.279,280.93 L489.279,281.635 L486.916,281.635 L486.916,283.235 Q488.085,283.235 488.742,283.772 Q489.398,284.309 489.398,285.261 Q489.398,286.147 488.801,286.649 Q488.204,287.152 487.146,287.152 Q486.687,287.152 486.104,287.025 z" fill="#000000"/>
    <path d="M525.693,287.025 L525.693,286.303 Q526.296,286.545 526.842,286.545 Q527.441,286.545 527.783,286.192 Q528.125,285.839 528.125,285.22 Q528.125,283.854 526.243,283.854 Q526.03,283.854 525.796,283.883 L525.796,280.93 L528.868,280.93 L528.868,281.635 L526.505,281.635 L526.505,283.235 Q527.674,283.235 528.331,283.772 Q528.987,284.309 528.987,285.261 Q528.987,286.147 528.39,286.649 Q527.793,287.152 526.735,287.152 Q526.276,287.152 525.693,287.025 z" fill="#000000"/>
    <path d="M530.804,288.317 L530.804,288.013 Q531.198,287.902 531.198,287.082 L531.198,287 L530.804,287 L530.804,285.987 L531.817,285.987 L531.817,286.865 Q531.817,288.214 530.804,288.317 z" fill="#000000"/>
    <path d="M533.663,287.025 L533.663,286.303 Q534.266,286.545 534.811,286.545 Q535.41,286.545 535.752,286.192 Q536.095,285.839 536.095,285.22 Q536.095,283.854 534.212,283.854 Q533.999,283.854 533.765,283.883 L533.765,280.93 L536.837,280.93 L536.837,281.635 L534.475,281.635 L534.475,283.235 Q535.644,283.235 536.3,283.772 Q536.956,284.309 536.956,285.261 Q536.956,286.147 536.359,286.649 Q535.763,287.152 534.704,287.152 Q534.245,287.152 533.663,287.025 z" fill="#000000"/>
    <path d="M571.69,283.854 Q572.268,283.104 573.146,283.104 Q573.942,283.104 574.448,283.631 Q574.955,284.158 574.955,284.982 Q574.955,285.929 574.387,286.541 Q573.818,287.152 572.945,287.152 Q571.94,287.152 571.374,286.344 Q570.808,285.536 570.808,284.1 Q570.808,282.521 571.458,281.647 Q572.108,280.774 573.289,280.774 Q573.831,280.774 574.643,281.004 L574.643,281.709 Q573.786,281.381 573.24,281.381 Q571.69,281.381 571.69,283.854 z M574.143,285.163 Q574.143,284.473 573.833,284.08 Q573.523,283.686 572.974,283.686 Q572.461,283.686 572.092,284.03 Q571.723,284.375 571.723,284.859 Q571.723,285.622 572.073,286.083 Q572.424,286.545 573.002,286.545 Q573.523,286.545 573.833,286.169 Q574.143,285.794 574.143,285.163 z" fill="#000000"/>
  </g>
</svg>
