<?xml version="1.0" encoding="UTF-8"?>
<!DOCTYPE svg PUBLIC "-//W3C//DTD SVG 1.1//EN" "http://www.w3.org/Graphics/SVG/1.1/DTD/svg11.dtd">
<svg version="1.1" xmlns="http://www.w3.org/2000/svg" xmlns:xlink="http://www.w3.org/1999/xlink" x="0" y="0" width="979.16" height="200.316" viewBox="0, 0, 979.16, 200.316">
  <g id="Calque_1" transform="translate(0, -0)">
    <path d="M540.532,0 L934.173,0 C959.019,0 979.16,10.201 979.16,22.785 L979.16,177.531 C979.16,190.115 959.019,200.316 934.173,200.316 L540.532,200.316 C515.687,200.316 495.545,190.115 495.545,177.531 L495.545,22.785 C495.545,10.201 515.687,0 540.532,0 z" fill="#FFF4B8" fill-opacity="0.5"/>
    <path d="M42.795,0 L417.249,0 C440.884,0 460.044,10.201 460.044,22.785 L460.044,177.531 C460.044,190.115 440.884,200.316 417.249,200.316 L42.795,200.316 C19.16,200.316 -0,190.115 -0,177.531 L-0,22.785 C-0,10.201 19.16,0 42.795,0 z" fill="#FFF4B8" fill-opacity="0.5"/>
    <path d="M628.587,32.298 L771.028,32.298 C780.019,32.298 787.307,35.532 787.307,39.521 L787.307,88.576 C787.307,92.565 780.019,95.798 771.028,95.798 L628.587,95.798 C619.596,95.798 612.307,92.565 612.307,88.576 L612.307,39.521 C612.307,35.532 619.596,32.298 628.587,32.298 z" fill="#CEEEFC" fill-opacity="0.727"/>
    <path d="M513.953,32.298 L596.163,32.298 C601.352,32.298 605.558,35.532 605.558,39.521 L605.558,88.576 C605.558,92.565 601.352,95.798 596.163,95.798 L513.953,95.798 C508.765,95.798 504.558,92.565 504.558,88.576 L504.558,39.521 C504.558,35.532 508.765,32.298 513.953,32.298 z" fill="#CEEEFC" fill-opacity="0.727"/>
    <path d="M538.359,78.314 L544.306,78.314 L544.306,87.491 L548.039,87.491 L548.039,89.798 L537.559,89.798 L537.559,87.491 L541.302,87.491 L541.302,80.621 L538.359,80.621 z M541.302,72.725 L544.306,72.725 L544.306,76.232 L541.302,76.232 z" fill="#000000"/>
    <path d="M559.718,82.343 L559.718,89.798 L556.734,89.798 L556.734,82.805 Q556.734,81.554 556.38,81.016 Q556.027,80.477 555.227,80.477 Q554.417,80.477 553.95,81.205 Q553.484,81.933 553.484,83.225 L553.484,89.798 L550.5,89.798 L550.5,78.314 L553.484,78.314 L553.484,80.036 Q553.801,79.083 554.57,78.56 Q555.34,78.037 556.426,78.037 Q558.057,78.037 558.887,79.119 Q559.718,80.2 559.718,82.343 z" fill="#000000"/>
    <path d="M568.454,75.053 L568.454,78.314 L572.382,78.314 L572.382,80.621 L568.454,80.621 L568.454,86.055 Q568.454,86.824 568.829,87.158 Q569.203,87.491 570.074,87.491 L572.382,87.491 L572.382,89.798 L569.859,89.798 Q567.275,89.798 566.362,88.973 Q565.45,88.147 565.45,85.912 L565.45,80.621 L562.517,80.621 L562.517,78.314 L565.45,78.314 L565.45,75.053 z" fill="#000000"/>
    <path d="M637.845,77.796 Q638.184,77.068 638.706,76.719 Q639.229,76.371 639.988,76.371 Q641.475,76.371 642.044,77.396 Q642.613,78.422 642.613,81.662 L642.613,88.132 L640.152,88.132 L640.152,80.759 Q640.152,79.478 639.957,79.047 Q639.763,78.616 639.25,78.616 Q638.737,78.616 638.532,79.057 Q638.327,79.498 638.327,80.759 L638.327,88.132 L635.897,88.132 L635.897,80.759 Q635.897,79.498 635.692,79.057 Q635.487,78.616 634.974,78.616 Q634.461,78.616 634.267,79.047 Q634.072,79.478 634.072,80.759 L634.072,88.132 L631.611,88.132 L631.611,76.648 L633.795,76.648 L633.795,77.837 Q634.051,77.16 634.615,76.766 Q635.179,76.371 635.876,76.371 Q636.574,76.371 637.148,76.786 Q637.722,77.201 637.845,77.796 z" fill="#000000"/>
    <path d="M650.591,82.738 Q648.909,82.738 648.243,83.169 Q647.576,83.6 647.576,84.646 Q647.576,85.425 648.038,85.886 Q648.499,86.348 649.289,86.348 Q650.478,86.348 651.134,85.451 Q651.79,84.553 651.79,82.944 L651.79,82.738 z M654.774,81.58 L654.774,88.132 L651.79,88.132 L651.79,86.85 Q651.247,87.609 650.396,88.019 Q649.545,88.429 648.519,88.429 Q646.561,88.429 645.469,87.394 Q644.377,86.358 644.377,84.502 Q644.377,82.492 645.679,81.534 Q646.981,80.575 649.709,80.575 L651.79,80.575 L651.79,80.072 Q651.79,79.344 651.262,78.97 Q650.734,78.596 649.709,78.596 Q648.632,78.596 647.622,78.868 Q646.612,79.139 645.515,79.734 L645.515,77.171 Q646.51,76.76 647.535,76.566 Q648.56,76.371 649.709,76.371 Q652.508,76.371 653.641,77.509 Q654.774,78.647 654.774,81.58 z" fill="#000000"/>
    <path d="M668.699,90.08 L668.699,92.131 L656.056,92.131 L656.056,90.08 z" fill="#000000"/>
    <path d="M680.522,76.648 L676.872,88.132 L673.17,88.132 L669.519,76.648 L672.565,76.648 L675.016,85.61 L677.477,76.648 z" fill="#000000"/>
    <path d="M688.52,82.738 Q686.838,82.738 686.172,83.169 Q685.505,83.6 685.505,84.646 Q685.505,85.425 685.967,85.886 Q686.428,86.348 687.218,86.348 Q688.407,86.348 689.063,85.451 Q689.72,84.553 689.72,82.944 L689.72,82.738 z M692.704,81.58 L692.704,88.132 L689.72,88.132 L689.72,86.85 Q689.176,87.609 688.325,88.019 Q687.474,88.429 686.449,88.429 Q684.49,88.429 683.398,87.394 Q682.306,86.358 682.306,84.502 Q682.306,82.492 683.608,81.534 Q684.911,80.575 687.638,80.575 L689.72,80.575 L689.72,80.072 Q689.72,79.344 689.192,78.97 Q688.664,78.596 687.638,78.596 Q686.561,78.596 685.551,78.868 Q684.541,79.139 683.444,79.734 L683.444,77.171 Q684.439,76.76 685.464,76.566 Q686.49,76.371 687.638,76.371 Q690.437,76.371 691.57,77.509 Q692.704,78.647 692.704,81.58 z" fill="#000000"/>
    <path d="M705.788,79.816 Q705.295,79.365 704.634,79.139 Q703.973,78.914 703.183,78.914 Q702.229,78.914 701.517,79.247 Q700.804,79.58 700.414,80.216 Q700.168,80.606 700.071,81.159 Q699.974,81.713 699.974,82.841 L699.974,88.132 L696.969,88.132 L696.969,76.648 L699.974,76.648 L699.974,78.432 Q700.414,77.447 701.327,76.909 Q702.24,76.371 703.46,76.371 Q704.075,76.371 704.665,76.519 Q705.254,76.668 705.788,76.955 z" fill="#000000"/>
    <path d="M708.894,76.648 L714.842,76.648 L714.842,85.825 L718.574,85.825 L718.574,88.132 L708.095,88.132 L708.095,85.825 L711.837,85.825 L711.837,78.955 L708.894,78.955 z M711.837,71.059 L714.842,71.059 L714.842,74.566 L711.837,74.566 z" fill="#000000"/>
    <path d="M726.449,82.738 Q724.768,82.738 724.101,83.169 Q723.435,83.6 723.435,84.646 Q723.435,85.425 723.896,85.886 Q724.357,86.348 725.147,86.348 Q726.336,86.348 726.993,85.451 Q727.649,84.553 727.649,82.944 L727.649,82.738 z M730.633,81.58 L730.633,88.132 L727.649,88.132 L727.649,86.85 Q727.105,87.609 726.254,88.019 Q725.403,88.429 724.378,88.429 Q722.419,88.429 721.327,87.394 Q720.235,86.358 720.235,84.502 Q720.235,82.492 721.538,81.534 Q722.84,80.575 725.567,80.575 L727.649,80.575 L727.649,80.072 Q727.649,79.344 727.121,78.97 Q726.593,78.596 725.567,78.596 Q724.491,78.596 723.481,78.868 Q722.471,79.139 721.373,79.734 L721.373,77.171 Q722.368,76.76 723.393,76.566 Q724.419,76.371 725.567,76.371 Q728.367,76.371 729.5,77.509 Q730.633,78.647 730.633,81.58 z" fill="#000000"/>
    <path d="M740.63,82.421 Q740.63,80.759 740.077,79.816 Q739.523,78.873 738.549,78.873 Q737.575,78.873 737.011,79.816 Q736.447,80.759 736.447,82.421 Q736.447,84.082 737.011,85.025 Q737.575,85.968 738.549,85.968 Q739.523,85.968 740.077,85.025 Q740.63,84.082 740.63,82.421 z M736.447,78.278 Q737,77.324 737.734,76.848 Q738.467,76.371 739.39,76.371 Q741.43,76.371 742.532,77.929 Q743.635,79.488 743.635,82.4 Q743.635,85.271 742.548,86.85 Q741.461,88.429 739.492,88.429 Q738.456,88.429 737.687,87.927 Q736.918,87.424 736.447,86.43 L736.447,88.132 L733.453,88.132 L733.453,72.177 L736.447,72.177 z" fill="#000000"/>
    <path d="M748.526,83.343 L748.526,74.484 L745.48,74.484 L745.48,72.177 L751.53,72.177 L751.53,83.343 Q751.53,84.697 751.951,85.261 Q752.371,85.825 753.376,85.825 L755.775,85.825 L755.775,88.132 L752.535,88.132 Q750.392,88.132 749.459,87.025 Q748.526,85.917 748.526,83.343 z" fill="#000000"/>
    <path d="M768.5,87.568 Q767.455,87.999 766.368,88.214 Q765.281,88.429 764.071,88.429 Q761.189,88.429 759.667,86.886 Q758.144,85.343 758.144,82.441 Q758.144,79.632 759.61,78.001 Q761.077,76.371 763.609,76.371 Q766.163,76.371 767.572,77.883 Q768.982,79.396 768.982,82.144 L768.982,83.364 L761.2,83.364 Q761.21,84.717 761.999,85.384 Q762.789,86.05 764.358,86.05 Q765.393,86.05 766.398,85.753 Q767.403,85.456 768.5,84.81 z M765.957,81.108 Q765.937,79.919 765.347,79.309 Q764.758,78.698 763.609,78.698 Q762.574,78.698 761.958,79.329 Q761.343,79.96 761.23,81.118 z" fill="#000000"/>
    <path d="M543.566,50.632 L541.549,50.632 L541.549,42.19 L538.958,42.19 L538.958,40.426 L546.156,40.426 L546.156,42.19 L543.566,42.19 z" fill="#F42300"/>
    <path d="M551.632,51.459 Q551.229,52.539 550.665,53.035 Q550.101,53.53 549.294,53.53 L547.64,53.53 L547.64,52.006 L548.453,52.006 Q549.069,52.006 549.356,51.798 Q549.643,51.589 549.937,50.83 L550.087,50.42 L547.175,42.976 L549.28,42.976 L551.03,47.945 L552.705,42.976 L554.811,42.976 z" fill="#F42300"/>
    <path d="M558.222,49.552 L558.222,53.544 L556.226,53.544 L556.226,42.976 L558.222,42.976 L558.222,44.124 Q558.536,43.461 559.049,43.126 Q559.562,42.791 560.252,42.791 Q561.565,42.791 562.289,43.844 Q563.014,44.897 563.014,46.811 Q563.014,48.752 562.279,49.791 Q561.544,50.83 560.184,50.83 Q559.569,50.83 559.08,50.512 Q558.591,50.194 558.222,49.552 z M561.011,46.797 Q561.011,45.69 560.642,45.061 Q560.273,44.432 559.623,44.432 Q558.974,44.432 558.598,45.061 Q558.222,45.69 558.222,46.797 Q558.222,47.904 558.598,48.533 Q558.974,49.162 559.623,49.162 Q560.273,49.162 560.642,48.533 Q561.011,47.904 561.011,46.797 z" fill="#F42300"/>
    <path d="M571.162,50.256 Q570.465,50.543 569.74,50.687 Q569.016,50.83 568.209,50.83 Q566.288,50.83 565.273,49.801 Q564.258,48.773 564.258,46.838 Q564.258,44.965 565.236,43.878 Q566.213,42.791 567.902,42.791 Q569.604,42.791 570.544,43.799 Q571.484,44.808 571.484,46.64 L571.484,47.453 L566.295,47.453 Q566.302,48.356 566.828,48.8 Q567.355,49.244 568.401,49.244 Q569.091,49.244 569.761,49.046 Q570.431,48.848 571.162,48.417 z M569.467,45.949 Q569.453,45.156 569.06,44.75 Q568.667,44.343 567.902,44.343 Q567.211,44.343 566.801,44.763 Q566.391,45.184 566.316,45.956 z" fill="#F42300"/>
    <path d="M624.763,39.092 L626.93,39.092 L629.773,46.509 L629.773,39.092 L631.551,39.092 L631.551,49.298 L629.397,49.298 L626.54,41.881 L626.54,49.298 L624.763,49.298 z" fill="#F42300"/>
    <path d="M636.589,43.084 Q635.871,43.084 635.461,43.716 Q635.051,44.349 635.051,45.477 Q635.051,46.605 635.461,47.237 Q635.871,47.869 636.589,47.869 Q637.313,47.869 637.723,47.237 Q638.134,46.605 638.134,45.477 Q638.134,44.349 637.723,43.716 Q637.313,43.084 636.589,43.084 z M633.048,45.477 Q633.048,43.624 634.008,42.541 Q634.969,41.457 636.589,41.457 Q638.216,41.457 639.176,42.541 Q640.137,43.624 640.137,45.477 Q640.137,47.329 639.176,48.413 Q638.216,49.496 636.589,49.496 Q634.969,49.496 634.008,48.413 Q633.048,47.329 633.048,45.477 z" fill="#F42300"/>
    <path d="M645.523,42.407 Q645.749,41.922 646.097,41.69 Q646.446,41.457 646.952,41.457 Q647.943,41.457 648.323,42.141 Q648.702,42.824 648.702,44.985 L648.702,49.298 L647.061,49.298 L647.061,44.383 Q647.061,43.528 646.931,43.241 Q646.802,42.954 646.46,42.954 Q646.118,42.954 645.981,43.248 Q645.845,43.542 645.845,44.383 L645.845,49.298 L644.224,49.298 L644.224,44.383 Q644.224,43.542 644.088,43.248 Q643.951,42.954 643.609,42.954 Q643.267,42.954 643.138,43.241 Q643.008,43.528 643.008,44.383 L643.008,49.298 L641.367,49.298 L641.367,41.642 L642.823,41.642 L642.823,42.435 Q642.994,41.984 643.37,41.72 Q643.746,41.457 644.211,41.457 Q644.676,41.457 645.058,41.734 Q645.441,42.011 645.523,42.407 z" fill="#F42300"/>
    <path d="M663.071,42.729 L663.071,38.661 L665.067,38.661 L665.067,49.298 L663.071,49.298 L663.071,48.163 Q662.75,48.826 662.241,49.161 Q661.731,49.496 661.041,49.496 Q659.728,49.496 659.004,48.444 Q658.279,47.391 658.279,45.477 Q658.279,43.535 659.014,42.496 Q659.749,41.457 661.109,41.457 Q661.724,41.457 662.213,41.775 Q662.702,42.093 663.071,42.729 z M660.282,45.49 Q660.282,46.598 660.651,47.227 Q661.02,47.856 661.67,47.856 Q662.319,47.856 662.695,47.227 Q663.071,46.598 663.071,45.49 Q663.071,44.383 662.695,43.754 Q662.319,43.125 661.67,43.125 Q661.02,43.125 660.651,43.754 Q660.282,44.383 660.282,45.49 z" fill="#F42300"/>
    <path d="M673.626,48.922 Q672.929,49.209 672.204,49.353 Q671.479,49.496 670.673,49.496 Q668.752,49.496 667.737,48.467 Q666.721,47.439 666.721,45.504 Q666.721,43.631 667.699,42.544 Q668.677,41.457 670.365,41.457 Q672.067,41.457 673.007,42.465 Q673.947,43.474 673.947,45.306 L673.947,46.119 L668.759,46.119 Q668.765,47.022 669.292,47.466 Q669.818,47.91 670.864,47.91 Q671.555,47.91 672.224,47.712 Q672.894,47.514 673.626,47.083 z M671.93,44.615 Q671.917,43.822 671.524,43.416 Q671.131,43.009 670.365,43.009 Q669.675,43.009 669.264,43.429 Q668.854,43.85 668.779,44.622 z" fill="#F42300"/>
    <path d="M685.596,46.106 L685.596,40.199 L683.565,40.199 L683.565,38.661 L687.598,38.661 L687.598,46.106 Q687.598,47.008 687.879,47.384 Q688.159,47.76 688.829,47.76 L690.429,47.76 L690.429,49.298 L688.268,49.298 Q686.84,49.298 686.218,48.56 Q685.596,47.821 685.596,46.106 z" fill="#F42300"/>
    <path d="M696.164,45.702 Q695.043,45.702 694.598,45.989 Q694.154,46.277 694.154,46.974 Q694.154,47.493 694.462,47.801 Q694.769,48.109 695.296,48.109 Q696.089,48.109 696.526,47.51 Q696.964,46.912 696.964,45.839 L696.964,45.702 z M698.953,44.93 L698.953,49.298 L696.964,49.298 L696.964,48.444 Q696.601,48.949 696.034,49.223 Q695.467,49.496 694.783,49.496 Q693.477,49.496 692.749,48.806 Q692.021,48.115 692.021,46.878 Q692.021,45.538 692.889,44.899 Q693.758,44.26 695.576,44.26 L696.964,44.26 L696.964,43.925 Q696.964,43.44 696.612,43.19 Q696.26,42.941 695.576,42.941 Q694.858,42.941 694.185,43.122 Q693.512,43.303 692.78,43.699 L692.78,41.99 Q693.443,41.717 694.127,41.587 Q694.81,41.457 695.576,41.457 Q697.442,41.457 698.198,42.216 Q698.953,42.975 698.953,44.93 z" fill="#F42300"/>
    <path d="M716.118,41.642 L713.684,49.298 L711.217,49.298 L708.783,41.642 L710.813,41.642 L712.447,47.616 L714.088,41.642 z" fill="#F42300"/>
    <path d="M721.45,45.702 Q720.329,45.702 719.885,45.989 Q719.44,46.277 719.44,46.974 Q719.44,47.493 719.748,47.801 Q720.055,48.109 720.582,48.109 Q721.375,48.109 721.812,47.51 Q722.25,46.912 722.25,45.839 L722.25,45.702 z M724.239,44.93 L724.239,49.298 L722.25,49.298 L722.25,48.444 Q721.888,48.949 721.32,49.223 Q720.753,49.496 720.069,49.496 Q718.763,49.496 718.035,48.806 Q717.307,48.115 717.307,46.878 Q717.307,45.538 718.176,44.899 Q719.044,44.26 720.862,44.26 L722.25,44.26 L722.25,43.925 Q722.25,43.44 721.898,43.19 Q721.546,42.941 720.862,42.941 Q720.144,42.941 719.471,43.122 Q718.798,43.303 718.066,43.699 L718.066,41.99 Q718.729,41.717 719.413,41.587 Q720.096,41.457 720.862,41.457 Q722.728,41.457 723.484,42.216 Q724.239,42.975 724.239,44.93 z" fill="#F42300"/>
    <path d="M732.962,43.754 Q732.634,43.453 732.193,43.303 Q731.752,43.152 731.225,43.152 Q730.59,43.152 730.115,43.375 Q729.639,43.597 729.38,44.021 Q729.216,44.28 729.151,44.65 Q729.086,45.019 729.086,45.771 L729.086,49.298 L727.083,49.298 L727.083,41.642 L729.086,41.642 L729.086,42.831 Q729.38,42.175 729.988,41.816 Q730.596,41.457 731.41,41.457 Q731.82,41.457 732.213,41.556 Q732.606,41.655 732.962,41.847 z" fill="#F42300"/>
    <path d="M735.033,41.642 L738.998,41.642 L738.998,47.76 L741.486,47.76 L741.486,49.298 L734.5,49.298 L734.5,47.76 L736.995,47.76 L736.995,43.18 L735.033,43.18 z M736.995,37.916 L738.998,37.916 L738.998,40.254 L736.995,40.254 z" fill="#F42300"/>
    <path d="M746.736,45.702 Q745.615,45.702 745.171,45.989 Q744.726,46.277 744.726,46.974 Q744.726,47.493 745.034,47.801 Q745.342,48.109 745.868,48.109 Q746.661,48.109 747.098,47.51 Q747.536,46.912 747.536,45.839 L747.536,45.702 z M749.525,44.93 L749.525,49.298 L747.536,49.298 L747.536,48.444 Q747.174,48.949 746.606,49.223 Q746.039,49.496 745.355,49.496 Q744.05,49.496 743.322,48.806 Q742.594,48.115 742.594,46.878 Q742.594,45.538 743.462,44.899 Q744.33,44.26 746.148,44.26 L747.536,44.26 L747.536,43.925 Q747.536,43.44 747.184,43.19 Q746.832,42.941 746.148,42.941 Q745.43,42.941 744.757,43.122 Q744.084,43.303 743.352,43.699 L743.352,41.99 Q744.015,41.717 744.699,41.587 Q745.383,41.457 746.148,41.457 Q748.014,41.457 748.77,42.216 Q749.525,42.975 749.525,44.93 z" fill="#F42300"/>
    <path d="M756.19,45.49 Q756.19,44.383 755.821,43.754 Q755.452,43.125 754.803,43.125 Q754.153,43.125 753.777,43.754 Q753.401,44.383 753.401,45.49 Q753.401,46.598 753.777,47.227 Q754.153,47.856 754.803,47.856 Q755.452,47.856 755.821,47.227 Q756.19,46.598 756.19,45.49 z M753.401,42.729 Q753.77,42.093 754.259,41.775 Q754.748,41.457 755.363,41.457 Q756.723,41.457 757.458,42.496 Q758.193,43.535 758.193,45.477 Q758.193,47.391 757.469,48.444 Q756.744,49.496 755.431,49.496 Q754.741,49.496 754.228,49.161 Q753.716,48.826 753.401,48.163 L753.401,49.298 L751.405,49.298 L751.405,38.661 L753.401,38.661 z" fill="#F42300"/>
    <path d="M761.454,46.106 L761.454,40.199 L759.424,40.199 L759.424,38.661 L763.457,38.661 L763.457,46.106 Q763.457,47.008 763.737,47.384 Q764.017,47.76 764.687,47.76 L766.287,47.76 L766.287,49.298 L764.127,49.298 Q762.698,49.298 762.076,48.56 Q761.454,47.821 761.454,46.106 z" fill="#F42300"/>
    <path d="M774.77,48.922 Q774.073,49.209 773.348,49.353 Q772.624,49.496 771.817,49.496 Q769.896,49.496 768.881,48.467 Q767.866,47.439 767.866,45.504 Q767.866,43.631 768.844,42.544 Q769.821,41.457 771.51,41.457 Q773.212,41.457 774.152,42.465 Q775.092,43.474 775.092,45.306 L775.092,46.119 L769.903,46.119 Q769.91,47.022 770.436,47.466 Q770.963,47.91 772.009,47.91 Q772.699,47.91 773.369,47.712 Q774.039,47.514 774.77,47.083 z M773.075,44.615 Q773.061,43.822 772.668,43.416 Q772.275,43.009 771.51,43.009 Q770.819,43.009 770.409,43.429 Q769.999,43.85 769.924,44.622 z" fill="#F42300"/>
    <path d="M833.545,31.816 L938.545,31.816 C945.172,31.816 950.545,35.05 950.545,39.039 L950.545,88.093 C950.545,92.082 945.172,95.316 938.545,95.316 L833.545,95.316 C826.918,95.316 821.545,92.082 821.545,88.093 L821.545,39.039 C821.545,35.05 826.918,31.816 833.545,31.816 z" fill="#CEEEFC" fill-opacity="0.727"/>
    <path d="M869.008,86.65 L872.391,86.65 L872.391,76.714 L869.244,77.493 L869.244,74.766 L872.412,74.007 L875.334,74.007 L875.334,86.65 L878.718,86.65 L878.718,89.316 L869.008,89.316 z" fill="#000000"/>
    <path d="M884.173,86.65 L890.623,86.65 L890.623,89.316 L880.902,89.316 L880.902,86.732 L882.543,84.989 Q885.465,81.882 886.091,81.164 Q886.86,80.282 887.198,79.6 Q887.536,78.919 887.536,78.252 Q887.536,77.227 886.916,76.668 Q886.296,76.109 885.158,76.109 Q884.348,76.109 883.338,76.432 Q882.328,76.755 881.23,77.37 L881.23,74.55 Q882.328,74.15 883.379,73.94 Q884.43,73.73 885.393,73.73 Q887.824,73.73 889.213,74.863 Q890.602,75.996 890.602,77.955 Q890.602,78.857 890.3,79.647 Q889.997,80.436 889.259,81.4 Q888.716,82.097 886.275,84.538 Q884.953,85.86 884.173,86.65 z" fill="#000000"/>
    <path d="M899.482,77.37 L895.617,83.42 L899.482,83.42 z M899.216,74.007 L902.384,74.007 L902.384,83.42 L904.066,83.42 L904.066,86.014 L902.384,86.014 L902.384,89.316 L899.482,89.316 L899.482,86.014 L893.412,86.014 L893.412,83.082 z" fill="#000000"/>
    <path d="M830.362,41.72 L830.362,39.943 L836.439,39.943 L836.439,41.72 L834.409,41.72 L834.409,48.372 L836.439,48.372 L836.439,50.149 L830.362,50.149 L830.362,48.372 L832.392,48.372 L832.392,41.72 z" fill="#F42300"/>
    <path d="M844.936,45.179 L844.936,50.149 L842.947,50.149 L842.947,45.487 Q842.947,44.653 842.711,44.294 Q842.475,43.935 841.942,43.935 Q841.402,43.935 841.091,44.42 Q840.78,44.906 840.78,45.767 L840.78,50.149 L838.791,50.149 L838.791,42.493 L840.78,42.493 L840.78,43.641 Q840.992,43.005 841.504,42.657 Q842.017,42.308 842.742,42.308 Q843.829,42.308 844.382,43.029 Q844.936,43.751 844.936,45.179 z" fill="#F42300"/>
    <path d="M847.554,42.493 L851.519,42.493 L851.519,48.611 L854.007,48.611 L854.007,50.149 L847.021,50.149 L847.021,48.611 L849.516,48.611 L849.516,44.031 L847.554,44.031 z M849.516,38.767 L851.519,38.767 L851.519,41.105 L849.516,41.105 z" fill="#F42300"/>
    <path d="M859.189,40.319 L859.189,42.493 L861.807,42.493 L861.807,44.031 L859.189,44.031 L859.189,47.654 Q859.189,48.167 859.438,48.389 Q859.688,48.611 860.269,48.611 L861.807,48.611 L861.807,50.149 L860.125,50.149 Q858.403,50.149 857.794,49.599 Q857.186,49.048 857.186,47.558 L857.186,44.031 L855.231,44.031 L855.231,42.493 L857.186,42.493 L857.186,40.319 z" fill="#F42300"/>
    <path d="M864.412,42.493 L868.376,42.493 L868.376,48.611 L870.865,48.611 L870.865,50.149 L863.878,50.149 L863.878,48.611 L866.374,48.611 L866.374,44.031 L864.412,44.031 z M866.374,38.767 L868.376,38.767 L868.376,41.105 L866.374,41.105 z" fill="#F42300"/>
    <path d="M876.115,46.553 Q874.994,46.553 874.549,46.84 Q874.105,47.128 874.105,47.825 Q874.105,48.344 874.413,48.652 Q874.72,48.96 875.247,48.96 Q876.04,48.96 876.477,48.361 Q876.915,47.763 876.915,46.69 L876.915,46.553 z M878.904,45.781 L878.904,50.149 L876.915,50.149 L876.915,49.295 Q876.552,49.8 875.985,50.074 Q875.417,50.347 874.734,50.347 Q873.428,50.347 872.7,49.657 Q871.972,48.966 871.972,47.729 Q871.972,46.389 872.84,45.75 Q873.708,45.111 875.527,45.111 L876.915,45.111 L876.915,44.776 Q876.915,44.291 876.562,44.041 Q876.21,43.792 875.527,43.792 Q874.809,43.792 874.136,43.973 Q873.462,44.154 872.731,44.55 L872.731,42.841 Q873.394,42.568 874.078,42.438 Q874.761,42.308 875.527,42.308 Q877.393,42.308 878.148,43.067 Q878.904,43.826 878.904,45.781 z" fill="#F42300"/>
    <path d="M882.404,46.957 L882.404,41.05 L880.374,41.05 L880.374,39.512 L884.407,39.512 L884.407,46.957 Q884.407,47.859 884.687,48.235 Q884.967,48.611 885.637,48.611 L887.237,48.611 L887.237,50.149 L885.077,50.149 Q883.648,50.149 883.026,49.411 Q882.404,48.672 882.404,46.957 z" fill="#F42300"/>
    <path d="M889.698,42.493 L893.663,42.493 L893.663,48.611 L896.151,48.611 L896.151,50.149 L889.165,50.149 L889.165,48.611 L891.66,48.611 L891.66,44.031 L889.698,44.031 z M891.66,38.767 L893.663,38.767 L893.663,41.105 L891.66,41.105 z" fill="#F42300"/>
    <path d="M903.39,42.732 L903.39,44.482 Q902.836,44.127 902.238,43.945 Q901.64,43.764 901.039,43.764 Q900.369,43.764 900.027,43.959 Q899.685,44.154 899.685,44.537 Q899.685,45.084 901.148,45.425 L901.223,45.446 L901.797,45.583 Q902.891,45.842 903.4,46.42 Q903.91,46.998 903.91,47.982 Q903.91,49.165 903.134,49.756 Q902.358,50.347 900.799,50.347 Q900.109,50.347 899.384,50.228 Q898.66,50.108 897.915,49.869 L897.915,48.119 Q898.578,48.495 899.265,48.693 Q899.952,48.891 900.594,48.891 Q901.298,48.891 901.661,48.686 Q902.023,48.481 902.023,48.091 Q902.023,47.709 901.767,47.503 Q901.51,47.298 900.546,47.066 L899.993,46.943 Q898.844,46.683 898.318,46.129 Q897.792,45.576 897.792,44.646 Q897.792,43.539 898.591,42.923 Q899.391,42.308 900.84,42.308 Q901.49,42.308 902.136,42.414 Q902.782,42.52 903.39,42.732 z" fill="#F42300"/>
    <path d="M909.83,46.553 Q908.708,46.553 908.264,46.84 Q907.82,47.128 907.82,47.825 Q907.82,48.344 908.127,48.652 Q908.435,48.96 908.961,48.96 Q909.754,48.96 910.192,48.361 Q910.629,47.763 910.629,46.69 L910.629,46.553 z M912.619,45.781 L912.619,50.149 L910.629,50.149 L910.629,49.295 Q910.267,49.8 909.7,50.074 Q909.132,50.347 908.449,50.347 Q907.143,50.347 906.415,49.657 Q905.687,48.966 905.687,47.729 Q905.687,46.389 906.555,45.75 Q907.423,45.111 909.242,45.111 L910.629,45.111 L910.629,44.776 Q910.629,44.291 910.277,44.041 Q909.925,43.792 909.242,43.792 Q908.524,43.792 907.851,43.973 Q907.177,44.154 906.446,44.55 L906.446,42.841 Q907.109,42.568 907.792,42.438 Q908.476,42.308 909.242,42.308 Q911.108,42.308 911.863,43.067 Q912.619,43.826 912.619,45.781 z" fill="#F42300"/>
    <path d="M918.19,40.319 L918.19,42.493 L920.808,42.493 L920.808,44.031 L918.19,44.031 L918.19,47.654 Q918.19,48.167 918.439,48.389 Q918.689,48.611 919.27,48.611 L920.808,48.611 L920.808,50.149 L919.126,50.149 Q917.404,50.149 916.795,49.599 Q916.187,49.048 916.187,47.558 L916.187,44.031 L914.232,44.031 L914.232,42.493 L916.187,42.493 L916.187,40.319 z" fill="#F42300"/>
    <path d="M923.413,42.493 L927.377,42.493 L927.377,48.611 L929.866,48.611 L929.866,50.149 L922.879,50.149 L922.879,48.611 L925.375,48.611 L925.375,44.031 L923.413,44.031 z M925.375,38.767 L927.377,38.767 L927.377,41.105 L925.375,41.105 z" fill="#F42300"/>
    <path d="M934.542,43.935 Q933.824,43.935 933.414,44.567 Q933.003,45.2 933.003,46.328 Q933.003,47.456 933.414,48.088 Q933.824,48.72 934.542,48.72 Q935.266,48.72 935.676,48.088 Q936.086,47.456 936.086,46.328 Q936.086,45.2 935.676,44.567 Q935.266,43.935 934.542,43.935 z M931,46.328 Q931,44.475 931.961,43.392 Q932.921,42.308 934.542,42.308 Q936.168,42.308 937.129,43.392 Q938.089,44.475 938.089,46.328 Q938.089,48.18 937.129,49.264 Q936.168,50.347 934.542,50.347 Q932.921,50.347 931.961,49.264 Q931,48.18 931,46.328 z" fill="#F42300"/>
    <path d="M946.081,45.179 L946.081,50.149 L944.091,50.149 L944.091,45.487 Q944.091,44.653 943.855,44.294 Q943.62,43.935 943.086,43.935 Q942.546,43.935 942.235,44.42 Q941.924,44.906 941.924,45.767 L941.924,50.149 L939.935,50.149 L939.935,42.493 L941.924,42.493 L941.924,43.641 Q942.136,43.005 942.649,42.657 Q943.162,42.308 943.886,42.308 Q944.973,42.308 945.527,43.029 Q946.081,43.751 946.081,45.179 z" fill="#F42300"/>
    <path d="M797.874,83.861 L808.713,83.861 L808.713,86.291 L797.874,86.291 z M797.874,79.195 L808.713,79.195 L808.713,81.605 L797.874,81.605 z" fill="#000000"/>
    <path d="M959.191,86.518 L962.606,86.518 L962.606,89.297 L960.596,93.224 L958.391,93.224 L959.191,89.297 z M959.191,79.381 L962.606,79.381 L962.606,83.124 L959.191,83.124 z" fill="#000000"/>
    <path d="M133.587,32.781 L276.028,32.781 C285.019,32.781 292.307,36.014 292.307,40.003 L292.307,89.058 C292.307,93.047 285.019,96.281 276.028,96.281 L133.587,96.281 C124.596,96.281 117.307,93.047 117.307,89.058 L117.307,40.003 C117.307,36.014 124.596,32.781 133.587,32.781 z" fill="#CEEEFC" fill-opacity="0.727"/>
    <path d="M18.954,32.781 L101.163,32.781 C106.352,32.781 110.558,36.014 110.558,40.003 L110.558,89.058 C110.558,93.047 106.352,96.281 101.163,96.281 L18.954,96.281 C13.765,96.281 9.558,93.047 9.558,89.058 L9.558,40.003 C9.558,36.014 13.765,32.781 18.954,32.781 z" fill="#CEEEFC" fill-opacity="0.727"/>
    <path d="M33.429,89.717 Q32.383,90.148 31.296,90.363 Q30.209,90.578 28.999,90.578 Q26.118,90.578 24.595,89.035 Q23.072,87.492 23.072,84.59 Q23.072,81.781 24.539,80.15 Q26.005,78.52 28.538,78.52 Q31.091,78.52 32.501,80.032 Q33.911,81.545 33.911,84.293 L33.911,85.513 L26.128,85.513 Q26.138,86.866 26.928,87.533 Q27.717,88.199 29.286,88.199 Q30.322,88.199 31.327,87.902 Q32.332,87.605 33.429,86.959 z M30.886,83.257 Q30.865,82.068 30.276,81.458 Q29.686,80.847 28.538,80.847 Q27.502,80.847 26.887,81.478 Q26.272,82.109 26.159,83.267 z" fill="#000000"/>
    <path d="M45.754,82.826 L45.754,90.281 L42.77,90.281 L42.77,83.288 Q42.77,82.037 42.416,81.499 Q42.063,80.96 41.263,80.96 Q40.453,80.96 39.986,81.688 Q39.52,82.416 39.52,83.708 L39.52,90.281 L36.536,90.281 L36.536,78.797 L39.52,78.797 L39.52,80.519 Q39.837,79.566 40.607,79.043 Q41.376,78.52 42.462,78.52 Q44.093,78.52 44.923,79.602 Q45.754,80.683 45.754,82.826 z" fill="#000000"/>
    <path d="M54.49,75.536 L54.49,78.797 L58.418,78.797 L58.418,81.104 L54.49,81.104 L54.49,86.538 Q54.49,87.307 54.865,87.641 Q55.239,87.974 56.11,87.974 L58.418,87.974 L58.418,90.281 L55.895,90.281 Q53.311,90.281 52.399,89.456 Q51.486,88.63 51.486,86.395 L51.486,81.104 L48.553,81.104 L48.553,78.797 L51.486,78.797 L51.486,75.536 z" fill="#000000"/>
    <path d="M62.324,78.797 L68.272,78.797 L68.272,87.974 L72.004,87.974 L72.004,90.281 L61.525,90.281 L61.525,87.974 L65.267,87.974 L65.267,81.104 L62.324,81.104 z M65.267,73.208 L68.272,73.208 L68.272,76.715 L65.267,76.715 z" fill="#000000"/>
    <path d="M84.001,89.717 Q82.955,90.148 81.868,90.363 Q80.781,90.578 79.571,90.578 Q76.69,90.578 75.167,89.035 Q73.645,87.492 73.645,84.59 Q73.645,81.781 75.111,80.15 Q76.577,78.52 79.11,78.52 Q81.663,78.52 83.073,80.032 Q84.483,81.545 84.483,84.293 L84.483,85.513 L76.7,85.513 Q76.711,86.866 77.5,87.533 Q78.29,88.199 79.858,88.199 Q80.894,88.199 81.899,87.902 Q82.904,87.605 84.001,86.959 z M81.458,83.257 Q81.438,82.068 80.848,81.458 Q80.258,80.847 79.11,80.847 Q78.074,80.847 77.459,81.478 Q76.844,82.109 76.731,83.267 z" fill="#000000"/>
    <path d="M97.147,81.965 Q96.654,81.514 95.993,81.288 Q95.332,81.063 94.542,81.063 Q93.588,81.063 92.876,81.396 Q92.163,81.729 91.774,82.365 Q91.527,82.755 91.43,83.308 Q91.333,83.862 91.333,84.99 L91.333,90.281 L88.328,90.281 L88.328,78.797 L91.333,78.797 L91.333,80.581 Q91.774,79.596 92.686,79.058 Q93.599,78.52 94.819,78.52 Q95.434,78.52 96.024,78.668 Q96.613,78.817 97.147,79.104 z" fill="#000000"/>
    <path d="M142.845,78.278 Q143.184,77.55 143.707,77.201 Q144.229,76.853 144.988,76.853 Q146.475,76.853 147.044,77.878 Q147.613,78.904 147.613,82.144 L147.613,88.614 L145.152,88.614 L145.152,81.241 Q145.152,79.96 144.957,79.529 Q144.763,79.098 144.25,79.098 Q143.737,79.098 143.532,79.539 Q143.327,79.98 143.327,81.241 L143.327,88.614 L140.897,88.614 L140.897,81.241 Q140.897,79.98 140.692,79.539 Q140.487,79.098 139.974,79.098 Q139.461,79.098 139.267,79.529 Q139.072,79.96 139.072,81.241 L139.072,88.614 L136.611,88.614 L136.611,77.13 L138.795,77.13 L138.795,78.319 Q139.051,77.642 139.615,77.248 Q140.179,76.853 140.876,76.853 Q141.574,76.853 142.148,77.268 Q142.722,77.683 142.845,78.278 z" fill="#000000"/>
    <path d="M155.591,83.22 Q153.909,83.22 153.243,83.651 Q152.576,84.082 152.576,85.128 Q152.576,85.907 153.038,86.368 Q153.499,86.83 154.289,86.83 Q155.478,86.83 156.134,85.933 Q156.79,85.035 156.79,83.426 L156.79,83.22 z M159.774,82.062 L159.774,88.614 L156.79,88.614 L156.79,87.332 Q156.247,88.091 155.396,88.501 Q154.545,88.911 153.52,88.911 Q151.561,88.911 150.469,87.876 Q149.377,86.84 149.377,84.984 Q149.377,82.974 150.679,82.016 Q151.981,81.057 154.709,81.057 L156.79,81.057 L156.79,80.554 Q156.79,79.826 156.262,79.452 Q155.734,79.078 154.709,79.078 Q153.632,79.078 152.622,79.35 Q151.612,79.621 150.515,80.216 L150.515,77.653 Q151.51,77.242 152.535,77.048 Q153.561,76.853 154.709,76.853 Q157.508,76.853 158.641,77.991 Q159.774,79.129 159.774,82.062 z" fill="#000000"/>
    <path d="M173.699,90.562 L173.699,92.613 L161.056,92.613 L161.056,90.562 z" fill="#000000"/>
    <path d="M185.522,77.13 L181.872,88.614 L178.17,88.614 L174.52,77.13 L177.565,77.13 L180.016,86.092 L182.477,77.13 z" fill="#000000"/>
    <path d="M193.52,83.22 Q191.838,83.22 191.172,83.651 Q190.505,84.082 190.505,85.128 Q190.505,85.907 190.967,86.368 Q191.428,86.83 192.218,86.83 Q193.407,86.83 194.063,85.933 Q194.72,85.035 194.72,83.426 L194.72,83.22 z M197.704,82.062 L197.704,88.614 L194.72,88.614 L194.72,87.332 Q194.176,88.091 193.325,88.501 Q192.474,88.911 191.449,88.911 Q189.49,88.911 188.398,87.876 Q187.306,86.84 187.306,84.984 Q187.306,82.974 188.608,82.016 Q189.911,81.057 192.638,81.057 L194.72,81.057 L194.72,80.554 Q194.72,79.826 194.192,79.452 Q193.664,79.078 192.638,79.078 Q191.561,79.078 190.551,79.35 Q189.541,79.621 188.444,80.216 L188.444,77.653 Q189.439,77.242 190.464,77.048 Q191.49,76.853 192.638,76.853 Q195.437,76.853 196.571,77.991 Q197.704,79.129 197.704,82.062 z" fill="#000000"/>
    <path d="M210.788,80.298 Q210.295,79.847 209.634,79.621 Q208.973,79.396 208.183,79.396 Q207.229,79.396 206.517,79.729 Q205.804,80.062 205.415,80.698 Q205.168,81.088 205.071,81.641 Q204.974,82.195 204.974,83.323 L204.974,88.614 L201.969,88.614 L201.969,77.13 L204.974,77.13 L204.974,78.914 Q205.415,77.929 206.327,77.391 Q207.24,76.853 208.46,76.853 Q209.075,76.853 209.665,77.001 Q210.254,77.15 210.788,77.437 z" fill="#000000"/>
    <path d="M213.895,77.13 L219.842,77.13 L219.842,86.307 L223.574,86.307 L223.574,88.614 L213.095,88.614 L213.095,86.307 L216.837,86.307 L216.837,79.437 L213.895,79.437 z M216.837,71.541 L219.842,71.541 L219.842,75.048 L216.837,75.048 z" fill="#000000"/>
    <path d="M231.449,83.22 Q229.768,83.22 229.101,83.651 Q228.435,84.082 228.435,85.128 Q228.435,85.907 228.896,86.368 Q229.357,86.83 230.147,86.83 Q231.336,86.83 231.993,85.933 Q232.649,85.035 232.649,83.426 L232.649,83.22 z M235.633,82.062 L235.633,88.614 L232.649,88.614 L232.649,87.332 Q232.105,88.091 231.254,88.501 Q230.403,88.911 229.378,88.911 Q227.419,88.911 226.327,87.876 Q225.235,86.84 225.235,84.984 Q225.235,82.974 226.538,82.016 Q227.84,81.057 230.567,81.057 L232.649,81.057 L232.649,80.554 Q232.649,79.826 232.121,79.452 Q231.593,79.078 230.567,79.078 Q229.491,79.078 228.481,79.35 Q227.471,79.621 226.374,80.216 L226.374,77.653 Q227.368,77.242 228.394,77.048 Q229.419,76.853 230.567,76.853 Q233.367,76.853 234.5,77.991 Q235.633,79.129 235.633,82.062 z" fill="#000000"/>
    <path d="M245.63,82.903 Q245.63,81.241 245.077,80.298 Q244.523,79.355 243.549,79.355 Q242.575,79.355 242.011,80.298 Q241.447,81.241 241.447,82.903 Q241.447,84.564 242.011,85.507 Q242.575,86.45 243.549,86.45 Q244.523,86.45 245.077,85.507 Q245.63,84.564 245.63,82.903 z M241.447,78.76 Q242,77.806 242.734,77.33 Q243.467,76.853 244.39,76.853 Q246.43,76.853 247.532,78.411 Q248.635,79.97 248.635,82.882 Q248.635,85.753 247.548,87.332 Q246.461,88.911 244.492,88.911 Q243.457,88.911 242.687,88.409 Q241.918,87.906 241.447,86.912 L241.447,88.614 L238.453,88.614 L238.453,72.659 L241.447,72.659 z" fill="#000000"/>
    <path d="M253.526,83.825 L253.526,74.966 L250.48,74.966 L250.48,72.659 L256.53,72.659 L256.53,83.825 Q256.53,85.179 256.951,85.743 Q257.371,86.307 258.376,86.307 L260.775,86.307 L260.775,88.614 L257.535,88.614 Q255.392,88.614 254.459,87.507 Q253.526,86.399 253.526,83.825 z" fill="#000000"/>
    <path d="M273.5,88.05 Q272.455,88.481 271.368,88.696 Q270.281,88.911 269.071,88.911 Q266.189,88.911 264.667,87.368 Q263.144,85.825 263.144,82.923 Q263.144,80.114 264.61,78.483 Q266.077,76.853 268.609,76.853 Q271.163,76.853 272.573,78.365 Q273.982,79.878 273.982,82.626 L273.982,83.846 L266.2,83.846 Q266.21,85.199 267,85.866 Q267.789,86.532 269.358,86.532 Q270.394,86.532 271.398,86.235 Q272.403,85.938 273.5,85.292 z M270.958,81.59 Q270.937,80.401 270.347,79.791 Q269.758,79.18 268.609,79.18 Q267.574,79.18 266.958,79.811 Q266.343,80.442 266.23,81.6 z" fill="#000000"/>
    <path d="M48.566,51.114 L46.549,51.114 L46.549,42.672 L43.958,42.672 L43.958,40.908 L51.156,40.908 L51.156,42.672 L48.566,42.672 z" fill="#F42300"/>
    <path d="M56.632,51.941 Q56.229,53.021 55.665,53.517 Q55.101,54.012 54.294,54.012 L52.64,54.012 L52.64,52.488 L53.453,52.488 Q54.069,52.488 54.356,52.28 Q54.643,52.071 54.937,51.312 L55.087,50.902 L52.175,43.458 L54.281,43.458 L56.031,48.427 L57.705,43.458 L59.811,43.458 z" fill="#F42300"/>
    <path d="M63.222,50.034 L63.222,54.026 L61.226,54.026 L61.226,43.458 L63.222,43.458 L63.222,44.606 Q63.536,43.943 64.049,43.608 Q64.562,43.273 65.252,43.273 Q66.565,43.273 67.289,44.326 Q68.014,45.379 68.014,47.293 Q68.014,49.234 67.279,50.273 Q66.544,51.312 65.184,51.312 Q64.569,51.312 64.08,50.994 Q63.591,50.677 63.222,50.034 z M66.011,47.279 Q66.011,46.172 65.642,45.543 Q65.273,44.914 64.623,44.914 Q63.974,44.914 63.598,45.543 Q63.222,46.172 63.222,47.279 Q63.222,48.386 63.598,49.015 Q63.974,49.644 64.623,49.644 Q65.273,49.644 65.642,49.015 Q66.011,48.386 66.011,47.279 z" fill="#F42300"/>
    <path d="M76.162,50.738 Q75.465,51.025 74.74,51.169 Q74.016,51.312 73.209,51.312 Q71.288,51.312 70.273,50.283 Q69.258,49.255 69.258,47.32 Q69.258,45.447 70.236,44.36 Q71.213,43.273 72.902,43.273 Q74.604,43.273 75.544,44.281 Q76.484,45.29 76.484,47.122 L76.484,47.935 L71.295,47.935 Q71.302,48.838 71.828,49.282 Q72.355,49.726 73.401,49.726 Q74.091,49.726 74.761,49.528 Q75.431,49.33 76.162,48.899 z M74.467,46.431 Q74.453,45.638 74.06,45.232 Q73.667,44.825 72.902,44.825 Q72.211,44.825 71.801,45.245 Q71.391,45.666 71.316,46.438 z" fill="#F42300"/>
    <path d="M129.762,39.575 L131.929,39.575 L134.773,46.992 L134.773,39.575 L136.551,39.575 L136.551,49.781 L134.397,49.781 L131.54,42.364 L131.54,49.781 L129.762,49.781 z" fill="#F42300"/>
    <path d="M141.589,43.567 Q140.871,43.567 140.461,44.199 Q140.051,44.832 140.051,45.96 Q140.051,47.088 140.461,47.72 Q140.871,48.352 141.589,48.352 Q142.313,48.352 142.723,47.72 Q143.134,47.088 143.134,45.96 Q143.134,44.832 142.723,44.199 Q142.313,43.567 141.589,43.567 z M138.048,45.96 Q138.048,44.107 139.008,43.024 Q139.969,41.94 141.589,41.94 Q143.216,41.94 144.176,43.024 Q145.136,44.107 145.136,45.96 Q145.136,47.812 144.176,48.896 Q143.216,49.979 141.589,49.979 Q139.969,49.979 139.008,48.896 Q138.048,47.812 138.048,45.96 z" fill="#F42300"/>
    <path d="M150.523,42.89 Q150.749,42.405 151.097,42.173 Q151.446,41.94 151.952,41.94 Q152.943,41.94 153.323,42.624 Q153.702,43.307 153.702,45.468 L153.702,49.781 L152.061,49.781 L152.061,44.866 Q152.061,44.011 151.931,43.724 Q151.802,43.437 151.46,43.437 Q151.118,43.437 150.981,43.731 Q150.844,44.025 150.844,44.866 L150.844,49.781 L149.224,49.781 L149.224,44.866 Q149.224,44.025 149.088,43.731 Q148.951,43.437 148.609,43.437 Q148.267,43.437 148.137,43.724 Q148.008,44.011 148.008,44.866 L148.008,49.781 L146.367,49.781 L146.367,42.125 L147.823,42.125 L147.823,42.918 Q147.994,42.467 148.37,42.203 Q148.746,41.94 149.211,41.94 Q149.676,41.94 150.058,42.217 Q150.441,42.494 150.523,42.89 z" fill="#F42300"/>
    <path d="M168.071,43.212 L168.071,39.144 L170.067,39.144 L170.067,49.781 L168.071,49.781 L168.071,48.646 Q167.75,49.309 167.24,49.644 Q166.731,49.979 166.041,49.979 Q164.728,49.979 164.004,48.927 Q163.279,47.874 163.279,45.96 Q163.279,44.018 164.014,42.979 Q164.749,41.94 166.109,41.94 Q166.724,41.94 167.213,42.258 Q167.702,42.576 168.071,43.212 z M165.282,45.973 Q165.282,47.081 165.651,47.71 Q166.02,48.339 166.67,48.339 Q167.319,48.339 167.695,47.71 Q168.071,47.081 168.071,45.973 Q168.071,44.866 167.695,44.237 Q167.319,43.608 166.67,43.608 Q166.02,43.608 165.651,44.237 Q165.282,44.866 165.282,45.973 z" fill="#F42300"/>
    <path d="M178.626,49.405 Q177.928,49.692 177.204,49.836 Q176.479,49.979 175.673,49.979 Q173.752,49.979 172.737,48.95 Q171.721,47.922 171.721,45.987 Q171.721,44.114 172.699,43.027 Q173.677,41.94 175.365,41.94 Q177.067,41.94 178.007,42.948 Q178.947,43.957 178.947,45.789 L178.947,46.602 L173.759,46.602 Q173.765,47.505 174.292,47.949 Q174.818,48.393 175.864,48.393 Q176.554,48.393 177.224,48.195 Q177.894,47.997 178.626,47.566 z M176.93,45.098 Q176.917,44.305 176.524,43.899 Q176.131,43.492 175.365,43.492 Q174.675,43.492 174.264,43.912 Q173.854,44.333 173.779,45.105 z" fill="#F42300"/>
    <path d="M190.595,46.589 L190.595,40.682 L188.565,40.682 L188.565,39.144 L192.598,39.144 L192.598,46.589 Q192.598,47.491 192.879,47.867 Q193.159,48.243 193.829,48.243 L195.428,48.243 L195.428,49.781 L193.268,49.781 Q191.84,49.781 191.218,49.043 Q190.595,48.304 190.595,46.589 z" fill="#F42300"/>
    <path d="M201.164,46.185 Q200.043,46.185 199.598,46.472 Q199.154,46.76 199.154,47.457 Q199.154,47.976 199.462,48.284 Q199.769,48.592 200.296,48.592 Q201.089,48.592 201.526,47.993 Q201.964,47.395 201.964,46.322 L201.964,46.185 z M203.953,45.413 L203.953,49.781 L201.964,49.781 L201.964,48.927 Q201.601,49.432 201.034,49.706 Q200.467,49.979 199.783,49.979 Q198.477,49.979 197.749,49.289 Q197.021,48.598 197.021,47.361 Q197.021,46.021 197.889,45.382 Q198.758,44.743 200.576,44.743 L201.964,44.743 L201.964,44.408 Q201.964,43.923 201.612,43.673 Q201.26,43.424 200.576,43.424 Q199.858,43.424 199.185,43.605 Q198.511,43.786 197.78,44.182 L197.78,42.473 Q198.443,42.2 199.127,42.07 Q199.81,41.94 200.576,41.94 Q202.442,41.94 203.198,42.699 Q203.953,43.458 203.953,45.413 z" fill="#F42300"/>
    <path d="M221.118,42.125 L218.684,49.781 L216.217,49.781 L213.783,42.125 L215.813,42.125 L217.447,48.099 L219.088,42.125 z" fill="#F42300"/>
    <path d="M226.45,46.185 Q225.329,46.185 224.885,46.472 Q224.44,46.76 224.44,47.457 Q224.44,47.976 224.748,48.284 Q225.055,48.592 225.582,48.592 Q226.375,48.592 226.812,47.993 Q227.25,47.395 227.25,46.322 L227.25,46.185 z M229.239,45.413 L229.239,49.781 L227.25,49.781 L227.25,48.927 Q226.887,49.432 226.32,49.706 Q225.753,49.979 225.069,49.979 Q223.763,49.979 223.035,49.289 Q222.307,48.598 222.307,47.361 Q222.307,46.021 223.176,45.382 Q224.044,44.743 225.862,44.743 L227.25,44.743 L227.25,44.408 Q227.25,43.923 226.898,43.673 Q226.546,43.424 225.862,43.424 Q225.144,43.424 224.471,43.605 Q223.798,43.786 223.066,44.182 L223.066,42.473 Q223.729,42.2 224.413,42.07 Q225.096,41.94 225.862,41.94 Q227.728,41.94 228.484,42.699 Q229.239,43.458 229.239,45.413 z" fill="#F42300"/>
    <path d="M237.962,44.237 Q237.634,43.936 237.193,43.786 Q236.752,43.635 236.225,43.635 Q235.59,43.635 235.115,43.858 Q234.639,44.08 234.38,44.504 Q234.216,44.763 234.151,45.133 Q234.086,45.502 234.086,46.254 L234.086,49.781 L232.083,49.781 L232.083,42.125 L234.086,42.125 L234.086,43.314 Q234.38,42.658 234.988,42.299 Q235.596,41.94 236.41,41.94 Q236.82,41.94 237.213,42.039 Q237.606,42.138 237.962,42.33 z" fill="#F42300"/>
    <path d="M240.033,42.125 L243.998,42.125 L243.998,48.243 L246.486,48.243 L246.486,49.781 L239.5,49.781 L239.5,48.243 L241.995,48.243 L241.995,43.663 L240.033,43.663 z M241.995,38.399 L243.998,38.399 L243.998,40.737 L241.995,40.737 z" fill="#F42300"/>
    <path d="M251.736,46.185 Q250.615,46.185 250.171,46.472 Q249.726,46.76 249.726,47.457 Q249.726,47.976 250.034,48.284 Q250.342,48.592 250.868,48.592 Q251.661,48.592 252.098,47.993 Q252.536,47.395 252.536,46.322 L252.536,46.185 z M254.525,45.413 L254.525,49.781 L252.536,49.781 L252.536,48.927 Q252.174,49.432 251.606,49.706 Q251.039,49.979 250.355,49.979 Q249.05,49.979 248.322,49.289 Q247.594,48.598 247.594,47.361 Q247.594,46.021 248.462,45.382 Q249.33,44.743 251.148,44.743 L252.536,44.743 L252.536,44.408 Q252.536,43.923 252.184,43.673 Q251.832,43.424 251.148,43.424 Q250.43,43.424 249.757,43.605 Q249.084,43.786 248.352,44.182 L248.352,42.473 Q249.015,42.2 249.699,42.07 Q250.383,41.94 251.148,41.94 Q253.014,41.94 253.77,42.699 Q254.525,43.458 254.525,45.413 z" fill="#F42300"/>
    <path d="M261.19,45.973 Q261.19,44.866 260.821,44.237 Q260.452,43.608 259.803,43.608 Q259.153,43.608 258.777,44.237 Q258.401,44.866 258.401,45.973 Q258.401,47.081 258.777,47.71 Q259.153,48.339 259.803,48.339 Q260.452,48.339 260.821,47.71 Q261.19,47.081 261.19,45.973 z M258.401,43.212 Q258.77,42.576 259.259,42.258 Q259.748,41.94 260.363,41.94 Q261.723,41.94 262.458,42.979 Q263.193,44.018 263.193,45.96 Q263.193,47.874 262.469,48.927 Q261.744,49.979 260.431,49.979 Q259.741,49.979 259.228,49.644 Q258.716,49.309 258.401,48.646 L258.401,49.781 L256.405,49.781 L256.405,39.144 L258.401,39.144 z" fill="#F42300"/>
    <path d="M266.454,46.589 L266.454,40.682 L264.424,40.682 L264.424,39.144 L268.457,39.144 L268.457,46.589 Q268.457,47.491 268.737,47.867 Q269.017,48.243 269.687,48.243 L271.287,48.243 L271.287,49.781 L269.127,49.781 Q267.698,49.781 267.076,49.043 Q266.454,48.304 266.454,46.589 z" fill="#F42300"/>
    <path d="M279.77,49.405 Q279.073,49.692 278.348,49.836 Q277.624,49.979 276.817,49.979 Q274.896,49.979 273.881,48.95 Q272.866,47.922 272.866,45.987 Q272.866,44.114 273.844,43.027 Q274.821,41.94 276.51,41.94 Q278.212,41.94 279.152,42.948 Q280.092,43.957 280.092,45.789 L280.092,46.602 L274.903,46.602 Q274.91,47.505 275.436,47.949 Q275.963,48.393 277.009,48.393 Q277.699,48.393 278.369,48.195 Q279.039,47.997 279.77,47.566 z M278.075,45.098 Q278.061,44.305 277.668,43.899 Q277.275,43.492 276.51,43.492 Q275.819,43.492 275.409,43.912 Q274.999,44.333 274.924,45.105 z" fill="#F42300"/>
    <path d="M338.545,32.298 L443.545,32.298 C450.172,32.298 455.545,35.532 455.545,39.521 L455.545,88.576 C455.545,92.565 450.172,95.798 443.545,95.798 L338.545,95.798 C331.918,95.798 326.545,92.565 326.545,88.576 L326.545,39.521 C326.545,35.532 331.918,32.298 338.545,32.298 z" fill="#CEEEFC" fill-opacity="0.727"/>
    <path d="M374.008,87.132 L377.392,87.132 L377.392,77.196 L374.244,77.975 L374.244,75.248 L377.412,74.489 L380.334,74.489 L380.334,87.132 L383.718,87.132 L383.718,89.798 L374.008,89.798 z" fill="#000000"/>
    <path d="M389.173,87.132 L395.623,87.132 L395.623,89.798 L385.902,89.798 L385.902,87.214 L387.543,85.471 Q390.465,82.364 391.091,81.646 Q391.86,80.764 392.198,80.082 Q392.537,79.401 392.537,78.734 Q392.537,77.709 391.916,77.15 Q391.296,76.591 390.158,76.591 Q389.348,76.591 388.338,76.914 Q387.328,77.237 386.23,77.852 L386.23,75.032 Q387.328,74.632 388.379,74.422 Q389.43,74.212 390.393,74.212 Q392.824,74.212 394.213,75.345 Q395.602,76.478 395.602,78.437 Q395.602,79.339 395.3,80.129 Q394.997,80.918 394.259,81.882 Q393.716,82.579 391.275,85.02 Q389.953,86.342 389.173,87.132 z" fill="#000000"/>
    <path d="M404.482,77.852 L400.617,83.902 L404.482,83.902 z M404.216,74.489 L407.384,74.489 L407.384,83.902 L409.066,83.902 L409.066,86.496 L407.384,86.496 L407.384,89.798 L404.482,89.798 L404.482,86.496 L398.412,86.496 L398.412,83.564 z" fill="#000000"/>
    <path d="M335.362,42.203 L335.362,40.426 L341.439,40.426 L341.439,42.203 L339.409,42.203 L339.409,48.855 L341.439,48.855 L341.439,50.632 L335.362,50.632 L335.362,48.855 L337.392,48.855 L337.392,42.203 z" fill="#F42300"/>
    <path d="M349.936,45.662 L349.936,50.632 L347.947,50.632 L347.947,45.97 Q347.947,45.136 347.711,44.777 Q347.475,44.418 346.942,44.418 Q346.402,44.418 346.091,44.903 Q345.78,45.389 345.78,46.25 L345.78,50.632 L343.79,50.632 L343.79,42.976 L345.78,42.976 L345.78,44.124 Q345.992,43.488 346.504,43.14 Q347.017,42.791 347.742,42.791 Q348.829,42.791 349.382,43.512 Q349.936,44.234 349.936,45.662 z" fill="#F42300"/>
    <path d="M352.554,42.976 L356.519,42.976 L356.519,49.094 L359.007,49.094 L359.007,50.632 L352.021,50.632 L352.021,49.094 L354.516,49.094 L354.516,44.514 L352.554,44.514 z M354.516,39.25 L356.519,39.25 L356.519,41.588 L354.516,41.588 z" fill="#F42300"/>
    <path d="M364.189,40.802 L364.189,42.976 L366.807,42.976 L366.807,44.514 L364.189,44.514 L364.189,48.137 Q364.189,48.65 364.438,48.872 Q364.688,49.094 365.269,49.094 L366.807,49.094 L366.807,50.632 L365.125,50.632 Q363.403,50.632 362.794,50.082 Q362.186,49.531 362.186,48.041 L362.186,44.514 L360.231,44.514 L360.231,42.976 L362.186,42.976 L362.186,40.802 z" fill="#F42300"/>
    <path d="M369.412,42.976 L373.376,42.976 L373.376,49.094 L375.865,49.094 L375.865,50.632 L368.878,50.632 L368.878,49.094 L371.374,49.094 L371.374,44.514 L369.412,44.514 z M371.374,39.25 L373.376,39.25 L373.376,41.588 L371.374,41.588 z" fill="#F42300"/>
    <path d="M381.115,47.036 Q379.994,47.036 379.549,47.323 Q379.105,47.611 379.105,48.308 Q379.105,48.827 379.413,49.135 Q379.72,49.443 380.247,49.443 Q381.04,49.443 381.477,48.844 Q381.915,48.246 381.915,47.173 L381.915,47.036 z M383.904,46.264 L383.904,50.632 L381.915,50.632 L381.915,49.778 Q381.552,50.283 380.985,50.557 Q380.417,50.83 379.734,50.83 Q378.428,50.83 377.7,50.14 Q376.972,49.449 376.972,48.212 Q376.972,46.872 377.84,46.233 Q378.708,45.594 380.527,45.594 L381.915,45.594 L381.915,45.259 Q381.915,44.774 381.562,44.524 Q381.21,44.275 380.527,44.275 Q379.809,44.275 379.136,44.456 Q378.462,44.637 377.731,45.033 L377.731,43.324 Q378.394,43.051 379.078,42.921 Q379.761,42.791 380.527,42.791 Q382.393,42.791 383.148,43.55 Q383.904,44.309 383.904,46.264 z" fill="#F42300"/>
    <path d="M387.404,47.44 L387.404,41.533 L385.374,41.533 L385.374,39.995 L389.407,39.995 L389.407,47.44 Q389.407,48.342 389.687,48.718 Q389.967,49.094 390.637,49.094 L392.237,49.094 L392.237,50.632 L390.077,50.632 Q388.648,50.632 388.026,49.894 Q387.404,49.155 387.404,47.44 z" fill="#F42300"/>
    <path d="M394.698,42.976 L398.663,42.976 L398.663,49.094 L401.151,49.094 L401.151,50.632 L394.165,50.632 L394.165,49.094 L396.66,49.094 L396.66,44.514 L394.698,44.514 z M396.66,39.25 L398.663,39.25 L398.663,41.588 L396.66,41.588 z" fill="#F42300"/>
    <path d="M408.39,43.215 L408.39,44.965 Q407.836,44.61 407.238,44.428 Q406.64,44.247 406.039,44.247 Q405.369,44.247 405.027,44.442 Q404.685,44.637 404.685,45.02 Q404.685,45.567 406.148,45.908 L406.223,45.929 L406.797,46.066 Q407.891,46.325 408.4,46.903 Q408.91,47.481 408.91,48.465 Q408.91,49.648 408.134,50.239 Q407.358,50.83 405.799,50.83 Q405.109,50.83 404.384,50.711 Q403.66,50.591 402.915,50.352 L402.915,48.602 Q403.578,48.978 404.265,49.176 Q404.952,49.374 405.594,49.374 Q406.298,49.374 406.661,49.169 Q407.023,48.964 407.023,48.574 Q407.023,48.192 406.767,47.986 Q406.51,47.781 405.546,47.549 L404.993,47.426 Q403.844,47.166 403.318,46.612 Q402.791,46.059 402.791,45.129 Q402.791,44.022 403.591,43.406 Q404.391,42.791 405.84,42.791 Q406.49,42.791 407.136,42.897 Q407.782,43.003 408.39,43.215 z" fill="#F42300"/>
    <path d="M414.83,47.036 Q413.708,47.036 413.264,47.323 Q412.82,47.611 412.82,48.308 Q412.82,48.827 413.127,49.135 Q413.435,49.443 413.961,49.443 Q414.754,49.443 415.192,48.844 Q415.629,48.246 415.629,47.173 L415.629,47.036 z M417.619,46.264 L417.619,50.632 L415.629,50.632 L415.629,49.778 Q415.267,50.283 414.7,50.557 Q414.132,50.83 413.449,50.83 Q412.143,50.83 411.415,50.14 Q410.687,49.449 410.687,48.212 Q410.687,46.872 411.555,46.233 Q412.423,45.594 414.242,45.594 L415.629,45.594 L415.629,45.259 Q415.629,44.774 415.277,44.524 Q414.925,44.275 414.242,44.275 Q413.524,44.275 412.851,44.456 Q412.177,44.637 411.446,45.033 L411.446,43.324 Q412.109,43.051 412.792,42.921 Q413.476,42.791 414.242,42.791 Q416.108,42.791 416.863,43.55 Q417.619,44.309 417.619,46.264 z" fill="#F42300"/>
    <path d="M423.19,40.802 L423.19,42.976 L425.808,42.976 L425.808,44.514 L423.19,44.514 L423.19,48.137 Q423.19,48.65 423.439,48.872 Q423.689,49.094 424.27,49.094 L425.808,49.094 L425.808,50.632 L424.126,50.632 Q422.404,50.632 421.795,50.082 Q421.187,49.531 421.187,48.041 L421.187,44.514 L419.232,44.514 L419.232,42.976 L421.187,42.976 L421.187,40.802 z" fill="#F42300"/>
    <path d="M428.413,42.976 L432.377,42.976 L432.377,49.094 L434.866,49.094 L434.866,50.632 L427.879,50.632 L427.879,49.094 L430.374,49.094 L430.374,44.514 L428.413,44.514 z M430.374,39.25 L432.377,39.25 L432.377,41.588 L430.374,41.588 z" fill="#F42300"/>
    <path d="M439.541,44.418 Q438.824,44.418 438.414,45.05 Q438.003,45.683 438.003,46.811 Q438.003,47.939 438.414,48.571 Q438.824,49.203 439.541,49.203 Q440.266,49.203 440.676,48.571 Q441.086,47.939 441.086,46.811 Q441.086,45.683 440.676,45.05 Q440.266,44.418 439.541,44.418 z M436,46.811 Q436,44.958 436.961,43.875 Q437.921,42.791 439.541,42.791 Q441.168,42.791 442.129,43.875 Q443.089,44.958 443.089,46.811 Q443.089,48.663 442.129,49.747 Q441.168,50.83 439.541,50.83 Q437.921,50.83 436.961,49.747 Q436,48.663 436,46.811 z" fill="#F42300"/>
    <path d="M451.081,45.662 L451.081,50.632 L449.091,50.632 L449.091,45.97 Q449.091,45.136 448.855,44.777 Q448.62,44.418 448.086,44.418 Q447.546,44.418 447.235,44.903 Q446.924,45.389 446.924,46.25 L446.924,50.632 L444.935,50.632 L444.935,42.976 L446.924,42.976 L446.924,44.124 Q447.136,43.488 447.649,43.14 Q448.162,42.791 448.886,42.791 Q449.973,42.791 450.527,43.512 Q451.081,44.234 451.081,45.662 z" fill="#F42300"/>
    <path d="M302.874,84.343 L313.713,84.343 L313.713,86.773 L302.874,86.773 z M302.874,79.677 L313.713,79.677 L313.713,82.087 L302.874,82.087 z" fill="#000000"/>
    <path d="M179.909,178.997 Q179.762,179.27 179.258,179.333 Q179.216,179.333 178.355,179.375 Q178.502,180.32 179.447,181.727 Q179.993,182.126 179.993,182.777 Q179.993,183.806 178.733,183.806 Q177.536,183.806 177.095,183.197 Q176.948,182.987 176.906,182.63 Q176.906,182.399 176.885,182.147 Q176.696,181.958 175.751,179.711 Q174.029,179.963 171.509,180.425 Q171.257,181.034 170.963,182.189 Q171.005,182.399 171.005,182.588 Q171.005,183.155 170.627,183.46 Q170.249,183.764 169.724,183.764 Q169.136,183.764 168.632,183.323 Q168.128,182.882 168.128,182.294 Q168.128,181.769 168.611,181.349 Q170.186,173.348 172.433,168.119 Q172.391,167.867 172.391,167.615 Q172.391,166.565 173.105,166.229 Q173.399,166.103 173.861,166.103 Q174.743,166.103 175.331,166.376 Q176.087,166.754 176.087,167.51 Q176.087,168.203 175.709,168.749 Q176.108,172.319 177.431,176.981 Q177.557,176.96 178.292,176.771 Q178.733,176.645 178.964,176.645 Q179.237,176.645 179.405,176.771 Q180.14,177.338 180.14,178.157 Q180.14,178.598 179.909,178.997 z M174.869,177.401 Q174.512,176.078 173.735,172.319 Q172.244,175.574 171.971,177.905 z" fill="#000000"/>
    <path d="M184.718,183.386 Q184.298,184.184 183.164,184.184 Q182.114,184.184 181.694,183.47 Q181.568,183.26 181.568,183.008 Q181.568,182.798 181.715,182.315 Q181.862,181.832 181.862,181.517 L181.778,167.951 Q181.778,166.838 181.778,166.817 Q181.841,166.544 182.366,166.365 Q182.891,166.187 183.479,166.187 Q184.34,166.187 184.571,166.502 Q184.802,166.817 184.802,167.153 Q184.802,167.384 184.634,167.919 Q184.466,168.455 184.466,168.791 L184.466,181.391 Q184.466,181.706 184.645,182.221 Q184.823,182.735 184.823,182.966 Q184.823,183.197 184.718,183.386 z" fill="#000000"/>
    <path d="M193.874,172.13 Q193.916,173.936 194.063,178.073 Q194.147,180.992 194.147,182.252 Q194.147,185.024 193.706,186.032 Q193.265,187.04 191.921,187.145 Q190.241,187.292 188.96,186.263 Q188.33,186.074 188.162,185.969 Q187.805,185.759 187.7,185.255 Q187.511,184.268 189.254,184.268 Q189.695,184.268 190.094,184.373 Q190.388,184.436 190.745,184.867 Q191.102,185.297 191.417,185.318 Q192.026,185.36 192.026,183.596 Q192.026,182.84 191.921,181.139 Q191.165,182.42 190.829,182.798 Q190.136,183.512 189.212,183.512 Q187.91,183.512 187.112,181.706 Q186.377,180.047 186.377,177.674 Q186.377,175.238 187.154,173.558 Q188.036,171.668 189.59,171.626 Q190.43,171.605 190.829,171.962 Q191.228,172.319 191.606,172.697 Q191.333,171.941 191.732,171.563 Q191.963,171.332 192.425,171.332 Q192.866,171.332 193.307,171.563 Q193.748,171.794 193.874,172.13 z M191.354,177.485 Q191.438,176.267 191.06,175.175 Q190.64,173.957 189.968,173.957 Q189.422,173.957 189.002,175.175 Q188.624,176.267 188.582,177.485 Q188.54,178.766 188.771,179.795 Q189.065,181.013 189.59,181.013 Q190.052,181.013 190.661,179.827 Q191.27,178.64 191.354,177.485 z" fill="#000000"/>
    <path d="M202.568,172.445 Q203.975,173.873 203.975,177.254 Q203.975,179.879 202.988,181.727 Q201.875,183.806 199.922,183.806 Q197.99,183.806 196.94,181.937 Q196.016,180.299 196.016,177.779 Q196.016,175.553 196.73,173.789 Q197.486,171.899 198.662,171.563 Q199.271,171.395 199.922,171.395 Q201.539,171.395 202.568,172.445 z M200.174,173.453 Q199.481,173.39 198.977,174.755 Q198.536,175.994 198.536,177.359 Q198.536,179.333 198.704,180.152 Q198.998,181.622 199.922,181.769 Q200.51,181.853 201.014,180.152 Q201.497,178.514 201.497,176.645 Q201.497,173.579 200.174,173.453 z" fill="#000000"/>
    <path d="M213.635,172.571 Q213.551,173.012 212.837,173.18 Q211.997,173.39 211.766,173.663 L208.343,177.611 L208.343,180.803 Q208.343,181.265 208.605,181.738 Q208.868,182.21 208.868,182.462 Q208.868,182.714 208.721,183.029 Q208.364,183.827 207.272,183.827 Q206.516,183.827 206.075,183.344 Q205.781,183.029 205.781,182.546 Q205.781,182.378 205.823,182 Q205.865,181.622 205.865,181.391 L205.865,173.537 Q205.865,173.348 205.697,173.075 Q205.529,172.802 205.529,172.634 Q205.529,172.508 205.613,172.34 Q205.886,171.836 207.314,171.836 Q208.427,171.836 208.574,172.361 Q208.637,172.571 208.637,172.718 Q208.637,172.949 208.469,173.075 Q208.301,173.201 208.301,173.327 L208.343,174.083 L210.149,172.172 Q210.464,171.815 210.811,171.458 Q211.157,171.101 211.619,171.059 Q212.333,170.996 212.995,171.374 Q213.656,171.752 213.656,172.361 Q213.656,172.466 213.635,172.571 z" fill="#000000"/>
    <path d="M217.982,167.531 Q218.045,167.594 218.045,167.741 Q218.045,167.93 217.919,168.392 Q217.772,168.959 217.73,169.169 Q217.688,169.379 217.772,170.093 Q217.772,170.534 217.509,170.67 Q217.247,170.807 216.848,170.807 Q216.281,170.807 215.693,170.576 Q214.979,170.282 214.979,169.799 Q214.979,169.652 215.105,169.389 Q215.231,169.127 215.252,168.959 Q215.294,168.791 215.252,168.119 Q215.21,167.594 215.462,167.405 Q215.798,167.153 216.659,167.153 Q217.604,167.153 217.982,167.531 z M218.255,172.655 Q218.255,172.949 217.929,173.568 Q217.604,174.188 217.604,174.587 L217.604,180.761 Q217.604,181.181 217.835,181.947 Q218.066,182.714 218.066,183.008 Q218.066,183.428 217.73,183.638 Q217.205,183.974 216.596,183.974 Q215.798,183.974 215.462,183.428 Q215.021,182.756 215.021,179.417 Q215.021,178.619 215.052,176.928 Q215.084,175.238 215.084,174.461 Q215.084,174.167 215.021,173.694 Q214.958,173.222 214.958,173.012 Q214.958,172.319 215.462,171.815 Q215.672,171.605 216.239,171.605 Q216.806,171.605 217.373,171.783 Q217.94,171.962 218.097,172.193 Q218.255,172.424 218.255,172.655 z" fill="#000000"/>
    <path d="M227.138,173.747 Q226.97,173.747 226.613,173.611 Q226.256,173.474 226.067,173.474 Q225.92,173.474 225.773,173.537 L224.996,173.936 L224.996,181.118 Q224.996,181.517 225.426,182.147 Q225.857,182.777 225.773,183.155 Q225.668,183.617 225.154,183.89 Q224.639,184.163 224.051,184.163 Q222.938,184.163 222.518,183.176 Q222.392,182.882 222.371,181.307 Q222.35,180.257 222.392,178.031 Q222.434,175.511 222.434,174.839 Q222.308,174.881 222.014,175.123 Q221.72,175.364 221.426,175.364 Q221.195,175.364 220.838,175.238 Q219.368,174.734 219.368,174.209 Q219.368,174.083 219.431,173.936 Q219.578,173.6 219.977,173.558 Q220.586,173.474 220.712,173.411 Q221.195,173.222 222.476,172.508 L222.476,170.681 Q222.476,170.471 222.361,170.125 Q222.245,169.778 222.245,169.61 Q222.245,169.421 222.35,169.253 Q222.896,168.413 223.82,168.413 Q224.891,168.413 225.332,169.253 Q225.5,169.589 225.5,169.799 Q225.5,170.051 225.248,170.324 Q224.996,170.597 224.996,170.828 L224.996,171.857 Q225.374,171.689 225.836,171.29 Q226.193,170.996 226.445,170.996 Q226.55,170.996 226.676,171.038 Q227.999,171.395 227.999,172.634 Q227.999,173.033 227.757,173.39 Q227.516,173.747 227.138,173.747 z" fill="#000000"/>
    <path d="M237.827,181.517 Q237.953,182.042 237.953,182.189 Q237.953,182.63 237.438,182.913 Q236.924,183.197 236.336,183.197 Q235.433,183.197 235.181,182.525 Q235.076,182.252 235.076,182.063 Q235.076,181.79 235.317,181.475 Q235.559,181.16 235.559,180.887 Q235.811,179.795 235.811,177.737 Q235.811,174.167 235.307,174.083 Q234.929,174.02 234.089,175.28 Q233.207,176.603 232.619,178.241 Q231.926,180.173 232.031,181.643 Q231.968,181.769 231.968,181.895 Q231.968,182.084 232.136,182.43 Q232.304,182.777 232.304,182.987 Q232.304,183.197 232.157,183.386 Q231.59,184.205 231.023,184.205 Q230.435,184.205 229.889,183.281 Q229.574,182.735 229.574,177.002 Q229.574,174.902 229.679,167.447 Q229.679,167.321 229.658,167.059 Q229.637,166.796 229.637,166.649 Q229.658,166.439 229.763,166.271 Q229.994,165.83 230.75,165.83 Q231.422,165.83 231.979,166.187 Q232.535,166.544 232.409,167.027 Q232.388,167.153 232.209,167.321 Q232.031,167.489 232.031,167.657 L232.031,174.419 Q233.228,171.731 235.559,171.563 Q236.819,171.479 237.575,173.453 Q238.268,175.259 238.268,177.884 Q238.268,179.9 237.827,181.517 z" fill="#000000"/>
    <path d="M253.808,183.281 Q253.535,184.058 252.569,184.058 Q251.351,184.058 250.763,183.218 Q250.448,182.756 250.448,180.047 Q250.448,179.648 250.448,178.934 Q250.469,178.199 250.469,177.905 Q250.469,176.435 250.322,176.393 Q250.007,176.267 248.18,182.273 Q248.18,182.294 248.096,183.281 Q248.054,183.89 247.676,184.1 Q247.403,184.247 247.067,184.247 Q246.458,184.247 245.891,183.848 Q245.324,183.449 245.177,182.903 Q244.967,182.126 244.988,179.837 Q245.03,176.498 245.03,176.624 Q245.009,175.742 244.904,175.721 Q244.421,176.519 244.064,177.254 Q243.203,179.018 243.077,180.194 Q242.972,180.446 243.056,181.181 Q243.14,181.811 242.867,182.042 Q242.594,182.273 242.132,182.273 Q241.628,182.273 241.114,181.99 Q240.599,181.706 240.368,181.349 Q240.032,180.824 239.99,178.283 Q239.99,175.805 239.99,173.327 Q239.969,173.117 239.822,172.739 Q239.675,172.361 239.675,172.172 Q239.675,171.983 239.78,171.815 Q240.053,171.395 241.166,171.395 Q242.531,171.395 242.804,172.067 Q242.867,172.214 242.867,172.361 Q242.867,172.55 242.668,172.907 Q242.468,173.264 242.468,173.495 L242.468,175.889 Q243.098,174.566 244.127,172.529 Q244.253,172.256 244.368,171.983 Q244.484,171.71 244.715,171.5 Q244.946,171.29 245.492,171.29 Q246.332,171.29 247.183,171.668 Q248.033,172.046 248.054,172.571 Q248.075,173.117 247.896,173.401 Q247.718,173.684 247.718,173.873 L247.676,178.409 Q248.012,177.653 248.894,174.839 Q249.587,172.697 249.944,172.445 Q250.406,172.109 251.309,172.109 Q252.989,172.109 253.052,173.075 Q253.031,175.637 253.052,181.643 Q253.052,181.874 253.472,182.2 Q253.892,182.525 253.892,182.882 Q253.892,183.05 253.808,183.281 z" fill="#000000"/>
    <path d="M258.554,167.531 Q258.617,167.594 258.617,167.741 Q258.617,167.93 258.491,168.392 Q258.344,168.959 258.302,169.169 Q258.26,169.379 258.344,170.093 Q258.344,170.534 258.082,170.67 Q257.819,170.807 257.42,170.807 Q256.853,170.807 256.265,170.576 Q255.551,170.282 255.551,169.799 Q255.551,169.652 255.677,169.389 Q255.803,169.127 255.824,168.959 Q255.866,168.791 255.824,168.119 Q255.782,167.594 256.034,167.405 Q256.37,167.153 257.231,167.153 Q258.176,167.153 258.554,167.531 z M258.827,172.655 Q258.827,172.949 258.501,173.568 Q258.176,174.188 258.176,174.587 L258.176,180.761 Q258.176,181.181 258.407,181.947 Q258.638,182.714 258.638,183.008 Q258.638,183.428 258.302,183.638 Q257.777,183.974 257.168,183.974 Q256.37,183.974 256.034,183.428 Q255.593,182.756 255.593,179.417 Q255.593,178.619 255.624,176.928 Q255.656,175.238 255.656,174.461 Q255.656,174.167 255.593,173.694 Q255.53,173.222 255.53,173.012 Q255.53,172.319 256.034,171.815 Q256.244,171.605 256.811,171.605 Q257.378,171.605 257.945,171.783 Q258.512,171.962 258.669,172.193 Q258.827,172.424 258.827,172.655 z" fill="#000000"/>
    <path d="M268.025,171.941 Q268.109,172.13 268.109,172.298 Q268.109,172.508 267.941,172.833 Q267.773,173.159 267.773,173.39 L267.773,185.339 Q267.773,185.612 267.91,186.001 Q268.046,186.389 268.046,186.62 Q268.046,186.851 267.962,187.103 Q267.71,187.859 266.66,187.859 Q265.379,187.859 264.938,186.914 Q264.833,186.704 264.833,186.494 Q264.833,186.221 265.106,185.696 Q265.379,185.171 265.379,184.835 L265.379,182.147 Q264.476,183.512 263.615,183.512 Q262.082,183.512 261.032,181.538 Q260.087,179.711 260.087,177.485 Q260.087,175.07 260.696,173.537 Q261.494,171.563 263.237,171.563 Q264.539,171.563 265.505,172.949 Q265.484,172.781 265.379,172.466 Q265.274,172.151 265.274,172.004 Q265.274,171.815 265.379,171.689 Q265.652,171.353 266.471,171.353 Q267.773,171.353 268.025,171.941 z M265.127,177.485 Q265.127,176.204 264.738,174.891 Q264.35,173.579 263.867,173.579 Q262.838,173.579 262.838,175.952 Q262.838,176.225 262.838,176.729 Q262.859,177.254 262.859,177.485 Q262.859,178.808 263.09,179.858 Q263.384,181.139 263.867,181.139 Q264.287,181.139 264.728,179.753 Q265.127,178.451 265.127,177.485 z" fill="#000000"/>
    <path d="M277.664,173.033 Q277.706,173.348 277.538,173.705 Q277.328,174.188 277.286,174.419 Q277.286,178.787 276.929,180.488 Q276.152,184.058 273.632,184.058 Q269.957,184.058 269.957,177.359 Q269.957,175.553 270.23,173.537 Q270.083,173.054 270.083,172.676 Q270.083,172.067 270.482,171.647 Q270.818,171.29 271.469,171.29 Q271.994,171.29 272.456,171.51 Q272.918,171.731 273.002,172.025 Q273.044,172.172 273.044,172.319 Q273.044,172.592 272.813,173.191 Q272.582,173.789 272.624,174.167 Q272.414,175.343 272.414,177.128 Q272.414,178.934 272.645,180.131 Q272.939,181.517 273.464,181.517 Q274.346,181.517 274.619,178.535 Q274.766,177.044 274.766,173.789 Q274.766,173.579 274.703,173.18 Q274.64,172.781 274.64,172.592 Q274.64,172.088 275.018,171.899 Q275.228,171.794 275.606,171.794 Q276.299,171.794 276.887,172.088 Q277.58,172.445 277.664,173.033 z" fill="#000000"/>
    <path d="M286.694,181.076 Q286.526,181.874 285.56,182.777 Q285.413,183.008 284.405,183.386 Q283.25,183.827 282.41,183.764 Q280.835,183.659 279.932,181.958 Q279.113,180.383 279.113,178.094 Q279.113,175.616 280.037,173.747 Q281.066,171.689 282.788,171.437 Q283.124,171.395 283.439,171.395 Q285.938,171.395 286.19,174.461 Q286.316,175.868 285.077,177.527 Q283.733,179.354 281.633,180.089 Q281.864,180.929 281.99,181.181 Q282.284,181.706 282.788,181.706 Q283.271,181.706 283.817,181.328 Q284.279,181.013 284.447,180.719 Q284.531,180.677 284.615,180.247 Q284.699,179.816 285.056,179.627 Q285.182,179.564 285.35,179.564 Q285.854,179.564 286.327,180.058 Q286.799,180.551 286.694,181.076 z M283.397,173.684 Q282.557,173.684 282.032,174.881 Q281.339,176.477 281.465,178.031 Q282.452,177.716 283.292,176.561 Q284.132,175.406 284.132,174.503 Q284.132,173.684 283.397,173.684 z" fill="#000000"/>
    <path d="M722.705,178.85 Q720.71,183.827 718.715,183.848 Q716.3,183.869 715.187,181.349 Q714.326,179.417 714.305,176.288 Q714.284,172.76 715.229,169.862 Q716.321,166.481 718.19,166.271 Q718.463,166.25 718.715,166.25 Q720.458,166.25 721.403,167.804 Q722.096,168.98 722.579,171.542 Q722.936,172.571 722.936,172.802 Q722.936,173.495 722.075,173.873 Q721.886,173.957 721.634,173.957 Q721.025,173.957 720.29,173.558 Q719.429,173.096 719.429,172.55 Q719.429,172.466 719.723,171.731 Q719.681,170.807 719.387,169.978 Q719.093,169.148 718.715,169.064 Q718.127,168.917 717.686,171.395 Q717.308,173.453 717.224,175.931 Q717.161,177.8 717.434,179.396 Q717.749,181.223 718.379,181.349 Q718.757,181.412 719.282,180.404 Q719.786,179.48 720.122,178.22 Q720.08,178.01 720.08,177.821 Q720.08,176.582 721.592,176.582 Q721.928,176.582 722.264,176.645 Q723.293,176.855 723.293,177.674 Q723.293,178.346 722.705,178.85 z" fill="#000000"/>
    <path d="M733.478,167.783 Q733.478,168.035 733.058,168.413 Q732.554,168.833 732.428,169.085 L725.96,181.349 Q725.834,181.559 725.477,182.735 Q725.225,183.491 724.91,183.554 Q724.406,183.659 723.629,183.218 Q722.768,182.714 722.768,182.021 Q722.789,181.685 723.062,181.349 Q723.461,180.866 723.524,180.761 L730.454,167.783 Q730.538,167.636 730.685,166.943 Q730.811,166.439 731.126,166.271 Q731.336,166.166 731.609,166.166 Q732.26,166.166 732.869,166.628 Q733.499,167.153 733.478,167.783 z" fill="#000000"/>
    <path d="M741.71,178.85 Q739.715,183.827 737.72,183.848 Q735.305,183.869 734.192,181.349 Q733.331,179.417 733.31,176.288 Q733.289,172.76 734.234,169.862 Q735.326,166.481 737.195,166.271 Q737.468,166.25 737.72,166.25 Q739.463,166.25 740.408,167.804 Q741.101,168.98 741.584,171.542 Q741.941,172.571 741.941,172.802 Q741.941,173.495 741.08,173.873 Q740.891,173.957 740.639,173.957 Q740.03,173.957 739.295,173.558 Q738.434,173.096 738.434,172.55 Q738.434,172.466 738.728,171.731 Q738.686,170.807 738.392,169.978 Q738.098,169.148 737.72,169.064 Q737.132,168.917 736.691,171.395 Q736.313,173.453 736.229,175.931 Q736.166,177.8 736.439,179.396 Q736.754,181.223 737.384,181.349 Q737.762,181.412 738.287,180.404 Q738.791,179.48 739.127,178.22 Q739.085,178.01 739.085,177.821 Q739.085,176.582 740.597,176.582 Q740.933,176.582 741.269,176.645 Q742.298,176.855 742.298,177.674 Q742.298,178.346 741.71,178.85 z" fill="#000000"/>
    <path d="M750.719,174.818 Q750.383,174.797 749.648,174.839 L748.136,175.091 L748.304,176.435 Q748.325,176.624 748.44,176.971 Q748.556,177.317 748.556,177.485 Q748.556,177.947 748.031,178.199 Q747.611,178.409 747.086,178.409 Q746.372,178.409 746.089,178.084 Q745.805,177.758 745.7,177.013 Q745.595,176.267 745.49,175.469 L744.608,175.847 Q744.23,176.015 743.852,175.973 Q743.39,175.931 743.075,175.448 Q742.76,174.965 742.76,174.398 Q742.76,174.041 742.949,173.674 Q743.138,173.306 743.474,173.306 Q743.558,173.306 743.81,173.39 Q744.062,173.474 744.23,173.453 L745.28,173.285 L745.07,171.563 Q745.049,171.437 744.965,171.206 Q744.881,170.975 744.881,170.849 Q744.881,170.471 745.658,170.24 Q746.225,170.072 746.729,170.072 Q747.968,170.072 747.968,170.639 Q747.968,170.744 747.852,171.007 Q747.737,171.269 747.758,171.437 L747.884,172.949 L748.808,172.781 Q748.997,172.739 749.417,172.613 Q749.774,172.487 749.984,172.487 Q750.488,172.487 750.898,172.97 Q751.307,173.453 751.307,173.978 Q751.307,174.65 750.719,174.818 z" fill="#000000"/>
    <path d="M759.959,174.818 Q759.623,174.797 758.888,174.839 L757.376,175.091 L757.544,176.435 Q757.565,176.624 757.68,176.971 Q757.796,177.317 757.796,177.485 Q757.796,177.947 757.271,178.199 Q756.851,178.409 756.326,178.409 Q755.612,178.409 755.328,178.084 Q755.045,177.758 754.94,177.013 Q754.835,176.267 754.73,175.469 L753.848,175.847 Q753.47,176.015 753.092,175.973 Q752.63,175.931 752.315,175.448 Q752,174.965 752,174.398 Q752,174.041 752.189,173.674 Q752.378,173.306 752.714,173.306 Q752.798,173.306 753.05,173.39 Q753.302,173.474 753.47,173.453 L754.52,173.285 L754.31,171.563 Q754.289,171.437 754.205,171.206 Q754.121,170.975 754.121,170.849 Q754.121,170.471 754.898,170.24 Q755.465,170.072 755.969,170.072 Q757.208,170.072 757.208,170.639 Q757.208,170.744 757.093,171.007 Q756.977,171.269 756.998,171.437 L757.124,172.949 L758.048,172.781 Q758.237,172.739 758.657,172.613 Q759.014,172.487 759.224,172.487 Q759.728,172.487 760.138,172.97 Q760.547,173.453 760.547,173.978 Q760.547,174.65 759.959,174.818 z" fill="#000000"/>
  </g>
</svg>
