<?xml version="1.0" encoding="UTF-8"?>
<!DOCTYPE svg PUBLIC "-//W3C//DTD SVG 1.1//EN" "http://www.w3.org/Graphics/SVG/1.1/DTD/svg11.dtd">
<svg version="1.1" xmlns="http://www.w3.org/2000/svg" xmlns:xlink="http://www.w3.org/1999/xlink" x="0" y="0" width="450.651" height="204.316" viewBox="0, 0, 450.651, 204.316">
  <g id="Calque_1" transform="translate(0, -0)">
    <path d="M21.023,0 L204.977,0 C216.587,0 226,10.405 226,23.24 L226,181.076 C226,193.911 216.587,204.316 204.977,204.316 L21.023,204.316 C9.412,204.316 0,193.911 0,181.076 L0,23.24 C0,10.405 9.412,0 21.023,0 z" fill="#FFF4B8" fill-opacity="0.5"/>
    <path d="M65.887,186.422 Q65.74,186.695 65.236,186.758 Q65.194,186.758 64.333,186.8 Q64.48,187.745 65.425,189.152 Q65.971,189.551 65.971,190.202 Q65.971,191.231 64.711,191.231 Q63.514,191.231 63.073,190.622 Q62.926,190.412 62.884,190.055 Q62.884,189.824 62.863,189.572 Q62.674,189.383 61.729,187.136 Q60.007,187.388 57.487,187.85 Q57.235,188.459 56.941,189.614 Q56.983,189.824 56.983,190.013 Q56.983,190.58 56.605,190.885 Q56.227,191.189 55.702,191.189 Q55.114,191.189 54.61,190.748 Q54.106,190.307 54.106,189.719 Q54.106,189.194 54.589,188.774 Q56.164,180.773 58.411,175.544 Q58.369,175.292 58.369,175.04 Q58.369,173.99 59.083,173.654 Q59.377,173.528 59.839,173.528 Q60.721,173.528 61.309,173.801 Q62.065,174.179 62.065,174.935 Q62.065,175.628 61.687,176.174 Q62.086,179.744 63.409,184.406 Q63.535,184.385 64.27,184.196 Q64.711,184.07 64.942,184.07 Q65.215,184.07 65.383,184.196 Q66.118,184.763 66.118,185.582 Q66.118,186.023 65.887,186.422 z M60.847,184.826 Q60.49,183.503 59.713,179.744 Q58.222,182.999 57.949,185.33 z" fill="#000000"/>
    <path d="M70.696,190.811 Q70.276,191.609 69.142,191.609 Q68.092,191.609 67.672,190.895 Q67.546,190.685 67.546,190.433 Q67.546,190.223 67.693,189.74 Q67.84,189.257 67.84,188.942 L67.756,175.376 Q67.756,174.263 67.756,174.242 Q67.819,173.969 68.344,173.79 Q68.869,173.612 69.457,173.612 Q70.318,173.612 70.549,173.927 Q70.78,174.242 70.78,174.578 Q70.78,174.809 70.612,175.344 Q70.444,175.88 70.444,176.216 L70.444,188.816 Q70.444,189.131 70.622,189.645 Q70.801,190.16 70.801,190.391 Q70.801,190.622 70.696,190.811 z" fill="#000000"/>
    <path d="M79.852,179.555 Q79.894,181.361 80.041,185.498 Q80.125,188.417 80.125,189.677 Q80.125,192.449 79.684,193.457 Q79.243,194.465 77.899,194.57 Q76.219,194.717 74.938,193.688 Q74.308,193.499 74.14,193.394 Q73.783,193.184 73.678,192.68 Q73.489,191.693 75.232,191.693 Q75.673,191.693 76.072,191.798 Q76.366,191.861 76.723,192.292 Q77.08,192.722 77.395,192.743 Q78.004,192.785 78.004,191.021 Q78.004,190.265 77.899,188.564 Q77.143,189.845 76.807,190.223 Q76.114,190.937 75.19,190.937 Q73.888,190.937 73.09,189.131 Q72.355,187.472 72.355,185.099 Q72.355,182.663 73.132,180.983 Q74.014,179.093 75.568,179.051 Q76.408,179.03 76.807,179.387 Q77.206,179.744 77.584,180.122 Q77.311,179.366 77.71,178.988 Q77.941,178.757 78.403,178.757 Q78.844,178.757 79.285,178.988 Q79.726,179.219 79.852,179.555 z M77.332,184.91 Q77.416,183.692 77.038,182.6 Q76.618,181.382 75.946,181.382 Q75.4,181.382 74.98,182.6 Q74.602,183.692 74.56,184.91 Q74.518,186.191 74.749,187.22 Q75.043,188.438 75.568,188.438 Q76.03,188.438 76.639,187.251 Q77.248,186.065 77.332,184.91 z" fill="#000000"/>
    <path d="M88.546,179.87 Q89.953,181.298 89.953,184.679 Q89.953,187.304 88.966,189.152 Q87.853,191.231 85.9,191.231 Q83.968,191.231 82.918,189.362 Q81.994,187.724 81.994,185.204 Q81.994,182.978 82.708,181.214 Q83.464,179.324 84.64,178.988 Q85.249,178.82 85.9,178.82 Q87.517,178.82 88.546,179.87 z M86.152,180.878 Q85.459,180.815 84.955,182.18 Q84.514,183.419 84.514,184.784 Q84.514,186.758 84.682,187.577 Q84.976,189.047 85.9,189.194 Q86.488,189.278 86.992,187.577 Q87.475,185.939 87.475,184.07 Q87.475,181.004 86.152,180.878 z" fill="#000000"/>
    <path d="M99.613,179.996 Q99.529,180.437 98.815,180.605 Q97.975,180.815 97.744,181.088 L94.321,185.036 L94.321,188.228 Q94.321,188.69 94.583,189.162 Q94.846,189.635 94.846,189.887 Q94.846,190.139 94.699,190.454 Q94.342,191.252 93.25,191.252 Q92.494,191.252 92.053,190.769 Q91.759,190.454 91.759,189.971 Q91.759,189.803 91.801,189.425 Q91.843,189.047 91.843,188.816 L91.843,180.962 Q91.843,180.773 91.675,180.5 Q91.507,180.227 91.507,180.059 Q91.507,179.933 91.591,179.765 Q91.864,179.261 93.292,179.261 Q94.405,179.261 94.552,179.786 Q94.615,179.996 94.615,180.143 Q94.615,180.374 94.447,180.5 Q94.279,180.626 94.279,180.752 L94.321,181.508 L96.127,179.597 Q96.442,179.24 96.788,178.883 Q97.135,178.526 97.597,178.484 Q98.311,178.421 98.972,178.799 Q99.634,179.177 99.634,179.786 Q99.634,179.891 99.613,179.996 z" fill="#000000"/>
    <path d="M103.96,174.956 Q104.023,175.019 104.023,175.166 Q104.023,175.355 103.897,175.817 Q103.75,176.384 103.708,176.594 Q103.666,176.804 103.75,177.518 Q103.75,177.959 103.487,178.096 Q103.225,178.232 102.826,178.232 Q102.259,178.232 101.671,178.001 Q100.957,177.707 100.957,177.224 Q100.957,177.077 101.083,176.814 Q101.209,176.552 101.23,176.384 Q101.272,176.216 101.23,175.544 Q101.188,175.019 101.44,174.83 Q101.776,174.578 102.637,174.578 Q103.582,174.578 103.96,174.956 z M104.233,180.08 Q104.233,180.374 103.907,180.993 Q103.582,181.613 103.582,182.012 L103.582,188.186 Q103.582,188.606 103.813,189.372 Q104.044,190.139 104.044,190.433 Q104.044,190.853 103.708,191.063 Q103.183,191.399 102.574,191.399 Q101.776,191.399 101.44,190.853 Q100.999,190.181 100.999,186.842 Q100.999,186.044 101.03,184.354 Q101.062,182.663 101.062,181.886 Q101.062,181.592 100.999,181.12 Q100.936,180.647 100.936,180.437 Q100.936,179.744 101.44,179.24 Q101.65,179.03 102.217,179.03 Q102.784,179.03 103.351,179.209 Q103.918,179.387 104.076,179.618 Q104.233,179.849 104.233,180.08 z" fill="#000000"/>
    <path d="M113.116,181.172 Q112.948,181.172 112.591,181.036 Q112.234,180.899 112.045,180.899 Q111.898,180.899 111.751,180.962 L110.974,181.361 L110.974,188.543 Q110.974,188.942 111.405,189.572 Q111.835,190.202 111.751,190.58 Q111.646,191.042 111.132,191.315 Q110.617,191.588 110.029,191.588 Q108.916,191.588 108.496,190.601 Q108.37,190.307 108.349,188.732 Q108.328,187.682 108.37,185.456 Q108.412,182.936 108.412,182.264 Q108.286,182.306 107.992,182.548 Q107.698,182.789 107.404,182.789 Q107.173,182.789 106.816,182.663 Q105.346,182.159 105.346,181.634 Q105.346,181.508 105.409,181.361 Q105.556,181.025 105.955,180.983 Q106.564,180.899 106.69,180.836 Q107.173,180.647 108.454,179.933 L108.454,178.106 Q108.454,177.896 108.339,177.549 Q108.223,177.203 108.223,177.035 Q108.223,176.846 108.328,176.678 Q108.874,175.838 109.798,175.838 Q110.869,175.838 111.31,176.678 Q111.478,177.014 111.478,177.224 Q111.478,177.476 111.226,177.749 Q110.974,178.022 110.974,178.253 L110.974,179.282 Q111.352,179.114 111.814,178.715 Q112.171,178.421 112.423,178.421 Q112.528,178.421 112.654,178.463 Q113.977,178.82 113.977,180.059 Q113.977,180.458 113.736,180.815 Q113.494,181.172 113.116,181.172 z" fill="#000000"/>
    <path d="M123.805,188.942 Q123.931,189.467 123.931,189.614 Q123.931,190.055 123.416,190.339 Q122.902,190.622 122.314,190.622 Q121.411,190.622 121.159,189.95 Q121.054,189.677 121.054,189.488 Q121.054,189.215 121.296,188.9 Q121.537,188.585 121.537,188.312 Q121.789,187.22 121.789,185.162 Q121.789,181.592 121.285,181.508 Q120.907,181.445 120.067,182.705 Q119.185,184.028 118.597,185.666 Q117.904,187.598 118.009,189.068 Q117.946,189.194 117.946,189.32 Q117.946,189.509 118.114,189.855 Q118.282,190.202 118.282,190.412 Q118.282,190.622 118.135,190.811 Q117.568,191.63 117.001,191.63 Q116.413,191.63 115.867,190.706 Q115.552,190.16 115.552,184.427 Q115.552,182.327 115.657,174.872 Q115.657,174.746 115.636,174.483 Q115.615,174.221 115.615,174.074 Q115.636,173.864 115.741,173.696 Q115.972,173.255 116.728,173.255 Q117.4,173.255 117.956,173.612 Q118.513,173.969 118.387,174.452 Q118.366,174.578 118.188,174.746 Q118.009,174.914 118.009,175.082 L118.009,181.844 Q119.206,179.156 121.537,178.988 Q122.797,178.904 123.553,180.878 Q124.246,182.684 124.246,185.309 Q124.246,187.325 123.805,188.942 z" fill="#000000"/>
    <path d="M139.786,190.706 Q139.513,191.483 138.547,191.483 Q137.329,191.483 136.741,190.643 Q136.426,190.181 136.426,187.472 Q136.426,187.073 136.426,186.359 Q136.447,185.624 136.447,185.33 Q136.447,183.86 136.3,183.818 Q135.985,183.692 134.158,189.698 Q134.158,189.719 134.074,190.706 Q134.032,191.315 133.654,191.525 Q133.381,191.672 133.045,191.672 Q132.436,191.672 131.869,191.273 Q131.302,190.874 131.155,190.328 Q130.945,189.551 130.966,187.262 Q131.008,183.923 131.008,184.049 Q130.987,183.167 130.882,183.146 Q130.399,183.944 130.042,184.679 Q129.181,186.443 129.055,187.619 Q128.95,187.871 129.034,188.606 Q129.118,189.236 128.845,189.467 Q128.572,189.698 128.11,189.698 Q127.606,189.698 127.091,189.415 Q126.577,189.131 126.346,188.774 Q126.01,188.249 125.968,185.708 Q125.968,183.23 125.968,180.752 Q125.947,180.542 125.8,180.164 Q125.653,179.786 125.653,179.597 Q125.653,179.408 125.758,179.24 Q126.031,178.82 127.144,178.82 Q128.509,178.82 128.782,179.492 Q128.845,179.639 128.845,179.786 Q128.845,179.975 128.645,180.332 Q128.446,180.689 128.446,180.92 L128.446,183.314 Q129.076,181.991 130.105,179.954 Q130.231,179.681 130.346,179.408 Q130.462,179.135 130.693,178.925 Q130.924,178.715 131.47,178.715 Q132.31,178.715 133.16,179.093 Q134.011,179.471 134.032,179.996 Q134.053,180.542 133.874,180.826 Q133.696,181.109 133.696,181.298 L133.654,185.834 Q133.99,185.078 134.872,182.264 Q135.565,180.122 135.922,179.87 Q136.384,179.534 137.287,179.534 Q138.967,179.534 139.03,180.5 Q139.009,183.062 139.03,189.068 Q139.03,189.299 139.45,189.624 Q139.87,189.95 139.87,190.307 Q139.87,190.475 139.786,190.706 z" fill="#000000"/>
    <path d="M144.532,174.956 Q144.595,175.019 144.595,175.166 Q144.595,175.355 144.469,175.817 Q144.322,176.384 144.28,176.594 Q144.238,176.804 144.322,177.518 Q144.322,177.959 144.06,178.096 Q143.797,178.232 143.398,178.232 Q142.831,178.232 142.243,178.001 Q141.529,177.707 141.529,177.224 Q141.529,177.077 141.655,176.814 Q141.781,176.552 141.802,176.384 Q141.844,176.216 141.802,175.544 Q141.76,175.019 142.012,174.83 Q142.348,174.578 143.209,174.578 Q144.154,174.578 144.532,174.956 z M144.805,180.08 Q144.805,180.374 144.48,180.993 Q144.154,181.613 144.154,182.012 L144.154,188.186 Q144.154,188.606 144.385,189.372 Q144.616,190.139 144.616,190.433 Q144.616,190.853 144.28,191.063 Q143.755,191.399 143.146,191.399 Q142.348,191.399 142.012,190.853 Q141.571,190.181 141.571,186.842 Q141.571,186.044 141.603,184.354 Q141.634,182.663 141.634,181.886 Q141.634,181.592 141.571,181.12 Q141.508,180.647 141.508,180.437 Q141.508,179.744 142.012,179.24 Q142.222,179.03 142.789,179.03 Q143.356,179.03 143.923,179.209 Q144.49,179.387 144.648,179.618 Q144.805,179.849 144.805,180.08 z" fill="#000000"/>
    <path d="M154.003,179.366 Q154.087,179.555 154.087,179.723 Q154.087,179.933 153.919,180.258 Q153.751,180.584 153.751,180.815 L153.751,192.764 Q153.751,193.037 153.887,193.425 Q154.024,193.814 154.024,194.045 Q154.024,194.276 153.94,194.528 Q153.688,195.284 152.638,195.284 Q151.357,195.284 150.916,194.339 Q150.811,194.129 150.811,193.919 Q150.811,193.646 151.084,193.121 Q151.357,192.596 151.357,192.26 L151.357,189.572 Q150.454,190.937 149.593,190.937 Q148.06,190.937 147.01,188.963 Q146.065,187.136 146.065,184.91 Q146.065,182.495 146.674,180.962 Q147.472,178.988 149.215,178.988 Q150.517,178.988 151.483,180.374 Q151.462,180.206 151.357,179.891 Q151.252,179.576 151.252,179.429 Q151.252,179.24 151.357,179.114 Q151.63,178.778 152.449,178.778 Q153.751,178.778 154.003,179.366 z M151.105,184.91 Q151.105,183.629 150.716,182.316 Q150.328,181.004 149.845,181.004 Q148.816,181.004 148.816,183.377 Q148.816,183.65 148.816,184.154 Q148.837,184.679 148.837,184.91 Q148.837,186.233 149.068,187.283 Q149.362,188.564 149.845,188.564 Q150.265,188.564 150.706,187.178 Q151.105,185.876 151.105,184.91 z" fill="#000000"/>
    <path d="M163.642,180.458 Q163.684,180.773 163.516,181.13 Q163.306,181.613 163.264,181.844 Q163.264,186.212 162.907,187.913 Q162.13,191.483 159.61,191.483 Q155.935,191.483 155.935,184.784 Q155.935,182.978 156.208,180.962 Q156.061,180.479 156.061,180.101 Q156.061,179.492 156.46,179.072 Q156.796,178.715 157.447,178.715 Q157.972,178.715 158.434,178.936 Q158.896,179.156 158.98,179.45 Q159.022,179.597 159.022,179.744 Q159.022,180.017 158.791,180.615 Q158.56,181.214 158.602,181.592 Q158.392,182.768 158.392,184.553 Q158.392,186.359 158.623,187.556 Q158.917,188.942 159.442,188.942 Q160.324,188.942 160.597,185.96 Q160.744,184.469 160.744,181.214 Q160.744,181.004 160.681,180.605 Q160.618,180.206 160.618,180.017 Q160.618,179.513 160.996,179.324 Q161.206,179.219 161.584,179.219 Q162.277,179.219 162.865,179.513 Q163.558,179.87 163.642,180.458 z" fill="#000000"/>
    <path d="M172.672,188.501 Q172.504,189.299 171.538,190.202 Q171.391,190.433 170.383,190.811 Q169.228,191.252 168.388,191.189 Q166.813,191.084 165.91,189.383 Q165.091,187.808 165.091,185.519 Q165.091,183.041 166.015,181.172 Q167.044,179.114 168.766,178.862 Q169.102,178.82 169.417,178.82 Q171.916,178.82 172.168,181.886 Q172.294,183.293 171.055,184.952 Q169.711,186.779 167.611,187.514 Q167.842,188.354 167.968,188.606 Q168.262,189.131 168.766,189.131 Q169.249,189.131 169.795,188.753 Q170.257,188.438 170.425,188.144 Q170.509,188.102 170.593,187.672 Q170.677,187.241 171.034,187.052 Q171.16,186.989 171.328,186.989 Q171.832,186.989 172.304,187.482 Q172.777,187.976 172.672,188.501 z M169.375,181.109 Q168.535,181.109 168.01,182.306 Q167.317,183.902 167.443,185.456 Q168.43,185.141 169.27,183.986 Q170.11,182.831 170.11,181.928 Q170.11,181.109 169.375,181.109 z" fill="#000000"/>
    <path d="M132.746,7.066 L199.21,7.066 C203.405,7.066 206.806,14.024 206.806,22.608 L206.806,128.164 C206.806,136.747 203.405,143.706 199.21,143.706 L132.746,143.706 C128.551,143.706 125.15,136.747 125.15,128.164 L125.15,22.608 C125.15,14.024 128.551,7.066 132.746,7.066 z" fill="#90D9F8" fill-opacity="0.46"/>
    <path d="M144.538,64.266 Q144.816,64.358 144.955,64.544 Q145.094,64.73 145.079,64.931 Q145.063,65.147 144.909,65.31 Q144.754,65.472 144.445,65.534 L142.031,65.55 L142.047,73.099 Q142.031,73.455 141.838,73.632 Q141.645,73.81 141.413,73.81 Q141.196,73.81 141.01,73.648 Q140.825,73.486 140.778,73.145 L140.763,65.55 L138.319,65.55 Q137.994,65.488 137.831,65.294 Q137.669,65.101 137.684,64.884 Q137.7,64.652 137.878,64.467 Q138.056,64.281 138.412,64.281 Q138.597,64.281 139.069,64.281 Q139.541,64.281 140.16,64.281 Q140.778,64.281 141.475,64.281 Q142.171,64.281 142.789,64.281 Q143.408,64.281 143.88,64.273 Q144.352,64.266 144.538,64.266 z" fill="#000000"/>
    <path d="M149.612,71.691 Q149.936,71.567 150.168,71.66 Q150.4,71.753 150.501,71.954 Q150.602,72.155 150.532,72.403 Q150.462,72.65 150.168,72.82 Q149.658,73.114 149.07,73.362 Q148.482,73.609 147.879,73.702 Q147.276,73.795 146.688,73.694 Q146.1,73.594 145.558,73.223 Q144.909,72.774 144.568,72.008 Q144.228,71.242 144.213,70.415 Q144.197,69.587 144.514,68.821 Q144.831,68.056 145.512,67.592 Q146.224,67.112 147.059,66.872 Q147.894,66.632 148.745,66.818 Q149.163,66.911 149.503,67.213 Q149.844,67.514 150.052,67.909 Q150.261,68.303 150.277,68.744 Q150.292,69.185 150.06,69.572 Q149.797,70.005 149.302,70.307 Q148.807,70.608 148.227,70.817 Q147.647,71.026 147.067,71.165 Q146.487,71.304 146.054,71.428 Q145.868,71.474 145.698,71.444 Q145.93,71.939 146.386,72.256 Q146.842,72.573 147.523,72.526 Q148.065,72.495 148.614,72.225 Q149.163,71.954 149.612,71.691 z M146.595,68.396 Q146.023,68.69 145.744,69.224 Q145.466,69.757 145.466,70.345 Q145.574,70.268 145.698,70.221 Q145.976,70.144 146.262,70.059 Q146.549,69.974 146.842,69.897 Q147.028,69.85 147.345,69.757 Q147.662,69.665 148.003,69.541 Q148.343,69.417 148.621,69.255 Q148.9,69.092 148.993,68.891 Q149.024,68.381 148.745,68.195 Q148.467,68.009 148.08,68.009 Q147.693,68.009 147.276,68.141 Q146.858,68.272 146.595,68.396 z" fill="#000000"/>
    <path d="M155.505,69.154 Q155.505,69.108 155.521,69.092 Q155.505,69.046 155.505,68.968 L155.505,68.798 Q155.32,68.319 154.918,68.102 Q154.515,67.886 154.036,67.87 Q153.696,67.978 153.386,68.195 L153.061,68.613 Q153.015,68.674 152.968,68.713 Q152.922,68.752 152.876,68.783 L152.876,73.037 Q152.86,73.393 152.667,73.571 Q152.473,73.749 152.241,73.749 Q152.025,73.749 151.839,73.586 Q151.654,73.424 151.607,73.083 L151.607,67.097 Q151.684,66.787 151.855,66.64 Q152.025,66.493 152.241,66.493 Q152.427,66.493 152.605,66.625 Q152.783,66.756 152.86,67.035 Q153.108,66.865 153.456,66.718 Q153.804,66.571 154.191,66.571 Q154.747,66.571 155.328,66.857 Q155.908,67.143 156.263,67.576 Q156.434,67.406 156.627,67.228 Q156.82,67.05 157.037,66.903 Q157.254,66.756 157.486,66.656 Q157.718,66.555 157.95,66.555 Q158.429,66.555 158.893,66.718 Q159.357,66.88 159.721,67.166 Q160.084,67.452 160.309,67.831 Q160.533,68.21 160.533,68.628 Q160.533,68.659 160.525,68.674 Q160.518,68.69 160.518,68.721 Q160.533,68.736 160.533,68.752 Q160.533,68.767 160.549,68.783 L160.549,72.975 Q160.533,73.331 160.34,73.509 Q160.146,73.687 159.914,73.687 Q159.698,73.687 159.512,73.524 Q159.326,73.362 159.28,73.021 L159.28,68.783 Q159.11,68.241 158.754,68.048 Q158.398,67.855 158.042,67.855 Q157.64,67.855 157.315,68.056 Q156.991,68.257 156.774,68.798 L156.774,72.96 Q156.758,73.315 156.565,73.493 Q156.372,73.671 156.14,73.671 Q155.923,73.671 155.737,73.509 Q155.552,73.346 155.505,73.006 z" fill="#000000"/>
    <path d="M162.173,67.251 Q162.25,66.942 162.42,66.787 Q162.591,66.632 162.807,66.632 Q163.008,66.632 163.186,66.772 Q163.364,66.911 163.441,67.205 L163.441,67.344 Q163.797,67.035 164.254,66.888 Q164.71,66.741 165.143,66.741 Q165.746,66.741 166.265,67.004 Q166.783,67.267 167.17,67.715 Q167.556,68.164 167.773,68.76 Q167.989,69.355 167.989,70.036 Q167.989,70.778 167.75,71.397 Q167.51,72.016 167.046,72.465 Q166.582,72.913 165.893,73.168 Q165.205,73.424 164.292,73.424 Q164.076,73.424 163.867,73.408 Q163.658,73.393 163.441,73.362 L163.441,76.626 Q163.426,76.982 163.233,77.16 Q163.039,77.337 162.807,77.337 Q162.591,77.337 162.405,77.175 Q162.219,77.013 162.173,76.672 z M163.596,68.999 Q163.565,69.046 163.519,69.084 Q163.472,69.123 163.441,69.154 L163.441,72.078 Q163.658,72.124 163.867,72.155 Q164.076,72.186 164.292,72.186 Q164.818,72.186 165.267,72.047 Q165.715,71.908 166.048,71.645 Q166.381,71.382 166.566,70.995 Q166.752,70.608 166.752,70.113 Q166.752,69.742 166.636,69.363 Q166.52,68.984 166.311,68.674 Q166.102,68.365 165.824,68.172 Q165.545,67.978 165.205,67.978 Q164.942,67.978 164.71,68.071 Q164.478,68.164 164.277,68.311 Q164.076,68.458 163.905,68.636 Q163.735,68.814 163.596,68.999 z" fill="#000000"/>
    <path d="M169.072,72.372 Q168.933,72.093 168.979,71.869 Q169.026,71.645 169.173,71.513 Q169.32,71.382 169.552,71.382 Q169.784,71.382 170.031,71.552 Q170.387,72 170.874,72.248 Q171.362,72.495 171.919,72.542 L172.244,72.449 Q172.367,72.356 172.414,72.325 Q172.46,72.294 172.483,72.271 Q172.507,72.248 172.545,72.202 Q172.584,72.155 172.677,72.031 Q172.708,71.97 172.723,71.908 Q172.739,71.846 172.77,71.768 Q172.77,71.691 172.777,71.629 Q172.785,71.567 172.785,71.49 L172.692,71.211 Q172.646,71.15 172.592,71.088 Q172.537,71.026 172.491,70.964 Q172.104,70.716 171.718,70.608 Q171.331,70.5 170.967,70.384 Q170.604,70.268 170.256,70.082 Q169.908,69.897 169.598,69.479 Q169.304,69.108 169.281,68.62 Q169.258,68.133 169.436,67.684 Q169.614,67.236 169.962,66.888 Q170.31,66.54 170.758,66.447 Q171.408,66.292 172.081,66.416 Q172.754,66.54 173.342,66.849 Q173.62,67.05 173.667,67.305 Q173.713,67.561 173.597,67.746 Q173.481,67.932 173.241,68.009 Q173.002,68.087 172.692,67.932 Q172.321,67.731 171.911,67.669 Q171.501,67.607 171.083,67.669 Q171.037,67.7 170.983,67.715 Q170.929,67.731 170.882,67.762 Q170.712,67.947 170.635,68.125 Q170.557,68.303 170.573,68.566 Q170.588,68.628 170.65,68.752 Q170.697,68.814 170.743,68.86 Q170.789,68.907 170.836,68.968 Q171.207,69.17 171.648,69.286 Q172.089,69.402 172.507,69.549 Q172.924,69.695 173.28,69.935 Q173.636,70.175 173.837,70.639 Q174.208,71.521 173.953,72.263 Q173.698,73.006 172.924,73.516 Q172.723,73.64 172.476,73.725 Q172.228,73.81 172.012,73.81 Q171.176,73.81 170.372,73.431 Q169.567,73.052 169.072,72.372 z" fill="#000000"/>
    <path d="M186.321,72.403 Q186.522,72.681 186.483,72.936 Q186.445,73.192 186.282,73.339 Q186.12,73.486 185.865,73.478 Q185.609,73.47 185.362,73.223 Q185.284,73.145 185.223,73.06 Q185.161,72.975 185.13,72.898 Q184.666,73.3 184.055,73.524 Q183.444,73.749 182.817,73.749 Q182.191,73.749 181.618,73.493 Q181.046,73.238 180.659,72.697 Q180.365,72.279 180.234,71.761 Q180.102,71.242 180.102,70.709 Q180.102,70.175 180.234,69.657 Q180.365,69.139 180.566,68.69 Q180.752,68.288 181.1,67.963 Q181.448,67.638 181.835,67.437 Q182.191,67.236 182.631,67.104 Q183.072,66.973 183.475,66.957 Q183.846,66.957 184.217,66.973 Q184.588,66.988 184.944,67.097 Q184.929,65.983 184.921,65.217 Q184.913,64.451 184.913,64.188 Q184.975,63.894 185.153,63.74 Q185.331,63.585 185.524,63.577 Q185.718,63.57 185.903,63.709 Q186.089,63.848 186.182,64.142 L186.182,72.232 Q186.213,72.279 186.251,72.318 Q186.29,72.356 186.321,72.403 z M184.96,71.289 L184.96,71.072 Q184.96,70.5 184.96,69.811 Q184.96,69.123 184.944,68.504 L184.851,68.458 Q184.805,68.427 184.766,68.396 Q184.728,68.365 184.681,68.334 Q184.217,68.195 183.707,68.21 Q183.196,68.226 182.747,68.404 Q182.299,68.582 181.951,68.922 Q181.603,69.262 181.463,69.788 Q181.34,70.268 181.371,70.624 Q181.402,70.979 181.463,71.459 Q181.525,71.583 181.579,71.707 Q181.634,71.83 181.696,71.954 L182.005,72.263 Q182.191,72.325 182.361,72.418 Q182.979,72.48 183.498,72.356 Q184.016,72.232 184.496,71.815 Q184.511,71.784 184.565,71.73 Q184.619,71.676 184.681,71.614 Q184.743,71.552 184.797,71.498 Q184.851,71.444 184.867,71.428 z" fill="#000000"/>
    <path d="M193.267,71.691 Q193.592,71.567 193.824,71.66 Q194.056,71.753 194.156,71.954 Q194.257,72.155 194.187,72.403 Q194.118,72.65 193.824,72.82 Q193.313,73.114 192.725,73.362 Q192.137,73.609 191.534,73.702 Q190.931,73.795 190.343,73.694 Q189.755,73.594 189.214,73.223 Q188.564,72.774 188.224,72.008 Q187.883,71.242 187.868,70.415 Q187.852,69.587 188.17,68.821 Q188.487,68.056 189.167,67.592 Q189.879,67.112 190.714,66.872 Q191.55,66.632 192.4,66.818 Q192.818,66.911 193.158,67.213 Q193.499,67.514 193.708,67.909 Q193.917,68.303 193.932,68.744 Q193.947,69.185 193.715,69.572 Q193.452,70.005 192.957,70.307 Q192.462,70.608 191.882,70.817 Q191.302,71.026 190.722,71.165 Q190.142,71.304 189.709,71.428 Q189.523,71.474 189.353,71.444 Q189.585,71.939 190.041,72.256 Q190.498,72.573 191.178,72.526 Q191.72,72.495 192.269,72.225 Q192.818,71.954 193.267,71.691 z M190.25,68.396 Q189.678,68.69 189.399,69.224 Q189.121,69.757 189.121,70.345 Q189.229,70.268 189.353,70.221 Q189.631,70.144 189.918,70.059 Q190.204,69.974 190.498,69.897 Q190.683,69.85 191,69.757 Q191.318,69.665 191.658,69.541 Q191.998,69.417 192.277,69.255 Q192.555,69.092 192.648,68.891 Q192.679,68.381 192.4,68.195 Q192.122,68.009 191.735,68.009 Q191.349,68.009 190.931,68.141 Q190.513,68.272 190.25,68.396 z" fill="#000000"/>
    <path d="M148.892,85.251 Q148.969,84.942 149.14,84.787 Q149.31,84.632 149.526,84.632 Q149.727,84.632 149.905,84.772 Q150.083,84.911 150.161,85.205 L150.161,85.344 Q150.516,85.035 150.973,84.888 Q151.429,84.741 151.862,84.741 Q152.466,84.741 152.984,85.004 Q153.502,85.267 153.889,85.715 Q154.276,86.164 154.492,86.76 Q154.709,87.355 154.709,88.036 Q154.709,88.778 154.469,89.397 Q154.229,90.016 153.765,90.465 Q153.301,90.913 152.613,91.168 Q151.924,91.424 151.011,91.424 Q150.795,91.424 150.586,91.408 Q150.377,91.393 150.161,91.362 L150.161,94.626 Q150.145,94.982 149.952,95.16 Q149.758,95.337 149.526,95.337 Q149.31,95.337 149.124,95.175 Q148.939,95.013 148.892,94.672 z M150.315,86.999 Q150.284,87.046 150.238,87.084 Q150.192,87.123 150.161,87.154 L150.161,90.078 Q150.377,90.124 150.586,90.155 Q150.795,90.186 151.011,90.186 Q151.537,90.186 151.986,90.047 Q152.435,89.908 152.767,89.645 Q153.1,89.382 153.285,88.995 Q153.471,88.608 153.471,88.113 Q153.471,87.742 153.355,87.363 Q153.239,86.984 153.03,86.674 Q152.821,86.365 152.543,86.172 Q152.264,85.978 151.924,85.978 Q151.661,85.978 151.429,86.071 Q151.197,86.164 150.996,86.311 Q150.795,86.458 150.625,86.636 Q150.455,86.814 150.315,86.999 z" fill="#000000"/>
    <path d="M162.304,90.836 Q162.304,90.851 162.289,90.851 Q162.382,91.068 162.335,91.253 Q162.289,91.439 162.157,91.555 Q162.026,91.671 161.817,91.702 Q161.608,91.733 161.361,91.609 Q161.221,91.47 161.098,91.308 Q160.974,91.145 160.881,90.975 Q160.572,91.238 160.216,91.462 Q159.86,91.687 159.504,91.702 Q158.885,91.733 158.282,91.718 Q157.679,91.702 157.137,91.315 Q156.689,90.991 156.449,90.542 Q156.209,90.093 156.14,89.59 Q156.07,89.088 156.147,88.562 Q156.225,88.036 156.41,87.556 Q156.488,87.34 156.611,87.139 Q156.735,86.937 156.859,86.721 Q157.029,86.411 157.246,86.141 Q157.462,85.87 157.741,85.669 Q157.942,85.53 158.135,85.391 Q158.329,85.251 158.53,85.128 Q158.669,85.035 158.955,84.934 Q159.241,84.834 159.574,84.764 Q159.906,84.694 160.239,84.694 Q160.572,84.694 160.804,84.787 Q161.02,84.756 161.229,84.895 Q161.438,85.035 161.546,85.344 Q161.546,86.396 161.531,87.463 Q161.515,88.531 161.67,89.583 Q161.685,89.722 161.786,89.915 Q161.887,90.109 162.003,90.294 Q162.119,90.48 162.211,90.635 Q162.304,90.789 162.304,90.836 z M160.34,89.768 Q160.371,89.753 160.386,89.737 Q160.402,89.722 160.432,89.707 Q160.231,88.778 160.239,87.781 Q160.247,86.783 160.262,85.947 Q160.123,85.947 159.953,85.978 Q159.783,86.009 159.62,86.063 Q159.458,86.118 159.326,86.164 Q159.195,86.21 159.133,86.241 Q158.669,86.458 158.344,86.806 Q158.019,87.154 157.81,87.579 Q157.602,88.005 157.493,88.477 Q157.385,88.949 157.385,89.428 Q157.416,89.552 157.462,89.676 Q157.509,89.799 157.54,89.923 Q157.617,90 157.702,90.093 Q157.787,90.186 157.88,90.263 Q158.019,90.325 158.158,90.372 Q158.298,90.418 158.437,90.465 Q158.7,90.465 158.947,90.48 Q159.195,90.495 159.442,90.418 Q159.674,90.263 159.899,90.109 Q160.123,89.954 160.34,89.768 z" fill="#000000"/>
    <path d="M169.761,90.434 Q169.931,90.65 169.931,90.913 Q169.931,91.176 169.761,91.339 Q169.59,91.501 169.343,91.501 Q169.003,91.501 168.755,91.184 Q168.508,90.867 168.337,90.465 Q167.935,90.898 167.394,91.199 Q166.852,91.501 166.28,91.501 Q165.862,91.501 165.476,91.354 Q165.089,91.207 164.756,90.952 Q164.424,90.697 164.168,90.356 Q163.913,90.016 163.789,89.645 Q163.666,89.242 163.619,88.755 Q163.573,88.268 163.573,87.742 Q163.573,87.108 163.604,86.504 Q163.635,85.901 163.635,85.437 Q163.712,85.128 163.882,84.973 Q164.052,84.818 164.269,84.818 Q164.47,84.818 164.648,84.957 Q164.826,85.097 164.903,85.391 Q164.903,86.118 164.88,86.791 Q164.857,87.463 164.857,88.221 Q164.857,89.088 165.228,89.645 Q165.599,90.202 166.234,90.202 Q166.466,90.202 166.698,90.109 Q166.93,90.016 167.131,89.861 Q167.332,89.707 167.502,89.505 Q167.672,89.304 167.811,89.103 Q167.842,89.072 167.889,89.049 Q167.935,89.026 167.966,88.995 Q167.873,88.221 167.873,87.432 Q167.873,86.984 167.881,86.528 Q167.889,86.071 167.958,85.692 Q168.028,85.313 168.19,85.073 Q168.353,84.834 168.647,84.834 Q168.879,84.834 169.064,85.011 Q169.25,85.189 169.25,85.53 Q169.25,85.886 169.196,86.396 Q169.142,86.907 169.142,87.463 Q169.142,87.897 169.173,88.33 Q169.204,88.763 169.273,89.157 Q169.343,89.552 169.459,89.877 Q169.575,90.202 169.761,90.434 z" fill="#000000"/>
    <path d="M171.091,90.372 Q170.952,90.093 170.998,89.869 Q171.045,89.645 171.192,89.513 Q171.339,89.382 171.571,89.382 Q171.803,89.382 172.05,89.552 Q172.406,90 172.893,90.248 Q173.381,90.495 173.937,90.542 L174.262,90.449 Q174.386,90.356 174.432,90.325 Q174.479,90.294 174.502,90.271 Q174.525,90.248 174.564,90.202 Q174.603,90.155 174.695,90.031 Q174.726,89.97 174.742,89.908 Q174.757,89.846 174.788,89.768 Q174.788,89.691 174.796,89.629 Q174.804,89.567 174.804,89.49 L174.711,89.211 Q174.664,89.15 174.61,89.088 Q174.556,89.026 174.51,88.964 Q174.123,88.716 173.736,88.608 Q173.35,88.5 172.986,88.384 Q172.622,88.268 172.274,88.082 Q171.926,87.897 171.617,87.479 Q171.323,87.108 171.3,86.62 Q171.277,86.133 171.455,85.684 Q171.632,85.236 171.981,84.888 Q172.329,84.54 172.777,84.447 Q173.427,84.292 174.1,84.416 Q174.773,84.54 175.361,84.849 Q175.639,85.05 175.685,85.305 Q175.732,85.561 175.616,85.746 Q175.5,85.932 175.26,86.009 Q175.02,86.087 174.711,85.932 Q174.34,85.731 173.93,85.669 Q173.52,85.607 173.102,85.669 Q173.056,85.7 173.002,85.715 Q172.947,85.731 172.901,85.762 Q172.731,85.947 172.653,86.125 Q172.576,86.303 172.592,86.566 Q172.607,86.628 172.669,86.752 Q172.715,86.814 172.762,86.86 Q172.808,86.907 172.855,86.968 Q173.226,87.17 173.667,87.286 Q174.108,87.402 174.525,87.549 Q174.943,87.695 175.299,87.935 Q175.655,88.175 175.856,88.639 Q176.227,89.521 175.972,90.263 Q175.716,91.006 174.943,91.516 Q174.742,91.64 174.494,91.725 Q174.247,91.81 174.03,91.81 Q173.195,91.81 172.39,91.431 Q171.586,91.052 171.091,90.372 z" fill="#000000"/>
    <path d="M182.74,89.691 Q183.064,89.567 183.297,89.66 Q183.529,89.753 183.629,89.954 Q183.73,90.155 183.66,90.403 Q183.59,90.65 183.297,90.82 Q182.786,91.114 182.198,91.362 Q181.61,91.609 181.007,91.702 Q180.404,91.795 179.816,91.694 Q179.228,91.594 178.687,91.223 Q178.037,90.774 177.697,90.008 Q177.356,89.242 177.341,88.415 Q177.325,87.587 177.642,86.821 Q177.96,86.056 178.64,85.592 Q179.352,85.112 180.187,84.872 Q181.022,84.632 181.873,84.818 Q182.291,84.911 182.631,85.213 Q182.972,85.514 183.181,85.909 Q183.389,86.303 183.405,86.744 Q183.42,87.185 183.188,87.572 Q182.925,88.005 182.43,88.307 Q181.935,88.608 181.355,88.817 Q180.775,89.026 180.195,89.165 Q179.615,89.304 179.182,89.428 Q178.996,89.474 178.826,89.444 Q179.058,89.939 179.514,90.256 Q179.971,90.573 180.651,90.526 Q181.193,90.495 181.742,90.225 Q182.291,89.954 182.74,89.691 z M179.723,86.396 Q179.151,86.69 178.872,87.224 Q178.594,87.757 178.594,88.345 Q178.702,88.268 178.826,88.221 Q179.104,88.144 179.39,88.059 Q179.677,87.974 179.971,87.897 Q180.156,87.85 180.473,87.757 Q180.79,87.665 181.131,87.541 Q181.471,87.417 181.75,87.255 Q182.028,87.092 182.121,86.891 Q182.152,86.381 181.873,86.195 Q181.595,86.009 181.208,86.009 Q180.821,86.009 180.404,86.141 Q179.986,86.272 179.723,86.396 z" fill="#000000"/>
    <path d="M263.587,0 L431.465,0 C442.061,0 450.651,10.405 450.651,23.24 L450.651,181.076 C450.651,193.911 442.061,204.316 431.465,204.316 L263.587,204.316 C252.99,204.316 244.4,193.911 244.4,181.076 L244.4,23.24 C244.4,10.405 252.99,0 263.587,0 z" fill="#FFF4B8" fill-opacity="0.5"/>
    <path d="M327.198,186.422 Q327.051,186.695 326.547,186.758 Q326.505,186.758 325.644,186.8 Q325.791,187.745 326.736,189.152 Q327.282,189.551 327.282,190.202 Q327.282,191.231 326.022,191.231 Q324.825,191.231 324.384,190.622 Q324.237,190.412 324.195,190.055 Q324.195,189.824 324.174,189.572 Q323.985,189.383 323.04,187.136 Q321.318,187.388 318.798,187.85 Q318.546,188.459 318.252,189.614 Q318.294,189.824 318.294,190.013 Q318.294,190.58 317.916,190.885 Q317.538,191.189 317.013,191.189 Q316.425,191.189 315.921,190.748 Q315.417,190.307 315.417,189.719 Q315.417,189.194 315.9,188.774 Q317.475,180.773 319.722,175.544 Q319.68,175.292 319.68,175.04 Q319.68,173.99 320.394,173.654 Q320.688,173.528 321.15,173.528 Q322.032,173.528 322.62,173.801 Q323.376,174.179 323.376,174.935 Q323.376,175.628 322.998,176.174 Q323.397,179.744 324.72,184.406 Q324.846,184.385 325.581,184.196 Q326.022,184.07 326.253,184.07 Q326.526,184.07 326.694,184.196 Q327.429,184.763 327.429,185.582 Q327.429,186.023 327.198,186.422 z M322.158,184.826 Q321.801,183.503 321.024,179.744 Q319.533,182.999 319.26,185.33 z" fill="#000000"/>
    <path d="M336.858,179.996 Q336.774,180.437 336.06,180.605 Q335.22,180.815 334.989,181.088 L331.566,185.036 L331.566,188.228 Q331.566,188.69 331.829,189.162 Q332.091,189.635 332.091,189.887 Q332.091,190.139 331.944,190.454 Q331.587,191.252 330.495,191.252 Q329.739,191.252 329.298,190.769 Q329.004,190.454 329.004,189.971 Q329.004,189.803 329.046,189.425 Q329.088,189.047 329.088,188.816 L329.088,180.962 Q329.088,180.773 328.92,180.5 Q328.752,180.227 328.752,180.059 Q328.752,179.933 328.836,179.765 Q329.109,179.261 330.537,179.261 Q331.65,179.261 331.797,179.786 Q331.86,179.996 331.86,180.143 Q331.86,180.374 331.692,180.5 Q331.524,180.626 331.524,180.752 L331.566,181.508 L333.372,179.597 Q333.687,179.24 334.034,178.883 Q334.38,178.526 334.842,178.484 Q335.556,178.421 336.217,178.799 Q336.879,179.177 336.879,179.786 Q336.879,179.891 336.858,179.996 z" fill="#000000"/>
    <path d="M344.586,190.58 Q344.334,191.147 343.032,191.147 Q342.213,191.147 341.94,190.811 Q341.835,190.706 341.835,190.517 Q341.835,190.37 341.94,190.055 Q342.045,189.74 342.066,189.572 Q341.1,190.937 339.798,190.937 Q338.055,190.937 337.257,188.963 Q336.648,187.451 336.648,185.036 Q336.648,182.81 337.593,180.983 Q338.643,178.988 340.176,178.988 Q341.037,178.988 341.94,180.374 L341.94,177.665 Q341.94,177.329 341.667,176.804 Q341.394,176.279 341.394,176.006 Q341.394,175.796 341.499,175.586 Q341.94,174.641 343.221,174.641 Q344.271,174.641 344.523,175.397 Q344.607,175.649 344.607,175.88 Q344.607,176.111 344.47,176.499 Q344.334,176.888 344.334,177.161 L344.334,189.131 Q344.334,189.362 344.502,189.688 Q344.67,190.013 344.67,190.223 Q344.67,190.391 344.586,190.58 z M341.688,185.036 Q341.688,184.07 341.289,182.768 Q340.848,181.382 340.428,181.382 Q339.945,181.382 339.651,182.663 Q339.42,183.713 339.42,185.036 Q339.42,185.267 339.399,185.792 Q339.399,186.296 339.399,186.569 Q339.399,188.942 340.428,188.942 Q340.911,188.942 341.31,187.577 Q341.688,186.317 341.688,185.036 z" fill="#000000"/>
    <path d="M354.057,180.458 Q354.099,180.773 353.931,181.13 Q353.721,181.613 353.679,181.844 Q353.679,186.212 353.322,187.913 Q352.545,191.483 350.025,191.483 Q346.35,191.483 346.35,184.784 Q346.35,182.978 346.623,180.962 Q346.476,180.479 346.476,180.101 Q346.476,179.492 346.875,179.072 Q347.211,178.715 347.862,178.715 Q348.387,178.715 348.849,178.936 Q349.311,179.156 349.395,179.45 Q349.437,179.597 349.437,179.744 Q349.437,180.017 349.206,180.615 Q348.975,181.214 349.017,181.592 Q348.807,182.768 348.807,184.553 Q348.807,186.359 349.038,187.556 Q349.332,188.942 349.857,188.942 Q350.739,188.942 351.012,185.96 Q351.159,184.469 351.159,181.214 Q351.159,181.004 351.096,180.605 Q351.033,180.206 351.033,180.017 Q351.033,179.513 351.411,179.324 Q351.621,179.219 351.999,179.219 Q352.692,179.219 353.28,179.513 Q353.973,179.87 354.057,180.458 z" fill="#000000"/>
    <path d="M358.95,174.956 Q359.013,175.019 359.013,175.166 Q359.013,175.355 358.887,175.817 Q358.74,176.384 358.698,176.594 Q358.656,176.804 358.74,177.518 Q358.74,177.959 358.478,178.096 Q358.215,178.232 357.816,178.232 Q357.249,178.232 356.661,178.001 Q355.947,177.707 355.947,177.224 Q355.947,177.077 356.073,176.814 Q356.199,176.552 356.22,176.384 Q356.262,176.216 356.22,175.544 Q356.178,175.019 356.43,174.83 Q356.766,174.578 357.627,174.578 Q358.572,174.578 358.95,174.956 z M359.223,180.08 Q359.223,180.374 358.897,180.993 Q358.572,181.613 358.572,182.012 L358.572,188.186 Q358.572,188.606 358.803,189.372 Q359.034,190.139 359.034,190.433 Q359.034,190.853 358.698,191.063 Q358.173,191.399 357.564,191.399 Q356.766,191.399 356.43,190.853 Q355.989,190.181 355.989,186.842 Q355.989,186.044 356.021,184.354 Q356.052,182.663 356.052,181.886 Q356.052,181.592 355.989,181.12 Q355.926,180.647 355.926,180.437 Q355.926,179.744 356.43,179.24 Q356.64,179.03 357.207,179.03 Q357.774,179.03 358.341,179.209 Q358.908,179.387 359.066,179.618 Q359.223,179.849 359.223,180.08 z" fill="#000000"/>
    <path d="M370.584,189.362 Q370.542,189.824 369.975,190.15 Q369.408,190.475 368.715,190.475 Q367.686,190.475 367.308,189.824 Q367.476,183.356 366.93,183.272 Q366.405,183.188 364.368,189.068 Q364.368,189.698 364.368,190.328 Q364.347,191.084 363.958,191.399 Q363.57,191.714 363.129,191.714 Q362.373,191.714 361.512,190.895 Q361.26,190.685 361.239,187.703 Q361.26,189.53 361.26,180.92 Q361.26,180.731 361.218,180.406 Q361.176,180.08 361.176,179.933 Q361.176,179.534 361.386,179.24 Q361.638,178.862 362.184,178.862 Q362.751,178.862 363.37,179.209 Q363.99,179.555 364.116,179.87 Q364.2,180.08 364.2,180.29 Q364.2,180.5 364.032,180.878 Q363.864,181.256 363.864,181.508 L363.864,184.406 Q365.187,181.592 365.859,180.689 Q367.056,179.135 368.568,179.24 Q369.471,179.303 369.849,180.92 Q370.143,182.138 370.164,184.532 Q370.164,186.422 370.164,188.312 Q370.206,188.459 370.458,188.837 Q370.605,189.047 370.584,189.362 z" fill="#000000"/>
    <path d="M378.522,179.87 Q379.929,181.298 379.929,184.679 Q379.929,187.304 378.942,189.152 Q377.829,191.231 375.876,191.231 Q373.944,191.231 372.894,189.362 Q371.97,187.724 371.97,185.204 Q371.97,182.978 372.684,181.214 Q373.44,179.324 374.616,178.988 Q375.225,178.82 375.876,178.82 Q377.493,178.82 378.522,179.87 z M376.128,180.878 Q375.435,180.815 374.931,182.18 Q374.49,183.419 374.49,184.784 Q374.49,186.758 374.658,187.577 Q374.952,189.047 375.876,189.194 Q376.464,189.278 376.968,187.577 Q377.451,185.939 377.451,184.07 Q377.451,181.004 376.128,180.878 z" fill="#000000"/>
    <path d="M328.172,13.89 Q326.883,16.224 326.258,18.412 Q325.633,20.599 325.633,22.787 Q325.633,24.955 326.258,27.157 Q326.883,29.359 328.172,31.703 L325.946,31.703 Q324.393,29.447 323.641,27.254 Q322.889,25.062 322.889,22.787 Q322.889,20.521 323.646,18.319 Q324.403,16.117 325.946,13.89 z" fill="#000000"/>
    <path d="M416.515,13.89 L418.741,13.89 Q420.284,16.117 421.041,18.319 Q421.798,20.521 421.798,22.787 Q421.798,25.062 421.046,27.254 Q420.294,29.447 418.741,31.703 L416.515,31.703 Q417.804,29.359 418.429,27.157 Q419.054,24.955 419.054,22.787 Q419.054,20.599 418.429,18.412 Q417.804,16.224 416.515,13.89 z" fill="#000000"/>
    <path d="M429.923,25.482 L433.175,25.482 L433.175,28.128 L431.261,31.869 L429.161,31.869 L429.923,28.128 z M429.923,18.685 L433.175,18.685 L433.175,22.25 L429.923,22.25 z" fill="#000000"/>
    <path d="M260.875,19.681 L260.875,13.871 L263.726,13.871 L263.726,29.066 L260.875,29.066 L260.875,27.445 Q260.416,28.392 259.688,28.871 Q258.961,29.349 257.974,29.349 Q256.099,29.349 255.064,27.845 Q254.029,26.341 254.029,23.607 Q254.029,20.834 255.079,19.349 Q256.129,17.865 258.072,17.865 Q258.951,17.865 259.649,18.319 Q260.347,18.773 260.875,19.681 z M256.89,23.627 Q256.89,25.209 257.418,26.107 Q257.945,27.005 258.873,27.005 Q259.8,27.005 260.337,26.107 Q260.875,25.209 260.875,23.627 Q260.875,22.045 260.337,21.146 Q259.8,20.248 258.873,20.248 Q257.945,20.248 257.418,21.146 Q256.89,22.045 256.89,23.627 z" fill="#000000"/>
    <path d="M275.953,28.529 Q274.957,28.939 273.921,29.144 Q272.886,29.349 271.734,29.349 Q268.99,29.349 267.54,27.879 Q266.089,26.41 266.089,23.646 Q266.089,20.97 267.486,19.418 Q268.882,17.865 271.295,17.865 Q273.726,17.865 275.069,19.305 Q276.412,20.746 276.412,23.363 L276.412,24.525 L269,24.525 Q269.009,25.814 269.761,26.449 Q270.513,27.084 272.007,27.084 Q272.994,27.084 273.951,26.8 Q274.908,26.517 275.953,25.902 z M273.531,22.377 Q273.511,21.244 272.95,20.663 Q272.388,20.082 271.295,20.082 Q270.308,20.082 269.722,20.682 Q269.136,21.283 269.029,22.386 z" fill="#000000"/>
    <path d="M281.011,24.505 L281.011,16.068 L278.111,16.068 L278.111,13.871 L283.873,13.871 L283.873,24.505 Q283.873,25.795 284.273,26.332 Q284.673,26.869 285.63,26.869 L287.916,26.869 L287.916,29.066 L284.83,29.066 Q282.789,29.066 281.9,28.011 Q281.011,26.957 281.011,24.505 z" fill="#000000"/>
    <path d="M296.109,23.929 Q294.507,23.929 293.873,24.339 Q293.238,24.75 293.238,25.746 Q293.238,26.488 293.677,26.927 Q294.117,27.367 294.869,27.367 Q296.002,27.367 296.627,26.512 Q297.252,25.658 297.252,24.125 L297.252,23.929 z M300.093,22.826 L300.093,29.066 L297.252,29.066 L297.252,27.845 Q296.734,28.568 295.923,28.959 Q295.113,29.349 294.136,29.349 Q292.271,29.349 291.231,28.363 Q290.191,27.377 290.191,25.609 Q290.191,23.695 291.431,22.782 Q292.671,21.869 295.269,21.869 L297.252,21.869 L297.252,21.39 Q297.252,20.697 296.749,20.34 Q296.246,19.984 295.269,19.984 Q294.244,19.984 293.282,20.243 Q292.32,20.502 291.275,21.068 L291.275,18.627 Q292.222,18.236 293.199,18.05 Q294.175,17.865 295.269,17.865 Q297.935,17.865 299.014,18.949 Q300.093,20.033 300.093,22.826 z" fill="#000000"/>
    <path d="M308.257,30.248 Q307.681,31.791 306.876,32.499 Q306.07,33.207 304.918,33.207 L302.554,33.207 L302.554,31.029 L303.716,31.029 Q304.595,31.029 305.005,30.731 Q305.416,30.433 305.836,29.349 L306.05,28.763 L301.89,18.128 L304.898,18.128 L307.398,25.228 L309.791,18.128 L312.798,18.128 z" fill="#000000"/>
    <path d="M31.153,16.123 L29.795,22.089 L32.52,22.089 z M29.395,13.486 L32.92,13.486 L36.856,28.066 L33.975,28.066 L33.076,24.462 L29.219,24.462 L28.34,28.066 L25.459,28.066 z" fill="#000000"/>
    <path d="M43.916,14.023 L43.916,17.128 L47.657,17.128 L47.657,19.326 L43.916,19.326 L43.916,24.502 Q43.916,25.234 44.273,25.551 Q44.629,25.869 45.459,25.869 L47.657,25.869 L47.657,28.066 L45.254,28.066 Q42.793,28.066 41.924,27.28 Q41.055,26.494 41.055,24.365 L41.055,19.326 L38.262,19.326 L38.262,17.128 L41.055,17.128 L41.055,14.023 z" fill="#000000"/>
    <path d="M55.957,14.023 L55.957,17.128 L59.698,17.128 L59.698,19.326 L55.957,19.326 L55.957,24.502 Q55.957,25.234 56.314,25.551 Q56.67,25.869 57.5,25.869 L59.698,25.869 L59.698,28.066 L57.295,28.066 Q54.834,28.066 53.965,27.28 Q53.096,26.494 53.096,24.365 L53.096,19.326 L50.303,19.326 L50.303,17.128 L53.096,17.128 L53.096,14.023 z" fill="#000000"/>
    <path d="M72.022,27.529 Q71.026,27.939 69.991,28.144 Q68.955,28.349 67.803,28.349 Q65.059,28.349 63.609,26.879 Q62.158,25.41 62.158,22.646 Q62.158,19.97 63.555,18.418 Q64.951,16.865 67.364,16.865 Q69.795,16.865 71.138,18.305 Q72.481,19.746 72.481,22.363 L72.481,23.525 L65.069,23.525 Q65.078,24.814 65.83,25.449 Q66.582,26.084 68.076,26.084 Q69.063,26.084 70.02,25.8 Q70.977,25.517 72.022,24.902 z M69.6,21.377 Q69.58,20.244 69.019,19.663 Q68.457,19.082 67.364,19.082 Q66.377,19.082 65.791,19.682 Q65.205,20.283 65.098,21.386 z" fill="#000000"/>
    <path d="M83.76,20.966 L83.76,28.066 L80.918,28.066 L80.918,21.406 Q80.918,20.214 80.581,19.702 Q80.244,19.189 79.483,19.189 Q78.711,19.189 78.267,19.882 Q77.823,20.576 77.823,21.806 L77.823,28.066 L74.981,28.066 L74.981,17.128 L77.823,17.128 L77.823,18.769 Q78.125,17.861 78.858,17.363 Q79.59,16.865 80.625,16.865 Q82.178,16.865 82.969,17.895 Q83.76,18.925 83.76,20.966 z" fill="#000000"/>
    <path d="M93.067,18.681 L93.067,12.871 L95.918,12.871 L95.918,28.066 L93.067,28.066 L93.067,26.445 Q92.608,27.392 91.88,27.871 Q91.153,28.349 90.166,28.349 Q88.291,28.349 87.256,26.845 Q86.221,25.341 86.221,22.607 Q86.221,19.834 87.271,18.349 Q88.321,16.865 90.264,16.865 Q91.143,16.865 91.841,17.319 Q92.539,17.773 93.067,18.681 z M89.082,22.627 Q89.082,24.209 89.61,25.107 Q90.137,26.005 91.065,26.005 Q91.992,26.005 92.53,25.107 Q93.067,24.209 93.067,22.627 Q93.067,21.045 92.53,20.146 Q91.992,19.248 91.065,19.248 Q90.137,19.248 89.61,20.146 Q89.082,21.045 89.082,22.627 z" fill="#000000"/>
    <path d="M108.623,20.146 Q108.155,19.716 107.525,19.502 Q106.895,19.287 106.143,19.287 Q105.235,19.287 104.556,19.604 Q103.877,19.921 103.506,20.527 Q103.272,20.898 103.179,21.425 Q103.086,21.953 103.086,23.027 L103.086,28.066 L100.225,28.066 L100.225,17.128 L103.086,17.128 L103.086,18.828 Q103.506,17.89 104.375,17.378 Q105.244,16.865 106.407,16.865 Q106.992,16.865 107.554,17.006 Q108.116,17.148 108.623,17.421 z" fill="#000000"/>
    <path d="M120.186,27.529 Q119.19,27.939 118.155,28.144 Q117.119,28.349 115.967,28.349 Q113.223,28.349 111.773,26.879 Q110.323,25.41 110.323,22.646 Q110.323,19.97 111.719,18.418 Q113.116,16.865 115.528,16.865 Q117.959,16.865 119.302,18.305 Q120.645,19.746 120.645,22.363 L120.645,23.525 L113.233,23.525 Q113.242,24.814 113.994,25.449 Q114.746,26.084 116.241,26.084 Q117.227,26.084 118.184,25.8 Q119.141,25.517 120.186,24.902 z M117.764,21.377 Q117.744,20.244 117.183,19.663 Q116.621,19.082 115.528,19.082 Q114.541,19.082 113.955,19.682 Q113.369,20.283 113.262,21.386 z" fill="#000000"/>
    <path d="M340.235,7.066 L406.699,7.066 C410.894,7.066 414.295,14.024 414.295,22.608 L414.295,128.164 C414.295,136.747 410.894,143.706 406.699,143.706 L340.235,143.706 C336.039,143.706 332.639,136.747 332.639,128.164 L332.639,22.608 C332.639,14.024 336.039,7.066 340.235,7.066 z" fill="#90D9F8" fill-opacity="0.46"/>
    <path d="M352.276,48.479 Q352.555,48.571 352.694,48.757 Q352.833,48.943 352.818,49.144 Q352.802,49.36 352.648,49.523 Q352.493,49.685 352.184,49.747 L349.77,49.763 L349.786,57.312 Q349.77,57.668 349.577,57.845 Q349.384,58.023 349.152,58.023 Q348.935,58.023 348.749,57.861 Q348.564,57.699 348.517,57.358 L348.502,49.763 L346.058,49.763 Q345.733,49.701 345.57,49.507 Q345.408,49.314 345.423,49.097 Q345.439,48.865 345.617,48.68 Q345.795,48.494 346.151,48.494 Q346.336,48.494 346.808,48.494 Q347.28,48.494 347.899,48.494 Q348.517,48.494 349.214,48.494 Q349.91,48.494 350.528,48.494 Q351.147,48.494 351.619,48.486 Q352.091,48.479 352.276,48.479 z" fill="#000000"/>
    <path d="M357.351,55.904 Q357.675,55.78 357.907,55.873 Q358.139,55.966 358.24,56.167 Q358.341,56.368 358.271,56.616 Q358.201,56.863 357.907,57.033 Q357.397,57.327 356.809,57.575 Q356.221,57.822 355.618,57.915 Q355.015,58.008 354.427,57.907 Q353.839,57.807 353.297,57.436 Q352.648,56.987 352.307,56.221 Q351.967,55.455 351.952,54.628 Q351.936,53.8 352.253,53.034 Q352.57,52.269 353.251,51.805 Q353.963,51.325 354.798,51.085 Q355.633,50.845 356.484,51.031 Q356.902,51.124 357.242,51.426 Q357.583,51.727 357.791,52.122 Q358,52.516 358.016,52.957 Q358.031,53.398 357.799,53.785 Q357.536,54.218 357.041,54.52 Q356.546,54.821 355.966,55.03 Q355.386,55.239 354.806,55.378 Q354.226,55.517 353.793,55.641 Q353.607,55.687 353.437,55.657 Q353.669,56.152 354.125,56.469 Q354.581,56.786 355.262,56.739 Q355.804,56.708 356.353,56.438 Q356.902,56.167 357.351,55.904 z M354.334,52.609 Q353.762,52.903 353.483,53.437 Q353.205,53.97 353.205,54.558 Q353.313,54.481 353.437,54.434 Q353.715,54.357 354.001,54.272 Q354.288,54.187 354.581,54.11 Q354.767,54.063 355.084,53.97 Q355.401,53.878 355.742,53.754 Q356.082,53.63 356.36,53.468 Q356.639,53.305 356.732,53.104 Q356.763,52.594 356.484,52.408 Q356.206,52.222 355.819,52.222 Q355.432,52.222 355.015,52.354 Q354.597,52.485 354.334,52.609 z" fill="#000000"/>
    <path d="M363.244,53.367 Q363.244,53.321 363.26,53.305 Q363.244,53.259 363.244,53.181 L363.244,53.011 Q363.059,52.532 362.657,52.315 Q362.254,52.099 361.775,52.083 Q361.434,52.191 361.125,52.408 L360.8,52.826 Q360.754,52.887 360.707,52.926 Q360.661,52.965 360.615,52.996 L360.615,57.25 Q360.599,57.606 360.406,57.784 Q360.212,57.962 359.98,57.962 Q359.764,57.962 359.578,57.799 Q359.393,57.637 359.346,57.296 L359.346,51.31 Q359.423,51 359.594,50.853 Q359.764,50.706 359.98,50.706 Q360.166,50.706 360.344,50.838 Q360.522,50.969 360.599,51.248 Q360.847,51.078 361.195,50.931 Q361.543,50.784 361.93,50.784 Q362.486,50.784 363.067,51.07 Q363.647,51.356 364.002,51.789 Q364.173,51.619 364.366,51.441 Q364.559,51.263 364.776,51.116 Q364.992,50.969 365.225,50.869 Q365.457,50.768 365.689,50.768 Q366.168,50.768 366.632,50.931 Q367.096,51.093 367.46,51.379 Q367.823,51.665 368.048,52.044 Q368.272,52.423 368.272,52.841 Q368.272,52.872 368.264,52.887 Q368.257,52.903 368.257,52.934 Q368.272,52.949 368.272,52.965 Q368.272,52.98 368.288,52.996 L368.288,57.188 Q368.272,57.544 368.079,57.722 Q367.885,57.9 367.653,57.9 Q367.437,57.9 367.251,57.737 Q367.065,57.575 367.019,57.234 L367.019,52.996 Q366.849,52.454 366.493,52.261 Q366.137,52.068 365.781,52.068 Q365.379,52.068 365.054,52.269 Q364.73,52.47 364.513,53.011 L364.513,57.173 Q364.497,57.528 364.304,57.706 Q364.111,57.884 363.879,57.884 Q363.662,57.884 363.476,57.722 Q363.291,57.559 363.244,57.219 z" fill="#000000"/>
    <path d="M369.912,51.464 Q369.989,51.155 370.159,51 Q370.33,50.845 370.546,50.845 Q370.747,50.845 370.925,50.985 Q371.103,51.124 371.18,51.418 L371.18,51.557 Q371.536,51.248 371.993,51.101 Q372.449,50.954 372.882,50.954 Q373.485,50.954 374.004,51.217 Q374.522,51.48 374.909,51.928 Q375.295,52.377 375.512,52.973 Q375.728,53.568 375.728,54.249 Q375.728,54.991 375.489,55.61 Q375.249,56.229 374.785,56.678 Q374.321,57.126 373.632,57.381 Q372.944,57.637 372.031,57.637 Q371.815,57.637 371.606,57.621 Q371.397,57.606 371.18,57.575 L371.18,60.839 Q371.165,61.195 370.972,61.373 Q370.778,61.55 370.546,61.55 Q370.33,61.55 370.144,61.388 Q369.958,61.226 369.912,60.885 z M371.335,53.212 Q371.304,53.259 371.258,53.297 Q371.211,53.336 371.18,53.367 L371.18,56.291 Q371.397,56.337 371.606,56.368 Q371.815,56.399 372.031,56.399 Q372.557,56.399 373.006,56.26 Q373.454,56.121 373.787,55.858 Q374.12,55.595 374.305,55.208 Q374.491,54.821 374.491,54.326 Q374.491,53.955 374.375,53.576 Q374.259,53.197 374.05,52.887 Q373.841,52.578 373.563,52.385 Q373.284,52.191 372.944,52.191 Q372.681,52.191 372.449,52.284 Q372.217,52.377 372.016,52.524 Q371.815,52.671 371.644,52.849 Q371.474,53.027 371.335,53.212 z" fill="#000000"/>
    <path d="M376.811,56.585 Q376.672,56.306 376.718,56.082 Q376.765,55.858 376.912,55.726 Q377.059,55.595 377.291,55.595 Q377.523,55.595 377.77,55.765 Q378.126,56.213 378.614,56.461 Q379.101,56.708 379.658,56.755 L379.983,56.662 Q380.106,56.569 380.153,56.538 Q380.199,56.507 380.222,56.484 Q380.246,56.461 380.284,56.415 Q380.323,56.368 380.416,56.244 Q380.447,56.183 380.462,56.121 Q380.478,56.059 380.509,55.981 Q380.509,55.904 380.516,55.842 Q380.524,55.78 380.524,55.703 L380.431,55.424 Q380.385,55.363 380.331,55.301 Q380.276,55.239 380.23,55.177 Q379.843,54.929 379.457,54.821 Q379.07,54.713 378.706,54.597 Q378.343,54.481 377.995,54.295 Q377.647,54.11 377.337,53.692 Q377.043,53.321 377.02,52.833 Q376.997,52.346 377.175,51.897 Q377.353,51.449 377.701,51.101 Q378.049,50.753 378.497,50.66 Q379.147,50.505 379.82,50.629 Q380.493,50.753 381.081,51.062 Q381.359,51.263 381.406,51.518 Q381.452,51.774 381.336,51.959 Q381.22,52.145 380.98,52.222 Q380.741,52.3 380.431,52.145 Q380.06,51.944 379.65,51.882 Q379.24,51.82 378.822,51.882 Q378.776,51.913 378.722,51.928 Q378.668,51.944 378.621,51.975 Q378.451,52.16 378.374,52.338 Q378.296,52.516 378.312,52.779 Q378.327,52.841 378.389,52.965 Q378.436,53.027 378.482,53.073 Q378.528,53.12 378.575,53.181 Q378.946,53.383 379.387,53.499 Q379.828,53.615 380.246,53.762 Q380.663,53.908 381.019,54.148 Q381.375,54.388 381.576,54.852 Q381.947,55.734 381.692,56.476 Q381.437,57.219 380.663,57.729 Q380.462,57.853 380.215,57.938 Q379.967,58.023 379.751,58.023 Q378.915,58.023 378.111,57.644 Q377.306,57.265 376.811,56.585 z" fill="#000000"/>
    <path d="M394.06,56.616 Q394.261,56.894 394.222,57.149 Q394.184,57.405 394.021,57.552 Q393.859,57.699 393.604,57.691 Q393.348,57.683 393.101,57.436 Q393.023,57.358 392.962,57.273 Q392.9,57.188 392.869,57.111 Q392.405,57.513 391.794,57.737 Q391.183,57.962 390.556,57.962 Q389.93,57.962 389.357,57.706 Q388.785,57.451 388.398,56.91 Q388.104,56.492 387.973,55.974 Q387.841,55.455 387.841,54.922 Q387.841,54.388 387.973,53.87 Q388.104,53.352 388.305,52.903 Q388.491,52.501 388.839,52.176 Q389.187,51.851 389.574,51.65 Q389.93,51.449 390.37,51.317 Q390.811,51.186 391.214,51.17 Q391.585,51.17 391.956,51.186 Q392.327,51.201 392.683,51.31 Q392.668,50.196 392.66,49.43 Q392.652,48.664 392.652,48.401 Q392.714,48.107 392.892,47.953 Q393.07,47.798 393.263,47.79 Q393.457,47.783 393.642,47.922 Q393.828,48.061 393.921,48.355 L393.921,56.445 Q393.952,56.492 393.99,56.531 Q394.029,56.569 394.06,56.616 z M392.699,55.502 L392.699,55.285 Q392.699,54.713 392.699,54.024 Q392.699,53.336 392.683,52.717 L392.59,52.671 Q392.544,52.64 392.505,52.609 Q392.467,52.578 392.42,52.547 Q391.956,52.408 391.446,52.423 Q390.935,52.439 390.486,52.617 Q390.038,52.795 389.69,53.135 Q389.342,53.475 389.202,54.001 Q389.079,54.481 389.11,54.837 Q389.141,55.192 389.202,55.672 Q389.264,55.796 389.318,55.92 Q389.373,56.043 389.434,56.167 L389.744,56.476 Q389.93,56.538 390.1,56.631 Q390.718,56.693 391.237,56.569 Q391.755,56.445 392.234,56.028 Q392.25,55.997 392.304,55.943 Q392.358,55.889 392.42,55.827 Q392.482,55.765 392.536,55.711 Q392.59,55.657 392.606,55.641 z" fill="#000000"/>
    <path d="M401.006,55.904 Q401.331,55.78 401.563,55.873 Q401.795,55.966 401.895,56.167 Q401.996,56.368 401.926,56.616 Q401.857,56.863 401.563,57.033 Q401.052,57.327 400.464,57.575 Q399.876,57.822 399.273,57.915 Q398.67,58.008 398.082,57.907 Q397.494,57.807 396.953,57.436 Q396.303,56.987 395.963,56.221 Q395.622,55.455 395.607,54.628 Q395.591,53.8 395.909,53.034 Q396.226,52.269 396.906,51.805 Q397.618,51.325 398.453,51.085 Q399.289,50.845 400.139,51.031 Q400.557,51.124 400.897,51.426 Q401.238,51.727 401.447,52.122 Q401.656,52.516 401.671,52.957 Q401.686,53.398 401.454,53.785 Q401.191,54.218 400.696,54.52 Q400.201,54.821 399.621,55.03 Q399.041,55.239 398.461,55.378 Q397.881,55.517 397.448,55.641 Q397.262,55.687 397.092,55.657 Q397.324,56.152 397.78,56.469 Q398.237,56.786 398.917,56.739 Q399.459,56.708 400.008,56.438 Q400.557,56.167 401.006,55.904 z M397.989,52.609 Q397.417,52.903 397.138,53.437 Q396.86,53.97 396.86,54.558 Q396.968,54.481 397.092,54.434 Q397.37,54.357 397.657,54.272 Q397.943,54.187 398.237,54.11 Q398.422,54.063 398.739,53.97 Q399.057,53.878 399.397,53.754 Q399.737,53.63 400.016,53.468 Q400.294,53.305 400.387,53.104 Q400.418,52.594 400.139,52.408 Q399.861,52.222 399.474,52.222 Q399.088,52.222 398.67,52.354 Q398.252,52.485 397.989,52.609 z" fill="#000000"/>
    <path d="M346.699,69.464 Q346.776,69.155 346.947,69 Q347.117,68.845 347.333,68.845 Q347.534,68.845 347.712,68.985 Q347.89,69.124 347.968,69.418 L347.968,69.557 Q348.323,69.248 348.78,69.101 Q349.236,68.954 349.669,68.954 Q350.273,68.954 350.791,69.217 Q351.309,69.48 351.696,69.928 Q352.083,70.377 352.299,70.973 Q352.516,71.568 352.516,72.249 Q352.516,72.991 352.276,73.61 Q352.036,74.229 351.572,74.678 Q351.108,75.126 350.42,75.381 Q349.731,75.637 348.818,75.637 Q348.602,75.637 348.393,75.621 Q348.184,75.606 347.968,75.575 L347.968,78.839 Q347.952,79.195 347.759,79.373 Q347.565,79.55 347.333,79.55 Q347.117,79.55 346.931,79.388 Q346.746,79.226 346.699,78.885 z M348.122,71.212 Q348.091,71.259 348.045,71.297 Q347.999,71.336 347.968,71.367 L347.968,74.291 Q348.184,74.337 348.393,74.368 Q348.602,74.399 348.818,74.399 Q349.344,74.399 349.793,74.26 Q350.242,74.121 350.574,73.858 Q350.907,73.595 351.092,73.208 Q351.278,72.821 351.278,72.326 Q351.278,71.955 351.162,71.576 Q351.046,71.197 350.837,70.887 Q350.628,70.578 350.35,70.385 Q350.072,70.191 349.731,70.191 Q349.468,70.191 349.236,70.284 Q349.004,70.377 348.803,70.524 Q348.602,70.671 348.432,70.849 Q348.262,71.027 348.122,71.212 z" fill="#000000"/>
    <path d="M360.111,75.049 Q360.111,75.064 360.096,75.064 Q360.189,75.281 360.142,75.466 Q360.096,75.652 359.964,75.768 Q359.833,75.884 359.624,75.915 Q359.415,75.946 359.168,75.822 Q359.028,75.683 358.905,75.521 Q358.781,75.358 358.688,75.188 Q358.379,75.451 358.023,75.675 Q357.667,75.9 357.311,75.915 Q356.693,75.946 356.089,75.931 Q355.486,75.915 354.944,75.528 Q354.496,75.204 354.256,74.755 Q354.016,74.306 353.947,73.804 Q353.877,73.301 353.954,72.775 Q354.032,72.249 354.217,71.769 Q354.295,71.553 354.418,71.352 Q354.542,71.15 354.666,70.934 Q354.836,70.624 355.053,70.354 Q355.269,70.083 355.548,69.882 Q355.749,69.743 355.942,69.604 Q356.136,69.464 356.337,69.341 Q356.476,69.248 356.762,69.147 Q357.048,69.047 357.381,68.977 Q357.714,68.907 358.046,68.907 Q358.379,68.907 358.611,69 Q358.827,68.969 359.036,69.108 Q359.245,69.248 359.353,69.557 Q359.353,70.609 359.338,71.676 Q359.322,72.744 359.477,73.796 Q359.492,73.935 359.593,74.128 Q359.694,74.322 359.81,74.507 Q359.926,74.693 360.018,74.848 Q360.111,75.002 360.111,75.049 z M358.147,73.981 Q358.178,73.966 358.193,73.95 Q358.209,73.935 358.239,73.92 Q358.038,72.991 358.046,71.994 Q358.054,70.996 358.069,70.16 Q357.93,70.16 357.76,70.191 Q357.59,70.222 357.427,70.276 Q357.265,70.331 357.133,70.377 Q357.002,70.423 356.94,70.454 Q356.476,70.671 356.151,71.019 Q355.826,71.367 355.617,71.792 Q355.409,72.218 355.3,72.69 Q355.192,73.162 355.192,73.641 Q355.223,73.765 355.269,73.889 Q355.316,74.012 355.347,74.136 Q355.424,74.213 355.509,74.306 Q355.594,74.399 355.687,74.476 Q355.826,74.538 355.965,74.585 Q356.105,74.631 356.244,74.678 Q356.507,74.678 356.754,74.693 Q357.002,74.708 357.249,74.631 Q357.481,74.476 357.706,74.322 Q357.93,74.167 358.147,73.981 z" fill="#000000"/>
    <path d="M367.568,74.647 Q367.738,74.863 367.738,75.126 Q367.738,75.389 367.568,75.552 Q367.397,75.714 367.15,75.714 Q366.81,75.714 366.562,75.397 Q366.315,75.08 366.144,74.678 Q365.742,75.111 365.201,75.412 Q364.659,75.714 364.087,75.714 Q363.669,75.714 363.283,75.567 Q362.896,75.42 362.563,75.165 Q362.231,74.91 361.975,74.569 Q361.72,74.229 361.596,73.858 Q361.473,73.455 361.426,72.968 Q361.38,72.481 361.38,71.955 Q361.38,71.321 361.411,70.717 Q361.442,70.114 361.442,69.65 Q361.519,69.341 361.689,69.186 Q361.859,69.031 362.076,69.031 Q362.277,69.031 362.455,69.17 Q362.633,69.31 362.71,69.604 Q362.71,70.331 362.687,71.004 Q362.664,71.676 362.664,72.434 Q362.664,73.301 363.035,73.858 Q363.406,74.415 364.041,74.415 Q364.273,74.415 364.505,74.322 Q364.737,74.229 364.938,74.074 Q365.139,73.92 365.309,73.718 Q365.479,73.517 365.618,73.316 Q365.649,73.285 365.696,73.262 Q365.742,73.239 365.773,73.208 Q365.68,72.434 365.68,71.645 Q365.68,71.197 365.688,70.741 Q365.696,70.284 365.765,69.905 Q365.835,69.526 365.997,69.286 Q366.16,69.047 366.454,69.047 Q366.686,69.047 366.871,69.224 Q367.057,69.402 367.057,69.743 Q367.057,70.099 367.003,70.609 Q366.949,71.12 366.949,71.676 Q366.949,72.11 366.98,72.543 Q367.011,72.976 367.08,73.37 Q367.15,73.765 367.266,74.09 Q367.382,74.415 367.568,74.647 z" fill="#000000"/>
    <path d="M368.898,74.585 Q368.759,74.306 368.805,74.082 Q368.852,73.858 368.999,73.726 Q369.146,73.595 369.378,73.595 Q369.61,73.595 369.857,73.765 Q370.213,74.213 370.7,74.461 Q371.188,74.708 371.744,74.755 L372.069,74.662 Q372.193,74.569 372.239,74.538 Q372.286,74.507 372.309,74.484 Q372.332,74.461 372.371,74.415 Q372.41,74.368 372.502,74.244 Q372.533,74.183 372.549,74.121 Q372.564,74.059 372.595,73.981 Q372.595,73.904 372.603,73.842 Q372.611,73.78 372.611,73.703 L372.518,73.424 Q372.471,73.363 372.417,73.301 Q372.363,73.239 372.317,73.177 Q371.93,72.929 371.543,72.821 Q371.157,72.713 370.793,72.597 Q370.43,72.481 370.081,72.295 Q369.733,72.11 369.424,71.692 Q369.13,71.321 369.107,70.833 Q369.084,70.346 369.262,69.897 Q369.439,69.449 369.788,69.101 Q370.136,68.753 370.584,68.66 Q371.234,68.505 371.907,68.629 Q372.58,68.753 373.168,69.062 Q373.446,69.263 373.492,69.518 Q373.539,69.774 373.423,69.959 Q373.307,70.145 373.067,70.222 Q372.827,70.3 372.518,70.145 Q372.147,69.944 371.737,69.882 Q371.327,69.82 370.909,69.882 Q370.863,69.913 370.809,69.928 Q370.754,69.944 370.708,69.975 Q370.538,70.16 370.46,70.338 Q370.383,70.516 370.399,70.779 Q370.414,70.841 370.476,70.965 Q370.522,71.027 370.569,71.073 Q370.615,71.12 370.662,71.181 Q371.033,71.383 371.474,71.499 Q371.915,71.615 372.332,71.762 Q372.75,71.908 373.106,72.148 Q373.462,72.388 373.663,72.852 Q374.034,73.734 373.779,74.476 Q373.523,75.219 372.75,75.729 Q372.549,75.853 372.301,75.938 Q372.054,76.023 371.837,76.023 Q371.002,76.023 370.197,75.644 Q369.393,75.265 368.898,74.585 z" fill="#000000"/>
    <path d="M380.547,73.904 Q380.871,73.78 381.104,73.873 Q381.336,73.966 381.436,74.167 Q381.537,74.368 381.467,74.616 Q381.397,74.863 381.104,75.033 Q380.593,75.327 380.005,75.575 Q379.417,75.822 378.814,75.915 Q378.211,76.008 377.623,75.907 Q377.035,75.807 376.494,75.436 Q375.844,74.987 375.504,74.221 Q375.163,73.455 375.148,72.628 Q375.132,71.8 375.449,71.034 Q375.767,70.269 376.447,69.805 Q377.159,69.325 377.994,69.085 Q378.829,68.845 379.68,69.031 Q380.098,69.124 380.438,69.426 Q380.779,69.727 380.988,70.122 Q381.196,70.516 381.212,70.957 Q381.227,71.398 380.995,71.785 Q380.732,72.218 380.237,72.52 Q379.742,72.821 379.162,73.03 Q378.582,73.239 378.002,73.378 Q377.422,73.517 376.989,73.641 Q376.803,73.687 376.633,73.657 Q376.865,74.152 377.321,74.469 Q377.778,74.786 378.458,74.739 Q379,74.708 379.549,74.438 Q380.098,74.167 380.547,73.904 z M377.53,70.609 Q376.958,70.903 376.679,71.437 Q376.401,71.97 376.401,72.558 Q376.509,72.481 376.633,72.434 Q376.911,72.357 377.197,72.272 Q377.484,72.187 377.778,72.11 Q377.963,72.063 378.28,71.97 Q378.597,71.878 378.938,71.754 Q379.278,71.63 379.557,71.468 Q379.835,71.305 379.928,71.104 Q379.959,70.594 379.68,70.408 Q379.402,70.222 379.015,70.222 Q378.628,70.222 378.211,70.354 Q377.793,70.485 377.53,70.609 z" fill="#000000"/>
    <path d="M393.263,73.904 Q393.587,73.78 393.82,73.873 Q394.052,73.966 394.152,74.167 Q394.253,74.368 394.183,74.616 Q394.113,74.863 393.82,75.033 Q393.309,75.327 392.721,75.575 Q392.133,75.822 391.53,75.915 Q390.927,76.008 390.339,75.907 Q389.751,75.807 389.21,75.436 Q388.56,74.987 388.22,74.221 Q387.879,73.455 387.864,72.628 Q387.848,71.8 388.165,71.034 Q388.483,70.269 389.163,69.805 Q389.875,69.325 390.71,69.085 Q391.546,68.845 392.396,69.031 Q392.814,69.124 393.154,69.426 Q393.495,69.727 393.704,70.122 Q393.912,70.516 393.928,70.957 Q393.943,71.398 393.711,71.785 Q393.448,72.218 392.953,72.52 Q392.458,72.821 391.878,73.03 Q391.298,73.239 390.718,73.378 Q390.138,73.517 389.705,73.641 Q389.519,73.687 389.349,73.657 Q389.581,74.152 390.037,74.469 Q390.494,74.786 391.174,74.739 Q391.716,74.708 392.265,74.438 Q392.814,74.167 393.263,73.904 z M390.246,70.609 Q389.674,70.903 389.395,71.437 Q389.117,71.97 389.117,72.558 Q389.225,72.481 389.349,72.434 Q389.627,72.357 389.913,72.272 Q390.2,72.187 390.494,72.11 Q390.679,72.063 390.996,71.97 Q391.313,71.878 391.654,71.754 Q391.994,71.63 392.273,71.468 Q392.551,71.305 392.644,71.104 Q392.675,70.594 392.396,70.408 Q392.118,70.222 391.731,70.222 Q391.344,70.222 390.927,70.354 Q390.509,70.485 390.246,70.609 z" fill="#000000"/>
    <path d="M400.951,75.25 Q400.936,75.606 400.742,75.784 Q400.549,75.962 400.317,75.962 Q400.1,75.962 399.915,75.799 Q399.729,75.637 399.683,75.296 Q399.683,74.585 399.675,73.881 Q399.667,73.177 399.667,72.465 Q399.667,71.955 399.675,71.444 Q399.683,70.934 399.605,70.423 Q399.481,70.191 399.334,70.137 Q399.188,70.083 398.986,70.083 Q398.46,70.083 397.95,70.338 Q397.439,70.594 397.146,71.042 Q396.975,71.305 396.875,71.483 Q396.774,71.661 396.743,72.001 Q396.743,72.79 396.743,73.579 Q396.743,74.368 396.759,75.157 Q396.743,75.513 396.55,75.691 Q396.357,75.869 396.125,75.869 Q395.908,75.869 395.722,75.706 Q395.537,75.544 395.49,75.204 Q395.49,74.461 395.49,73.765 Q395.49,73.069 395.483,72.388 Q395.475,71.707 395.475,71.004 Q395.475,70.3 395.475,69.557 Q395.552,69.248 395.722,69.093 Q395.892,68.938 396.109,68.938 Q396.31,68.938 396.488,69.078 Q396.666,69.217 396.743,69.511 L396.743,69.634 Q397.192,69.248 397.757,69.023 Q398.321,68.799 398.894,68.799 Q399.466,68.799 399.969,69.062 Q400.471,69.325 400.781,69.913 Q400.889,70.114 400.928,70.416 Q400.967,70.717 400.974,71.05 Q400.982,71.383 400.967,71.731 Q400.951,72.079 400.951,72.388 L400.951,74.213 z" fill="#000000"/>
    <path d="M362.44,89.367 Q362.44,89.321 362.455,89.305 Q362.44,89.259 362.44,89.181 L362.44,89.011 Q362.254,88.532 361.852,88.315 Q361.45,88.099 360.97,88.083 Q360.63,88.191 360.321,88.408 L359.996,88.826 Q359.949,88.887 359.903,88.926 Q359.857,88.965 359.81,88.996 L359.81,93.25 Q359.795,93.606 359.601,93.784 Q359.408,93.962 359.176,93.962 Q358.959,93.962 358.774,93.799 Q358.588,93.637 358.542,93.296 L358.542,87.31 Q358.619,87 358.789,86.853 Q358.959,86.706 359.176,86.706 Q359.361,86.706 359.539,86.838 Q359.717,86.969 359.795,87.248 Q360.042,87.078 360.39,86.931 Q360.738,86.784 361.125,86.784 Q361.682,86.784 362.262,87.07 Q362.842,87.356 363.198,87.789 Q363.368,87.619 363.561,87.441 Q363.755,87.263 363.971,87.116 Q364.188,86.969 364.42,86.869 Q364.652,86.768 364.884,86.768 Q365.364,86.768 365.828,86.931 Q366.292,87.093 366.655,87.379 Q367.019,87.665 367.243,88.044 Q367.468,88.423 367.468,88.841 Q367.468,88.872 367.46,88.887 Q367.452,88.903 367.452,88.934 Q367.468,88.949 367.468,88.965 Q367.468,88.98 367.483,88.996 L367.483,93.188 Q367.468,93.544 367.274,93.722 Q367.081,93.9 366.849,93.9 Q366.632,93.9 366.447,93.737 Q366.261,93.575 366.215,93.234 L366.215,88.996 Q366.044,88.454 365.689,88.261 Q365.333,88.068 364.977,88.068 Q364.575,88.068 364.25,88.269 Q363.925,88.47 363.708,89.011 L363.708,93.173 Q363.693,93.528 363.5,93.706 Q363.306,93.884 363.074,93.884 Q362.858,93.884 362.672,93.722 Q362.486,93.559 362.44,93.219 z" fill="#000000"/>
    <path d="M370.685,93.219 Q370.67,93.575 370.476,93.753 Q370.283,93.931 370.051,93.931 Q369.834,93.931 369.649,93.768 Q369.463,93.606 369.417,93.265 Q369.401,91.811 369.394,90.295 Q369.386,88.779 369.37,87.325 Q369.448,87.016 369.618,86.861 Q369.788,86.706 370.005,86.706 Q370.206,86.706 370.384,86.845 Q370.561,86.985 370.639,87.279 Q370.654,88.733 370.662,90.249 Q370.67,91.765 370.685,93.219 z M369.262,84.804 Q369.262,84.463 369.479,84.223 Q369.695,83.984 370.005,83.984 Q370.314,83.984 370.538,84.223 Q370.763,84.463 370.763,84.804 Q370.763,85.128 370.538,85.368 Q370.314,85.608 370.005,85.608 Q369.695,85.608 369.479,85.368 Q369.262,85.128 369.262,84.804 z" fill="#000000"/>
    <path d="M374.475,92.971 Q374.754,93.173 374.8,93.428 Q374.847,93.683 374.731,93.869 Q374.615,94.054 374.375,94.132 Q374.135,94.209 373.826,94.054 Q373.686,93.962 373.547,93.869 Q373.408,93.776 373.253,93.683 Q373.114,93.559 373.068,93.451 Q373.021,93.343 372.99,93.142 L372.99,84.556 Q373.052,84.262 373.23,84.107 Q373.408,83.953 373.601,83.945 Q373.795,83.937 373.98,84.076 Q374.166,84.216 374.259,84.51 L374.259,92.832 Q374.305,92.863 374.359,92.902 Q374.413,92.941 374.475,92.971 z" fill="#000000"/>
    <path d="M378.466,92.971 Q378.745,93.173 378.791,93.428 Q378.838,93.683 378.722,93.869 Q378.606,94.054 378.366,94.132 Q378.126,94.209 377.817,94.054 Q377.678,93.962 377.538,93.869 Q377.399,93.776 377.244,93.683 Q377.105,93.559 377.059,93.451 Q377.012,93.343 376.981,93.142 L376.981,84.556 Q377.043,84.262 377.221,84.107 Q377.399,83.953 377.592,83.945 Q377.786,83.937 377.971,84.076 Q378.157,84.216 378.25,84.51 L378.25,92.832 Q378.296,92.863 378.35,92.902 Q378.405,92.941 378.466,92.971 z" fill="#000000"/>
    <path d="M381.762,93.219 Q381.746,93.575 381.553,93.753 Q381.359,93.931 381.127,93.931 Q380.911,93.931 380.725,93.768 Q380.539,93.606 380.493,93.265 Q380.478,91.811 380.47,90.295 Q380.462,88.779 380.447,87.325 Q380.524,87.016 380.694,86.861 Q380.864,86.706 381.081,86.706 Q381.282,86.706 381.46,86.845 Q381.638,86.985 381.715,87.279 Q381.731,88.733 381.738,90.249 Q381.746,91.765 381.762,93.219 z M380.338,84.804 Q380.338,84.463 380.555,84.223 Q380.771,83.984 381.081,83.984 Q381.39,83.984 381.615,84.223 Q381.839,84.463 381.839,84.804 Q381.839,85.128 381.615,85.368 Q381.39,85.608 381.081,85.608 Q380.771,85.608 380.555,85.368 Q380.338,85.128 380.338,84.804 z" fill="#000000"/>
    <path d="M384.268,91.223 Q383.927,91.177 383.765,90.991 Q383.602,90.806 383.602,90.589 Q383.602,90.373 383.78,90.164 Q383.958,89.955 384.314,89.955 Q384.5,89.955 385.095,89.955 Q385.691,89.955 386.379,89.947 Q387.068,89.939 387.663,89.939 Q388.259,89.939 388.444,89.939 Q388.738,90.017 388.878,90.195 Q389.017,90.373 389.017,90.574 Q389.017,90.79 388.862,90.96 Q388.707,91.131 388.398,91.208 Q387.361,91.208 386.333,91.216 Q385.304,91.223 384.268,91.223 z" fill="#000000"/>
    <path d="M346.196,110.585 Q346.057,110.306 346.103,110.082 Q346.15,109.858 346.297,109.726 Q346.444,109.595 346.676,109.595 Q346.908,109.595 347.155,109.765 Q347.511,110.213 347.998,110.461 Q348.486,110.708 349.043,110.755 L349.367,110.662 Q349.491,110.569 349.538,110.538 Q349.584,110.507 349.607,110.484 Q349.63,110.461 349.669,110.415 Q349.708,110.368 349.801,110.244 Q349.831,110.183 349.847,110.121 Q349.862,110.059 349.893,109.981 Q349.893,109.904 349.901,109.842 Q349.909,109.78 349.909,109.703 L349.816,109.424 Q349.77,109.363 349.715,109.301 Q349.661,109.239 349.615,109.177 Q349.228,108.929 348.841,108.821 Q348.455,108.713 348.091,108.597 Q347.728,108.481 347.38,108.295 Q347.031,108.11 346.722,107.692 Q346.428,107.321 346.405,106.833 Q346.382,106.346 346.56,105.897 Q346.738,105.449 347.086,105.101 Q347.434,104.753 347.882,104.66 Q348.532,104.505 349.205,104.629 Q349.878,104.753 350.466,105.062 Q350.744,105.263 350.791,105.518 Q350.837,105.774 350.721,105.959 Q350.605,106.145 350.365,106.222 Q350.125,106.3 349.816,106.145 Q349.445,105.944 349.035,105.882 Q348.625,105.82 348.207,105.882 Q348.161,105.913 348.107,105.928 Q348.052,105.944 348.006,105.975 Q347.836,106.16 347.759,106.338 Q347.681,106.516 347.697,106.779 Q347.712,106.841 347.774,106.965 Q347.82,107.027 347.867,107.073 Q347.913,107.12 347.96,107.181 Q348.331,107.383 348.772,107.499 Q349.213,107.615 349.63,107.762 Q350.048,107.908 350.404,108.148 Q350.76,108.388 350.961,108.852 Q351.332,109.734 351.077,110.476 Q350.822,111.219 350.048,111.729 Q349.847,111.853 349.599,111.938 Q349.352,112.023 349.135,112.023 Q348.3,112.023 347.496,111.644 Q346.691,111.265 346.196,110.585 z" fill="#000000"/>
    <path d="M357.845,109.904 Q358.17,109.78 358.402,109.873 Q358.634,109.966 358.734,110.167 Q358.835,110.368 358.765,110.616 Q358.696,110.863 358.402,111.033 Q357.891,111.327 357.303,111.575 Q356.715,111.822 356.112,111.915 Q355.509,112.008 354.921,111.907 Q354.333,111.807 353.792,111.436 Q353.142,110.987 352.802,110.221 Q352.461,109.455 352.446,108.628 Q352.43,107.8 352.747,107.034 Q353.065,106.269 353.745,105.805 Q354.457,105.325 355.292,105.085 Q356.128,104.845 356.978,105.031 Q357.396,105.124 357.736,105.426 Q358.077,105.727 358.286,106.122 Q358.494,106.516 358.51,106.957 Q358.525,107.398 358.293,107.785 Q358.03,108.218 357.535,108.52 Q357.04,108.821 356.46,109.03 Q355.88,109.239 355.3,109.378 Q354.72,109.517 354.287,109.641 Q354.101,109.687 353.931,109.657 Q354.163,110.152 354.619,110.469 Q355.076,110.786 355.756,110.739 Q356.298,110.708 356.847,110.438 Q357.396,110.167 357.845,109.904 z M354.828,106.609 Q354.256,106.903 353.977,107.437 Q353.699,107.97 353.699,108.558 Q353.807,108.481 353.931,108.434 Q354.209,108.357 354.496,108.272 Q354.782,108.187 355.076,108.11 Q355.261,108.063 355.578,107.97 Q355.896,107.878 356.236,107.754 Q356.576,107.63 356.855,107.468 Q357.133,107.305 357.226,107.104 Q357.257,106.594 356.978,106.408 Q356.7,106.222 356.313,106.222 Q355.926,106.222 355.509,106.354 Q355.091,106.485 354.828,106.609 z" fill="#000000"/>
    <path d="M364.249,110.043 Q364.512,109.827 364.767,109.842 Q365.023,109.858 365.177,110.012 Q365.332,110.167 365.347,110.422 Q365.363,110.678 365.146,110.941 Q364.636,111.497 363.947,111.729 Q363.259,111.962 362.586,111.861 Q361.913,111.76 361.341,111.327 Q360.768,110.894 360.49,110.152 Q360.32,109.734 360.242,109.27 Q360.165,108.806 360.196,108.357 Q360.242,107.615 360.544,106.864 Q360.846,106.114 361.364,105.557 Q361.882,105 362.586,104.745 Q363.29,104.49 364.125,104.753 Q364.543,104.892 364.883,105.093 Q365.224,105.294 365.533,105.604 Q365.703,105.851 365.703,106.083 Q365.703,106.315 365.572,106.462 Q365.44,106.609 365.216,106.655 Q364.992,106.702 364.713,106.563 Q364.203,106.052 363.723,105.952 Q363.244,105.851 362.834,106.037 Q362.424,106.222 362.107,106.632 Q361.789,107.042 361.619,107.56 Q361.449,108.079 361.449,108.643 Q361.449,109.208 361.666,109.687 Q361.851,110.121 362.168,110.353 Q362.486,110.585 362.841,110.623 Q363.197,110.662 363.576,110.515 Q363.955,110.368 364.249,110.043 z" fill="#000000"/>
    <path d="M366.446,107.924 Q366.616,107.429 366.863,106.957 Q367.111,106.485 367.451,106.099 Q367.792,105.712 368.233,105.433 Q368.673,105.155 369.215,105.031 Q370.112,104.83 370.785,105.17 Q371.458,105.511 371.86,106.145 Q372.262,106.779 372.394,107.591 Q372.525,108.404 372.324,109.146 Q372.092,110.059 371.504,110.848 Q370.917,111.637 370.019,111.992 Q369.354,112.255 368.743,112.186 Q368.132,112.116 367.645,111.791 Q367.157,111.466 366.817,110.941 Q366.477,110.415 366.353,109.749 Q366.276,109.332 366.299,108.929 Q366.322,108.527 366.399,108.125 z M367.652,108.28 Q367.591,108.605 367.567,108.875 Q367.544,109.146 367.591,109.486 Q367.637,109.904 367.854,110.237 Q368.07,110.569 368.38,110.747 Q368.689,110.925 369.068,110.917 Q369.447,110.91 369.834,110.678 Q370.344,110.368 370.646,109.873 Q370.947,109.378 371.102,108.806 Q371.226,108.342 371.156,107.816 Q371.087,107.29 370.839,106.887 Q370.592,106.485 370.174,106.307 Q369.756,106.129 369.184,106.362 Q368.565,106.624 368.209,107.15 Q367.854,107.676 367.652,108.28 z" fill="#000000"/>
    <path d="M379.409,111.25 Q379.394,111.606 379.201,111.784 Q379.007,111.962 378.775,111.962 Q378.559,111.962 378.373,111.799 Q378.187,111.637 378.141,111.296 Q378.141,110.585 378.133,109.881 Q378.125,109.177 378.125,108.465 Q378.125,107.955 378.133,107.444 Q378.141,106.934 378.063,106.423 Q377.94,106.191 377.793,106.137 Q377.646,106.083 377.445,106.083 Q376.919,106.083 376.408,106.338 Q375.898,106.594 375.604,107.042 Q375.434,107.305 375.333,107.483 Q375.233,107.661 375.202,108.001 Q375.202,108.79 375.202,109.579 Q375.202,110.368 375.217,111.157 Q375.202,111.513 375.008,111.691 Q374.815,111.869 374.583,111.869 Q374.366,111.869 374.181,111.706 Q373.995,111.544 373.949,111.204 Q373.949,110.461 373.949,109.765 Q373.949,109.069 373.941,108.388 Q373.933,107.707 373.933,107.004 Q373.933,106.3 373.933,105.557 Q374.01,105.248 374.181,105.093 Q374.351,104.938 374.567,104.938 Q374.768,104.938 374.946,105.078 Q375.124,105.217 375.202,105.511 L375.202,105.634 Q375.65,105.248 376.215,105.023 Q376.78,104.799 377.352,104.799 Q377.924,104.799 378.427,105.062 Q378.93,105.325 379.239,105.913 Q379.347,106.114 379.386,106.416 Q379.425,106.717 379.433,107.05 Q379.44,107.383 379.425,107.731 Q379.409,108.079 379.409,108.388 L379.409,110.213 z" fill="#000000"/>
    <path d="M387.113,110.616 Q387.314,110.894 387.276,111.149 Q387.237,111.405 387.075,111.552 Q386.912,111.699 386.657,111.691 Q386.402,111.683 386.154,111.436 Q386.077,111.358 386.015,111.273 Q385.953,111.188 385.922,111.111 Q385.458,111.513 384.847,111.737 Q384.236,111.962 383.609,111.962 Q382.983,111.962 382.41,111.706 Q381.838,111.451 381.451,110.91 Q381.157,110.492 381.026,109.974 Q380.894,109.455 380.894,108.922 Q380.894,108.388 381.026,107.87 Q381.157,107.352 381.359,106.903 Q381.544,106.501 381.892,106.176 Q382.24,105.851 382.627,105.65 Q382.983,105.449 383.424,105.317 Q383.865,105.186 384.267,105.17 Q384.638,105.17 385.009,105.186 Q385.381,105.201 385.736,105.31 Q385.721,104.196 385.713,103.43 Q385.705,102.664 385.705,102.401 Q385.767,102.107 385.945,101.953 Q386.123,101.798 386.317,101.79 Q386.51,101.783 386.696,101.922 Q386.881,102.061 386.974,102.355 L386.974,110.445 Q387.005,110.492 387.044,110.531 Q387.082,110.569 387.113,110.616 z M385.752,109.502 L385.752,109.285 Q385.752,108.713 385.752,108.024 Q385.752,107.336 385.736,106.717 L385.644,106.671 Q385.597,106.64 385.559,106.609 Q385.52,106.578 385.473,106.547 Q385.009,106.408 384.499,106.423 Q383.988,106.439 383.54,106.617 Q383.091,106.795 382.743,107.135 Q382.395,107.475 382.256,108.001 Q382.132,108.481 382.163,108.837 Q382.194,109.192 382.256,109.672 Q382.318,109.796 382.372,109.92 Q382.426,110.043 382.488,110.167 L382.797,110.476 Q382.983,110.538 383.153,110.631 Q383.772,110.693 384.29,110.569 Q384.808,110.445 385.288,110.028 Q385.303,109.997 385.357,109.943 Q385.412,109.889 385.473,109.827 Q385.535,109.765 385.589,109.711 Q385.644,109.657 385.659,109.641 z" fill="#000000"/>
    <path d="M394.059,109.904 Q394.384,109.78 394.616,109.873 Q394.848,109.966 394.949,110.167 Q395.049,110.368 394.979,110.616 Q394.91,110.863 394.616,111.033 Q394.105,111.327 393.518,111.575 Q392.93,111.822 392.326,111.915 Q391.723,112.008 391.135,111.907 Q390.547,111.807 390.006,111.436 Q389.356,110.987 389.016,110.221 Q388.676,109.455 388.66,108.628 Q388.645,107.8 388.962,107.034 Q389.279,106.269 389.96,105.805 Q390.671,105.325 391.507,105.085 Q392.342,104.845 393.193,105.031 Q393.61,105.124 393.951,105.426 Q394.291,105.727 394.5,106.122 Q394.709,106.516 394.724,106.957 Q394.74,107.398 394.508,107.785 Q394.245,108.218 393.75,108.52 Q393.255,108.821 392.675,109.03 Q392.094,109.239 391.514,109.378 Q390.934,109.517 390.501,109.641 Q390.315,109.687 390.145,109.657 Q390.377,110.152 390.834,110.469 Q391.29,110.786 391.971,110.739 Q392.512,110.708 393.061,110.438 Q393.61,110.167 394.059,109.904 z M391.042,106.609 Q390.47,106.903 390.192,107.437 Q389.913,107.97 389.913,108.558 Q390.021,108.481 390.145,108.434 Q390.424,108.357 390.71,108.272 Q390.996,108.187 391.29,108.11 Q391.476,108.063 391.793,107.97 Q392.11,107.878 392.45,107.754 Q392.791,107.63 393.069,107.468 Q393.347,107.305 393.44,107.104 Q393.471,106.594 393.193,106.408 Q392.914,106.222 392.528,106.222 Q392.141,106.222 391.723,106.354 Q391.305,106.485 391.042,106.609 z" fill="#000000"/>
    <path d="M396.132,110.585 Q395.993,110.306 396.039,110.082 Q396.086,109.858 396.233,109.726 Q396.38,109.595 396.612,109.595 Q396.844,109.595 397.091,109.765 Q397.447,110.213 397.934,110.461 Q398.422,110.708 398.978,110.755 L399.303,110.662 Q399.427,110.569 399.473,110.538 Q399.52,110.507 399.543,110.484 Q399.566,110.461 399.605,110.415 Q399.644,110.368 399.736,110.244 Q399.767,110.183 399.783,110.121 Q399.798,110.059 399.829,109.981 Q399.829,109.904 399.837,109.842 Q399.845,109.78 399.845,109.703 L399.752,109.424 Q399.705,109.363 399.651,109.301 Q399.597,109.239 399.551,109.177 Q399.164,108.929 398.777,108.821 Q398.391,108.713 398.027,108.597 Q397.663,108.481 397.315,108.295 Q396.967,108.11 396.658,107.692 Q396.364,107.321 396.341,106.833 Q396.318,106.346 396.496,105.897 Q396.673,105.449 397.022,105.101 Q397.37,104.753 397.818,104.66 Q398.468,104.505 399.141,104.629 Q399.814,104.753 400.402,105.062 Q400.68,105.263 400.726,105.518 Q400.773,105.774 400.657,105.959 Q400.541,106.145 400.301,106.222 Q400.061,106.3 399.752,106.145 Q399.381,105.944 398.971,105.882 Q398.561,105.82 398.143,105.882 Q398.097,105.913 398.043,105.928 Q397.988,105.944 397.942,105.975 Q397.772,106.16 397.694,106.338 Q397.617,106.516 397.633,106.779 Q397.648,106.841 397.71,106.965 Q397.756,107.027 397.803,107.073 Q397.849,107.12 397.896,107.181 Q398.267,107.383 398.708,107.499 Q399.149,107.615 399.566,107.762 Q399.984,107.908 400.34,108.148 Q400.696,108.388 400.897,108.852 Q401.268,109.734 401.013,110.476 Q400.757,111.219 399.984,111.729 Q399.783,111.853 399.535,111.938 Q399.288,112.023 399.071,112.023 Q398.236,112.023 397.431,111.644 Q396.627,111.265 396.132,110.585 z" fill="#000000"/>
    <path d="M346.574,27.973 L349.64,27.973 L349.64,16.957 L345.968,18.725 L345.968,16.83 L349.621,15.092 L351.593,15.092 L351.593,27.973 L354.621,27.973 L354.621,29.623 L346.574,29.623 z" fill="#C40104"/>
    <path d="M361.994,14.828 Q364.328,14.828 365.524,16.732 Q366.72,18.637 366.72,22.367 Q366.72,26.098 365.524,28.002 Q364.328,29.906 361.994,29.906 Q359.66,29.906 358.468,28.002 Q357.277,26.098 357.277,22.367 Q357.277,18.637 358.468,16.732 Q359.66,14.828 361.994,14.828 z M361.994,28.344 Q363.38,28.344 364.059,26.869 Q364.738,25.394 364.738,22.367 Q364.738,20.756 364.542,19.457 L359.894,26.732 Q360.626,28.344 361.994,28.344 z M361.994,16.391 Q360.617,16.391 359.938,17.865 Q359.259,19.34 359.259,22.367 Q359.259,23.744 359.445,24.945 L363.996,17.689 Q363.253,16.391 361.994,16.391 z" fill="#C40104"/>
    <path d="M374.035,14.828 Q376.369,14.828 377.565,16.732 Q378.761,18.637 378.761,22.367 Q378.761,26.098 377.565,28.002 Q376.369,29.906 374.035,29.906 Q371.701,29.906 370.509,28.002 Q369.318,26.098 369.318,22.367 Q369.318,18.637 370.509,16.732 Q371.701,14.828 374.035,14.828 z M374.035,28.344 Q375.421,28.344 376.1,26.869 Q376.779,25.394 376.779,22.367 Q376.779,20.756 376.583,19.457 L371.935,26.732 Q372.667,28.344 374.035,28.344 z M374.035,16.391 Q372.658,16.391 371.979,17.865 Q371.3,19.34 371.3,22.367 Q371.3,23.744 371.486,24.945 L376.037,17.689 Q375.294,16.391 374.035,16.391 z" fill="#C40104"/>
    <path d="M386.076,14.828 Q388.41,14.828 389.606,16.732 Q390.802,18.637 390.802,22.367 Q390.802,26.098 389.606,28.002 Q388.41,29.906 386.076,29.906 Q383.742,29.906 382.55,28.002 Q381.359,26.098 381.359,22.367 Q381.359,18.637 382.55,16.732 Q383.742,14.828 386.076,14.828 z M386.076,28.344 Q387.462,28.344 388.141,26.869 Q388.82,25.394 388.82,22.367 Q388.82,20.756 388.624,19.457 L383.976,26.732 Q384.708,28.344 386.076,28.344 z M386.076,16.391 Q384.699,16.391 384.02,17.865 Q383.341,19.34 383.341,22.367 Q383.341,23.744 383.527,24.945 L388.078,17.689 Q387.335,16.391 386.076,16.391 z" fill="#C40104"/>
    <path d="M398.117,14.828 Q400.451,14.828 401.647,16.732 Q402.843,18.637 402.843,22.367 Q402.843,26.098 401.647,28.002 Q400.451,29.906 398.117,29.906 Q395.783,29.906 394.591,28.002 Q393.4,26.098 393.4,22.367 Q393.4,18.637 394.591,16.732 Q395.783,14.828 398.117,14.828 z M398.117,28.344 Q399.503,28.344 400.182,26.869 Q400.861,25.394 400.861,22.367 Q400.861,20.756 400.665,19.457 L396.017,26.732 Q396.749,28.344 398.117,28.344 z M398.117,16.391 Q396.74,16.391 396.061,17.865 Q395.382,19.34 395.382,22.367 Q395.382,23.744 395.568,24.945 L400.119,17.689 Q399.376,16.391 398.117,16.391 z" fill="#C40104"/>
    <path d="M144.533,27.416 L147.599,27.416 L147.599,16.4 L143.927,18.168 L143.927,16.273 L147.58,14.535 L149.552,14.535 L149.552,27.416 L152.58,27.416 L152.58,29.066 L144.533,29.066 z" fill="#C40104"/>
    <path d="M159.953,14.271 Q162.287,14.271 163.483,16.175 Q164.679,18.08 164.679,21.81 Q164.679,25.541 163.483,27.445 Q162.287,29.349 159.953,29.349 Q157.619,29.349 156.427,27.445 Q155.236,25.541 155.236,21.81 Q155.236,18.08 156.427,16.175 Q157.619,14.271 159.953,14.271 z M159.953,27.787 Q161.339,27.787 162.018,26.312 Q162.697,24.837 162.697,21.81 Q162.697,20.199 162.501,18.9 L157.853,26.175 Q158.585,27.787 159.953,27.787 z M159.953,15.834 Q158.576,15.834 157.897,17.308 Q157.218,18.783 157.218,21.81 Q157.218,23.187 157.404,24.388 L161.955,17.132 Q161.212,15.834 159.953,15.834 z" fill="#C40104"/>
    <path d="M187.521,18.509 L187.521,20.267 Q186.75,19.818 185.968,19.593 Q185.187,19.369 184.376,19.369 Q183.156,19.369 182.555,19.764 Q181.955,20.16 181.955,20.97 Q181.955,21.703 182.404,22.064 Q182.853,22.425 184.64,22.767 L185.363,22.904 Q186.701,23.158 187.389,23.92 Q188.078,24.681 188.078,25.902 Q188.078,27.523 186.925,28.436 Q185.773,29.349 183.722,29.349 Q182.912,29.349 182.023,29.178 Q181.134,29.007 180.099,28.666 L180.099,26.81 Q181.105,27.328 182.023,27.587 Q182.941,27.845 183.761,27.845 Q184.953,27.845 185.607,27.362 Q186.261,26.878 186.261,26.009 Q186.261,24.759 183.869,24.281 L183.791,24.261 L183.117,24.125 Q181.564,23.822 180.851,23.104 Q180.138,22.386 180.138,21.146 Q180.138,19.574 181.203,18.719 Q182.267,17.865 184.24,17.865 Q185.119,17.865 185.929,18.026 Q186.74,18.187 187.521,18.509 z" fill="#C40104"/>
  </g>
</svg>
