<?xml version="1.0" encoding="UTF-8"?>
<!DOCTYPE svg PUBLIC "-//W3C//DTD SVG 1.1//EN" "http://www.w3.org/Graphics/SVG/1.1/DTD/svg11.dtd">
<svg version="1.1" xmlns="http://www.w3.org/2000/svg" xmlns:xlink="http://www.w3.org/1999/xlink" x="0" y="0" width="509.236" height="212.253" viewBox="0, 0, 509.236, 212.253">
  <g id="Calque_1" transform="translate(0, 0)">
    <g id="Untitled_Sketch_bb">
      <g id="breadboard">
        <path d="M125.992,0 L125.992,172.459 L509.236,172.459 L509.236,0 L125.992,0 z M317.011,3.517 C318.305,3.517 319.355,4.566 319.355,5.861 C319.355,7.155 318.305,8.205 317.011,8.205 C315.716,8.205 314.667,7.155 314.667,5.861 C314.667,4.566 315.718,3.517 317.011,3.517 z M195.332,3.517 C196.627,3.517 197.676,4.566 197.676,5.861 C197.676,7.155 196.627,8.205 195.332,8.205 C194.038,8.205 192.988,7.155 192.988,5.861 C192.988,4.566 194.04,3.517 195.332,3.517 z M183.164,3.517 C184.459,3.517 185.508,4.566 185.508,5.861 C185.508,7.155 184.459,8.205 183.164,8.205 C181.87,8.205 180.82,7.155 180.82,5.861 C180.82,4.566 181.87,3.517 183.164,3.517 z M137.048,6.314 C139.711,6.314 141.871,8.472 141.871,11.137 C141.871,13.802 139.711,15.958 137.048,15.958 C134.384,15.958 132.224,13.8 132.224,11.137 C132.224,8.473 134.384,6.314 137.048,6.314 z M137.053,166.193 C134.389,166.193 132.23,164.033 132.23,161.369 C132.23,158.706 134.389,156.546 137.053,156.546 C139.716,156.546 141.876,158.704 141.876,161.369 C141.874,164.033 139.716,166.193 137.053,166.193 z M158.828,8.203 C157.534,8.203 156.484,7.154 156.484,5.859 C156.484,4.564 157.534,3.515 158.828,3.515 C160.123,3.515 161.172,4.564 161.172,5.859 C161.172,7.154 160.121,8.203 158.828,8.203 z M168.652,5.861 C168.652,4.566 169.702,3.517 170.996,3.517 C172.291,3.517 173.34,4.566 173.34,5.861 C173.34,7.155 172.291,8.205 170.996,8.205 C169.702,8.205 168.652,7.154 168.652,5.861 z M199.032,151.829 L171.429,151.829 L171.429,143.69 L199.032,143.69 L199.032,151.829 z M199.032,28.769 L171.429,28.769 L171.429,20.63 L199.032,20.63 L199.032,28.769 z M207.499,8.203 C206.204,8.203 205.155,7.154 205.155,5.859 C205.155,4.564 206.204,3.515 207.499,3.515 C208.793,3.515 209.843,4.564 209.843,5.859 C209.843,7.154 208.793,8.203 207.499,8.203 z M219.668,8.203 C218.374,8.203 217.324,7.154 217.324,5.859 C217.324,4.564 218.374,3.515 219.668,3.515 C220.963,3.515 222.012,4.564 222.012,5.859 C222.012,7.154 220.961,8.203 219.668,8.203 z M231.836,8.203 C230.542,8.203 229.492,7.154 229.492,5.859 C229.492,4.564 230.542,3.515 231.836,3.515 C233.131,3.515 234.18,4.564 234.18,5.859 C234.18,7.154 233.131,8.203 231.836,8.203 z M244.004,8.203 C242.71,8.203 241.66,7.154 241.66,5.859 C241.66,4.564 242.71,3.515 244.004,3.515 C245.299,3.515 246.348,4.564 246.348,5.859 C246.348,7.154 245.299,8.203 244.004,8.203 z M256.171,8.203 C254.876,8.203 253.827,7.154 253.827,5.859 C253.827,4.564 254.876,3.515 256.171,3.515 C257.465,3.515 258.515,4.564 258.515,5.859 C258.515,7.154 257.465,8.203 256.171,8.203 z M268.339,8.203 C267.044,8.203 265.995,7.154 265.995,5.859 C265.995,4.564 267.044,3.515 268.339,3.515 C269.633,3.515 270.683,4.564 270.683,5.859 C270.683,7.154 269.633,8.203 268.339,8.203 z M280.508,8.203 C279.214,8.203 278.164,7.154 278.164,5.859 C278.164,4.564 279.214,3.515 280.508,3.515 C281.803,3.515 282.852,4.564 282.852,5.859 C282.852,7.154 281.801,8.203 280.508,8.203 z M292.676,8.203 C291.382,8.203 290.332,7.154 290.332,5.859 C290.332,4.564 291.382,3.515 292.676,3.515 C293.971,3.515 295.02,4.564 295.02,5.859 C295.02,7.154 293.971,8.203 292.676,8.203 z M302.499,5.861 C302.499,4.566 303.548,3.517 304.843,3.517 C306.137,3.517 307.187,4.566 307.187,5.861 C307.187,7.155 306.137,8.205 304.843,8.205 C303.548,8.205 302.499,7.154 302.499,5.861 z M331.416,151.829 L303.812,151.829 L303.812,143.69 L331.416,143.69 L331.416,151.829 z M331.416,28.769 L303.812,28.769 L303.812,20.63 L331.416,20.63 L331.416,28.769 z M329.179,8.203 C327.884,8.203 326.835,7.154 326.835,5.859 C326.835,4.564 327.884,3.515 329.179,3.515 C330.473,3.515 331.523,4.564 331.523,5.859 C331.523,7.154 330.473,8.203 329.179,8.203 z M341.348,8.203 C340.054,8.203 339.004,7.154 339.004,5.859 C339.004,4.564 340.054,3.515 341.348,3.515 C342.643,3.515 343.692,4.564 343.692,5.859 C343.692,7.154 342.643,8.203 341.348,8.203 z M463.797,151.829 L436.196,151.829 L436.196,143.69 L463.797,143.69 L463.797,151.829 z M463.797,28.769 L436.196,28.769 L436.196,20.63 L463.797,20.63 L463.797,28.769 z M498.143,6.305 C500.807,6.305 502.966,8.463 502.966,11.128 C502.966,13.794 500.808,15.952 498.143,15.952 C495.478,15.952 493.318,13.794 493.318,11.128 C493.318,8.463 495.478,6.305 498.143,6.305 z M498.143,166.194 C495.48,166.194 493.32,164.036 493.32,161.371 C493.32,158.709 495.478,156.548 498.143,156.548 C500.808,156.548 502.968,158.708 502.968,161.371 C502.968,164.035 500.807,166.194 498.143,166.194 z" fill="#1F7A34"/>
        <path d="M128.664,11.137 C128.664,15.762 132.421,19.521 137.046,19.521 C141.68,19.521 145.43,15.762 145.43,11.137 C145.43,6.505 141.68,2.754 137.046,2.754 C132.421,2.754 128.664,6.505 128.664,11.137 z M132.224,11.137 C132.224,8.473 134.384,6.314 137.048,6.314 C139.711,6.314 141.871,8.472 141.871,11.137 C141.871,13.802 139.709,15.958 137.046,15.958 C134.384,15.958 132.224,13.8 132.224,11.137 z" fill="#9A916C"/>
        <path d="M506.526,161.371 C506.526,156.746 502.769,152.987 498.141,152.987 C493.507,152.987 489.757,156.746 489.757,161.371 C489.757,166.003 493.507,169.754 498.141,169.754 C502.77,169.754 506.526,166.005 506.526,161.371 z M502.968,161.371 C502.968,164.035 500.807,166.194 498.143,166.194 C495.48,166.194 493.32,164.036 493.32,161.371 C493.32,158.709 495.478,156.548 498.143,156.548 C500.808,156.548 502.968,158.709 502.968,161.371 z" fill="#9A916C"/>
        <path d="M128.669,161.369 C128.669,165.995 132.426,169.754 137.051,169.754 C141.685,169.754 145.435,165.995 145.435,161.369 C145.435,156.737 141.685,152.987 137.051,152.987 C132.426,152.987 128.669,156.737 128.669,161.369 z M132.228,161.369 C132.228,158.706 134.388,156.546 137.051,156.546 C139.715,156.546 141.874,158.704 141.874,161.369 C141.874,164.031 139.715,166.193 137.051,166.193 C134.389,166.193 132.228,164.033 132.228,161.369 z" fill="#9A916C"/>
        <path d="M493.673,110.309 C492.433,110.309 491.415,109.292 491.415,108.05 L491.415,64.411 C491.415,63.169 492.433,62.151 493.673,62.151 L493.769,62.151 L493.769,28.267 L493.769,27.087 L492.588,27.087 L489.125,23.624 L489.125,22.419 L487.92,22.419 L147.304,22.419 L146.099,22.419 L146.099,23.624 L142.638,27.085 L141.457,27.085 L141.457,28.265 L141.457,62.151 L141.553,62.151 C142.795,62.151 143.813,63.169 143.813,64.411 L143.813,108.05 C143.813,109.292 142.795,110.309 141.553,110.309 L141.457,110.309 L141.457,144.192 L141.457,145.372 L142.638,145.372 L146.101,148.835 L146.101,150.04 L147.306,150.04 L487.92,150.04 L489.125,150.04 L489.125,148.835 L492.588,145.372 L493.769,145.372 L493.769,144.192 L493.769,110.309 L493.673,110.309 z" fill="#303030"/>
        <g>
          <path d="M478.632,120.635 C478.632,124.364 475.582,127.414 471.852,127.414 L163.375,127.414 C159.646,127.414 156.596,124.364 156.596,120.635 L156.596,51.824 C156.596,48.095 159.646,45.045 163.375,45.045 L471.852,45.045 C475.582,45.045 478.632,48.095 478.632,51.824 L478.632,120.635 z" fill="#87AD34"/>
          <g opacity="0.2">
            <path d="M478.619,51.792 L478.619,120.667 C478.619,120.657 478.622,120.647 478.622,120.635 L478.622,51.824 C478.622,51.812 478.619,51.802 478.619,51.792 z M163.375,45.045 C159.648,45.045 156.596,48.097 156.596,51.824 L156.596,120.635 C156.596,124.362 159.648,127.414 163.375,127.414 L167.305,127.414 C163.577,127.414 160.527,124.362 160.527,120.635 L160.527,54.085 C160.527,50.357 163.577,47.306 167.305,47.306 L476.854,47.306 C475.612,45.931 473.834,45.045 471.845,45.045 L163.375,45.045 z" fill="#22420D"/>
          </g>
        </g>
        <g>
          <path d="M481.497,31.464 C481.497,30.222 480.479,29.206 479.239,29.206 L155.989,29.206 C154.747,29.206 153.731,30.224 153.731,31.464 L153.731,32.71 C153.731,33.952 154.749,34.968 155.989,34.968 L479.237,34.968 C480.478,34.968 481.495,33.95 481.495,32.71 L481.495,31.464 z" fill="#1A1A1A"/>
          <path d="M480.368,33.482 C480.368,32.664 479.638,31.995 478.75,31.995 L156.609,31.995 C155.721,31.995 154.992,32.664 154.992,33.482 C154.992,34.3 155.721,34.969 156.609,34.969 L478.75,34.969 C479.638,34.968 480.368,34.298 480.368,33.482 z" fill="#424242"/>
        </g>
        <g>
          <path d="M481.497,138.674 C481.497,137.434 480.479,136.417 479.239,136.417 L155.989,136.417 C154.747,136.417 153.731,137.434 153.731,138.674 L153.731,139.922 C153.731,141.162 154.749,142.179 155.989,142.179 L479.237,142.179 C480.478,142.179 481.495,141.162 481.495,139.922 L481.495,138.674 z" fill="#1A1A1A"/>
          <path d="M480.368,140.694 C480.368,139.876 479.638,139.207 478.75,139.207 L156.609,139.207 C155.721,139.207 154.992,139.876 154.992,140.694 C154.992,141.51 155.721,142.179 156.609,142.179 L478.75,142.179 C479.638,142.179 480.368,141.51 480.368,140.694 z" fill="#424242"/>
        </g>
        <g>
          <path d="M142.785,27.332 L146.356,23.761" fill-opacity="0" stroke="#F2F2F2" stroke-width="0.399" stroke-opacity="0.2" stroke-linecap="round"/>
          <path d="M146.393,148.681 L142.822,145.108" fill-opacity="0" stroke="#F2F2F2" stroke-width="0.399" stroke-opacity="0.2" stroke-linecap="round"/>
        </g>
        <g>
          <path d="M492.422,27.332 L488.85,23.761" fill-opacity="0" stroke="#F2F2F2" stroke-width="0.399" stroke-opacity="0.2" stroke-linecap="round"/>
          <path d="M488.814,148.681 L492.385,145.108" fill-opacity="0" stroke="#F2F2F2" stroke-width="0.399" stroke-opacity="0.2" stroke-linecap="round"/>
        </g>
        <path d="M478.622,120.635 C478.622,124.362 475.571,127.414 471.845,127.414 L163.375,127.414 C159.648,127.414 156.596,124.362 156.596,120.635 L156.596,51.824 C156.596,48.097 159.648,45.045 163.375,45.045 L471.845,45.045 C475.571,45.045 478.622,48.097 478.622,51.824 L478.622,120.635 z" fill-opacity="0" stroke="#1A1A1A" stroke-width="2.391" stroke-opacity="0.4"/>
        <path d="M489.759,11.128 C489.759,15.754 493.516,19.512 498.143,19.512 C502.777,19.512 506.527,15.754 506.527,11.128 C506.527,6.496 502.777,2.746 498.143,2.746 C493.514,2.746 489.759,6.496 489.759,11.128 z M493.316,11.128 C493.316,8.465 495.478,6.305 498.141,6.305 C500.805,6.305 502.965,8.463 502.965,11.128 C502.965,13.794 500.807,15.952 498.141,15.952 C495.476,15.952 493.316,13.792 493.316,11.128 z" fill="#9A916C"/>
        <path d="M154.756,-0 L154.756,8.027 C154.756,10.275 156.577,12.1 158.828,12.1 C161.076,12.1 162.901,10.275 162.901,8.027 L162.901,-0 L154.756,-0 z M158.828,8.203 C157.534,8.203 156.484,7.154 156.484,5.859 C156.484,4.564 157.534,3.515 158.828,3.515 C160.123,3.515 161.172,4.564 161.172,5.859 C161.172,7.154 160.121,8.203 158.828,8.203 z" fill="#9A916C"/>
        <path d="M166.924,-0 L166.924,8.027 C166.924,10.275 168.745,12.1 170.996,12.1 C173.244,12.1 175.069,10.275 175.069,8.027 L175.069,-0 L166.924,-0 z M170.996,8.203 C169.702,8.203 168.652,7.154 168.652,5.859 C168.652,4.564 169.702,3.515 170.996,3.515 C172.291,3.515 173.34,4.564 173.34,5.859 C173.34,7.154 172.291,8.203 170.996,8.203 z" fill="#9A916C"/>
        <path d="M179.091,-0 L179.091,8.027 C179.091,10.275 180.913,12.1 183.164,12.1 C185.412,12.1 187.237,10.275 187.237,8.027 L187.237,-0 L179.091,-0 z M183.164,8.203 C181.87,8.203 180.82,7.154 180.82,5.859 C180.82,4.564 181.87,3.515 183.164,3.515 C184.459,3.515 185.508,4.564 185.508,5.859 C185.508,7.154 184.459,8.203 183.164,8.203 z" fill="#9A916C"/>
        <path d="M191.26,-0 L191.26,8.027 C191.26,10.275 193.081,12.1 195.332,12.1 C197.58,12.1 199.405,10.275 199.405,8.027 L199.405,-0 L191.26,-0 z M195.332,8.203 C194.038,8.203 192.988,7.154 192.988,5.859 C192.988,4.564 194.038,3.515 195.332,3.515 C196.627,3.515 197.676,4.564 197.676,5.859 C197.676,7.154 196.627,8.203 195.332,8.203 z" fill="#9A916C"/>
        <path d="M203.426,-0 L203.426,8.027 C203.426,10.275 205.248,12.1 207.499,12.1 C209.746,12.1 211.572,10.275 211.572,8.027 L211.572,-0 L203.426,-0 z M207.499,8.203 C206.204,8.203 205.155,7.154 205.155,5.859 C205.155,4.564 206.204,3.515 207.499,3.515 C208.793,3.515 209.843,4.564 209.843,5.859 C209.843,7.154 208.793,8.203 207.499,8.203 z" fill="#9A916C"/>
        <path d="M215.596,-0 L215.596,8.027 C215.596,10.275 217.417,12.1 219.668,12.1 C221.916,12.1 223.741,10.275 223.741,8.027 L223.741,-0 L215.596,-0 z M219.668,8.203 C218.374,8.203 217.324,7.154 217.324,5.859 C217.324,4.564 218.374,3.515 219.668,3.515 C220.963,3.515 222.012,4.564 222.012,5.859 C222.012,7.154 220.961,8.203 219.668,8.203 z" fill="#9A916C"/>
        <path d="M227.763,-0 L227.763,8.027 C227.763,10.275 229.585,12.1 231.836,12.1 C234.084,12.1 235.909,10.275 235.909,8.027 L235.909,-0 L227.763,-0 z M231.836,8.203 C230.542,8.203 229.492,7.154 229.492,5.859 C229.492,4.564 230.542,3.515 231.836,3.515 C233.131,3.515 234.18,4.564 234.18,5.859 C234.18,7.154 233.131,8.203 231.836,8.203 z" fill="#9A916C"/>
        <path d="M239.932,-0 L239.932,8.027 C239.932,10.275 241.753,12.1 244.004,12.1 C246.252,12.1 248.077,10.275 248.077,8.027 L248.077,-0 L239.932,-0 z M244.004,8.203 C242.71,8.203 241.66,7.154 241.66,5.859 C241.66,4.564 242.71,3.515 244.004,3.515 C245.299,3.515 246.348,4.564 246.348,5.859 C246.348,7.154 245.299,8.203 244.004,8.203 z" fill="#9A916C"/>
        <path d="M252.098,-0 L252.098,8.027 C252.098,10.275 253.92,12.1 256.171,12.1 C258.418,12.1 260.244,10.275 260.244,8.027 L260.244,-0 L252.098,-0 z M256.171,8.203 C254.876,8.203 253.827,7.154 253.827,5.859 C253.827,4.564 254.876,3.515 256.171,3.515 C257.465,3.515 258.515,4.564 258.515,5.859 C258.515,7.154 257.465,8.203 256.171,8.203 z" fill="#9A916C"/>
        <path d="M264.266,-0 L264.266,8.027 C264.266,10.275 266.088,12.1 268.339,12.1 C270.586,12.1 272.412,10.275 272.412,8.027 L272.412,-0 L264.266,-0 z M268.339,8.203 C267.044,8.203 265.995,7.154 265.995,5.859 C265.995,4.564 267.044,3.515 268.339,3.515 C269.633,3.515 270.683,4.564 270.683,5.859 C270.683,7.154 269.633,8.203 268.339,8.203 z" fill="#9A916C"/>
        <path d="M276.435,-0 L276.435,8.027 C276.435,10.275 278.257,12.1 280.508,12.1 C282.756,12.1 284.581,10.275 284.581,8.027 L284.581,-0 L276.435,-0 z M280.508,8.203 C279.214,8.203 278.164,7.154 278.164,5.859 C278.164,4.564 279.214,3.515 280.508,3.515 C281.803,3.515 282.852,4.564 282.852,5.859 C282.852,7.154 281.801,8.203 280.508,8.203 z" fill="#9A916C"/>
        <path d="M288.603,-0 L288.603,8.027 C288.603,10.275 290.425,12.1 292.676,12.1 C294.924,12.1 296.749,10.275 296.749,8.027 L296.749,-0 L288.603,-0 z M292.676,8.203 C291.382,8.203 290.332,7.154 290.332,5.859 C290.332,4.564 291.382,3.515 292.676,3.515 C293.971,3.515 295.02,4.564 295.02,5.859 C295.02,7.154 293.971,8.203 292.676,8.203 z" fill="#9A916C"/>
        <path d="M300.77,-0 L300.77,8.027 C300.77,10.275 302.592,12.1 304.843,12.1 C307.09,12.1 308.916,10.275 308.916,8.027 L308.916,-0 L300.77,-0 z M304.843,8.203 C303.548,8.203 302.499,7.154 302.499,5.859 C302.499,4.564 303.548,3.515 304.843,3.515 C306.137,3.515 307.187,4.564 307.187,5.859 C307.187,7.154 306.137,8.203 304.843,8.203 z" fill="#9A916C"/>
        <path d="M312.938,-0 L312.938,8.027 C312.938,10.275 314.76,12.1 317.011,12.1 C319.258,12.1 321.085,10.275 321.085,8.027 L321.085,-0 L312.938,-0 z M317.011,8.203 C315.716,8.203 314.667,7.154 314.667,5.859 C314.667,4.564 315.716,3.515 317.011,3.515 C318.305,3.515 319.355,4.564 319.355,5.859 C319.355,7.154 318.305,8.203 317.011,8.203 z" fill="#9A916C"/>
        <path d="M325.106,-0 L325.106,8.027 C325.106,10.275 326.928,12.1 329.179,12.1 C331.426,12.1 333.252,10.275 333.252,8.027 L333.252,-0 L325.106,-0 z M329.179,8.203 C327.884,8.203 326.835,7.154 326.835,5.859 C326.835,4.564 327.884,3.515 329.179,3.515 C330.473,3.515 331.523,4.564 331.523,5.859 C331.523,7.154 330.473,8.203 329.179,8.203 z" fill="#9A916C"/>
        <path d="M337.275,-0 L337.275,8.027 C337.275,10.275 339.097,12.1 341.348,12.1 C343.596,12.1 345.421,10.275 345.421,8.027 L345.421,-0 L337.275,-0 z M341.348,8.203 C340.054,8.203 339.004,7.154 339.004,5.859 C339.004,4.564 340.054,3.515 341.348,3.515 C342.643,3.515 343.692,4.564 343.692,5.859 C343.692,7.154 342.643,8.203 341.348,8.203 z" fill="#9A916C"/>
        <g>
          <path d="M172.957,86.815 L189.902,86.815 L189.902,114.737 L172.957,114.737 z" fill="#1A1A1A" fill-opacity="0.1"/>
          <path d="M191.114,86.815 L208.06,86.815 L208.06,114.737 L191.114,114.737 z" fill="#1A1A1A" fill-opacity="0.1"/>
          <path d="M209.272,86.815 L226.217,86.815 L226.217,114.737 L209.272,114.737 z" fill="#1A1A1A" fill-opacity="0.1"/>
          <path d="M227.429,86.815 L244.376,86.815 L244.376,114.737 L227.429,114.737 z" fill="#1A1A1A" fill-opacity="0.1"/>
          <path d="M245.59,86.815 L262.535,86.815 L262.535,114.737 L245.59,114.737 z" fill="#1A1A1A" fill-opacity="0.1"/>
          <path d="M263.747,86.815 L280.693,86.815 L280.693,114.737 L263.747,114.737 z" fill="#1A1A1A" fill-opacity="0.1"/>
          <path d="M281.904,86.815 L298.85,86.815 L298.85,114.737 L281.904,114.737 z" fill="#1A1A1A" fill-opacity="0.1"/>
          <path d="M300.062,86.815 L317.007,86.815 L317.007,114.737 L300.062,114.737 z" fill="#1A1A1A" fill-opacity="0.1"/>
          <path d="M318.219,86.815 L335.166,86.815 L335.166,114.737 L318.219,114.737 z" fill="#1A1A1A" fill-opacity="0.1"/>
          <path d="M336.378,86.815 L353.324,86.815 L353.324,114.737 L336.378,114.737 z" fill="#1A1A1A" fill-opacity="0.1"/>
          <path d="M354.535,86.815 L371.481,86.815 L371.481,114.737 L354.535,114.737 z" fill="#1A1A1A" fill-opacity="0.1"/>
          <path d="M372.693,86.815 L389.638,86.815 L389.638,114.737 L372.693,114.737 z" fill="#1A1A1A" fill-opacity="0.1"/>
          <path d="M390.85,86.815 L407.796,86.815 L407.796,114.737 L390.85,114.737 z" fill="#1A1A1A" fill-opacity="0.1"/>
          <path d="M409.008,86.815 L425.953,86.815 L425.953,114.737 L409.008,114.737 z" fill="#1A1A1A" fill-opacity="0.1"/>
          <path d="M427.165,86.815 L444.11,86.815 L444.11,114.737 L427.165,114.737 z" fill="#1A1A1A" fill-opacity="0.1"/>
          <path d="M445.324,86.815 L462.27,86.815 L462.27,114.737 L445.324,114.737 z" fill="#1A1A1A" fill-opacity="0.1"/>
          <path d="M172.957,57.72 L189.902,57.72 L189.902,85.642 L172.957,85.642 z" fill="#1A1A1A" fill-opacity="0.1"/>
          <path d="M191.114,57.72 L208.06,57.72 L208.06,85.642 L191.114,85.642 z" fill="#1A1A1A" fill-opacity="0.1"/>
          <path d="M209.272,57.72 L226.217,57.72 L226.217,85.642 L209.272,85.642 z" fill="#1A1A1A" fill-opacity="0.1"/>
          <path d="M227.429,57.72 L244.376,57.72 L244.376,85.642 L227.429,85.642 z" fill="#1A1A1A" fill-opacity="0.1"/>
          <path d="M245.59,57.72 L262.535,57.72 L262.535,85.642 L245.59,85.642 z" fill="#1A1A1A" fill-opacity="0.1"/>
          <path d="M263.747,57.72 L280.693,57.72 L280.693,85.642 L263.747,85.642 z" fill="#1A1A1A" fill-opacity="0.1"/>
          <path d="M281.904,57.72 L298.85,57.72 L298.85,85.642 L281.904,85.642 z" fill="#1A1A1A" fill-opacity="0.1"/>
          <path d="M300.062,57.72 L317.007,57.72 L317.007,85.642 L300.062,85.642 z" fill="#1A1A1A" fill-opacity="0.1"/>
          <path d="M318.219,57.72 L335.166,57.72 L335.166,85.642 L318.219,85.642 z" fill="#1A1A1A" fill-opacity="0.1"/>
          <path d="M336.378,57.72 L353.324,57.72 L353.324,85.642 L336.378,85.642 z" fill="#1A1A1A" fill-opacity="0.1"/>
          <path d="M354.535,57.72 L371.481,57.72 L371.481,85.642 L354.535,85.642 z" fill="#1A1A1A" fill-opacity="0.1"/>
          <path d="M372.693,57.72 L389.638,57.72 L389.638,85.642 L372.693,85.642 z" fill="#1A1A1A" fill-opacity="0.1"/>
          <path d="M390.85,57.72 L407.796,57.72 L407.796,85.642 L390.85,85.642 z" fill="#1A1A1A" fill-opacity="0.1"/>
          <path d="M409.008,57.72 L425.953,57.72 L425.953,85.642 L409.008,85.642 z" fill="#1A1A1A" fill-opacity="0.1"/>
          <path d="M427.165,57.72 L444.11,57.72 L444.11,85.642 L427.165,85.642 z" fill="#1A1A1A" fill-opacity="0.1"/>
          <path d="M445.324,57.72 L462.27,57.72 L462.27,85.642 L445.324,85.642 z" fill="#1A1A1A" fill-opacity="0.1"/>
        </g>
        <g>
          <path d="M141.969,110.227 L141.969,145.374 L142.422,145.374 L142.422,110.134 C142.282,110.193 142.121,110.196 141.969,110.227 z" fill="#606060"/>
          <path d="M142.422,62.329 L142.422,27.084 L141.969,27.084 L141.969,62.236 C142.121,62.266 142.282,62.27 142.422,62.329 z" fill="#606060"/>
        </g>
        <path d="M146.103,22.936 L489.12,22.936 L489.12,23.388 L146.103,23.388 z" fill="#606060"/>
        <path d="M146.103,22.426 L489.12,22.426 L489.12,22.94 L146.103,22.94 z" fill="#212121"/>
        <g>
          <path d="M141.553,62.151 C141.7,62.151 141.83,62.209 141.971,62.236 L141.971,27.084 L141.459,27.084 L141.459,62.151 L141.553,62.151 z" fill="#212121"/>
          <path d="M141.553,110.31 L141.459,110.31 L141.459,145.374 L141.971,145.374 L141.971,110.225 C141.83,110.252 141.7,110.31 141.553,110.31 z" fill="#212121"/>
        </g>
        <path d="M146.103,149.531 L489.12,149.531 L489.12,150.043 L146.103,150.043 z" fill="#212121"/>
        <path d="M146.103,149.083 L489.12,149.083 L489.12,149.534 L146.103,149.534 z" fill="#606060"/>
        <g>
          <path d="M493.673,110.31 C493.523,110.31 493.393,110.252 493.251,110.223 L493.251,145.374 L493.766,145.374 L493.766,110.31 L493.673,110.31 z" fill="#212121"/>
          <path d="M493.673,62.151 L493.766,62.151 L493.766,27.084 L493.251,27.084 L493.251,62.237 C493.393,62.21 493.523,62.151 493.673,62.151 z" fill="#212121"/>
        </g>
        <g>
          <path d="M492.804,110.134 L492.804,145.374 L493.254,145.374 L493.254,110.225 C493.104,110.196 492.943,110.193 492.804,110.134 z" fill="#606060"/>
          <path d="M493.254,62.237 L493.254,27.085 L492.804,27.085 L492.804,62.329 C492.943,62.27 493.104,62.266 493.254,62.237 z" fill="#606060"/>
        </g>
      </g>
      <path d="M161.172,5.861 C161.172,7.155 160.123,8.205 158.828,8.205 C157.534,8.205 156.484,7.155 156.484,5.861 C156.484,4.566 157.534,3.517 158.828,3.517 C160.123,3.517 161.172,4.566 161.172,5.861 z" fill="#000000" id="connector0pin"/>
      <path d="M173.34,5.861 C173.34,7.155 172.291,8.205 170.996,8.205 C169.702,8.205 168.652,7.155 168.652,5.861 C168.652,4.566 169.702,3.517 170.996,3.517 C172.291,3.517 173.34,4.566 173.34,5.861 z" fill="#000000" id="connector1pin"/>
      <path d="M185.508,5.861 C185.508,7.155 184.459,8.205 183.164,8.205 C181.87,8.205 180.82,7.155 180.82,5.861 C180.82,4.566 181.87,3.517 183.164,3.517 C184.459,3.517 185.508,4.566 185.508,5.861 z" fill="#000000" id="connector2pin"/>
      <path d="M197.676,5.861 C197.676,7.155 196.627,8.205 195.332,8.205 C194.038,8.205 192.988,7.155 192.988,5.861 C192.988,4.566 194.038,3.517 195.332,3.517 C196.627,3.517 197.676,4.566 197.676,5.861 z" fill="#000000" id="connector3pin"/>
      <path d="M209.843,5.861 C209.843,7.155 208.793,8.205 207.499,8.205 C206.204,8.205 205.155,7.155 205.155,5.861 C205.155,4.566 206.204,3.517 207.499,3.517 C208.793,3.517 209.843,4.566 209.843,5.861 z" fill="#000000" id="connector4pin"/>
      <path d="M222.012,5.861 C222.012,7.155 220.963,8.205 219.668,8.205 C218.374,8.205 217.324,7.155 217.324,5.861 C217.324,4.566 218.374,3.517 219.668,3.517 C220.963,3.517 222.012,4.566 222.012,5.861 z" fill="#000000" id="connector5pin"/>
      <path d="M229.492,5.861 C229.492,4.566 230.542,3.517 231.836,3.517 C233.131,3.517 234.18,4.566 234.18,5.861 C234.18,7.155 233.131,8.205 231.836,8.205 C230.542,8.205 229.492,7.154 229.492,5.861" fill="#000000" id="connector6pin"/>
      <path d="M246.348,5.861 C246.348,7.155 245.299,8.205 244.004,8.205 C242.71,8.205 241.66,7.155 241.66,5.861 C241.66,4.566 242.71,3.517 244.004,3.517 C245.299,3.517 246.348,4.566 246.348,5.861 z" fill="#000000" id="connector7pin"/>
      <path d="M258.515,5.861 C258.515,7.155 257.465,8.205 256.171,8.205 C254.876,8.205 253.827,7.155 253.827,5.861 C253.827,4.566 254.876,3.517 256.171,3.517 C257.465,3.517 258.515,4.566 258.515,5.861 z" fill="#000000" id="connector8pin"/>
      <path d="M270.683,5.861 C270.683,7.155 269.633,8.205 268.339,8.205 C267.044,8.205 265.995,7.155 265.995,5.861 C265.995,4.566 267.044,3.517 268.339,3.517 C269.633,3.517 270.683,4.566 270.683,5.861 z" fill="#000000" id="connector9pin"/>
      <path d="M282.852,5.861 C282.852,7.155 281.803,8.205 280.508,8.205 C279.214,8.205 278.164,7.155 278.164,5.861 C278.164,4.566 279.214,3.517 280.508,3.517 C281.803,3.517 282.852,4.566 282.852,5.861 z" fill="#000000" id="connector10pin"/>
      <path d="M295.02,5.861 C295.02,7.155 293.971,8.205 292.676,8.205 C291.382,8.205 290.332,7.155 290.332,5.861 C290.332,4.566 291.382,3.517 292.676,3.517 C293.971,3.517 295.02,4.566 295.02,5.861 z" fill="#000000" id="connector11pin"/>
      <path d="M307.187,5.861 C307.187,7.155 306.137,8.205 304.843,8.205 C303.548,8.205 302.499,7.155 302.499,5.861 C302.499,4.566 303.548,3.517 304.843,3.517 C306.137,3.517 307.187,4.566 307.187,5.861 z" fill="#000000" id="connector12pin"/>
      <path d="M319.355,5.861 C319.355,7.155 318.305,8.205 317.011,8.205 C315.716,8.205 314.667,7.155 314.667,5.861 C314.667,4.566 315.716,3.517 317.011,3.517 C318.305,3.517 319.355,4.566 319.355,5.861 z" fill="#000000" id="connector13pin"/>
      <path d="M331.523,5.861 C331.523,7.155 330.473,8.205 329.179,8.205 C327.884,8.205 326.835,7.155 326.835,5.861 C326.835,4.566 327.884,3.517 329.179,3.517 C330.473,3.517 331.523,4.566 331.523,5.861 z" fill="#000000" id="connector14pin"/>
      <path d="M343.692,5.861 C343.692,7.155 342.643,8.205 341.348,8.205 C340.054,8.205 339.004,7.155 339.004,5.861 C339.004,4.566 340.054,3.517 341.348,3.517 C342.643,3.517 343.692,4.566 343.692,5.861 z" fill="#000000" id="connector15pin"/>
    </g>
    <g>
      <path d="M281.381,86.598 L298.603,86.598 C298.822,86.598 299,93.236 299,101.425 L299,101.425 C299,109.614 298.822,116.253 298.603,116.253 L281.381,116.253 C281.162,116.253 280.985,109.614 280.985,101.425 L280.985,101.425 C280.985,93.236 281.162,86.598 281.381,86.598 z" fill="#F42300" fill-opacity="0.47"/>
      <g/>
    </g>
    <g>
      <path d="M254.029,197.253 L287.877,116.553" fill-opacity="0" stroke="#000000" stroke-width="1"/>
      <g>
        <path d="M290.643,117.713 L290.971,109.175 L285.11,115.392 z" fill="#000000"/>
        <path d="M290.643,117.713 L290.971,109.175 L285.11,115.392 z" fill-opacity="0" stroke="#000000" stroke-width="1"/>
      </g>
    </g>
    <g>
      <path d="M205.896,160.753 L284.103,160.753 C292.331,160.753 299,166.126 299,172.753 L299,199.253 C299,205.88 292.331,211.253 284.103,211.253 L205.896,211.253 C197.669,211.253 191,205.88 191,199.253 L191,172.753 C191,166.126 197.669,160.753 205.896,160.753 z" fill="#FFFFFF"/>
      <path d="M205.896,160.753 L284.103,160.753 C292.331,160.753 299,166.126 299,172.753 L299,199.253 C299,205.88 292.331,211.253 284.103,211.253 L205.896,211.253 C197.669,211.253 191,205.88 191,199.253 L191,172.753 C191,166.126 197.669,160.753 205.896,160.753 z" fill-opacity="0" stroke="#000000" stroke-width="1"/>
    </g>
    <path d="M213.848,177.539 L213.848,181.415 L212.584,181.415 L212.584,170.847 L213.848,170.847 L213.848,171.824 Q214.163,171.257 214.686,170.96 Q215.209,170.662 215.892,170.662 Q217.28,170.662 218.07,171.735 Q218.859,172.809 218.859,174.709 Q218.859,176.575 218.066,177.638 Q217.273,178.701 215.892,178.701 Q215.195,178.701 214.672,178.404 Q214.149,178.107 213.848,177.539 z M217.54,174.682 Q217.54,173.219 217.078,172.474 Q216.617,171.729 215.708,171.729 Q214.792,171.729 214.32,172.477 Q213.848,173.226 213.848,174.682 Q213.848,176.131 214.32,176.883 Q214.792,177.635 215.708,177.635 Q216.617,177.635 217.078,176.89 Q217.54,176.145 217.54,174.682 z" fill="#000000"/>
    <path d="M223.925,171.729 Q222.968,171.729 222.475,172.474 Q221.983,173.219 221.983,174.682 Q221.983,176.138 222.475,176.886 Q222.968,177.635 223.925,177.635 Q224.889,177.635 225.381,176.886 Q225.873,176.138 225.873,174.682 Q225.873,173.219 225.381,172.474 Q224.889,171.729 223.925,171.729 z M223.925,170.662 Q225.517,170.662 226.362,171.694 Q227.206,172.727 227.206,174.682 Q227.206,176.644 226.365,177.672 Q225.524,178.701 223.925,178.701 Q222.332,178.701 221.491,177.672 Q220.65,176.644 220.65,174.682 Q220.65,172.727 221.491,171.694 Q222.332,170.662 223.925,170.662 z" fill="#000000"/>
    <path d="M234.794,171.113 L234.794,172.344 Q234.254,172.029 233.707,171.872 Q233.16,171.715 232.593,171.715 Q231.738,171.715 231.318,171.992 Q230.897,172.269 230.897,172.836 Q230.897,173.349 231.212,173.602 Q231.526,173.855 232.777,174.094 L233.283,174.19 Q234.22,174.367 234.702,174.9 Q235.183,175.434 235.183,176.288 Q235.183,177.423 234.377,178.062 Q233.57,178.701 232.135,178.701 Q231.567,178.701 230.945,178.582 Q230.323,178.462 229.598,178.223 L229.598,176.924 Q230.303,177.286 230.945,177.467 Q231.588,177.648 232.162,177.648 Q232.996,177.648 233.454,177.31 Q233.912,176.972 233.912,176.363 Q233.912,175.488 232.237,175.153 L232.182,175.14 L231.711,175.044 Q230.624,174.832 230.125,174.33 Q229.626,173.827 229.626,172.959 Q229.626,171.858 230.371,171.26 Q231.116,170.662 232.497,170.662 Q233.112,170.662 233.68,170.775 Q234.247,170.888 234.794,171.113 z" fill="#000000"/>
    <path d="M238.731,170.874 L241.951,170.874 L241.951,177.525 L244.446,177.525 L244.446,178.503 L238.198,178.503 L238.198,177.525 L240.693,177.525 L240.693,171.852 L238.731,171.852 z M240.693,167.9 L241.951,167.9 L241.951,169.486 L240.693,169.486 z" fill="#000000"/>
    <path d="M249.197,168.673 L249.197,170.847 L252.055,170.847 L252.055,171.824 L249.197,171.824 L249.197,175.981 Q249.197,176.828 249.518,177.163 Q249.84,177.498 250.639,177.498 L252.055,177.498 L252.055,178.503 L250.516,178.503 Q249.101,178.503 248.52,177.936 Q247.939,177.368 247.939,175.981 L247.939,171.824 L245.895,171.824 L245.895,170.847 L247.939,170.847 L247.939,168.673 z" fill="#000000"/>
    <path d="M255.589,170.874 L258.808,170.874 L258.808,177.525 L261.304,177.525 L261.304,178.503 L255.056,178.503 L255.056,177.525 L257.551,177.525 L257.551,171.852 L255.589,171.852 z M257.551,167.9 L258.808,167.9 L258.808,169.486 L257.551,169.486 z" fill="#000000"/>
    <path d="M266.068,171.729 Q265.111,171.729 264.619,172.474 Q264.127,173.219 264.127,174.682 Q264.127,176.138 264.619,176.886 Q265.111,177.635 266.068,177.635 Q267.032,177.635 267.524,176.886 Q268.016,176.138 268.016,174.682 Q268.016,173.219 267.524,172.474 Q267.032,171.729 266.068,171.729 z M266.068,170.662 Q267.661,170.662 268.505,171.694 Q269.349,172.727 269.349,174.682 Q269.349,176.644 268.509,177.672 Q267.668,178.701 266.068,178.701 Q264.475,178.701 263.635,177.672 Q262.794,176.644 262.794,174.682 Q262.794,172.727 263.635,171.694 Q264.475,170.662 266.068,170.662 z" fill="#000000"/>
    <path d="M277.471,173.759 L277.471,178.503 L276.206,178.503 L276.206,173.759 Q276.206,172.727 275.844,172.241 Q275.481,171.756 274.709,171.756 Q273.827,171.756 273.352,172.381 Q272.877,173.007 272.877,174.176 L272.877,178.503 L271.619,178.503 L271.619,170.847 L272.877,170.847 L272.877,171.995 Q273.212,171.339 273.786,171.001 Q274.36,170.662 275.146,170.662 Q276.315,170.662 276.893,171.431 Q277.471,172.2 277.471,173.759 z" fill="#000000"/>
    <path d="M229.773,191.196 Q228.864,192.755 228.416,194.303 Q227.968,195.852 227.968,197.424 Q227.968,198.989 228.416,200.541 Q228.864,202.093 229.773,203.665 L228.679,203.665 Q227.647,202.038 227.141,200.497 Q226.635,198.955 226.635,197.424 Q226.635,195.899 227.141,194.355 Q227.647,192.81 228.679,191.196 z" fill="#000000"/>
    <path d="M239.131,192.523 L239.131,193.794 Q238.7,193.541 238.215,193.408 Q237.73,193.274 237.203,193.274 Q235.891,193.274 235.214,194.262 Q234.537,195.25 234.537,197.171 Q234.866,196.487 235.447,196.122 Q236.028,195.756 236.78,195.756 Q238.256,195.756 239.066,196.662 Q239.876,197.567 239.876,199.229 Q239.876,200.883 239.042,201.792 Q238.208,202.701 236.698,202.701 Q234.92,202.701 234.093,201.426 Q233.266,200.151 233.266,197.41 Q233.266,194.826 234.261,193.469 Q235.255,192.112 237.142,192.112 Q237.648,192.112 238.154,192.218 Q238.659,192.324 239.131,192.523 z M236.67,196.836 Q235.788,196.836 235.283,197.472 Q234.777,198.107 234.777,199.229 Q234.777,200.35 235.283,200.985 Q235.788,201.621 236.67,201.621 Q237.586,201.621 238.051,201.016 Q238.516,200.411 238.516,199.229 Q238.516,198.039 238.051,197.438 Q237.586,196.836 236.67,196.836 z" fill="#000000"/>
    <path d="M243.807,200.035 L245.94,200.035 L245.94,201.847 L244.422,204.793 L243.055,204.8 L243.807,201.847 z" fill="#000000"/>
    <path d="M251.06,201.348 L253.206,201.348 L253.206,193.637 L250.636,194.874 L250.636,193.548 L253.193,192.331 L254.574,192.331 L254.574,201.348 L256.693,201.348 L256.693,202.503 L251.06,202.503 z" fill="#000000"/>
    <path d="M260.022,191.196 L261.115,191.196 Q262.148,192.81 262.654,194.355 Q263.159,195.899 263.159,197.424 Q263.159,198.962 262.654,200.507 Q262.148,202.052 261.115,203.665 L260.022,203.665 Q260.931,202.079 261.379,200.527 Q261.826,198.976 261.826,197.424 Q261.826,195.865 261.379,194.314 Q260.931,192.762 260.022,191.196 z" fill="#000000"/>
    <g>
      <path d="M173.381,56.598 L190.603,56.598 C190.822,56.598 191,63.236 191,71.425 L191,71.425 C191,79.615 190.822,86.253 190.603,86.253 L173.381,86.253 C173.162,86.253 172.985,79.615 172.985,71.425 L172.985,71.425 C172.985,63.236 173.162,56.598 173.381,56.598 z" fill="#F42300" fill-opacity="0.47"/>
      <g/>
    </g>
    <g>
      <path d="M108,64.253 L169.058,71.231" fill-opacity="0" stroke="#000000" stroke-width="1"/>
      <g>
        <path d="M168.718,74.212 L177.006,72.139 L169.399,68.25 z" fill="#000000"/>
        <path d="M168.718,74.212 L177.006,72.139 L169.399,68.25 z" fill-opacity="0" stroke="#000000" stroke-width="1"/>
      </g>
    </g>
    <g>
      <path d="M15.897,35.753 L94.103,35.753 C102.331,35.753 109,41.126 109,47.753 L109,74.253 C109,80.88 102.331,86.253 94.103,86.253 L15.897,86.253 C7.669,86.253 1,80.88 1,74.253 L1,47.753 C1,41.126 7.669,35.753 15.897,35.753 z" fill="#FFFFFF"/>
      <path d="M15.897,35.753 L94.103,35.753 C102.331,35.753 109,41.126 109,47.753 L109,74.253 C109,80.88 102.331,86.253 94.103,86.253 L15.897,86.253 C7.669,86.253 1,80.88 1,74.253 L1,47.753 C1,41.126 7.669,35.753 15.897,35.753 z" fill-opacity="0" stroke="#000000" stroke-width="1"/>
    </g>
    <path d="M23.848,52.539 L23.848,56.415 L22.584,56.415 L22.584,45.847 L23.848,45.847 L23.848,46.824 Q24.163,46.257 24.686,45.96 Q25.209,45.662 25.892,45.662 Q27.28,45.662 28.07,46.735 Q28.859,47.809 28.859,49.709 Q28.859,51.575 28.066,52.638 Q27.273,53.701 25.892,53.701 Q25.195,53.701 24.672,53.404 Q24.149,53.107 23.848,52.539 z M27.54,49.682 Q27.54,48.219 27.078,47.474 Q26.617,46.729 25.708,46.729 Q24.792,46.729 24.32,47.477 Q23.848,48.226 23.848,49.682 Q23.848,51.131 24.32,51.883 Q24.792,52.635 25.708,52.635 Q26.617,52.635 27.078,51.89 Q27.54,51.145 27.54,49.682 z" fill="#000000"/>
    <path d="M33.925,46.729 Q32.968,46.729 32.475,47.474 Q31.983,48.219 31.983,49.682 Q31.983,51.138 32.475,51.886 Q32.968,52.635 33.925,52.635 Q34.889,52.635 35.381,51.886 Q35.873,51.138 35.873,49.682 Q35.873,48.219 35.381,47.474 Q34.889,46.729 33.925,46.729 z M33.925,45.662 Q35.517,45.662 36.362,46.694 Q37.206,47.727 37.206,49.682 Q37.206,51.644 36.365,52.672 Q35.524,53.701 33.925,53.701 Q32.332,53.701 31.491,52.672 Q30.65,51.644 30.65,49.682 Q30.65,47.727 31.491,46.694 Q32.332,45.662 33.925,45.662 z" fill="#000000"/>
    <path d="M44.794,46.113 L44.794,47.344 Q44.254,47.029 43.707,46.872 Q43.16,46.715 42.593,46.715 Q41.738,46.715 41.318,46.992 Q40.897,47.269 40.897,47.836 Q40.897,48.349 41.212,48.602 Q41.526,48.855 42.777,49.094 L43.283,49.19 Q44.22,49.367 44.702,49.9 Q45.183,50.434 45.183,51.288 Q45.183,52.423 44.377,53.062 Q43.57,53.701 42.135,53.701 Q41.567,53.701 40.945,53.582 Q40.323,53.462 39.598,53.223 L39.598,51.924 Q40.303,52.286 40.945,52.467 Q41.588,52.649 42.162,52.649 Q42.996,52.649 43.454,52.31 Q43.912,51.972 43.912,51.363 Q43.912,50.488 42.237,50.153 L42.182,50.14 L41.711,50.044 Q40.624,49.832 40.125,49.33 Q39.626,48.827 39.626,47.959 Q39.626,46.858 40.371,46.26 Q41.116,45.662 42.497,45.662 Q43.112,45.662 43.68,45.775 Q44.247,45.888 44.794,46.113 z" fill="#000000"/>
    <path d="M48.731,45.874 L51.951,45.874 L51.951,52.525 L54.446,52.525 L54.446,53.503 L48.198,53.503 L48.198,52.525 L50.693,52.525 L50.693,46.852 L48.731,46.852 z M50.693,42.9 L51.951,42.9 L51.951,44.486 L50.693,44.486 z" fill="#000000"/>
    <path d="M59.197,43.673 L59.197,45.847 L62.055,45.847 L62.055,46.824 L59.197,46.824 L59.197,50.981 Q59.197,51.828 59.518,52.163 Q59.84,52.498 60.639,52.498 L62.055,52.498 L62.055,53.503 L60.516,53.503 Q59.101,53.503 58.52,52.936 Q57.939,52.368 57.939,50.981 L57.939,46.824 L55.895,46.824 L55.895,45.847 L57.939,45.847 L57.939,43.673 z" fill="#000000"/>
    <path d="M65.589,45.874 L68.808,45.874 L68.808,52.525 L71.304,52.525 L71.304,53.503 L65.056,53.503 L65.056,52.525 L67.551,52.525 L67.551,46.852 L65.589,46.852 z M67.551,42.9 L68.808,42.9 L68.808,44.486 L67.551,44.486 z" fill="#000000"/>
    <path d="M76.068,46.729 Q75.111,46.729 74.619,47.474 Q74.127,48.219 74.127,49.682 Q74.127,51.138 74.619,51.886 Q75.111,52.635 76.068,52.635 Q77.032,52.635 77.524,51.886 Q78.016,51.138 78.016,49.682 Q78.016,48.219 77.524,47.474 Q77.032,46.729 76.068,46.729 z M76.068,45.662 Q77.661,45.662 78.505,46.694 Q79.349,47.727 79.349,49.682 Q79.349,51.644 78.509,52.672 Q77.668,53.701 76.068,53.701 Q74.475,53.701 73.635,52.672 Q72.794,51.644 72.794,49.682 Q72.794,47.727 73.635,46.694 Q74.475,45.662 76.068,45.662 z" fill="#000000"/>
    <path d="M87.471,48.759 L87.471,53.503 L86.206,53.503 L86.206,48.759 Q86.206,47.727 85.844,47.241 Q85.481,46.756 84.709,46.756 Q83.827,46.756 83.352,47.381 Q82.877,48.007 82.877,49.176 L82.877,53.503 L81.619,53.503 L81.619,45.847 L82.877,45.847 L82.877,46.995 Q83.212,46.339 83.786,46.001 Q84.36,45.662 85.146,45.662 Q86.315,45.662 86.893,46.431 Q87.471,47.2 87.471,48.759 z" fill="#000000"/>
    <path d="M39.773,66.196 Q38.864,67.755 38.416,69.303 Q37.968,70.852 37.968,72.424 Q37.968,73.989 38.416,75.541 Q38.864,77.093 39.773,78.665 L38.679,78.665 Q37.647,77.038 37.141,75.497 Q36.635,73.955 36.635,72.424 Q36.635,70.899 37.141,69.355 Q37.647,67.81 38.679,66.196 z" fill="#000000"/>
    <path d="M46.568,67.147 Q48.201,67.147 49.039,68.48 Q49.876,69.813 49.876,72.424 Q49.876,75.035 49.039,76.368 Q48.201,77.701 46.568,77.701 Q44.934,77.701 44.1,76.368 Q43.266,75.035 43.266,72.424 Q43.266,69.813 44.1,68.48 Q44.934,67.147 46.568,67.147 z M46.568,76.607 Q47.538,76.607 48.013,75.575 Q48.489,74.543 48.489,72.424 Q48.489,71.296 48.352,70.387 L45.098,75.48 Q45.611,76.607 46.568,76.607 z M46.568,68.24 Q45.604,68.24 45.129,69.273 Q44.654,70.305 44.654,72.424 Q44.654,73.388 44.783,74.229 L47.969,69.149 Q47.449,68.24 46.568,68.24 z" fill="#000000"/>
    <path d="M53.807,75.035 L55.94,75.035 L55.94,76.847 L54.422,79.793 L53.055,79.8 L53.807,76.847 z" fill="#000000"/>
    <path d="M63.425,67.147 Q65.059,67.147 65.896,68.48 Q66.734,69.813 66.734,72.424 Q66.734,75.035 65.896,76.368 Q65.059,77.701 63.425,77.701 Q61.791,77.701 60.957,76.368 Q60.123,75.035 60.123,72.424 Q60.123,69.813 60.957,68.48 Q61.791,67.147 63.425,67.147 z M63.425,76.607 Q64.396,76.607 64.871,75.575 Q65.346,74.543 65.346,72.424 Q65.346,71.296 65.209,70.387 L61.955,75.48 Q62.468,76.607 63.425,76.607 z M63.425,68.24 Q62.461,68.24 61.986,69.273 Q61.511,70.305 61.511,72.424 Q61.511,73.388 61.641,74.229 L64.826,69.149 Q64.307,68.24 63.425,68.24 z" fill="#000000"/>
    <path d="M70.022,66.196 L71.116,66.196 Q72.148,67.81 72.654,69.355 Q73.159,70.899 73.159,72.424 Q73.159,73.962 72.654,75.507 Q72.148,77.052 71.116,78.665 L70.022,78.665 Q70.931,77.079 71.379,75.527 Q71.826,73.976 71.826,72.424 Q71.826,70.865 71.379,69.314 Q70.931,67.762 70.022,66.196 z" fill="#000000"/>
  </g>
</svg>
